<svg xmlns="http://www.w3.org/2000/svg" width="353.297" height="136.032" viewBox="0 0 353.297 136.032">
  <g id="Grupo_87512" data-name="Grupo 87512" transform="translate(-238.427 -192.952)">
    <g id="Grupo_87431" data-name="Grupo 87431" transform="translate(465.045 252.622)">
      <g id="Grupo_87428" data-name="Grupo 87428" transform="translate(0 8.448)">
        <g id="Grupo_87427" data-name="Grupo 87427">
          <g id="Grupo_87426" data-name="Grupo 87426">
            <g id="Grupo_87425" data-name="Grupo 87425">
              <g id="Grupo_87423" data-name="Grupo 87423" transform="translate(0.505)">
                <g id="Grupo_87416" data-name="Grupo 87416" transform="translate(65.069 40.491)">
                  <path id="Trazado_139009" data-name="Trazado 139009" d="M409.693,258.155a7.655,7.655,0,0,0-6.516-7.163l-.006-.161-1.593.069a7.61,7.61,0,1,0,.672,15.2l1.6-.069-.011-.163A7.646,7.646,0,0,0,409.693,258.155Z" transform="translate(-394.13 -250.825)" fill="#0a1c33"/>
                  <g id="Grupo_87415" data-name="Grupo 87415" transform="translate(2.688)">
                    <path id="Trazado_139010" data-name="Trazado 139010" d="M395.571,258.729c-.188-4.194,2.655-7.73,6.345-7.895s6.827,3.108,7.013,7.306-2.654,7.73-6.339,7.895S395.755,262.925,395.571,258.729Z" transform="translate(-395.562 -250.828)" fill="#12263f"/>
                  </g>
                </g>
                <g id="Grupo_87418" data-name="Grupo 87418" transform="translate(4.881 42.077)">
                  <path id="Trazado_139011" data-name="Trazado 139011" d="M377.621,259a7.65,7.65,0,0,0-6.516-7.165l0-.16-1.6.071a7.61,7.61,0,1,0,.676,15.2l1.588-.077-.009-.158A7.645,7.645,0,0,0,377.621,259Z" transform="translate(-362.057 -251.67)" fill="#473a50"/>
                  <g id="Grupo_87417" data-name="Grupo 87417" transform="translate(2.691)">
                    <path id="Trazado_139012" data-name="Trazado 139012" d="M363.5,259.573c-.19-4.2,2.655-7.73,6.345-7.895s6.827,3.108,7.015,7.3-2.655,7.735-6.347,7.893S363.686,263.77,363.5,259.573Z" transform="translate(-363.491 -251.673)" fill="#322838"/>
                  </g>
                </g>
                <path id="Trazado_139013" data-name="Trazado 139013" d="M440.306,265.554l-49.842,2.2-29.45.224-1.558-15.806,11.1-1.906,3.394-2.615,3.137.834,3.8-2.2,56.126-2.331Z" transform="translate(-359.456 -216.359)" fill="#b0c0d2"/>
                <path id="Trazado_139014" data-name="Trazado 139014" d="M408.1,230.245l-24.623,1.087-12.6,26.978,52.627-2.183Z" transform="translate(-349.444 -228.38)" fill="#afafaf"/>
                <path id="Trazado_139015" data-name="Trazado 139015" d="M471.451,263.549l-95.166,4.209-.654-14.787,3.96-.671,5.564-3.376,7.99-.984,6.8-3.119,52.411-.867,15.846.3Z" transform="translate(-345.277 -216.361)" fill="#afafaf"/>
                <path id="Trazado_139016" data-name="Trazado 139016" d="M403.1,263.808l-2.5.1-1.1-19.235,2.49-.106Z" transform="translate(-324.354 -215.823)" fill="#b0c0d2"/>
                <path id="Trazado_139017" data-name="Trazado 139017" d="M437.911,229.251l-42.145,1.866-3.991,26.595-6.823,9.167,58.2-9.986Z" transform="translate(-337.106 -229.251)" fill="#b0c0d2"/>
                <path id="Trazado_139018" data-name="Trazado 139018" d="M401.3,256.065l24.689-1.089-3.478-24.841-22.314.986Z" transform="translate(-323.746 -228.475)" fill="#d2e1f1"/>
                <path id="Trazado_139019" data-name="Trazado 139019" d="M406.767,230.721l-13.992.618-2.925,25.123,18.02-.8Z" transform="translate(-332.812 -227.963)" fill="#d2e1f1"/>
                <path id="Trazado_139020" data-name="Trazado 139020" d="M424.173,242.026l-1.666-11.89-22.314.986.484,10.9Z" transform="translate(-323.746 -228.475)" fill="#f3f9ff"/>
                <path id="Trazado_139021" data-name="Trazado 139021" d="M406.431,241.513l-.476-10.792-13.992.618-1.186,10.175Z" transform="translate(-332 -227.963)" fill="#f3f9ff"/>
                <path id="Trazado_139022" data-name="Trazado 139022" d="M407.863,231.175l-3.749,24.85-33.236,1.47,11.776-25.206Z" transform="translate(-349.444 -227.565)" fill="#d2e1f1"/>
                <path id="Trazado_139023" data-name="Trazado 139023" d="M396.588,243.785l-6.235-2.5-4.134,4.074-5.524-2.02-4.077,6.988,22.462-.991,1.592-10.523Z" transform="translate(-344.412 -220.872)" fill="#12263f"/>
                <g id="Grupo_87420" data-name="Grupo 87420" transform="translate(39.782 41.166)">
                  <path id="Trazado_139024" data-name="Trazado 139024" d="M396.084,254.814a8.489,8.489,0,0,0-10.455-2.428l-.109-.137-1.4,1.066a8.429,8.429,0,1,0,10.188,13.425l1.409-1.066-.109-.139A8.486,8.486,0,0,0,396.084,254.814Z" transform="translate(-380.655 -250.89)" fill="#0a1c33"/>
                  <g id="Grupo_87419" data-name="Grupo 87419" transform="translate(2.166)">
                    <path id="Trazado_139025" data-name="Trazado 139025" d="M383.7,263.735c-2.809-3.71-2.445-8.719.809-11.19s8.182-1.471,11,2.235,2.453,8.717-.8,11.19S386.515,267.446,383.7,263.735Z" transform="translate(-381.81 -251.187)" fill="#12263f"/>
                    <path id="Trazado_139026" data-name="Trazado 139026" d="M384.506,260.805c-1.811-2.389-1.58-5.62.522-7.216s5.273-.95,7.088,1.439,1.58,5.622-.52,7.219S386.317,263.2,384.506,260.805Z" transform="translate(-380.515 -249.848)" fill="#b0c0d2"/>
                    <path id="Trazado_139027" data-name="Trazado 139027" d="M385.309,257.874a2.161,2.161,0,1,1,3.181.646A2.3,2.3,0,0,1,385.309,257.874Z" transform="translate(-379.222 -248.509)" fill="#12263f"/>
                  </g>
                </g>
                <g id="Grupo_87422" data-name="Grupo 87422" transform="translate(98.853 38.29)">
                  <path id="Trazado_139028" data-name="Trazado 139028" d="M426.943,264.126a8.483,8.483,0,0,0,.694-10.717l.126-.128-1.289-1.216a8.436,8.436,0,1,0-11.6,12.245l1.282,1.218.124-.128A8.491,8.491,0,0,0,426.943,264.126Z" transform="translate(-412.133 -249.655)" fill="#0a1c33"/>
                  <g id="Grupo_87421" data-name="Grupo 87421" transform="translate(1.911 1.778)">
                    <path id="Trazado_139029" data-name="Trazado 139029" d="M415.684,253.471c3.2-3.383,8.21-3.84,11.186-1.021s2.781,7.84-.42,11.218-8.216,3.845-11.188,1.028S412.479,256.855,415.684,253.471Z" transform="translate(-413.151 -250.602)" fill="#12263f"/>
                    <path id="Trazado_139030" data-name="Trazado 139030" d="M416.281,253.961c2.066-2.181,5.294-2.477,7.212-.661s1.794,5.057-.272,7.232-5.294,2.479-7.21.666S414.217,256.144,416.281,253.961Z" transform="translate(-411.837 -249.28)" fill="#b0c0d2"/>
                    <path id="Trazado_139031" data-name="Trazado 139031" d="M416.881,254.451a2.163,2.163,0,1,1-.122,3.248A2.308,2.308,0,0,1,416.881,254.451Z" transform="translate(-410.523 -247.956)" fill="#12263f"/>
                  </g>
                </g>
              </g>
              <g id="Grupo_87424" data-name="Grupo 87424" transform="translate(1.775 41.127)">
                <path id="Trazado_139032" data-name="Trazado 139032" d="M367.938,254.111a3.971,3.971,0,1,0-2.8,4.862A3.975,3.975,0,0,0,367.938,254.111Z" transform="translate(-360.132 -251.166)" fill="#12263f"/>
                <path id="Trazado_139033" data-name="Trazado 139033" d="M362.408,256.253c.709-.469.4-1.087.49-1.807,1.9,1.019,3.292-.131,4.556-1.437a3.971,3.971,0,0,0-7.186,3.162,4.3,4.3,0,0,0,.221.617.711.711,0,0,1,.19-.21C361.038,256.345,361.794,256.561,362.408,256.253Z" transform="translate(-360.132 -251.167)" fill="#f3f9ff"/>
              </g>
              <path id="Trazado_139034" data-name="Trazado 139034" d="M378.81,253.418a3.968,3.968,0,1,0-3.789,4.142A3.966,3.966,0,0,0,378.81,253.418Z" transform="translate(-348.938 -211.391)" fill="#ff9d00"/>
              <path id="Trazado_139035" data-name="Trazado 139035" d="M359.5,249.393l31.1.762-.048-1.061-31.1-.759Z" transform="translate(-358.951 -212.521)" fill="#12263f"/>
              <path id="Trazado_139036" data-name="Trazado 139036" d="M395.12,255.777a1.981,1.981,0,0,1-1.623,2.286l-32,5.465a1.987,1.987,0,0,1-2.286-1.621h0a1.981,1.981,0,0,1,1.62-2.289l31.994-5.459a1.983,1.983,0,0,1,2.291,1.62Z" transform="translate(-359.187 -207.444)" fill="#12263f"/>
              <path id="Rectángulo_32754" data-name="Rectángulo 32754" d="M.295,0h4.33a.3.3,0,0,1,.3.3V8.22a.3.3,0,0,1-.3.3H.295A.295.295,0,0,1,0,8.221V.295A.295.295,0,0,1,.295,0Z" transform="translate(54.104 31.723) rotate(-48.611)" fill="#727997"/>
              <path id="Trazado_139037" data-name="Trazado 139037" d="M359.456,248.716l10.679-.814,4.528.407,5.245-.407,9.9,1.554Z" transform="translate(-358.951 -212.901)" fill="#727997"/>
            </g>
            <path id="Trazado_139038" data-name="Trazado 139038" d="M380.883,233.173l1.257,2.95,3.094-.854-1.521,2.821,2.593,1.884-3.154.573.145,3.2-2.414-2.113-2.414,2.113.145-3.2-3.156-.573,2.595-1.884-1.519-2.821,3.088.854Z" transform="translate(-344.923 -225.813)" fill="#12263f"/>
            <path id="Trazado_139039" data-name="Trazado 139039" d="M401.339,245.943a.894.894,0,0,1-.578,1.118l-3.483,1.118a.9.9,0,0,1-1.12-.58h0a.89.89,0,0,1,.576-1.12l3.485-1.113a.89.89,0,0,1,1.12.576Z" transform="translate(-326.816 -215.161)" fill="#12263f"/>
            <path id="Trazado_139040" data-name="Trazado 139040" d="M415.733,245.641a.889.889,0,0,1-.925.854l-3.652-.144a.89.89,0,0,1-.856-.929h0a.887.887,0,0,1,.923-.852l3.658.143a.889.889,0,0,1,.852.929Z" transform="translate(-314.382 -215.824)" fill="#12263f"/>
          </g>
          <path id="Trazado_139041" data-name="Trazado 139041" d="M363.581,261.006c-.075,0-2.852,1.927-2.852,1.927a1.778,1.778,0,0,0,1.426.646h3.755Z" transform="translate(-357.835 -201.415)" fill="#d0edfe"/>
          <path id="Trazado_139042" data-name="Trazado 139042" d="M377.232,261.75c-.032,0-1.466-.334-1.466-.334l-.135,1.516.644.995,1.715-.768.844-.875Z" transform="translate(-344.772 -201.055)" fill="#ff9d00"/>
          <path id="Trazado_139043" data-name="Trazado 139043" d="M364.189,260.806a6.039,6.039,0,0,1,1.013-.736l.856.587.133.769-1.169.206-.636-.33Z" transform="translate(-354.802 -202.235)" fill="#eba117"/>
          <path id="Trazado_139044" data-name="Trazado 139044" d="M362.887,262.665l.475,1.3,1.541-.306.539-.992-1.327.174Z" transform="translate(-355.943 -199.96)" fill="#ff9d00"/>
          <path id="Trazado_139045" data-name="Trazado 139045" d="M374.987,259.781c-.034,0-.846.608-.846.608l-2-.237,1.316,1.141.109,1.514,1.792-1.329Z" transform="translate(-347.836 -202.488)" fill="#d0edfe"/>
          <path id="Trazado_139046" data-name="Trazado 139046" d="M368.036,260.569c-.034,0-.848.52-.848.52l-1.377.385-.623,1.1,1.421.572,1.282-.411Z" transform="translate(-353.927 -201.798)" fill="#d0edfe"/>
          <path id="Trazado_139047" data-name="Trazado 139047" d="M364.828,263.132a6.006,6.006,0,0,1,1.015-.859c.107-.094.388.6.584.687s.709.957.4.9a4.044,4.044,0,0,0-1.173.253l-.139-.976Z" transform="translate(-354.242 -200.312)" fill="#eba117"/>
          <path id="Trazado_139048" data-name="Trazado 139048" d="M374.427,259.409l.475,1.527,1.543-.359.54-1.167-1.327.2Z" transform="translate(-345.827 -202.814)" fill="#ff9d00"/>
        </g>
      </g>
      <g id="Grupo_87430" data-name="Grupo 87430" transform="translate(54.608)">
        <path id="Trazado_139049" data-name="Trazado 139049" d="M393.232,230.694a.819.819,0,0,1-.822.818h0a.819.819,0,0,1-.816-.818v-5.127a.822.822,0,0,1,.816-.818h0a.822.822,0,0,1,.822.818Z" transform="translate(-385.386 -224.749)" fill="#12263f"/>
        <g id="Grupo_87429" data-name="Grupo 87429" transform="translate(0 0.884)">
          <path id="Trazado_139050" data-name="Trazado 139050" d="M394.893,230.891a.815.815,0,0,1-1.068.445h0a.824.824,0,0,1-.45-1.07l2.978-4.538a.823.823,0,0,1,1.07-.449h0a.828.828,0,0,1,.45,1.073Z" transform="translate(-383.877 -225.22)" fill="#12263f"/>
          <path id="Trazado_139051" data-name="Trazado 139051" d="M391.322,230.891a.817.817,0,0,0,1.068.445h0a.824.824,0,0,0,.454-1.07l-2.978-4.538a.825.825,0,0,0-1.071-.449h0a.83.83,0,0,0-.449,1.073Z" transform="translate(-388.286 -225.22)" fill="#12263f"/>
        </g>
      </g>
    </g>
    <g id="Grupo_87444" data-name="Grupo 87444" transform="translate(238.427 238.024)">
      <path id="Trazado_139052" data-name="Trazado 139052" d="M275.87,226.625v-4.147a5.509,5.509,0,0,0-11.017,0v4.147Z" transform="translate(-215.262 -216.97)" fill="#ff9d00"/>
      <g id="Grupo_87443" data-name="Grupo 87443" transform="translate(1.675 6.722)">
        <g id="Grupo_87433" data-name="Grupo 87433" transform="translate(87.68 63.677)">
          <path id="Trazado_139053" data-name="Trazado 139053" d="M305.183,264.762a10.131,10.131,0,0,0-7.612-10.06v-.218h-1.955c-5.288,0-9.574,4.605-9.574,10.278s4.286,10.282,9.574,10.282h1.955v-.216A10.131,10.131,0,0,0,305.183,264.762Z" transform="translate(-286.042 -254.484)" fill="#0a1c33"/>
          <g id="Grupo_87432" data-name="Grupo 87432" transform="translate(3.312)">
            <path id="Trazado_139054" data-name="Trazado 139054" d="M287.807,264.762c0-5.673,3.68-10.278,8.218-10.278s8.216,4.605,8.216,10.278-3.68,10.282-8.216,10.282S287.807,270.441,287.807,264.762Z" transform="translate(-287.807 -254.484)" fill="#12263f"/>
          </g>
        </g>
        <g id="Grupo_87435" data-name="Grupo 87435" transform="translate(8.99 63.677)">
          <path id="Trazado_139055" data-name="Trazado 139055" d="M263.249,264.762a10.134,10.134,0,0,0-7.613-10.06v-.218h-1.957c-5.284,0-9.569,4.605-9.569,10.278s4.284,10.282,9.569,10.282h1.957v-.216A10.135,10.135,0,0,0,263.249,264.762Z" transform="translate(-244.11 -254.484)" fill="#0a1c33"/>
          <g id="Grupo_87434" data-name="Grupo 87434" transform="translate(3.31)">
            <path id="Trazado_139056" data-name="Trazado 139056" d="M245.874,264.762c0-5.673,3.68-10.278,8.216-10.278s8.218,4.605,8.218,10.278-3.678,10.282-8.218,10.282S245.874,270.441,245.874,264.762Z" transform="translate(-245.874 -254.484)" fill="#12263f"/>
          </g>
        </g>
        <path id="Trazado_139057" data-name="Trazado 139057" d="M299.078,220.552H267.509l-17.9,46.777h43.47Z" transform="translate(-230.3 -220.552)" fill="#12263f"/>
        <path id="Trazado_139058" data-name="Trazado 139058" d="M250.05,264.156,266.3,221.705h32.115l-5.369,42.451Z" transform="translate(-229.913 -219.541)" fill="#d2e1f1"/>
        <path id="Trazado_139059" data-name="Trazado 139059" d="M278.455,221.705l-18.876,13.933-7.95,20.775,43.228-34.708Z" transform="translate(-228.529 -219.541)" fill="#6e5582" opacity="0.4" style="mix-blend-mode: screen;isolation: isolate"/>
        <path id="Trazado_139060" data-name="Trazado 139060" d="M255.658,256.677H268.5l21.839-17.54,1.125-8.9Z" transform="translate(-224.997 -212.062)" fill="#6e5582" opacity="0.4" style="mix-blend-mode: screen;isolation: isolate"/>
        <path id="Trazado_139061" data-name="Trazado 139061" d="M282.532,273.624l19.915-28.145h-43.82l-19.309,4.1v24.049Z" transform="translate(-239.319 -198.701)" fill="#12263f"/>
        <path id="Trazado_139062" data-name="Trazado 139062" d="M365.757,295.475l-7.085-74.923H280.46l-9.612,74.923Z" transform="translate(-211.682 -220.552)" fill="#fff"/>
        <path id="Trazado_139063" data-name="Trazado 139063" d="M299.4,221.705h-19.11l-5.415,42.238H299.4Z" transform="translate(-208.15 -219.541)" fill="#d2e1f1"/>
        <path id="Trazado_139064" data-name="Trazado 139064" d="M297.661,234.849V221.705H278.55l-1.688,13.143Z" transform="translate(-206.409 -219.541)" fill="#6e5582" opacity="0.4" style="mix-blend-mode: screen;isolation: isolate"/>
        <path id="Trazado_139065" data-name="Trazado 139065" d="M370.265,245.478H281.629l-18.96,4.1v24.049H372.926Z" transform="translate(-218.851 -198.701)" fill="#12263f"/>
        <path id="Trazado_139066" data-name="Trazado 139066" d="M262.669,254.766v10.717H372.926l-1.111-10.717Z" transform="translate(-218.851 -190.56)" fill="#727997"/>
        <g id="Grupo_87437" data-name="Grupo 87437" transform="translate(112.988 6.63)">
          <path id="Trazado_139067" data-name="Trazado 139067" d="M331.52,240.079a16,16,0,1,0-15.994,16A16,16,0,0,0,331.52,240.079Z" transform="translate(-299.528 -224.085)" fill="#12263f"/>
          <g id="Grupo_87436" data-name="Grupo 87436" transform="translate(3.449 3.447)">
            <path id="Trazado_139068" data-name="Trazado 139068" d="M324.79,233.8h-6.215v-6.2a1.676,1.676,0,0,0-1.67-1.676h-5.99a1.676,1.676,0,0,0-1.672,1.676v6.2h-6.206a1.673,1.673,0,0,0-1.67,1.67v6a1.672,1.672,0,0,0,1.67,1.668h6.206v6.212a1.671,1.671,0,0,0,1.672,1.672h5.99a1.672,1.672,0,0,0,1.67-1.672v-6.212h6.215a1.669,1.669,0,0,0,1.67-1.668v-6A1.669,1.669,0,0,0,324.79,233.8Z" transform="translate(-301.366 -225.922)" fill="#fff"/>
          </g>
        </g>
        <g id="Grupo_87438" data-name="Grupo 87438" transform="translate(63.858 46.686)">
          <path id="Trazado_139069" data-name="Trazado 139069" d="M303.469,271.408H289.644l-.141-.561c-.017-.06-1.546-5.977-5.2-8.672-3.828-2.828-9.925-1.86-9.987-1.85l-.972.159.118-.981,1.708-14.073,1.469.18-1.6,13.136c2.019-.178,6.741-.274,10.139,2.237,3.417,2.526,5.1,7.307,5.594,8.944h11.1l-1.713-24.355,1.475-.105Z" transform="translate(-273.348 -245.43)" fill="#b0c0d2"/>
        </g>
        <g id="Grupo_87440" data-name="Grupo 87440" transform="translate(58.21 63.677)">
          <path id="Trazado_139070" data-name="Trazado 139070" d="M289.474,264.762a10.129,10.129,0,0,0-7.61-10.06v-.218h-1.957c-5.286,0-9.569,4.605-9.569,10.278s4.282,10.282,9.569,10.282h1.957v-.216A10.129,10.129,0,0,0,289.474,264.762Z" transform="translate(-270.338 -254.484)" fill="#12263f"/>
          <g id="Grupo_87439" data-name="Grupo 87439" transform="translate(3.308)">
            <path id="Trazado_139071" data-name="Trazado 139071" d="M272.1,264.762c0-5.673,3.68-10.278,8.218-10.278s8.216,4.605,8.216,10.278-3.678,10.282-8.216,10.282S272.1,270.441,272.1,264.762Z" transform="translate(-272.101 -254.484)" fill="#0a1c33"/>
            <path id="Trazado_139072" data-name="Trazado 139072" d="M273.656,263.055c0-3.659,2.374-6.624,5.3-6.624s5.3,2.965,5.3,6.624-2.374,6.63-5.3,6.63S273.656,266.715,273.656,263.055Z" transform="translate(-270.738 -252.777)" fill="#b0c0d2"/>
            <path id="Trazado_139073" data-name="Trazado 139073" d="M275.214,261.349a2.437,2.437,0,1,1,2.376,2.978A2.725,2.725,0,0,1,275.214,261.349Z" transform="translate(-269.372 -251.071)" fill="#12263f"/>
          </g>
        </g>
        <g id="Grupo_87442" data-name="Grupo 87442" transform="translate(125.974 63.677)">
          <path id="Trazado_139074" data-name="Trazado 139074" d="M325.586,264.762a10.129,10.129,0,0,0-7.608-10.06v-.218h-1.957c-5.288,0-9.573,4.605-9.573,10.278s4.284,10.282,9.573,10.282h1.957v-.216A10.13,10.13,0,0,0,325.586,264.762Z" transform="translate(-306.448 -254.484)" fill="#12263f"/>
          <g id="Grupo_87441" data-name="Grupo 87441" transform="translate(3.31)">
            <path id="Trazado_139075" data-name="Trazado 139075" d="M308.212,264.762c0-5.673,3.678-10.278,8.22-10.278s8.216,4.605,8.216,10.278-3.68,10.282-8.216,10.282S308.212,270.441,308.212,264.762Z" transform="translate(-308.212 -254.484)" fill="#0a1c33"/>
            <path id="Trazado_139076" data-name="Trazado 139076" d="M309.769,263.055c0-3.659,2.368-6.624,5.3-6.624s5.3,2.965,5.3,6.624-2.376,6.63-5.3,6.63S309.769,266.715,309.769,263.055Z" transform="translate(-306.847 -252.777)" fill="#b0c0d2"/>
            <path id="Trazado_139077" data-name="Trazado 139077" d="M311.324,261.349a2.436,2.436,0,1,1,4.753,0c0,1.644-1.064,2.978-2.374,2.978A2.732,2.732,0,0,1,311.324,261.349Z" transform="translate(-305.484 -251.071)" fill="#12263f"/>
          </g>
        </g>
      </g>
      <rect id="Rectángulo_32755" data-name="Rectángulo 32755" width="12.301" height="7.715" transform="translate(1.675 57.595)" fill="#fff"/>
      <rect id="Rectángulo_32756" data-name="Rectángulo 32756" width="12.301" height="7.715" transform="translate(33.238 57.595)" fill="#fff"/>
      <path id="Trazado_139078" data-name="Trazado 139078" d="M324.884,255.377h-6.321v-7.715h4.783Z" transform="translate(-168.179 -190.066)" fill="#ff9d00"/>
      <rect id="Rectángulo_32757" data-name="Rectángulo 32757" width="48.92" height="6.744" transform="translate(6.183 75.593)" fill="#d0edfe"/>
      <rect id="Rectángulo_32758" data-name="Rectángulo 32758" width="48.918" height="6.744" transform="translate(0 75.593)" fill="#fff"/>
      <rect id="Rectángulo_32759" data-name="Rectángulo 32759" width="18.117" height="6.15" transform="translate(14.533 67.572)" fill="#fff"/>
      <path id="Trazado_139079" data-name="Trazado 139079" d="M290.456,247.879c0,.9-1.614,1.627-3.607,1.627s-3.609-.724-3.609-1.627,1.616-1.625,3.609-1.625S290.456,246.982,290.456,247.879Z" transform="translate(-199.143 -191.3)" fill="#727997"/>
    </g>
    <g id="Grupo_87510" data-name="Grupo 87510" transform="translate(399.509 251.186)">
      <g id="Grupo_87482" data-name="Grupo 87482" transform="translate(0 4.019)">
        <g id="Grupo_87481" data-name="Grupo 87481">
          <g id="Grupo_87446" data-name="Grupo 87446" transform="translate(5.713 35.482)">
            <path id="Trazado_139080" data-name="Trazado 139080" d="M330.984,245.882l-.975-.849-1.474,1.7.984.845Z" transform="translate(-326.232 -245.033)" fill="#edb485"/>
            <g id="Grupo_87445" data-name="Grupo 87445" transform="translate(0 1.332)">
              <path id="Trazado_139081" data-name="Trazado 139081" d="M329.167,246.783a.328.328,0,0,1,.45-.12h0a.336.336,0,0,1,.116.452l-1,1.7a.332.332,0,0,1-.45.12h0a.336.336,0,0,1-.12-.452Z" transform="translate(-326.595 -244.976)" fill="#edb485"/>
              <path id="Trazado_139082" data-name="Trazado 139082" d="M328.649,246.254a.328.328,0,0,1,.464-.043h0a.332.332,0,0,1,.043.464l-1.269,1.52a.325.325,0,0,1-.464.036h0a.325.325,0,0,1-.036-.462Z" transform="translate(-327.309 -245.4)" fill="#edb485"/>
              <path id="Trazado_139083" data-name="Trazado 139083" d="M327.5,246.145a.359.359,0,0,0,.353.368l1.591.032a1.119,1.119,0,0,0,.208-.507c.006-.1-.233-.295-.233-.295l-1.552.054A.357.357,0,0,0,327.5,246.145Z" transform="translate(-327.141 -245.743)" fill="#edb485"/>
              <path id="Trazado_139084" data-name="Trazado 139084" d="M328.818,246.641a.333.333,0,0,1,.462-.077h0a.326.326,0,0,1,.073.46l-1.152,1.61a.331.331,0,0,1-.458.073h0a.33.33,0,0,1-.073-.46Z" transform="translate(-327.047 -245.077)" fill="#edb485"/>
              <path id="Trazado_139085" data-name="Trazado 139085" d="M328.536,246.018a.659.659,0,0,1,.912-.152l.756.546a.647.647,0,0,1,.15.906l-.544.758a.649.649,0,0,1-.908.148l-.756-.546a.649.649,0,0,1-.15-.908Z" transform="translate(-326.813 -245.74)" fill="#edb485"/>
            </g>
          </g>
          <g id="Grupo_87447" data-name="Grupo 87447" transform="translate(8.101 10.746)">
            <path id="Trazado_139086" data-name="Trazado 139086" d="M328.581,257.194a26.479,26.479,0,0,0,2.828-4.9,34.369,34.369,0,0,0,2.972-9.192c.263-1.794.43-6.911-1.9-8.961a1.307,1.307,0,0,1,1.723-1.967c3.873,3.393,2.815,10.984,2.77,11.3a38.418,38.418,0,0,1-3.393,10.346,37.031,37.031,0,0,1-2.038,3.708,12.4,12.4,0,0,1-.985,1.368Z" transform="translate(-328.581 -231.852)" fill="#12263f"/>
          </g>
          <g id="Grupo_87456" data-name="Grupo 87456" transform="translate(19.706 32.044)">
            <rect id="Rectángulo_32760" data-name="Rectángulo 32760" width="1.621" height="1.36" transform="matrix(0.824, -0.566, 0.566, 0.824, 12.271, 33.195)" fill="#cf9b72"/>
            <rect id="Rectángulo_32761" data-name="Rectángulo 32761" width="1.905" height="1.975" transform="matrix(0.825, -0.565, 0.565, 0.825, 12.649, 33.995)" fill="#e6dad1"/>
            <g id="Grupo_87453" data-name="Grupo 87453" transform="translate(11.052 33.596)">
              <g id="Grupo_87449" data-name="Grupo 87449">
                <g id="Grupo_87448" data-name="Grupo 87448">
                  <path id="Trazado_139087" data-name="Trazado 139087" d="M341.662,261.541a.7.7,0,0,1,.982.161l.372.518a.7.7,0,0,1-.158.981h0a.706.706,0,0,1-.981-.161l-.375-.522a.7.7,0,0,1,.161-.978Z" transform="translate(-340.029 -260.837)" fill="#cdedfc"/>
                  <path id="Trazado_139088" data-name="Trazado 139088" d="M345.456,261.816a.359.359,0,0,1-.081.494c-.54.387-1.693,1.216-1.693,1.216l-2.653,1.907-.27-.377,4.631-3.329Z" transform="translate(-340.563 -260.558)" fill="#12263f"/>
                  <path id="Trazado_139089" data-name="Trazado 139089" d="M340.862,265.61l4.624-3.335-.317-.439h0l-.419-.585a.362.362,0,0,0-.441-.115l.026.036a.666.666,0,0,1-1.083.775l-.028-.038-1.083.9.019.022a.38.38,0,0,1,.081.231.36.36,0,0,1-.008.073.629.629,0,0,1-.169.272.594.594,0,0,0-.049.049c-.053.039-.107.083-.165.129l-.561.407A1.107,1.107,0,0,0,340.862,265.61Z" transform="translate(-340.655 -261.104)" fill="#cdedfc"/>
                </g>
                <path id="Trazado_139090" data-name="Trazado 139090" d="M340.862,264.3l1.053-.762a1.206,1.206,0,0,0-.229-.662,1.159,1.159,0,0,0-.282-.278l-.114.084A1.107,1.107,0,0,0,340.862,264.3Z" transform="translate(-340.655 -259.794)" fill="#e6dad1"/>
              </g>
              <g id="Grupo_87450" data-name="Grupo 87450" transform="translate(1.579 1.958)">
                <path id="Trazado_139091" data-name="Trazado 139091" d="M341.9,262.53a.035.035,0,0,0,.051.011h.006a.042.042,0,0,0,.006-.049.956.956,0,0,0-.454-.345.36.36,0,0,1-.008.073A.845.845,0,0,1,341.9,262.53Z" transform="translate(-341.496 -262.147)" fill="#e6dad1"/>
              </g>
              <g id="Grupo_87451" data-name="Grupo 87451" transform="translate(1.361 2.303)">
                <path id="Trazado_139092" data-name="Trazado 139092" d="M341.643,262.626a.035.035,0,0,0,.049.011h0a.034.034,0,0,0,.009-.049,1.135,1.135,0,0,0-.276-.257.594.594,0,0,0-.049.049A.923.923,0,0,1,341.643,262.626Z" transform="translate(-341.38 -262.331)" fill="#e6dad1"/>
              </g>
              <g id="Grupo_87452" data-name="Grupo 87452" transform="translate(1.061 2.536)">
                <path id="Trazado_139093" data-name="Trazado 139093" d="M341.471,262.74a.047.047,0,0,0,.052.011h0a.045.045,0,0,0,.009-.051,1.1,1.1,0,0,0-.253-.246l-.062.043A.879.879,0,0,1,341.471,262.74Z" transform="translate(-341.22 -262.455)" fill="#e6dad1"/>
              </g>
            </g>
            <g id="Grupo_87455" data-name="Grupo 87455">
              <g id="Grupo_87454" data-name="Grupo 87454">
                <path id="Trazado_139094" data-name="Trazado 139094" d="M349.881,275c-6.326-8.852-11.07-19.517-8.891-30.172-1.531-.334-4.269-1.3-5.806-1.631-2.151,11.9,4.327,24.4,11.618,34.064Z" transform="translate(-334.765 -243.201)" fill="#12263f"/>
              </g>
            </g>
          </g>
          <g id="Grupo_87462" data-name="Grupo 87462" transform="translate(11.57 30.984)">
            <rect id="Rectángulo_32762" data-name="Rectángulo 32762" width="1.619" height="1.362" transform="translate(3.172 35.892) rotate(-6.956)" fill="#cf9b72"/>
            <rect id="Rectángulo_32763" data-name="Rectángulo 32763" width="1.902" height="1.971" transform="matrix(0.992, -0.123, 0.123, 0.992, 3.138, 36.783)" fill="#e6dad1"/>
            <path id="Trazado_139095" data-name="Trazado 139095" d="M336.731,244.244a1.917,1.917,0,0,1,1.893-1.608h5.093c1.06,0,1.92.086,1.92,1.148v1.2a2.079,2.079,0,0,1-1.92,1.916,5.432,5.432,0,0,0-2.543,1.8c-5.7,8.338-6.746,19.569-5.3,29.615-1.261.2-2.515.4-3.772.6C330.129,267.358,330.051,253.8,336.731,244.244Z" transform="translate(-329.985 -242.636)" fill="#12263f"/>
            <path id="Trazado_139096" data-name="Trazado 139096" d="M341.8,246.9a2.918,2.918,0,0,0-.368.111h-8.31a27.272,27.272,0,0,1,1.691-2.762,1.917,1.917,0,0,1,1.893-1.608H341.8c1.06,0,1.92.086,1.92,1.148v1.2A2.079,2.079,0,0,1,341.8,246.9Z" transform="translate(-328.068 -242.636)" fill="#132c42" opacity="0.4" style="mix-blend-mode: multiply;isolation: isolate"/>
            <g id="Grupo_87458" data-name="Grupo 87458" transform="translate(0 37.061)">
              <g id="Grupo_87457" data-name="Grupo 87457">
                <path id="Trazado_139097" data-name="Trazado 139097" d="M332.324,262.393a.7.7,0,0,1,.8.593l.092.634a.7.7,0,0,1-.587.8h0a.7.7,0,0,1-.8-.593l-.1-.632a.707.707,0,0,1,.593-.8Z" transform="translate(-329.294 -262.385)" fill="#cdedfc"/>
                <path id="Trazado_139098" data-name="Trazado 139098" d="M336.092,263.5a.35.35,0,0,1-.3.4c-.653.1-2.061.3-2.061.3l-3.226.479-.069-.458,5.639-.833Z" transform="translate(-330.423 -261.504)" fill="#12263f"/>
                <path id="Trazado_139099" data-name="Trazado 139099" d="M330.442,264.955l5.639-.833-.079-.542h0l-.1-.709a.36.36,0,0,0-.336-.3l0,.041a.665.665,0,0,1-1.315.2l0-.045-1.377.3.006.03a.365.365,0,0,1-.036.242.246.246,0,0,1-.041.064.63.63,0,0,1-.27.163c-.021,0-.045.013-.071.017a1.609,1.609,0,0,1-.206.041l-.681.1C330.86,263.82,330.341,264.249,330.442,264.955Z" transform="translate(-330.429 -262.226)" fill="#cdedfc"/>
              </g>
              <path id="Trazado_139100" data-name="Trazado 139100" d="M330.442,264.429l1.289-.188a1.239,1.239,0,0,0,.105-.693,1.293,1.293,0,0,0-.126-.383l-.141.021C330.86,263.294,330.341,263.723,330.442,264.429Z" transform="translate(-330.429 -261.7)" fill="#e6dad1"/>
            </g>
            <g id="Grupo_87459" data-name="Grupo 87459" transform="translate(2.37 38.161)">
              <path id="Trazado_139101" data-name="Trazado 139101" d="M331.912,263.495a.035.035,0,0,0,.036.03h0a.034.034,0,0,0,.032-.034.975.975,0,0,0-.248-.52.245.245,0,0,1-.041.064A.884.884,0,0,1,331.912,263.495Z" transform="translate(-331.692 -262.971)" fill="#e6dad1"/>
            </g>
            <g id="Grupo_87460" data-name="Grupo 87460" transform="translate(2.028 38.388)">
              <path id="Trazado_139102" data-name="Trazado 139102" d="M331.632,263.454c0,.015.024.03.038.03h.008a.034.034,0,0,0,.026-.038.981.981,0,0,0-.122-.355c-.021,0-.045.013-.071.017A.9.9,0,0,1,331.632,263.454Z" transform="translate(-331.51 -263.092)" fill="#e6dad1"/>
            </g>
            <g id="Grupo_87461" data-name="Grupo 87461" transform="translate(1.658 38.461)">
              <path id="Trazado_139103" data-name="Trazado 139103" d="M331.431,263.473a.035.035,0,0,0,.036.032h0a.036.036,0,0,0,.032-.038.956.956,0,0,0-.115-.336l-.075.013A.922.922,0,0,1,331.431,263.473Z" transform="translate(-331.313 -263.131)" fill="#e6dad1"/>
            </g>
          </g>
          <g id="Grupo_87464" data-name="Grupo 87464" transform="translate(10.981 9.484)">
            <g id="Grupo_87463" data-name="Grupo 87463">
              <path id="Trazado_139104" data-name="Trazado 139104" d="M335.523,255.631h11.734c1-6.585-2.586-15.155-6.621-20.673-1.959-2.391-7.653-6.009-9.95-1.946-1.424,2.516.075,6.153,1.663,8.246C334.838,244.735,336.362,251.527,335.523,255.631Z" transform="translate(-330.116 -231.179)" fill="#cdedfc"/>
            </g>
          </g>
          <g id="Grupo_87466" data-name="Grupo 87466" transform="translate(6.609 5.732)">
            <g id="Grupo_87465" data-name="Grupo 87465">
              <path id="Trazado_139105" data-name="Trazado 139105" d="M334.6,233.31a12.585,12.585,0,0,0-4.723-4.13c-.433.586-.865,1.171-1.276,1.766-.27.383-.546.764-.814,1.15a8.916,8.916,0,0,1,3.845,3.121,2.36,2.36,0,0,0,2.5,1.132C335.371,235.879,335.185,234.215,334.6,233.31Z" transform="translate(-327.786 -229.18)" fill="#d69b6b"/>
            </g>
          </g>
          <g id="Grupo_87480" data-name="Grupo 87480">
            <g id="Grupo_87477" data-name="Grupo 87477">
              <g id="Grupo_87475" data-name="Grupo 87475" transform="translate(2.184)">
                <g id="Grupo_87467" data-name="Grupo 87467" transform="translate(2.756 0.044)">
                  <path id="Trazado_139106" data-name="Trazado 139106" d="M328,232.95c-1.49-2.119-1.522-5.106.174-6.3s4.5-.137,5.988,1.984,1.31,4.81-.392,6.005S329.489,235.072,328,232.95Z" transform="translate(-326.896 -226.149)" fill="#2a2626"/>
                </g>
                <g id="Grupo_87468" data-name="Grupo 87468" transform="translate(0.215 1.761)">
                  <path id="Trazado_139107" data-name="Trazado 139107" d="M328.5,236.237a3.773,3.773,0,0,0,5.251.927h0a3.765,3.765,0,0,0,.923-5.251l-2.267-3.241a3.774,3.774,0,0,0-5.253-.927h0a3.775,3.775,0,0,0-.925,5.253Z" transform="translate(-325.543 -227.064)" fill="#edb485"/>
                </g>
                <g id="Grupo_87469" data-name="Grupo 87469" transform="translate(0.215 1.761)">
                  <path id="Trazado_139108" data-name="Trazado 139108" d="M328.5,236.237a3.773,3.773,0,0,0,5.251.927h0a3.765,3.765,0,0,0,.923-5.251l-2.267-3.241a3.774,3.774,0,0,0-5.253-.927h0a3.775,3.775,0,0,0-.925,5.253Z" transform="translate(-325.543 -227.064)" fill="#edb485"/>
                </g>
                <path id="Trazado_139109" data-name="Trazado 139109" d="M328.834,233.394a.134.134,0,0,0,.1-.041.139.139,0,0,0,.006-.2.653.653,0,0,1,.5-1.1.64.64,0,0,1,.454.208.138.138,0,0,0,.2.006.144.144,0,0,0,.009-.2.949.949,0,0,0-.649-.3.916.916,0,0,0-.67.25.932.932,0,0,0-.051,1.319A.129.129,0,0,0,328.834,233.394Z" transform="translate(-322.752 -221.172)" fill="#2a2626"/>
                <g id="Grupo_87470" data-name="Grupo 87470" transform="translate(0.215 1.761)">
                  <path id="Trazado_139110" data-name="Trazado 139110" d="M330.317,229.517l-.55-.784a3.439,3.439,0,0,0,.235,1.612C330.339,230.878,330.276,229.705,330.317,229.517Z" transform="translate(-321.84 -225.601)" fill="#bd8f6a"/>
                  <path id="Trazado_139111" data-name="Trazado 139111" d="M327.15,227.745a3.775,3.775,0,0,0-.925,5.253l2.271,3.239a3.832,3.832,0,0,0,.749.8,10.817,10.817,0,0,0,3.86-3.686c.5-1.049-.128-2.167.115-3.282.011-.058.022-.114.036-.174l-.852-1.218A3.774,3.774,0,0,0,327.15,227.745Z" transform="translate(-325.543 -227.064)" fill="#edb485"/>
                </g>
                <g id="Grupo_87471" data-name="Grupo 87471">
                  <path id="Trazado_139112" data-name="Trazado 139112" d="M325.428,229.011a11.409,11.409,0,0,1,2.441-1.961,4.932,4.932,0,0,1,6.367.458l-1.389-.043c.541.766-1.9,2.348-2.667,2.882l-2.558,1.8Z" transform="translate(-325.428 -226.125)" fill="#2a2626"/>
                </g>
                <g id="Grupo_87472" data-name="Grupo 87472" transform="translate(6.336 3.429)">
                  <path id="Trazado_139113" data-name="Trazado 139113" d="M330.926,230.682a.7.7,0,0,0,.171-.972l-1.026-1.462a.693.693,0,0,0-.972-.165h0a.684.684,0,0,0-.165.961l1.021,1.466a.7.7,0,0,0,.972.173Z" transform="translate(-328.804 -227.953)" fill="#2a2626"/>
                </g>
                <g id="Grupo_87473" data-name="Grupo 87473" transform="translate(1.265 0.911)">
                  <path id="Trazado_139114" data-name="Trazado 139114" d="M331.15,230.006a1.093,1.093,0,0,0-1.5-.182l-2.381,1.672-1.169-1.672,4.588-3.213,2.134,3.042-1.394.76Z" transform="translate(-326.102 -226.611)" fill="#2a2626"/>
                </g>
                <g id="Grupo_87474" data-name="Grupo 87474" transform="translate(7.859 4.698)">
                  <path id="Trazado_139115" data-name="Trazado 139115" d="M330.689,231.033c.422-.094.649-.706.5-1.361s-.6-1.122-1.03-1.032-.649.7-.5,1.364S330.264,231.127,330.689,231.033Z" transform="translate(-329.616 -228.629)" fill="#edb485"/>
                </g>
              </g>
              <g id="Grupo_87476" data-name="Grupo 87476" transform="translate(0 0.698)">
                <path id="Trazado_139116" data-name="Trazado 139116" d="M324.63,232.157a2.026,2.026,0,0,1,.5-2.822l3.524-2.47a2.021,2.021,0,0,1,2.82.5h0a2.021,2.021,0,0,1-.494,2.819l-3.524,2.468a2.03,2.03,0,0,1-2.826-.492Z" transform="translate(-324.264 -226.497)" fill="#2a2626"/>
              </g>
            </g>
            <g id="Grupo_87479" data-name="Grupo 87479" transform="translate(4.847 6.813)">
              <g id="Grupo_87478" data-name="Grupo 87478">
                <path id="Trazado_139117" data-name="Trazado 139117" d="M327.635,230.931a.424.424,0,1,1-.659.5.425.425,0,1,1,.659-.5Z" transform="translate(-326.847 -228.936)" fill="#2a2626"/>
                <path id="Trazado_139118" data-name="Trazado 139118" d="M328.854,229.987a.426.426,0,1,1-.647-.163A.482.482,0,0,1,328.854,229.987Z" transform="translate(-325.776 -229.756)" fill="#2a2626"/>
              </g>
              <path id="Trazado_139119" data-name="Trazado 139119" d="M328.959,231.333a.439.439,0,0,1-.081.617h0a.446.446,0,0,1-.623-.077l-.372-.494a.437.437,0,0,1,.081-.614h0a.442.442,0,0,1,.619.079Z" transform="translate(-326.017 -228.951)" fill="#d69b6b"/>
            </g>
          </g>
        </g>
      </g>
      <g id="Grupo_87506" data-name="Grupo 87506" transform="translate(16.083)">
        <g id="Grupo_87486" data-name="Grupo 87486" transform="translate(1.615 15.911)">
          <rect id="Rectángulo_32764" data-name="Rectángulo 32764" width="2.254" height="1.306" transform="translate(1.938 22.389) rotate(-45.46)" fill="#edb485"/>
          <g id="Grupo_87483" data-name="Grupo 87483" transform="translate(0 22.023)">
            <path id="Trazado_139120" data-name="Trazado 139120" d="M333.739,245.478a.363.363,0,0,0,.482.163l1.437-.707a1.14,1.14,0,0,0-.052-.544c-.043-.1-.34-.154-.34-.154L333.9,245A.361.361,0,0,0,333.739,245.478Z" transform="translate(-333.687 -244.164)" fill="#edb485"/>
            <path id="Trazado_139121" data-name="Trazado 139121" d="M335.06,244.438a18.9,18.9,0,0,0-1.351,2.166,1.4,1.4,0,0,0,.321,1.023c.21.255.961.182,1.111.079a8.857,8.857,0,0,0,1.655-1.847.653.653,0,0,0-.092-.92l-.724-.6A.657.657,0,0,0,335.06,244.438Z" transform="translate(-333.694 -244.198)" fill="#edb485"/>
          </g>
          <g id="Grupo_87485" data-name="Grupo 87485" transform="translate(1.718)">
            <g id="Grupo_87484" data-name="Grupo 87484">
              <path id="Trazado_139122" data-name="Trazado 139122" d="M338.012,248.95a40.267,40.267,0,0,0,4.8-10.216,20.565,20.565,0,0,0,.632-6.272l3.068.274a24.175,24.175,0,0,1-.756,6.814,44.613,44.613,0,0,1-5.453,11.488,48.98,48.98,0,0,1-3.25,4.284l-2.442-1.648A27.485,27.485,0,0,0,338.012,248.95Z" transform="translate(-334.61 -232.462)" fill="#7e5ee3"/>
            </g>
          </g>
        </g>
        <g id="Grupo_87487" data-name="Grupo 87487" transform="translate(28.905 70.728)">
          <rect id="Rectángulo_32765" data-name="Rectángulo 32765" width="1.811" height="1.522" transform="translate(0 0.827) rotate(-27.165)" fill="#cf9b72"/>
          <rect id="Rectángulo_32766" data-name="Rectángulo 32766" width="2.128" height="2.208" transform="translate(0.307 1.771) rotate(-27.247)" fill="#e6dad1"/>
        </g>
        <g id="Grupo_87490" data-name="Grupo 87490" transform="translate(27.217 72.678)">
          <g id="Grupo_87489" data-name="Grupo 87489">
            <g id="Grupo_87488" data-name="Grupo 87488">
              <path id="Trazado_139123" data-name="Trazado 139123" d="M348.65,263.073a.784.784,0,0,1,1.075.272l.37.616a.785.785,0,0,1-.27,1.075h0a.784.784,0,0,1-1.075-.27l-.368-.616a.78.78,0,0,1,.268-1.077Z" transform="translate(-346.523 -262.493)" fill="#7e5ee3"/>
              <path id="Trazado_139124" data-name="Trazado 139124" d="M352.964,263.564a.4.4,0,0,1-.135.544l-2,1.194-3.134,1.877-.266-.449,5.472-3.273Z" transform="translate(-347.258 -262.059)" fill="#12263f"/>
              <path id="Trazado_139125" data-name="Trazado 139125" d="M347.513,267.394l5.474-3.273-.315-.525h0l-.415-.691a.392.392,0,0,0-.477-.167l.023.038a.744.744,0,1,1-1.276.766l-.028-.047-1.293.9.021.028a.425.425,0,0,1,.066.27.231.231,0,0,1-.015.075.7.7,0,0,1-.208.285c-.021.017-.043.034-.064.052-.06.039-.124.086-.2.133l-.661.392C347.459,266.039,347.1,266.709,347.513,267.394Z" transform="translate(-347.338 -262.712)" fill="#7e5ee3"/>
            </g>
            <path id="Trazado_139126" data-name="Trazado 139126" d="M347.513,266.069l1.25-.745a1.36,1.36,0,0,0-.193-.766,1.343,1.343,0,0,0-.287-.334l-.137.079C347.459,264.714,347.1,265.384,347.513,266.069Z" transform="translate(-347.338 -261.387)" fill="#e6dad1"/>
          </g>
        </g>
        <rect id="Rectángulo_32767" data-name="Rectángulo 32767" width="1.522" height="1.81" transform="matrix(0.194, -0.981, 0.981, 0.194, 4.513, 72.788)" fill="#cf9b72"/>
        <rect id="Rectángulo_32768" data-name="Rectángulo 32768" width="2.207" height="2.128" transform="matrix(0.194, -0.981, 0.981, 0.194, 4.031, 74.39)" fill="#e6dad1"/>
        <g id="Grupo_87492" data-name="Grupo 87492" transform="translate(13.472 37.011)">
          <g id="Grupo_87491" data-name="Grupo 87491">
            <path id="Trazado_139127" data-name="Trazado 139127" d="M358.132,277.169c-4.8-10.385-9.786-22.178-12.494-33.463-1.71.405-3.913,1-5.624,1.409,3.123,11.6,8.764,23.4,14.6,33.9C355.868,278.359,356.872,277.834,358.132,277.169Z" transform="translate(-340.013 -243.706)" fill="#afafaf"/>
          </g>
        </g>
        <g id="Grupo_87494" data-name="Grupo 87494" transform="translate(13.472 37.011)">
          <g id="Grupo_87493" data-name="Grupo 87493">
            <path id="Trazado_139128" data-name="Trazado 139128" d="M346.183,248.946a236.375,236.375,0,0,0,9.646,23.63c-1.259.664-2.263,1.19-3.522,1.848a196.2,196.2,0,0,1-9.666-19.689A20.475,20.475,0,0,1,346.183,248.946Z" transform="translate(-337.71 -239.113)" fill="#afafaf"/>
          </g>
        </g>
        <path id="Trazado_139130" data-name="Trazado 139130" d="M341.322,246.99a2.145,2.145,0,0,1,1.809-2.438l5.641-.828c1.173-.165,2.139-.206,2.31.961l.193,1.323a2.152,2.152,0,0,1-1.813,2.44l-5.639.82a2.137,2.137,0,0,1-2.432-1.813Z" transform="translate(-325.414 -206.753)" fill="#afafaf"/>
        <g id="Grupo_87496" data-name="Grupo 87496" transform="translate(3.56 35.407)">
          <g id="Grupo_87495" data-name="Grupo 87495">
            <path id="Trazado_139131" data-name="Trazado 139131" d="M338.948,279.46c2.141-11.975,6.958-24.112,17.193-30.686-.931-1.494-2.3-4.434-3.232-5.923-11.2,7.578-16.146,22.529-18.179,35.911C336.14,278.992,337.542,279.225,338.948,279.46Z" transform="translate(-334.731 -242.851)" fill="#afafaf"/>
          </g>
        </g>
        <path id="Trazado_139132" data-name="Trazado 139132" d="M338.18,233.925l3.47,23.73a.925.925,0,0,0,1.032.813l11.019-1.612a.925.925,0,0,0,.758-1.073l-3.781-23.643c-.075-.52-.229-.974-.721-.9l-1.7-.056-4.277-.137-5.093,1.773a1.13,1.13,0,0,0-.709.771A1.008,1.008,0,0,0,338.18,233.925Z" transform="translate(-328.159 -217.794)" fill="#fff"/>
        <path id="Trazado_139133" data-name="Trazado 139133" d="M340.975,235.839a1.624,1.624,0,0,0,1.847,1.376h0a1.622,1.622,0,0,0,1.368-1.847l-.771-5.286a1.628,1.628,0,0,0-1.841-1.374h0a1.632,1.632,0,0,0-1.379,1.847Z" transform="translate(-326.394 -219.857)" fill="#d69b6b"/>
        <path id="Trazado_139134" data-name="Trazado 139134" d="M339.816,230.109c-.4-2.717.991-5.562,3.17-5.881s4.326,2.012,4.72,4.723-1.043,5.178-3.224,5.5S340.214,232.825,339.816,230.109Z" transform="translate(-326.772 -223.795)" fill="#2a2626"/>
        <path id="Trazado_139135" data-name="Trazado 139135" d="M338.7,233.305a4,4,0,0,0,4.53,3.378h0a4,4,0,0,0,3.376-4.534L346,228a4,4,0,0,0-4.532-3.374h0a4,4,0,0,0-3.374,4.53Z" transform="translate(-328.26 -223.456)" fill="#edb485"/>
        <path id="Trazado_139136" data-name="Trazado 139136" d="M341.663,230.132a.164.164,0,0,1-.143.18l-1.777.2a.164.164,0,0,1-.176-.141h0a.159.159,0,0,1,.141-.173l1.781-.2a.157.157,0,0,1,.174.137Z" transform="translate(-326.932 -218.714)" fill="#2a2626"/>
        <g id="Grupo_87497" data-name="Grupo 87497" transform="translate(10.825 6.867)">
          <path id="Trazado_139137" data-name="Trazado 139137" d="M340.279,228.259a.466.466,0,1,0,.392-.614A.521.521,0,0,0,340.279,228.259Z" transform="translate(-337.136 -227.643)" fill="#2a2626"/>
          <path id="Trazado_139138" data-name="Trazado 139138" d="M338.606,228.437a.525.525,0,0,0,.514.52.515.515,0,0,0,.39-.612.467.467,0,1,0-.9.092Z" transform="translate(-338.602 -227.489)" fill="#2a2626"/>
        </g>
        <path id="Trazado_139139" data-name="Trazado 139139" d="M338.842,224.705a12.123,12.123,0,0,1,3.245-.689c3.89-.37,5.664,2.481,5.8,3.464l-1.287-.7c.145.981-2.914,1.315-3.9,1.458l-3.28.48Z" transform="translate(-327.567 -223.983)" fill="#2a2626"/>
        <path id="Trazado_139140" data-name="Trazado 139140" d="M342.8,229.723a.733.733,0,0,0,.621-.835l-.274-1.871a.734.734,0,0,0-.833-.625h0a.737.737,0,0,0-.621.835l.274,1.875a.731.731,0,0,0,.833.621Z" transform="translate(-325.077 -221.879)" fill="#2a2626"/>
        <path id="Trazado_139141" data-name="Trazado 139141" d="M343.855,228.287a1.154,1.154,0,0,0-1.329-.88l-3.049.445-.313-2.137,5.879-.858.569,3.894-1.68.056S343.919,228.723,343.855,228.287Z" transform="translate(-327.285 -223.218)" fill="#2a2626"/>
        <path id="Trazado_139142" data-name="Trazado 139142" d="M342.34,230.193c.471.174,1.077-.274,1.347-1.01s.114-1.473-.357-1.646-1.077.274-1.351,1.013S341.869,230.02,342.34,230.193Z" transform="translate(-324.931 -220.901)" fill="#edb485"/>
        <path id="Trazado_139143" data-name="Trazado 139143" d="M337.057,227.114a2.146,2.146,0,0,1,1.813-2.436l4.509-.655a2.143,2.143,0,0,1,2.438,1.809h0A2.145,2.145,0,0,1,344,228.266l-4.513.661a2.143,2.143,0,0,1-2.434-1.813Z" transform="translate(-329.152 -223.97)" fill="#2a2626"/>
        <g id="Grupo_87500" data-name="Grupo 87500" transform="translate(0 72.48)">
          <g id="Grupo_87499" data-name="Grupo 87499">
            <g id="Grupo_87498" data-name="Grupo 87498">
              <path id="Trazado_139144" data-name="Trazado 139144" d="M335.585,262.619a.781.781,0,0,1,.636.91l-.124.706a.786.786,0,0,1-.906.638h0a.786.786,0,0,1-.638-.908l.124-.709a.784.784,0,0,1,.908-.636Z" transform="translate(-331.338 -262.606)" fill="#7e5ee3"/>
              <path id="Trazado_139145" data-name="Trazado 139145" d="M339.184,264.805a.394.394,0,0,1-.458.319c-.73-.128-2.3-.4-2.3-.4l-3.6-.632.09-.516,6.279,1.107Z" transform="translate(-332.834 -261.755)" fill="#12263f"/>
              <path id="Trazado_139146" data-name="Trazado 139146" d="M332.881,264.132l6.279,1.1.111-.606h0l.133-.79a.391.391,0,0,0-.25-.441l-.008.049a.745.745,0,0,1-1.468-.263l.011-.051-1.565-.167-.006.034a.4.4,0,0,1-.122.246.268.268,0,0,1-.06.052.726.726,0,0,1-.351.077c-.026,0-.051,0-.081,0-.069-.006-.148-.017-.233-.03l-.76-.135C333.724,263.07,333.018,263.342,332.881,264.132Z" transform="translate(-332.793 -262.292)" fill="#7e5ee3"/>
            </g>
            <path id="Trazado_139147" data-name="Trazado 139147" d="M332.881,264.035l1.432.25a1.4,1.4,0,0,0,.357-.7,1.428,1.428,0,0,0,0-.447l-.158-.03C333.724,262.973,333.018,263.245,332.881,264.035Z" transform="translate(-332.793 -262.195)" fill="#e6dad1"/>
          </g>
        </g>
        <g id="Grupo_87501" data-name="Grupo 87501" transform="translate(12.336 8.337)">
          <path id="Trazado_139148" data-name="Trazado 139148" d="M339.508,229.608a.468.468,0,0,0,.525.4h0a.471.471,0,0,0,.4-.531l-.094-.649a.467.467,0,0,0-.533-.394h0a.467.467,0,0,0-.392.529Z" transform="translate(-339.407 -228.426)" fill="#d69b6b"/>
        </g>
        <g id="Grupo_87505" data-name="Grupo 87505" transform="translate(14.484 13.253)">
          <rect id="Rectángulo_32769" data-name="Rectángulo 32769" width="2.255" height="1.3" transform="translate(1.849 29.96) rotate(-50.731)" fill="#edb485"/>
          <g id="Grupo_87502" data-name="Grupo 87502" transform="translate(0 29.596)">
            <path id="Trazado_139149" data-name="Trazado 139149" d="M340.6,248.242a.356.356,0,0,0,.5.116l1.366-.831a1.133,1.133,0,0,0-.1-.533c-.045-.1-.353-.124-.353-.124l-1.289.874A.366.366,0,0,0,340.6,248.242Z" transform="translate(-340.552 -246.77)" fill="#edb485"/>
            <path id="Trazado_139150" data-name="Trazado 139150" d="M341.771,247.1a19.39,19.39,0,0,0-1.156,2.278,1.424,1.424,0,0,0,.415.991c.233.233.972.092,1.113-.021a8.985,8.985,0,0,0,1.483-1.991.655.655,0,0,0-.175-.91l-.775-.525A.654.654,0,0,0,341.771,247.1Z" transform="translate(-340.503 -246.817)" fill="#edb485"/>
          </g>
          <g id="Grupo_87504" data-name="Grupo 87504" transform="translate(1.523)">
            <g id="Grupo_87503" data-name="Grupo 87503">
              <path id="Trazado_139151" data-name="Trazado 139151" d="M341.364,259.846a27.288,27.288,0,0,0,2.965-5.01,40.192,40.192,0,0,0,3.864-10.6c.385-2.091.8-8.062-1.841-10.55a1.529,1.529,0,1,1,2.1-2.22c4.372,4.129,2.817,12.947,2.744,13.322a44.8,44.8,0,0,1-4.4,11.928,50.762,50.762,0,0,1-2.858,4.556Z" transform="translate(-341.364 -231.046)" fill="#7e5ee3"/>
            </g>
          </g>
        </g>
      </g>
      <g id="Grupo_87508" data-name="Grupo 87508" transform="translate(17.387 40.378)">
        <path id="Trazado_139152" data-name="Trazado 139152" d="M336.7,246.037l-1.224-.537-.924,2.118,1.226.531Z" transform="translate(-332.633 -245.5)" fill="#edb485"/>
        <g id="Grupo_87507" data-name="Grupo 87507" transform="translate(0 1.747)">
          <path id="Trazado_139153" data-name="Trazado 139153" d="M335.14,247.464a.338.338,0,0,1,.407-.255h0a.339.339,0,0,1,.251.407l-.458,1.98a.343.343,0,0,1-.407.253h0a.338.338,0,0,1-.251-.405Z" transform="translate(-332.526 -245.757)" fill="#edb485"/>
          <path id="Trazado_139154" data-name="Trazado 139154" d="M334.5,247.142a.342.342,0,0,1,.441-.188h0a.342.342,0,0,1,.184.449l-.779,1.877a.343.343,0,0,1-.443.18h0a.339.339,0,0,1-.184-.443Z" transform="translate(-333.384 -245.994)" fill="#edb485"/>
          <path id="Trazado_139155" data-name="Trazado 139155" d="M333.542,247.421a.372.372,0,0,0,.458.253l1.578-.456a1.217,1.217,0,0,0,.047-.557c-.026-.107-.315-.218-.315-.218l-1.514.522A.371.371,0,0,0,333.542,247.421Z" transform="translate(-333.529 -246.421)" fill="#edb485"/>
          <path id="Trazado_139156" data-name="Trazado 139156" d="M334.772,247.45a.341.341,0,0,1,.428-.212h0a.336.336,0,0,1,.218.426l-.646,1.929a.327.327,0,0,1-.426.214h0a.334.334,0,0,1-.214-.426Z" transform="translate(-333.016 -245.739)" fill="#edb485"/>
          <path id="Trazado_139157" data-name="Trazado 139157" d="M334.389,246.892a.68.68,0,0,1,.85-.43l.908.312a.662.662,0,0,1,.424.844l-.3.91a.666.666,0,0,1-.848.418l-.906-.3a.666.666,0,0,1-.426-.844Z" transform="translate(-333.07 -246.431)" fill="#edb485"/>
        </g>
      </g>
      <g id="Grupo_87509" data-name="Grupo 87509" transform="translate(15.047 14.974)">
        <path id="Trazado_139158" data-name="Trazado 139158" d="M336.281,258.384a26.237,26.237,0,0,0,1.289-5.679,35.2,35.2,0,0,0,.115-9.937c-.289-1.852-1.683-6.932-4.6-8.227a1.346,1.346,0,0,1,1.092-2.46c4.84,2.152,6.118,9.937,6.17,10.263a39.353,39.353,0,0,1-.178,11.2,38.176,38.176,0,0,1-.871,4.266,12.52,12.52,0,0,1-.548,1.65Z" transform="translate(-332.282 -231.963)" fill="#12263f"/>
      </g>
    </g>
    <g id="Grupo_87511" data-name="Grupo 87511" transform="translate(442.053 192.952)">
      <path id="Trazado_139159" data-name="Trazado 139159" d="M425.6,230.586a37.466,37.466,0,1,0-37.611,37.32A37.467,37.467,0,0,0,425.6,230.586Z" transform="translate(-343.658 -192.94)" fill="#b0c0d2"/>
      <path id="Trazado_139160" data-name="Trazado 139160" d="M421.864,230.569a37.465,37.465,0,1,0-37.609,37.316A37.459,37.459,0,0,0,421.864,230.569Z" transform="translate(-346.935 -192.952)" fill="#e8e8e8"/>
      <path id="Trazado_139161" data-name="Trazado 139161" d="M367.578,315.016l9.88.04-3.048-85.95,7.431-9.22-.068-.073-7.51,7.023-1.2-17.992-.57,0L369.7,246.249l-10.011-12.662-.123.085,9.819,16.846Z" transform="translate(-335.859 -179.024)" fill="#12263f"/>
    </g>
  </g>
</svg>
