<svg xmlns="http://www.w3.org/2000/svg" width="292.934" height="195.142" viewBox="0 0 292.934 195.142">
  <g id="Grupo_87327" data-name="Grupo 87327" transform="translate(-518.783 -371.496)">
    <g id="Grupo_87243" data-name="Grupo 87243" transform="translate(518.783 434.431)">
      <g id="Grupo_87235" data-name="Grupo 87235" transform="translate(9.214 90.817)">
        <path id="Trazado_138752" data-name="Trazado 138752" d="M366.018,433.745c-5.532,7.717-14.117,11.03-19.171,7.4s-4.669-12.821.871-20.546c5.532-7.706,14.12-11.018,19.175-7.393S371.554,426.028,366.018,433.745Z" transform="translate(-343.295 -411.74)" fill="#12263f"/>
        <path id="Trazado_138753" data-name="Trazado 138753" d="M367.9,428.672c-1.7,9.326,1.868,17.819,7.992,18.93s12.458-5.551,14.166-14.884c1.708-9.353-1.876-17.83-7.988-18.938C375.949,412.653,369.6,419.316,367.9,428.672Z" transform="translate(-275.099 -406.338)" fill="#12263f"/>
      </g>
      <g id="Grupo_87238" data-name="Grupo 87238" transform="translate(21.48)">
        <g id="Grupo_87237" data-name="Grupo 87237">
          <path id="Trazado_138754" data-name="Trazado 138754" d="M453.915,454.2c-.795-20.08-1.914-36.394-2.594-56.466a326.53,326.53,0,0,0-90.488-9.551c-4.86,19.5-9.364,35.206-14.327,54.682Z" transform="translate(-346.506 -387.969)" fill="#afafaf"/>
          <g id="Grupo_87236" data-name="Grupo 87236" transform="translate(3.584 2.852)">
            <path id="Trazado_138755" data-name="Trazado 138755" d="M448.281,448.908,347.444,438.26c1.964-7.591,3.866-14.709,5.708-21.6,2.365-8.818,4.8-17.922,7.29-27.794,8.97-.275,17.979-.164,26.923.352,4.99.275,9.964.672,14.9,1.192,5.459.577,11.312,1.345,17.23,2.27,9.02,1.41,18.193,3.194,26.4,5.2.374,10.2.856,19.641,1.326,28.768C447.571,433.768,447.949,441.1,448.281,448.908Z" transform="translate(-347.444 -388.716)" fill="#b0c0d2"/>
          </g>
          <path id="Trazado_138756" data-name="Trazado 138756" d="M364.192,403.973l16.814,11.3-20.264,12.722,17.658,6.457s-2.384,4.856-3.843,8.275l36.218,3.828c-.332-7.813-.711-15.141-1.07-22.266-.47-9.127-.951-18.568-1.326-28.768-8.2-2.006-17.375-3.79-26.4-5.2-1.719-.267-3.435-.523-5.135-.768a18.3,18.3,0,0,1-.516,9.842Z" transform="translate(-306.354 -383.508)" fill="#12263f"/>
        </g>
      </g>
      <g id="Grupo_87240" data-name="Grupo 87240" transform="translate(1.479 51.889)">
        <g id="Grupo_87239" data-name="Grupo 87239">
          <path id="Trazado_138757" data-name="Trazado 138757" d="M478.873,464.268s3.851-19.97,4.336-28.982a10.606,10.606,0,0,0-1.624-5.567c-3.289-4.844-6.667-9.62-10.09-14.373a7.894,7.894,0,0,0-4.806-2.881c-16.944-1.8-36.294-3.851-53.242-5.654q-24.7-2.608-49.391-5.238a7.834,7.834,0,0,0-5.3,1.811q-6.516,5.9-12.883,11.931a10.539,10.539,0,0,0-2.755,5.1c-.283,1.761-.413,2.651-.638,4.413v.008c-.9,8.355-1.207,24.906-1.207,24.906Z" transform="translate(-341.271 -401.551)" fill="#afafaf"/>
          <path id="Trazado_138758" data-name="Trazado 138758" d="M474.8,429.038c-3.03-4.443-6.262-9.047-9.868-14.044a5.678,5.678,0,0,0-3.179-1.933c-10.079-1.07-21.005-2.231-31.771-3.366L408.511,407.4l-49.387-5.238a5.7,5.7,0,0,0-3.526,1.23c-4.615,4.164-8.756,8-12.661,11.725Z" transform="translate(-336.575 -399.853)" fill="#e8e8e8"/>
        </g>
      </g>
      <path id="Trazado_138759" data-name="Trazado 138759" d="M475.615,457.025l-134.559-32.7-.172-14.446L482.4,444.272Z" transform="translate(-340.884 -326.168)" fill="#b0c0d2"/>
      <g id="Grupo_87241" data-name="Grupo 87241" transform="translate(6.133 70.705)">
        <path id="Trazado_138760" data-name="Trazado 138760" d="M366.195,417.036c-1.055,3.225-2.858,4.86-6.319,4.493l-11.267-1.2a6.83,6.83,0,0,1-6.082-7.5l.031-.248a6.834,6.834,0,0,1,7.515-6.067S367.295,413.677,366.195,417.036Z" transform="translate(-342.489 -406.476)" fill="#ff9d00"/>
        <path id="Trazado_138761" data-name="Trazado 138761" d="M371.011,417.016c.363,3.377,1.78,5.341,5.242,5.708l11.271,1.184a6.821,6.821,0,0,0,7.507-6.067l.03-.237a6.85,6.85,0,0,0-6.082-7.522S370.629,413.505,371.011,417.016Z" transform="translate(-262.06 -396.306)" fill="#fafbfd"/>
        <path id="Trazado_138762" data-name="Trazado 138762" d="M372.327,417.081c1.1.6,2.109.157,3.182.416,1.1.6-.543,1.792-.481,2.479-.011,2.953,3.385,2.3,5.261,3.572l3.507.359a6.821,6.821,0,0,0,7.507-6.067l.03-.237a6.85,6.85,0,0,0-6.082-7.522s-5.391,1.016-10.269,2.491A5.881,5.881,0,0,1,372.327,417.081Z" transform="translate(-258.332 -396.306)" fill="#12263f"/>
        <path id="Trazado_138763" data-name="Trazado 138763" d="M371.011,415.177c.363,3.377,1.78,5.341,5.242,5.708l7.763.825c-1.876-1.276-5.272-.619-5.261-3.572-.061-.688,1.578-1.88.481-2.479-1.074-.26-2.078.18-3.183-.416a5.881,5.881,0,0,0,2.655-4.508C374.587,411.98,370.839,413.573,371.011,415.177Z" transform="translate(-262.06 -394.467)" fill="#fafbfd"/>
      </g>
      <rect id="Rectángulo_32693" data-name="Rectángulo 32693" width="8.907" height="41.679" transform="matrix(0.105, -0.994, 0.994, 0.105, 50.933, 91.765)" fill="#12263f"/>
      <g id="Grupo_87242" data-name="Grupo 87242" transform="translate(33.178 25.008)">
        <path id="Trazado_138764" data-name="Trazado 138764" d="M381.706,417.389l-.871,8.275-31.267-3.3.871-8.268a9.913,9.913,0,0,1,5.925-8.054l.283-2.67a9.9,9.9,0,0,1,10.884-8.8l1.536.157a9.916,9.916,0,0,1,8.806,10.9l-.283,2.671A9.851,9.851,0,0,1,381.706,417.389Z" transform="translate(-349.568 -394.515)" fill="#d2e1f1"/>
      </g>
    </g>
    <g id="Grupo_87297" data-name="Grupo 87297" transform="translate(728.75 371.496)">
      <g id="Grupo_87263" data-name="Grupo 87263" transform="translate(3.606)">
        <g id="Grupo_87258" data-name="Grupo 87258">
          <g id="Grupo_87257" data-name="Grupo 87257">
            <path id="Trazado_138796" data-name="Trazado 138796" d="M414.48,371.5a4.454,4.454,0,0,1,4.443,4.439V392.36a4.456,4.456,0,0,1-4.443,4.439h-5.288l2.365,7.076c.237.684-.088.955-.718.581l-9.463-5.62V371.5Z" transform="translate(-383.84 -371.496)" fill="#afafaf"/>
            <path id="Trazado_138797" data-name="Trazado 138797" d="M401.376,377.865v3.007l9.463,5.62c.63.375.955.1.718-.581l-.837-2.495Z" transform="translate(-383.84 -353.533)" fill="#afafaf"/>
            <path id="Trazado_138798" data-name="Trazado 138798" d="M401.222,371.5h13.1v27.339l-3.011-1.788a1.185,1.185,0,0,1-.306-.248h-9.784a4.452,4.452,0,0,1-4.436-4.439V375.935A4.45,4.45,0,0,1,401.222,371.5Z" transform="translate(-396.786 -371.496)" fill="#afafaf"/>
          </g>
        </g>
        <g id="Grupo_87262" data-name="Grupo 87262" transform="translate(3.878 9.158)">
          <g id="Grupo_87261" data-name="Grupo 87261">
            <g id="Grupo_87260" data-name="Grupo 87260">
              <g id="Grupo_87259" data-name="Grupo 87259">
                <path id="Trazado_138799" data-name="Trazado 138799" d="M397.954,377.054h1.138l.122-.653h-1.154l.164-1.016h1.188l.283-1.478h1.024l-.29,1.478h.684l.275-1.478H402.4l-.275,1.478h1.284l-.145,1.016h-1.291l-.13.661h1.3l-.138,1.024h-1.387l-.29,1.471h-1.013l.287-1.471-.691-.008-.287,1.479h-1.013l.283-1.479h-1.1Zm2.877.008.126-.661h-.73l-.122.653Z" transform="translate(-397.801 -373.856)" fill="#fff"/>
                <path id="Trazado_138800" data-name="Trazado 138800" d="M399.367,377.245a1.6,1.6,0,0,1,1.834-1.738h1.337c.741,0,1.486.1,1.486,1.31v2.644h-.905l-.183-.42a1.39,1.39,0,0,1-1.054.485,1.007,1.007,0,0,1-.982-1.135v-.252c0-.76.455-1.1,1.223-1.1h.795v-.118c0-.263-.1-.29-.34-.29H401.2c-.367,0-.722.073-.722.692v1.837c0,.684.42.864.722.864h2.46c.634,0,.8-.344.8-.864v-3.179c0-.6-.332-.921-.8-.921h-3.118v-.909A15.082,15.082,0,0,1,403,373.94h.661a1.8,1.8,0,0,1,1.906,2.036v3.179c0,1.448-.691,1.983-1.826,1.983H401.2a1.662,1.662,0,0,1-1.834-1.834Zm2.984,1.177c.225,0,.466-.03.565-.267v-.329l-.607.046c-.157.015-.233.034-.233.222v.1C402.076,378.349,402.144,378.422,402.351,378.422Z" transform="translate(-393.384 -373.761)" fill="#fff"/>
                <path id="Trazado_138801" data-name="Trazado 138801" d="M401.135,374.945c0-.649.294-1.039,1.07-1.039h.783a.922.922,0,0,1,1.055,1.039v.879c0,.657-.294,1.039-1.07,1.039h-.783a.919.919,0,0,1-1.055-1.039Zm1.249.955h.39c.271,0,.306-.142.306-.306v-.413c0-.26-.092-.306-.29-.306h-.39c-.168,0-.3.038-.3.306v.413C402.1,375.759,402.128,375.9,402.384,375.9Zm3.553-1.994h.955l-3.45,5.65h-1Zm-.607,3.71c0-.649.287-1.039,1.07-1.039h.787a.92.92,0,0,1,1.051,1.039v.871c0,.657-.29,1.047-1.066,1.047h-.783a.923.923,0,0,1-1.058-1.047Zm1.249.948h.39c.256,0,.31-.134.31-.3v-.409c0-.263-.1-.317-.294-.317h-.39c-.168,0-.3.053-.3.317v.409C406.3,378.429,406.327,378.563,406.579,378.563Z" transform="translate(-388.398 -373.856)" fill="#fff"/>
                <path id="Trazado_138802" data-name="Trazado 138802" d="M403.754,376.72l.432-.382-.325-.5a1.175,1.175,0,0,1,.676-1.872,4.786,4.786,0,0,1,2.2.149v1.112H405.71c-.52,0-.413.233-.153.6l.883,1.234.986-.852.535.68-.512.837-.271.325,1.181,1.54H406.6l-.47-.65-.466.393a1.62,1.62,0,1,1-1.91-2.617Zm1.372,1.4.2-.21-.428-.558-.233.222c-.248.233-.191.405-.1.523C404.694,378.241,404.874,378.39,405.126,378.122Z" transform="translate(-382.91 -373.893)" fill="#fff"/>
                <path id="Trazado_138803" data-name="Trazado 138803" d="M406,373.908l-.16,4.126h-1.127l-.13-4.126Zm-1.356,4.565a.169.169,0,0,1,.183-.191h.89c.115,0,.172.073.172.191v.9a.159.159,0,0,1-.172.18h-.89a.17.17,0,0,1-.183-.18Z" transform="translate(-378.678 -373.851)" fill="#fff"/>
              </g>
            </g>
          </g>
        </g>
      </g>
      <g id="Grupo_87296" data-name="Grupo 87296" transform="translate(0 32.764)">
        <g id="Grupo_87293" data-name="Grupo 87293" transform="translate(0 2.83)">
          <g id="Grupo_87264" data-name="Grupo 87264" transform="translate(67.683 145.457)">
            <rect id="Rectángulo_32699" data-name="Rectángulo 32699" width="3.608" height="3.032" transform="translate(0 1.649) rotate(-27.2)" fill="#cf9b72"/>
            <rect id="Rectángulo_32700" data-name="Rectángulo 32700" width="4.24" height="4.393" transform="translate(0.615 3.528) rotate(-27.218)" fill="#e6dad1"/>
          </g>
          <g id="Grupo_87270" data-name="Grupo 87270" transform="translate(64.32 149.349)">
            <g id="Grupo_87266" data-name="Grupo 87266">
              <g id="Grupo_87265" data-name="Grupo 87265">
                <path id="Trazado_138804" data-name="Trazado 138804" d="M414.346,420.368a1.564,1.564,0,0,1,2.143.539l.741,1.23a1.562,1.562,0,0,1-.543,2.14h0a1.56,1.56,0,0,1-2.14-.535l-.741-1.223a1.577,1.577,0,0,1,.539-2.151Z" transform="translate(-410.112 -419.22)" fill="#ff9d00"/>
                <path id="Trazado_138805" data-name="Trazado 138805" d="M423.8,420.856a.782.782,0,0,1-.268,1.074l-3.985,2.388-6.25,3.736-.527-.894,10.9-6.529Z" transform="translate(-412.429 -417.856)" fill="#12263f"/>
                <path id="Trazado_138806" data-name="Trazado 138806" d="M413.022,429.225l10.9-6.522-.623-1.054h0l-.821-1.372a.8.8,0,0,0-.955-.321l.05.076a1.478,1.478,0,1,1-2.541,1.513l-.061-.092-2.571,1.792.031.061a.835.835,0,0,1,.141.523.485.485,0,0,1-.034.157,1.36,1.36,0,0,1-.42.573l-.126.1a2.666,2.666,0,0,1-.39.264l-1.314.8C412.919,426.531,412.208,427.857,413.022,429.225Z" transform="translate(-412.678 -419.905)" fill="#ff9d00"/>
              </g>
              <path id="Trazado_138807" data-name="Trazado 138807" d="M413.022,425.054l2.491-1.494a2.681,2.681,0,0,0-.382-1.513,2.6,2.6,0,0,0-.569-.665l-.271.164C412.919,422.361,412.208,423.687,413.022,425.054Z" transform="translate(-412.678 -415.735)" fill="#e6dad1"/>
            </g>
            <g id="Grupo_87267" data-name="Grupo 87267" transform="translate(3.863 3.926)">
              <path id="Trazado_138808" data-name="Trazado 138808" d="M414.526,421.857a.085.085,0,0,0,.1.038l.011-.008a.087.087,0,0,0,.031-.107,2.235,2.235,0,0,0-.948-.848.483.483,0,0,1-.034.157A1.972,1.972,0,0,1,414.526,421.857Z" transform="translate(-413.689 -420.932)" fill="#e6dad1"/>
            </g>
            <g id="Grupo_87268" data-name="Grupo 87268" transform="translate(3.317 4.655)">
              <path id="Trazado_138809" data-name="Trazado 138809" d="M414.089,421.818a.074.074,0,0,0,.107.03h.008a.079.079,0,0,0,.031-.1,2.439,2.439,0,0,0-.562-.627l-.126.1A2.173,2.173,0,0,1,414.089,421.818Z" transform="translate(-413.546 -421.123)" fill="#e6dad1"/>
            </g>
            <g id="Grupo_87269" data-name="Grupo 87269" transform="translate(2.61 5.11)">
              <path id="Trazado_138810" data-name="Trazado 138810" d="M413.881,421.922a.081.081,0,0,0,.111.031H414a.085.085,0,0,0,.027-.107,2.537,2.537,0,0,0-.523-.6l-.141.1A1.947,1.947,0,0,1,413.881,421.922Z" transform="translate(-413.361 -421.242)" fill="#e6dad1"/>
            </g>
          </g>
          <rect id="Rectángulo_32701" data-name="Rectángulo 32701" width="3.032" height="3.607" transform="translate(19.082 149.557) rotate(-78.783)" fill="#cf9b72"/>
          <rect id="Rectángulo_32702" data-name="Rectángulo 32702" width="4.394" height="4.241" transform="translate(18.126 152.751) rotate(-78.836)" fill="#e6dad1"/>
          <g id="Grupo_87272" data-name="Grupo 87272" transform="translate(36.939 78.282)">
            <g id="Grupo_87271" data-name="Grupo 87271">
              <path id="Trazado_138811" data-name="Trazado 138811" d="M441.607,467.974c-9.555-20.7-19.5-44.18-24.9-66.671-3.4.806-7.79,2-11.194,2.8,6.22,23.11,17.456,46.636,29.07,67.553C437.095,470.339,439.1,469.3,441.607,467.974Z" transform="translate(-405.511 -401.303)" fill="#0f2436"/>
            </g>
          </g>
          <g id="Grupo_87274" data-name="Grupo 87274" transform="translate(36.939 78.282)">
            <g id="Grupo_87273" data-name="Grupo 87273">
              <path id="Trazado_138812" data-name="Trazado 138812" d="M415.144,406.43a469.176,469.176,0,0,0,19.217,47.083c-2.51,1.322-4.512,2.365-7.026,3.687a395.054,395.054,0,0,1-19.255-39.229A40.971,40.971,0,0,1,415.144,406.43Z" transform="translate(-398.265 -386.843)" fill="#12263f"/>
              <path id="Trazado_138813" data-name="Trazado 138813" d="M415.326,432.432a230.39,230.39,0,0,1-9.815-28.325c3.4-.806,7.794-2,11.194-2.8,1.566,6.483,3.492,13.028,5.685,19.588A40.971,40.971,0,0,0,415.326,432.432Z" transform="translate(-405.511 -401.303)" fill="#121d26"/>
            </g>
          </g>
          <path id="Trazado_138814" data-name="Trazado 138814" d="M406.811,407.907a4.27,4.27,0,0,1,3.614-4.841l11.236-1.65c2.338-.344,4.264-.424,4.6,1.918l.39,2.628a4.3,4.3,0,0,1-3.618,4.863L411.8,412.461a4.276,4.276,0,0,1-4.852-3.614Z" transform="translate(-365.032 -323.21)" fill="#183854"/>
          <g id="Grupo_87276" data-name="Grupo 87276" transform="translate(17.195 75.081)">
            <g id="Grupo_87275" data-name="Grupo 87275">
              <path id="Trazado_138815" data-name="Trazado 138815" d="M408.74,473.405C413,449.55,422.6,425.363,443,412.263c-1.864-2.965-4.588-8.837-6.445-11.8-22.323,15.1-32.168,44.89-36.21,71.55Q404.532,472.714,408.74,473.405Z" transform="translate(-400.343 -400.465)" fill="#12263f"/>
            </g>
          </g>
          <path id="Trazado_138816" data-name="Trazado 138816" d="M409.153,406.254a4.166,4.166,0,0,1,.076-1.589l19.4-2.842.367,2.487a4.273,4.273,0,0,1-.928,3.335l-22.132,3.236c1.058-1.379,2.159-2.732,3.3-4.034Z" transform="translate(-367.373 -321.557)" fill="#132c42"/>
          <path id="Trazado_138817" data-name="Trazado 138817" d="M403.729,394.65l6.915,47.278a1.853,1.853,0,0,0,2.055,1.627l21.956-3.217a1.856,1.856,0,0,0,1.505-2.151l-6.911-47.267a1.853,1.853,0,0,0-2.059-1.628l-3.381-.115-8.52-.267-10.147,3.538a2.188,2.188,0,0,0-1.4,1.536A1.746,1.746,0,0,0,403.729,394.65Z" transform="translate(-373.671 -357.969)" fill="#eb3131"/>
          <path id="Trazado_138818" data-name="Trazado 138818" d="M403.729,394.65l6.915,47.278a1.853,1.853,0,0,0,2.055,1.627l21.956-3.217a1.856,1.856,0,0,0,1.505-2.151l-6.911-47.267a1.853,1.853,0,0,0-2.059-1.628l-3.381-.115-8.52-.267-10.147,3.538a2.188,2.188,0,0,0-1.4,1.536A1.746,1.746,0,0,0,403.729,394.65Z" transform="translate(-373.671 -357.969)" fill="#ff9d00"/>
          <path id="Trazado_138819" data-name="Trazado 138819" d="M430.92,400.99l.458,3.133a1.857,1.857,0,0,1-1.5,2.151l-21.96,3.217a1.855,1.855,0,0,1-2.055-1.628l-.462-3.14Z" transform="translate(-368.888 -323.903)" fill="#ff9d00"/>
          <path id="Trazado_138820" data-name="Trazado 138820" d="M407.254,400.857a3.24,3.24,0,0,0,3.671,2.732h0a3.236,3.236,0,0,0,2.732-3.672l-1.536-10.545a3.249,3.249,0,0,0-3.679-2.732h0a3.238,3.238,0,0,0-2.732,3.671Z" transform="translate(-368.107 -364.466)" fill="#d69b6b"/>
          <path id="Trazado_138821" data-name="Trazado 138821" d="M405.385,393.985c-.791-5.417,1.979-11.079,6.311-11.714,4.348-.642,8.615,4,9.41,9.414s-2.086,10.315-6.43,10.942C410.341,403.268,406.176,399.394,405.385,393.985Z" transform="translate(-369.306 -376.868)" fill="#2a2626"/>
          <path id="Trazado_138822" data-name="Trazado 138822" d="M404.883,399.968a7.961,7.961,0,0,0,9.032,6.72h0a7.952,7.952,0,0,0,6.72-9.02l-1.211-8.275a7.951,7.951,0,0,0-9.024-6.716h0a7.957,7.957,0,0,0-6.724,9.032Z" transform="translate(-373.988 -375.799)" fill="#edb485"/>
          <path id="Trazado_138823" data-name="Trazado 138823" d="M404.362,383.438a24.174,24.174,0,0,1,6.472-1.372c7.748-.734,11.286,4.947,11.568,6.9l-2.567-1.4c.287,1.956-5.807,2.621-7.767,2.911l-6.533.955Z" transform="translate(-371.813 -377.461)" fill="#2a2626"/>
          <path id="Trazado_138824" data-name="Trazado 138824" d="M409.375,391a1.468,1.468,0,0,0,1.234-1.666l-.543-3.729a1.472,1.472,0,0,0-1.666-1.242h0a1.467,1.467,0,0,0-1.242,1.666l.546,3.733A1.477,1.477,0,0,0,409.375,391Z" transform="translate(-363.969 -370.834)" fill="#2a2626"/>
          <path id="Trazado_138825" data-name="Trazado 138825" d="M414.028,389.694a2.308,2.308,0,0,0-2.648-1.757l-6.075.89-.627-4.26,11.71-1.712,1.131,7.763-3.339.111S414.158,390.565,414.028,389.694Z" transform="translate(-370.919 -375.053)" fill="#2a2626"/>
          <path id="Trazado_138826" data-name="Trazado 138826" d="M408.285,390.8c.94.359,2.143-.546,2.69-2.01s.222-2.923-.718-3.274-2.139.55-2.682,2.006C407.028,389,407.345,390.468,408.285,390.8Z" transform="translate(-363.506 -367.755)" fill="#edb485"/>
          <path id="Trazado_138827" data-name="Trazado 138827" d="M402.638,388.231a4.282,4.282,0,0,1,3.614-4.852l8.989-1.322a4.291,4.291,0,0,1,4.852,3.622h0a4.281,4.281,0,0,1-3.614,4.848l-8.99,1.322a4.286,4.286,0,0,1-4.852-3.618Z" transform="translate(-376.802 -377.426)" fill="#2a2626"/>
          <g id="Grupo_87280" data-name="Grupo 87280" transform="translate(48.586)">
            <g id="Grupo_87278" data-name="Grupo 87278" transform="translate(18.02)">
              <rect id="Rectángulo_32703" data-name="Rectángulo 32703" width="2.744" height="4.741" transform="matrix(0.716, -0.698, 0.698, 0.716, 5.606, 7.175)" fill="#edb485"/>
              <g id="Grupo_87277" data-name="Grupo 87277">
                <path id="Trazado_138828" data-name="Trazado 138828" d="M417.772,384.14a.693.693,0,0,1,.168.97h0a.7.7,0,0,1-.97.172l-3.4-2.411a.7.7,0,0,1-.16-.97h0a.68.68,0,0,1,.97-.164Z" transform="translate(-413.276 -378.588)" fill="#edb485"/>
                <path id="Trazado_138829" data-name="Trazado 138829" d="M418.092,383.954a.7.7,0,0,1,0,.986h0a.694.694,0,0,1-.982,0l-2.961-2.934a.705.705,0,0,1,0-.986h0a.694.694,0,0,1,.982-.008Z" transform="translate(-411.369 -380.813)" fill="#edb485"/>
                <path id="Trazado_138830" data-name="Trazado 138830" d="M416.215,381.117a.765.765,0,0,0-.833.68l-.363,3.351a2.432,2.432,0,0,0,1.024.516c.222.031.661-.435.661-.435l.187-3.274A.771.771,0,0,0,416.215,381.117Z" transform="translate(-408.361 -379.963)" fill="#edb485"/>
                <path id="Trazado_138831" data-name="Trazado 138831" d="M417.816,383.971a.689.689,0,0,1,.073.97h0a.689.689,0,0,1-.978.08L413.74,382.3a.679.679,0,0,1-.076-.97h0a.7.7,0,0,1,.982-.08Z" transform="translate(-412.66 -380.047)" fill="#edb485"/>
                <path id="Rectángulo_32704" data-name="Rectángulo 32704" d="M.361,0h4A.361.361,0,0,1,4.72.361v4a.359.359,0,0,1-.359.359h-4A.359.359,0,0,1,0,4.362v-4A.361.361,0,0,1,.361,0Z" transform="translate(2.259 5.467) rotate(-49.466)" fill="#edb485"/>
              </g>
            </g>
            <g id="Grupo_87279" data-name="Grupo 87279" transform="translate(0 5.82)">
              <path id="Trazado_138832" data-name="Trazado 138832" d="M442.754,396.491a12.249,12.249,0,0,0,.107-3.522,15.3,15.3,0,0,0-3.412-7.656c-.233-.29-3.022-2.976-3.022-2.976l-3.744,4.119a17.344,17.344,0,0,1,2.434,2.285c2.671,3.381,3,6.4,1.081,9.773-3.408,6-11.072,7.782-14.2,8.275-.5.077-1.028.157-1.6.241-3.637.516-8.168,1.161-10.774,3.209a2.757,2.757,0,1,0,3.4,4.34c1.448-1.127,5.486-1.708,8.161-2.094.588-.076,1.139-.164,1.662-.241,8.306-1.307,14.915-5.307,18.151-11A14.722,14.722,0,0,0,442.754,396.491Z" transform="translate(-408.56 -382.336)" fill="#afafaf"/>
            </g>
          </g>
          <g id="Grupo_87284" data-name="Grupo 87284">
            <g id="Grupo_87282" data-name="Grupo 87282" transform="translate(5.482)">
              <rect id="Rectángulo_32705" data-name="Rectángulo 32705" width="4.741" height="2.741" transform="translate(0 8.654) rotate(-45.716)" fill="#edb485"/>
              <g id="Grupo_87281" data-name="Grupo 87281" transform="translate(1.964)">
                <path id="Trazado_138833" data-name="Trazado 138833" d="M399.162,384.14a.7.7,0,0,0-.168.97h0a.707.707,0,0,0,.97.172l3.4-2.411a.7.7,0,0,0,.168-.97h0a.685.685,0,0,0-.974-.164Z" transform="translate(-394.747 -378.588)" fill="#edb485"/>
                <path id="Trazado_138834" data-name="Trazado 138834" d="M398.516,383.954a.7.7,0,0,0,0,.986h0a.694.694,0,0,0,.982,0l2.957-2.934a.7.7,0,0,0,0-.986h0a.685.685,0,0,0-.974-.008Z" transform="translate(-396.324 -380.813)" fill="#edb485"/>
                <path id="Trazado_138835" data-name="Trazado 138835" d="M398.566,381.117a.769.769,0,0,1,.837.68l.355,3.351a2.4,2.4,0,0,1-1.02.516c-.222.031-.661-.435-.661-.435l-.18-3.274A.759.759,0,0,1,398.566,381.117Z" transform="translate(-397.505 -379.963)" fill="#edb485"/>
                <path id="Trazado_138836" data-name="Trazado 138836" d="M398.957,383.971a.676.676,0,0,0-.073.97h0a.693.693,0,0,0,.982.08l3.167-2.724a.675.675,0,0,0,.069-.97h0a.7.7,0,0,0-.982-.08Z" transform="translate(-395.194 -380.047)" fill="#edb485"/>
                <path id="Rectángulo_32706" data-name="Rectángulo 32706" d="M.361,0h4a.36.36,0,0,1,.36.36v4a.36.36,0,0,1-.36.36h-4A.359.359,0,0,1,0,4.359v-4A.361.361,0,0,1,.361,0Z" transform="matrix(0.759, -0.651, 0.651, 0.759, 0, 4.955)" fill="#edb485"/>
              </g>
            </g>
            <g id="Grupo_87283" data-name="Grupo 87283" transform="translate(0 5.82)">
              <path id="Trazado_138837" data-name="Trazado 138837" d="M396.028,396.491a12.529,12.529,0,0,1-.111-3.522,15.277,15.277,0,0,1,3.419-7.656c.225-.29,3.022-2.976,3.022-2.976l3.74,4.119a17.184,17.184,0,0,0-2.43,2.285c-2.674,3.381-3.01,6.4-1.085,9.773,3.408,6,11.072,7.782,14.2,8.275.493.077,1.031.157,1.6.241,3.637.516,8.172,1.161,10.781,3.209a2.757,2.757,0,1,1-3.4,4.34c-1.456-1.127-5.494-1.708-8.164-2.094-.588-.076-1.139-.164-1.666-.241-8.3-1.307-14.915-5.307-18.147-11A14.637,14.637,0,0,1,396.028,396.491Z" transform="translate(-395.842 -382.336)" fill="#afafaf"/>
            </g>
          </g>
          <g id="Grupo_87290" data-name="Grupo 87290" transform="translate(10.089 148.941)">
            <g id="Grupo_87286" data-name="Grupo 87286">
              <g id="Grupo_87285" data-name="Grupo 87285">
                <path id="Trazado_138838" data-name="Trazado 138838" d="M402.237,419.818a1.579,1.579,0,0,1,1.265,1.819l-.244,1.41a1.557,1.557,0,0,1-1.811,1.268h0a1.566,1.566,0,0,1-1.268-1.811l.248-1.4a1.581,1.581,0,0,1,1.811-1.284Z" transform="translate(-393.771 -419.798)" fill="#ff9d00"/>
                <path id="Trazado_138839" data-name="Trazado 138839" d="M411.14,423.193a.782.782,0,0,1-.913.634c-1.456-.248-4.577-.8-4.577-.8l-7.167-1.253.18-1.024,12.52,2.193Z" transform="translate(-398.483 -417.107)" fill="#12263f"/>
                <path id="Trazado_138840" data-name="Trazado 138840" d="M398.529,422.473l12.52,2.193.21-1.2h0l.275-1.578a.8.8,0,0,0-.5-.879l-.015.1a1.485,1.485,0,0,1-2.926-.512l.023-.107L405,420.15l-.015.069a.838.838,0,0,1-.241.493.518.518,0,0,1-.126.1,1.3,1.3,0,0,1-.7.149,1.226,1.226,0,0,1-.161-.008,3.157,3.157,0,0,1-.466-.05l-1.505-.264C400.214,420.36,398.808,420.9,398.529,422.473Z" transform="translate(-398.353 -418.805)" fill="#ff9d00"/>
              </g>
              <path id="Trazado_138841" data-name="Trazado 138841" d="M398.529,422.165l2.854.5a2.7,2.7,0,0,0,.707-1.4,2.468,2.468,0,0,0,0-.886l-.3-.053C400.214,420.053,398.808,420.591,398.529,422.165Z" transform="translate(-398.353 -418.497)" fill="#e6dad1"/>
            </g>
            <g id="Grupo_87287" data-name="Grupo 87287" transform="translate(6.266 1.907)">
              <path id="Trazado_138842" data-name="Trazado 138842" d="M400.249,421.52a.1.1,0,0,0,.057.1h.008a.077.077,0,0,0,.092-.061,2.094,2.094,0,0,0-.157-1.261.518.518,0,0,1-.126.1A1.952,1.952,0,0,1,400.249,421.52Z" transform="translate(-400.123 -420.297)" fill="#e6dad1"/>
            </g>
            <g id="Grupo_87288" data-name="Grupo 87288" transform="translate(5.41 2.144)">
              <path id="Trazado_138843" data-name="Trazado 138843" d="M399.922,421.18a.068.068,0,0,0,.057.092l.008.008a.086.086,0,0,0,.084-.061,2.361,2.361,0,0,0-.011-.852,1.22,1.22,0,0,1-.16-.008A2.2,2.2,0,0,1,399.922,421.18Z" transform="translate(-399.899 -420.359)" fill="#e6dad1"/>
            </g>
            <g id="Grupo_87289" data-name="Grupo 87289" transform="translate(4.585 2.033)">
              <path id="Trazado_138844" data-name="Trazado 138844" d="M399.691,421.106a.091.091,0,0,0,.061.1h.008a.086.086,0,0,0,.092-.057,2.27,2.27,0,0,0-.008-.791l-.16-.031A2.069,2.069,0,0,1,399.691,421.106Z" transform="translate(-399.683 -420.33)" fill="#e6dad1"/>
            </g>
          </g>
          <g id="Grupo_87291" data-name="Grupo 87291" transform="translate(34.667 21.152)">
            <path id="Trazado_138845" data-name="Trazado 138845" d="M405.118,388.7a.941.941,0,0,0,1.05.8h0a.938.938,0,0,0,.787-1.066l-.183-1.291a.93.93,0,0,0-1.058-.783h0a.93.93,0,0,0-.787,1.051Z" transform="translate(-404.916 -386.349)" fill="#d69b6b"/>
          </g>
          <path id="Trazado_138846" data-name="Trazado 138846" d="M404.929,390.09a1.748,1.748,0,0,0,1.945,1.532l2.4-.287a1.749,1.749,0,0,0,1.528-1.945l-.057-.432a1.74,1.74,0,0,0-1.945-1.54l-2.4.29a1.749,1.749,0,0,0-1.532,1.949Z" transform="translate(-370.409 -362.215)" fill="#170805"/>
          <g id="Grupo_87292" data-name="Grupo 87292" transform="translate(30.648 18.303)">
            <path id="Trazado_138847" data-name="Trazado 138847" d="M403.995,388.391l2.959-.686-.466-.448-2.018-1.559-.362.455,1.582,1.231-1.824.433Z" transform="translate(-403.864 -385.339)" fill="#170805"/>
            <path id="Trazado_138848" data-name="Trazado 138848" d="M408.841,388.253l.093-.582-1.854-.284,1.481-1.343-.392-.441-1.951,1.776-.373.41Z" transform="translate(-398.279 -385.604)" fill="#170805"/>
          </g>
        </g>
        <g id="Grupo_87295" data-name="Grupo 87295" transform="translate(33.056)">
          <path id="Trazado_138849" data-name="Trazado 138849" d="M407.11,384.84a.655.655,0,0,1-.657.649h0a.655.655,0,0,1-.657-.649v-4.111a.662.662,0,0,1,.657-.657h0a.662.662,0,0,1,.657.657Z" transform="translate(-400.824 -380.072)" fill="#afafaf"/>
          <g id="Grupo_87294" data-name="Grupo 87294" transform="translate(0 0.71)">
            <path id="Trazado_138850" data-name="Trazado 138850" d="M407.74,384.8a.666.666,0,0,1-.856.359h0a.66.66,0,0,1-.363-.86l2.388-3.633a.64.64,0,0,1,.856-.355h0a.645.645,0,0,1,.359.848Z" transform="translate(-398.913 -380.258)" fill="#afafaf"/>
            <path id="Trazado_138851" data-name="Trazado 138851" d="M406.93,384.8a.658.658,0,0,0,.848.359h0a.659.659,0,0,0,.367-.86l-2.388-3.633a.64.64,0,0,0-.856-.355h0a.651.651,0,0,0-.359.848Z" transform="translate(-404.495 -380.258)" fill="#afafaf"/>
          </g>
        </g>
      </g>
    </g>
    <g id="Grupo_87326" data-name="Grupo 87326" transform="translate(634.838 381.788)">
      <g id="Grupo_87318" data-name="Grupo 87318" transform="translate(0 22.862)">
        <g id="Grupo_87299" data-name="Grupo 87299" transform="translate(94.812 62.743)">
          <rect id="Rectángulo_32707" data-name="Rectángulo 32707" width="2.738" height="4.748" transform="matrix(0.186, -0.982, 0.982, 0.186, 0, 4.56)" fill="#edb485"/>
          <g id="Grupo_87298" data-name="Grupo 87298" transform="translate(3.714)">
            <path id="Trazado_138852" data-name="Trazado 138852" d="M398.51,398.066a.7.7,0,0,0-.9.4h0a.706.706,0,0,0,.4.9l3.878,1.524a.7.7,0,0,0,.9-.4h0a.7.7,0,0,0-.4-.9Z" transform="translate(-395.606 -392.58)" fill="#edb485"/>
            <path id="Trazado_138853" data-name="Trazado 138853" d="M398.639,397.212a.694.694,0,0,0-.825.531h0a.7.7,0,0,0,.531.829l4.092.856a.693.693,0,0,0,.821-.535h0a.7.7,0,0,0-.542-.821Z" transform="translate(-394.941 -394.904)" fill="#edb485"/>
            <path id="Trazado_138854" data-name="Trazado 138854" d="M401.075,396.869a.76.76,0,0,1-.107,1.066l-2.6,2.143a2.461,2.461,0,0,1-1-.569c-.145-.164,0-.791,0-.791l2.64-1.952A.772.772,0,0,1,401.075,396.869Z" transform="translate(-396.341 -396.597)" fill="#edb485"/>
            <path id="Trazado_138855" data-name="Trazado 138855" d="M398.728,397.675a.7.7,0,0,0-.86.478h0a.681.681,0,0,0,.478.852l4.008,1.169a.709.709,0,0,0,.863-.481h0a.7.7,0,0,0-.481-.86Z" transform="translate(-394.819 -393.629)" fill="#edb485"/>
            <path id="Trazado_138856" data-name="Trazado 138856" d="M399.35,397.124a1.372,1.372,0,0,0-1.7.94l-.543,1.887a1.383,1.383,0,0,0,.94,1.711l1.891.542a1.382,1.382,0,0,0,1.7-.947l.546-1.88a1.4,1.4,0,0,0-.944-1.715Z" transform="translate(-397.05 -395.27)" fill="#edb485"/>
          </g>
        </g>
        <path id="Trazado_138857" data-name="Trazado 138857" d="M419.649,415.553a70.287,70.287,0,0,1-17.926-8.157c-2.4-1.627-7.763-6.12-9.937-11.03a9.778,9.778,0,0,1-.936-4.168,2.669,2.669,0,0,0-5.337-.107c-.21,10.5,12.673,19.351,13.226,19.714,7.034,4.768,15.691,7.759,20.229,9.119a90.92,90.92,0,0,0,9.161,2.021l1.379-4.955C428.111,417.956,425.33,417.307,419.649,415.553Z" transform="translate(-331.071 -353.933)" fill="#233955"/>
        <rect id="Rectángulo_32708" data-name="Rectángulo 32708" width="3.608" height="3.028" transform="matrix(0.998, -0.06, 0.06, 0.998, 65.371, 150.311)" fill="#cf9b72"/>
        <rect id="Rectángulo_32709" data-name="Rectángulo 32709" width="4.24" height="4.391" transform="matrix(0.998, -0.058, 0.058, 0.998, 65.172, 152.277)" fill="#e6dad1"/>
        <g id="Grupo_87302" data-name="Grupo 87302" transform="translate(64.661 152.615)">
          <g id="Grupo_87301" data-name="Grupo 87301">
            <g id="Grupo_87300" data-name="Grupo 87300">
              <path id="Trazado_138858" data-name="Trazado 138858" d="M390.631,420.122a1.556,1.556,0,0,0-1.505,1.612l.053,1.44a1.559,1.559,0,0,0,1.616,1.5h0a1.571,1.571,0,0,0,1.509-1.62l-.053-1.425a1.556,1.556,0,0,0-1.62-1.509Z" transform="translate(-385.538 -420.121)" fill="#362a29"/>
              <path id="Trazado_138859" data-name="Trazado 138859" d="M388.224,422.06a.776.776,0,0,0,.814.753l4.638-.157,7.27-.267-.038-1.031-12.7.451Z" transform="translate(-388.11 -416.633)" fill="#1c1d23"/>
              <path id="Trazado_138860" data-name="Trazado 138860" d="M400.985,423.786l-12.692.455-.05-1.223v-.008l-.057-1.589a.82.82,0,0,1,.623-.806v.1a1.481,1.481,0,0,0,2.961-.107l0-.1,3.133.088v.069a.88.88,0,0,0,.176.523c.031.034.073.073.115.111a1.248,1.248,0,0,0,.661.26c.054,0,.1.008.161.008a4.646,4.646,0,0,0,.47.008l1.536-.05C399.613,421.459,400.927,422.189,400.985,423.786Z" transform="translate(-388.186 -419.039)" fill="#362a29"/>
            </g>
          </g>
        </g>
        <g id="Grupo_87304" data-name="Grupo 87304" transform="translate(37.383 74.633)">
          <g id="Grupo_87303" data-name="Grupo 87303">
            <path id="Trazado_138861" data-name="Trazado 138861" d="M406.578,475.774c-.944-24.206-7.141-49.479-25.532-65.261,2.247-2.686,5.754-8.118,8-10.8,20.038,18.021,25.7,48.883,26.048,75.851C412.252,475.625,409.421,475.709,406.578,475.774Z" transform="translate(-381.046 -399.709)" fill="#12263f"/>
          </g>
        </g>
        <path id="Trazado_138862" data-name="Trazado 138862" d="M383.314,425.268l-3.657-.3.455-5.051,3.652.291Z" transform="translate(-347.58 -268.077)" fill="#cf9b72"/>
        <rect id="Rectángulo_32710" data-name="Rectángulo 32710" width="4.468" height="4.315" transform="translate(31.632 158.422) rotate(-85.037)" fill="#f7f7f7"/>
        <g id="Grupo_87305" data-name="Grupo 87305" transform="translate(30.622 155.177)">
          <path id="Trazado_138863" data-name="Trazado 138863" d="M382.147,420.8a1.588,1.588,0,0,0-1.719,1.448l-.134,1.448a1.584,1.584,0,0,0,1.44,1.723h0a1.592,1.592,0,0,0,1.727-1.433l.13-1.456a1.6,1.6,0,0,0-1.444-1.731Z" transform="translate(-376.425 -420.791)" fill="#362a29"/>
          <path id="Trazado_138864" data-name="Trazado 138864" d="M379.279,422.242a.823.823,0,0,0,.733.879c1.486.134,4.7.416,4.7.416l7.373.672.1-1.058-12.875-1.158Z" transform="translate(-379.276 -417.4)" fill="#1c1d23"/>
          <path id="Trazado_138865" data-name="Trazado 138865" d="M392.159,425.794c.142-1.612-1.1-2.514-2.712-2.663l-1.555-.142c-.879-.076-1.555-.577-1.505-1.119l.019-.279-3.137-.283,0,.1a1.509,1.509,0,1,1-3.007-.268l.008-.088a.791.791,0,0,0-.726.707l-.145,1.628v.008l-.111,1.238Z" transform="translate(-379.255 -420.042)" fill="#362a29"/>
        </g>
        <g id="Grupo_87307" data-name="Grupo 87307" transform="translate(30.779 86.728)">
          <g id="Grupo_87306" data-name="Grupo 87306">
            <path id="Trazado_138866" data-name="Trazado 138866" d="M387.939,469.7l7.686-66.269-12.353-.56-3.955,66.06Z" transform="translate(-379.317 -402.875)" fill="#12263f"/>
          </g>
        </g>
        <g id="Grupo_87313" data-name="Grupo 87313" transform="translate(33.005)">
          <g id="Grupo_87312" data-name="Grupo 87312">
            <path id="Trazado_138867" data-name="Trazado 138867" d="M406.139,441.539a1.894,1.894,0,0,1-1.834,1.941H381.738a1.894,1.894,0,0,1-1.838-1.941v-48.6a1.888,1.888,0,0,1,1.838-1.945l11.285-2,11.366,1.933a2.076,2.076,0,0,1,1.75,2.013Z" transform="translate(-379.9 -355.303)" fill="#e4e8f2"/>
            <path id="Trazado_138868" data-name="Trazado 138868" d="M383.867,390.441l-1.2,17.058H387.8l-1.31-17.058Z" transform="translate(-372.11 -351.215)" fill="#b0c0d2"/>
            <path id="Trazado_138869" data-name="Trazado 138869" d="M387.906,391.547a1.489,1.489,0,0,1-1.494,1.486h-2.273a1.489,1.489,0,0,1-1.494-1.486h0a1.492,1.492,0,0,1,1.494-1.5h2.273a1.492,1.492,0,0,1,1.494,1.5Z" transform="translate(-372.158 -352.322)" fill="#b0c0d2"/>
            <path id="Trazado_138870" data-name="Trazado 138870" d="M404.389,389.978l-3.82-.65-7.546,21.1-7.228-21.1-4.057.718a1.888,1.888,0,0,0-1.838,1.945v48.6a1.894,1.894,0,0,0,1.838,1.941h22.567a1.894,1.894,0,0,0,1.834-1.941v-48.6A2.076,2.076,0,0,0,404.389,389.978Z" transform="translate(-379.9 -354.356)" fill="#1e476b"/>
            <path id="Trazado_138871" data-name="Trazado 138871" d="M404.389,389.978l-3.82-.65-7.546,21.1-7.228-21.1-4.057.718a1.888,1.888,0,0,0-1.838,1.945v48.6a1.894,1.894,0,0,0,1.838,1.941h22.567a1.894,1.894,0,0,0,1.834-1.941v-48.6A2.076,2.076,0,0,0,404.389,389.978Z" transform="translate(-379.9 -354.356)" fill="#12263f"/>
            <path id="Trazado_138872" data-name="Trazado 138872" d="M389.059,400.207c0,1.822-1.475,1.15-3.289,1.15,0,0-3.3.672-3.3-1.15V389.379a3.289,3.289,0,0,1,3.3-3.289h0a3.29,3.29,0,0,1,3.289,3.289Z" transform="translate(-372.646 -363.488)" fill="#d69b6b"/>
            <path id="Trazado_138873" data-name="Trazado 138873" d="M398.062,398.5a8.085,8.085,0,0,1-8.092,8.088h0a8.088,8.088,0,0,1-8.1-8.088V390a8.085,8.085,0,0,1,8.1-8.1h0a8.082,8.082,0,0,1,8.092,8.1Z" transform="translate(-374.33 -375.283)" fill="#edb485"/>
            <g id="Grupo_87308" data-name="Grupo 87308" transform="translate(13.063 18.43)">
              <path id="Trazado_138874" data-name="Trazado 138874" d="M383.42,387.565l2.861-.552-.429-.433L383.972,385l-.362.433,1.47,1.231-1.761.343Z" transform="translate(-383.319 -384.998)" fill="#170805"/>
              <path id="Trazado_138875" data-name="Trazado 138875" d="M388.081,387.565l.108-.56-1.769-.343,1.474-1.231-.366-.433-1.936,1.642-.373.373Z" transform="translate(-377.959 -384.998)" fill="#170805"/>
            </g>
            <path id="Trazado_138876" data-name="Trazado 138876" d="M383.183,392.862a1.96,1.96,0,0,1-1.96-1.964v-5.02a1.951,1.951,0,0,1,1.96-1.956h0a1.947,1.947,0,0,1,1.956,1.956v5.02a1.956,1.956,0,0,1-1.956,1.964Z" transform="translate(-376.169 -369.603)" fill="#3d414f"/>
            <path id="Trazado_138877" data-name="Trazado 138877" d="M381.223,385.724a1.8,1.8,0,0,1,1.8-1.8h3.148a1.8,1.8,0,0,1,1.8,1.8h0a1.8,1.8,0,0,1-1.8,1.807h-3.148a1.8,1.8,0,0,1-1.8-1.807Z" transform="translate(-376.169 -369.586)" fill="#3d414f"/>
            <path id="Trazado_138878" data-name="Trazado 138878" d="M387.918,392.752l-4.041,1.918-2.167-5,2.91-.53Z" transform="translate(-374.795 -354.884)" fill="#fff"/>
            <path id="Trazado_138879" data-name="Trazado 138879" d="M383.335,392.752l4.029,1.918,2.179-5-2.918-.53Z" transform="translate(-370.212 -354.884)" fill="#fff"/>
            <path id="Trazado_138880" data-name="Trazado 138880" d="M390.879,389.328l-7.544,21.095,7.876-8.783-1.668-3.224,3.9-2.612Z" transform="translate(-370.212 -354.355)" fill="#233955"/>
            <path id="Trazado_138881" data-name="Trazado 138881" d="M383.335,389.328l7.238,21.095-7.563-8.783,1.664-3.224-3.906-2.612Z" transform="translate(-377.45 -354.355)" fill="#233955"/>
            <path id="Trazado_138882" data-name="Trazado 138882" d="M385.543,389.756c-.753.7-2.243.336-3.335-.821s-1.387-2.663-.649-3.362,2.235-.344,3.335.814S386.28,389.049,385.543,389.756Z" transform="translate(-376.377 -365.97)" fill="#edb485"/>
            <path id="Trazado_138883" data-name="Trazado 138883" d="M383.848,392.151a1.8,1.8,0,0,1-1.8-1.8v-4.638a1.8,1.8,0,0,1,1.8-1.792h0a1.8,1.8,0,0,1,1.8,1.792v4.638a1.8,1.8,0,0,1-1.8,1.8Z" transform="translate(-373.842 -369.603)" fill="#3d414f"/>
            <g id="Grupo_87309" data-name="Grupo 87309" transform="translate(17.505 20.764)">
              <path id="Trazado_138884" data-name="Trazado 138884" d="M386.377,387.878a.944.944,0,0,1-.944.947h0a.951.951,0,0,1-.951-.947v-1.322a.948.948,0,0,1,.951-.948h0a.942.942,0,0,1,.944.948Z" transform="translate(-384.482 -385.609)" fill="#d69b6b"/>
            </g>
            <g id="Grupo_87311" data-name="Grupo 87311" transform="translate(10.156)">
              <path id="Trazado_138885" data-name="Trazado 138885" d="M385.174,384.942a.653.653,0,0,1-.657.65h0a.653.653,0,0,1-.657-.65v-4.111a.655.655,0,0,1,.657-.657h0a.655.655,0,0,1,.657.657Z" transform="translate(-378.887 -380.174)" fill="#ff9d00"/>
              <g id="Grupo_87310" data-name="Grupo 87310" transform="translate(0 0.708)">
                <path id="Trazado_138886" data-name="Trazado 138886" d="M385.8,384.912a.663.663,0,0,1-.856.352h0a.664.664,0,0,1-.355-.859l2.384-3.633a.643.643,0,0,1,.852-.359h0a.655.655,0,0,1,.367.86Z" transform="translate(-376.974 -380.359)" fill="#ff9d00"/>
                <path id="Trazado_138887" data-name="Trazado 138887" d="M384.995,384.912a.654.654,0,0,0,.848.352h0a.664.664,0,0,0,.371-.859l-2.388-3.633a.652.652,0,0,0-.86-.359h0a.67.67,0,0,0-.363.86Z" transform="translate(-382.558 -380.359)" fill="#ff9d00"/>
              </g>
            </g>
            <path id="Rectángulo_32711" data-name="Rectángulo 32711" d="M.494,0H5.869a.492.492,0,0,1,.492.492V3.753a.492.492,0,0,1-.492.492H.493A.493.493,0,0,1,0,3.752V.494A.494.494,0,0,1,.494,0Z" transform="translate(14.328 25.825)" fill="#170805"/>
          </g>
        </g>
        <g id="Grupo_87317" data-name="Grupo 87317" transform="translate(0 35.767)">
          <g id="Grupo_87316" data-name="Grupo 87316" transform="translate(0 37.283)">
            <g id="Grupo_87315" data-name="Grupo 87315" transform="translate(0 4.157)">
              <g id="Grupo_87314" data-name="Grupo 87314" transform="translate(0 0)">
                <path id="Trazado_138888" data-name="Trazado 138888" d="M374,401.662a.637.637,0,0,1,.867-.241h0a.637.637,0,0,1,.248.867l-1.876,3.343a.65.65,0,0,1-.867.26h0a.635.635,0,0,1-.241-.871Z" transform="translate(-369.04 -397.684)" fill="#edb485"/>
                <path id="Trazado_138889" data-name="Trazado 138889" d="M373.8,401.134a.628.628,0,0,1,.9-.1h0a.621.621,0,0,1,.1.886l-2.4,2.991a.643.643,0,0,1-.9.107h0a.65.65,0,0,1-.1-.905Z" transform="translate(-371.261 -398.947)" fill="#edb485"/>
                <path id="Trazado_138890" data-name="Trazado 138890" d="M371.423,401.36a.691.691,0,0,0,.688.7l3.106.008a2.217,2.217,0,0,0,.374-.993c.015-.2-.458-.558-.458-.558l-3.022.157A.681.681,0,0,0,371.423,401.36Z" transform="translate(-370.804 -400.018)" fill="#edb485"/>
                <path id="Trazado_138891" data-name="Trazado 138891" d="M373.84,401.526a.639.639,0,0,1,.89-.18h0a.65.65,0,0,1,.164.894l-2.178,3.163a.635.635,0,0,1-.886.164h0a.643.643,0,0,1-.168-.886Z" transform="translate(-370.436 -397.971)" fill="#edb485"/>
                <path id="Rectángulo_32712" data-name="Rectángulo 32712" d="M.331,0H4.013a.331.331,0,0,1,.331.331V4.007a.332.332,0,0,1-.332.332H.333A.333.333,0,0,1,0,4.007V.331A.331.331,0,0,1,.331,0Z" transform="translate(1.521 3.581) rotate(-55.516)" fill="#edb485"/>
              </g>
            </g>
            <path id="Trazado_138892" data-name="Trazado 138892" d="M376.273,399.781a1.138,1.138,0,0,1,1.57-.29h0a1.12,1.12,0,0,1,.286,1.574l-3.832,5.582a1.134,1.134,0,0,1-1.57.283h0a1.123,1.123,0,0,1-.29-1.566Z" transform="translate(-368.51 -399.295)" fill="#edb485"/>
          </g>
          <path id="Trazado_138893" data-name="Trazado 138893" d="M372.342,429.147l4.55,3.293,27.878-38.453a2.8,2.8,0,0,0-.619-3.916h0a2.81,2.81,0,0,0-3.927.627Z" transform="translate(-368.212 -389.536)" fill="#233955"/>
        </g>
      </g>
      <g id="Grupo_87325" data-name="Grupo 87325" transform="translate(56.394)">
        <g id="Grupo_87320" data-name="Grupo 87320">
          <g id="Grupo_87319" data-name="Grupo 87319">
            <path id="Trazado_138894" data-name="Trazado 138894" d="M390.221,374.19a4.209,4.209,0,0,0-4.2,4.191v15.53a4.211,4.211,0,0,0,4.2,4.2h5l-2.239,6.686c-.225.657.08.894.672.554l8.948-5.322V374.19Z" transform="translate(-386.022 -374.19)" fill="#ff9d00"/>
            <path id="Trazado_138895" data-name="Trazado 138895" d="M397.516,380.213v2.827l-8.944,5.322c-.592.34-.9.1-.672-.554l.787-2.35Z" transform="translate(-380.935 -357.202)" fill="#ff9d00"/>
            <path id="Trazado_138896" data-name="Trazado 138896" d="M402.745,374.19H390.363v25.838l2.846-1.677a1.265,1.265,0,0,0,.294-.241h9.242a4.208,4.208,0,0,0,4.2-4.2v-15.53A4.207,4.207,0,0,0,402.745,374.19Z" transform="translate(-373.778 -374.19)" fill="#ff9d00"/>
          </g>
        </g>
        <g id="Grupo_87324" data-name="Grupo 87324" transform="translate(3.671 8.657)">
          <g id="Grupo_87323" data-name="Grupo 87323">
            <g id="Grupo_87322" data-name="Grupo 87322">
              <g id="Grupo_87321" data-name="Grupo 87321">
                <path id="Trazado_138897" data-name="Trazado 138897" d="M397.664,380.408h-1.028l.267,1.394h-.967l-.267-1.394-.65.008.267,1.387h-.963l-.267-1.387h-1.314l-.134-.97h1.226l-.115-.619h-1.226l-.142-.963h1.223l-.264-1.395h.959l.271,1.395h.638l-.275-1.395h.963l.271,1.395h1.127l.153.963H396.33l.115.619h1.073Zm-2.178-.963-.115-.619h-.688l.118.619Z" transform="translate(-371.837 -376.419)" fill="#fff"/>
                <path id="Trazado_138898" data-name="Trazado 138898" d="M396.6,381.574a1.567,1.567,0,0,1-1.735,1.731h-2.4c-1.074,0-1.731-.508-1.731-1.88v-3.007a1.7,1.7,0,0,1,1.8-1.918h.623a14.02,14.02,0,0,1,2.327.2v.848h-2.949c-.443,0-.753.306-.753.867v3.007c0,.5.157.829.753.829h2.331c.287,0,.68-.172.68-.829v-1.731c0-.588-.336-.665-.68-.665h-1.3c-.229,0-.328.046-.328.283v.122h.756c.726,0,1.158.321,1.158,1.035v.245a.958.958,0,0,1-.932,1.07,1.3,1.3,0,0,1-.993-.454l-.176.386h-.86v-2.491c0-1.15.711-1.238,1.406-1.238h1.268a1.508,1.508,0,0,1,1.735,1.631Zm-2.567-1.058v-.084c0-.18-.069-.2-.222-.214l-.573-.038v.306c.1.225.328.244.535.244S394.029,380.672,394.029,380.515Z" transform="translate(-376.42 -376.332)" fill="#fff"/>
                <path id="Trazado_138899" data-name="Trazado 138899" d="M395.557,378.28a.873.873,0,0,1-1,.978h-.733c-.737,0-1.016-.367-1.016-.978v-.825a.87.87,0,0,1,1-.986h.734c.737,0,1.02.359,1.02.986Zm-.921-.221v-.39c0-.244-.122-.29-.283-.29h-.371c-.18,0-.271.054-.271.29v.39c0,.157.038.29.287.29h.374C394.61,378.349,394.636,378.215,394.636,378.058Zm-.309,3.744h-.955l-3.259-5.333h.9Zm-2.739-1a.869.869,0,0,1-1,.978h-.741c-.741,0-1.016-.363-1.016-.978v-.825a.871.871,0,0,1,1-.986h.749c.737,0,1.008.367,1.008.986Zm-.917-.221V380.2c0-.252-.122-.29-.283-.29h-.363c-.183,0-.279.046-.279.29v.382c0,.156.046.3.294.3h.363C390.644,380.878,390.671,380.736,390.671,380.58Z" transform="translate(-381.765 -376.419)" fill="#fff"/>
                <path id="Trazado_138900" data-name="Trazado 138900" d="M392.172,381.251a1.6,1.6,0,0,1-2.178.359l-.439-.382-.447.611h-1.662l1.115-1.448-.252-.313-.489-.791.512-.642.928.806.837-1.169c.245-.352.344-.562-.149-.562h-.971V376.67a4.55,4.55,0,0,1,2.086-.149,1.111,1.111,0,0,1,.638,1.765l-.313.478.413.367A1.579,1.579,0,0,1,392.172,381.251Zm-1.146-.821c.088-.111.149-.275-.088-.485l-.218-.214-.409.527.191.2C390.743,380.7,390.907,380.563,391.026,380.429Z" transform="translate(-385.677 -376.456)" fill="#fff"/>
                <path id="Trazado_138901" data-name="Trazado 138901" d="M388.328,376.471l-.126,3.9h-1.066l-.153-3.9Zm-.061,5.161a.161.161,0,0,1-.18.164h-.833a.148.148,0,0,1-.168-.164v-.848a.166.166,0,0,1,.168-.187h.833a.165.165,0,0,1,.18.187Z" transform="translate(-386.983 -376.414)" fill="#fff"/>
              </g>
            </g>
          </g>
        </g>
      </g>
    </g>
  </g>
</svg>
