<svg xmlns="http://www.w3.org/2000/svg" xmlns:xlink="http://www.w3.org/1999/xlink" width="1001" height="238" viewBox="0 0 1001 238">
  <defs>
    <radialGradient id="radial-gradient" cx="0.076" cy="0.019" r="1.465" gradientTransform="translate(0.001)" gradientUnits="objectBoundingBox">
      <stop offset="0" stop-color="#f6f6f7"/>
      <stop offset="0.477" stop-color="#f9f9fa"/>
      <stop offset="0.715" stop-color="#fff"/>
    </radialGradient>
  </defs>
  <g id="Grupo_87669" data-name="Grupo 87669" transform="translate(-294 -5072)">
    <g id="Grupo_87668" data-name="Grupo 87668">
      <g id="Grupo_77984" data-name="Grupo 77984" transform="translate(-8 819)">
        <path id="Rectángulo_31967" data-name="Rectángulo 31967" d="M35,0H154a35,35,0,0,1,35,35V238a0,0,0,0,1,0,0H35A35,35,0,0,1,0,203V35A35,35,0,0,1,35,0Z" transform="translate(302 4253)" fill="#e6f7fe"/>
        <path id="Trazado_139491" data-name="Trazado 139491" d="M32.571,11.568H27.72v3.059h5.73V17H24.635V4.2h8.833V6.585H27.72v2.7h4.852Zm6.979,2.76a.684.684,0,0,0-.4-.606,6.016,6.016,0,0,0-1.5-.475,6.853,6.853,0,0,1-1.828-.646,3.062,3.062,0,0,1-1.1-.971,2.319,2.319,0,0,1-.378-1.31,2.628,2.628,0,0,1,1.081-2.158,4.453,4.453,0,0,1,2.83-.848,4.934,4.934,0,0,1,3.023.853,2.666,2.666,0,0,1,1.143,2.241H39.453q0-1.143-1.2-1.143a1.194,1.194,0,0,0-.782.259.8.8,0,0,0-.316.646.737.737,0,0,0,.387.642,3.654,3.654,0,0,0,1.235.4,10.671,10.671,0,0,1,1.49.378,2.706,2.706,0,0,1,2.145,2.646,2.491,2.491,0,0,1-1.156,2.118,5.068,5.068,0,0,1-2.993.817,5.172,5.172,0,0,1-2.18-.439,3.645,3.645,0,0,1-1.494-1.2,2.707,2.707,0,0,1-.536-1.591h2.769a1.145,1.145,0,0,0,.439.962,1.808,1.808,0,0,0,1.081.3,1.422,1.422,0,0,0,.91-.246A.787.787,0,0,0,39.55,14.328Zm7.69-9.2V7.49H48.8V9.547H47.24V13.9a1.111,1.111,0,0,0,.193.747,1.037,1.037,0,0,0,.765.211,4.345,4.345,0,0,0,.738-.053v2.118a5.466,5.466,0,0,1-1.67.255,3.1,3.1,0,0,1-2.259-.721,2.954,2.954,0,0,1-.729-2.188V9.547H43.065V7.49h1.213V5.126ZM55.326,17a3.344,3.344,0,0,1-.281-.853,2.754,2.754,0,0,1-2.285,1.028,3.374,3.374,0,0,1-2.285-.813,2.588,2.588,0,0,1-.94-2.043,2.66,2.66,0,0,1,1.143-2.338A5.821,5.821,0,0,1,54,11.19h.914v-.5q0-1.316-1.134-1.316a.927.927,0,0,0-1.055,1.042H49.763a2.655,2.655,0,0,1,1.173-2.239,4.931,4.931,0,0,1,2.993-.86A4.323,4.323,0,0,1,56.8,8.2a3.086,3.086,0,0,1,1.081,2.435v4.21a4.311,4.311,0,0,0,.4,2V17Zm-1.854-1.934a1.652,1.652,0,0,0,.918-.237,1.487,1.487,0,0,0,.523-.536V12.772h-.861q-1.547,0-1.547,1.389a.848.848,0,0,0,.272.655A.986.986,0,0,0,53.472,15.066Zm5.678-2.892a5.809,5.809,0,0,1,.976-3.56,3.211,3.211,0,0,1,2.725-1.3,2.731,2.731,0,0,1,2.145,1V3.5h2.971V17H65.3l-.149-1.02a2.8,2.8,0,0,1-2.32,1.2,3.205,3.205,0,0,1-2.689-1.3A5.993,5.993,0,0,1,59.149,12.175Zm2.962.185q0,2.531,1.477,2.531a1.458,1.458,0,0,0,1.406-.826V10.443A1.419,1.419,0,0,0,63.605,9.6q-1.371,0-1.485,2.215Zm7.163-.2a5.613,5.613,0,0,1,.554-2.536,3.96,3.96,0,0,1,1.591-1.709,4.791,4.791,0,0,1,2.435-.6A4.373,4.373,0,0,1,77.22,8.637a5.076,5.076,0,0,1,1.23,3.6v.105a4.925,4.925,0,0,1-1.235,3.529,4.384,4.384,0,0,1-3.344,1.305,4.434,4.434,0,0,1-3.261-1.217,4.761,4.761,0,0,1-1.327-3.3Zm2.962.185a3.538,3.538,0,0,0,.413,1.934,1.376,1.376,0,0,0,1.222.615q1.582,0,1.617-2.435v-.3q0-2.558-1.635-2.558-1.485,0-1.608,2.206Zm11.628-.167a5.809,5.809,0,0,1,.976-3.56,3.211,3.211,0,0,1,2.725-1.3,2.731,2.731,0,0,1,2.145,1V3.5H92.68V17H90.017l-.149-1.02a2.8,2.8,0,0,1-2.32,1.2,3.205,3.205,0,0,1-2.689-1.3A5.993,5.993,0,0,1,83.864,12.175Zm2.962.185q0,2.531,1.477,2.531a1.458,1.458,0,0,0,1.406-.826V10.443A1.419,1.419,0,0,0,88.32,9.6q-1.371,0-1.485,2.215Zm12.138,4.816a4.889,4.889,0,0,1-3.542-1.305,4.507,4.507,0,0,1-1.354-3.4v-.246a5.84,5.84,0,0,1,.541-2.575,3.955,3.955,0,0,1,1.578-1.727,4.763,4.763,0,0,1,2.461-.611,4.117,4.117,0,0,1,3.164,1.244,4.887,4.887,0,0,1,1.16,3.467v1.151H97.083a2.135,2.135,0,0,0,.694,1.257,2.066,2.066,0,0,0,1.389.457,2.662,2.662,0,0,0,2.2-.984l1.354,1.6a3.784,3.784,0,0,1-1.569,1.217A5.3,5.3,0,0,1,98.964,17.176ZM98.63,9.6q-1.3,0-1.547,1.723h2.988v-.229a1.467,1.467,0,0,0-.36-1.1A1.434,1.434,0,0,0,98.63,9.6ZM44.555,42a3.344,3.344,0,0,1-.281-.853,2.754,2.754,0,0,1-2.285,1.028,3.374,3.374,0,0,1-2.285-.813,2.588,2.588,0,0,1-.94-2.043,2.66,2.66,0,0,1,1.143-2.338,5.821,5.821,0,0,1,3.322-.791h.914v-.5q0-1.316-1.134-1.316a.927.927,0,0,0-1.055,1.042H38.992a2.655,2.655,0,0,1,1.173-2.239,4.931,4.931,0,0,1,2.993-.86,4.323,4.323,0,0,1,2.874.888,3.086,3.086,0,0,1,1.081,2.435v4.21a4.311,4.311,0,0,0,.4,2V42ZM42.7,40.066a1.652,1.652,0,0,0,.918-.237,1.487,1.487,0,0,0,.523-.536V37.772h-.861q-1.547,0-1.547,1.389a.848.848,0,0,0,.272.655A.986.986,0,0,0,42.7,40.066Zm8.771-7.576.1,1.116a3.225,3.225,0,0,1,2.716-1.292A2.713,2.713,0,0,1,56.5,33.2a4.226,4.226,0,0,1,.76,2.672V42H54.293V36A1.6,1.6,0,0,0,54,34.938a1.342,1.342,0,0,0-1.055-.338,1.413,1.413,0,0,0-1.292.686V42H48.695V32.49ZM62.028,42H59.057V32.49h2.971ZM58.881,30.029a1.334,1.334,0,0,1,.457-1.043,1.934,1.934,0,0,1,2.373,0,1.42,1.42,0,0,1,0,2.087,1.934,1.934,0,0,1-2.373,0A1.334,1.334,0,0,1,58.881,30.029Zm7.77,2.461.1,1.116a3.27,3.27,0,0,1,2.716-1.292A2.407,2.407,0,0,1,71.9,33.747a3.165,3.165,0,0,1,2.795-1.433q2.892,0,2.971,3.5V42H74.693V36a1.813,1.813,0,0,0-.246-1.063,1.048,1.048,0,0,0-.9-.334,1.4,1.4,0,0,0-1.31.782l.009.123V42H69.279V36.015a1.906,1.906,0,0,0-.237-1.081,1.045,1.045,0,0,0-.905-.334,1.42,1.42,0,0,0-1.3.782V42H63.874V32.49Zm12.331,4.667a5.613,5.613,0,0,1,.554-2.536,3.96,3.96,0,0,1,1.591-1.709,4.791,4.791,0,0,1,2.435-.6,4.373,4.373,0,0,1,3.366,1.323,5.076,5.076,0,0,1,1.23,3.6v.105a4.925,4.925,0,0,1-1.235,3.529,4.384,4.384,0,0,1-3.344,1.305,4.434,4.434,0,0,1-3.261-1.217,4.761,4.761,0,0,1-1.327-3.3Zm2.962.185a3.538,3.538,0,0,0,.413,1.934,1.376,1.376,0,0,0,1.222.615q1.582,0,1.617-2.435v-.3q0-2.558-1.635-2.558-1.485,0-1.608,2.206Z" transform="translate(333 4406)" fill="#12263f"/>
        <g id="Grupo_77973" data-name="Grupo 77973" transform="translate(333 4270.309)">
          <g id="Grupo_18531" data-name="Grupo 18531" transform="translate(0 0)">
            <g id="Grupo_18423" data-name="Grupo 18423" transform="translate(0 0)">
              <g id="Grupo_18421" data-name="Grupo 18421">
                <g id="Grupo_18420" data-name="Grupo 18420">
                  <g id="Grupo_18419" data-name="Grupo 18419">
                    <path id="Trazado_40936" data-name="Trazado 40936" d="M312.314,2204.565a58.846,58.846,0,1,1-58.845-58.844A58.845,58.845,0,0,1,312.314,2204.565Z" transform="translate(-194.623 -2145.721)" fill="#fff"/>
                  </g>
                </g>
              </g>
              <path id="Trazado_40937" data-name="Trazado 40937" d="M311.665,2203.857A58.844,58.844,0,1,0,252.82,2262.7,58.613,58.613,0,0,0,311.665,2203.857Z" transform="translate(-193.974 -2145.013)" fill="url(#radial-gradient)"/>
              <path id="Trazado_40938" data-name="Trazado 40938" d="M291.975,2198.12a44.917,44.917,0,1,0-44.917,44.917A44.75,44.75,0,0,0,291.975,2198.12Z" transform="translate(-188.034 -2139.08)" fill="none" stroke="#00223d" stroke-miterlimit="10" stroke-width="4"/>
              <g id="Grupo_18422" data-name="Grupo 18422" transform="translate(10.425 33.038)">
                <path id="Trazado_40939" data-name="Trazado 40939" d="M301.861,2164.488a58.853,58.853,0,0,1-101.316,58.6,58.666,58.666,0,0,0,101.316-58.6Z" transform="translate(-200.545 -2164.488)" fill="#eceef0"/>
              </g>
            </g>
          </g>
          <g id="ILxOAW" transform="translate(-404.36 -126.717)">
            <g id="Grupo_87227" data-name="Grupo 87227" transform="translate(428.665 168.277)">
              <path id="Trazado_138740" data-name="Trazado 138740" d="M511.5,190.207a19.061,19.061,0,1,1,38.122.171,19.061,19.061,0,0,1-38.122-.171Zm28.8,9.368a16.226,16.226,0,0,0-.97-1.356c-4.314-4.893-13.008-5.164-17.614-.5-.409.414-.421,1.222-.617,1.847a5.3,5.3,0,0,0,1.871-.585,10.844,10.844,0,0,1,9.2-2.551,10.5,10.5,0,0,1,6.172,3.439,2.366,2.366,0,0,0,1.35.543C539.834,200.431,540.057,199.92,540.3,199.576Zm-2.832-12.918a2.94,2.94,0,0,0,3.025-2.936,3.03,3.03,0,0,0-2.865-2.917,2.91,2.91,0,0,0-2.984,2.962A2.834,2.834,0,0,0,537.467,186.658ZM526.448,183.8a3.031,3.031,0,0,0-2.783-2.993,2.925,2.925,0,0,0-3.064,2.883,2.842,2.842,0,0,0,2.75,2.964A2.929,2.929,0,0,0,526.448,183.8Z" transform="translate(-477.235 -170.002)" fill="#12263f"/>
              <path id="Trazado_138741" data-name="Trazado 138741" d="M463.236,198.246a18.722,18.722,0,0,1-18.264,7.978c-8.067-1.432-14.2-7.084-15.851-14.612a19.093,19.093,0,0,1,33.782-15.84,2.742,2.742,0,0,1,.275,3.59C459.68,185.612,459.942,191.967,463.236,198.246Zm-15.772.813a12.052,12.052,0,0,0,8.842-3.293c.435-.422.476-1.249.7-1.889-.631.158-1.421.126-1.869.5-4.807,4.036-10.788,3.795-15.231-.63a4.957,4.957,0,0,0-1.65-.695c.1.636-.031,1.462.323,1.877A11.55,11.55,0,0,0,447.464,199.06Zm10.088-16.847a3.044,3.044,0,0,0-2.911-2.891,3,3,0,0,0-3.019,2.974,3.052,3.052,0,0,0,2.892,2.92A3.1,3.1,0,0,0,457.553,182.213Zm-14.048.055a2.959,2.959,0,0,0-5.917-.033,3.046,3.046,0,0,0,2.827,2.977A3.1,3.1,0,0,0,443.5,182.268Z" transform="translate(-428.665 -168.277)" fill="#12263f"/>
            </g>
          </g>
        </g>
      </g>
      <g id="Grupo_77987" data-name="Grupo 77987" transform="translate(398 819)">
        <path id="Rectángulo_31967-2" data-name="Rectángulo 31967" d="M35,0H154a35,35,0,0,1,35,35V238a0,0,0,0,1,0,0H35A35,35,0,0,1,0,203V35A35,35,0,0,1,35,0Z" transform="translate(302 4253)" fill="#e6f7fe"/>
        <path id="Trazado_139493" data-name="Trazado 139493" d="M11.5,13.52,14.053,4.2H17.5L13.191,17H9.816L5.545,4.2H8.964ZM23.246,17a3.344,3.344,0,0,1-.281-.853,2.754,2.754,0,0,1-2.285,1.028,3.374,3.374,0,0,1-2.285-.813,2.588,2.588,0,0,1-.94-2.043A2.66,2.66,0,0,1,18.6,11.981a5.821,5.821,0,0,1,3.322-.791h.914v-.5q0-1.316-1.134-1.316a.927.927,0,0,0-1.055,1.042H17.683a2.655,2.655,0,0,1,1.173-2.239,4.931,4.931,0,0,1,2.993-.86,4.323,4.323,0,0,1,2.874.888A3.086,3.086,0,0,1,25.8,10.637v4.21a4.311,4.311,0,0,0,.4,2V17Zm-1.854-1.934a1.652,1.652,0,0,0,.918-.237,1.487,1.487,0,0,0,.523-.536V12.772h-.861q-1.547,0-1.547,1.389a.848.848,0,0,0,.272.655A.986.986,0,0,0,21.392,15.066ZM30.567,17H27.6V3.5h2.971Zm1.45-4.843a5.613,5.613,0,0,1,.554-2.536,3.96,3.96,0,0,1,1.591-1.709,4.791,4.791,0,0,1,2.435-.6,4.373,4.373,0,0,1,3.366,1.323,5.076,5.076,0,0,1,1.23,3.6v.105a4.925,4.925,0,0,1-1.235,3.529,4.384,4.384,0,0,1-3.344,1.305,4.434,4.434,0,0,1-3.261-1.217,4.761,4.761,0,0,1-1.327-3.3Zm2.962.185a3.538,3.538,0,0,0,.413,1.934,1.376,1.376,0,0,0,1.222.615q1.582,0,1.617-2.435v-.3Q38.231,9.6,36.6,9.6q-1.485,0-1.608,2.206Zm13.271-2.171-.976-.07a1.752,1.752,0,0,0-1.793.879V17H42.521V7.49H45.3l.1,1.222a2.294,2.294,0,0,1,2.083-1.4,2.888,2.888,0,0,1,.826.105Zm5.5,7a4.889,4.889,0,0,1-3.542-1.305,4.507,4.507,0,0,1-1.354-3.4v-.246A5.84,5.84,0,0,1,49.4,9.652a3.955,3.955,0,0,1,1.578-1.727,4.763,4.763,0,0,1,2.461-.611A4.117,4.117,0,0,1,56.6,8.558a4.887,4.887,0,0,1,1.16,3.467v1.151H51.872a2.135,2.135,0,0,0,.694,1.257,2.066,2.066,0,0,0,1.389.457,2.662,2.662,0,0,0,2.2-.984l1.354,1.6a3.784,3.784,0,0,1-1.569,1.217A5.3,5.3,0,0,1,53.753,17.176ZM53.419,9.6q-1.3,0-1.547,1.723H54.86v-.229a1.467,1.467,0,0,0-.36-1.1A1.434,1.434,0,0,0,53.419,9.6Zm10.512,4.729a.684.684,0,0,0-.4-.606,6.016,6.016,0,0,0-1.5-.475A6.853,6.853,0,0,1,60.2,12.6a3.062,3.062,0,0,1-1.1-.971,2.319,2.319,0,0,1-.378-1.31,2.628,2.628,0,0,1,1.081-2.158,4.453,4.453,0,0,1,2.83-.848,4.934,4.934,0,0,1,3.023.853A2.666,2.666,0,0,1,66.8,10.408H63.834q0-1.143-1.2-1.143a1.194,1.194,0,0,0-.782.259.8.8,0,0,0-.316.646.737.737,0,0,0,.387.642,3.654,3.654,0,0,0,1.235.4,10.671,10.671,0,0,1,1.49.378,2.706,2.706,0,0,1,2.145,2.646,2.491,2.491,0,0,1-1.156,2.118,5.068,5.068,0,0,1-2.993.817,5.172,5.172,0,0,1-2.18-.439,3.645,3.645,0,0,1-1.494-1.2,2.707,2.707,0,0,1-.536-1.591H61.2a1.145,1.145,0,0,0,.439.962,1.808,1.808,0,0,0,1.081.3,1.422,1.422,0,0,0,.91-.246A.787.787,0,0,0,63.931,14.328Zm13.324,2.848a4.889,4.889,0,0,1-3.542-1.305,4.507,4.507,0,0,1-1.354-3.4v-.246A5.84,5.84,0,0,1,72.9,9.652a3.955,3.955,0,0,1,1.578-1.727,4.763,4.763,0,0,1,2.461-.611A4.117,4.117,0,0,1,80.1,8.558a4.887,4.887,0,0,1,1.16,3.467v1.151H75.374a2.135,2.135,0,0,0,.694,1.257,2.066,2.066,0,0,0,1.389.457,2.662,2.662,0,0,0,2.2-.984l1.354,1.6a3.784,3.784,0,0,1-1.569,1.217A5.3,5.3,0,0,1,77.255,17.176ZM76.921,9.6q-1.3,0-1.547,1.723h2.988v-.229a1.467,1.467,0,0,0-.36-1.1A1.434,1.434,0,0,0,76.921,9.6Zm-.035-6.108h3.129l-2.443,2.76-2.417,0ZM85.9,5.126V7.49h1.564V9.547H85.9V13.9a1.111,1.111,0,0,0,.193.747,1.037,1.037,0,0,0,.765.211A4.345,4.345,0,0,0,87.6,14.8v2.118a5.466,5.466,0,0,1-1.67.255,3.1,3.1,0,0,1-2.259-.721,2.954,2.954,0,0,1-.729-2.188V9.547H81.729V7.49h1.213V5.126ZM91.757,17H88.786V7.49h2.971ZM88.61,5.029a1.334,1.334,0,0,1,.457-1.043,1.934,1.934,0,0,1,2.373,0A1.334,1.334,0,0,1,91.9,5.029a1.334,1.334,0,0,1-.457,1.043,1.934,1.934,0,0,1-2.373,0A1.334,1.334,0,0,1,88.61,5.029ZM97.6,14.891a1.317,1.317,0,0,0,.967-.338,1.241,1.241,0,0,0,.334-.945h2.777a3.288,3.288,0,0,1-1.121,2.566,4.168,4.168,0,0,1-2.887,1,4.22,4.22,0,0,1-3.27-1.3,5.125,5.125,0,0,1-1.2-3.6v-.123A5.792,5.792,0,0,1,93.739,9.6a3.872,3.872,0,0,1,1.534-1.7,4.573,4.573,0,0,1,2.373-.593,4.116,4.116,0,0,1,2.944,1.028,3.647,3.647,0,0,1,1.09,2.786H98.9A1.626,1.626,0,0,0,98.542,10a1.244,1.244,0,0,0-.967-.4q-1.151,0-1.345,1.468a10.357,10.357,0,0,0-.062,1.283,4.068,4.068,0,0,0,.343,1.986A1.187,1.187,0,0,0,97.6,14.891Zm4.957-2.733a5.613,5.613,0,0,1,.554-2.536A3.96,3.96,0,0,1,104.7,7.912a4.791,4.791,0,0,1,2.435-.6A4.373,4.373,0,0,1,110.5,8.637a5.076,5.076,0,0,1,1.23,3.6v.105a4.925,4.925,0,0,1-1.235,3.529,4.384,4.384,0,0,1-3.344,1.305,4.434,4.434,0,0,1-3.261-1.217,4.761,4.761,0,0,1-1.327-3.3Zm2.962.185a3.538,3.538,0,0,0,.413,1.934,1.376,1.376,0,0,0,1.222.615q1.582,0,1.617-2.435v-.3q0-2.558-1.635-2.558-1.485,0-1.608,2.206Zm12.5,1.986a.684.684,0,0,0-.4-.606,6.016,6.016,0,0,0-1.5-.475,6.853,6.853,0,0,1-1.828-.646,3.062,3.062,0,0,1-1.1-.971,2.319,2.319,0,0,1-.378-1.31A2.628,2.628,0,0,1,113.9,8.163a4.453,4.453,0,0,1,2.83-.848,4.934,4.934,0,0,1,3.023.853,2.666,2.666,0,0,1,1.143,2.241h-2.971q0-1.143-1.2-1.143a1.194,1.194,0,0,0-.782.259.8.8,0,0,0-.316.646.737.737,0,0,0,.387.642,3.654,3.654,0,0,0,1.235.4,10.671,10.671,0,0,1,1.49.378,2.706,2.706,0,0,1,2.145,2.646,2.491,2.491,0,0,1-1.156,2.118,5.068,5.068,0,0,1-2.993.817,5.172,5.172,0,0,1-2.18-.439,3.645,3.645,0,0,1-1.494-1.2,2.707,2.707,0,0,1-.536-1.591h2.769a1.145,1.145,0,0,0,.439.962,1.808,1.808,0,0,0,1.081.3,1.422,1.422,0,0,0,.91-.246A.787.787,0,0,0,118.019,14.328ZM28.383,37.852l1.582-5.361h3.173l-3.876,11.1L29.1,44a2.944,2.944,0,0,1-2.918,1.846,4.642,4.642,0,0,1-1.222-.175v-2.11h.387a2.026,2.026,0,0,0,.954-.18,1.094,1.094,0,0,0,.488-.647l.237-.633-3.3-9.605H26.88ZM41.189,32.49l.1,1.116A3.27,3.27,0,0,1,44,32.314a2.407,2.407,0,0,1,2.435,1.433,3.165,3.165,0,0,1,2.795-1.433q2.892,0,2.971,3.5V42H49.231V36a1.813,1.813,0,0,0-.246-1.063,1.048,1.048,0,0,0-.9-.334,1.4,1.4,0,0,0-1.31.782l.009.123V42H43.817V36.015a1.906,1.906,0,0,0-.237-1.081,1.045,1.045,0,0,0-.905-.334,1.42,1.42,0,0,0-1.3.782V42H38.412V32.49ZM53.52,37.157a5.613,5.613,0,0,1,.554-2.536,3.96,3.96,0,0,1,1.591-1.709,4.791,4.791,0,0,1,2.435-.6,4.373,4.373,0,0,1,3.366,1.323,5.076,5.076,0,0,1,1.23,3.6v.105a4.925,4.925,0,0,1-1.235,3.529,4.384,4.384,0,0,1-3.344,1.305,4.434,4.434,0,0,1-3.261-1.217,4.761,4.761,0,0,1-1.327-3.3Zm2.962.185a3.538,3.538,0,0,0,.413,1.934,1.376,1.376,0,0,0,1.222.615q1.582,0,1.617-2.435v-.3q0-2.558-1.635-2.558-1.485,0-1.608,2.206Zm13.271-2.171-.976-.07a1.752,1.752,0,0,0-1.793.879V42H64.023V32.49H66.8l.1,1.222a2.294,2.294,0,0,1,2.083-1.4,2.888,2.888,0,0,1,.826.105ZM75.915,42a3.344,3.344,0,0,1-.281-.853,2.754,2.754,0,0,1-2.285,1.028,3.374,3.374,0,0,1-2.285-.813,2.588,2.588,0,0,1-.94-2.043,2.66,2.66,0,0,1,1.143-2.338,5.821,5.821,0,0,1,3.322-.791H75.5v-.5q0-1.316-1.134-1.316a.927.927,0,0,0-1.055,1.042H70.351a2.655,2.655,0,0,1,1.173-2.239,4.931,4.931,0,0,1,2.993-.86,4.323,4.323,0,0,1,2.874.888,3.086,3.086,0,0,1,1.081,2.435v4.21a4.311,4.311,0,0,0,.4,2V42ZM74.06,40.066a1.652,1.652,0,0,0,.918-.237,1.487,1.487,0,0,0,.523-.536V37.772H74.64q-1.547,0-1.547,1.389a.848.848,0,0,0,.272.655A.986.986,0,0,0,74.06,40.066ZM83.236,42H80.265V28.5h2.971Zm6.425.176a4.889,4.889,0,0,1-3.542-1.305,4.507,4.507,0,0,1-1.354-3.4v-.246a5.84,5.84,0,0,1,.541-2.575,3.955,3.955,0,0,1,1.578-1.727,4.763,4.763,0,0,1,2.461-.611,4.117,4.117,0,0,1,3.164,1.244,4.887,4.887,0,0,1,1.16,3.467v1.151H87.78a2.135,2.135,0,0,0,.694,1.257,2.066,2.066,0,0,0,1.389.457,2.662,2.662,0,0,0,2.2-.984l1.354,1.6a3.784,3.784,0,0,1-1.569,1.217A5.3,5.3,0,0,1,89.661,42.176ZM89.327,34.6q-1.3,0-1.547,1.723h2.988v-.229a1.467,1.467,0,0,0-.36-1.1A1.434,1.434,0,0,0,89.327,34.6Zm10.512,4.729a.684.684,0,0,0-.4-.606,6.016,6.016,0,0,0-1.5-.475,6.853,6.853,0,0,1-1.828-.646,3.062,3.062,0,0,1-1.1-.971,2.319,2.319,0,0,1-.378-1.31,2.628,2.628,0,0,1,1.081-2.158,4.453,4.453,0,0,1,2.83-.848,4.934,4.934,0,0,1,3.023.853,2.666,2.666,0,0,1,1.143,2.241H99.742q0-1.143-1.2-1.143a1.194,1.194,0,0,0-.782.259.8.8,0,0,0-.316.646.737.737,0,0,0,.387.642,3.654,3.654,0,0,0,1.235.4,10.671,10.671,0,0,1,1.49.378,2.706,2.706,0,0,1,2.145,2.646,2.491,2.491,0,0,1-1.156,2.118,5.068,5.068,0,0,1-2.993.817,5.172,5.172,0,0,1-2.18-.439,3.645,3.645,0,0,1-1.494-1.2,2.707,2.707,0,0,1-.536-1.591H97.1a1.145,1.145,0,0,0,.439.962,1.808,1.808,0,0,0,1.081.3,1.422,1.422,0,0,0,.91-.246A.787.787,0,0,0,99.838,39.328Z" transform="translate(333 4406)" fill="#12263f"/>
        <g id="Grupo_77973-2" data-name="Grupo 77973" transform="translate(333 4270.309)">
          <g id="Grupo_18531-2" data-name="Grupo 18531" transform="translate(0 0)">
            <g id="Grupo_18423-2" data-name="Grupo 18423" transform="translate(0 0)">
              <g id="Grupo_18421-2" data-name="Grupo 18421">
                <g id="Grupo_18420-2" data-name="Grupo 18420">
                  <g id="Grupo_18419-2" data-name="Grupo 18419">
                    <path id="Trazado_40936-2" data-name="Trazado 40936" d="M312.314,2204.565a58.846,58.846,0,1,1-58.845-58.844A58.845,58.845,0,0,1,312.314,2204.565Z" transform="translate(-194.623 -2145.721)" fill="#fff"/>
                  </g>
                </g>
              </g>
              <path id="Trazado_40937-2" data-name="Trazado 40937" d="M311.665,2203.857A58.844,58.844,0,1,0,252.82,2262.7,58.613,58.613,0,0,0,311.665,2203.857Z" transform="translate(-193.974 -2145.013)" fill="url(#radial-gradient)"/>
              <path id="Trazado_40938-2" data-name="Trazado 40938" d="M291.975,2198.12a44.917,44.917,0,1,0-44.917,44.917A44.75,44.75,0,0,0,291.975,2198.12Z" transform="translate(-188.034 -2139.08)" fill="none" stroke="#00223d" stroke-miterlimit="10" stroke-width="4"/>
              <g id="Grupo_18422-2" data-name="Grupo 18422" transform="translate(10.425 33.038)">
                <path id="Trazado_40939-2" data-name="Trazado 40939" d="M301.861,2164.488a58.853,58.853,0,0,1-101.316,58.6,58.666,58.666,0,0,0,101.316-58.6Z" transform="translate(-200.545 -2164.488)" fill="#eceef0"/>
              </g>
            </g>
          </g>
        </g>
      </g>
      <g id="Grupo_77985" data-name="Grupo 77985" transform="translate(195 819)">
        <path id="Rectángulo_31967-3" data-name="Rectángulo 31967" d="M35,0H154a35,35,0,0,1,35,35V238a0,0,0,0,1,0,0H35A35,35,0,0,1,0,203V35A35,35,0,0,1,35,0Z" transform="translate(302 4253)" fill="#e6f7fe"/>
        <path id="Trazado_139492" data-name="Trazado 139492" d="M13.758,12.667a4.673,4.673,0,0,1-.721,2.36,4.35,4.35,0,0,1-1.85,1.586,6.3,6.3,0,0,1-2.72.563,5.025,5.025,0,0,1-3.973-1.644,6.786,6.786,0,0,1-1.45-4.641v-.633A7.746,7.746,0,0,1,3.7,6.967a4.961,4.961,0,0,1,1.885-2.18,5.26,5.26,0,0,1,2.848-.769,5.516,5.516,0,0,1,3.744,1.226,4.844,4.844,0,0,1,1.608,3.379H10.708a2.292,2.292,0,0,0-.589-1.679,2.422,2.422,0,0,0-1.687-.51A1.843,1.843,0,0,0,6.745,7.3a5.536,5.536,0,0,0-.562,2.751v.905A6.125,6.125,0,0,0,6.7,13.88a1.882,1.882,0,0,0,1.771.879,2.369,2.369,0,0,0,1.626-.5,2.126,2.126,0,0,0,.6-1.591Zm.949-.51a5.613,5.613,0,0,1,.554-2.536,3.96,3.96,0,0,1,1.591-1.709,4.791,4.791,0,0,1,2.435-.6,4.373,4.373,0,0,1,3.366,1.323,5.076,5.076,0,0,1,1.23,3.6v.105a4.925,4.925,0,0,1-1.235,3.529A4.384,4.384,0,0,1,19.3,17.176a4.434,4.434,0,0,1-3.261-1.217,4.761,4.761,0,0,1-1.327-3.3Zm2.962.185a3.538,3.538,0,0,0,.413,1.934,1.376,1.376,0,0,0,1.222.615q1.582,0,1.617-2.435v-.3q0-2.558-1.635-2.558-1.485,0-1.608,2.206ZM27.909,7.49l.1,1.116a3.225,3.225,0,0,1,2.716-1.292A2.713,2.713,0,0,1,32.94,8.2a4.226,4.226,0,0,1,.76,2.672V17H30.73V11a1.6,1.6,0,0,0-.29-1.059A1.342,1.342,0,0,0,29.385,9.6a1.413,1.413,0,0,0-1.292.686V17H25.131V7.49Zm7.058,4.667a5.613,5.613,0,0,1,.554-2.536,3.96,3.96,0,0,1,1.591-1.709,4.791,4.791,0,0,1,2.435-.6,4.373,4.373,0,0,1,3.366,1.323,5.076,5.076,0,0,1,1.23,3.6v.105a4.925,4.925,0,0,1-1.235,3.529,4.384,4.384,0,0,1-3.344,1.305A4.434,4.434,0,0,1,36.3,15.958a4.761,4.761,0,0,1-1.327-3.3Zm2.962.185a3.538,3.538,0,0,0,.413,1.934,1.376,1.376,0,0,0,1.222.615q1.582,0,1.617-2.435v-.3q0-2.558-1.635-2.558-1.485,0-1.608,2.206Zm11.54,2.549a1.317,1.317,0,0,0,.967-.338,1.241,1.241,0,0,0,.334-.945h2.777a3.288,3.288,0,0,1-1.121,2.566,4.168,4.168,0,0,1-2.887,1,4.22,4.22,0,0,1-3.27-1.3,5.125,5.125,0,0,1-1.2-3.6v-.123A5.792,5.792,0,0,1,45.605,9.6a3.872,3.872,0,0,1,1.534-1.7,4.573,4.573,0,0,1,2.373-.593,4.116,4.116,0,0,1,2.944,1.028,3.647,3.647,0,0,1,1.09,2.786H50.769A1.626,1.626,0,0,0,50.409,10a1.244,1.244,0,0,0-.967-.4q-1.151,0-1.345,1.468a10.357,10.357,0,0,0-.062,1.283,4.068,4.068,0,0,0,.343,1.986A1.187,1.187,0,0,0,49.468,14.891ZM57.923,17H54.953V7.49h2.971ZM54.777,5.029a1.334,1.334,0,0,1,.457-1.043,1.934,1.934,0,0,1,2.373,0,1.334,1.334,0,0,1,.457,1.043,1.334,1.334,0,0,1-.457,1.043,1.934,1.934,0,0,1-2.373,0A1.334,1.334,0,0,1,54.777,5.029Zm7.77,2.461.1,1.116a3.27,3.27,0,0,1,2.716-1.292,2.407,2.407,0,0,1,2.435,1.433,3.165,3.165,0,0,1,2.795-1.433q2.892,0,2.971,3.5V17H70.588V11a1.813,1.813,0,0,0-.246-1.063,1.048,1.048,0,0,0-.9-.334,1.4,1.4,0,0,0-1.31.782l.009.123V17H65.174V11.015a1.906,1.906,0,0,0-.237-1.081,1.045,1.045,0,0,0-.905-.334,1.42,1.42,0,0,0-1.3.782V17H59.769V7.49ZM78.375,17H75.4V7.49h2.971ZM75.229,5.029a1.334,1.334,0,0,1,.457-1.043,1.934,1.934,0,0,1,2.373,0,1.334,1.334,0,0,1,.457,1.043,1.334,1.334,0,0,1-.457,1.043,1.934,1.934,0,0,1-2.373,0A1.334,1.334,0,0,1,75.229,5.029ZM84.8,17.176a4.889,4.889,0,0,1-3.542-1.305,4.507,4.507,0,0,1-1.354-3.4v-.246a5.84,5.84,0,0,1,.541-2.575,3.955,3.955,0,0,1,1.578-1.727,4.763,4.763,0,0,1,2.461-.611,4.117,4.117,0,0,1,3.164,1.244,4.887,4.887,0,0,1,1.16,3.467v1.151H82.919a2.135,2.135,0,0,0,.694,1.257A2.066,2.066,0,0,0,85,14.891a2.662,2.662,0,0,0,2.2-.984l1.354,1.6a3.784,3.784,0,0,1-1.569,1.217A5.3,5.3,0,0,1,84.8,17.176ZM84.466,9.6q-1.3,0-1.547,1.723h2.988v-.229a1.467,1.467,0,0,0-.36-1.1A1.434,1.434,0,0,0,84.466,9.6ZM92.719,7.49l.1,1.116a3.225,3.225,0,0,1,2.716-1.292,2.713,2.713,0,0,1,2.219.888,4.226,4.226,0,0,1,.76,2.672V17H95.541V11a1.6,1.6,0,0,0-.29-1.059A1.342,1.342,0,0,0,94.2,9.6a1.413,1.413,0,0,0-1.292.686V17H89.942V7.49ZM103.6,5.126V7.49h1.564V9.547H103.6V13.9a1.111,1.111,0,0,0,.193.747,1.037,1.037,0,0,0,.765.211,4.345,4.345,0,0,0,.738-.053v2.118a5.466,5.466,0,0,1-1.67.255,3.1,3.1,0,0,1-2.259-.721,2.954,2.954,0,0,1-.729-2.188V9.547H99.425V7.49h1.213V5.126Zm2.092,7.031a5.613,5.613,0,0,1,.554-2.536,3.96,3.96,0,0,1,1.591-1.709,4.791,4.791,0,0,1,2.435-.6,4.373,4.373,0,0,1,3.366,1.323,5.076,5.076,0,0,1,1.23,3.6v.105a4.925,4.925,0,0,1-1.235,3.529,4.384,4.384,0,0,1-3.344,1.305,4.434,4.434,0,0,1-3.261-1.217,4.761,4.761,0,0,1-1.327-3.3Zm2.962.185a3.538,3.538,0,0,0,.413,1.934,1.376,1.376,0,0,0,1.222.615q1.582,0,1.617-2.435v-.3q0-2.558-1.635-2.558-1.485,0-1.608,2.206Zm12.5,1.986a.684.684,0,0,0-.4-.606,6.016,6.016,0,0,0-1.5-.475,6.853,6.853,0,0,1-1.828-.646,3.062,3.062,0,0,1-1.1-.971,2.319,2.319,0,0,1-.378-1.31,2.628,2.628,0,0,1,1.081-2.158,4.453,4.453,0,0,1,2.83-.848,4.934,4.934,0,0,1,3.023.853,2.666,2.666,0,0,1,1.143,2.241h-2.971q0-1.143-1.2-1.143a1.194,1.194,0,0,0-.782.259.8.8,0,0,0-.316.646.737.737,0,0,0,.387.642,3.654,3.654,0,0,0,1.235.4,10.671,10.671,0,0,1,1.49.378,2.706,2.706,0,0,1,2.145,2.646,2.491,2.491,0,0,1-1.156,2.118,5.068,5.068,0,0,1-2.993.817,5.172,5.172,0,0,1-2.18-.439,3.645,3.645,0,0,1-1.494-1.2,2.707,2.707,0,0,1-.536-1.591h2.769a1.145,1.145,0,0,0,.439.962,1.808,1.808,0,0,0,1.081.3,1.422,1.422,0,0,0,.91-.246A.787.787,0,0,0,121.152,14.328ZM43.136,37.315a5.735,5.735,0,0,1-1,3.538,3.2,3.2,0,0,1-2.694,1.323,2.742,2.742,0,0,1-2.153-.958v4.438H34.329V32.49H37.1l.088.879a2.742,2.742,0,0,1,2.241-1.055,3.224,3.224,0,0,1,2.733,1.3,5.805,5.805,0,0,1,.976,3.564Zm-2.962-.185q0-2.531-1.477-2.531a1.394,1.394,0,0,0-1.406.756V39.1a1.439,1.439,0,0,0,1.424.791q1.415,0,1.459-2.443Zm10.02-1.96-.976-.07a1.752,1.752,0,0,0-1.793.879V42H44.463V32.49H47.24l.1,1.222a2.294,2.294,0,0,1,2.083-1.4,2.888,2.888,0,0,1,.826.105Zm5.5,7a4.889,4.889,0,0,1-3.542-1.305,4.507,4.507,0,0,1-1.354-3.4v-.246a5.84,5.84,0,0,1,.541-2.575,3.955,3.955,0,0,1,1.578-1.727,4.763,4.763,0,0,1,2.461-.611,4.117,4.117,0,0,1,3.164,1.244,4.887,4.887,0,0,1,1.16,3.467v1.151H53.814a2.135,2.135,0,0,0,.694,1.257,2.066,2.066,0,0,0,1.389.457,2.662,2.662,0,0,0,2.2-.984l1.354,1.6a3.784,3.784,0,0,1-1.569,1.217A5.3,5.3,0,0,1,55.7,42.176ZM55.361,34.6q-1.3,0-1.547,1.723H56.8v-.229a1.467,1.467,0,0,0-.36-1.1A1.434,1.434,0,0,0,55.361,34.6Zm9.211,3.876,1.5-5.985H69.2L66.093,42H63.069l-3.1-9.51H63.1ZM73.2,42H70.232V32.49H73.2ZM70.057,30.029a1.334,1.334,0,0,1,.457-1.043,1.934,1.934,0,0,1,2.373,0,1.42,1.42,0,0,1,0,2.087,1.934,1.934,0,0,1-2.373,0A1.334,1.334,0,0,1,70.057,30.029Zm4.6,7.128a5.613,5.613,0,0,1,.554-2.536A3.96,3.96,0,0,1,76.8,32.912a4.791,4.791,0,0,1,2.435-.6A4.373,4.373,0,0,1,82.6,33.637a5.076,5.076,0,0,1,1.23,3.6v.105a4.925,4.925,0,0,1-1.235,3.529,4.384,4.384,0,0,1-3.344,1.305,4.434,4.434,0,0,1-3.261-1.217,4.761,4.761,0,0,1-1.327-3.3Zm2.962.185a3.538,3.538,0,0,0,.413,1.934,1.376,1.376,0,0,0,1.222.615q1.582,0,1.617-2.435v-.3q0-2.558-1.635-2.558-1.485,0-1.608,2.206Zm12.5,1.986a.684.684,0,0,0-.4-.606,6.016,6.016,0,0,0-1.5-.475,6.853,6.853,0,0,1-1.828-.646,3.062,3.062,0,0,1-1.1-.971,2.319,2.319,0,0,1-.378-1.31,2.628,2.628,0,0,1,1.081-2.158,4.453,4.453,0,0,1,2.83-.848,4.934,4.934,0,0,1,3.023.853,2.666,2.666,0,0,1,1.143,2.241H90.017q0-1.143-1.2-1.143a1.194,1.194,0,0,0-.782.259.8.8,0,0,0-.316.646.737.737,0,0,0,.387.642,3.654,3.654,0,0,0,1.235.4,10.671,10.671,0,0,1,1.49.378A2.706,2.706,0,0,1,92.97,39.24a2.491,2.491,0,0,1-1.156,2.118,5.068,5.068,0,0,1-2.993.817,5.172,5.172,0,0,1-2.18-.439,3.645,3.645,0,0,1-1.494-1.2,2.707,2.707,0,0,1-.536-1.591H87.38a1.145,1.145,0,0,0,.439.962,1.808,1.808,0,0,0,1.081.3,1.422,1.422,0,0,0,.91-.246A.787.787,0,0,0,90.113,39.328Z" transform="translate(333 4406)" fill="#12263f"/>
        <g id="Grupo_77973-3" data-name="Grupo 77973" transform="translate(333 4270.309)">
          <g id="Grupo_18531-3" data-name="Grupo 18531" transform="translate(0 0)">
            <g id="Grupo_18423-3" data-name="Grupo 18423" transform="translate(0 0)">
              <g id="Grupo_18421-3" data-name="Grupo 18421">
                <g id="Grupo_18420-3" data-name="Grupo 18420">
                  <g id="Grupo_18419-3" data-name="Grupo 18419">
                    <path id="Trazado_40936-3" data-name="Trazado 40936" d="M312.314,2204.565a58.846,58.846,0,1,1-58.845-58.844A58.845,58.845,0,0,1,312.314,2204.565Z" transform="translate(-194.623 -2145.721)" fill="#fff"/>
                  </g>
                </g>
              </g>
              <path id="Trazado_40937-3" data-name="Trazado 40937" d="M311.665,2203.857A58.844,58.844,0,1,0,252.82,2262.7,58.613,58.613,0,0,0,311.665,2203.857Z" transform="translate(-193.974 -2145.013)" fill="url(#radial-gradient)"/>
              <path id="Trazado_40938-3" data-name="Trazado 40938" d="M291.975,2198.12a44.917,44.917,0,1,0-44.917,44.917A44.75,44.75,0,0,0,291.975,2198.12Z" transform="translate(-188.034 -2139.08)" fill="none" stroke="#00223d" stroke-miterlimit="10" stroke-width="4"/>
              <g id="Grupo_18422-3" data-name="Grupo 18422" transform="translate(10.425 33.038)">
                <path id="Trazado_40939-3" data-name="Trazado 40939" d="M301.861,2164.488a58.853,58.853,0,0,1-101.316,58.6,58.666,58.666,0,0,0,101.316-58.6Z" transform="translate(-200.545 -2164.488)" fill="#eceef0"/>
              </g>
            </g>
          </g>
          <g id="jw7aN7" transform="translate(-415.645 8.948)">
            <g id="Grupo_87228" data-name="Grupo 87228" transform="translate(448.289 20.738)">
              <path id="Trazado_138742" data-name="Trazado 138742" d="M477.367,20.738c1.15.175,2.307.318,3.45.531A22.027,22.027,0,0,1,495.3,30.684a16.848,16.848,0,0,1,2.864,7.835c.062.6.108,1.2.128,1.8a10.223,10.223,0,0,1-.994,5.4,4.759,4.759,0,0,0,.311,4.8c.991,1.83,1.856,3.727,2.807,5.58.8,1.56-.278,2.61-1.665,2.849s-1.445.292-1.4,1.74c.021.6.027,1.2.037,1.8a1.261,1.261,0,0,1-.938,1.464c-.435.172-.554.413-.33.808a1.913,1.913,0,0,1-.2,2.048c-.143.243-.309.474-.474.7a2.812,2.812,0,0,0-.5,2.307,10.468,10.468,0,0,1,.142,1.794c.037,1.618-.578,2.29-2.237,2.73a14.437,14.437,0,0,1-5.586.06,9.91,9.91,0,0,0-4.516.076,3.853,3.853,0,0,0-2.38,2.042c-1.235,2.581-2.519,5.139-3.747,7.723-.422.887-.738,1.823-1.133,2.816-.326-.5-.647-.985-.961-1.474a55.622,55.622,0,0,0-6.171-8,31.449,31.449,0,0,0-5.486-4.728,17.327,17.327,0,0,0-5.008-2.362c-.151-.042-.3-.094-.38-.121.154-1.136.394-2.23.433-3.33a13.163,13.163,0,0,0-1.883-7.242c-1.282-2.171-2.762-4.224-4.111-6.357a28.078,28.078,0,0,1-2.9-5.762,14.423,14.423,0,0,1-.307-8.1,22.834,22.834,0,0,1,3.964-8.422,27.346,27.346,0,0,1,5.7-5.872,20.328,20.328,0,0,1,8.495-3.662c1.854-.35,3.742-.525,5.614-.78.208-.028.415-.068.623-.1ZM465.618,36.886c.258-.225.447-.409.655-.568a6.363,6.363,0,0,1,4.059-1.589,2.245,2.245,0,0,1,2.249,2.8,12.13,12.13,0,0,1-.8,2.4,16.145,16.145,0,0,0-1.579,4.532,9.193,9.193,0,0,0,.57,4.157c1.636-.393,3.213-.777,4.793-1.147.332-.078.284-.266.239-.518a16.878,16.878,0,0,1-.271-1.884,7.992,7.992,0,0,1,1.09-3.88,32.956,32.956,0,0,0,1.592-3.8,6.026,6.026,0,0,0-.425-4.542,5.739,5.739,0,0,0-5.222-3.314,12.435,12.435,0,0,0-6.045,1.337,11.119,11.119,0,0,0-3.213,2.155Zm5.337,16.368a3.509,3.509,0,0,0,3.456,3.718,3.46,3.46,0,0,0,3.646-3.509,3.521,3.521,0,0,0-3.518-3.717A3.418,3.418,0,0,0,470.956,53.255ZM486.43,40.648a3.993,3.993,0,0,1,1.8-2.7,11.813,11.813,0,0,0,1.7-1.571,3.013,3.013,0,0,0-.22-4.1c-1.208-1.257-4.035-1.633-5.59-1.124a.347.347,0,0,0-.19.264c.034.681.092,1.36.146,2.078a2.644,2.644,0,0,1,.582-.119,8.485,8.485,0,0,1,1.921.16,1.138,1.138,0,0,1,.555,1.845,4.377,4.377,0,0,1-.571.621c-.613.582-1.279,1.115-1.841,1.741a3.585,3.585,0,0,0-.886,2.34Zm-28.878,5.086a4.537,4.537,0,0,1,.919-.693,1.539,1.539,0,0,1,1.032-.089c.409.158.407.626.336,1.023-.075.417-.206.823-.278,1.24a2.5,2.5,0,0,0,.432,2.012c.385-.175.729-.358,1.092-.487.34-.121.389-.267.295-.628a3.725,3.725,0,0,1-.05-1.291c.039-.381.213-.747.287-1.127a2.074,2.074,0,0,0-1.687-2.686,3.975,3.975,0,0,0-3.305,1.671Zm26.871-4.508a1.785,1.785,0,0,0-1.781,1.894,1.748,1.748,0,0,0,1.832,1.829,1.819,1.819,0,0,0,1.8-1.891A1.79,1.79,0,0,0,484.423,41.226Zm-24.157,9.258a1.2,1.2,0,0,0,1.123,1.231,1.217,1.217,0,0,0,1.214-1.091,1.254,1.254,0,0,0-1.164-1.255A1.168,1.168,0,0,0,460.266,50.483Z" transform="translate(-448.289 -20.738)" fill="#12263f"/>
            </g>
          </g>
        </g>
      </g>
      <g id="Grupo_77986" data-name="Grupo 77986" transform="translate(601 819)">
        <path id="Rectángulo_31967-4" data-name="Rectángulo 31967" d="M35,0H154a35,35,0,0,1,35,35V238a0,0,0,0,1,0,0H35A35,35,0,0,1,0,203V35A35,35,0,0,1,35,0Z" transform="translate(302 4253)" fill="#e6f7fe"/>
        <path id="Trazado_139494" data-name="Trazado 139494" d="M35.625,12.474h-1.67V17H30.871V4.2h5.036a5.621,5.621,0,0,1,3.56,1.01A3.421,3.421,0,0,1,40.75,8.066a4.155,4.155,0,0,1-.541,2.213A3.837,3.837,0,0,1,38.517,11.7l2.672,5.167V17h-3.3ZM33.956,10.1h1.951a1.751,1.751,0,0,0,1.323-.463,1.788,1.788,0,0,0,.444-1.291,1.809,1.809,0,0,0-.448-1.3,1.735,1.735,0,0,0-1.318-.471H33.956Zm13.122,7.075a4.889,4.889,0,0,1-3.542-1.305,4.507,4.507,0,0,1-1.354-3.4v-.246a5.84,5.84,0,0,1,.541-2.575A3.955,3.955,0,0,1,44.3,7.925a4.763,4.763,0,0,1,2.461-.611,4.117,4.117,0,0,1,3.164,1.244,4.887,4.887,0,0,1,1.16,3.467v1.151H45.2a2.135,2.135,0,0,0,.694,1.257,2.066,2.066,0,0,0,1.389.457,2.662,2.662,0,0,0,2.2-.984l1.354,1.6a3.784,3.784,0,0,1-1.569,1.217A5.3,5.3,0,0,1,47.078,17.176ZM46.744,9.6q-1.3,0-1.547,1.723h2.988v-.229a1.467,1.467,0,0,0-.36-1.1A1.434,1.434,0,0,0,46.744,9.6ZM56.3,14.891a1.317,1.317,0,0,0,.967-.338,1.241,1.241,0,0,0,.334-.945h2.777a3.288,3.288,0,0,1-1.121,2.566,4.168,4.168,0,0,1-2.887,1,4.22,4.22,0,0,1-3.27-1.3,5.125,5.125,0,0,1-1.2-3.6v-.123A5.792,5.792,0,0,1,52.435,9.6a3.872,3.872,0,0,1,1.534-1.7,4.573,4.573,0,0,1,2.373-.593,4.116,4.116,0,0,1,2.944,1.028,3.647,3.647,0,0,1,1.09,2.786H57.6A1.626,1.626,0,0,0,57.238,10a1.244,1.244,0,0,0-.967-.4q-1.151,0-1.345,1.468a10.357,10.357,0,0,0-.062,1.283,4.068,4.068,0,0,0,.343,1.986A1.187,1.187,0,0,0,56.3,14.891Zm11,1.081a3.054,3.054,0,0,1-2.54,1.2,3,3,0,0,1-2.369-.91,3.826,3.826,0,0,1-.8-2.615V7.49h2.962v6.179a1.065,1.065,0,0,0,1.187,1.222,1.548,1.548,0,0,0,1.45-.729V7.49h2.979V17H67.38Zm10.239-5.8-.976-.07a1.752,1.752,0,0,0-1.793.879V17H71.8V7.49h2.777l.1,1.222a2.294,2.294,0,0,1,2.083-1.4,2.888,2.888,0,0,1,.826.105Zm6.047,4.157a.684.684,0,0,0-.4-.606,6.016,6.016,0,0,0-1.5-.475,6.853,6.853,0,0,1-1.828-.646,3.062,3.062,0,0,1-1.1-.971,2.319,2.319,0,0,1-.378-1.31,2.628,2.628,0,0,1,1.081-2.158,4.453,4.453,0,0,1,2.83-.848,4.934,4.934,0,0,1,3.023.853,2.666,2.666,0,0,1,1.143,2.241H83.482q0-1.143-1.2-1.143a1.194,1.194,0,0,0-.782.259.8.8,0,0,0-.316.646.737.737,0,0,0,.387.642,3.654,3.654,0,0,0,1.235.4,10.671,10.671,0,0,1,1.49.378,2.706,2.706,0,0,1,2.145,2.646,2.491,2.491,0,0,1-1.156,2.118,5.068,5.068,0,0,1-2.993.817,5.172,5.172,0,0,1-2.18-.439,3.645,3.645,0,0,1-1.494-1.2,2.707,2.707,0,0,1-.536-1.591h2.769a1.145,1.145,0,0,0,.439.962,1.808,1.808,0,0,0,1.081.3,1.422,1.422,0,0,0,.91-.246A.787.787,0,0,0,83.579,14.328Zm3.867-2.171A5.613,5.613,0,0,1,88,9.622,3.96,3.96,0,0,1,89.59,7.912a4.791,4.791,0,0,1,2.435-.6,4.373,4.373,0,0,1,3.366,1.323,5.076,5.076,0,0,1,1.23,3.6v.105a4.925,4.925,0,0,1-1.235,3.529,4.384,4.384,0,0,1-3.344,1.305,4.434,4.434,0,0,1-3.261-1.217,4.761,4.761,0,0,1-1.327-3.3Zm2.962.185a3.538,3.538,0,0,0,.413,1.934,1.376,1.376,0,0,0,1.222.615q1.582,0,1.617-2.435v-.3q0-2.558-1.635-2.558-1.485,0-1.608,2.206ZM21.7,37.175a5.809,5.809,0,0,1,.976-3.56,3.211,3.211,0,0,1,2.725-1.3,2.731,2.731,0,0,1,2.145,1V28.5h2.971V42H27.852L27.7,40.98a2.8,2.8,0,0,1-2.32,1.2,3.205,3.205,0,0,1-2.689-1.3A5.993,5.993,0,0,1,21.7,37.175Zm2.962.185q0,2.531,1.477,2.531a1.458,1.458,0,0,0,1.406-.826V35.443a1.419,1.419,0,0,0-1.389-.844q-1.371,0-1.485,2.215ZM35.322,42H32.352V32.49h2.971ZM32.176,30.029a1.334,1.334,0,0,1,.457-1.043,1.934,1.934,0,0,1,2.373,0,1.42,1.42,0,0,1,0,2.087,1.934,1.934,0,0,1-2.373,0A1.334,1.334,0,0,1,32.176,30.029Zm9.949,9.3a.684.684,0,0,0-.4-.606,6.016,6.016,0,0,0-1.5-.475A6.853,6.853,0,0,1,38.4,37.6a3.062,3.062,0,0,1-1.1-.971,2.319,2.319,0,0,1-.378-1.31A2.628,2.628,0,0,1,38,33.163a4.453,4.453,0,0,1,2.83-.848,4.934,4.934,0,0,1,3.023.853A2.666,2.666,0,0,1,45,35.408H42.028q0-1.143-1.2-1.143a1.194,1.194,0,0,0-.782.259.8.8,0,0,0-.316.646.737.737,0,0,0,.387.642,3.654,3.654,0,0,0,1.235.4,10.671,10.671,0,0,1,1.49.378,2.706,2.706,0,0,1,2.145,2.646,2.491,2.491,0,0,1-1.156,2.118,5.068,5.068,0,0,1-2.993.817,5.172,5.172,0,0,1-2.18-.439,3.645,3.645,0,0,1-1.494-1.2,2.707,2.707,0,0,1-.536-1.591h2.769a1.145,1.145,0,0,0,.439.962,1.808,1.808,0,0,0,1.081.3,1.422,1.422,0,0,0,.91-.246A.787.787,0,0,0,42.125,39.328Zm13.069-2.013a5.735,5.735,0,0,1-1,3.538A3.2,3.2,0,0,1,51.5,42.176a2.742,2.742,0,0,1-2.153-.958v4.438H46.388V32.49h2.769l.088.879a2.742,2.742,0,0,1,2.241-1.055,3.224,3.224,0,0,1,2.733,1.3,5.805,5.805,0,0,1,.976,3.564Zm-2.962-.185q0-2.531-1.477-2.531a1.394,1.394,0,0,0-1.406.756V39.1a1.439,1.439,0,0,0,1.424.791q1.415,0,1.459-2.443Zm3.894.026a5.613,5.613,0,0,1,.554-2.536,3.96,3.96,0,0,1,1.591-1.709,4.791,4.791,0,0,1,2.435-.6,4.373,4.373,0,0,1,3.366,1.323,5.076,5.076,0,0,1,1.23,3.6v.105a4.925,4.925,0,0,1-1.235,3.529,4.384,4.384,0,0,1-3.344,1.305,4.434,4.434,0,0,1-3.261-1.217,4.761,4.761,0,0,1-1.327-3.3Zm2.962.185a3.538,3.538,0,0,0,.413,1.934,1.376,1.376,0,0,0,1.222.615q1.582,0,1.617-2.435v-.3q0-2.558-1.635-2.558-1.485,0-1.608,2.206ZM69.327,32.49l.1,1.116a3.225,3.225,0,0,1,2.716-1.292,2.713,2.713,0,0,1,2.219.888,4.226,4.226,0,0,1,.76,2.672V42H72.148V36a1.6,1.6,0,0,0-.29-1.059A1.342,1.342,0,0,0,70.8,34.6a1.413,1.413,0,0,0-1.292.686V42H66.55V32.49ZM79.883,42H76.912V32.49h2.971ZM76.736,30.029a1.334,1.334,0,0,1,.457-1.043,1.934,1.934,0,0,1,2.373,0,1.42,1.42,0,0,1,0,2.087,1.934,1.934,0,0,1-2.373,0A1.334,1.334,0,0,1,76.736,30.029Zm13.8,7.295a5.8,5.8,0,0,1-.967,3.595,3.238,3.238,0,0,1-2.725,1.257,2.81,2.81,0,0,1-2.338-1.151L84.383,42H81.729V28.5H84.69v4.755a2.711,2.711,0,0,1,2.136-.94,3.239,3.239,0,0,1,2.742,1.274,5.826,5.826,0,0,1,.967,3.586Zm-2.971-.189a3.866,3.866,0,0,0-.365-1.952,1.229,1.229,0,0,0-1.121-.584,1.418,1.418,0,0,0-1.389.763v3.773a1.426,1.426,0,0,0,1.406.755,1.258,1.258,0,0,0,1.327-1.018A7.309,7.309,0,0,0,87.564,37.135ZM94.965,42H91.994V28.5h2.971Zm6.425.176a4.889,4.889,0,0,1-3.542-1.305,4.507,4.507,0,0,1-1.354-3.4v-.246a5.84,5.84,0,0,1,.541-2.575,3.955,3.955,0,0,1,1.578-1.727,4.763,4.763,0,0,1,2.461-.611,4.117,4.117,0,0,1,3.164,1.244,4.887,4.887,0,0,1,1.16,3.467v1.151H99.509a2.135,2.135,0,0,0,.694,1.257,2.066,2.066,0,0,0,1.389.457,2.662,2.662,0,0,0,2.2-.984l1.354,1.6a3.784,3.784,0,0,1-1.569,1.217A5.3,5.3,0,0,1,101.39,42.176Zm-.334-7.576q-1.3,0-1.547,1.723H102.5v-.229a1.467,1.467,0,0,0-.36-1.1A1.434,1.434,0,0,0,101.056,34.6Z" transform="translate(333 4406)" fill="#12263f"/>
        <g id="Grupo_77973-4" data-name="Grupo 77973" transform="translate(333 4270.309)">
          <g id="Grupo_18531-4" data-name="Grupo 18531" transform="translate(0 0)">
            <g id="Grupo_18423-4" data-name="Grupo 18423" transform="translate(0 0)">
              <g id="Grupo_18421-4" data-name="Grupo 18421">
                <g id="Grupo_18420-4" data-name="Grupo 18420">
                  <g id="Grupo_18419-4" data-name="Grupo 18419">
                    <path id="Trazado_40936-4" data-name="Trazado 40936" d="M312.314,2204.565a58.846,58.846,0,1,1-58.845-58.844A58.845,58.845,0,0,1,312.314,2204.565Z" transform="translate(-194.623 -2145.721)" fill="#fff"/>
                  </g>
                </g>
              </g>
              <path id="Trazado_40937-4" data-name="Trazado 40937" d="M311.665,2203.857A58.844,58.844,0,1,0,252.82,2262.7,58.613,58.613,0,0,0,311.665,2203.857Z" transform="translate(-193.974 -2145.013)" fill="url(#radial-gradient)"/>
              <path id="Trazado_40938-4" data-name="Trazado 40938" d="M291.975,2198.12a44.917,44.917,0,1,0-44.917,44.917A44.75,44.75,0,0,0,291.975,2198.12Z" transform="translate(-188.034 -2139.08)" fill="none" stroke="#00223d" stroke-miterlimit="10" stroke-width="4"/>
              <g id="Grupo_18422-4" data-name="Grupo 18422" transform="translate(10.425 33.038)">
                <path id="Trazado_40939-4" data-name="Trazado 40939" d="M301.861,2164.488a58.853,58.853,0,0,1-101.316,58.6,58.666,58.666,0,0,0,101.316-58.6Z" transform="translate(-200.545 -2164.488)" fill="#eceef0"/>
              </g>
            </g>
          </g>
          <g id="BRcLaV" transform="translate(-1472.044 314.66)">
            <g id="Grupo_87230" data-name="Grupo 87230" transform="translate(1502.427 -280.66)">
              <path id="Trazado_138746" data-name="Trazado 138746" d="M1474.3-19.266c0-2.464,0-4.929,0-7.393a1.363,1.363,0,0,1,.833-1.439c2.907-1.2,5.789-2.476,8.729-3.6a14.257,14.257,0,0,1,9.4-.274,45.755,45.755,0,0,1,4.417,1.819c2.882,1.217,5.772,2.419,8.64,3.669a7.476,7.476,0,0,1,3.153,2.45,4.136,4.136,0,0,1,.708,3.073,2.42,2.42,0,0,1-3.1,1.908c-1.92-.452-3.822-1-5.7-1.6-1.846-.587-3.655-1.292-5.481-1.941a1.24,1.24,0,0,0-1.626.566A1.208,1.208,0,0,0,1495-20.3c2.86,1,5.722,2,8.6,2.943a12.418,12.418,0,0,0,4.511.809,4.68,4.68,0,0,0,4.529-4.45,11.692,11.692,0,0,0-.219-2.4c-.058-.356-.032-.54.291-.737q6.471-3.948,12.927-7.92a3.615,3.615,0,0,1,4.8.877,3.769,3.769,0,0,1-.363,4.985,22.824,22.824,0,0,1-3.85,2.9q-9.3,6.38-18.63,12.7a7.6,7.6,0,0,1-7.561.81q-5.75-2.37-11.493-4.759a7.882,7.882,0,0,0-8.17.957c-1.256.92-2.5,1.853-3.759,2.774a3.207,3.207,0,0,1-.636.388,1.157,1.157,0,0,1-1.608-.83,4.336,4.336,0,0,1-.073-.917Q1474.3-15.714,1474.3-19.266Z" transform="translate(-1474.298 64.815)" fill="#12263f"/>
              <path id="Trazado_138747" data-name="Trazado 138747" d="M1763.785-283.965c0-.894,0-1.658,0-2.421q0-11.318.017-22.636a1.218,1.218,0,0,1,.337-.789,5.011,5.011,0,0,1,3.627-1.368q5.89,0,11.78.007c1.118,0,1.577.47,1.578,1.585q0,10.827,0,21.654c0,1.054-.489,1.54-1.562,1.542-2.926,0-5.854.079-8.776-.022a10.324,10.324,0,0,0-6.645,2.192C1764.066-284.165,1763.989-284.112,1763.785-283.965Z" transform="translate(-1730.339 311.179)" fill="#12263f"/>
              <path id="Trazado_138748" data-name="Trazado 138748" d="M1609.547-284.07c-.891-.516-1.73-1.048-2.611-1.5a7.677,7.677,0,0,0-3.615-.82c-3.137.024-6.274.009-9.411.008-1.232,0-1.67-.426-1.67-1.659q-.006-10.8,0-21.592c0-1.054.459-1.537,1.5-1.539q5.976-.011,11.951,0a5.076,5.076,0,0,1,3.352,1.187,1.328,1.328,0,0,1,.538,1.125q-.024,10.305-.012,20.611c0,1.213,0,2.425,0,3.637C1609.572-284.423,1609.555-284.24,1609.547-284.07Z" transform="translate(-1578.612 311.175)" fill="#12263f"/>
            </g>
          </g>
        </g>
      </g>
      <g id="Grupo_77988" data-name="Grupo 77988" transform="translate(804 819)">
        <path id="Rectángulo_31967-5" data-name="Rectángulo 31967" d="M35,0H154a35,35,0,0,1,35,35V238a0,0,0,0,1,0,0H35A35,35,0,0,1,0,203V35A35,35,0,0,1,35,0Z" transform="translate(302 4253)" fill="#e6f7fe"/>
        <path id="Trazado_139495" data-name="Trazado 139495" d="M40.741,11.568H35.889v3.059h5.73V17H32.8V4.2h8.833V6.585H35.889v2.7h4.852ZM45.46,7.49l.1,1.116a3.225,3.225,0,0,1,2.716-1.292,2.713,2.713,0,0,1,2.219.888,4.226,4.226,0,0,1,.76,2.672V17H48.282V11a1.6,1.6,0,0,0-.29-1.059A1.342,1.342,0,0,0,46.937,9.6a1.413,1.413,0,0,0-1.292.686V17H42.683V7.49ZM56.341,5.126V7.49h1.564V9.547H56.341V13.9a1.111,1.111,0,0,0,.193.747,1.037,1.037,0,0,0,.765.211,4.345,4.345,0,0,0,.738-.053v2.118a5.466,5.466,0,0,1-1.67.255,3.1,3.1,0,0,1-2.259-.721,2.954,2.954,0,0,1-.729-2.188V9.547H52.167V7.49h1.213V5.126Zm2.092,7.031a5.613,5.613,0,0,1,.554-2.536,3.96,3.96,0,0,1,1.591-1.709,4.791,4.791,0,0,1,2.435-.6,4.373,4.373,0,0,1,3.366,1.323,5.076,5.076,0,0,1,1.23,3.6v.105a4.925,4.925,0,0,1-1.235,3.529,4.384,4.384,0,0,1-3.344,1.305,4.434,4.434,0,0,1-3.261-1.217,4.761,4.761,0,0,1-1.327-3.3Zm2.962.185a3.538,3.538,0,0,0,.413,1.934,1.376,1.376,0,0,0,1.222.615q1.582,0,1.617-2.435v-.3q0-2.558-1.635-2.558-1.485,0-1.608,2.206Zm13.271-2.171-.976-.07a1.752,1.752,0,0,0-1.793.879V17H68.936V7.49h2.777l.1,1.222a2.294,2.294,0,0,1,2.083-1.4,2.888,2.888,0,0,1,.826.105ZM78.455,7.49l.1,1.116a3.225,3.225,0,0,1,2.716-1.292,2.713,2.713,0,0,1,2.219.888,4.226,4.226,0,0,1,.76,2.672V17H81.276V11a1.6,1.6,0,0,0-.29-1.059A1.342,1.342,0,0,0,79.931,9.6a1.413,1.413,0,0,0-1.292.686V17H75.677V7.49Zm7.058,4.667a5.613,5.613,0,0,1,.554-2.536,3.96,3.96,0,0,1,1.591-1.709,4.791,4.791,0,0,1,2.435-.6,4.373,4.373,0,0,1,3.366,1.323,5.076,5.076,0,0,1,1.23,3.6v.105a4.925,4.925,0,0,1-1.235,3.529,4.384,4.384,0,0,1-3.344,1.305,4.434,4.434,0,0,1-3.261-1.217,4.761,4.761,0,0,1-1.327-3.3Zm2.962.185a3.538,3.538,0,0,0,.413,1.934,1.376,1.376,0,0,0,1.222.615q1.582,0,1.617-2.435v-.3q0-2.558-1.635-2.558-1.485,0-1.608,2.206Z" transform="translate(333 4406)" fill="#12263f"/>
        <g id="Grupo_77973-5" data-name="Grupo 77973" transform="translate(333 4270.309)">
          <g id="Grupo_18531-5" data-name="Grupo 18531" transform="translate(0 0)">
            <g id="Grupo_18423-5" data-name="Grupo 18423" transform="translate(0 0)">
              <g id="Grupo_18421-5" data-name="Grupo 18421">
                <g id="Grupo_18420-5" data-name="Grupo 18420">
                  <g id="Grupo_18419-5" data-name="Grupo 18419">
                    <path id="Trazado_40936-5" data-name="Trazado 40936" d="M312.314,2204.565a58.846,58.846,0,1,1-58.845-58.844A58.845,58.845,0,0,1,312.314,2204.565Z" transform="translate(-194.623 -2145.721)" fill="#fff"/>
                  </g>
                </g>
              </g>
              <path id="Trazado_40937-5" data-name="Trazado 40937" d="M311.665,2203.857A58.844,58.844,0,1,0,252.82,2262.7,58.613,58.613,0,0,0,311.665,2203.857Z" transform="translate(-193.974 -2145.013)" fill="url(#radial-gradient)"/>
              <path id="Trazado_40938-5" data-name="Trazado 40938" d="M291.975,2198.12a44.917,44.917,0,1,0-44.917,44.917A44.75,44.75,0,0,0,291.975,2198.12Z" transform="translate(-188.034 -2139.08)" fill="none" stroke="#00223d" stroke-miterlimit="10" stroke-width="4"/>
              <g id="Grupo_18422-5" data-name="Grupo 18422" transform="translate(10.425 33.038)">
                <path id="Trazado_40939-5" data-name="Trazado 40939" d="M301.861,2164.488a58.853,58.853,0,0,1-101.316,58.6,58.666,58.666,0,0,0,101.316-58.6Z" transform="translate(-200.545 -2164.488)" fill="#eceef0"/>
              </g>
            </g>
          </g>
        </g>
      </g>
    </g>
    <g id="G1f1qg.tif" transform="translate(-258.909 5119.792)">
      <g id="Grupo_87229" data-name="Grupo 87229" transform="translate(1014.717 6.391)">
        <path id="Trazado_138743" data-name="Trazado 138743" d="M1133.7,77.383a16.647,16.647,0,0,1-.406,2.054c-.592,1.794-2.036,2.764-4.226,2.782a1.063,1.063,0,0,0-1.193.861,4.371,4.371,0,0,1-3.009,3.1,4.739,4.739,0,0,1-3.035-.373c-.427-.178-.828-.417-1.31-.664a4.97,4.97,0,0,1-3.664,2.8c-1.7.2-3.06-.672-4.464-1.622-.849,1.317-1.9,2.151-3.494,1.353a3.187,3.187,0,0,1-1.944-3.643,2.919,2.919,0,0,1-4.062,1.072c-1.638-.781-2.249-2.052-2.08-4.257a3.331,3.331,0,0,1-4.343-.256,3.4,3.4,0,0,1-1.228-4.089,3.714,3.714,0,0,1-5.942-2.279,3.264,3.264,0,0,1,.737-2.722c.67-.793,1.331-1.595,2.02-2.422-.777-.946-1.517-1.88-2.3-2.781a.812.812,0,0,1-.115-1.106c.362-.6.645-1.249.987-1.927l3.178,3.727c2.057-.853,3.468-.667,4.714.6,1.164,1.183,1.323,2.594.481,4.477a3.817,3.817,0,0,1,5.258,4.588,3.283,3.283,0,0,1,4.246.445,3.249,3.249,0,0,1,1.089,3.745,3,3,0,0,1,3.8.923,2.431,2.431,0,0,1,.494,2.811c1.223,1.049,2.555,1.257,3.56.531a2.639,2.639,0,0,0,.622-.673.687.687,0,0,0-.221-1.064c-1.838-1.346-3.658-2.716-5.476-4.089-.751-.568-.873-1.129-.419-1.731s.991-.632,1.785-.075q4.266,2.988,8.525,5.986a2.009,2.009,0,0,0,3.27-1.076,1.716,1.716,0,0,0-.728-2.081q-3.217-2.344-6.446-4.671-1.5-1.09-3.007-2.183a1.2,1.2,0,0,1-.432-1.766,1.335,1.335,0,0,1,1.841-.181c2.2,1.557,4.4,3.127,6.6,4.691,1.514,1.077,3.022,2.163,4.545,3.228a2.112,2.112,0,0,0,2.531-.047,2.032,2.032,0,0,0,.535-2.4,2.973,2.973,0,0,0-.9-.94q-4.814-3.475-9.653-6.915l-2.213-1.582c-.09-.064-.181-.128-.265-.2a1.356,1.356,0,0,1-.406-1.87,1.377,1.377,0,0,1,1.87-.112c1.112.764,2.2,1.563,3.3,2.347,3.186,2.275,6.366,4.557,9.561,6.82a2.582,2.582,0,0,0,3.657-.831,2.269,2.269,0,0,0-.538-3.117q-8.142-7.077-16.276-14.163c-.766-.668-1.49-1.386-2.207-2.106a4.117,4.117,0,0,0-6.3.764,9.478,9.478,0,0,0-.478,1.765c-.843,2.576-2.364,4.577-5.076,5.3a9.559,9.559,0,0,1-3.132.079A2.162,2.162,0,0,1,1100.2,60.9a1.688,1.688,0,0,1-.081-1.319,14.018,14.018,0,0,0,1.337-6.094,5.425,5.425,0,0,1,.764-2.564c.342-.583.662-1.179,1.053-1.88h-5.486c.526-1.044.968-1.978,1.476-2.873.087-.154.46-.2.7-.2,2.591-.012,5.182,0,7.772-.012a1.921,1.921,0,0,0,.882-.19,15.758,15.758,0,0,1,12.28-1.226,33.007,33.007,0,0,0,8.178,1.621.892.892,0,0,1,.6.471c1.31,2.68,2.592,5.374,3.882,8.064,1.615,3.37,3.223,6.743,4.853,10.106a1.245,1.245,0,0,1,.014,1.239c-.367.705-.646,1.455-1,2.165a.828.828,0,0,0,.126,1.006,4.988,4.988,0,0,1-.023,6.573,4.5,4.5,0,0,1-3.019,1.468C1134.222,77.294,1133.944,77.342,1133.7,77.383Z" transform="translate(-1079.332 -38.849)" fill="#12263f"/>
        <path id="Trazado_138744" data-name="Trazado 138744" d="M1408.71,6.87a1.506,1.506,0,0,1,1.6.913q2.159,4.552,4.326,9.1,2.81,5.895,5.627,11.786c.59,1.233.372,1.9-.874,2.508-1.271.621-2.545,1.236-3.827,1.835a1.565,1.565,0,0,1-2.431-.85q-4.984-10.439-9.953-20.885a1.468,1.468,0,0,1,.775-2.233c1.332-.648,2.664-1.3,4-1.927A5,5,0,0,1,1408.71,6.87Z" transform="translate(-1351.266 -6.805)" fill="#12263f"/>
        <path id="Trazado_138745" data-name="Trazado 138745" d="M1026.408,6.391a9.266,9.266,0,0,1,.991.34q1.981.931,3.945,1.9a1.5,1.5,0,0,1,.795,2.233q-3.889,8.172-7.79,16.338c-.742,1.555-1.478,3.114-2.227,4.665A1.458,1.458,0,0,1,1020,32.7q-2.241-1-4.428-2.113a1.437,1.437,0,0,1-.65-2.08q5.021-10.533,10.041-21.067A1.61,1.61,0,0,1,1026.408,6.391Z" transform="translate(-1014.717 -6.391)" fill="#12263f"/>
      </g>
    </g>
    <g id="yFR3A3" transform="translate(-882.772 5463.571)">
      <g id="Grupo_87231" data-name="Grupo 87231" transform="translate(2051.621 -346.803)">
        <path id="Trazado_138749" data-name="Trazado 138749" d="M2116.044-303.74a21.585,21.585,0,0,1-21.49-21.678,21.555,21.555,0,0,1,21.64-21.384,21.558,21.558,0,0,1,21.459,21.693A21.6,21.6,0,0,1,2116.044-303.74Zm-7.714-17.551a41.711,41.711,0,0,1,15.467-.021,1.577,1.577,0,0,0,.123-.305,32.652,32.652,0,0,0,.026-7.229c-.037-.363-.22-.4-.521-.357-1.31.183-2.618.392-3.933.521a37.8,37.8,0,0,1-9.835-.36c-.43-.07-.863-.128-1.346-.2A31.9,31.9,0,0,0,2108.331-321.29Zm14.855-11.571c-.151-.514-.26-.947-.405-1.367a14.724,14.724,0,0,0-3.6-6.128c-1.93-1.826-4.057-1.931-5.982-.1a15.6,15.6,0,0,0-2.412,3.128,14.886,14.886,0,0,0-1.741,4.473A36.349,36.349,0,0,0,2123.186-332.861Zm-14.23,15.175c.432,1.166.778,2.263,1.241,3.309a11.208,11.208,0,0,0,3.465,4.693,3.642,3.642,0,0,0,4.787.031,12.079,12.079,0,0,0,2.266-2.41,16.562,16.562,0,0,0,2.462-5.634A36.691,36.691,0,0,0,2108.956-317.686Zm-9.458-14.286a17.869,17.869,0,0,0,.007,13.38c1.605-.567,3.123-1.135,4.664-1.629.483-.155.569-.385.522-.826a25.319,25.319,0,0,1-.233-2.938c.024-1.857.145-3.714.226-5.57.013-.289.109-.559-.322-.7C2102.764-330.794,2101.181-331.375,2099.5-331.973Zm33.208,13.38a17.839,17.839,0,0,0,0-13.379c-1.572.559-3.064,1.132-4.586,1.608-.577.18-.625.46-.589.97.112,1.6.227,3.2.233,4.8,0,1.215-.152,2.43-.244,3.644-.024.314-.032.533.375.666C2129.47-319.763,2131.031-319.185,2132.706-318.592Zm-27.264,1.716-4.205,1.558a17.435,17.435,0,0,0,7.941,6.469A23.2,23.2,0,0,1,2105.442-316.876Zm0-16.809a23.646,23.646,0,0,1,3.719-8.014,17.352,17.352,0,0,0-7.914,6.473Zm17.6,24.834a17.343,17.343,0,0,0,7.929-6.478l-4.2-1.543A23.105,23.105,0,0,1,2123.036-308.85Zm.014-32.836a23.79,23.79,0,0,1,3.729,8l4.193-1.551A17.427,17.427,0,0,0,2123.05-341.687Z" transform="translate(-2089.041 346.803)" fill="#12263f"/>
        <path id="Trazado_138750" data-name="Trazado 138750" d="M2066.586-48.4c-1.212-1.172-2.438-2.331-3.628-3.525a2.773,2.773,0,0,1-.675-1.058,1.885,1.885,0,0,1,.83-2.171,1.958,1.958,0,0,1,2.374.24c1.512,1.325,3.008,2.668,4.512,4,.688.61,1.35,1.254,2.075,1.817a5.551,5.551,0,0,1,2.105,3.678c.308,1.874.717,3.731,1.1,5.592a3.955,3.955,0,0,1-2.421,4.576,3.924,3.924,0,0,1-4.83-1.7.972.972,0,0,1-.1-.164,7.817,7.817,0,0,0-3.333-3.734c-2.843-1.939-5.607-3.993-8.419-5.977a3.806,3.806,0,0,1-1.595-2.238c-.948-3.7-1.92-7.4-2.873-11.1a1.9,1.9,0,0,1,1.237-2.461,1.937,1.937,0,0,1,2.462,1.169c1.394,3.1,2.767,6.2,4.176,9.292a1.746,1.746,0,0,0,.713.749c1.82.99,3.661,1.942,5.5,2.9.2.106.413.2.62.294Z" transform="translate(-2051.621 99.208)" fill="#12263f"/>
        <path id="Trazado_138751" data-name="Trazado 138751" d="M2297.159-48.165c1.833-.955,3.651-1.938,5.505-2.85a3.226,3.226,0,0,0,1.639-1.746c1.246-2.9,2.556-5.781,3.854-8.663a1.943,1.943,0,0,1,2.033-1.256,1.863,1.863,0,0,1,1.669,1.377,2.252,2.252,0,0,1,.018,1.067c-.959,3.764-1.947,7.521-2.92,11.282a3.668,3.668,0,0,1-1.533,2.132q-5.078,3.595-10.122,7.237a3.6,3.6,0,0,0-.859.993c-.332.52-.577,1.1-.89,1.63a3.914,3.914,0,0,1-4.8,1.775,3.922,3.922,0,0,1-2.487-4.481c.425-2.222.84-4.45,1.378-6.646a4.274,4.274,0,0,1,1.126-2.019c2.406-2.247,4.888-4.414,7.365-6.584a1.916,1.916,0,0,1,2.714.136,1.963,1.963,0,0,1-.067,2.725c-1.041,1.076-2.113,2.122-3.169,3.183-.193.194-.378.4-.566.6Z" transform="translate(-2257.812 99.169)" fill="#12263f"/>
      </g>
    </g>
  </g>
</svg>
