<svg xmlns="http://www.w3.org/2000/svg" xmlns:xlink="http://www.w3.org/1999/xlink" width="183.348" height="183.348" viewBox="0 0 183.348 183.348">
  <defs>
    <radialGradient id="radial-gradient" cx="0.076" cy="0.019" r="1.465" gradientTransform="translate(0.001)" gradientUnits="objectBoundingBox">
      <stop offset="0" stop-color="#f6f6f7"/>
      <stop offset="0.477" stop-color="#f9f9fa"/>
      <stop offset="0.715" stop-color="#fff"/>
    </radialGradient>
  </defs>
  <g id="Grupo_49869" data-name="Grupo 49869" transform="translate(0 0.001)">
    <g id="Grupo_18531" data-name="Grupo 18531" transform="translate(0 0)">
      <g id="Grupo_18423" data-name="Grupo 18423" transform="translate(0 0)">
        <g id="Grupo_18421" data-name="Grupo 18421">
          <g id="Grupo_18420" data-name="Grupo 18420">
            <g id="Grupo_18419" data-name="Grupo 18419">
              <path id="Trazado_40936" data-name="Trazado 40936" d="M377.97,2237.392a91.673,91.673,0,1,1-91.672-91.671A91.672,91.672,0,0,1,377.97,2237.392Z" transform="translate(-194.623 -2145.721)" fill="#fff"/>
            </g>
          </g>
        </g>
        <path id="Trazado_40937" data-name="Trazado 40937" d="M376.482,2235.77a91.671,91.671,0,1,0-91.672,91.676A91.311,91.311,0,0,0,376.482,2235.77Z" transform="translate(-193.135 -2144.099)" fill="url(#radial-gradient)"/>
        <path id="Trazado_40938" data-name="Trazado 40938" d="M341.45,2222.48a69.974,69.974,0,1,0-69.974,69.974A69.714,69.714,0,0,0,341.45,2222.48Z" transform="translate(-179.525 -2130.503)" fill="none" stroke="#00223d" stroke-miterlimit="10" stroke-width="4"/>
        <g id="Grupo_18422" data-name="Grupo 18422" transform="translate(16.241 51.468)">
          <path id="Trazado_40939" data-name="Trazado 40939" d="M358.381,2164.488a91.684,91.684,0,0,1-157.836,91.294,91.393,91.393,0,0,0,157.836-91.294Z" transform="translate(-200.545 -2164.488)" fill="#eceef0"/>
        </g>
      </g>
    </g>
    <g id="NFukag" transform="translate(-134.397 -669.031)">
      <g id="Grupo_87659" data-name="Grupo 87659" transform="translate(192.953 728.441)">
        <path id="Trazado_139479" data-name="Trazado 139479" d="M221.715,728.441h2.093c.33.048.659.105.99.143a16.5,16.5,0,0,1,13.729,11.662,17.763,17.763,0,0,1-.3,10.566,21.7,21.7,0,0,1-7.5,10.861c-.18.138-.363.273-.564.423a.687.687,0,0,0,.13.081,34.259,34.259,0,0,1,5.768,2.135.519.519,0,0,0,.413-.059c1.015-.619,2.019-1.253,3.028-1.882.743-.464,1.488-.925,2.222-1.381.047.034.075.044.088.064q.578.918,1.154,1.837c.5.8.5.8,1.417.662a.357.357,0,0,0,.358-.324c.092-.482.211-.958.323-1.436s.224-.943.336-1.409a.964.964,0,0,1,.163,0q4.227.973,8.454,1.944c.251.057.262.178.209.389-.171.689-.278,1.4-.5,2.067a.892.892,0,0,0,.455,1.221.6.6,0,0,0,.773.009c.759-.5,1.543-.971,2.341-1.468l4.824,7.723c-.857.536-1.668,1.04-2.474,1.553-.1.063-.238.181-.232.265a6.891,6.891,0,0,0,.164.991c.014.062.125.129.2.146.981.225,1.963.442,2.945.661v.233a2.2,2.2,0,0,0-.123.313q-.72,3.113-1.434,6.227c-.161.7-.328,1.4-.5,2.115-.1-.016-.164-.021-.224-.035-.867-.2-1.735-.4-2.6-.615-.231-.057-.4-.034-.507.2a.911.911,0,0,1-.2.286c-.336.3-.273.578-.034.929.491.723.932,1.481,1.413,2.255l-7.714,4.824c-.528-.844-1.024-1.644-1.529-2.44-.065-.1-.176-.259-.254-.252a3.273,3.273,0,0,0-1.056.193c-.139.062-.167.4-.221.622-.133.539-.253,1.081-.378,1.622-.066.283-.132.567-.2.863-.124-.022-.2-.032-.273-.05q-3.414-.791-6.828-1.582a6.51,6.51,0,0,0-2.434-.271,110.466,110.466,0,0,1-14.49.911,2.833,2.833,0,0,1-.286-.026l-.112-.147a2.234,2.234,0,0,0,.427-.268q3.827-3.818,7.648-7.642a.469.469,0,0,0,.12-.606c-.678-1.606-1.336-3.22-2-4.831q-2.368-5.727-4.743-11.451a.459.459,0,0,1,.1-.576c.45-.481.874-.985,1.308-1.481q.568-.65,1.135-1.3a12.37,12.37,0,0,1-7.961-.042.738.738,0,0,0,.148.26c.694.8,1.369,1.619,2.1,2.388a.792.792,0,0,1,.154,1.006c-2.222,5.326-4.42,10.663-6.636,15.991a.534.534,0,0,0,.146.695q3.891,3.864,7.76,7.749c.067.067.12.148.232.287-.291,0-.506,0-.721,0-1.7-.044-3.41-.069-5.113-.14a89.209,89.209,0,0,1-13.5-1.481,29.489,29.489,0,0,1-7.029-2.112c-1.453-.688-2.815-1.495-3.362-3.157v-1.4c.063-.38.123-.761.19-1.141a18.4,18.4,0,0,1,3.06-7.222,33.065,33.065,0,0,1,18.608-13.308c.164-.048.33-.088.527-.14a1.217,1.217,0,0,0-.122-.133,21.245,21.245,0,0,1-7.567-10.068,17.359,17.359,0,0,1-.65-11.726,16.1,16.1,0,0,1,12.811-11.486C220.436,728.593,221.079,728.534,221.715,728.441Zm12.048,43.336c-.3,1.313-.6,2.568-.871,3.827-.016.072.123.239.215.263.625.159,1.255.3,1.888.428.287.056.4.165.395.48a10.446,10.446,0,0,0,.537,3.388c.178.552.179.552-.3.857l-1.736,1.092,2.192,3.5c.672-.419,1.313-.8,1.937-1.215a.357.357,0,0,1,.553.062,10.509,10.509,0,0,0,2.8,2.057c.5.261.5.258.37.827-.147.65-.293,1.3-.445,1.978l4.021.938c.178-.761.363-1.472.5-2.191.06-.306.185-.393.487-.387a9.541,9.541,0,0,0,3.531-.6c.321-.12.448-.04.6.224.371.63.772,1.242,1.176,1.886l3.5-2.193c-.426-.682-.82-1.331-1.235-1.968a.32.32,0,0,1,.058-.488,10.359,10.359,0,0,0,1.986-2.658c.354-.667.356-.667,1.116-.5l1.779.4.939-4.027c-.77-.182-1.492-.366-2.222-.517-.27-.056-.349-.163-.347-.437a9.979,9.979,0,0,0-.6-3.572c-.106-.287-.07-.425.2-.581.644-.374,1.266-.785,1.916-1.193l-2.193-3.5c-.661.41-1.3.789-1.924,1.2-.25.167-.388.122-.582-.078a9.937,9.937,0,0,0-2.875-2.075c-.313-.149-.406-.293-.309-.644.193-.691.325-1.4.489-2.128l-4.024-.916c-.179.767-.36,1.491-.513,2.222-.055.266-.164.351-.438.345a9.893,9.893,0,0,0-3.569.6.418.418,0,0,1-.611-.222c-.369-.632-.772-1.244-1.175-1.885l-3.5,2.191,1.38,2.224c-.085.1-.141.165-.2.228a10.351,10.351,0,0,0-2.158,3.005c-.136.289-.289.321-.57.248C235.226,772.1,234.52,771.952,233.763,771.777Z" transform="translate(-192.953 -728.441)" fill="#12263f"/>
        <path id="Trazado_139480" data-name="Trazado 139480" d="M799.922,1263.743a7.43,7.43,0,1,1-7.4-7.446A7.414,7.414,0,0,1,799.922,1263.743Z" transform="translate(-739.159 -1215.375)" fill="#12263f"/>
      </g>
    </g>
  </g>
</svg>
