<svg xmlns="http://www.w3.org/2000/svg" xmlns:xlink="http://www.w3.org/1999/xlink" width="726.835" height="251.17" viewBox="0 0 726.835 251.17">
  <defs>
    <linearGradient id="linear-gradient" x1="0.5" x2="0.5" y2="1" gradientUnits="objectBoundingBox">
      <stop offset="0" stop-color="#fff"/>
      <stop offset="1" stop-color="#d2e6ee"/>
    </linearGradient>
    <radialGradient id="radial-gradient" cx="0.076" cy="0.019" r="1.465" gradientTransform="translate(0)" gradientUnits="objectBoundingBox">
      <stop offset="0" stop-color="#f6f6f7"/>
      <stop offset="0.477" stop-color="#f9f9fa"/>
      <stop offset="0.715" stop-color="#fff"/>
    </radialGradient>
  </defs>
  <g id="Grupo_88469" data-name="Grupo 88469" transform="translate(-205.5 -640.998)">
    <g id="Grupo_88466" data-name="Grupo 88466" transform="translate(14.5 63.998)">
      <path id="Trazado_140887" data-name="Trazado 140887" d="M5.227,10.836H3.359V15H1.016V3.625H5.242a4.778,4.778,0,0,1,3.109.9A3.1,3.1,0,0,1,9.445,7.063,3.5,3.5,0,0,1,8.941,9a3.437,3.437,0,0,1-1.527,1.238l2.461,4.648V15H7.359Zm-1.867-1.9H5.25a1.936,1.936,0,0,0,1.367-.449A1.606,1.606,0,0,0,7.1,7.25a1.719,1.719,0,0,0-.457-1.266,1.9,1.9,0,0,0-1.4-.461H3.359ZM13.461,15H11.2V6.547h2.266Zm-2.4-10.641a1.112,1.112,0,0,1,.34-.836,1.277,1.277,0,0,1,.926-.328,1.28,1.28,0,0,1,.922.328,1.105,1.105,0,0,1,.344.836,1.108,1.108,0,0,1-.348.844,1.448,1.448,0,0,1-1.836,0A1.108,1.108,0,0,1,11.063,4.359Zm8.148,10.8a4.15,4.15,0,0,1-3.027-1.141,4.054,4.054,0,0,1-1.168-3.039v-.219a5.106,5.106,0,0,1,.492-2.277A3.612,3.612,0,0,1,16.9,6.934a3.914,3.914,0,0,1,2.059-.543,3.508,3.508,0,0,1,2.73,1.094,4.444,4.444,0,0,1,1,3.1v.922H17.3a2.1,2.1,0,0,0,.66,1.328,2,2,0,0,0,1.395.5,2.437,2.437,0,0,0,2.039-.945l1.109,1.242a3.389,3.389,0,0,1-1.375,1.121A4.511,4.511,0,0,1,19.211,15.156Zm-.258-6.945a1.411,1.411,0,0,0-1.09.455,2.357,2.357,0,0,0-.535,1.3h3.141V9.788a1.681,1.681,0,0,0-.406-1.165A1.456,1.456,0,0,0,18.953,8.211Zm9.594,4.453a.727.727,0,0,0-.41-.652,4.659,4.659,0,0,0-1.316-.426Q23.8,10.953,23.8,9.023a2.323,2.323,0,0,1,.934-1.879,3.766,3.766,0,0,1,2.441-.754,4.053,4.053,0,0,1,2.574.758,2.388,2.388,0,0,1,.965,1.969H28.461a1.092,1.092,0,0,0-.312-.8A1.322,1.322,0,0,0,27.172,8a1.351,1.351,0,0,0-.883.258.814.814,0,0,0-.312.656.7.7,0,0,0,.355.605,3.657,3.657,0,0,0,1.2.4,9.8,9.8,0,0,1,1.422.379,2.336,2.336,0,0,1,1.789,2.273,2.2,2.2,0,0,1-.992,1.871,4.28,4.28,0,0,1-2.562.715,4.47,4.47,0,0,1-1.887-.379,3.166,3.166,0,0,1-1.293-1.039,2.414,2.414,0,0,1-.469-1.426H25.68a1.179,1.179,0,0,0,.445.922,1.766,1.766,0,0,0,1.109.32,1.635,1.635,0,0,0,.98-.246A.766.766,0,0,0,28.547,12.664Zm3.32-1.953a4.954,4.954,0,0,1,.926-3.133,3,3,0,0,1,2.5-1.187,2.631,2.631,0,0,1,2.164.953l.094-.8h2.047v8.172a3.613,3.613,0,0,1-.5,1.93,3.236,3.236,0,0,1-1.418,1.25,4.985,4.985,0,0,1-2.141.43,4.635,4.635,0,0,1-1.812-.371A3.217,3.217,0,0,1,32.383,17l1-1.375a2.645,2.645,0,0,0,2.047.945,1.936,1.936,0,0,0,1.4-.48,1.8,1.8,0,0,0,.5-1.363v-.453a2.612,2.612,0,0,1-2.055.883,2.992,2.992,0,0,1-2.465-1.191,4.953,4.953,0,0,1-.941-3.16Zm2.258.161a3.1,3.1,0,0,0,.461,1.809,1.465,1.465,0,0,0,1.266.655,1.567,1.567,0,0,0,1.477-.777V8.988a1.563,1.563,0,0,0-1.461-.777,1.474,1.474,0,0,0-1.277.667A3.5,3.5,0,0,0,34.125,10.872Zm6.852-.176a5.013,5.013,0,0,1,.484-2.242A3.546,3.546,0,0,1,42.855,6.93a4.069,4.069,0,0,1,2.113-.539,3.849,3.849,0,0,1,2.793,1.047,4.2,4.2,0,0,1,1.207,2.844l.016.578A4.418,4.418,0,0,1,47.9,13.98a4.209,4.209,0,0,1-5.832,0,4.5,4.5,0,0,1-1.09-3.187Zm2.258.16a3.16,3.16,0,0,0,.453,1.843,1.628,1.628,0,0,0,2.578.008,3.457,3.457,0,0,0,.461-2.015,3.128,3.128,0,0,0-.461-1.831,1.5,1.5,0,0,0-1.3-.649,1.474,1.474,0,0,0-1.281.646A3.516,3.516,0,0,0,43.234,10.856Z" transform="translate(205 581)" fill="#12263f"/>
    </g>
    <g id="Grupo_88467" data-name="Grupo 88467">
      <rect id="Rectángulo_32827" data-name="Rectángulo 32827" width="196.67" height="54" rx="5" transform="translate(211.5 692)" opacity="0.832" fill="url(#linear-gradient)"/>
      <rect id="Rectángulo_32828" data-name="Rectángulo 32828" width="196.67" height="54" rx="5" transform="translate(211.5 765.084)" opacity="0.832" fill="url(#linear-gradient)"/>
      <rect id="Rectángulo_32830" data-name="Rectángulo 32830" width="196.67" height="54" rx="5" transform="translate(480.758 731.108)" opacity="0.832" fill="url(#linear-gradient)"/>
      <rect id="Rectángulo_32831" data-name="Rectángulo 32831" width="196.67" height="54" rx="5" transform="translate(735.665 731.108)" opacity="0.832" fill="url(#linear-gradient)"/>
      <rect id="Rectángulo_32832" data-name="Rectángulo 32832" width="196.67" height="54" rx="5" transform="translate(735.665 804.192)" opacity="0.832" fill="url(#linear-gradient)"/>
      <rect id="Rectángulo_32829" data-name="Rectángulo 32829" width="196.67" height="54" rx="5" transform="translate(211.5 838.168)" opacity="0.832" fill="url(#linear-gradient)"/>
      <path id="Trazado_140896" data-name="Trazado 140896" d="M35.921,12.656H31.812L31.031,15H28.538L32.773,3.625h2.172L39.2,15H36.71Zm-3.477-1.9h2.844L33.859,6.5ZM43.327,3.625l2.922,8.25,2.906-8.25h3.078V15H49.882V11.891l.234-5.367L47.046,15H45.437L42.374,6.531l.234,5.359V15H40.265V3.625Zm17.8,6.43h-4.5v3.063h5.281V15H54.281V3.625H61.89v1.9H56.624V8.234h4.5ZM72.531,15H70.187L65.624,7.516V15H63.281V3.625h2.344l4.57,7.5v-7.5h2.336Zm4.531-1.883H82.8V15H74.132V13.625l5.625-8.1H74.14v-1.9h8.531V4.969ZM90.8,12.656H86.687L85.906,15H83.413L87.648,3.625H89.82L94.077,15H91.585Zm-3.477-1.9h2.844L88.734,6.5Z" transform="translate(246.5 711.359)" fill="#12263f"/>
      <path id="Trazado_140894" data-name="Trazado 140894" d="M12.257,12.18l2.578-8.555h2.609L13.484,15H11.038L7.093,3.625h2.6ZM27.124,3.625v7.492a3.836,3.836,0,0,1-1.168,2.953,4.5,4.5,0,0,1-3.191,1.086A4.553,4.553,0,0,1,19.6,14.1a3.77,3.77,0,0,1-1.2-2.9V3.625h2.344v7.508a2.167,2.167,0,0,0,.535,1.629,2.054,2.054,0,0,0,1.48.512q1.977,0,2.008-2.078V3.625Zm4.266,9.492h4.977V15h-7.32V3.625H31.39ZM46.96,15H44.616L40.054,7.516V15H37.71V3.625h2.344l4.57,7.5v-7.5H46.96Zm8.891-4.945h-4.5v3.063h5.281V15H49.007V3.625h7.609v1.9H51.351V8.234h4.5Zm6.367.781H60.351V15H58.007V3.625h4.227a4.778,4.778,0,0,1,3.109.9,3.1,3.1,0,0,1,1.094,2.539A3.5,3.5,0,0,1,65.933,9a3.437,3.437,0,0,1-1.527,1.238l2.461,4.648V15H64.351Zm-1.867-1.9h1.891a1.936,1.936,0,0,0,1.367-.449,1.606,1.606,0,0,0,.484-1.238,1.719,1.719,0,0,0-.457-1.266,1.9,1.9,0,0,0-1.4-.461H60.351ZM74.64,12.656H70.531L69.749,15H67.257L71.491,3.625h2.172L77.921,15H75.429Zm-3.477-1.9h2.844L72.577,6.5ZM78.984,15V3.625h3.984a5.232,5.232,0,0,1,3.141.793,2.712,2.712,0,0,1,1.07,2.324,2.57,2.57,0,0,1-.43,1.473,2.482,2.482,0,0,1-1.2.934,2.4,2.4,0,0,1,1.379.883,2.61,2.61,0,0,1,.5,1.625,3,3,0,0,1-1.047,2.484A4.713,4.713,0,0,1,83.406,15Zm2.344-4.953v3.07h2.008a1.938,1.938,0,0,0,1.293-.395,1.353,1.353,0,0,0,.465-1.09,1.428,1.428,0,0,0-1.617-1.586Zm0-1.656h1.734q1.773-.031,1.773-1.414a1.307,1.307,0,0,0-.449-1.113,2.363,2.363,0,0,0-1.418-.34H81.327ZM91.687,15H89.343V3.625h2.344ZM96.2,13.117h4.977V15h-7.32V3.625H96.2ZM105.015,15h-2.344V3.625h2.344Zm2.172,0V3.625h3.5a5.315,5.315,0,0,1,2.684.676,4.712,4.712,0,0,1,1.848,1.922,5.928,5.928,0,0,1,.664,2.832v.523a5.945,5.945,0,0,1-.652,2.82,4.672,4.672,0,0,1-1.84,1.914,5.355,5.355,0,0,1-2.68.688Zm2.344-9.477v7.594h1.133a2.545,2.545,0,0,0,2.1-.9,4.06,4.06,0,0,0,.742-2.57v-.6a4.124,4.124,0,0,0-.719-2.629,2.537,2.537,0,0,0-2.1-.895Zm14.313,7.133h-4.109L118.952,15H116.46l4.234-11.375h2.172L127.124,15h-2.492Zm-3.477-1.9h2.844L121.781,6.5ZM128.187,15V3.625h3.5a5.315,5.315,0,0,1,2.684.676,4.712,4.712,0,0,1,1.848,1.922,5.928,5.928,0,0,1,.664,2.832v.523a5.945,5.945,0,0,1-.652,2.82,4.672,4.672,0,0,1-1.84,1.914,5.355,5.355,0,0,1-2.68.688Zm2.344-9.477v7.594h1.133a2.545,2.545,0,0,0,2.1-.9,4.06,4.06,0,0,0,.742-2.57v-.6a4.124,4.124,0,0,0-.719-2.629,2.537,2.537,0,0,0-2.1-.895Z" transform="translate(235.5 784.443)" fill="#12263f"/>
      <path id="Trazado_140890" data-name="Trazado 140890" d="M49.7,10.836H47.835V15H45.491V3.625h4.227a4.778,4.778,0,0,1,3.109.9,3.1,3.1,0,0,1,1.094,2.539A3.5,3.5,0,0,1,53.417,9a3.437,3.437,0,0,1-1.527,1.238l2.461,4.648V15H51.835Zm-1.867-1.9h1.891a1.936,1.936,0,0,0,1.367-.449,1.606,1.606,0,0,0,.484-1.238,1.719,1.719,0,0,0-.457-1.266,1.9,1.9,0,0,0-1.4-.461H47.835ZM58.195,15H55.851V3.625h2.344Zm9.016-4.945h-4.5v3.063h5.281V15H60.366V3.625h7.609v1.9H62.71V8.234h4.5Zm8.055,1.961A1.2,1.2,0,0,0,74.8,11a6.148,6.148,0,0,0-1.687-.75,11.963,11.963,0,0,1-1.93-.777,3.153,3.153,0,0,1-1.937-2.82A2.747,2.747,0,0,1,69.761,5a3.389,3.389,0,0,1,1.492-1.129,5.616,5.616,0,0,1,2.184-.406,5.112,5.112,0,0,1,2.172.441,3.458,3.458,0,0,1,1.48,1.246,3.261,3.261,0,0,1,.527,1.828H75.273a1.534,1.534,0,0,0-.492-1.215A2.023,2.023,0,0,0,73.4,5.336a2.162,2.162,0,0,0-1.336.363,1.146,1.146,0,0,0-.477.957,1.1,1.1,0,0,0,.559.93,6.311,6.311,0,0,0,1.645.7A7.106,7.106,0,0,1,76.7,9.781,2.972,2.972,0,0,1,77.616,12,2.737,2.737,0,0,1,76.5,14.316a4.891,4.891,0,0,1-3.008.84,5.808,5.808,0,0,1-2.391-.48,3.783,3.783,0,0,1-1.645-1.316,3.371,3.371,0,0,1-.566-1.937h2.352q0,1.883,2.25,1.883a2.189,2.189,0,0,0,1.3-.34A1.106,1.106,0,0,0,75.265,12.016ZM88.2,13.563a4.068,4.068,0,0,1-1.789,1.176,7.492,7.492,0,0,1-2.562.418,5.076,5.076,0,0,1-2.59-.645,4.3,4.3,0,0,1-1.719-1.871,6.585,6.585,0,0,1-.621-2.883V8.984A6.994,6.994,0,0,1,79.5,6.035a4.248,4.248,0,0,1,1.656-1.906,5.453,5.453,0,0,1,5.7.3A4.123,4.123,0,0,1,88.2,7.242H85.921a2.268,2.268,0,0,0-.691-1.43,2.208,2.208,0,0,0-1.473-.453,2.078,2.078,0,0,0-1.82.9A4.724,4.724,0,0,0,81.3,8.93v.727a4.5,4.5,0,0,0,.68,2.7,2.327,2.327,0,0,0,1.992.914,2.6,2.6,0,0,0,1.883-.562V10.75H83.726V9.023H88.2ZM99.445,9.57a6.867,6.867,0,0,1-.594,2.945,4.472,4.472,0,0,1-1.7,1.953,5.021,5.021,0,0,1-5.059.008,4.515,4.515,0,0,1-1.719-1.941,6.67,6.67,0,0,1-.617-2.9V9.07a6.831,6.831,0,0,1,.605-2.957,4.508,4.508,0,0,1,1.711-1.961,5.014,5.014,0,0,1,5.055,0,4.508,4.508,0,0,1,1.711,1.961,6.811,6.811,0,0,1,.605,2.949ZM97.07,9.055a4.787,4.787,0,0,0-.641-2.719,2.263,2.263,0,0,0-3.648-.012,4.732,4.732,0,0,0-.648,2.691V9.57a4.847,4.847,0,0,0,.641,2.7,2.243,2.243,0,0,0,3.656.035,4.819,4.819,0,0,0,.641-2.7Z" transform="translate(504.758 750.468)" fill="#12263f"/>
      <path id="Trazado_140889" data-name="Trazado 140889" d="M12.269,10.055h-4.5v3.063H13.05V15H5.425V3.625h7.609v1.9H7.769V8.234h4.5Zm6.359,2.125,2.578-8.555h2.609L19.855,15H17.409L13.464,3.625h2.6Zm13.1-2.125h-4.5v3.063h5.281V15H24.886V3.625H32.5v1.9H27.23V8.234h4.5ZM43.136,15H40.792L36.23,7.516V15H33.886V3.625H36.23l4.57,7.5v-7.5h2.336ZM53.519,5.523H50.034V15H47.691V5.523H44.253v-1.9h9.266ZM63.98,9.57a6.867,6.867,0,0,1-.594,2.945,4.472,4.472,0,0,1-1.7,1.953,5.021,5.021,0,0,1-5.059.008,4.515,4.515,0,0,1-1.719-1.941,6.67,6.67,0,0,1-.617-2.9V9.07A6.831,6.831,0,0,1,54.9,6.113a4.508,4.508,0,0,1,1.711-1.961,5.014,5.014,0,0,1,5.055,0,4.508,4.508,0,0,1,1.711,1.961,6.811,6.811,0,0,1,.605,2.949ZM61.6,9.055a4.787,4.787,0,0,0-.641-2.719,2.263,2.263,0,0,0-3.648-.012,4.732,4.732,0,0,0-.648,2.691V9.57a4.847,4.847,0,0,0,.641,2.7,2.243,2.243,0,0,0,3.656.035,4.819,4.819,0,0,0,.641-2.7Zm14.484,3.6H71.98L71.2,15H68.706L72.941,3.625h2.172L79.37,15H76.878Zm-3.477-1.9h2.844L74.027,6.5ZM80.433,15V3.625h3.5a5.315,5.315,0,0,1,2.684.676,4.712,4.712,0,0,1,1.848,1.922,5.928,5.928,0,0,1,.664,2.832v.523a5.945,5.945,0,0,1-.652,2.82,4.672,4.672,0,0,1-1.84,1.914,5.355,5.355,0,0,1-2.68.688Zm2.344-9.477v7.594h1.133a2.545,2.545,0,0,0,2.1-.9,4.06,4.06,0,0,0,.742-2.57v-.6a4.124,4.124,0,0,0-.719-2.629,2.537,2.537,0,0,0-2.1-.895ZM94.863,12.18l2.578-8.555h2.609L96.089,15H93.644L89.7,3.625h2.6Zm13.1-2.125h-4.5v3.063h5.281V15H101.12V3.625h7.609v1.9h-5.266V8.234h4.5Zm6.367.781h-1.867V15H110.12V3.625h4.227a4.778,4.778,0,0,1,3.109.9,3.1,3.1,0,0,1,1.094,2.539,3.5,3.5,0,0,1-.5,1.941,3.437,3.437,0,0,1-1.527,1.238l2.461,4.648V15h-2.516Zm-1.867-1.9h1.891a1.936,1.936,0,0,0,1.367-.449,1.606,1.606,0,0,0,.484-1.238,1.719,1.719,0,0,0-.457-1.266,1.9,1.9,0,0,0-1.4-.461h-1.883Zm13.766,3.078a1.2,1.2,0,0,0-.469-1.02,6.148,6.148,0,0,0-1.687-.75,11.963,11.963,0,0,1-1.93-.777,3.153,3.153,0,0,1-1.937-2.82A2.747,2.747,0,0,1,120.726,5a3.389,3.389,0,0,1,1.492-1.129,5.616,5.616,0,0,1,2.184-.406,5.112,5.112,0,0,1,2.172.441,3.458,3.458,0,0,1,1.48,1.246,3.261,3.261,0,0,1,.527,1.828h-2.344a1.534,1.534,0,0,0-.492-1.215,2.023,2.023,0,0,0-1.383-.434,2.162,2.162,0,0,0-1.336.363,1.146,1.146,0,0,0-.477.957,1.1,1.1,0,0,0,.559.93,6.311,6.311,0,0,0,1.645.7,7.106,7.106,0,0,1,2.914,1.492A2.972,2.972,0,0,1,128.581,12a2.737,2.737,0,0,1-1.117,2.316,4.891,4.891,0,0,1-3.008.84,5.808,5.808,0,0,1-2.391-.48,3.783,3.783,0,0,1-1.645-1.316,3.371,3.371,0,0,1-.566-1.937h2.352q0,1.883,2.25,1.883a2.189,2.189,0,0,0,1.3-.34A1.106,1.106,0,0,0,126.23,12.016ZM139.511,9.57a6.867,6.867,0,0,1-.594,2.945,4.471,4.471,0,0,1-1.7,1.953,5.021,5.021,0,0,1-5.059.008,4.515,4.515,0,0,1-1.719-1.941,6.67,6.67,0,0,1-.617-2.9V9.07a6.831,6.831,0,0,1,.605-2.957,4.508,4.508,0,0,1,1.711-1.961,5.014,5.014,0,0,1,5.055,0,4.508,4.508,0,0,1,1.711,1.961,6.811,6.811,0,0,1,.605,2.949Zm-2.375-.516a4.787,4.787,0,0,0-.641-2.719,2.263,2.263,0,0,0-3.648-.012,4.732,4.732,0,0,0-.648,2.691V9.57a4.847,4.847,0,0,0,.641,2.7,2.243,2.243,0,0,0,3.656.035,4.819,4.819,0,0,0,.641-2.7Z" transform="translate(759.665 750.468)" fill="#12263f"/>
      <path id="Trazado_140888" data-name="Trazado 140888" d="M18.4,15V3.625h3.5a5.315,5.315,0,0,1,2.684.676,4.712,4.712,0,0,1,1.848,1.922,5.928,5.928,0,0,1,.664,2.832v.523a5.945,5.945,0,0,1-.652,2.82,4.672,4.672,0,0,1-1.84,1.914,5.355,5.355,0,0,1-2.68.688Zm2.344-9.477v7.594h1.133a2.545,2.545,0,0,0,2.1-.9,4.06,4.06,0,0,0,.742-2.57v-.6A4.124,4.124,0,0,0,24,6.418a2.537,2.537,0,0,0-2.1-.895Zm14.9,4.531h-4.5v3.063h5.281V15H28.8V3.625h7.609v1.9H31.14V8.234h4.5Zm8.055,1.961A1.2,1.2,0,0,0,43.226,11a6.148,6.148,0,0,0-1.687-.75,11.963,11.963,0,0,1-1.93-.777,3.153,3.153,0,0,1-1.937-2.82A2.747,2.747,0,0,1,38.191,5a3.389,3.389,0,0,1,1.492-1.129,5.616,5.616,0,0,1,2.184-.406,5.112,5.112,0,0,1,2.172.441,3.458,3.458,0,0,1,1.48,1.246,3.261,3.261,0,0,1,.527,1.828H43.7A1.534,1.534,0,0,0,43.21,5.77a2.023,2.023,0,0,0-1.383-.434,2.162,2.162,0,0,0-1.336.363,1.146,1.146,0,0,0-.477.957,1.1,1.1,0,0,0,.559.93,6.311,6.311,0,0,0,1.645.7,7.106,7.106,0,0,1,2.914,1.492A2.972,2.972,0,0,1,46.046,12a2.737,2.737,0,0,1-1.117,2.316,4.891,4.891,0,0,1-3.008.84,5.808,5.808,0,0,1-2.391-.48,3.783,3.783,0,0,1-1.645-1.316,3.371,3.371,0,0,1-.566-1.937h2.352q0,1.883,2.25,1.883a2.189,2.189,0,0,0,1.3-.34A1.106,1.106,0,0,0,43.695,12.016Zm10.359.641H49.945L49.163,15H46.671L50.906,3.625h2.172L57.335,15H54.843Zm-3.477-1.9h2.844L51.991,6.5ZM64.3,12.016A1.2,1.2,0,0,0,63.827,11a6.148,6.148,0,0,0-1.687-.75,11.963,11.963,0,0,1-1.93-.777,3.153,3.153,0,0,1-1.937-2.82A2.747,2.747,0,0,1,58.792,5a3.389,3.389,0,0,1,1.492-1.129,5.616,5.616,0,0,1,2.184-.406,5.112,5.112,0,0,1,2.172.441,3.458,3.458,0,0,1,1.48,1.246,3.261,3.261,0,0,1,.527,1.828H64.3a1.534,1.534,0,0,0-.492-1.215,2.023,2.023,0,0,0-1.383-.434,2.162,2.162,0,0,0-1.336.363,1.146,1.146,0,0,0-.477.957,1.1,1.1,0,0,0,.559.93,6.311,6.311,0,0,0,1.645.7,7.106,7.106,0,0,1,2.914,1.492A2.972,2.972,0,0,1,66.648,12a2.737,2.737,0,0,1-1.117,2.316,4.891,4.891,0,0,1-3.008.84,5.808,5.808,0,0,1-2.391-.48,3.783,3.783,0,0,1-1.645-1.316,3.371,3.371,0,0,1-.566-1.937h2.352q0,1.883,2.25,1.883a2.189,2.189,0,0,0,1.3-.34A1.106,1.106,0,0,0,64.3,12.016ZM76.8,5.523H73.312V15H70.968V5.523H67.531v-1.9H76.8Zm5.547,5.313H80.476V15H78.132V3.625h4.227a4.778,4.778,0,0,1,3.109.9,3.1,3.1,0,0,1,1.094,2.539A3.5,3.5,0,0,1,86.058,9a3.437,3.437,0,0,1-1.527,1.238l2.461,4.648V15H84.476Zm-1.867-1.9h1.891a1.936,1.936,0,0,0,1.367-.449,1.606,1.606,0,0,0,.484-1.238,1.719,1.719,0,0,0-.457-1.266,1.9,1.9,0,0,0-1.4-.461H80.476Zm14.711,1.117h-4.5v3.063h5.281V15H88.343V3.625h7.609v1.9H90.687V8.234h4.5Zm10.063-1.3,2.367-5.125h2.563l-3.734,7.25V15h-2.383V10.875l-3.734-7.25h2.57Zm6.531,7.227H110.1l4.188-12.352h1.68ZM126.538,9.57a6.867,6.867,0,0,1-.594,2.945,4.472,4.472,0,0,1-1.7,1.953,5.021,5.021,0,0,1-5.059.008,4.515,4.515,0,0,1-1.719-1.941,6.67,6.67,0,0,1-.617-2.9V9.07a6.831,6.831,0,0,1,.605-2.957,4.508,4.508,0,0,1,1.711-1.961,5.014,5.014,0,0,1,5.055,0,4.508,4.508,0,0,1,1.711,1.961,6.811,6.811,0,0,1,.605,2.949Zm-2.375-.516a4.787,4.787,0,0,0-.641-2.719,2.263,2.263,0,0,0-3.648-.012,4.732,4.732,0,0,0-.648,2.691V9.57a4.847,4.847,0,0,0,.641,2.7,2.243,2.243,0,0,0,3.656.035,4.819,4.819,0,0,0,.641-2.7Zm-93.73,25h-4.5v3.063h5.281V39H23.589V27.625H31.2v1.9H25.933v2.711h4.5Zm5.219-6.43,2.922,8.25,2.906-8.25h3.078V39H42.206V35.891l.234-5.367L39.37,39H37.761L34.7,30.531l.234,5.359V39H32.589V27.625Zm17.8,6.43h-4.5v3.063H54.23V39H46.6V27.625h7.609v1.9H48.948v2.711h4.5Zm6.367.781H57.948V39H55.6V27.625h4.227a4.778,4.778,0,0,1,3.109.9,3.1,3.1,0,0,1,1.094,2.539,3.5,3.5,0,0,1-.5,1.941A3.437,3.437,0,0,1,62,34.242l2.461,4.648V39H61.948Zm-1.867-1.9h1.891a1.936,1.936,0,0,0,1.367-.449,1.606,1.606,0,0,0,.484-1.238,1.719,1.719,0,0,0-.457-1.266,1.9,1.9,0,0,0-1.4-.461H57.948Zm16.867,4.625a4.068,4.068,0,0,1-1.789,1.176,7.492,7.492,0,0,1-2.562.418,5.076,5.076,0,0,1-2.59-.645,4.3,4.3,0,0,1-1.719-1.871,6.585,6.585,0,0,1-.621-2.883v-.773a6.994,6.994,0,0,1,.574-2.949,4.248,4.248,0,0,1,1.656-1.906,5.453,5.453,0,0,1,5.7.3,4.123,4.123,0,0,1,1.352,2.809H72.534a2.268,2.268,0,0,0-.691-1.43,2.208,2.208,0,0,0-1.473-.453,2.078,2.078,0,0,0-1.82.9,4.724,4.724,0,0,0-.633,2.672v.727a4.5,4.5,0,0,0,.68,2.7,2.327,2.327,0,0,0,1.992.914,2.6,2.6,0,0,0,1.883-.562V34.75H70.339V33.023h4.477Zm8.742-3.508h-4.5v3.063h5.281V39H76.714V27.625h7.609v1.9H79.058v2.711h4.5ZM94.964,39H92.62l-4.562-7.484V39H85.714V27.625h2.344l4.57,7.5v-7.5h2.336Zm10.977-3.789a4.025,4.025,0,0,1-1.355,2.891,4.76,4.76,0,0,1-3.223,1.055,4.28,4.28,0,0,1-3.441-1.473,6.038,6.038,0,0,1-1.254-4.043v-.7a6.819,6.819,0,0,1,.578-2.891A4.332,4.332,0,0,1,98.9,28.137a5.164,5.164,0,0,1,5.668.387,4.326,4.326,0,0,1,1.391,2.961h-2.344a2.376,2.376,0,0,0-.613-1.6,2.271,2.271,0,0,0-1.605-.5,1.991,1.991,0,0,0-1.754.84,4.707,4.707,0,0,0-.6,2.605V33.7a5.038,5.038,0,0,0,.559,2.7,1.954,1.954,0,0,0,1.762.852,2.314,2.314,0,0,0,1.621-.5,2.241,2.241,0,0,0,.613-1.535ZM109.972,39h-2.344V27.625h2.344Zm8.734-2.344H114.6L113.816,39h-2.492l4.234-11.375h2.172L121.988,39H119.5Zm-3.477-1.9h2.844l-1.43-4.258Z" transform="translate(759.665 811.552)" fill="#12263f"/>
      <path id="Trazado_140892" data-name="Trazado 140892" d="M31.575,11.211A4.025,4.025,0,0,1,30.219,14.1,4.76,4.76,0,0,1,27,15.156a4.28,4.28,0,0,1-3.441-1.473A6.038,6.038,0,0,1,22.3,9.641v-.7a6.819,6.819,0,0,1,.578-2.891,4.332,4.332,0,0,1,1.652-1.918,4.629,4.629,0,0,1,2.5-.668A4.637,4.637,0,0,1,30.2,4.523a4.326,4.326,0,0,1,1.391,2.961H29.247a2.376,2.376,0,0,0-.613-1.6,2.271,2.271,0,0,0-1.605-.5,1.991,1.991,0,0,0-1.754.84,4.707,4.707,0,0,0-.6,2.605V9.7a5.038,5.038,0,0,0,.559,2.7A1.954,1.954,0,0,0,27,13.242a2.314,2.314,0,0,0,1.621-.5,2.241,2.241,0,0,0,.613-1.535Zm7.961,1.445H35.427L34.645,15H32.153L36.387,3.625h2.172L42.817,15H40.325Zm-3.477-1.9H38.9L37.473,6.5Zm10.164.234V15H43.88V3.625h4.438a5.134,5.134,0,0,1,2.254.469,3.454,3.454,0,0,1,1.5,1.332,3.714,3.714,0,0,1,.523,1.965,3.266,3.266,0,0,1-1.145,2.637,4.767,4.767,0,0,1-3.168.965Zm0-1.9h2.094a2.059,2.059,0,0,0,1.418-.437,1.591,1.591,0,0,0,.488-1.25,1.876,1.876,0,0,0-.492-1.352,1.839,1.839,0,0,0-1.359-.531H46.223Zm13.008,3.563H55.122L54.341,15H51.848L56.083,3.625h2.172L62.512,15H60.02Zm-3.477-1.9H58.6L57.169,6.5Zm16.586.453A4.025,4.025,0,0,1,70.985,14.1a4.76,4.76,0,0,1-3.223,1.055,4.28,4.28,0,0,1-3.441-1.473,6.038,6.038,0,0,1-1.254-4.043v-.7a6.819,6.819,0,0,1,.578-2.891A4.332,4.332,0,0,1,65.3,4.137a5.164,5.164,0,0,1,5.668.387,4.326,4.326,0,0,1,1.391,2.961H70.012a2.376,2.376,0,0,0-.613-1.6,2.271,2.271,0,0,0-1.605-.5,1.991,1.991,0,0,0-1.754.84,4.707,4.707,0,0,0-.6,2.605V9.7a5.038,5.038,0,0,0,.559,2.7,1.954,1.954,0,0,0,1.762.852,2.314,2.314,0,0,0,1.621-.5A2.241,2.241,0,0,0,70,11.211ZM76.372,15H74.028V3.625h2.344Zm2.172,0V3.625h3.5a5.315,5.315,0,0,1,2.684.676,4.712,4.712,0,0,1,1.848,1.922,5.928,5.928,0,0,1,.664,2.832v.523a5.945,5.945,0,0,1-.652,2.82,4.672,4.672,0,0,1-1.84,1.914,5.355,5.355,0,0,1-2.68.688Zm2.344-9.477v7.594H82.02a2.545,2.545,0,0,0,2.1-.9,4.06,4.06,0,0,0,.742-2.57v-.6a4.124,4.124,0,0,0-.719-2.629,2.537,2.537,0,0,0-2.1-.895ZM95.2,12.656H91.091L90.309,15H87.817L92.052,3.625h2.172L98.481,15H95.989Zm-3.477-1.9h2.844L93.137,6.5ZM99.544,15V3.625h3.5a5.315,5.315,0,0,1,2.684.676,4.712,4.712,0,0,1,1.848,1.922,5.928,5.928,0,0,1,.664,2.832v.523a5.945,5.945,0,0,1-.652,2.82,4.672,4.672,0,0,1-1.84,1.914,5.355,5.355,0,0,1-2.68.688Zm2.344-9.477v7.594h1.133a2.545,2.545,0,0,0,2.1-.9,4.06,4.06,0,0,0,.742-2.57v-.6a4.124,4.124,0,0,0-.719-2.629,2.537,2.537,0,0,0-2.1-.895Zm14.9,4.531h-4.5v3.063h5.281V15h-7.625V3.625h7.609v1.9h-5.266V8.234h4.5Zm8.055,1.961a1.2,1.2,0,0,0-.469-1.02,6.148,6.148,0,0,0-1.687-.75,11.963,11.963,0,0,1-1.93-.777,3.153,3.153,0,0,1-1.937-2.82A2.747,2.747,0,0,1,119.337,5a3.389,3.389,0,0,1,1.492-1.129,5.616,5.616,0,0,1,2.184-.406,5.112,5.112,0,0,1,2.172.441,3.458,3.458,0,0,1,1.48,1.246,3.261,3.261,0,0,1,.527,1.828h-2.344a1.534,1.534,0,0,0-.492-1.215,2.023,2.023,0,0,0-1.383-.434,2.162,2.162,0,0,0-1.336.363,1.146,1.146,0,0,0-.477.957,1.1,1.1,0,0,0,.559.93,6.311,6.311,0,0,0,1.645.7,7.106,7.106,0,0,1,2.914,1.492A2.972,2.972,0,0,1,127.192,12a2.737,2.737,0,0,1-1.117,2.316,4.891,4.891,0,0,1-3.008.84,5.808,5.808,0,0,1-2.391-.48,3.783,3.783,0,0,1-1.645-1.316,3.371,3.371,0,0,1-.566-1.937h2.352q0,1.883,2.25,1.883a2.189,2.189,0,0,0,1.3-.34A1.106,1.106,0,0,0,124.841,12.016Z" transform="translate(233.108 857.527)" fill="#12263f"/>
      <g id="Grupo_87679" data-name="Grupo 87679" transform="translate(58.661 -12.368)">
        <g id="Grupo_42274" data-name="Grupo 42274" transform="translate(222.025 745.359)">
          <g id="Grupo_18423" data-name="Grupo 18423" transform="translate(0 0)">
            <g id="Grupo_18421" data-name="Grupo 18421">
              <g id="Grupo_18420" data-name="Grupo 18420">
                <g id="Grupo_18419" data-name="Grupo 18419">
                  <path id="Trazado_40936" data-name="Trazado 40936" d="M242.859,2169.839a24.118,24.118,0,1,1-24.118-24.117A24.117,24.117,0,0,1,242.859,2169.839Z" transform="translate(-194.623 -2145.721)" fill="#fff"/>
                </g>
              </g>
            </g>
            <path id="Trazado_40937" data-name="Trazado 40937" d="M243.1,2170.1a24.117,24.117,0,1,0-24.118,24.119A24.022,24.022,0,0,0,243.1,2170.1Z" transform="translate(-194.861 -2145.981)" fill="url(#radial-gradient)"/>
            <path id="Trazado_40938" data-name="Trazado 40938" d="M239.636,2172.351a18.409,18.409,0,1,0-18.409,18.409A18.341,18.341,0,0,0,239.636,2172.351Z" transform="translate(-197.036 -2148.153)" fill="none" stroke="#7d6eb2" stroke-miterlimit="10" stroke-width="2"/>
            <g id="Grupo_18422" data-name="Grupo 18422" transform="translate(4.273 13.54)">
              <path id="Trazado_40939" data-name="Trazado 40939" d="M242.069,2164.488a24.121,24.121,0,0,1-41.524,24.018,24.044,24.044,0,0,0,41.524-24.018Z" transform="translate(-200.545 -2164.488)" fill="#eceef0"/>
            </g>
          </g>
        </g>
      </g>
      <g id="Grupo_87680" data-name="Grupo 87680" transform="translate(58.661 62.933)">
        <g id="Grupo_42274-2" data-name="Grupo 42274" transform="translate(222.025 745.359)">
          <g id="Grupo_18423-2" data-name="Grupo 18423" transform="translate(0 0)">
            <g id="Grupo_18421-2" data-name="Grupo 18421">
              <g id="Grupo_18420-2" data-name="Grupo 18420">
                <g id="Grupo_18419-2" data-name="Grupo 18419">
                  <path id="Trazado_40936-2" data-name="Trazado 40936" d="M242.859,2169.839a24.118,24.118,0,1,1-24.118-24.117A24.117,24.117,0,0,1,242.859,2169.839Z" transform="translate(-194.623 -2145.721)" fill="#fff"/>
                </g>
              </g>
            </g>
            <path id="Trazado_40937-2" data-name="Trazado 40937" d="M243.1,2170.1a24.117,24.117,0,1,0-24.118,24.119A24.022,24.022,0,0,0,243.1,2170.1Z" transform="translate(-194.861 -2145.981)" fill="url(#radial-gradient)"/>
            <path id="Trazado_40938-2" data-name="Trazado 40938" d="M239.636,2172.351a18.409,18.409,0,1,0-18.409,18.409A18.341,18.341,0,0,0,239.636,2172.351Z" transform="translate(-197.036 -2148.153)" fill="none" stroke="#7d6eb2" stroke-miterlimit="10" stroke-width="2"/>
            <g id="Grupo_18422-2" data-name="Grupo 18422" transform="translate(4.273 13.54)">
              <path id="Trazado_40939-2" data-name="Trazado 40939" d="M242.069,2164.488a24.121,24.121,0,0,1-41.524,24.018,24.044,24.044,0,0,0,41.524-24.018Z" transform="translate(-200.545 -2164.488)" fill="#eceef0"/>
            </g>
          </g>
        </g>
      </g>
      <path id="Trazado_140895" data-name="Trazado 140895" d="M1.45-8.755H5.328v2.8H1.45v4.383H-1.5V-5.951H-5.393v-2.8H-1.5v-4.2H1.45Z" transform="translate(305 765)" fill="#12263f"/>
      <path id="Trazado_140893" data-name="Trazado 140893" d="M-1.939,1.343h-2.31L1.509-15.641h2.31Z" transform="translate(305 840)" fill="#12263f"/>
      <path id="Trazado_139488" data-name="Trazado 139488" d="M-5671.83-10936.736h29.91v-79.818h-29.91" transform="translate(6080 11735)" fill="none" stroke="#12263f" stroke-width="3" stroke-dasharray="5"/>
      <path id="Trazado_139489" data-name="Trazado 139489" d="M-5641.919-10976.646h36.677" transform="translate(6085 11735)" fill="none" stroke="#12263f" stroke-width="3" stroke-dasharray="5"/>
      <g id="Grupo_87681" data-name="Grupo 87681" transform="translate(239.394 -12.368)">
        <g id="Grupo_42274-3" data-name="Grupo 42274" transform="translate(222.025 745.359)">
          <g id="Grupo_18423-3" data-name="Grupo 18423" transform="translate(0 0)">
            <g id="Grupo_18421-3" data-name="Grupo 18421">
              <g id="Grupo_18420-3" data-name="Grupo 18420">
                <g id="Grupo_18419-3" data-name="Grupo 18419">
                  <path id="Trazado_40936-3" data-name="Trazado 40936" d="M242.859,2169.839a24.118,24.118,0,1,1-24.118-24.117A24.117,24.117,0,0,1,242.859,2169.839Z" transform="translate(-194.623 -2145.721)" fill="#fff"/>
                </g>
              </g>
            </g>
            <path id="Trazado_40937-3" data-name="Trazado 40937" d="M243.1,2170.1a24.117,24.117,0,1,0-24.118,24.119A24.022,24.022,0,0,0,243.1,2170.1Z" transform="translate(-194.861 -2145.981)" fill="url(#radial-gradient)"/>
            <path id="Trazado_40938-3" data-name="Trazado 40938" d="M239.636,2172.351a18.409,18.409,0,1,0-18.409,18.409A18.341,18.341,0,0,0,239.636,2172.351Z" transform="translate(-197.036 -2148.153)" fill="none" stroke="#7d6eb2" stroke-miterlimit="10" stroke-width="2"/>
            <g id="Grupo_18422-3" data-name="Grupo 18422" transform="translate(4.273 13.54)">
              <path id="Trazado_40939-3" data-name="Trazado 40939" d="M242.069,2164.488a24.121,24.121,0,0,1-41.524,24.018,24.044,24.044,0,0,0,41.524-24.018Z" transform="translate(-200.545 -2164.488)" fill="#eceef0"/>
            </g>
          </g>
        </g>
      </g>
      <path id="Trazado_140891" data-name="Trazado 140891" d="M4.77-8.014h-9.6v-2.535h9.6Zm0,4.651h-9.6V-5.9h9.6Z" transform="translate(485.733 765)" fill="#12263f"/>
      <path id="Trazado_139490" data-name="Trazado 139490" d="M-5402.572-10976.646h58.052" transform="translate(6080 11735)" fill="none" stroke="#12263f" stroke-width="3" stroke-dasharray="5"/>
      <path id="Trazado_139491" data-name="Trazado 139491" d="M-5373.546-10970.712v67.1h27.569" transform="translate(6080 11735)" fill="none" stroke="#12263f" stroke-width="3" stroke-dasharray="5"/>
    </g>
    <rect id="Rectángulo_32940" data-name="Rectángulo 32940" width="25" height="6" transform="translate(205.5 665.998) rotate(-90)" fill="#7e5ee3"/>
  </g>
</svg>
