<svg xmlns="http://www.w3.org/2000/svg" width="900.841" height="198.271" viewBox="0 0 900.841 198.271">
  <g id="Grupo_87636" data-name="Grupo 87636" transform="translate(0 0)">
    <path id="Trazado_139415" data-name="Trazado 139415" d="M953.284,303.38A64.578,64.578,0,0,0,846.53,259.9a28.533,28.533,0,0,1-30.367,4.348h0a29.073,29.073,0,0,1-17.011-26.093q-.04-1.8-.18-3.615a64.617,64.617,0,0,0-129.035,5.076v.166a25.962,25.962,0,0,1-15.361,23.734l-3.432,1.536a25.3,25.3,0,0,1-27.366-4.082,64.829,64.829,0,0,0-16.321-10.891l-.188-.089c-.666-.308-1.339-.6-2.016-.886-.256-.109-.51-.22-.768-.326-.529-.215-1.064-.417-1.6-.618-.417-.157-.833-.315-1.252-.464s-.834-.284-1.254-.422c-.55-.181-1.1-.359-1.658-.527-.323-.1-.649-.188-.975-.28-.656-.187-1.314-.364-1.977-.528-.259-.065-.52-.125-.78-.187q-1.087-.257-2.187-.475c-.231-.047-.465-.091-.7-.134q-1.124-.211-2.259-.38c-.247-.038-.5-.072-.744-.107q-1.085-.148-2.177-.261-.472-.05-.946-.092c-.3-.026-.593-.064-.892-.086s-.614-.025-.921-.043c-.545-.033-1.089-.06-1.637-.078-.511-.018-1.023-.032-1.531-.038-.259,0-.515-.018-.775-.018-.347,0-.69.018-1.035.024-.446.007-.89.015-1.333.031-.657.024-1.311.063-1.963.106-.387.027-.776.049-1.16.082-.734.061-1.463.142-2.19.228-.3.036-.6.065-.9.1-.894.12-1.78.26-2.662.417-.128.022-.259.039-.386.063a64.064,64.064,0,0,0-9.193,2.4l-.033.011q-1.45.5-2.87,1.061l-.224.093q-1.325.529-2.62,1.117l-.291.135q-1.272.583-2.513,1.219l-.263.138q-1.264.656-2.495,1.364l-.184.106q-1.293.75-2.548,1.557l-.039.025a64.921,64.921,0,0,0-7.648,5.753c-.327.287-.67.552-1.009.82a28.565,28.565,0,0,1-29.132,3.353h0a29.073,29.073,0,0,1-17.012-26.093q-.04-1.8-.178-3.615a64.306,64.306,0,0,0-18.6-40.34l-.031-.031q-.9-.911-1.846-1.784c-.079-.074-.157-.15-.237-.224-.564-.52-1.139-1.027-1.722-1.527-.15-.128-.3-.26-.447-.387-.522-.44-1.056-.869-1.591-1.293-.22-.175-.439-.352-.662-.524-.481-.371-.97-.73-1.461-1.087-.287-.21-.574-.423-.865-.628-.442-.311-.892-.61-1.341-.91-.351-.234-.7-.471-1.056-.7-.408-.26-.825-.511-1.238-.763s-.812-.5-1.223-.734c-.383-.22-.77-.432-1.158-.645-.453-.249-.905-.5-1.364-.738-.365-.189-.734-.371-1.1-.553-.49-.244-.981-.486-1.479-.717-.351-.164-.706-.319-1.062-.476-.521-.23-1.043-.46-1.571-.677-.348-.143-.7-.279-1.052-.416-.54-.21-1.08-.419-1.626-.616-.358-.13-.72-.249-1.081-.372-.546-.185-1.092-.369-1.644-.54-.373-.116-.751-.223-1.127-.332-.545-.157-1.089-.313-1.64-.457-.4-.1-.8-.2-1.2-.3-.532-.127-1.063-.254-1.6-.368-.433-.092-.869-.174-1.305-.256-.511-.1-1.024-.2-1.539-.281-.471-.078-.946-.145-1.419-.212s-.97-.138-1.457-.2c-.514-.061-1.031-.11-1.548-.159-.306-.028-.609-.07-.915-.093-.132-.011-.262-.011-.394-.021-.2-.014-.407-.04-.613-.053-.525-.033-1.045-.038-1.569-.059-.5-.021-1.009-.047-1.509-.056-.678-.013-1.35,0-2.023.008-.524.007-1.049.006-1.571.025-.624.024-1.243.071-1.862.113-.561.038-1.124.064-1.681.114-.534.05-1.059.124-1.588.185-.634.075-1.269.139-1.9.231-.256.038-.507.091-.762.132a63.806,63.806,0,0,0-8.709,2.018c-.106.032-.215.059-.32.092-.868.272-1.722.573-2.574.879-.2.071-.4.134-.592.206-.82.305-1.627.635-2.431.972-.217.091-.439.176-.655.269-.8.343-1.577.709-2.356,1.084-.213.1-.429.2-.641.3-.775.383-1.537.786-2.293,1.2-.206.113-.414.221-.619.336-.756.423-1.5.865-2.237,1.316-.192.118-.386.234-.575.352q-1.114.7-2.2,1.445c-.171.118-.344.235-.515.355q-1.1.767-2.156,1.578c-.149.114-.3.227-.447.343q-1.08.84-2.124,1.723l-.364.311q-1.07.919-2.1,1.882c-.089.084-.178.169-.266.254q-1.064,1.007-2.083,2.062c-.052.053-.1.107-.152.16q-1.064,1.11-2.076,2.268l-.02.022a64.323,64.323,0,0,0-15.858,42.555,25.964,25.964,0,0,1-15.361,23.7l-3.432,1.536a25.3,25.3,0,0,1-27.366-4.082,64.484,64.484,0,0,0-86.1-.9,27.711,27.711,0,0,1-29.595,4.428l-.478-.213a29.106,29.106,0,0,1-17.106-26.132q-.035-1.6-.15-3.226a64.686,64.686,0,1,0-22.1,53.44,28.531,28.531,0,0,1,30.365-4.348A29.072,29.072,0,0,1,207,310.114a66.771,66.771,0,0,0,.5,6.79,64.622,64.622,0,0,0,128.715-8.249v-.166a25.963,25.963,0,0,1,15.362-23.734l3.432-1.536a25.3,25.3,0,0,1,27.366,4.082,64.816,64.816,0,0,0,16.311,10.885l.192.093c.669.309,1.346.6,2.025.889.251.107.5.216.754.319.532.217,1.073.422,1.613.625.412.156.826.312,1.243.46s.84.286,1.261.425c.547.181,1.095.358,1.648.524.329.1.658.191.989.284q.976.278,1.964.525c.263.065.527.127.791.189q1.082.255,2.176.474.353.069.706.134,1.122.211,2.257.38c.247.038.493.072.741.107q1.082.148,2.177.26.474.05.95.092c.3.026.588.064.885.085s.613.026.919.045q.821.05,1.645.078c.51.018,1.017.031,1.524.038.26,0,.52.018.78.018.354,0,.7-.018,1.053-.024.429-.007.858-.014,1.286-.029.671-.025,1.34-.064,2.007-.109.369-.024.74-.045,1.106-.075.766-.065,1.527-.149,2.286-.24.263-.032.528-.056.791-.091a64.228,64.228,0,0,0,9.244-1.927c.049-.014.1-.031.145-.045q1.417-.41,2.8-.882c.12-.04.238-.085.358-.127q1.287-.445,2.548-.942c.137-.053.269-.109.4-.163q1.247-.5,2.467-1.053l.364-.166q1.258-.577,2.487-1.208l.244-.124q1.331-.69,2.627-1.438l.017-.008A64.956,64.956,0,0,0,468,288.607a28.733,28.733,0,0,1,47.625,21.507,67.16,67.16,0,0,0,.5,6.79c.07.553.194,1.089.277,1.64.1.628.2,1.254.318,1.878q.416,2.273.993,4.488c.039.15.077.3.118.454a64.907,64.907,0,0,0,37.415,42.852c.088.036.174.077.262.114q1.463.608,2.957,1.145,1.266.458,2.553.865c.7.219,1.4.425,2.113.62q1.755.485,3.548.873c.508.109,1.02.206,1.532.3,1.4.267,2.822.494,4.257.666.111.013.219.039.331.051.332.038.659.052.99.085.405.039.807.092,1.213.124.217.017.433.018.651.033.671.046,1.339.077,2.006.1.564.022,1.127.043,1.688.052.628.008,1.252,0,1.878-.008.589-.01,1.179-.018,1.765-.043s1.162-.064,1.741-.1c.62-.043,1.238-.086,1.854-.146.529-.052,1.055-.118,1.581-.184.653-.079,1.308-.16,1.956-.26.474-.072.943-.16,1.414-.244.688-.123,1.375-.244,2.056-.387.412-.088.821-.189,1.23-.284.729-.169,1.454-.339,2.173-.531.343-.093.681-.2,1.022-.3.773-.221,1.545-.447,2.305-.7.263-.086.524-.184.787-.274.827-.283,1.651-.573,2.463-.887.169-.065.333-.139.5-.206.9-.357,1.789-.726,2.665-1.121l.146-.07a64.679,64.679,0,0,0,37.954-59.051,25.961,25.961,0,0,1,15.361-23.7l3.432-1.536A25.294,25.294,0,0,1,691,287.3a64.486,64.486,0,0,0,85.632,1.308,28.875,28.875,0,0,1,30.638-4.584h0a29.073,29.073,0,0,1,17.012,26.094q.04,1.805.181,3.632A64.619,64.619,0,1,0,953.284,303.38Z" transform="translate(-52.654 -174.998)" fill="#00bcd4"/>
    <g id="Grupo_87626" data-name="Grupo 87626" transform="translate(13.151 13.152)">
      <circle id="Elipse_4193" data-name="Elipse 4193" cx="47.749" cy="47.749" r="47.749" transform="translate(0 95.184) rotate(-85.348)" fill="#fff"/>
      <g id="Grupo_87625" data-name="Grupo 87625" transform="translate(21.56 23.852)">
        <path id="Trazado_139416" data-name="Trazado 139416" d="M121.672,207.282l-6.933,3.467-1.55-3.1,6.934-3.466Z" transform="translate(-63.574 -200.531)"/>
        <path id="Trazado_139417" data-name="Trazado 139417" d="M120.122,228.172l-6.934-3.466,1.552-3.1,6.933,3.467Z" transform="translate(-63.574 -193.684)"/>
        <path id="Trazado_139418" data-name="Trazado 139418" d="M114.989,214.005h7.049v3.467h-7.049Z" transform="translate(-62.866 -196.67)"/>
        <path id="Trazado_139419" data-name="Trazado 139419" d="M79.893,204.181l6.934,3.467-1.55,3.1-6.934-3.467Z" transform="translate(-77.269 -200.531)"/>
        <path id="Trazado_139420" data-name="Trazado 139420" d="M79.893,228.171l-1.55-3.1,6.933-3.467,1.55,3.1Z" transform="translate(-77.269 -193.684)"/>
        <path id="Trazado_139421" data-name="Trazado 139421" d="M77.572,214.005h7.05v3.467h-7.05Z" transform="translate(-77.572 -196.67)"/>
        <path id="Trazado_139422" data-name="Trazado 139422" d="M95.078,241.549h10.4v3.467h-10.4Z" transform="translate(-70.692 -185.845)"/>
        <path id="Trazado_139423" data-name="Trazado 139423" d="M123.26,220.63a19.069,19.069,0,1,0-27.736,16.96v5.575H92.056v3.467h3.467V253.8h17.335v-7.166h3.467v-3.467h-3.467V237.59A19.074,19.074,0,0,0,123.26,220.63Zm-13.869,29.7h-10.4v-3.7h10.4ZM102.457,224.1a1.734,1.734,0,1,1,1.734,1.733A1.736,1.736,0,0,1,102.457,224.1Zm3.467,19.068V229a5.2,5.2,0,1,0-3.467,0v14.166H98.991v-7.8l-1.038-.454a15.6,15.6,0,1,1,12.476,0l-1.038.454v7.8Z" transform="translate(-74.605 -201.561)"/>
      </g>
    </g>
    <line id="Línea_135" data-name="Línea 135" y1="18.496" transform="translate(218.943 35.648)" fill="none" stroke="#303030" stroke-linecap="round" stroke-miterlimit="10" stroke-width="2" stroke-dasharray="0 4"/>
    <line id="Línea_136" data-name="Línea 136" y1="18.496" transform="translate(527.597 35.648)" fill="none" stroke="#303030" stroke-linecap="round" stroke-miterlimit="10" stroke-width="2" stroke-dasharray="0 4"/>
    <line id="Línea_137" data-name="Línea 137" y1="18.496" transform="translate(836.252 35.648)" fill="none" stroke="#303030" stroke-linecap="round" stroke-miterlimit="10" stroke-width="2" stroke-dasharray="0 4"/>
    <line id="Línea_138" data-name="Línea 138" y2="18.496" transform="translate(64.616 144.126)" fill="none" stroke="#303030" stroke-linecap="round" stroke-miterlimit="10" stroke-width="2" stroke-dasharray="0 4"/>
    <line id="Línea_139" data-name="Línea 139" y2="18.496" transform="translate(373.27 144.126)" fill="none" stroke="#303030" stroke-linecap="round" stroke-miterlimit="10" stroke-width="2" stroke-dasharray="0 4"/>
    <line id="Línea_140" data-name="Línea 140" y2="18.496" transform="translate(681.925 144.126)" fill="none" stroke="#303030" stroke-linecap="round" stroke-miterlimit="10" stroke-width="2" stroke-dasharray="0 4"/>
    <g id="Grupo_87628" data-name="Grupo 87628" transform="translate(171.194 85.907)">
      <circle id="Elipse_4194" data-name="Elipse 4194" cx="47.749" cy="47.749" r="47.749" fill="#fff"/>
      <g id="Grupo_87627" data-name="Grupo 87627" transform="translate(17.918 16.947)">
        <path id="Trazado_139424" data-name="Trazado 139424" d="M212.282,264.005a8.736,8.736,0,1,0,8.736,8.736A8.745,8.745,0,0,0,212.282,264.005Zm0,13.978a5.242,5.242,0,1,1,5.242-5.242A5.248,5.248,0,0,1,212.282,277.983Z" transform="translate(-182.463 -242.87)"/>
        <path id="Trazado_139425" data-name="Trazado 139425" d="M210.514,273.444l-2.471-2.471,2.471-2.47,2.471,2.47Z" transform="translate(-180.695 -241.102)"/>
        <path id="Trazado_139426" data-name="Trazado 139426" d="M231.846,289.991a50.6,50.6,0,0,0-.49-10.487,54.745,54.745,0,0,0-10.679-24.737l-4.451-5.934-4.451,5.934A54.731,54.731,0,0,0,201.1,279.5a50.5,50.5,0,0,0-.49,10.487,17.079,17.079,0,0,0-7.095,13.856v4.686l3.629-2.659a15.609,15.609,0,0,1,6.016-2.375c.662,2.062,1.151,3.24,1.814,5.039,1.153-.772,3.923-4.192,9.509-4.862v4.846h3.494v-4.846c5.6.671,8.366,4.1,9.509,4.862.667-1.811,1.152-2.977,1.814-5.039a15.626,15.626,0,0,1,6.016,2.375l3.627,2.659v-4.686A17.085,17.085,0,0,0,231.846,289.991Zm-34.692,11.841a13.475,13.475,0,0,1,3.864-7.631,54.239,54.239,0,0,0,1.166,5.923A19.175,19.175,0,0,0,197.154,301.832Zm28.682,1a18.073,18.073,0,0,0-7.864-2.672V291.05h-3.5v9.113a18.073,18.073,0,0,0-7.864,2.672c-5.213-15.89-2.424-32.131,7.957-45.971l1.655-2.207,1.655,2.207C228.26,270.7,231.049,286.945,225.836,302.835Zm4.43-2.711a54.574,54.574,0,0,0,1.167-5.923,13.475,13.475,0,0,1,3.864,7.631A19.167,19.167,0,0,0,230.266,300.124Z" transform="translate(-186.407 -248.833)"/>
        <path id="Trazado_139427" data-name="Trazado 139427" d="M188.411,258.988h10.6v3.494h-10.6Z" transform="translate(-188.411 -244.842)"/>
        <path id="Trazado_139428" data-name="Trazado 139428" d="M223.614,258.988h10.6v3.494h-10.6Z" transform="translate(-174.576 -244.842)"/>
        <path id="Trazado_139429" data-name="Trazado 139429" d="M191.439,250.094l9.5,4.43-1.477,3.168-9.5-4.431Z" transform="translate(-187.801 -248.337)"/>
        <path id="Trazado_139430" data-name="Trazado 139430" d="M231.291,272.535l-9.5-4.431,1.477-3.166,9.5,4.43Z" transform="translate(-175.292 -242.504)"/>
        <path id="Trazado_139431" data-name="Trazado 139431" d="M189.962,269.366l9.5-4.43,1.477,3.168-9.5,4.43Z" transform="translate(-187.801 -242.504)"/>
        <path id="Trazado_139432" data-name="Trazado 139432" d="M231.293,250.094l1.477,3.166-9.5,4.43-1.477-3.166Z" transform="translate(-175.292 -248.337)"/>
      </g>
    </g>
    <g id="Grupo_87629" data-name="Grupo 87629" transform="translate(318.42 9.766)">
      <circle id="Elipse_4195" data-name="Elipse 4195" cx="47.749" cy="47.749" r="47.749" transform="translate(0 94.238) rotate(-80.682)" fill="#fff"/>
      <path id="Trazado_139433" data-name="Trazado 139433" d="M358.788,255.065h-3.455v-25.31l3.455,3.455V213.493H339.071l6.195,6.195-5.969,5.968-13.369-9.942-22.645,16.1V199.56h-3.455v58.96h58.96Zm-34.661-25.342v25.342H313.762V237.091Zm3.455.164,10.478,7.8v17.382H327.581Zm13.933,8.208,10.364-10.364v27.334H341.514ZM325.88,219.984l13.749,10.225,10.521-10.521-2.739-2.74h7.921v7.921l-2.739-2.739-12.65,12.649-14.118-10.5L303.283,240.3v-4.253Zm-22.6,24.556,7.025-4.994v15.518h-7.025Z" transform="translate(-273.93 -175.11)"/>
    </g>
    <g id="Grupo_87631" data-name="Grupo 87631" transform="translate(627.061 9.766)">
      <circle id="Elipse_4196" data-name="Elipse 4196" cx="47.749" cy="47.749" r="47.749" transform="translate(0 94.238) rotate(-80.682)" fill="#fff"/>
      <g id="Grupo_87630" data-name="Grupo 87630" transform="translate(24.422 21.766)">
        <path id="Trazado_139434" data-name="Trazado 139434" d="M547.179,214.256a5.345,5.345,0,0,0-1.126-8.61l3.878-8.013H529.972l3.877,8.013a5.344,5.344,0,0,0-1.123,8.61c-9.631,7.372-12.4,19.044-12.4,31.17v9.521h32.106v3.568h28.776V222.842H554.626A28.19,28.19,0,0,0,547.179,214.256Zm-10.795-2.116a1.784,1.784,0,0,1,0-3.568h7.135a1.784,1.784,0,0,1,0,3.568Zm7.858-10.939L542.4,205h-4.9l-1.842-3.8ZM523.9,251.381v-5.955c0-14.529,4.25-24.257,12.988-29.719h6.129a24.555,24.555,0,0,1,9.421,10.657v25.017Zm53.748,3.566H556v-7.134h21.642ZM556,244.246v-7.135h21.642v7.135Zm21.642-17.836v7.134H556V226.41Z" transform="translate(-520.331 -197.633)"/>
        <path id="Trazado_139435" data-name="Trazado 139435" d="M535.926,223.642a1.785,1.785,0,0,1,1.783,1.783h3.568a5.359,5.359,0,0,0-3.568-5.044v-2.09h-3.568v2.09a5.351,5.351,0,0,0,1.784,10.4,1.783,1.783,0,1,1-1.784,1.783h-3.566a5.36,5.36,0,0,0,3.566,5.044v2.091h3.568V237.6a5.35,5.35,0,0,0-1.783-10.395,1.784,1.784,0,1,1,0-3.568Z" transform="translate(-516.305 -189.514)"/>
      </g>
    </g>
    <g id="Grupo_87633" data-name="Grupo 87633" transform="translate(479.848 85.907)">
      <circle id="Elipse_4197" data-name="Elipse 4197" cx="47.749" cy="47.749" r="47.749" fill="#fff"/>
      <g id="Grupo_87632" data-name="Grupo 87632" transform="translate(18.254 14.191)">
        <path id="Trazado_139436" data-name="Trazado 139436" d="M459.264,262.688l3.041-3.04,2.74,2.74,2.74-2.74-8.22-8.22-2.74,2.739,2.74,2.741-3.3,3.3a28.752,28.752,0,0,0-11.167-4.892V250.73h3.875v-3.875H429.6v3.875h3.875v4.583a28.752,28.752,0,0,0-11.167,4.892l-3.3-3.3,2.741-2.741-2.741-2.739-8.22,8.22,2.74,2.74,2.74-2.74,3.041,3.04a29.065,29.065,0,1,0,39.952,0ZM437.35,250.73h3.875v4.07c-.642-.042-1.289-.065-1.938-.065s-1.3.024-1.938.065Zm1.938,58.388a25.254,25.254,0,1,1,25.19-25.318A25.282,25.282,0,0,1,439.288,309.119Z" transform="translate(-410.224 -246.855)"/>
        <path id="Trazado_139437" data-name="Trazado 139437" d="M434.666,273.91V258.076H430.79V273.91a5.813,5.813,0,1,0,3.875,0Zm-1.938,7.416a1.937,1.937,0,1,1,1.938-1.936A1.94,1.94,0,0,1,432.728,281.327Z" transform="translate(-403.664 -242.445)"/>
        <path id="Trazado_139438" data-name="Trazado 139438" d="M429.7,285.895h3.875v3.875H429.7Z" transform="translate(-402.571 -231.512)"/>
        <path id="Trazado_139439" data-name="Trazado 139439" d="M415.788,271.986h3.875v3.874h-3.875Z" transform="translate(-408.037 -236.978)"/>
        <path id="Trazado_139440" data-name="Trazado 139440" d="M443.607,271.986h3.875v3.874h-3.875Z" transform="translate(-397.104 -236.978)"/>
        <path id="Trazado_139441" data-name="Trazado 139441" d="M422.026,286.727l-2.741-2.74,2.741-2.741,2.739,2.741Z" transform="translate(-406.663 -233.339)"/>
        <path id="Trazado_139442" data-name="Trazado 139442" d="M441.7,267.054l-2.74-2.74,2.74-2.74,2.74,2.74Z" transform="translate(-398.931 -241.07)"/>
        <path id="Trazado_139443" data-name="Trazado 139443" d="M441.7,286.726l-2.74-2.74,2.74-2.74,2.74,2.74Z" transform="translate(-398.931 -233.339)"/>
        <path id="Trazado_139444" data-name="Trazado 139444" d="M422.026,267.054l-2.741-2.74,2.741-2.74,2.74,2.74Z" transform="translate(-406.663 -241.07)"/>
      </g>
    </g>
    <g id="Grupo_87635" data-name="Grupo 87635" transform="translate(788.49 85.907)">
      <circle id="Elipse_4198" data-name="Elipse 4198" cx="47.749" cy="47.749" r="47.749" transform="translate(0)" fill="#fff"/>
      <g id="Grupo_87634" data-name="Grupo 87634" transform="translate(17.309 18.214)">
        <path id="Trazado_139445" data-name="Trazado 139445" d="M648.689,277.531l7.861-4.133,7.861,4.133-1.5-8.754,6.359-6.2-8.789-1.277-3.93-7.964-3.931,7.964-8.789,1.277,6.359,6.2Zm6.3-12.969,1.562-3.165,1.562,3.165,3.491.507-2.526,2.463.6,3.478-3.123-1.642-3.125,1.642.6-3.478-2.527-2.463Z" transform="translate(-626.109 -248.331)"/>
        <path id="Trazado_139446" data-name="Trazado 139446" d="M640.027,257a8.918,8.918,0,0,0,0,17.836h2.53A19.758,19.758,0,0,0,656.2,288.367v7.868h-6.641l-3.568,10.82H641.93v3.568h39.239v-3.568h-4.061l-3.568-10.82H666.9v-7.876a19.7,19.7,0,0,0,13.526-13.526h2.644a8.918,8.918,0,0,0,0-17.836h-1.9v-3.686h3.686v-3.568h-46.61v3.568h3.566V257Zm0,14.269a5.351,5.351,0,0,1,0-10.7h1.783v8.917c0,.6.029,1.2.082,1.784Zm33.324,35.789h-23.6l2.39-7.252h18.824Zm-10.018-10.82h-3.568v-7.216q.882.079,1.784.081t1.783-.081Zm19.738-35.671a5.351,5.351,0,1,1,0,10.7h-1.984c.053-.588.082-1.183.082-1.784v-8.917Zm-5.469-7.253v16.17a16.112,16.112,0,0,1-32.223,0v-16.17Z" transform="translate(-631.109 -249.743)"/>
      </g>
    </g>
  </g>
</svg>
