<svg xmlns="http://www.w3.org/2000/svg" xmlns:xlink="http://www.w3.org/1999/xlink" width="91.927" height="91.927" viewBox="0 0 91.927 91.927">
  <defs>
    <radialGradient id="radial-gradient" cx="0.076" cy="0.019" r="1.465" gradientTransform="translate(0.001)" gradientUnits="objectBoundingBox">
      <stop offset="0" stop-color="#f6f6f7"/>
      <stop offset="0.477" stop-color="#f9f9fa"/>
      <stop offset="0.715" stop-color="#fff"/>
    </radialGradient>
  </defs>
  <g id="Grupo_46263" data-name="Grupo 46263" transform="translate(-217 -741.333)">
    <g id="Grupo_42274" data-name="Grupo 42274" transform="translate(142 768.333)">
      <g id="Grupo_18423" data-name="Grupo 18423" transform="translate(75 -27)">
        <g id="Grupo_18421" data-name="Grupo 18421">
          <g id="Grupo_18420" data-name="Grupo 18420">
            <g id="Grupo_18419" data-name="Grupo 18419">
              <path id="Trazado_40936" data-name="Trazado 40936" d="M286.55,2191.684a45.964,45.964,0,1,1-45.963-45.962A45.963,45.963,0,0,1,286.55,2191.684Z" transform="translate(-194.623 -2145.721)" fill="#fff"/>
            </g>
          </g>
        </g>
        <path id="Trazado_40937" data-name="Trazado 40937" d="M286.23,2191.334a45.963,45.963,0,1,0-45.963,45.965A45.782,45.782,0,0,0,286.23,2191.334Z" transform="translate(-194.303 -2145.372)" fill="url(#radial-gradient)"/>
        <path id="Trazado_40938" data-name="Trazado 40938" d="M272.56,2188.562a35.084,35.084,0,1,0-35.084,35.084A34.953,34.953,0,0,0,272.56,2188.562Z" transform="translate(-191.373 -2142.446)" fill="none" stroke="#7d6eb2" stroke-miterlimit="10" stroke-width="4"/>
        <g id="Grupo_18422" data-name="Grupo 18422" transform="translate(8.143 25.805)">
          <path id="Trazado_40939" data-name="Trazado 40939" d="M279.682,2164.488a45.969,45.969,0,0,1-79.137,45.773,45.823,45.823,0,0,0,79.137-45.773Z" transform="translate(-200.545 -2164.488)" fill="#eceef0"/>
        </g>
      </g>
    </g>
    <g id="AjL3r1" transform="translate(655.292 350.339)">
      <g id="Grupo_87682" data-name="Grupo 87682" transform="translate(-412.204 418.747)">
        <path id="Trazado_139492" data-name="Trazado 139492" d="M-403.969,450.915h0c0,.738-.008,1.477,0,2.215.01.713-.147.577.595.8a25.3,25.3,0,0,0,11.41.959,13.87,13.87,0,0,0,3.734-1.09.375.375,0,0,0,.267-.385c-.012-1.585.02-3.171-.018-4.755a5.933,5.933,0,0,0-5.629-5.83,45.273,45.273,0,0,0-4.556-.009,5.967,5.967,0,0,0-5.8,5.946C-403.989,449.482-403.969,450.2-403.969,450.915Zm-1.093-.612a8.557,8.557,0,0,1,.989-5.138,7.327,7.327,0,0,1,4.081-3.19,5.877,5.877,0,0,1-1.775-3.992c-.148-.011-.266-.026-.383-.026-1.378,0-2.756-.01-4.134.007a5.507,5.507,0,0,0-1.192.14,5.989,5.989,0,0,0-4.721,5.988c0,1.487.008,2.974-.008,4.461,0,.28.079.4.352.465,1.533.339,3.058.714,4.6,1.027C-406.561,450.187-405.843,450.215-405.061,450.3Zm14.9-12.35a5.887,5.887,0,0,1-1.77,4.021c.148.055.258.095.367.137a7.094,7.094,0,0,1,4.389,4.58,9.018,9.018,0,0,1,.332,3.027c0,.192,0,.383,0,.645,1.009-.126,1.969-.218,2.919-.371a13.022,13.022,0,0,0,3.448-1.031.417.417,0,0,0,.277-.445c-.013-1.161,0-2.323-.007-3.485a15.247,15.247,0,0,0-.035-1.725,5.976,5.976,0,0,0-5.784-5.338c-1.182-.042-2.366-.013-3.549-.016Zm6.108-.727a17.671,17.671,0,0,1,1.972,1.1,6.957,6.957,0,0,1,2.97,5.86c0,.452,0,.9,0,1.413.68-.061,1.317-.1,1.948-.179a15.593,15.593,0,0,0,4.268-1.108.6.6,0,0,0,.442-.667c-.033-1,0-2-.014-3a22.09,22.09,0,0,0-.084-2.339,5.976,5.976,0,0,0-5.556-5.061c-1.378-.036-2.757-.013-4.136-.014-.052,0-.1.015-.074.011a16.084,16.084,0,0,1-.624,2.154A14.793,14.793,0,0,1-384.053,437.227Zm-17.232-13.419a5.092,5.092,0,0,0,5.057,5.132,5.112,5.112,0,0,0,5.125-5.04,5.118,5.118,0,0,0-5.049-5.151A5.1,5.1,0,0,0-401.285,423.808Zm10.013,13.966a4.705,4.705,0,0,0-4.686-4.684,4.7,4.7,0,0,0-4.693,4.7,4.7,4.7,0,0,0,4.714,4.684A4.705,4.705,0,0,0-391.272,437.774Zm-12.527-.158a4.2,4.2,0,0,0,1.879-.6.58.58,0,0,0,.258-.332A5.294,5.294,0,0,1-400,433.66a1.26,1.26,0,0,0,.448-1.335c-.015-.074-.018-.151-.032-.225a4.681,4.681,0,0,0-5.049-3.829,4.674,4.674,0,0,0-4.246,4.567A4.756,4.756,0,0,0-403.8,437.616Zm28.043-9.412c-.034-.29-.052-.584-.1-.87a4.71,4.71,0,0,0-4.986-3.8,4.718,4.718,0,0,0-4.284,4.3.5.5,0,0,0,.247.5,5.633,5.633,0,0,1,2.386,3.839.44.44,0,0,0,.313.393A4.708,4.708,0,0,0-375.756,428.2Zm-12.445,9.507.02-.085a4.535,4.535,0,0,0,1.923-.42,4.688,4.688,0,0,0,2.7-4.984A4.7,4.7,0,0,0-387.5,428.3a4.707,4.707,0,0,0-5.367,4.249.516.516,0,0,0,.242.509,5.71,5.71,0,0,1,2.407,3.866.5.5,0,0,0,.268.343C-389.376,437.439-388.786,437.568-388.2,437.712Zm-11.434-8.289a6.3,6.3,0,0,1,1,3.216,5.77,5.77,0,0,1,2.422-.671,5.825,5.825,0,0,1,2.417.418,14.53,14.53,0,0,1,.367-1.539,15.216,15.216,0,0,1,.694-1.47A47.6,47.6,0,0,0-399.635,429.423Z" transform="translate(412.204 -418.747)" fill="#12263f"/>
        <path id="Trazado_139493" data-name="Trazado 139493" d="M-285.873,795.686c0-.717-.02-1.434,0-2.149a5.967,5.967,0,0,1,5.8-5.946,45.237,45.237,0,0,1,4.556.009,5.933,5.933,0,0,1,5.629,5.83c.037,1.584.005,3.17.018,4.755a.375.375,0,0,1-.267.385,13.87,13.87,0,0,1-3.734,1.09,25.3,25.3,0,0,1-11.41-.959c-.742-.222-.585-.087-.595-.8-.011-.738,0-1.476,0-2.215Z" transform="translate(294.109 -763.518)" fill="#12263f"/>
        <path id="Trazado_139494" data-name="Trazado 139494" d="M-405.061,726c-.782-.088-1.5-.116-2.2-.258-1.538-.313-3.063-.689-4.6-1.027-.272-.06-.355-.184-.352-.465.015-1.487,0-2.974.008-4.461a5.99,5.99,0,0,1,4.721-5.988,5.511,5.511,0,0,1,1.192-.14c1.378-.017,2.756-.008,4.134-.007.117,0,.235.016.383.026a5.877,5.877,0,0,0,1.775,3.992,7.327,7.327,0,0,0-4.081,3.19A8.557,8.557,0,0,0-405.061,726Z" transform="translate(412.204 -694.449)" fill="#12263f"/>
        <path id="Trazado_139495" data-name="Trazado 139495" d="M-99.166,713.537h.587c1.183,0,2.367-.026,3.549.016a5.976,5.976,0,0,1,5.784,5.338,15.243,15.243,0,0,1,.035,1.724c0,1.162-.006,2.323.007,3.485a.417.417,0,0,1-.277.445,13.02,13.02,0,0,1-3.448,1.031c-.95.152-1.91.245-2.919.371,0-.262,0-.454,0-.645a9.017,9.017,0,0,0-.332-3.026,7.094,7.094,0,0,0-4.389-4.58c-.109-.042-.219-.082-.367-.137A5.887,5.887,0,0,0-99.166,713.537Z" transform="translate(121.209 -694.33)" fill="#12263f"/>
        <path id="Trazado_139496" data-name="Trazado 139496" d="M20.025,645.149a14.8,14.8,0,0,0,1.113-1.824,16.085,16.085,0,0,0,.623-2.154c-.03,0,.022-.011.074-.011,1.379,0,2.758-.022,4.136.014a5.976,5.976,0,0,1,5.556,5.061,22.1,22.1,0,0,1,.084,2.339c.013,1-.018,2,.014,3a.6.6,0,0,1-.442.667,15.594,15.594,0,0,1-4.268,1.108c-.631.079-1.268.117-1.948.178,0-.508,0-.96,0-1.413a6.957,6.957,0,0,0-2.97-5.86A17.678,17.678,0,0,0,20.025,645.149Z" transform="translate(8.126 -626.67)" fill="#12263f"/>
        <path id="Trazado_139497" data-name="Trazado 139497" d="M-244.56,423.808a5.1,5.1,0,0,1,5.132-5.059,5.118,5.118,0,0,1,5.049,5.151,5.112,5.112,0,0,1-5.125,5.04A5.092,5.092,0,0,1-244.56,423.808Z" transform="translate(255.48 -418.747)" fill="#12263f"/>
        <path id="Trazado_139498" data-name="Trazado 139498" d="M-225.435,643.659a4.705,4.705,0,0,1-4.665,4.7,4.7,4.7,0,0,1-4.714-4.684,4.7,4.7,0,0,1,4.693-4.7A4.705,4.705,0,0,1-225.435,643.659Z" transform="translate(246.368 -624.631)" fill="#12263f"/>
        <path id="Trazado_139499" data-name="Trazado 139499" d="M-356.108,574.1a4.756,4.756,0,0,1-5.081-4.778,4.674,4.674,0,0,1,4.246-4.567,4.681,4.681,0,0,1,5.049,3.829c.014.074.017.151.032.225a1.26,1.26,0,0,1-.448,1.335,5.294,5.294,0,0,0-1.661,3.026.58.58,0,0,1-.258.332A4.2,4.2,0,0,1-356.108,574.1Z" transform="translate(364.513 -555.226)" fill="#12263f"/>
        <path id="Trazado_139500" data-name="Trazado 139500" d="M12.822,496.783a4.708,4.708,0,0,1-6.429,4.37.44.44,0,0,1-.313-.393,5.633,5.633,0,0,0-2.386-3.839.5.5,0,0,1-.247-.5,4.682,4.682,0,0,1,9.27-.5C12.771,496.2,12.788,496.493,12.822,496.783Z" transform="translate(23.626 -487.325)" fill="#12263f"/>
        <path id="Trazado_139501" data-name="Trazado 139501" d="M-110.7,574.015c-.585-.144-1.174-.273-1.752-.443a.5.5,0,0,1-.268-.343,5.71,5.71,0,0,0-2.407-3.866.516.516,0,0,1-.242-.509A4.707,4.707,0,0,1-110,564.6a4.7,4.7,0,0,1,3.941,3.922,4.688,4.688,0,0,1-2.7,4.984,4.533,4.533,0,0,1-1.923.42Z" transform="translate(134.705 -555.05)" fill="#12263f"/>
        <path id="Trazado_139502" data-name="Trazado 139502" d="M-219.216,580.524a47.59,47.59,0,0,1,6.9-.046,15.2,15.2,0,0,0-.694,1.47,14.529,14.529,0,0,0-.367,1.539,5.826,5.826,0,0,0-2.417-.418,5.77,5.77,0,0,0-2.422.672A6.3,6.3,0,0,0-219.216,580.524Z" transform="translate(231.785 -569.848)" fill="#12263f"/>
      </g>
    </g>
  </g>
</svg>
