<svg xmlns="http://www.w3.org/2000/svg" width="276.208" height="288.132" viewBox="0 0 276.208 288.132">
  <g id="Grupo_79784" data-name="Grupo 79784" transform="translate(-656.265 -4680.699)">
    <g id="Grupo_56942" data-name="Grupo 56942" transform="translate(666.639 4698.699)">
      <rect id="Rectángulo_5293" data-name="Rectángulo 5293" width="124.529" height="175.326" transform="translate(14.167 9.284)" fill="#344154" opacity="0.15"/>
      <g id="Grupo_56682" data-name="Grupo 56682" transform="translate(94.167 187.199)">
        <g id="Grupo_56681" data-name="Grupo 56681">
          <path id="Trazado_101894" data-name="Trazado 101894" d="M976.989,5001.185a26.093,26.093,0,0,0-6.382-2.774l-1.314-6.318-10.674-.185-1.535,6.266a26.106,26.106,0,0,0-6.477,2.547l-5.394-3.536-7.679,7.416,3.344,5.514a26.087,26.087,0,0,0-2.774,6.383l-6.317,1.315-.187,10.674,6.267,1.536a26.182,26.182,0,0,0,2.547,6.475l-3.534,5.395,7.414,7.683,5.514-3.346A26.122,26.122,0,0,0,956.19,5049l1.316,6.318,10.673.186,1.537-6.265a26.179,26.179,0,0,0,6.475-2.549l5.394,3.534,7.681-7.413-3.345-5.514a26.087,26.087,0,0,0,2.774-6.384l6.317-1.317.188-10.672-6.267-1.534a26.158,26.158,0,0,0-2.547-6.476l3.536-5.395-7.416-7.683-5.515,3.347ZM971.3,5015.4a11.451,11.451,0,1,1-16.192-.284A11.45,11.45,0,0,1,971.3,5015.4Z" transform="translate(-931.599 -4991.908)" fill="#f5f5f5"/>
        </g>
      </g>
      <g id="Grupo_56683" data-name="Grupo 56683" transform="translate(0 217.383)">
        <path id="Trazado_101895" data-name="Trazado 101895" d="M677.24,5035.662s-.276-.012-.84-.017l-2.555-.015v.063c13.2.065,66.952.114,131.214.114l95.195-.042,28.848-.047,7.843-.028,2.04-.015c.459,0,.694-.014.694-.014s-.235-.011-.694-.015l-2.04-.015-7.843-.027-28.848-.047-95.195-.042c-64.262,0-118.015.049-131.214.115v.063l2.555-.016C676.964,5035.673,677.24,5035.662,677.24,5035.662Z" transform="translate(-673.846 -5035.516)" fill="#1a2e35"/>
      </g>
      <g id="Grupo_56703" data-name="Grupo 56703" transform="translate(24.034 0)">
        <g id="Grupo_56699" data-name="Grupo 56699">
          <g id="Grupo_56685" data-name="Grupo 56685">
            <rect id="Rectángulo_5298" data-name="Rectángulo 5298" width="125.398" height="176.936" transform="translate(0.133 0.146)" fill="#fff"/>
            <g id="Grupo_56684" data-name="Grupo 56684">
              <path id="Trazado_101896" data-name="Trazado 101896" d="M823.986,4898.528c0-1.176.054-72.409.132-176.935l-.132.132,125.384.014h.014l-.146-.146c.01,66.3.02,127.616.028,176.935l.118-.117-125.4.117c.969,0,49.232.047,125.4.119h.118v-.119c.008-49.319.017-110.63.028-176.935v-.146h-.16l-125.384.013h-.133v.133C823.931,4826.12,823.984,4897.352,823.986,4898.528Z" transform="translate(-823.853 -4721.446)" fill="#1a2e35"/>
            </g>
          </g>
          <rect id="Rectángulo_5299" data-name="Rectángulo 5299" width="53.532" height="12.274" rx="6.137" transform="translate(63.552 117.621)" fill="#f5f5f5"/>
          <rect id="Rectángulo_5300" data-name="Rectángulo 5300" width="25.136" height="12.274" rx="6.137" transform="translate(65.711 117.621)" fill="#f5f5f5"/>
          <rect id="Rectángulo_5301" data-name="Rectángulo 5301" width="110.38" height="12.274" rx="6.137" transform="translate(6.956 142.779)" fill="#f5f5f5"/>
          <g id="Grupo_56686" data-name="Grupo 56686" transform="translate(92.505 112.537)">
            <path id="Trazado_101897" data-name="Trazado 101897" d="M838.388,4884.183c0,.08,5.174.146,11.555.146s11.556-.065,11.556-.146-5.173-.146-11.556-.146S838.388,4884.1,838.388,4884.183Z" transform="translate(-838.388 -4884.037)" fill="#1a2e35"/>
          </g>
          <g id="Grupo_56687" data-name="Grupo 56687" transform="translate(77.839 137.568)">
            <path id="Trazado_101898" data-name="Trazado 101898" d="M838.808,4920.346c0,.08,8.392.146,18.742.146s18.744-.066,18.744-.146-8.39-.146-18.744-.146S838.808,4920.266,838.808,4920.346Z" transform="translate(-838.808 -4920.201)" fill="#1a2e35"/>
          </g>
          <rect id="Rectángulo_5302" data-name="Rectángulo 5302" width="53.953" height="13.417" rx="6.508" transform="translate(65.355 89.757)" fill="#e1e1e1"/>
          <rect id="Rectángulo_5303" data-name="Rectángulo 5303" width="112.351" height="13.417" rx="6.508" transform="translate(6.956 8.18)" fill="#e1e1e1"/>
          <g id="Grupo_56688" data-name="Grupo 56688" transform="translate(39.201 14.744)">
            <path id="Trazado_101899" data-name="Trazado 101899" d="M884.46,4742.893c0,.08,9.968.146,22.262.146s22.264-.065,22.264-.146-9.966-.146-22.264-.146S884.46,4742.813,884.46,4742.893Z" transform="translate(-884.46 -4742.747)" fill="#1a2e35"/>
          </g>
          <g id="Grupo_56689" data-name="Grupo 56689" transform="translate(0.133 24.701)">
            <path id="Trazado_101900" data-name="Trazado 101900" d="M823.9,4757.279c0,.081,28.1.146,62.752.146s62.758-.065,62.758-.146-28.092-.146-62.758-.146S823.9,4757.2,823.9,4757.279Z" transform="translate(-823.901 -4757.134)" fill="#ececec"/>
          </g>
          <g id="Grupo_56690" data-name="Grupo 56690" transform="translate(0.133 84.055)">
            <path id="Trazado_101901" data-name="Trazado 101901" d="M823.9,4843.032c0,.081,28.1.146,62.752.146s62.758-.066,62.758-.146-28.092-.146-62.758-.146S823.9,4842.952,823.9,4843.032Z" transform="translate(-823.901 -4842.887)" fill="#ececec"/>
          </g>
          <rect id="Rectángulo_5304" data-name="Rectángulo 5304" width="53.532" height="12.274" rx="6.137" transform="translate(63.552 38.297)" fill="#f5f5f5"/>
          <rect id="Rectángulo_5305" data-name="Rectángulo 5305" width="25.136" height="12.274" rx="6.137" transform="translate(65.711 38.297)" fill="#f5f5f5"/>
          <rect id="Rectángulo_5306" data-name="Rectángulo 5306" width="53.006" height="12.274" rx="6.137" transform="translate(65.355 63.456)" fill="#f5f5f5"/>
          <rect id="Rectángulo_32844" data-name="Rectángulo 32844" width="53.006" height="12.274" rx="6.137" transform="translate(8.458 63.456)" fill="#f5f5f5"/>
          <rect id="Rectángulo_32845" data-name="Rectángulo 32845" width="53.006" height="12.274" rx="6.137" transform="translate(8.458 89.162)" fill="#f5f5f5"/>
          <rect id="Rectángulo_32846" data-name="Rectángulo 32846" width="53.006" height="12.274" rx="6.137" transform="translate(8.458 117.621)" fill="#f5f5f5"/>
          <g id="Grupo_56691" data-name="Grupo 56691" transform="translate(92.505 33.214)">
            <path id="Trazado_101902" data-name="Trazado 101902" d="M838.388,4769.579c0,.08,5.174.146,11.555.146s11.556-.066,11.556-.146-5.173-.146-11.556-.146S838.388,4769.5,838.388,4769.579Z" transform="translate(-838.388 -4769.433)" fill="#1a2e35"/>
          </g>
          <g id="Grupo_56692" data-name="Grupo 56692" transform="translate(37.836 33.214)">
            <path id="Trazado_101903" data-name="Trazado 101903" d="M924.472,4769.579c0,.08,4.074.146,9.1.146s9.1-.066,9.1-.146-4.073-.146-9.1-.146S924.472,4769.5,924.472,4769.579Z" transform="translate(-924.472 -4769.433)" fill="#1a2e35"/>
          </g>
          <g id="Grupo_56693" data-name="Grupo 56693" transform="translate(77.839 58.244)">
            <path id="Trazado_101904" data-name="Trazado 101904" d="M838.808,4805.742c0,.08,8.392.146,18.742.146s18.744-.065,18.744-.146-8.39-.146-18.744-.146S838.808,4805.662,838.808,4805.742Z" transform="translate(-838.808 -4805.596)" fill="#1a2e35"/>
          </g>
          <g id="Grupo_87844" data-name="Grupo 87844" transform="translate(20.942 58.244)">
            <path id="Trazado_101904-2" data-name="Trazado 101904" d="M838.808,4805.742c0,.08,8.392.146,18.742.146s18.744-.065,18.744-.146-8.39-.146-18.744-.146S838.808,4805.662,838.808,4805.742Z" transform="translate(-838.808 -4805.596)" fill="#1a2e35"/>
          </g>
          <g id="Grupo_87845" data-name="Grupo 87845" transform="translate(20.942 83.951)">
            <path id="Trazado_101904-3" data-name="Trazado 101904" d="M838.808,4805.742c0,.08,8.392.146,18.742.146s18.744-.065,18.744-.146-8.39-.146-18.744-.146S838.808,4805.662,838.808,4805.742Z" transform="translate(-838.808 -4805.596)" fill="#1a2e35"/>
          </g>
          <g id="Grupo_87846" data-name="Grupo 87846" transform="translate(20.942 112.41)">
            <path id="Trazado_101904-4" data-name="Trazado 101904" d="M838.808,4805.742c0,.08,8.392.146,18.742.146s18.744-.065,18.744-.146-8.39-.146-18.744-.146S838.808,4805.662,838.808,4805.742Z" transform="translate(-838.808 -4805.596)" fill="#1a2e35"/>
          </g>
          <g id="Grupo_56694" data-name="Grupo 56694" transform="translate(10.829 162.366)">
            <path id="Trazado_101905" data-name="Trazado 101905" d="M936.954,4956.174c0,.081,8.185.146,18.281.146s18.283-.065,18.283-.146-8.184-.146-18.283-.146S936.954,4956.094,936.954,4956.174Z" transform="translate(-936.954 -4956.028)" fill="#1a2e35"/>
          </g>
        </g>
        <g id="Grupo_56700" data-name="Grupo 56700" transform="translate(71.776 41.183)">
          <path id="Trazado_101938" data-name="Trazado 101938" d="M843.345,4785.488a6.489,6.489,0,0,0,.867.217,10.246,10.246,0,0,0,6.46-.926,3.711,3.711,0,0,0,.993-.751,2.367,2.367,0,0,0,.6-1.193,1.765,1.765,0,0,0-.288-1.388,1.347,1.347,0,0,0-1.414-.45,1.02,1.02,0,0,0-.621.524,1.312,1.312,0,0,0-.105.817,2.938,2.938,0,0,0,.774,1.436,7.031,7.031,0,0,0,2.807,1.918,6.77,6.77,0,0,0,3.625.329,4.045,4.045,0,0,0,1.773-.779,2.107,2.107,0,0,0,.862-1.793,1.966,1.966,0,0,0-.386-.975,1.529,1.529,0,0,0-.882-.617,1.1,1.1,0,0,0-1.047.345,1.565,1.565,0,0,0-.375,1.034,2.119,2.119,0,0,0,.258,1.065,2.392,2.392,0,0,0,.76.8,6.927,6.927,0,0,0,2,.8,8.808,8.808,0,0,0,4.354.462,4.1,4.1,0,0,0,2-1.086,2.876,2.876,0,0,0,.869-2.141,1.9,1.9,0,0,0-.606-1.358,1.391,1.391,0,0,0-1.476-.157,1.142,1.142,0,0,0-.558.543,1.168,1.168,0,0,0-.066.772,2.2,2.2,0,0,0,.873,1.153,11.328,11.328,0,0,0,5.036,1.914,5.094,5.094,0,0,0,2.623-.23,2.642,2.642,0,0,0,1.612-1.976,1.8,1.8,0,0,0-1.334-2.013,1.247,1.247,0,0,0-1.194.429,1.9,1.9,0,0,0-.419,1.163,2.321,2.321,0,0,0,.256,1.179,2.761,2.761,0,0,0,.795.868,6.116,6.116,0,0,0,2.053.86,6.883,6.883,0,0,0,4.1.148,3.517,3.517,0,0,0,1.556-1.134,2.524,2.524,0,0,0,.552-1.724,2.417,2.417,0,0,0-.748-1.52,1.644,1.644,0,0,0-1.493-.447l-.06.016,0,.059a4.328,4.328,0,0,0,1.1,2.976,4.53,4.53,0,0,0,1.96,1.336,3.73,3.73,0,0,0,1.469.188,4.28,4.28,0,0,0,.5-.095,3.885,3.885,0,0,1-1.943-.175,4.5,4.5,0,0,1-1.893-1.337,4.208,4.208,0,0,1-1.03-2.885l-.062.076a1.473,1.473,0,0,1,1.333.417,2.24,2.24,0,0,1,.678,1.405,2.816,2.816,0,0,1-1.993,2.641,6.686,6.686,0,0,1-3.96-.176,5.907,5.907,0,0,1-1.968-.83,2.536,2.536,0,0,1-.718-.789,2.06,2.06,0,0,1-.222-1.048,1.658,1.658,0,0,1,.36-1.005.987.987,0,0,1,.946-.338,1.538,1.538,0,0,1,1.116,1.715,2.371,2.371,0,0,1-1.452,1.758,4.846,4.846,0,0,1-2.48.205,11.071,11.071,0,0,1-4.9-1.865,1.939,1.939,0,0,1-.766-.991.83.83,0,0,1,.468-.985,1.1,1.1,0,0,1,1.162.117,1.607,1.607,0,0,1,.5,1.152,2.581,2.581,0,0,1-.785,1.921,3.818,3.818,0,0,1-1.861,1.008,8.564,8.564,0,0,1-4.21-.455,6.675,6.675,0,0,1-1.923-.762,2.135,2.135,0,0,1-.674-.7,1.849,1.849,0,0,1-.225-.924,1.294,1.294,0,0,1,.3-.853.818.818,0,0,1,.786-.264,1.568,1.568,0,0,1,1.058,1.351,1.849,1.849,0,0,1-.761,1.562,3.8,3.8,0,0,1-1.655.732,6.536,6.536,0,0,1-3.492-.3,6.79,6.79,0,0,1-2.724-1.841,2.723,2.723,0,0,1-.729-1.321.924.924,0,0,1,.575-1.108,1.149,1.149,0,0,1,1.2.374,1.581,1.581,0,0,1,.26,1.234,2.681,2.681,0,0,1-1.487,1.833,10.18,10.18,0,0,1-3.834,1.1,10.759,10.759,0,0,1-2.538-.09c-.287-.047-.507-.087-.653-.12A1.238,1.238,0,0,0,843.345,4785.488Z" transform="translate(-843.345 -4780.946)" fill="#7e5ee3"/>
        </g>
        <g id="Grupo_56701" data-name="Grupo 56701" transform="translate(17.041 40.78)">
          <path id="Trazado_101939" data-name="Trazado 101939" d="M930.949,4784.642a3.749,3.749,0,0,0,.7.349,6.419,6.419,0,0,0,2.2.462,6.771,6.771,0,0,0,3.457-.808,4.3,4.3,0,0,0,1.683-1.479,2,2,0,0,0,.3-1.216,1.7,1.7,0,0,0-.649-1.153,1.1,1.1,0,0,0-.681-.225,1.048,1.048,0,0,0-.679.289,1.661,1.661,0,0,0-.453,1.379,2.437,2.437,0,0,0,.7,1.331,5.83,5.83,0,0,0,1.224.934,7.29,7.29,0,0,0,3.056.978,5.84,5.84,0,0,0,3.342-.624,3.271,3.271,0,0,0,1.3-1.253,2.438,2.438,0,0,0,.3-.892,2.157,2.157,0,0,0-.137-.946,2.191,2.191,0,0,0-1.332-1.344,1.274,1.274,0,0,0-1.006.1,1.559,1.559,0,0,0-.674.752,2.325,2.325,0,0,0,.074,1.959,4.059,4.059,0,0,0,1.332,1.466,7.308,7.308,0,0,0,3.755,1.3,7.454,7.454,0,0,0,3.885-.835,5.864,5.864,0,0,0,1.58-1.177,2.675,2.675,0,0,0,.784-1.8,1.772,1.772,0,0,0-1.078-1.594,1.089,1.089,0,0,0-1,.119,1.468,1.468,0,0,0-.555.817,2.111,2.111,0,0,0,.377,1.81,5.608,5.608,0,0,0,1.288,1.241,7.874,7.874,0,0,0,6.32,1.352,4.27,4.27,0,0,0,2.564-1.535,2.372,2.372,0,0,0,.475-1.361,2.578,2.578,0,0,0-.337-1.338,1.7,1.7,0,0,0-1.033-.824,1.465,1.465,0,0,0-1.223.273,2.249,2.249,0,0,0-.826,2.052,2.764,2.764,0,0,0,.989,1.674,3.719,3.719,0,0,0,1.461.742,7.219,7.219,0,0,0,2.248.14l.583-.051a1,1,0,0,0,.2-.03,1.156,1.156,0,0,0-.2,0l-.583.022a7.512,7.512,0,0,1-2.216-.191,3.614,3.614,0,0,1-1.4-.737,2.625,2.625,0,0,1-.917-1.591,2.081,2.081,0,0,1,.775-1.88,1.276,1.276,0,0,1,1.066-.231,1.508,1.508,0,0,1,.9.737,2.249,2.249,0,0,1-.143,2.464,4.043,4.043,0,0,1-2.434,1.431,7.64,7.64,0,0,1-6.108-1.333,5.384,5.384,0,0,1-1.222-1.181,1.833,1.833,0,0,1-.335-1.578,1.194,1.194,0,0,1,.446-.662.8.8,0,0,1,.75-.086,1.5,1.5,0,0,1,.889,1.333,2.4,2.4,0,0,1-.712,1.6,5.591,5.591,0,0,1-1.5,1.116,7.182,7.182,0,0,1-3.733.8,7.02,7.02,0,0,1-3.6-1.243,3.768,3.768,0,0,1-1.242-1.356,2.038,2.038,0,0,1-.072-1.717,1.117,1.117,0,0,1,1.338-.7,1.928,1.928,0,0,1,1.153,1.173,1.891,1.891,0,0,1,.123.82,2.189,2.189,0,0,1-.262.788,3.005,3.005,0,0,1-1.188,1.151,5.583,5.583,0,0,1-3.188.6,7.065,7.065,0,0,1-2.955-.932,5.608,5.608,0,0,1-1.178-.887,2.211,2.211,0,0,1-.647-1.2,1.444,1.444,0,0,1,.378-1.193.825.825,0,0,1,1.09-.054,1.5,1.5,0,0,1,.577,1.01,1.82,1.82,0,0,1-.267,1.1,4.149,4.149,0,0,1-1.6,1.43,6.749,6.749,0,0,1-5.561.434C931.191,4784.765,930.958,4784.623,930.949,4784.642Z" transform="translate(-930.949 -4780.364)" fill="#7e5ee3"/>
        </g>
        <g id="Grupo_56702" data-name="Grupo 56702" transform="translate(69.052 66.823)">
          <path id="Trazado_101940" data-name="Trazado 101940" d="M841.731,4820.937a1.343,1.343,0,0,0,.215.108l.642.292c.567.251,1.405.617,2.509,1.032a20.412,20.412,0,0,0,4.152,1.105,16.013,16.013,0,0,0,2.684.162,9.089,9.089,0,0,0,2.987-.451,3.557,3.557,0,0,0,2.27-2.363,2.308,2.308,0,0,0-.22-1.784,2.021,2.021,0,0,0-1.546-1.043,1.713,1.713,0,0,0-1.606,1.038,2.638,2.638,0,0,0-.141,1.989,3.9,3.9,0,0,0,1.172,1.682,7.643,7.643,0,0,0,1.757,1.133,6.024,6.024,0,0,0,4.248.5,4.3,4.3,0,0,0,2.951-3.253,3.54,3.54,0,0,0,.008-1.184,2.276,2.276,0,0,0-.481-1.108,1.509,1.509,0,0,0-1.078-.622,1.085,1.085,0,0,0-1.033.722,2.893,2.893,0,0,0,.413,2.378,7.182,7.182,0,0,0,1.568,1.858,6.618,6.618,0,0,0,8.768-.135,3.738,3.738,0,0,0,1.136-2,2.293,2.293,0,0,0-.075-1.165,2.355,2.355,0,0,0-.656-.955,1.956,1.956,0,0,0-1.042-.49,1.38,1.38,0,0,0-1.1.345,2.129,2.129,0,0,0-.5,2.1,3.91,3.91,0,0,0,1.16,1.758,9.55,9.55,0,0,0,1.627,1.216,9.441,9.441,0,0,0,3.654,1.241,8.206,8.206,0,0,0,3.59-.322,4,4,0,0,0,1.477-.885,2.768,2.768,0,0,0,.8-1.445,2.522,2.522,0,0,0-.145-1.571,1.551,1.551,0,0,0-1.175-.915,1.758,1.758,0,0,0-1.365.374,1.294,1.294,0,0,0-.434,1.246,1.958,1.958,0,0,0,.646,1.057,4.1,4.1,0,0,0,.948.629,10.951,10.951,0,0,0,1.838.7,10.392,10.392,0,0,0,2.685.4,6.841,6.841,0,0,0,.946-.04,1.6,1.6,0,0,0-.24,0c-.159,0-.394,0-.7-.015a11.02,11.02,0,0,1-4.462-1.166,3.964,3.964,0,0,1-.907-.614,1.819,1.819,0,0,1-.588-.976,1.122,1.122,0,0,1,.386-1.083,1.583,1.583,0,0,1,1.224-.324,1.356,1.356,0,0,1,1.026.815,2.317,2.317,0,0,1,.122,1.444,3.049,3.049,0,0,1-2.151,2.161,7.986,7.986,0,0,1-3.486.294,9.191,9.191,0,0,1-3.552-1.222,9.323,9.323,0,0,1-1.577-1.186,3.669,3.669,0,0,1-1.082-1.639,1.867,1.867,0,0,1,.424-1.822,1.323,1.323,0,0,1,1.777.152,2.068,2.068,0,0,1,.575.838,2.009,2.009,0,0,1,.062,1.023,3.468,3.468,0,0,1-1.057,1.845,6.336,6.336,0,0,1-8.382.117,6.924,6.924,0,0,1-1.5-1.782,3.327,3.327,0,0,1-.428-1.049,1.958,1.958,0,0,1,.035-1.076.794.794,0,0,1,.755-.539,1.226,1.226,0,0,1,.862.514,2.594,2.594,0,0,1,.417,2.061,4.028,4.028,0,0,1-2.749,3.037,5.76,5.76,0,0,1-4.054-.472,5.086,5.086,0,0,1-2.8-2.653,2.384,2.384,0,0,1,.122-1.8,1.465,1.465,0,0,1,1.368-.907,1.784,1.784,0,0,1,1.36.92,2.075,2.075,0,0,1,.2,1.61,3.341,3.341,0,0,1-2.125,2.226,8.919,8.919,0,0,1-2.919.459,16.007,16.007,0,0,1-2.657-.138,20.9,20.9,0,0,1-4.135-1.05c-1.106-.4-1.95-.748-2.525-.981l-.653-.264A1.761,1.761,0,0,0,841.731,4820.937Z" transform="translate(-841.731 -4817.991)" fill="#7e5ee3"/>
        </g>
      </g>
      <g id="Grupo_56941" data-name="Grupo 56941" transform="translate(97.141 66.811)">
        <g id="Grupo_56895" data-name="Grupo 56895" transform="translate(68.78)">
          <g id="Grupo_56891" data-name="Grupo 56891" transform="translate(9.736 7.8)">
            <g id="Grupo_56761" data-name="Grupo 56761" transform="translate(0)">
              <g id="Grupo_56760" data-name="Grupo 56760">
                <g id="Grupo_56759" data-name="Grupo 56759">
                  <g id="Grupo_56743" data-name="Grupo 56743">
                    <g id="Grupo_56742" data-name="Grupo 56742">
                      <g id="Grupo_56741" data-name="Grupo 56741">
                        <g id="Grupo_56740" data-name="Grupo 56740">
                          <g id="Grupo_56739" data-name="Grupo 56739">
                            <g id="Grupo_56738" data-name="Grupo 56738">
                              <g id="Grupo_56737" data-name="Grupo 56737">
                                <g id="Grupo_56736" data-name="Grupo 56736">
                                  <g id="Grupo_56735" data-name="Grupo 56735">
                                    <g id="Grupo_56734" data-name="Grupo 56734">
                                      <g id="Grupo_56733" data-name="Grupo 56733">
                                        <g id="Grupo_56732" data-name="Grupo 56732">
                                          <g id="Grupo_56731" data-name="Grupo 56731">
                                            <g id="Grupo_56730" data-name="Grupo 56730">
                                              <g id="Grupo_56729" data-name="Grupo 56729">
                                                <path id="Trazado_101953" data-name="Trazado 101953" d="M783.448,4777.759l.633,50.977c.108,8.669-1.505,21.426-15.219,20.971h0c-11.869-1.292-15.018-12.526-15.11-20.618-.044-3.838-.088-7.037-.118-7.431,0,0-12.992-1.06-14.089-13.892-.529-6.2-.581-19.064-.493-30.7a23.989,23.989,0,0,1,22.25-23.731l1.24-.091C775.961,4753.049,783.625,4764.338,783.448,4777.759Z" transform="translate(-739.017 -4753.242)" fill="#ffbf9d"/>
                                              </g>
                                            </g>
                                          </g>
                                        </g>
                                      </g>
                                    </g>
                                  </g>
                                </g>
                              </g>
                            </g>
                          </g>
                        </g>
                      </g>
                    </g>
                  </g>
                  <g id="Grupo_56758" data-name="Grupo 56758" transform="translate(14.617 62.251)">
                    <g id="Grupo_56757" data-name="Grupo 56757">
                      <g id="Grupo_56756" data-name="Grupo 56756">
                        <g id="Grupo_56755" data-name="Grupo 56755">
                          <g id="Grupo_56754" data-name="Grupo 56754">
                            <g id="Grupo_56753" data-name="Grupo 56753">
                              <g id="Grupo_56752" data-name="Grupo 56752">
                                <g id="Grupo_56751" data-name="Grupo 56751">
                                  <g id="Grupo_56750" data-name="Grupo 56750">
                                    <g id="Grupo_56749" data-name="Grupo 56749">
                                      <g id="Grupo_56748" data-name="Grupo 56748">
                                        <g id="Grupo_56747" data-name="Grupo 56747">
                                          <g id="Grupo_56746" data-name="Grupo 56746">
                                            <g id="Grupo_56745" data-name="Grupo 56745">
                                              <g id="Grupo_56744" data-name="Grupo 56744">
                                                <path id="Trazado_101954" data-name="Trazado 101954" d="M759.374,4849.347a31.125,31.125,0,0,0,16.362-6.166s-3.394,9.679-16.3,9.458Z" transform="translate(-759.374 -4843.182)" fill="#ff9a6c"/>
                                              </g>
                                            </g>
                                          </g>
                                        </g>
                                      </g>
                                    </g>
                                  </g>
                                </g>
                              </g>
                            </g>
                          </g>
                        </g>
                      </g>
                    </g>
                  </g>
                </g>
              </g>
            </g>
            <g id="Grupo_56845" data-name="Grupo 56845" transform="translate(2.452 19.386)">
              <g id="Grupo_56844" data-name="Grupo 56844">
                <g id="Grupo_56813" data-name="Grupo 56813" transform="translate(8.998 7.426)">
                  <g id="Grupo_56812" data-name="Grupo 56812">
                    <g id="Grupo_56811" data-name="Grupo 56811">
                      <g id="Grupo_56778" data-name="Grupo 56778" transform="translate(10.49)">
                        <g id="Grupo_56777" data-name="Grupo 56777">
                          <g id="Grupo_56776" data-name="Grupo 56776">
                            <g id="Grupo_56775" data-name="Grupo 56775">
                              <g id="Grupo_56774" data-name="Grupo 56774">
                                <g id="Grupo_56773" data-name="Grupo 56773">
                                  <g id="Grupo_56772" data-name="Grupo 56772">
                                    <g id="Grupo_56771" data-name="Grupo 56771">
                                      <g id="Grupo_56770" data-name="Grupo 56770">
                                        <g id="Grupo_56769" data-name="Grupo 56769">
                                          <g id="Grupo_56768" data-name="Grupo 56768">
                                            <g id="Grupo_56767" data-name="Grupo 56767">
                                              <g id="Grupo_56766" data-name="Grupo 56766">
                                                <g id="Grupo_56765" data-name="Grupo 56765">
                                                  <g id="Grupo_56764" data-name="Grupo 56764">
                                                    <g id="Grupo_56763" data-name="Grupo 56763">
                                                      <g id="Grupo_56762" data-name="Grupo 56762">
                                                        <path id="Trazado_101955" data-name="Trazado 101955" d="M761.015,4794.25c.255.26,1.737-.934,3.887-.991,2.147-.089,3.756,1,3.981.72.111-.123-.154-.6-.855-1.09a5.392,5.392,0,0,0-3.2-.907,5.2,5.2,0,0,0-3.084,1.123C761.1,4793.645,760.89,4794.134,761.015,4794.25Z" transform="translate(-760.981 -4791.98)" fill="#1a2e35"/>
                                                      </g>
                                                    </g>
                                                  </g>
                                                </g>
                                              </g>
                                            </g>
                                          </g>
                                        </g>
                                      </g>
                                    </g>
                                  </g>
                                </g>
                              </g>
                            </g>
                          </g>
                        </g>
                      </g>
                      <g id="Grupo_56794" data-name="Grupo 56794" transform="translate(10.588 5.021)">
                        <g id="Grupo_56793" data-name="Grupo 56793">
                          <g id="Grupo_56792" data-name="Grupo 56792">
                            <g id="Grupo_56791" data-name="Grupo 56791">
                              <g id="Grupo_56790" data-name="Grupo 56790">
                                <g id="Grupo_56789" data-name="Grupo 56789">
                                  <g id="Grupo_56788" data-name="Grupo 56788">
                                    <g id="Grupo_56787" data-name="Grupo 56787">
                                      <g id="Grupo_56786" data-name="Grupo 56786">
                                        <g id="Grupo_56785" data-name="Grupo 56785">
                                          <g id="Grupo_56784" data-name="Grupo 56784">
                                            <g id="Grupo_56783" data-name="Grupo 56783">
                                              <g id="Grupo_56782" data-name="Grupo 56782">
                                                <g id="Grupo_56781" data-name="Grupo 56781">
                                                  <g id="Grupo_56780" data-name="Grupo 56780">
                                                    <g id="Grupo_56779" data-name="Grupo 56779">
                                                      <path id="Trazado_101956" data-name="Trazado 101956" d="M767.27,4800.932a1.738,1.738,0,0,0,1.8,1.627,1.664,1.664,0,0,0,1.674-1.695,1.74,1.74,0,0,0-1.8-1.629A1.665,1.665,0,0,0,767.27,4800.932Z" transform="translate(-767.268 -4799.234)" fill="#1a2e35"/>
                                                    </g>
                                                  </g>
                                                </g>
                                              </g>
                                            </g>
                                          </g>
                                        </g>
                                      </g>
                                    </g>
                                  </g>
                                </g>
                              </g>
                            </g>
                          </g>
                        </g>
                      </g>
                      <g id="Grupo_56810" data-name="Grupo 56810" transform="translate(0 0.714)">
                        <g id="Grupo_56809" data-name="Grupo 56809">
                          <g id="Grupo_56808" data-name="Grupo 56808">
                            <g id="Grupo_56807" data-name="Grupo 56807">
                              <g id="Grupo_56806" data-name="Grupo 56806">
                                <g id="Grupo_56805" data-name="Grupo 56805">
                                  <g id="Grupo_56804" data-name="Grupo 56804">
                                    <g id="Grupo_56803" data-name="Grupo 56803">
                                      <g id="Grupo_56802" data-name="Grupo 56802">
                                        <g id="Grupo_56801" data-name="Grupo 56801">
                                          <g id="Grupo_56800" data-name="Grupo 56800">
                                            <g id="Grupo_56799" data-name="Grupo 56799">
                                              <g id="Grupo_56798" data-name="Grupo 56798">
                                                <g id="Grupo_56797" data-name="Grupo 56797">
                                                  <g id="Grupo_56796" data-name="Grupo 56796">
                                                    <g id="Grupo_56795" data-name="Grupo 56795">
                                                      <path id="Trazado_101957" data-name="Trazado 101957" d="M785.3,4809.524a13.111,13.111,0,0,0-3.248-.345c-.508-.015-.992-.08-1.1-.418a2.571,2.571,0,0,1,.227-1.519q.577-1.88,1.21-3.947c1.671-5.616,2.841-10.218,2.614-10.284s-1.765,4.434-3.436,10.049q-.6,2.075-1.146,3.964a2.932,2.932,0,0,0-.117,2,1.268,1.268,0,0,0,.883.676,3.4,3.4,0,0,0,.865.057A12.849,12.849,0,0,0,785.3,4809.524Z" transform="translate(-780.165 -4793.012)" fill="#1a2e35"/>
                                                    </g>
                                                  </g>
                                                </g>
                                              </g>
                                            </g>
                                          </g>
                                        </g>
                                      </g>
                                    </g>
                                  </g>
                                </g>
                              </g>
                            </g>
                          </g>
                        </g>
                      </g>
                    </g>
                  </g>
                </g>
                <g id="Grupo_56828" data-name="Grupo 56828" transform="translate(20.423)">
                  <g id="Grupo_56827" data-name="Grupo 56827">
                    <g id="Grupo_56826" data-name="Grupo 56826">
                      <g id="Grupo_56825" data-name="Grupo 56825">
                        <g id="Grupo_56824" data-name="Grupo 56824">
                          <g id="Grupo_56823" data-name="Grupo 56823">
                            <g id="Grupo_56822" data-name="Grupo 56822">
                              <g id="Grupo_56821" data-name="Grupo 56821">
                                <g id="Grupo_56820" data-name="Grupo 56820">
                                  <g id="Grupo_56819" data-name="Grupo 56819">
                                    <g id="Grupo_56818" data-name="Grupo 56818">
                                      <g id="Grupo_56817" data-name="Grupo 56817">
                                        <g id="Grupo_56816" data-name="Grupo 56816">
                                          <g id="Grupo_56815" data-name="Grupo 56815">
                                            <g id="Grupo_56814" data-name="Grupo 56814">
                                              <path id="Trazado_101958" data-name="Trazado 101958" d="M759.513,4782.864c.208.477,1.929.118,3.99.224,2.063.062,3.756.559,3.994.1.105-.219-.215-.659-.916-1.084a6.5,6.5,0,0,0-3.018-.849,6.431,6.431,0,0,0-3.065.6C759.772,4782.225,759.422,4782.637,759.513,4782.864Z" transform="translate(-759.499 -4781.25)" fill="#1a2e35"/>
                                            </g>
                                          </g>
                                        </g>
                                      </g>
                                    </g>
                                  </g>
                                </g>
                              </g>
                            </g>
                          </g>
                        </g>
                      </g>
                    </g>
                  </g>
                </g>
                <g id="Grupo_56843" data-name="Grupo 56843" transform="translate(0 3.929)">
                  <g id="Grupo_56842" data-name="Grupo 56842">
                    <g id="Grupo_56841" data-name="Grupo 56841">
                      <g id="Grupo_56840" data-name="Grupo 56840">
                        <g id="Grupo_56839" data-name="Grupo 56839">
                          <g id="Grupo_56838" data-name="Grupo 56838">
                            <g id="Grupo_56837" data-name="Grupo 56837">
                              <g id="Grupo_56836" data-name="Grupo 56836">
                                <g id="Grupo_56835" data-name="Grupo 56835">
                                  <g id="Grupo_56834" data-name="Grupo 56834">
                                    <g id="Grupo_56833" data-name="Grupo 56833">
                                      <g id="Grupo_56832" data-name="Grupo 56832">
                                        <g id="Grupo_56831" data-name="Grupo 56831">
                                          <g id="Grupo_56830" data-name="Grupo 56830">
                                            <g id="Grupo_56829" data-name="Grupo 56829">
                                              <path id="Trazado_101959" data-name="Trazado 101959" d="M789.186,4788.6c.226.389,1.9-.042,3.936-.105,2.034-.1,3.721.2,3.936-.208.094-.194-.241-.542-.95-.851a7.109,7.109,0,0,0-3.007-.5,7.342,7.342,0,0,0-2.99.737C789.412,4788.034,789.086,4788.409,789.186,4788.6Z" transform="translate(-789.168 -4786.927)" fill="#1a2e35"/>
                                            </g>
                                          </g>
                                        </g>
                                      </g>
                                    </g>
                                  </g>
                                </g>
                              </g>
                            </g>
                          </g>
                        </g>
                      </g>
                    </g>
                  </g>
                </g>
              </g>
            </g>
            <g id="Grupo_56858" data-name="Grupo 56858" transform="translate(44.077 33.469)">
              <g id="Grupo_56857" data-name="Grupo 56857">
                <g id="Grupo_56856" data-name="Grupo 56856">
                  <g id="Grupo_56855" data-name="Grupo 56855">
                    <g id="Grupo_56854" data-name="Grupo 56854">
                      <g id="Grupo_56853" data-name="Grupo 56853">
                        <g id="Grupo_56852" data-name="Grupo 56852">
                          <g id="Grupo_56851" data-name="Grupo 56851">
                            <g id="Grupo_56850" data-name="Grupo 56850">
                              <g id="Grupo_56849" data-name="Grupo 56849">
                                <g id="Grupo_56848" data-name="Grupo 56848">
                                  <g id="Grupo_56847" data-name="Grupo 56847">
                                    <g id="Grupo_56846" data-name="Grupo 56846">
                                      <path id="Trazado_101960" data-name="Trazado 101960" d="M727.44,4802.232c.213-.11,8.635-3.254,9,5.547s-8.55,7.349-8.576,7.1S727.44,4802.232,727.44,4802.232Z" transform="translate(-727.44 -4801.597)" fill="#ffbf9d"/>
                                    </g>
                                  </g>
                                </g>
                              </g>
                            </g>
                          </g>
                        </g>
                      </g>
                    </g>
                  </g>
                </g>
              </g>
            </g>
            <g id="Grupo_56872" data-name="Grupo 56872" transform="translate(47.041 36.27)">
              <g id="Grupo_56871" data-name="Grupo 56871">
                <g id="Grupo_56870" data-name="Grupo 56870">
                  <g id="Grupo_56869" data-name="Grupo 56869">
                    <g id="Grupo_56868" data-name="Grupo 56868">
                      <g id="Grupo_56867" data-name="Grupo 56867">
                        <g id="Grupo_56866" data-name="Grupo 56866">
                          <g id="Grupo_56865" data-name="Grupo 56865">
                            <g id="Grupo_56864" data-name="Grupo 56864">
                              <g id="Grupo_56863" data-name="Grupo 56863">
                                <g id="Grupo_56862" data-name="Grupo 56862">
                                  <g id="Grupo_56861" data-name="Grupo 56861">
                                    <g id="Grupo_56860" data-name="Grupo 56860">
                                      <g id="Grupo_56859" data-name="Grupo 56859">
                                        <path id="Trazado_101961" data-name="Trazado 101961" d="M730.676,4812.677c.038-.029.158.1.422.209a1.53,1.53,0,0,0,1.148-.023c.916-.38,1.638-1.888,1.616-3.476a5.068,5.068,0,0,0-.519-2.177,1.773,1.773,0,0,0-1.2-1.13.782.782,0,0,0-.887.457c-.108.251-.045.424-.091.441-.024.023-.2-.14-.139-.507a.98.98,0,0,1,.324-.565,1.162,1.162,0,0,1,.838-.258,2.155,2.155,0,0,1,1.658,1.3,5.213,5.213,0,0,1,.633,2.432c.016,1.776-.824,3.473-2.081,3.894a1.641,1.641,0,0,1-1.411-.176C730.7,4812.89,730.646,4812.695,730.676,4812.677Z" transform="translate(-730.669 -4805.645)" fill="#ff9a6c"/>
                                      </g>
                                    </g>
                                  </g>
                                </g>
                              </g>
                            </g>
                          </g>
                        </g>
                      </g>
                    </g>
                  </g>
                </g>
              </g>
            </g>
            <g id="Grupo_56873" data-name="Grupo 56873" transform="translate(18.662 44.466)">
              <path id="Trazado_101962" data-name="Trazado 101962" d="M770.439,4823.152c-.1-.223,1.629-.739,2.841-2.356a9.907,9.907,0,0,0,1.218-2.3c.257-.64.451-1.041.546-1.012s.068.461-.073,1.156a6.5,6.5,0,0,1-1.133,2.574,5.254,5.254,0,0,1-2.248,1.721C770.917,4823.211,770.462,4823.228,770.439,4823.152Z" transform="translate(-770.435 -4817.485)" fill="#1a2e35"/>
            </g>
            <g id="Grupo_56882" data-name="Grupo 56882" transform="translate(2.339 27.622)">
              <g id="Grupo_56881" data-name="Grupo 56881">
                <g id="Grupo_56880" data-name="Grupo 56880">
                  <g id="Grupo_56879" data-name="Grupo 56879">
                    <g id="Grupo_56878" data-name="Grupo 56878">
                      <g id="Grupo_56877" data-name="Grupo 56877">
                        <g id="Grupo_56876" data-name="Grupo 56876">
                          <g id="Grupo_56875" data-name="Grupo 56875">
                            <g id="Grupo_56874" data-name="Grupo 56874">
                              <path id="Trazado_101963" data-name="Trazado 101963" d="M789.334,4795.421c.255.26,1.737-.934,3.887-.991,2.147-.09,3.756,1,3.981.721.112-.124-.154-.6-.855-1.09a5.381,5.381,0,0,0-3.2-.907,5.186,5.186,0,0,0-3.085,1.123C789.419,4794.815,789.209,4795.305,789.334,4795.421Z" transform="translate(-789.3 -4793.15)" fill="#1a2e35"/>
                            </g>
                          </g>
                        </g>
                      </g>
                    </g>
                  </g>
                </g>
              </g>
            </g>
            <g id="Grupo_56890" data-name="Grupo 56890" transform="translate(2.725 32.458)">
              <g id="Grupo_56889" data-name="Grupo 56889">
                <g id="Grupo_56888" data-name="Grupo 56888">
                  <g id="Grupo_56887" data-name="Grupo 56887">
                    <g id="Grupo_56886" data-name="Grupo 56886">
                      <g id="Grupo_56885" data-name="Grupo 56885">
                        <g id="Grupo_56884" data-name="Grupo 56884">
                          <g id="Grupo_56883" data-name="Grupo 56883">
                            <path id="Trazado_101964" data-name="Trazado 101964" d="M795.172,4801.833a1.741,1.741,0,0,0,1.8,1.629,1.664,1.664,0,0,0,1.674-1.695,1.741,1.741,0,0,0-1.8-1.631A1.666,1.666,0,0,0,795.172,4801.833Z" transform="translate(-795.171 -4800.136)" fill="#1a2e35"/>
                          </g>
                        </g>
                      </g>
                    </g>
                  </g>
                </g>
              </g>
            </g>
          </g>
          <g id="Grupo_56892" data-name="Grupo 56892" transform="translate(0)">
            <path id="Trazado_101965" data-name="Trazado 101965" d="M729.293,4756.556a6.944,6.944,0,0,1,8.661-2.741,9.506,9.506,0,0,1,16.374-8.208,3.884,3.884,0,0,1,1.893-2.6,7.671,7.671,0,0,1,3.16-.942,15.107,15.107,0,0,1,13.8,6.019,16.447,16.447,0,0,1,13.937,5.085c4.135,4.58,4.914,15.194.386,24.363l-1.066,5.749a5.232,5.232,0,0,0-3.6.885c-1.19,1.068-1.721,3.082-3.7,2.317-1.007-.389-1.924-2.5-2.261-3.523a50.084,50.084,0,0,1-2.169-21.2,16.083,16.083,0,0,0-4.971-3.587l.152.136c-3.586-1.245-7.643-2.471-11.046-.786-2.64,1.306-4.191,4.044-6.164,6.23a20.149,20.149,0,0,1-14.361,6.632c-.19,3.614.113,8.722-.076,12.335l-3.04-5.788,0,.029c-.249-.424-.455-.852-.654-1.279l-.068-.13v-.017l0,0c-.556-.452-.978-1.279-1.917-2.355a7.581,7.581,0,0,1-1.245-7.758A6.944,6.944,0,0,1,729.293,4756.556Z" transform="translate(-728.474 -4741.973)" fill="#1a2e35"/>
            <path id="Trazado_101966" data-name="Trazado 101966" d="M811.014,4787.523l.012-.01h0Z" transform="translate(-806.053 -4755.993)" fill="#1a2e35"/>
          </g>
          <g id="Grupo_56893" data-name="Grupo 56893" transform="translate(5.93 14.715)">
            <path id="Trazado_101967" data-name="Trazado 101967" d="M787.865,4763.232a.562.562,0,0,0-.064.189,2.6,2.6,0,0,0-.081.569,3.821,3.821,0,0,0,.512,2.063,3.922,3.922,0,0,0,.983,1.139,3.515,3.515,0,0,0,1.6.685,3.972,3.972,0,0,0,3.67-1.381l-.219-.188a2.426,2.426,0,0,0-.62,1.726,3.181,3.181,0,0,0,.984,2.217,3.593,3.593,0,0,0,2.081.887,5.592,5.592,0,0,0,3.618-1,11.781,11.781,0,0,0,1.934-1.644,4.925,4.925,0,0,0,.616-.694,6.6,6.6,0,0,0-.695.613,13.639,13.639,0,0,1-1.966,1.552,5.469,5.469,0,0,1-3.479.9,3.344,3.344,0,0,1-1.915-.826,2.925,2.925,0,0,1-.888-2.017,2.148,2.148,0,0,1,.539-1.523l-.218-.187a3.735,3.735,0,0,1-3.4,1.308,3.445,3.445,0,0,1-2.461-1.668,3.892,3.892,0,0,1-.573-1.964C787.819,4763.5,787.891,4763.238,787.865,4763.232Z" transform="translate(-787.715 -4763.232)" fill="#375a64"/>
          </g>
          <g id="Grupo_56894" data-name="Grupo 56894" transform="translate(14.824 5.067)">
            <path id="Trazado_101968" data-name="Trazado 101968" d="M783.383,4749.3a.614.614,0,0,0-.189.084,3.912,3.912,0,0,0-.491.331,4.285,4.285,0,0,0-1.328,1.724,3.375,3.375,0,0,0,.3,3.171,2.6,2.6,0,0,0,1.6,1.1,2.639,2.639,0,0,0,2.051-.4,2.29,2.29,0,0,0,.488-.485l-.252-.143a2.464,2.464,0,0,0,.066,1.978,2.7,2.7,0,0,0,1.281,1.311,3.562,3.562,0,0,0,3-.006,4.781,4.781,0,0,0,1.616-1.218,2.31,2.31,0,0,0,.428-.6c-.019-.014-.177.193-.508.525a5.106,5.106,0,0,1-1.615,1.11,3.4,3.4,0,0,1-2.8-.046,2.458,2.458,0,0,1-1.141-1.193,2.19,2.19,0,0,1-.055-1.746l.465-1.08-.717.938a2.038,2.038,0,0,1-.422.418,2.375,2.375,0,0,1-1.822.354,2.338,2.338,0,0,1-1.443-.975,3.188,3.188,0,0,1-.331-2.942,4.449,4.449,0,0,1,1.208-1.712C783.151,4749.461,783.4,4749.319,783.383,4749.3Z" transform="translate(-781.115 -4749.294)" fill="#375a64"/>
          </g>
        </g>
        <g id="Grupo_56940" data-name="Grupo 56940" transform="translate(0 67.889)">
          <g id="Grupo_56910" data-name="Grupo 56910">
            <g id="Grupo_56896" data-name="Grupo 56896" transform="translate(5.413)">
              <path id="Trazado_101969" data-name="Trazado 101969" d="M876.349,4841.408l20.308,15.507a2.63,2.63,0,0,1,.389,3.815h0a2.629,2.629,0,0,1-3.6.353l-20.14-15.651-2.725-5.374Z" transform="translate(-870.581 -4840.058)" fill="#d9a171"/>
              <path id="Trazado_101970" data-name="Trazado 101970" d="M902.592,4840.939l-1.44,1.677,1.557,3.086a1.236,1.236,0,0,0,1.354-1.4,1.088,1.088,0,0,0,1.229-1.41s1.056-.094.46-1.209Z" transform="translate(-899.983 -4840.329)" fill="#fff" opacity="0.5"/>
              <path id="Trazado_101971" data-name="Trazado 101971" d="M876.527,4863.986l-3.333,4.072-1.119-.87,3.2-4.161Z" transform="translate(-850.451 -4847.129)" fill="#1a2e35"/>
            </g>
            <g id="Grupo_56897" data-name="Grupo 56897" transform="translate(0 2.627)">
              <path id="Trazado_101972" data-name="Trazado 101972" d="M901.843,4896.959l.73-.131-14.961-26.154,2.364-7.539s2.742-10.738.457-13.479c0,0-5-5.883-6.618-5.8s-2.918.406-3.242,1.621c0,0-2.756-.323-3.486.568a14.032,14.032,0,0,0-1.3,1.946s-3-.244-3.81,2.351c0,0-2.837,1.458-3.08,3.567s.568,11.916,1.459,14.428,4.215,7.781,5.188,15.563,4.4,12.833,7.448,24.206l8.277,3.273Z" transform="translate(-868.856 -4843.853)" fill="#ffbf9d"/>
            </g>
            <g id="Grupo_56899" data-name="Grupo 56899" transform="translate(11.856 4.076)">
              <g id="Grupo_56898" data-name="Grupo 56898">
                <path id="Trazado_101973" data-name="Trazado 101973" d="M896.329,4845.954a8.876,8.876,0,0,1,2.811,4.473,5.076,5.076,0,0,0-2.811-4.473Z" transform="translate(-896.326 -4845.947)" fill="#ff9a6c"/>
              </g>
            </g>
            <g id="Grupo_56901" data-name="Grupo 56901" transform="translate(7.093 6.749)">
              <g id="Grupo_56900" data-name="Grupo 56900">
                <path id="Trazado_101974" data-name="Trazado 101974" d="M903.187,4849.817a8.677,8.677,0,0,1,2.834,4.031,4.7,4.7,0,0,0-2.834-4.031Z" transform="translate(-903.185 -4849.809)" fill="#ff9a6c"/>
              </g>
            </g>
            <g id="Grupo_56903" data-name="Grupo 56903" transform="translate(3.28 9.024)">
              <g id="Grupo_56902" data-name="Grupo 56902">
                <path id="Trazado_101975" data-name="Trazado 101975" d="M909.181,4853.1c-.064.079.682.73,1.365,1.718s1.047,1.906,1.143,1.874a5.28,5.28,0,0,0-2.508-3.592Z" transform="translate(-909.177 -4853.096)" fill="#ff9a6c"/>
              </g>
            </g>
            <g id="Grupo_56905" data-name="Grupo 56905" transform="translate(17.33 9.262)">
              <g id="Grupo_56904" data-name="Grupo 56904">
                <path id="Trazado_101976" data-name="Trazado 101976" d="M887.8,4854.068a5.746,5.746,0,0,1,1.661-.284,5.679,5.679,0,0,1,1.607.506c.03-.029-.08-.211-.352-.414a2.456,2.456,0,0,0-2.512-.169C887.908,4853.87,887.776,4854.036,887.8,4854.068Z" transform="translate(-887.798 -4853.44)" fill="#ff9a6c"/>
              </g>
            </g>
            <g id="Grupo_56907" data-name="Grupo 56907" transform="translate(11.347 11.278)">
              <g id="Grupo_56906" data-name="Grupo 56906">
                <path id="Trazado_101977" data-name="Trazado 101977" d="M896.85,4858.7a4.345,4.345,0,0,1,2.987-2.278c0-.041-.23-.095-.607-.046a2.979,2.979,0,0,0-2.265,1.726C896.819,4858.448,896.81,4858.686,896.85,4858.7Z" transform="translate(-896.83 -4856.352)" fill="#ff9a6c"/>
              </g>
            </g>
            <g id="Grupo_56909" data-name="Grupo 56909" transform="translate(5.437 13.485)">
              <g id="Grupo_56908" data-name="Grupo 56908">
                <path id="Trazado_101978" data-name="Trazado 101978" d="M904.06,4860.942a4.869,4.869,0,0,1,3.911-1.059c.015-.039-.2-.175-.592-.269a3.344,3.344,0,0,0-2.943.8C904.143,4860.691,904.028,4860.916,904.06,4860.942Z" transform="translate(-904.055 -4859.54)" fill="#ff9a6c"/>
              </g>
            </g>
          </g>
          <g id="Grupo_56934" data-name="Grupo 56934" transform="translate(7.395 6.363)">
            <g id="Grupo_56911" data-name="Grupo 56911" transform="translate(138.685 37.05)">
              <path id="Trazado_101979" data-name="Trazado 101979" d="M689.3,4902.779s9.169,52.08,8.727,56.948-2.881,12.617-8.413,13.944a24.338,24.338,0,0,1-10.622,0l6.641-63.967Z" transform="translate(-678.992 -4902.779)" fill="#7e5ee3"/>
            </g>
            <g id="Grupo_56912" data-name="Grupo 56912" transform="translate(63.263)">
              <path id="Trazado_101980" data-name="Trazado 101980" d="M750.338,4859.438s10.973,7.8,13.4,10.095c10.145,9.595,12.268,13.521,13.448,16.767s-7.043,78.647-7.043,78.647l-1.666,13.174h0l-77.022.2h0v-67.308l11.572-47.368,7.12-2.026,1.438-5.646s8.847-6.533,23.439-6.721c4.489-.059,10.839,1.705,14.386,4.458h0Z" transform="translate(-691.455 -4849.251)" fill="#7e5ee3"/>
            </g>
            <g id="Grupo_56913" data-name="Grupo 56913" transform="translate(0 14.353)">
              <path id="Trazado_101981" data-name="Trazado 101981" d="M860.573,4870.225s-7.915-.357-8.615-.2c-2.44.563-9.14,6.705-16.771,14.273-7.28,7.221-21.6,22.244-21.6,22.244s-2.575-2.6-5.51.869l-11.308-16.448s-16.973,2.085-19.642,14.9c0,0,5.2,9.933,9.463,17.035,0,0,15.775,26.176,28.234,21.436,11.382-4.33,25.652-15.909,27.662-18.382l16.756-11.957s11.477-21.885,6.406-32.827Z" transform="translate(-777.123 -4869.987)" fill="#7e5ee3"/>
            </g>
            <g id="Grupo_56915" data-name="Grupo 56915" transform="translate(81.955 8.734)">
              <g id="Grupo_56914" data-name="Grupo 56914">
                <path id="Trazado_101982" data-name="Trazado 101982" d="M730.411,4865.5a2,2,0,0,0,.406-.083l1.143-.3c.994-.251,2.438-.6,4.239-.94a118.147,118.147,0,0,1,14.215-1.752,97.21,97.21,0,0,1,14.317.042c1.826.157,3.293.385,4.3.568l1.159.229a1.966,1.966,0,0,0,.41.057,1.9,1.9,0,0,0-.394-.124c-.3-.077-.678-.173-1.149-.292a37.8,37.8,0,0,0-4.3-.677,87.957,87.957,0,0,0-14.362-.143,104.82,104.82,0,0,0-14.241,1.856c-1.8.372-3.242.755-4.228,1.048l-1.128.364A1.919,1.919,0,0,0,730.411,4865.5Z" transform="translate(-730.411 -4861.87)" fill="#1a2e35"/>
              </g>
            </g>
            <g id="Grupo_56917" data-name="Grupo 56917" transform="translate(111.922 2.645)">
              <g id="Grupo_56916" data-name="Grupo 56916">
                <path id="Trazado_101983" data-name="Trazado 101983" d="M743.954,4858.876a25.317,25.317,0,0,0,.806-5.8,25.417,25.417,0,0,0-.806,5.8Z" transform="translate(-743.92 -4853.072)" fill="#1a2e35"/>
              </g>
            </g>
            <g id="Grupo_56919" data-name="Grupo 56919" transform="translate(109.062 2.375)">
              <g id="Grupo_56918" data-name="Grupo 56918">
                <path id="Trazado_101984" data-name="Trazado 101984" d="M748.289,4858.51a9.185,9.185,0,0,0,.4-5.828c-.1.014.051,1.32-.066,2.923S748.191,4858.481,748.289,4858.51Z" transform="translate(-748.271 -4852.682)" fill="#1a2e35"/>
              </g>
            </g>
            <g id="Grupo_56921" data-name="Grupo 56921" transform="translate(84.864 8.953)" opacity="0.3">
              <g id="Grupo_56920" data-name="Grupo 56920">
                <path id="Trazado_101985" data-name="Trazado 101985" d="M767.807,4863.354c-12.054,2.133-24.272.02-37.029,1.529,12.318-2.549,25.145-3.758,37.029-1.529" transform="translate(-730.778 -4862.186)"/>
              </g>
            </g>
            <g id="Grupo_56923" data-name="Grupo 56923" transform="translate(143.045 56.972)" opacity="0.3">
              <g id="Grupo_56922" data-name="Grupo 56922">
                <path id="Trazado_101986" data-name="Trazado 101986" d="M692.036,4982.632c6.78-15.879,5.977-33.828,5.058-51.069Z" transform="translate(-692.036 -4931.563)"/>
              </g>
            </g>
            <g id="Grupo_56925" data-name="Grupo 56925" transform="translate(140.448 48.404)">
              <g id="Grupo_56924" data-name="Grupo 56924">
                <path id="Trazado_101987" data-name="Trazado 101987" d="M700.163,4919.184a.909.909,0,0,0-.036.2c-.018.152-.042.346-.071.591-.057.542-.138,1.3-.241,2.272-.2,2-.48,4.851-.828,8.364-.689,7.064-1.63,16.824-2.751,27.593s-2.247,20.513-3.146,27.552c-.442,3.52-.823,6.366-1.09,8.333-.128.966-.228,1.725-.3,2.266-.028.244-.051.438-.069.59a.845.845,0,0,0-.012.2.929.929,0,0,0,.046-.2l.1-.586c.086-.538.208-1.294.363-2.256.307-1.961.725-4.8,1.2-8.321.96-7.033,2.121-16.772,3.245-27.548s2.025-20.536,2.653-27.605c.3-3.519.548-6.374.721-8.375.075-.972.135-1.734.177-2.278.015-.246.028-.442.037-.594A.889.889,0,0,0,700.163,4919.184Z" transform="translate(-691.616 -4919.184)" fill="#1a2e35"/>
              </g>
            </g>
            <g id="Grupo_56927" data-name="Grupo 56927" transform="translate(96.848 39.736)">
              <g id="Grupo_56926" data-name="Grupo 56926">
                <path id="Trazado_101988" data-name="Trazado 101988" d="M697.161,4906.807a2.591,2.591,0,0,0,.5.027l1.422.009c1.235,0,3.022.013,5.228.065,4.412.1,10.506.423,17.194,1.214s12.689,1.916,17,2.855c2.157.468,3.9.869,5.1,1.164l1.385.324a2.814,2.814,0,0,0,.489.091,2.65,2.65,0,0,0-.471-.157l-1.369-.386c-1.19-.334-2.924-.772-5.078-1.271a161,161,0,0,0-34.244-4.075c-2.21-.021-4,0-5.233.043l-1.422.054A2.933,2.933,0,0,0,697.161,4906.807Z" transform="translate(-697.161 -4906.66)" fill="#1a2e35"/>
              </g>
            </g>
            <g id="Grupo_56929" data-name="Grupo 56929" transform="translate(125.27 24.545)">
              <g id="Grupo_56928" data-name="Grupo 56928">
                <path id="Trazado_101989" data-name="Trazado 101989" d="M725.348,4916.915c.094,0-.083-7.215-.4-16.106s-.641-16.1-.735-16.1.083,7.214.4,16.108S725.254,4916.917,725.348,4916.915Z" transform="translate(-724.193 -4884.712)" fill="#1a2e35"/>
              </g>
            </g>
            <g id="Grupo_56931" data-name="Grupo 56931" transform="translate(80.132 13.403)">
              <g id="Grupo_56930" data-name="Grupo 56930">
                <path id="Trazado_101990" data-name="Trazado 101990" d="M775.518,4911.067a3.186,3.186,0,0,0,.289-.453l.772-1.327,2.842-4.882a42.335,42.335,0,0,0,3.565-7.6,24.9,24.9,0,0,0,1.063-4.855,29.274,29.274,0,0,0,.015-5.336,28.33,28.33,0,0,0-2.543-9.942,16.374,16.374,0,0,0-2.507-3.74,14.229,14.229,0,0,0-3.012-2.515,11.477,11.477,0,0,0-5.343-1.789,7.523,7.523,0,0,0-2.071.115,18.985,18.985,0,0,1,2.061.017,11.661,11.661,0,0,1,5.226,1.861,14.188,14.188,0,0,1,2.93,2.5,16.287,16.287,0,0,1,2.436,3.69,28.441,28.441,0,0,1,2.486,9.835,29.353,29.353,0,0,1-.008,5.269,24.911,24.911,0,0,1-1.03,4.794,43.63,43.63,0,0,1-3.476,7.575l-2.748,4.935q-.449.852-.716,1.359A3.1,3.1,0,0,0,775.518,4911.067Z" transform="translate(-768.588 -4868.615)" fill="#1a2e35"/>
              </g>
            </g>
            <g id="Grupo_56933" data-name="Grupo 56933" transform="translate(101.594 40.036)" opacity="0.3">
              <g id="Grupo_56932" data-name="Grupo 56932">
                <path id="Trazado_101991" data-name="Trazado 101991" d="M740.864,4912.651a91.736,91.736,0,0,1-14.474-1.91,22.072,22.072,0,0,1,.81,6.474,14.848,14.848,0,0,1-3.218-5.922,8.962,8.962,0,0,1-3.651,5.992,19.575,19.575,0,0,1-.325-6.6q-10.8-1.3-21.462-3.552a145.514,145.514,0,0,1,42.608,5.3" transform="translate(-698.545 -4907.093)"/>
              </g>
            </g>
          </g>
          <g id="Grupo_56935" data-name="Grupo 56935" transform="translate(58.714 65.167)">
            <path id="Trazado_101992" data-name="Trazado 101992" d="M788.785,4956.9a1.908,1.908,0,0,0,.332-.2l.921-.614c.8-.537,1.939-1.328,3.345-2.315,2.812-1.973,6.665-4.743,10.867-7.876s7.957-6.038,10.65-8.171c1.347-1.065,2.431-1.936,3.173-2.545l.851-.707a1.884,1.884,0,0,0,.285-.262,1.976,1.976,0,0,0-.321.216l-.884.664-3.23,2.472c-2.725,2.09-6.5,4.967-10.7,8.1s-8.033,5.926-10.813,7.942c-1.369.993-2.486,1.8-3.291,2.391-.367.271-.662.489-.889.658A1.784,1.784,0,0,0,788.785,4956.9Z" transform="translate(-788.784 -4934.209)" fill="#1a2e35"/>
          </g>
          <g id="Grupo_56936" data-name="Grupo 56936" transform="translate(39.812 56.591)">
            <path id="Trazado_101993" data-name="Trazado 101993" d="M853.672,4935.914c.051,0,.018-.846.116-2.2a23.057,23.057,0,0,1,3.114-10.02c.686-1.17,1.191-1.847,1.15-1.877a2.342,2.342,0,0,0-.394.445,14.827,14.827,0,0,0-.932,1.325,20.486,20.486,0,0,0-3.144,10.116,14.652,14.652,0,0,0,.017,1.619A2.331,2.331,0,0,0,853.672,4935.914Z" transform="translate(-853.569 -4921.818)" fill="#1a2e35"/>
          </g>
          <g id="Grupo_56937" data-name="Grupo 56937" transform="translate(35.977 57.856)">
            <path id="Trazado_101994" data-name="Trazado 101994" d="M863.451,4935.212c.046-.008-.06-.661-.141-1.722a21.527,21.527,0,0,1,.943-8.2c.32-1.015.572-1.627.529-1.646a1.447,1.447,0,0,0-.233.407,12.006,12.006,0,0,0-.491,1.173,18.025,18.025,0,0,0-.953,8.283,12.136,12.136,0,0,0,.212,1.254A1.446,1.446,0,0,0,863.451,4935.212Z" transform="translate(-862.978 -4923.647)" fill="#1a2e35"/>
          </g>
          <g id="Grupo_56938" data-name="Grupo 56938" transform="translate(10.163 45.976)">
            <path id="Trazado_101995" data-name="Trazado 101995" d="M874.912,4922.725c.017,0-.008-.108.13-.211a.675.675,0,0,0,.227-.246c.066-.117.108-.261.188-.4.15-.279.521-.5.791-.911a5.94,5.94,0,0,0,.675-1.477,9.838,9.838,0,0,1,1.92-3.623,15.994,15.994,0,0,1,1.73-1.725,18.187,18.187,0,0,1,2.087-1.593,17.122,17.122,0,0,1,2.233-1.386l2.215-1.084c.708-.334,1.364-.68,2.008-.957l1.792-.763a8.044,8.044,0,0,0,.779-.355c.237-.143.435-.3.636-.407l.581-.309c.183-.1.33-.223.464-.308.276-.171.519-.266.674-.351a.726.726,0,0,0,.229-.141,1.173,1.173,0,0,0-.253.088,5.346,5.346,0,0,0-.709.307,7.593,7.593,0,0,1-1.064.57c-.216.111-.424.262-.65.389s-.5.213-.771.329l-1.8.728c-.646.265-1.318.607-2.034.938l-2.223,1.07a16.709,16.709,0,0,0-2.267,1.4,17.762,17.762,0,0,0-2.115,1.623,15.689,15.689,0,0,0-1.748,1.767,9.8,9.8,0,0,0-1.91,3.729,6,6,0,0,1-.615,1.451c-.233.393-.6.623-.755.947-.082.155-.113.3-.167.412a.659.659,0,0,1-.189.242C874.86,4922.606,874.909,4922.734,874.912,4922.725Z" transform="translate(-874.902 -4906.482)" fill="#1a2e35"/>
          </g>
          <g id="Grupo_56939" data-name="Grupo 56939" transform="translate(81.802 70.897)">
            <path id="Trazado_101996" data-name="Trazado 101996" d="M799.107,5005.719c.081,0,.146-14.155.146-31.613s-.065-31.617-.146-31.617-.145,14.152-.145,31.617S799.027,5005.719,799.107,5005.719Z" transform="translate(-798.962 -4942.489)" fill="#1a2e35"/>
          </g>
        </g>
      </g>
    </g>
    <g id="freepik--speech-bubble--inject-11" transform="translate(656.265 4680.699)">
      <path id="Trazado_99401" data-name="Trazado 99401" d="M529.832,4138.094a34.267,34.267,0,0,1-54.695,27.523l-16.826,4.28,6.991-15.635a34.277,34.277,0,1,1,64.489-16.168Z" transform="translate(-457.583 -4103.633)" fill="#fff"/>
      <path id="Trazado_99402" data-name="Trazado 99402" d="M530,4138.128a34.442,34.442,0,0,1-5.081,18A38.862,38.862,0,0,1,522.2,4160a38.468,38.468,0,0,1-3.275,3.417c-.606.513-1.14,1.109-1.786,1.56l-1.9,1.427c-.626.472-1.335.852-1.992,1.273l-1.026.625c-.338.2-.708.359-1.027.535l-2.135,1.025-2.227.832a15.754,15.754,0,0,1-2.269.689c-.771.184-1.529.452-2.31.564a33.221,33.221,0,0,1-4.723.573,29.142,29.142,0,0,1-4.753,0,34.338,34.338,0,0,1-17.666-6.579l.307.062-16.764,4.373-.9.236.38-.862,6.95-15.645v.431a33.94,33.94,0,0,1-4.105-15.1,34.523,34.523,0,1,1,69.025-1.3Zm0,0a34.358,34.358,0,0,0-13.253-26.937,34.813,34.813,0,0,0-13.961-6.414,34.154,34.154,0,0,0-15.317.42,33.689,33.689,0,0,0-13.591,7.023,35.312,35.312,0,0,0-9.1,12.226,33.873,33.873,0,0,0,1.128,29.625l.113.216-.092.216-7.032,15.614-.524-.618,16.815-4.206h.165l.143.1a33.888,33.888,0,0,0,17.267,6.684,29.861,29.861,0,0,0,4.691.07,34,34,0,0,0,4.671-.5c.781-.115,1.529-.36,2.3-.535a15.55,15.55,0,0,0,2.258-.658l2.218-.79,2.125-1.028c.359-.173.719-.329,1.026-.513l1.027-.605c.667-.423,1.375-.78,2-1.244l1.9-1.4a21.265,21.265,0,0,0,1.786-1.54,38.991,38.991,0,0,0,3.286-3.388,37.441,37.441,0,0,0,2.73-3.85A34.355,34.355,0,0,0,530,4138.128Z" transform="translate(-457.75 -4103.667)" fill="#344154"/>
      <path id="Trazado_99403" data-name="Trazado 99403" d="M487.091,4151.936l-12.76-12.9,4.291-4.229,7.443,7.534,15.481-24.257,5.071,3.234Z" transform="translate(-452.824 -4099.386)" fill="#ff9d00"/>
    </g>
  </g>
</svg>
