<svg xmlns="http://www.w3.org/2000/svg" xmlns:xlink="http://www.w3.org/1999/xlink" width="91.927" height="91.927" viewBox="0 0 91.927 91.927">
  <defs>
    <radialGradient id="radial-gradient" cx="0.076" cy="0.019" r="1.465" gradientTransform="translate(0.001)" gradientUnits="objectBoundingBox">
      <stop offset="0" stop-color="#f6f6f7"/>
      <stop offset="0.477" stop-color="#f9f9fa"/>
      <stop offset="0.715" stop-color="#fff"/>
    </radialGradient>
  </defs>
  <g id="Grupo_87670" data-name="Grupo 87670" transform="translate(-217 -741.333)">
    <g id="Grupo_42274" data-name="Grupo 42274" transform="translate(142 768.333)">
      <g id="Grupo_18423" data-name="Grupo 18423" transform="translate(75 -27)">
        <g id="Grupo_18421" data-name="Grupo 18421">
          <g id="Grupo_18420" data-name="Grupo 18420">
            <g id="Grupo_18419" data-name="Grupo 18419">
              <path id="Trazado_40936" data-name="Trazado 40936" d="M286.55,2191.684a45.964,45.964,0,1,1-45.963-45.962A45.963,45.963,0,0,1,286.55,2191.684Z" transform="translate(-194.623 -2145.721)" fill="#fff"/>
            </g>
          </g>
        </g>
        <path id="Trazado_40937" data-name="Trazado 40937" d="M286.23,2191.334a45.963,45.963,0,1,0-45.963,45.965A45.782,45.782,0,0,0,286.23,2191.334Z" transform="translate(-194.303 -2145.372)" fill="url(#radial-gradient)"/>
        <path id="Trazado_40938" data-name="Trazado 40938" d="M272.56,2188.562a35.084,35.084,0,1,0-35.084,35.084A34.953,34.953,0,0,0,272.56,2188.562Z" transform="translate(-191.373 -2142.446)" fill="none" stroke="#7d6eb2" stroke-miterlimit="10" stroke-width="4"/>
        <g id="Grupo_18422" data-name="Grupo 18422" transform="translate(8.143 25.805)">
          <path id="Trazado_40939" data-name="Trazado 40939" d="M279.682,2164.488a45.969,45.969,0,0,1-79.137,45.773,45.823,45.823,0,0,0,79.137-45.773Z" transform="translate(-200.545 -2164.488)" fill="#eceef0"/>
        </g>
      </g>
    </g>
    <g id="_0F0xIv" data-name="0F0xIv" transform="translate(899.104 128.137)">
      <g id="Grupo_87683" data-name="Grupo 87683" transform="translate(-652.583 636.901)">
        <path id="Trazado_139503" data-name="Trazado 139503" d="M-646.66,636.9h21.039a2.042,2.042,0,0,1,.634,2.693c-.469,1.231-.844,2.5-1.31,3.9,1.452-.477,2.713-.9,3.979-1.306,1.865-.6,2.617-.069,2.618,1.862q0,9.23,0,18.46c0,2.076-.747,2.614-2.712,1.964l-3.886-1.286c.5,1.509.926,2.811,1.35,4.115.543,1.666,0,2.462-1.731,2.474-2.264.016-4.528,0-6.791.007-.371,0-.743.035-1.192.058,0,1.523-.058,2.936.029,4.34a2.641,2.641,0,0,0,.637,1.552c1.956,2.043,3.984,4.017,5.982,6.021,1.141,1.144,1.093,1.943-.159,2.949h-.85l-5.64-5.238c0,1.107-.042,2.084.012,3.055a2.249,2.249,0,0,1-.961,2.184h-1.063a2.186,2.186,0,0,1-.96-2.079c.048-1.007.011-2.018.011-3.027l-.344-.193a13.123,13.123,0,0,1-1.059,1.311c-1.395,1.347-2.822,2.661-4.237,3.988h-.85c-1.267-1.015-1.316-1.789-.169-2.94,2.023-2.03,4.057-4.049,6.073-6.086.237-.239.545-.557.554-.848.053-1.651.026-3.306.026-5.051-2.744,0-5.358.011-7.971,0-1.734-.01-2.281-.8-1.74-2.467.43-1.321.862-2.642,1.348-4.131-1.452.484-2.712.91-3.976,1.324-1.845.6-2.614.053-2.615-1.878q0-9.287,0-18.574c0-1.932.751-2.465,2.614-1.864,1.283.414,2.564.835,3.987,1.3-.485-1.461-.865-2.747-1.342-4A1.964,1.964,0,0,1-646.66,636.9Zm-.5,16.561a10.949,10.949,0,0,0,11.329,10.864,11,11,0,0,0,10.7-11.075,11.072,11.072,0,0,0-11.181-10.957A11.048,11.048,0,0,0-647.156,653.462Z" transform="translate(652.583 -636.901)" fill="#12263f"/>
        <path id="Trazado_139504" data-name="Trazado 139504" d="M-608.041,672.624a8.779,8.779,0,0,0-8.831,8.925,8.813,8.813,0,0,0,8.878,8.785,8.815,8.815,0,0,0,8.832-8.937A8.788,8.788,0,0,0-608.041,672.624Z" transform="translate(624.46 -665.034)" fill="#12263f"/>
        <path id="Trazado_139505" data-name="Trazado 139505" d="M-608.041,672.624a8.788,8.788,0,0,1,8.879,8.773,8.815,8.815,0,0,1-8.832,8.937,8.813,8.813,0,0,1-8.878-8.785A8.779,8.779,0,0,1-608.041,672.624Z" transform="translate(624.46 -665.034)" fill="#12263f"/>
      </g>
    </g>
  </g>
</svg>
