<svg xmlns="http://www.w3.org/2000/svg" width="216.485" height="159.935" viewBox="0 0 216.485 159.935">
  <g id="Grupo_87852" data-name="Grupo 87852" transform="translate(-990.797 -7222.016)">
    <g id="Grupo_87407" data-name="Grupo 87407" transform="translate(990.797 7222.016)">
      <g id="Grupo_87406" data-name="Grupo 87406" transform="translate(0 41.792)">
        <g id="Grupo_87398" data-name="Grupo 87398" transform="translate(0.497 5.508)">
          <path id="Trazado_138986" data-name="Trazado 138986" d="M37.308,152.9c-5.135-4.418-6.95-10.736-4.056-14.1s9.41-2.506,14.548,1.917,6.958,10.733,4.058,14.1S42.447,157.324,37.308,152.9Z" transform="translate(-18.502 -136.743)" fill="#12263f"/>
          <path id="Trazado_138987" data-name="Trazado 138987" d="M40.5,164.457c-6.535-1.8-12.79.208-13.971,4.49s3.163,9.212,9.7,11.011,12.793-.208,13.973-4.488S47.034,166.257,40.5,164.457Z" transform="translate(-26.335 -98.487)" fill="#12263f"/>
        </g>
        <g id="Grupo_87401" data-name="Grupo 87401" transform="translate(46.329 17.876)">
          <g id="Grupo_87400" data-name="Grupo 87400">
            <path id="Trazado_138988" data-name="Trazado 138988" d="M45.32,217.533c14.323.7,25.991.929,40.314,1.709A233.249,233.249,0,0,0,98.127,155.5c-13.56-4.686-24.448-8.879-37.979-13.638Z" transform="translate(-45.32 -141.866)" fill="#afafaf"/>
            <g id="Grupo_87399" data-name="Grupo 87399" transform="translate(2.455 2.711)">
              <path id="Trazado_138989" data-name="Trazado 138989" d="M46.337,214.021l13.922-71.032c5.27,1.871,10.209,3.672,15,5.42,6.125,2.236,12.438,4.541,19.306,6.929-.369,6.4-1.019,12.8-1.943,19.123q-.764,5.3-1.789,10.521c-.756,3.843-1.671,7.957-2.7,12.109-1.574,6.323-3.414,12.737-5.364,18.447-7.276-.384-14.014-.63-20.54-.876C57.145,214.472,51.906,214.277,46.337,214.021Z" transform="translate(-46.337 -142.989)" fill="#b0c0d2"/>
            </g>
            <path id="Trazado_138990" data-name="Trazado 138990" d="M79.539,162.126l-9.087,11.243-7.774-15.209-5.7,12.15s-3.3-2-5.642-3.252l-5,25.51c5.569.256,10.808.451,15.892.64,6.525.246,13.263.492,20.54.876,1.951-5.709,3.79-12.124,5.364-18.447q.449-1.811.867-3.6a12.975,12.975,0,0,1-6.96-.983Z" transform="translate(-43.882 -118.825)" fill="#12263f"/>
          </g>
        </g>
        <g id="Grupo_87403" data-name="Grupo 87403" transform="translate(11.283 0.81)">
          <g id="Grupo_87402" data-name="Grupo 87402">
            <path id="Trazado_138991" data-name="Trazado 138991" d="M30.8,231.733s13.961,3.993,20.342,4.906a7.551,7.551,0,0,0,4.056-.8q5.468-3.06,10.854-6.272a5.6,5.6,0,0,0,2.354-3.235c2.347-11.936,5.024-25.568,7.37-37.5q3.418-17.4,6.842-34.79a5.627,5.627,0,0,0-.954-3.889q-3.777-5-7.675-9.913a7.555,7.555,0,0,0-3.452-2.277c-1.234-.311-1.852-.456-3.093-.732l-.007,0C61.557,136.057,49.8,134.8,49.8,134.8Z" transform="translate(-30.803 -134.797)" fill="#afafaf"/>
            <path id="Trazado_138992" data-name="Trazado 138992" d="M40.665,230.419c3.351-1.876,6.82-3.882,10.608-6.132a4.054,4.054,0,0,0,1.576-2.137c1.4-7.1,2.909-14.8,4.4-22.382l2.972-15.122,6.842-34.793a4.042,4.042,0,0,0-.654-2.578c-2.67-3.544-5.14-6.733-7.535-9.746Z" transform="translate(-16.857 -130.934)" fill="#e8e8e8"/>
          </g>
        </g>
        <path id="Trazado_138993" data-name="Trazado 138993" d="M26.129,228.087l31.728-93.625,10.283.786L34.77,233.715Z" transform="translate(-26.129 -134.461)" fill="#b0c0d2"/>
        <g id="Grupo_87404" data-name="Grupo 87404" transform="translate(23.249 5.508)">
          <path id="Trazado_138994" data-name="Trazado 138994" d="M45.178,153.4c-2.226-.951-3.271-2.337-2.793-4.778l1.555-7.935a4.878,4.878,0,0,1,5.724-3.848l.169.034a4.877,4.877,0,0,1,3.848,5.724S47.5,154.393,45.178,153.4Z" transform="translate(-26.552 -136.743)" fill="#ff9d00"/>
          <path id="Trazado_138995" data-name="Trazado 138995" d="M41.8,168.485c-2.424.044-3.911.932-4.391,3.373l-1.555,7.933a4.876,4.876,0,0,0,3.848,5.726l.169.031a4.876,4.876,0,0,0,5.724-3.848S44.319,168.439,41.8,168.485Z" transform="translate(-35.76 -91.855)" fill="#fafbfd"/>
          <path id="Trazado_138996" data-name="Trazado 138996" d="M41.434,169.971c-.495.744-.246,1.487-.495,2.231-.495.744-1.238-.495-1.738-.495-2.1-.193-1.849,2.262-2.866,3.513l-.483,2.47a4.876,4.876,0,0,0,3.848,5.726l.169.031a4.876,4.876,0,0,0,5.724-3.848s-.377-3.9-1.123-7.46A4.2,4.2,0,0,1,41.434,169.971Z" transform="translate(-35.76 -89.754)" fill="#12263f"/>
          <path id="Trazado_138997" data-name="Trazado 138997" d="M41.461,168.485c-2.424.044-3.911.932-4.391,3.373L36,177.321c1.016-1.251.768-3.706,2.866-3.513.5,0,1.243,1.238,1.738.495.249-.744,0-1.487.495-2.231a4.2,4.2,0,0,0,3.037,2.168C43.506,171.23,42.613,168.466,41.461,168.485Z" transform="translate(-35.423 -91.855)" fill="#fff"/>
        </g>
        <rect id="Rectángulo_32751" data-name="Rectángulo 32751" width="29.757" height="6.363" transform="translate(27.353 65.699) rotate(-78.914)" fill="#12263f"/>
        <g id="Grupo_87405" data-name="Grupo 87405" transform="translate(57.552 26.328)">
          <path id="Trazado_138998" data-name="Trazado 138998" d="M55.792,168.531l-5.823-1.139,4.317-22.024,5.823,1.139a7.064,7.064,0,0,1,5.352,4.722l1.881.367a7.066,7.066,0,0,1,5.574,8.293l-.212,1.084a7.067,7.067,0,0,1-8.29,5.577l-1.883-.369A7.056,7.056,0,0,1,55.792,168.531Z" transform="translate(-49.969 -145.367)" fill="#d2e1f1"/>
        </g>
      </g>
      <path id="Trazado_138999" data-name="Trazado 138999" d="M66.449,150.088l2.109,4.942,5.178-1.432-2.548,4.732,4.347,3.156-5.286.956.243,5.368-4.043-3.537L62.4,167.809l.244-5.368-5.286-.956,4.346-3.156L59.161,153.6l5.177,1.432Z" transform="translate(18.038 -70.571)" fill="#322838"/>
      <path id="Trazado_139000" data-name="Trazado 139000" d="M35.242,178.621c-.174,0-6.552,4.435-6.552,4.435a4.081,4.081,0,0,0,3.276,1.478H40.6Z" transform="translate(-22.508 -30.221)" fill="#d0edfe"/>
      <path id="Trazado_139001" data-name="Trazado 139001" d="M44.357,181.771c-.077,0-3.368-.763-3.368-.763l-.311,3.481,1.475,2.291,3.947-1.76,1.939-2.011Z" transform="translate(-5.555 -26.846)" fill="#afafaf"/>
      <path id="Trazado_139002" data-name="Trazado 139002" d="M34.872,178.634a14.092,14.092,0,0,1,2.327-1.683l1.963,1.335.311,1.772-2.689.485-1.465-.77Z" transform="translate(-13.766 -32.583)" fill="#afafaf"/>
      <path id="Trazado_139003" data-name="Trazado 139003" d="M32.543,181.586l1.089,2.985,3.551-.7,1.24-2.282-3.051.4Z" transform="translate(-17.06 -26.028)" fill="#afafaf"/>
      <path id="Trazado_139004" data-name="Trazado 139004" d="M47.225,177.519c-.075,0-1.948,1.4-1.948,1.4l-4.606-.548L43.694,181l.253,3.479,4.119-3.044Z" transform="translate(-5.565 -31.78)" fill="#d0edfe"/>
      <path id="Trazado_139005" data-name="Trazado 139005" d="M43.207,177.841c-.077,0-1.951,1.19-1.951,1.19l-3.167.886-1.434,2.52,3.274,1.316,2.943-.946Z" transform="translate(-11.245 -31.324)" fill="#d0edfe"/>
      <path id="Trazado_139006" data-name="Trazado 139006" d="M36.016,182.867a14.133,14.133,0,0,1,2.327-1.982c.251-.212.9,1.391,1.345,1.581s1.63,2.2.929,2.076a9.356,9.356,0,0,0-2.694.57l-.323-2.235Z" transform="translate(-12.148 -27.046)" fill="#afafaf"/>
      <path id="Trazado_139007" data-name="Trazado 139007" d="M44.765,176.856l1.088,3.514,3.553-.827,1.242-2.686-3.053.468Z" transform="translate(0.224 -32.718)" fill="#afafaf"/>
      <path id="Trazado_139008" data-name="Trazado 139008" d="M76.762,127.1a4.363,4.363,0,0,0-.427-2.89,4.124,4.124,0,0,0-1.98-1.982,5.209,5.209,0,0,0-2.021-.27,5.876,5.876,0,0,0-.4-.664,5.556,5.556,0,0,0-2.052-1.75,10.284,10.284,0,0,0-1.248-1.422c-1.217-1.181-2.94-1.113-4.483-.7a6.429,6.429,0,0,0-2.723,1.444,3.268,3.268,0,0,0-1.8-1.036c-1.564-.34-3.184.869-4.109,2.006a7.539,7.539,0,0,0-1.63,3.23v0a5.193,5.193,0,0,0-1.724.987,11.786,11.786,0,0,0-2.989,4.4,4.641,4.641,0,0,0-.418,2.168,4.459,4.459,0,0,0,1.173,2.528,6.136,6.136,0,0,0,1.405,1.183,5.872,5.872,0,0,0-.42,1.135,5.264,5.264,0,0,0,1.441,5.405,4.248,4.248,0,0,0,2.7.963c-.031.072-.065.14-.092.208a11.332,11.332,0,0,0-.939,5.089,4.615,4.615,0,0,0,3.476,3.928,5.885,5.885,0,0,0,2.909-.043l.036.029a2.67,2.67,0,0,0-.275.21,3.724,3.724,0,0,0-1,1.072,4.3,4.3,0,0,0-.637,1.774,4.6,4.6,0,0,0-.845,2.161,5.541,5.541,0,0,0,1.1,4.741,4.347,4.347,0,0,0,4.135,1.26,3.962,3.962,0,0,0,.263,1.84,3.8,3.8,0,0,0,1.267,1.779,1.8,1.8,0,0,0-.548.6,4.517,4.517,0,0,0-.432,2.453,2.133,2.133,0,0,0,1.2,1.987,2.2,2.2,0,0,0,2.535-.732,4.01,4.01,0,0,0,1.082-2.576,1.833,1.833,0,0,0-.21-.954l.024-.056a1.97,1.97,0,0,0-.1-1.477,2.3,2.3,0,0,0,1.49-.765,3.233,3.233,0,0,0,.843-1.914,2.594,2.594,0,0,0-.6-1.977c.036-.068.072-.133.1-.2a8.173,8.173,0,0,0,.432-1.038,4.278,4.278,0,0,0,1.654-1.49,4.789,4.789,0,0,0,.611-3.29,4.115,4.115,0,0,0-1.263-2.506l.014,0a4.482,4.482,0,0,0,1.984-1.079,6.36,6.36,0,0,0,1.926-3.877,4.991,4.991,0,0,0-.7-3.4c.014-.017.031-.031.043-.048a4.512,4.512,0,0,0,1.055-4.276,3.84,3.84,0,0,0-.6-1.156,5.308,5.308,0,0,0,2.5-2.9c.678-2.088-.606-4.251-2.446-5.338A4.693,4.693,0,0,0,76.762,127.1Z" transform="translate(5.869 -117.15)" fill="#12263f"/>
    </g>
    <g id="Grupo_87397" data-name="Grupo 87397" transform="translate(1053.547 7259.415)">
      <g id="Grupo_87369" data-name="Grupo 87369" transform="translate(72.613 0)">
        <g id="Grupo_87361" data-name="Grupo 87361">
          <g id="Grupo_87344" data-name="Grupo 87344" transform="translate(0 40.574)">
            <rect id="Rectángulo_32736" data-name="Rectángulo 32736" width="2.302" height="3.98" transform="translate(4.781 5.965) rotate(-45.667)" fill="#edb485"/>
            <g id="Grupo_87343" data-name="Grupo 87343">
              <path id="Trazado_138918" data-name="Trazado 138918" d="M200.832,61.909a.581.581,0,0,1,.159.808h0a.584.584,0,0,1-.81.162l-2.9-1.944a.589.589,0,0,1-.164-.813h0a.593.593,0,0,1,.813-.164Z" transform="translate(-197.014 -57.277)" fill="#edb485"/>
              <path id="Trazado_138919" data-name="Trazado 138919" d="M201.3,61.492a.584.584,0,0,1,.025.824h0a.585.585,0,0,1-.827.025l-2.545-2.4a.588.588,0,0,1-.022-.827h0a.592.592,0,0,1,.824-.022Z" transform="translate(-195.667 -58.933)" fill="#edb485"/>
              <path id="Trazado_138920" data-name="Trazado 138920" d="M199.944,59.25a.628.628,0,0,0-.682.582l-.228,2.816a2.027,2.027,0,0,0,.866.415c.189.028.546-.379.546-.379l.084-2.751A.629.629,0,0,0,199.944,59.25Z" transform="translate(-193.41 -58.372)" fill="#edb485"/>
              <path id="Trazado_138921" data-name="Trazado 138921" d="M200.922,61.6a.584.584,0,0,1,.084.822h0a.589.589,0,0,1-.822.084L197.466,60.3a.587.587,0,0,1-.084-.824h0a.588.588,0,0,1,.819-.086Z" transform="translate(-196.591 -58.352)" fill="#edb485"/>
              <path id="Rectángulo_32737" data-name="Rectángulo 32737" d="M.414,0h3.13A.416.416,0,0,1,3.96.416V3.549a.416.416,0,0,1-.416.416H.415A.415.415,0,0,1,0,3.549V.414A.414.414,0,0,1,.414,0Z" transform="translate(1.933 4.599) rotate(-50.751)" fill="#edb485"/>
            </g>
          </g>
          <g id="Grupo_87345" data-name="Grupo 87345" transform="translate(5.319 22.675)">
            <path id="Trazado_138922" data-name="Trazado 138922" d="M211.325,82.536a10.357,10.357,0,0,1-2.927.418,12.867,12.867,0,0,1-6.709-2.133c-.262-.167-2.765-2.245-2.765-2.245l3.086-3.512a15.174,15.174,0,0,0,2.128,1.821c3.077,1.913,5.628,1.91,8.268-.011,4.676-3.4,5.458-9.956,5.573-12.618.019-.423.036-.874.047-1.356.095-3.088.217-6.923,1.679-9.3a2.318,2.318,0,0,1,3.943,2.437c-.808,1.317-.919,4.737-.991,7-.011.5-.028.966-.047,1.415-.309,7.04-3.038,12.939-7.48,16.164A12.407,12.407,0,0,1,211.325,82.536Z" transform="translate(-198.924 -52.506)" fill="#81d4fa"/>
          </g>
          <g id="Grupo_87353" data-name="Grupo 87353" transform="translate(30.024 56.907)">
            <rect id="Rectángulo_32738" data-name="Rectángulo 32738" width="2.773" height="2.333" transform="matrix(0.504, -0.864, 0.864, 0.504, 43.883, 43.954)" fill="#cf9b72"/>
            <rect id="Rectángulo_32739" data-name="Rectángulo 32739" width="3.257" height="3.377" transform="matrix(0.504, -0.864, 0.864, 0.504, 45.06, 44.918)" fill="#fff"/>
            <g id="Grupo_87347" data-name="Grupo 87347">
              <g id="Grupo_87346" data-name="Grupo 87346">
                <path id="Trazado_138923" data-name="Trazado 138923" d="M253.832,104.94C237.566,95.891,222.4,82.878,217.971,64.8c-2.615.6-7.553,1.128-10.176,1.729,5.394,19.984,24.58,34.572,42.935,44.169C251.757,108.772,252.8,106.858,253.832,104.94Z" transform="translate(-207.795 -64.798)" fill="#12263f"/>
              </g>
            </g>
            <g id="Grupo_87349" data-name="Grupo 87349">
              <g id="Grupo_87348" data-name="Grupo 87348">
                <path id="Trazado_138924" data-name="Trazado 138924" d="M218.166,74.03c-1.356,1.1-2.687,2.245-4.03,3.367-.415.345-.822.7-1.228,1.05a47.359,47.359,0,0,1-5.113-11.919c2.623-.6,7.561-1.125,10.176-1.729a45.621,45.621,0,0,0,2.487,7.349C219.664,72.735,218.926,73.412,218.166,74.03Z" transform="translate(-207.795 -64.798)" fill="#12263f"/>
                <path id="Trazado_138925" data-name="Trazado 138925" d="M217.184,73.8c-1.067,1.142-2.161,2.259-3.233,3.392-.4.426-.794.858-1.181,1.292q-1.625-2.176-3.03-4.456c.22-.2.44-.39.666-.585,1.326-1.133,2.657-2.27,3.977-3.417.916-.8,1.8-1.69,2.754-2.473a46.812,46.812,0,0,0,2.245,4.409A8.833,8.833,0,0,0,217.184,73.8Z" transform="translate(-204.323 -59.875)" fill="#4fbef0" style="mix-blend-mode: multiply;isolation: isolate"/>
              </g>
            </g>
            <g id="Grupo_87352" data-name="Grupo 87352" transform="translate(45.01 42.625)">
              <g id="Grupo_87351" data-name="Grupo 87351">
                <g id="Grupo_87350" data-name="Grupo 87350">
                  <path id="Trazado_138926" data-name="Trazado 138926" d="M229.158,80.6a.6.6,0,0,1,.24.824c-.549.991-1.718,3.119-1.718,3.119l-2.7,4.893-.7-.382,4.718-8.55Z" transform="translate(-223.388 -79.391)" fill="#12263f"/>
                  <path id="Trazado_138927" data-name="Trazado 138927" d="M224.862,89.768l4.72-8.541-.824-.451V80.77l-1.075-.59a.614.614,0,0,0-.766.145l.067.033a1.14,1.14,0,0,1-1.1,2l-.07-.042-1.025,2.181.047.025a.626.626,0,0,1,.3.3.4.4,0,0,1,.036.12,1.058,1.058,0,0,1-.056.543.581.581,0,0,0-.045.111,3.522,3.522,0,0,1-.162.329l-.568,1.036C223.745,88.022,223.787,89.178,224.862,89.768Z" transform="translate(-223.957 -80.104)" fill="#2790bf"/>
                </g>
              </g>
            </g>
          </g>
          <rect id="Rectángulo_32740" data-name="Rectángulo 32740" width="2.327" height="2.769" transform="matrix(0.19, -0.982, 0.982, 0.19, 17.258, 112.833)" fill="#cf9b72"/>
          <rect id="Rectángulo_32741" data-name="Rectángulo 32741" width="3.375" height="3.255" transform="translate(16.531 115.283) rotate(-78.916)" fill="#fff"/>
          <path id="Trazado_138928" data-name="Trazado 138928" d="M217.434,65.162h-5.762v7.294h5.762a3.283,3.283,0,0,0,3.286-3.283V67.131C220.72,65.315,219.25,65.162,217.434,65.162Z" transform="translate(-170.851 -7.241)" fill="#12263f"/>
          <g id="Grupo_87355" data-name="Grupo 87355" transform="translate(15.796 55.518)">
            <g id="Grupo_87354" data-name="Grupo 87354">
              <path id="Trazado_138929" data-name="Trazado 138929" d="M209.139,120.4c3.192-18.333,10.491-36.931,26.106-47.068-1.431-2.275-3.548-6.765-4.985-9.037-17.094,11.669-24.552,34.583-27.573,55.071Q205.915,119.884,209.139,120.4Z" transform="translate(-202.686 -64.299)" fill="#12263f"/>
            </g>
          </g>
          <path id="Trazado_138930" data-name="Trazado 138930" d="M206.5,55.709,210.377,92.2a1.417,1.417,0,0,0,1.529,1.306l16.946-1.793a1.427,1.427,0,0,0,1.22-1.6l-3.871-36.5a1.418,1.418,0,0,0-1.532-1.3l-2.587-.187-6.531-.468-7.9,2.4a1.7,1.7,0,0,0-1.125,1.142A1.508,1.508,0,0,0,206.5,55.709Z" transform="translate(-180.094 -31.346)" fill="#2790bf"/>
          <path id="Trazado_138931" data-name="Trazado 138931" d="M209.564,60.1a2.488,2.488,0,0,0,2.738,2.211h0a2.487,2.487,0,0,0,2.211-2.735l-.861-8.135a2.486,2.486,0,0,0-2.735-2.208h0a2.488,2.488,0,0,0-2.214,2.738Z" transform="translate(-176.175 -35.692)" fill="#d69b6b"/>
          <path id="Trazado_138932" data-name="Trazado 138932" d="M208.405,53.443c-.443-4.175,1.852-8.447,5.2-8.8s6.489,3.336,6.932,7.514-1.913,7.848-5.266,8.2S208.848,57.617,208.405,53.443Z" transform="translate(-176.78 -43.91)" fill="#2a2626"/>
          <path id="Trazado_138933" data-name="Trazado 138933" d="M207.321,58.094a6.119,6.119,0,0,0,6.723,5.436h0a6.119,6.119,0,0,0,5.433-6.728l-.677-6.38a6.109,6.109,0,0,0-6.723-5.431h0a6.107,6.107,0,0,0-5.433,6.72Z" transform="translate(-179.887 -43.306)" fill="#edb485"/>
          <path id="Trazado_138934" data-name="Trazado 138934" d="M211.116,50.737a.233.233,0,0,1-.209.259l-2.637.3a.24.24,0,0,1-.262-.206h0a.239.239,0,0,1,.206-.262l2.643-.3a.231.231,0,0,1,.259.206Z" transform="translate(-177.393 -33.359)" fill="#2a2626"/>
          <path id="Trazado_138935" data-name="Trazado 138935" d="M207.518,45.239a18.853,18.853,0,0,1,5-.858c5.974-.329,8.511,4.136,8.675,5.648l-1.93-1.153c.159,1.507-4.537,1.832-6.049,2l-5.043.535Z" transform="translate(-178.265 -44.364)" fill="#2a2626"/>
          <path id="Trazado_138936" data-name="Trazado 138936" d="M211.9,52.015a1.125,1.125,0,0,0,1-1.242l-.306-2.877a1.127,1.127,0,0,0-1.245-1h0a1.124,1.124,0,0,0-.994,1.239l.3,2.882a1.132,1.132,0,0,0,1.242,1Z" transform="translate(-173.213 -39.859)" fill="#2a2626"/>
          <path id="Trazado_138937" data-name="Trazado 138937" d="M214.831,50.5a1.764,1.764,0,0,0-1.98-1.423l-4.687.5-.351-3.286,9.037-.958.635,5.988-2.568-.019Z" transform="translate(-177.739 -42.65)" fill="#2a2626"/>
          <path id="Trazado_138938" data-name="Trazado 138938" d="M211.149,52.127c.707.3,1.66-.356,2.122-1.462s.259-2.239-.448-2.537-1.657.356-2.122,1.462S210.439,51.831,211.149,52.127Z" transform="translate(-173.029 -37.773)" fill="#edb485"/>
          <path id="Trazado_138939" data-name="Trazado 138939" d="M205.628,48.736a3.284,3.284,0,0,1,2.919-3.612l6.94-.738a3.284,3.284,0,0,1,3.612,2.921h0a3.278,3.278,0,0,1-2.919,3.609l-6.937.735a3.279,3.279,0,0,1-3.615-2.916Z" transform="translate(-181.672 -44.357)" fill="#2a2626"/>
          <g id="Grupo_87358" data-name="Grupo 87358" transform="translate(10.365 113.396)">
            <g id="Grupo_87357" data-name="Grupo 87357">
              <g id="Grupo_87356" data-name="Grupo 87356">
                <path id="Trazado_138940" data-name="Trazado 138940" d="M210.458,87.559a.6.6,0,0,1-.7.493c-1.117-.192-3.515-.6-3.515-.6l-5.509-.947.137-.785,9.616,1.643Z" transform="translate(-200.736 -83.936)" fill="#2a2626"/>
                <path id="Trazado_138941" data-name="Trazado 138941" d="M200.784,86.889l9.616,1.64.159-.919v0l.209-1.209a.606.606,0,0,0-.393-.671l-.008.067a1.137,1.137,0,1,1-2.242-.382l.011-.081-2.4-.251-.008.056a.671.671,0,0,1-.181.382.479.479,0,0,1-.1.07,1.011,1.011,0,0,1-.532.125c-.042,0-.086,0-.128-.006a2.269,2.269,0,0,1-.357-.042l-1.161-.2C202.065,85.26,200.99,85.681,200.784,86.889Z" transform="translate(-200.65 -85.082)" fill="#2a2626"/>
              </g>
            </g>
          </g>
          <g id="Grupo_87360" data-name="Grupo 87360" transform="translate(27.932 10.616)">
            <g id="Grupo_87359" data-name="Grupo 87359">
              <path id="Trazado_138942" data-name="Trazado 138942" d="M208.721,49.1a.691.691,0,1,0,.582-.916A.777.777,0,0,0,208.721,49.1Z" transform="translate(-204.061 -48.176)" fill="#2a2626"/>
              <path id="Trazado_138943" data-name="Trazado 138943" d="M207.05,49.27a.689.689,0,1,0,.576-.913A.771.771,0,0,0,207.05,49.27Z" transform="translate(-207.044 -47.858)" fill="#2a2626"/>
            </g>
            <path id="Trazado_138944" data-name="Trazado 138944" d="M208.034,50.677a.722.722,0,0,0,.788.641h0a.721.721,0,0,0,.638-.791l-.106-.994a.718.718,0,0,0-.788-.635h0a.716.716,0,0,0-.635.788Z" transform="translate(-205.468 -46.895)" fill="#d69b6b"/>
          </g>
        </g>
        <g id="Grupo_87368" data-name="Grupo 87368" transform="translate(38.422 20.881)">
          <path id="Trazado_138945" data-name="Trazado 138945" d="M213.8,70.712a.607.607,0,0,0,.858.131l2.2-1.618a1.936,1.936,0,0,0-.245-.894c-.1-.148-.616-.156-.616-.156l-2.064,1.682A.61.61,0,0,0,213.8,70.712Z" transform="translate(-205.69 -22.744)" fill="#edb485"/>
          <g id="Grupo_87363" data-name="Grupo 87363" transform="translate(0 46.653)">
            <path id="Trazado_138946" data-name="Trazado 138946" d="M213.239,68.614v5.154h1.149V69.806h7.3v3.961h1.15V68.614Z" transform="translate(-206.475 -68.614)" fill="#12263f"/>
            <g id="Grupo_87362" data-name="Grupo 87362" transform="translate(1.488 2.696)">
              <rect id="Rectángulo_32742" data-name="Rectángulo 32742" width="2.857" height="0.726" fill="#2a2626"/>
              <rect id="Rectángulo_32743" data-name="Rectángulo 32743" width="2.857" height="0.726" transform="translate(17.297)" fill="#2a2626"/>
            </g>
            <rect id="Rectángulo_32744" data-name="Rectángulo 32744" width="23.133" height="15.956" transform="translate(0 3.05)" fill="#ff9d00"/>
            <path id="Trazado_138947" data-name="Trazado 138947" d="M221.018,73.441h-2.192V71.249h-2.993v2.192h-2.195v2.992h2.195v2.193h2.993V76.433h2.192Z" transform="translate(-205.762 -63.91)" fill="#fff"/>
            <path id="Trazado_138948" data-name="Trazado 138948" d="M218.56,81.784a5.613,5.613,0,1,1,5.614-5.614A5.619,5.619,0,0,1,218.56,81.784Zm0-10.808a5.2,5.2,0,1,0,5.2,5.194A5.2,5.2,0,0,0,218.56,70.976Z" transform="translate(-206.995 -65.144)" fill="#fdfffe"/>
            <path id="Trazado_138949" data-name="Trazado 138949" d="M211.818,85.665V70.717h22.125V69.709H210.811V85.665Z" transform="translate(-210.811 -66.659)" fill="#12263f"/>
            <path id="Trazado_138950" data-name="Trazado 138950" d="M232.933,70.071V84.008H210.811v1.012h23.133V70.071Z" transform="translate(-210.811 -66.013)" fill="#12263f"/>
          </g>
          <g id="Grupo_87367" data-name="Grupo 87367" transform="translate(3.934)">
            <g id="Grupo_87365" data-name="Grupo 87365" transform="translate(5.07 42.246)">
              <rect id="Rectángulo_32745" data-name="Rectángulo 32745" width="3.839" height="2.221" transform="translate(2.007 3.518) rotate(-66.404)" fill="#edb485"/>
              <g id="Grupo_87364" data-name="Grupo 87364" transform="translate(0 2.624)">
                <path id="Rectángulo_32746" data-name="Rectángulo 32746" d="M.424,0H3.642a.426.426,0,0,1,.426.426V3.64a.426.426,0,0,1-.426.426H.425A.425.425,0,0,1,0,3.641V.424A.424.424,0,0,1,.424,0Z" transform="translate(0 3.855) rotate(-71.351)" fill="#edb485"/>
              </g>
            </g>
            <g id="Grupo_87366" data-name="Grupo 87366">
              <path id="Trazado_138951" data-name="Trazado 138951" d="M218.871,95.8a43.578,43.578,0,0,0,2.139-9.441,58.472,58.472,0,0,0,.2-16.528c-.482-3.075-2.8-11.518-7.656-13.682a2.237,2.237,0,0,1,1.816-4.088c8.051,3.584,10.173,16.526,10.262,17.069a65.474,65.474,0,0,1-.3,18.625,63.3,63.3,0,0,1-1.443,7.1,20.5,20.5,0,0,1-.922,2.746Z" transform="translate(-212.223 -51.862)" fill="#81d4fa"/>
            </g>
          </g>
        </g>
      </g>
      <g id="Grupo_87396" data-name="Grupo 87396" transform="translate(0 86.247)">
        <g id="Grupo_87370" data-name="Grupo 87370" transform="translate(99.007)">
          <path id="Trazado_138952" data-name="Trazado 138952" d="M213.115,92.463a1.947,1.947,0,0,0,.56-2.693c-.1-.142-.228-.331-.384-.551-.972-1.406-3.562-5.13-2.774-7.5.334-.994,1.359-1.78,3.047-2.334a3.909,3.909,0,0,1,3.25.465c3.517,1.986,6.372,7.525,7.274,9.719.615-.334,1.245-.649,1.849-.966a12.464,12.464,0,0,1,1.6-.838c-1.287-3.075-4.225-8.037-7.65-10.544-3.125-2.278-5.82-2.089-7.536-1.523-2.913.952-4.768,2.565-5.514,4.79a6.5,6.5,0,0,0-.192.707c-.858,4.024,2.142,8.332,3.462,10.237.134.187.242.343.32.468A1.942,1.942,0,0,0,213.115,92.463Z" transform="translate(-206.491 -75.333)" fill="#afafaf"/>
        </g>
        <g id="Grupo_87371" data-name="Grupo 87371" transform="translate(0 28.374)">
          <rect id="Rectángulo_32747" data-name="Rectángulo 32747" width="117.64" height="5.22" transform="translate(18.485)" fill="#bfd1e3"/>
          <rect id="Rectángulo_32748" data-name="Rectángulo 32748" width="117.642" height="5.22" transform="translate(10.807)" fill="#12263f"/>
          <path id="Trazado_138953" data-name="Trazado 138953" d="M181.748,85.818l-.111,0h-8.9a1.795,1.795,0,1,0,0,3.59h8.9c.036,0,.075-.006.111-.006Z" transform="translate(-170.94 -84.998)" fill="#727997"/>
          <path id="Trazado_138954" data-name="Trazado 138954" d="M218.824,85.9c.039,0,.075-.006.111-.006h8.9a1.8,1.8,0,1,1,0,3.593h-8.9c-.036,0-.072-.006-.111-.008Z" transform="translate(-85.472 -84.861)" fill="#12263f"/>
          <path id="Trazado_138955" data-name="Trazado 138955" d="M217.063,85.9c.036,0,.072-.006.111-.006h8.9a1.8,1.8,0,1,1,0,3.593h-8.9c-.039,0-.075-.006-.111-.008Z" transform="translate(-88.615 -84.861)" fill="#727997"/>
        </g>
        <g id="Grupo_87375" data-name="Grupo 87375" transform="translate(15.206 21.869)">
          <g id="Grupo_87373" data-name="Grupo 87373" transform="translate(6.819)">
            <g id="Grupo_87372" data-name="Grupo 87372">
              <path id="Trazado_138956" data-name="Trazado 138956" d="M178.848,84.467l.943,2.221,3.163-1.013-1.194-2.488Z" transform="translate(-178.848 -83.186)" fill="#cf9b72"/>
            </g>
          </g>
          <g id="Grupo_87374" data-name="Grupo 87374" transform="translate(0 0.432)">
            <path id="Trazado_138957" data-name="Trazado 138957" d="M176.408,84.382c-.153.919,1.852,2.075,4.088,2.442s4.183-.078,4.333-.994-1.54-1.972-3.779-2.342S176.561,83.458,176.408,84.382Z" transform="translate(-176.4 -83.341)" fill="#cf9b72"/>
          </g>
        </g>
        <g id="Grupo_87378" data-name="Grupo 87378" transform="translate(22.636 13.601)">
          <g id="Grupo_87377" data-name="Grupo 87377">
            <g id="Grupo_87376" data-name="Grupo 87376">
              <path id="Trazado_138958" data-name="Trazado 138958" d="M229.965,80.9c-18.642-3.308-50.9,6.483-50.9,6.483l3.2,5.932s32.221-7.837,47.7-2.59Z" transform="translate(-179.068 -80.217)" fill="#12263f"/>
            </g>
          </g>
        </g>
        <g id="Grupo_87384" data-name="Grupo 87384" transform="translate(21.494 4.415)">
          <g id="Grupo_87380" data-name="Grupo 87380" transform="translate(5.94 18.642)">
            <g id="Grupo_87379" data-name="Grupo 87379">
              <path id="Trazado_138959" data-name="Trazado 138959" d="M180.791,85.641,182.3,87.3l2.471-1.868-1.821-1.821Z" transform="translate(-180.791 -83.612)" fill="#cf9b72"/>
            </g>
          </g>
          <g id="Grupo_87382" data-name="Grupo 87382" transform="translate(5.94)">
            <g id="Grupo_87381" data-name="Grupo 87381">
              <path id="Trazado_138960" data-name="Trazado 138960" d="M180.791,94.913l18.6-16.2a6.993,6.993,0,0,1,9.31-.036L227.349,92.9c1.387,1.231,2.79,5.389,1.557,6.781s-6.071,2.069-7.477.279L204.187,83.651l-.008-.008a.54.54,0,0,0-.231,0L185.592,99.637Z" transform="translate(-180.791 -76.918)" fill="#12263f"/>
            </g>
          </g>
          <g id="Grupo_87383" data-name="Grupo 87383" transform="translate(0 20.584)">
            <path id="Trazado_138961" data-name="Trazado 138961" d="M178.666,86.664c.15.855,2.267,1.25,4.353.888s3.648-1.359,3.5-2.214-1.961-1.259-4.046-.891S178.516,85.8,178.666,86.664Z" transform="translate(-178.658 -84.31)" fill="#cf9b72"/>
          </g>
        </g>
        <path id="Trazado_138962" data-name="Trazado 138962" d="M227.617,80.012s-29.175,0-29.258.006c-1.379,0-2.493,3.481-2.493,7.77s1.114,7.775,2.493,7.775h29.258a7.775,7.775,0,0,0,0-15.551Z" transform="translate(-126.45 -66.982)" fill="#ff9d00"/>
        <g id="Grupo_87387" data-name="Grupo 87387" transform="translate(104.492 14.971)">
          <path id="Trazado_138963" data-name="Trazado 138963" d="M210.438,82.109a1.978,1.978,0,0,0-1.977,1.977h0a1.978,1.978,0,0,0,1.977,1.977h6.5a1.978,1.978,0,0,0,1.977-1.977h0a1.978,1.978,0,0,0-1.977-1.977Z" transform="translate(-208.461 -78.21)" fill="#d69b6b"/>
          <path id="Trazado_138964" data-name="Trazado 138964" d="M217.106,82.055c3.339,0,6.519,2.172,6.519,4.851s-3.18,4.849-6.519,4.849-6.04-2.169-6.04-4.849S213.767,82.055,217.106,82.055Z" transform="translate(-203.811 -78.306)" fill="#603129"/>
          <path id="Trazado_138965" data-name="Trazado 138965" d="M214.984,80.709a4.855,4.855,0,0,0-4.857,4.854h0a4.856,4.856,0,0,0,4.857,4.86h5.1a4.858,4.858,0,0,0,4.857-4.86h0a4.857,4.857,0,0,0-4.857-4.854Z" transform="translate(-205.487 -80.709)" fill="#edb485"/>
          <path id="Trazado_138966" data-name="Trazado 138966" d="M215.543,87.687V81.644h3.378a14.733,14.733,0,0,1,.262,4.03c-.239,4.745-3.98,6.375-5.191,6.375l1.075-1.429c-.769,0-.991-1.515-1.053-2.932Z" transform="translate(-198.589 -79.04)" fill="#603129"/>
          <path id="Trazado_138967" data-name="Trazado 138967" d="M212.279,84.555a.894.894,0,0,0,.894.9h2.3a.9.9,0,0,0,.9-.9h0a.9.9,0,0,0-.9-.9h-2.3a.9.9,0,0,0-.894.9Z" transform="translate(-201.646 -75.445)" fill="#603129"/>
          <g id="Grupo_87385" data-name="Grupo 87385" transform="translate(10.694 1.159)">
            <path id="Trazado_138968" data-name="Trazado 138968" d="M212.978,81.125a.549.549,0,1,0,.674.532A.617.617,0,0,0,212.978,81.125Z" transform="translate(-212.301 -81.125)" fill="#170805"/>
          </g>
          <g id="Grupo_87386" data-name="Grupo 87386" transform="translate(10.694 4.807)">
            <path id="Trazado_138969" data-name="Trazado 138969" d="M212.978,82.435a.549.549,0,1,0,.674.535A.619.619,0,0,0,212.978,82.435Z" transform="translate(-212.301 -82.435)" fill="#170805"/>
          </g>
          <path id="Trazado_138970" data-name="Trazado 138970" d="M211.753,84.257c-.214.515.267,1.2,1.072,1.534s1.635.181,1.846-.334-.27-1.206-1.078-1.537S211.967,83.739,211.753,84.257Z" transform="translate(-202.677 -75.292)" fill="#edb485"/>
          <path id="Trazado_138971" data-name="Trazado 138971" d="M212.15,81.78a.567.567,0,0,0-.568.568h0a.569.569,0,0,0,.568.568h.794a.571.571,0,0,0,.571-.568h0a.569.569,0,0,0-.571-.568Z" transform="translate(-202.89 -78.797)" fill="#d69b6b"/>
        </g>
        <path id="Trazado_138972" data-name="Trazado 138972" d="M217.99,88.129v2.88h-4.7v-2.88h1.5a1.467,1.467,0,0,0,1.5-1.437V81.66l1.7-.507Z" transform="translate(-95.351 -64.945)" fill="#603129"/>
        <path id="Trazado_138973" data-name="Trazado 138973" d="M218.435,80.605c1.019.022,1.955.7,1.955,2.531V85.9l-3.671-1.69v-.32h-.51v-1.5a1.465,1.465,0,0,0-1.437-1.5h-1.44v-.287h5.1Z" transform="translate(-95.273 -65.923)" fill="#603129"/>
        <g id="Grupo_87388" data-name="Grupo 87388" transform="translate(110.87 17.185)">
          <path id="Trazado_138974" data-name="Trazado 138974" d="M210.751,81.685a.183.183,0,0,0,.181.184.972.972,0,1,1,0,1.944.184.184,0,0,0,0,.368,1.338,1.338,0,0,0,0-2.676A.181.181,0,0,0,210.751,81.685Z" transform="translate(-210.751 -81.504)" fill="#170805"/>
        </g>
        <g id="Grupo_87392" data-name="Grupo 87392" transform="translate(77.305 7.616)">
          <g id="Grupo_87390" data-name="Grupo 87390" transform="translate(8.004)">
            <rect id="Rectángulo_32749" data-name="Rectángulo 32749" width="3.524" height="2.036" transform="translate(0 4.639) rotate(-25.248)" fill="#edb485"/>
            <g id="Grupo_87389" data-name="Grupo 87389" transform="translate(2.548)">
              <path id="Trazado_138975" data-name="Trazado 138975" d="M203.746,80.814a.511.511,0,0,1-.719-.117h0a.516.516,0,0,1,.111-.721l2.515-1.81a.522.522,0,0,1,.724.114h0a.515.515,0,0,1-.114.721Z" transform="translate(-201.702 -78.068)" fill="#edb485"/>
              <path id="Trazado_138976" data-name="Trazado 138976" d="M204.114,81.332a.516.516,0,0,1-.688-.237h0a.512.512,0,0,1,.228-.691l2.785-1.37a.51.51,0,0,1,.688.234h0a.519.519,0,0,1-.234.693Z" transform="translate(-200.911 -76.439)" fill="#edb485"/>
              <path id="Trazado_138977" data-name="Trazado 138977" d="M206.071,81.439a.56.56,0,0,0-.273-.746l-2.267-1.061a1.833,1.833,0,0,0-.613.59c-.075.148.145.574.145.574l2.259.916A.561.561,0,0,0,206.071,81.439Z" transform="translate(-201.748 -75.276)" fill="#edb485"/>
              <path id="Trazado_138978" data-name="Trazado 138978" d="M204.078,80.983a.516.516,0,0,1-.71-.184h0a.517.517,0,0,1,.187-.7l2.676-1.571a.513.513,0,0,1,.707.181h0a.513.513,0,0,1-.192.707Z" transform="translate(-201.041 -77.385)" fill="#edb485"/>
              <path id="Trazado_138979" data-name="Trazado 138979" d="M204.769,82.537a1.019,1.019,0,0,1-1.4-.365l-.744-1.259a1.029,1.029,0,0,1,.368-1.4l1.259-.735a1.019,1.019,0,0,1,1.4.365l.735,1.259a1.02,1.02,0,0,1-.359,1.4Z" transform="translate(-202.488 -77.062)" fill="#edb485"/>
            </g>
          </g>
          <g id="Grupo_87391" data-name="Grupo 87391" transform="translate(0 3.019)">
            <path id="Trazado_138980" data-name="Trazado 138980" d="M209.839,82.68s-4.4,2.59-5.3,3.787c-1.688,2.233-2.111,3.885-1.42,5.522.5,1.186,1.384,1.827,3.278,2.367,1.147.326,4.865.309,11.853-.716,5.358-.788,8.831-1.947,9.5-1.6a2.055,2.055,0,0,1,.869,2.768,3.14,3.14,0,0,1-2.214,1.384c-.613.164-1.431.359-2.434.571-2.1.446-1.729.418-4.275.808-5.038.769-11.633,1.526-14.426.73-2.089-.593-4.654-1.665-5.937-4.72a8.1,8.1,0,0,1-.1-6.024,13.51,13.51,0,0,1,2.036-3.562,19.034,19.034,0,0,1,4.328-3.62c.757-.485,2.13-1.223,2.13-1.223Z" transform="translate(-198.699 -79.152)" fill="#afafaf"/>
          </g>
        </g>
        <g id="Grupo_87395" data-name="Grupo 87395" transform="translate(117.684 12.91)">
          <path id="Trazado_138981" data-name="Trazado 138981" d="M214.382,83.531,213.95,82.5l-.752-1.768c.256-.128.515-.265.766-.4.212-.111.429-.242.646-.362l.81,1.908.072.17.365.858.036.1a.819.819,0,0,1,.006.376.763.763,0,0,1-.284.46.676.676,0,0,1-.184.111.9.9,0,0,1-.214.056A.809.809,0,0,1,214.382,83.531Z" transform="translate(-213.198 -79.969)" fill="#e39c6d"/>
          <g id="Grupo_87394" data-name="Grupo 87394" transform="translate(0.061 1.608)">
            <g id="Grupo_87393" data-name="Grupo 87393" transform="translate(0 0)">
              <path id="Trazado_138982" data-name="Trazado 138982" d="M214.356,81.69a.45.45,0,0,0-.568-.3h0a.457.457,0,0,0-.3.571l.824,2.582a.454.454,0,0,0,.568.3h0a.45.45,0,0,0,.3-.568Z" transform="translate(-212.77 -79.068)" fill="#e39c6d"/>
              <path id="Trazado_138983" data-name="Trazado 138983" d="M215.034,81.317a.456.456,0,0,0-.613-.192h0a.454.454,0,0,0-.195.607l1.239,2.417a.454.454,0,0,0,.607.2h0a.461.461,0,0,0,.2-.613Z" transform="translate(-211.51 -79.603)" fill="#e39c6d"/>
              <path id="Trazado_138984" data-name="Trazado 138984" d="M216.84,81.766a.492.492,0,0,1-.579.384l-2.15-.437a1.525,1.525,0,0,1-.123-.741c.022-.142.4-.32.4-.32l2.069.532A.49.49,0,0,1,216.84,81.766Z" transform="translate(-211.866 -80.357)" fill="#e39c6d"/>
              <path id="Trazado_138985" data-name="Trazado 138985" d="M214.758,81.632a.453.453,0,0,0-.593-.237h0a.454.454,0,0,0-.242.593l1.058,2.5a.459.459,0,0,0,.6.242h0a.457.457,0,0,0,.239-.6Z" transform="translate(-212.028 -79.096)" fill="#e39c6d"/>
              <path id="Rectángulo_32750" data-name="Rectángulo 32750" d="M.322,0h2.43a.322.322,0,0,1,.322.322v2.43a.322.322,0,0,1-.322.322H.323A.323.323,0,0,1,0,2.751V.322A.322.322,0,0,1,.322,0Z" transform="translate(0 1.198) rotate(-22.94)" fill="#e39c6d"/>
            </g>
          </g>
        </g>
      </g>
    </g>
  </g>
</svg>
