<svg xmlns="http://www.w3.org/2000/svg" width="420" height="503.42" viewBox="0 0 420 503.42">
  <g id="Grupo_87842" data-name="Grupo 87842" transform="translate(-151.33 -106.55)">
    <g id="Grupo_87841" data-name="Grupo 87841" transform="translate(151.33 106.55)">
      <g id="Grupo_87707" data-name="Grupo 87707" transform="translate(236.299 61.18)">
        <path id="Trazado_139524" data-name="Trazado 139524" d="M456.5,174.2c-1.263-2.5,9.8-5.176,7.123-6-27.92-8.547-83.066,9.452-83.066,9.452l3.592,29.647,42.75-14.7c21.724-6.289,28.5-6.052,30.389-12.744a6.445,6.445,0,0,0,.194-.955A8.109,8.109,0,0,0,456.5,174.2Z" transform="translate(-380.556 -165.899)" fill="#ff9985"/>
      </g>
      <g id="Grupo_87708" data-name="Grupo 87708" transform="translate(342.688 265.144)">
        <path id="Trazado_139525" data-name="Trazado 139525" d="M522.289,390.947H485.307a1.546,1.546,0,0,1-1.546-1.546v-18.04a7.611,7.611,0,0,1,7.6-7.6h24.869a7.612,7.612,0,0,1,7.6,7.6V389.4A1.546,1.546,0,0,1,522.289,390.947Zm-35.436-3.093h33.889V371.361a4.515,4.515,0,0,0-4.51-4.51H491.364a4.514,4.514,0,0,0-4.51,4.51Z" transform="translate(-483.761 -363.758)" fill="#000543"/>
      </g>
      <g id="Grupo_87709" data-name="Grupo 87709" transform="translate(309.306 284.472)">
        <rect id="Rectángulo_32837" data-name="Rectángulo 32837" width="105.328" height="6.466" transform="translate(1.746 11.596)" fill="#12263f"/>
        <path id="Trazado_139526" data-name="Trazado 139526" d="M562.072,395.958v-7.2a6.251,6.251,0,0,0-6.25-6.25H457.628a6.25,6.25,0,0,0-6.25,6.25v7.2Z" transform="translate(-451.378 -382.508)" fill="#ff9d00"/>
        <path id="Trazado_139527" data-name="Trazado 139527" d="M451.378,398.063V471.73a6.25,6.25,0,0,0,6.25,6.251h98.194a6.251,6.251,0,0,0,6.25-6.251V398.063Z" transform="translate(-451.378 -382.028)" fill="#ff9d00"/>
      </g>
      <g id="Grupo_87724" data-name="Grupo 87724" transform="translate(323.274 121.077)">
        <g id="Grupo_87710" data-name="Grupo 87710" transform="translate(0)">
          <path id="Trazado_139528" data-name="Trazado 139528" d="M507.637,298.755c2.3-1.595,6.472,9,6.917,6.234C519.193,276.161,493.8,224,493.8,224l-28.874,7.624,20.523,39.8c9.209,20.657,9.8,27.936,16.692,28.889a6.538,6.538,0,0,0,.972.061A8.1,8.1,0,0,0,507.637,298.755Z" transform="translate(-464.928 -224.003)" fill="#ff9985"/>
        </g>
        <g id="Grupo_87711" data-name="Grupo 87711" transform="translate(29.847 57.17)">
          <path id="Trazado_139529" data-name="Trazado 139529" d="M500.565,362.78l.839-3c-.8-49.947-15.98-73.593-.82-80.136,1.545-.666,7.831.689,9.267,1.625,2.481,1.618,3.525,4.692,3.991,7.924,3.511,24.291.639,45.041-1.895,63.35-.46,3.317-.911,6.581-1.317,9.8-.093.731-.195,1.465-.3,2.2Z" transform="translate(-493.881 -279.462)" fill="#ff9985"/>
        </g>
        <g id="Grupo_87723" data-name="Grupo 87723" transform="translate(26.365 125.523)">
          <g id="Grupo_87713" data-name="Grupo 87713" transform="translate(0 10.381)">
            <g id="Grupo_87712" data-name="Grupo 87712">
              <path id="Trazado_139530" data-name="Trazado 139530" d="M491.15,368.545a1.9,1.9,0,0,0,2.646-.705L499.889,359a2.119,2.119,0,0,0-.191-2.858,1.9,1.9,0,0,0-2.646.7l-6.093,8.845A2.12,2.12,0,0,0,491.15,368.545Z" transform="translate(-490.504 -355.839)" fill="#ff9985"/>
            </g>
          </g>
          <g id="Grupo_87714" data-name="Grupo 87714" transform="translate(5.322)">
            <path id="Trazado_139531" data-name="Trazado 139531" d="M513.122,363.641a10.567,10.567,0,0,1-2.039,4.432,5.25,5.25,0,0,1-2.555,1.377,20.708,20.708,0,0,1-6.925.761c-2.117-.13-4.533-.921-5.468-3.857a13.2,13.2,0,0,1,.742-8.872c2.19-5.155,3.011-6.979,6.55-9.7,4.431-3.411,8.337-2.866,9.24,4.649C513.132,356.3,514.107,359.942,513.122,363.641Z" transform="translate(-495.667 -345.769)" fill="#ff9985"/>
          </g>
          <g id="Grupo_87716" data-name="Grupo 87716" transform="translate(5.554 18.176)">
            <g id="Grupo_87715" data-name="Grupo 87715">
              <path id="Trazado_139532" data-name="Trazado 139532" d="M499.282,364.779l1.957,14.589a2.132,2.132,0,0,1-1.445,2.278,1.5,1.5,0,0,1-1.929-1.315l-1.957-14.589a2.132,2.132,0,0,1,1.445-2.278A1.5,1.5,0,0,1,499.282,364.779Z" transform="translate(-495.891 -363.401)" fill="#ff9985"/>
            </g>
          </g>
          <g id="Grupo_87718" data-name="Grupo 87718" transform="translate(10.317 18.325)">
            <g id="Grupo_87717" data-name="Grupo 87717">
              <path id="Trazado_139533" data-name="Trazado 139533" d="M503.9,364.923l1.958,14.589a2.132,2.132,0,0,1-1.445,2.279,1.5,1.5,0,0,1-1.929-1.316l-1.957-14.588a2.132,2.132,0,0,1,1.445-2.279A1.5,1.5,0,0,1,503.9,364.923Z" transform="translate(-500.512 -363.545)" fill="#ff9985"/>
            </g>
          </g>
          <g id="Grupo_87720" data-name="Grupo 87720" transform="translate(14.771 15.089)">
            <g id="Grupo_87719" data-name="Grupo 87719">
              <path id="Trazado_139534" data-name="Trazado 139534" d="M508.224,361.785l1.958,14.589a2.132,2.132,0,0,1-1.445,2.278,1.5,1.5,0,0,1-1.929-1.315l-1.958-14.589a2.135,2.135,0,0,1,1.446-2.279A1.5,1.5,0,0,1,508.224,361.785Z" transform="translate(-504.832 -360.406)" fill="#ff9985"/>
            </g>
          </g>
          <g id="Grupo_87722" data-name="Grupo 87722" transform="translate(18.565 10.075)">
            <g id="Grupo_87721" data-name="Grupo 87721">
              <path id="Trazado_139535" data-name="Trazado 139535" d="M511.9,356.92l1.958,14.589a2.133,2.133,0,0,1-1.446,2.279,1.5,1.5,0,0,1-1.928-1.315l-1.958-14.589a2.132,2.132,0,0,1,1.445-2.279A1.5,1.5,0,0,1,511.9,356.92Z" transform="translate(-508.513 -355.542)" fill="#ff9985"/>
            </g>
          </g>
        </g>
      </g>
      <g id="Grupo_87725" data-name="Grupo 87725" transform="translate(309.765 94.837)">
        <path id="Trazado_139536" data-name="Trazado 139536" d="M490.847,207.583c-11.586-19.558-47.531-4.141-37.172,15.708,4.5,8.626,9.265,20.673,14.985,33.416l37.562-18.924A279.541,279.541,0,0,0,490.847,207.583Z" transform="translate(-451.823 -198.548)" fill="#000543"/>
        <path id="Trazado_139537" data-name="Trazado 139537" d="M468.156,255.533q.62,1.382,1.255,2.775l37.549-18.841c-.4-.946-.824-1.9-1.241-2.859Z" transform="translate(-451.319 -197.374)" fill="#ff9d00"/>
        <path id="Trazado_139538" data-name="Trazado 139538" d="M469.373,258.223q.843,1.845,1.711,3.7l37.478-18.632c-.53-1.291-1.081-2.6-1.64-3.909Z" transform="translate(-451.282 -197.288)" fill="#000543"/>
        <path id="Trazado_139539" data-name="Trazado 139539" d="M471.033,261.806c1.5,3.188,3.055,6.389,4.7,9.565l36.621-18.4c-1.181-3.169-2.465-6.446-3.839-9.8Z" transform="translate(-451.23 -197.171)" fill="#ff9d00"/>
        <path id="Trazado_139540" data-name="Trazado 139540" d="M475.588,271.078c.12.232.235.465.355.7a5.2,5.2,0,0,0,6.985,2.339l26.649-13.1a6.14,6.14,0,0,0,2.924-7.559c-.095-.257-.195-.519-.291-.776Z" transform="translate(-451.09 -196.878)" fill="#000543"/>
        <path id="Trazado_139541" data-name="Trazado 139541" d="M493.919,214.666l-4.779,8.886,4.559,9.025,9.368.161a60.092,60.092,0,0,0-9.135-18.072Z" transform="translate(-450.672 -198.051)" fill="#24306b"/>
      </g>
      <g id="Grupo_87727" data-name="Grupo 87727" transform="translate(153.428 460.165)">
        <g id="Grupo_87726" data-name="Grupo 87726">
          <path id="Trazado_139542" data-name="Trazado 139542" d="M311.206,552.942l-11.041,34.746,14.039.627,7.5-7.6-4.825-1.438,10.051-25.5Z" transform="translate(-300.165 -552.942)" fill="#ff9985"/>
        </g>
      </g>
      <g id="Grupo_87728" data-name="Grupo 87728" transform="translate(150.927 205.582)">
        <path id="Trazado_139543" data-name="Trazado 139543" d="M298.062,563.79c-.215,2.41-.7,4.364.215,5.884,2.274,3.772,16.251,5.283,24.612,5.283,2.831-.009,6.007-5.456,7.619-9.266l-31.82-5.742A28.832,28.832,0,0,0,298.062,563.79Z" transform="translate(-297.739 -298.143)" fill="#24306b"/>
        <path id="Trazado_139544" data-name="Trazado 139544" d="M298.659,560.528l31.82,5.742c.27-.637.5-1.234.674-1.745a159.757,159.757,0,0,1,7.11-16.838l-32.11-6.5C303.445,547.6,300.1,554.216,298.659,560.528Z" transform="translate(-297.711 -298.722)" fill="#ff9d00"/>
        <path id="Trazado_139545" data-name="Trazado 139545" d="M408.6,305.979l-51.562.174-1.468.056-2.2,2.379-.052,1.457c-.136,3.9-.337,8-.592,12.247a17.663,17.663,0,0,0-3.145,4.07c-6.551,10.887-10.111,39.8-11.662,52.594-1.246,10.279-1.661,20.49-3.388,30.781-3.138,18.688-10.411,36.554-14.414,55.155-5.366,24.921-4.683,50.275-11.117,74.949a64.2,64.2,0,0,1-3.072,8.607l32.11,6.5a164.675,164.675,0,0,0,6.889-16.2c10.645-30.765,24.48-58.8,30.161-79.909,14.788-54.929,27.64-110.227,34.379-147.924l.113-.637.406-.537.661-.874Z" transform="translate(-297.487 -305.979)" fill="#12263f"/>
      </g>
      <g id="Grupo_87730" data-name="Grupo 87730" transform="translate(268.883 460.509)">
        <g id="Grupo_87729" data-name="Grupo 87729">
          <path id="Trazado_139546" data-name="Trazado 139546" d="M423.206,553.275l-11.041,34.746,14.039.627,7.5-7.6-4.825-1.438L438.927,554.1Z" transform="translate(-412.165 -553.275)" fill="#ff9985"/>
        </g>
      </g>
      <g id="Grupo_87735" data-name="Grupo 87735" transform="translate(267.249 485.54)">
        <g id="Grupo_87733" data-name="Grupo 87733">
          <g id="Grupo_87731" data-name="Grupo 87731" transform="translate(0.506)">
            <path id="Trazado_139547" data-name="Trazado 139547" d="M431.229,577.6l17.895,6.14c4.38,1.5,5.2,4.572,3.451,6.847l-41.5-1.081,1.691-9.136a3.436,3.436,0,0,1,3.387-2.811Z" transform="translate(-411.071 -577.558)" fill="#354684"/>
          </g>
          <g id="Grupo_87732" data-name="Grupo 87732" transform="translate(0 11.948)">
            <path id="Trazado_139548" data-name="Trazado 139548" d="M411.086,589.148l-.462,1.547c-.289.963.87,1.866,2.416,1.888l32.252.434c3.521.047,6.053-1.171,7.3-2.787Z" transform="translate(-410.58 -589.148)" fill="#000543"/>
          </g>
        </g>
        <g id="Grupo_87734" data-name="Grupo 87734" transform="translate(4.673 8.073)">
          <rect id="Rectángulo_32838" data-name="Rectángulo 32838" width="8.075" height="2.912" rx="0.393" transform="translate(8.074 2.934) rotate(-179.843)" fill="#000543"/>
        </g>
      </g>
      <path id="Trazado_139549" data-name="Trazado 139549" d="M442.8,347.758l-64.047,12.074c4.032,8.927,7.738,16.988,10.339,22.145,2.435,4.825,12.872,15.922,14.921,20.914,5.065,12.338,3.9,18.37,8.83,30.754,2.391,6,6.138,14.832,10.071,24.044,7.741,18.121,24.754,28.782,38.285,23.975,12.727-4.523,18.11-21.267,12.421-38.778C463.159,410.673,453.385,377.252,442.8,347.758Z" transform="translate(-144.313 -99.108)" fill="#12263f"/>
      <path id="Trazado_139550" data-name="Trazado 139550" d="M411.79,565.622c1.374,3.522,2.976,5.45,6.44,6.1l16.742,3.1c4.26.794,8.6-3.073,9.674-7.53.088-.365.207-.825.349-1.357l-33.148-6.754C411.533,561.264,411.029,563.672,411.79,565.622Z" transform="translate(-143.306 -92.585)" fill="#24306b"/>
      <path id="Trazado_139551" data-name="Trazado 139551" d="M474.691,468.321c.262-1.272.708-3.663,1.25-6.629,2.74-14.993-6.482-30.156-19.832-32.584-11.185-2.036-21.542,5.656-24.256,18.081-2.119,9.7-11.932,66.18-17.037,96.8l35.62,7.016C458.7,523.5,472.682,478.1,474.691,468.321Z" transform="translate(-143.2 -96.608)" fill="#12263f"/>
      <path id="Trazado_139552" data-name="Trazado 139552" d="M414.909,540.545c-1.546,9.275-2.662,16.18-3,18.695-.023.168-.049.342-.076.515l33.148,6.754c.925-3.456,2.955-10.325,5.548-18.948Z" transform="translate(-143.292 -93.16)" fill="#ff9d00"/>
      <g id="Grupo_87736" data-name="Grupo 87736" transform="translate(191.565 78.247)">
        <path id="Trazado_139553" data-name="Trazado 139553" d="M440.571,372.443H337.494a6.052,6.052,0,0,1-.328-1.824c-.013-.819,0-1.549.035-2.136.673-2.4,1.411-5.1,2.173-7.912.946-3.5,1.93-7.186,2.9-10.892,1.659-6.344,3.256-12.653,4.471-17.74.717-2.9,1.38-5.806,1.968-8.71,4.276-19.988,12.141-38.978,12.23-60.635.007-1.723-1.749-26.039,1.7-36.47a41.529,41.529,0,0,1,8.723-14.823c-1.752-1.313-9.593-2.866-9.593-2.866,69.526-53.087,124.642-8.38,124.642-8.38,12.174,8.3,1.281,21.7.989,24.568-16.354,41.761-20.934,81-36.1,125.054-1.265,3.674,1.374,9.665.6,13.574C451.255,366.529,450.483,372.443,440.571,372.443Z" transform="translate(-337.161 -182.455)" fill="#000543"/>
      </g>
      <g id="Grupo_87737" data-name="Grupo 87737" transform="translate(175.128 20.831)">
        <path id="Trazado_139554" data-name="Trazado 139554" d="M374.952,132.257c-.441-.723-.909-1.517-1.289-2.277-.63-1.259-1.252-1.825-.988-3.221l-51.413,7.866a6.229,6.229,0,0,1-.028,1.02c-.175,1.485.931,3.09.877,3.647a7.307,7.307,0,0,0,.641,3.589,78.876,78.876,0,0,0,.64,12.16,21.767,21.767,0,0,0,2.517,8.171c.013.022,1.135,1.705,1.144,1.683.406-1.007,1.266-3.166,1.819-4.41a18,18,0,0,1-.424-6.5c-3-.648-4.721-3.994-3.952-7.481.742-3.368,3.537-5.61,6.334-5.189l2.864-.707c12.754.544,12.666-10.819,24.287-10.518,7.553.195,11.722,2.414,13.725,3.947a20.875,20.875,0,0,1,.508,9.948c.129-.105,1.822-1.094,1.929-2.352l.119.148C376.672,140.483,376.764,135.221,374.952,132.257Z" transform="translate(-321.217 -126.758)" fill="#000543"/>
      </g>
      <g id="Grupo_87742" data-name="Grupo 87742" transform="translate(150.848 485.713)">
        <g id="Grupo_87740" data-name="Grupo 87740">
          <g id="Grupo_87738" data-name="Grupo 87738" transform="translate(0.507)">
            <path id="Trazado_139555" data-name="Trazado 139555" d="M318.312,577.766l17.9,6.14c4.38,1.5,5.2,4.573,3.45,6.848l-41.5-1.082,1.69-9.135a3.436,3.436,0,0,1,3.388-2.811Z" transform="translate(-298.155 -577.725)" fill="#354684"/>
          </g>
          <g id="Grupo_87739" data-name="Grupo 87739" transform="translate(0 11.947)">
            <path id="Trazado_139556" data-name="Trazado 139556" d="M298.17,589.314l-.463,1.548c-.289.962.871,1.866,2.417,1.886l32.252.435c3.52.047,6.053-1.171,7.3-2.789Z" transform="translate(-297.663 -589.314)" fill="#000543"/>
          </g>
        </g>
        <g id="Grupo_87741" data-name="Grupo 87741" transform="translate(4.673 8.072)">
          <rect id="Rectángulo_32839" data-name="Rectángulo 32839" width="8.075" height="2.912" rx="0.393" transform="matrix(-1, -0.003, 0.003, -1, 8.075, 2.934)" fill="#000543"/>
        </g>
      </g>
      <g id="Grupo_87744" data-name="Grupo 87744" transform="translate(97.151 462.048)">
        <g id="Grupo_87743" data-name="Grupo 87743">
          <path id="Trazado_139557" data-name="Trazado 139557" d="M262.177,554.769l-16.6,27.049,10.4,7.9,9.2-5.415-4.293-2.631,16.277-22.059Z" transform="translate(-245.573 -554.769)" fill="#ff9985"/>
        </g>
      </g>
      <g id="Grupo_87749" data-name="Grupo 87749" transform="translate(94.151 487.602)">
        <g id="Grupo_87747" data-name="Grupo 87747">
          <g id="Grupo_87745" data-name="Grupo 87745" transform="translate(0.507)">
            <path id="Trazado_139558" data-name="Trazado 139558" d="M263.312,579.6l17.9,6.14c4.38,1.5,5.2,4.572,3.45,6.847l-41.5-1.081,1.69-9.136a3.436,3.436,0,0,1,3.388-2.811Z" transform="translate(-243.155 -579.558)" fill="#f9d8c5"/>
          </g>
          <g id="Grupo_87746" data-name="Grupo 87746" transform="translate(0 11.948)">
            <path id="Trazado_139559" data-name="Trazado 139559" d="M243.17,591.148l-.463,1.547c-.289.963.871,1.866,2.417,1.888l32.252.434c3.52.047,6.053-1.171,7.3-2.787Z" transform="translate(-242.663 -591.148)" fill="#000543"/>
          </g>
        </g>
        <g id="Grupo_87748" data-name="Grupo 87748" transform="translate(4.673 8.073)">
          <rect id="Rectángulo_32840" data-name="Rectángulo 32840" width="8.075" height="2.912" rx="0.393" transform="matrix(-1, -0.003, 0.003, -1, 8.075, 2.934)" fill="#000543"/>
        </g>
      </g>
      <g id="Grupo_87751" data-name="Grupo 87751" transform="translate(2.999 461.447)">
        <g id="Grupo_87750" data-name="Grupo 87750">
          <path id="Trazado_139560" data-name="Trazado 139560" d="M170.844,554.186l-16.6,27.049,10.4,7.9,9.2-5.415-4.293-2.631,16.277-22.059Z" transform="translate(-154.24 -554.186)" fill="#ff9985"/>
        </g>
      </g>
      <g id="Grupo_87756" data-name="Grupo 87756" transform="translate(0 487.001)">
        <g id="Grupo_87754" data-name="Grupo 87754">
          <g id="Grupo_87752" data-name="Grupo 87752" transform="translate(0.506)">
            <path id="Trazado_139561" data-name="Trazado 139561" d="M171.979,579.016l17.895,6.14c4.38,1.5,5.2,4.573,3.451,6.848l-41.5-1.082,1.691-9.135a3.436,3.436,0,0,1,3.387-2.811Z" transform="translate(-151.821 -578.975)" fill="#f9d8c5"/>
          </g>
          <g id="Grupo_87753" data-name="Grupo 87753" transform="translate(0 11.947)">
            <path id="Trazado_139562" data-name="Trazado 139562" d="M151.836,590.564l-.462,1.548c-.289.962.87,1.866,2.416,1.886l32.252.435c3.521.047,6.053-1.171,7.3-2.789Z" transform="translate(-151.33 -590.564)" fill="#000543"/>
          </g>
        </g>
        <g id="Grupo_87755" data-name="Grupo 87755" transform="translate(4.673 8.072)">
          <rect id="Rectángulo_32841" data-name="Rectángulo 32841" width="8.075" height="2.912" rx="0.393" transform="translate(8.074 2.934) rotate(-179.843)" fill="#000543"/>
        </g>
      </g>
      <g id="Grupo_87757" data-name="Grupo 87757" transform="translate(307.322 63.425)">
        <path id="Trazado_139563" data-name="Trazado 139563" d="M479.992,248.3l-.182-3.113c-16.991-46.975-39.035-64.4-26.826-75.517,1.244-1.133,7.63-1.895,9.292-1.476,2.873.724,4.859,3.292,6.35,6.2,11.218,21.83,15.247,42.388,18.8,60.526.644,3.286,1.278,6.52,1.94,9.7.149.721.292,1.448.434,2.172Z" transform="translate(-449.454 -168.077)" fill="#ff9985"/>
      </g>
      <g id="Grupo_87759" data-name="Grupo 87759" transform="translate(175.727 64.264)">
        <g id="Grupo_87758" data-name="Grupo 87758">
          <path id="Trazado_139564" data-name="Trazado 139564" d="M402.426,174.429a8.315,8.315,0,0,0-9.674-5.372c-18.509,3.548-44.324,9.418-58.838,12.669-28.337,6.347-1.814,38.17,26.763,31.77,11.514-2.579,25.671-4.3,37.253-6.428a8.073,8.073,0,0,0,6.807-6.836A64.922,64.922,0,0,0,402.426,174.429Z" transform="translate(-321.797 -168.891)" fill="#e4ddfa"/>
        </g>
      </g>
      <path id="Trazado_139565" data-name="Trazado 139565" d="M346.269,357.675H282.784c2.214,9.542,4.279,18.171,5.826,23.734,1.449,5.208,9.524,18.126,10.561,23.421,2.564,13.089.245,18.777,2.67,31.884,1.175,6.352,3.131,15.743,5.2,25.545,4.061,19.282,18.672,33.054,32.88,30.973,13.364-1.957,21.906-17.33,19.737-35.614C355.665,423.985,350.9,388.665,346.269,357.675Z" transform="translate(-147.274 -98.802)" fill="#7e5ee3"/>
      <path id="Trazado_139566" data-name="Trazado 139566" d="M255.921,561.306c.075-2.253,1.7-4.523,2.813-6.482,5.5-9.664,55.4-90.769,62.786-101.711,7.257-10.757,19.574-14.545,28.869-8.933,11.1,6.7,13.538,23.971,5.263,37.129-1.637,2.6-2.966,4.7-3.695,5.8-7.623,11.588-24.422,36.416-43.259,63.556-6.458,9.308-12.9,18.575-19.118,27.4-2.695,3.827-7.291,5.068-10.824,2.913l-19.39-11.828C256.494,567.4,255.8,565.066,255.921,561.306Z" transform="translate(-148.103 -96.213)" fill="#7e5ee3"/>
      <path id="Trazado_139567" data-name="Trazado 139567" d="M306.565,368.711l-59.177-23.5c-2.581,9.45-4.862,18.024-6.142,23.656-1.2,5.271-.225,20.474-1.826,25.626-3.96,12.737-8.7,16.642-12.791,29.33-1.981,6.147-4.72,15.341-7.557,24.948-5.582,18.9.738,37.955,14.23,42.871,12.691,4.623,27.508-4.85,34.281-21.973C280.044,438.181,295.928,398.185,306.565,368.711Z" transform="translate(-149.302 -99.186)" fill="#7e5ee3"/>
      <path id="Trazado_139568" data-name="Trazado 139568" d="M158.634,562.7c.077-2.337,1.763-4.692,2.919-6.725,5.706-10.027,57.481-94.177,65.143-105.531,7.53-11.161,20.309-15.091,29.954-9.269,11.512,6.949,17.186,19.956,8.6,33.607-1.7,2.7-6.218,9.791-6.974,10.94-7.91,12.023-25.338,37.784-44.883,65.943-6.7,9.657-13.384,19.273-19.836,28.431-2.8,3.969-7.565,5.256-11.23,3.021L162.208,570.84C159.228,569.023,158.5,566.6,158.634,562.7Z" transform="translate(-151.105 -96.308)" fill="#7e5ee3"/>
      <path id="Trazado_139569" data-name="Trazado 139569" d="M450.365,242.587l-10.013-.453-5.4,8.445,4.614,8.9,10.013.453,5.4-8.445Z" transform="translate(-142.579 -102.367)" fill="#ff9d00"/>
      <g id="Grupo_87760" data-name="Grupo 87760" transform="translate(92.528 76.762)">
        <path id="Trazado_139570" data-name="Trazado 139570" d="M391.9,191.319c-46.016-22.515-90.961-1.118-90.961-1.118a53.032,53.032,0,0,0-20.4,17.848,23.557,23.557,0,0,0-3.688,8.451c-8.286,41.265-21.814,82.765-32.033,126.28-.88,3.746-1.385,7.434-2.15,11.106-.293,1.407-.494,2.81-.771,4.208-1.37,6.89-1.749,11.687,4.992,11.687h94.2c3.3,0,7-2.29,8.975-5.648.49-.835.9-1.579,1.208-2.178.729-2.451,1.563-5.2,2.442-8.069,1.093-3.564,2.263-7.328,3.455-11.106,2.042-6.47,4.122-12.9,5.876-18.09q1.463-4.439,3.11-8.882c7.378-20.383,4.608-37.98,13.88-61.609C390.7,227.053,391.9,191.319,391.9,191.319Z" transform="translate(-241.088 -181.014)" fill="#e4ddfa"/>
      </g>
      <g id="Grupo_87783" data-name="Grupo 87783" transform="translate(232.949)">
        <g id="Grupo_87782" data-name="Grupo 87782">
          <g id="Grupo_87781" data-name="Grupo 87781">
            <g id="Grupo_87761" data-name="Grupo 87761" transform="translate(38.099 14.028)">
              <path id="Trazado_139571" data-name="Trazado 139571" d="M427.783,127.684c2.089,1.968,4.145,4.466,3.976,7.342a32.1,32.1,0,0,0-.457,3.507c.1,1.942,1.527,3.51,2.717,5.043s2.258,3.543,1.54,5.344c-.683,1.718-2.726,2.5-3.581,4.142-1.266,2.426.328,6.122-1.823,7.788-.891.691-2.187.745-2.962,1.566-1.084,1.149-.606,3.188-1.593,4.425a2.906,2.906,0,0,1-3.341.638,7,7,0,0,1-2.73-2.4c-1.409-1.863-2.578-4.109-2.358-6.44.259-2.737,2.325-4.876,3.588-7.3,2.01-3.859-.4-8.573-3.274-11.85-.945-1.079.094-2.358-.9-3.392a5.574,5.574,0,0,1-1.8-3.8,10.5,10.5,0,0,1,1.239-3.666c.5-1.2.744-2.7-.059-3.72-.379-.481-.945-.788-1.307-1.281-1-1.364.047-2.869,1.4-3.316,1.327-.439,2.106.125,3.206.822A56.547,56.547,0,0,1,427.783,127.684Z" transform="translate(-414.266 -120.159)" fill="#000543"/>
            </g>
            <g id="Grupo_87762" data-name="Grupo 87762">
              <path id="Trazado_139572" data-name="Trazado 139572" d="M377.307,129.245c.005-2.645.384-5.6,2.406-7.258a28.381,28.381,0,0,0,2.621-1.852c1.231-1.27,1.384-3.214,1.662-4.976s.949-3.735,2.6-4.356c1.572-.593,3.372.321,5-.105,2.407-.631,3.874-4.006,6.327-3.563,1.016.183,1.863,1.038,2.894,1.062,1.443.033,2.5-1.554,3.944-1.642a2.72,2.72,0,0,1,2.512,1.894,6.513,6.513,0,0,1,.108,3.35c-.36,2.116-1.127,4.3-2.816,5.593-1.985,1.513-4.7,1.419-7.109,2.053-3.826,1.007-7.137,4.319-7.525,8.312-.128,1.314.048,2.642-.019,3.962A5.064,5.064,0,0,1,388.5,135.3a9.345,9.345,0,0,1-3.216,1.415,3.379,3.379,0,0,0-2.441,2.339c-.085.557.066,1.134-.037,1.688-.285,1.526-1.941,1.738-3.083,1.089-1.123-.637-1.233-1.52-1.457-2.7A52.8,52.8,0,0,1,377.307,129.245Z" transform="translate(-377.307 -106.55)" fill="#000543"/>
            </g>
            <g id="Grupo_87765" data-name="Grupo 87765" transform="translate(40.212 36.697)">
              <g id="Grupo_87764" data-name="Grupo 87764">
                <g id="Grupo_87763" data-name="Grupo 87763">
                  <path id="Trazado_139573" data-name="Trazado 139573" d="M420.568,142.2c2.855-.459,5.626,2,6.189,5.493s-1.3,6.692-4.153,7.151-5.626-2-6.188-5.493S417.713,142.66,420.568,142.2Z" transform="translate(-416.316 -142.149)" fill="#ff9985"/>
                </g>
              </g>
            </g>
            <g id="Grupo_87768" data-name="Grupo 87768" transform="translate(3.665 20.254)">
              <g id="Grupo_87767" data-name="Grupo 87767">
                <g id="Grupo_87766" data-name="Grupo 87766">
                  <path id="Trazado_139574" data-name="Trazado 139574" d="M386.095,126.2a21.009,21.009,0,0,0-4.961,17.231l4.477,16.553c1.816,11.281,12.164,18.6,19.187,16.813,10.59-2.687,20.037-11.863,18.22-23.143l-2.571-15.967Z" transform="translate(-380.862 -126.198)" fill="#ff9985"/>
                </g>
              </g>
            </g>
            <g id="Grupo_87771" data-name="Grupo 87771" transform="translate(30.149 44.897)">
              <g id="Grupo_87770" data-name="Grupo 87770">
                <g id="Grupo_87769" data-name="Grupo 87769">
                  <path id="Trazado_139575" data-name="Trazado 139575" d="M437.654,194.273a5.758,5.758,0,0,0,2.27-7.311l-13.936-34.269a3.735,3.735,0,0,0-4.684-2.365l-12.733,5.24a3.757,3.757,0,0,0-1.683,4.983l13.126,37.413c.9,2.576,1.841-.009,4.021-1.184Z" transform="translate(-406.553 -150.104)" fill="#ff9985"/>
                </g>
              </g>
            </g>
            <g id="Grupo_87772" data-name="Grupo 87772" transform="translate(21.137 34.066)">
              <path id="Trazado_139576" data-name="Trazado 139576" d="M398.821,140.3l4.45-.691a1.215,1.215,0,0,1,.374,2.4l-4.45.691a1.215,1.215,0,0,1-.374-2.4Z" transform="translate(-397.812 -139.597)" fill="#000543"/>
            </g>
            <g id="Grupo_87773" data-name="Grupo 87773" transform="translate(2.892 35.757)">
              <path id="Trazado_139577" data-name="Trazado 139577" d="M381.122,141.942l4.449-.691a1.214,1.214,0,0,1,.375,2.4l-4.45.691a1.214,1.214,0,0,1-.374-2.4Z" transform="translate(-380.113 -141.237)" fill="#000543"/>
            </g>
            <g id="Grupo_87774" data-name="Grupo 87774" transform="translate(7.755 39.182)">
              <path id="Trazado_139578" data-name="Trazado 139578" d="M384.87,146.912c.184,1.177.943,2.036,1.7,1.918s1.215-1.165,1.031-2.342-.943-2.036-1.7-1.918S384.687,145.736,384.87,146.912Z" transform="translate(-384.83 -144.56)" fill="#000543"/>
            </g>
            <g id="Grupo_87775" data-name="Grupo 87775" transform="translate(24.493 36.915)">
              <path id="Trazado_139579" data-name="Trazado 139579" d="M401.107,144.714c.182,1.176.943,2.036,1.7,1.918s1.215-1.166,1.032-2.342-.943-2.036-1.7-1.919S400.923,143.537,401.107,144.714Z" transform="translate(-401.067 -142.361)" fill="#000543"/>
            </g>
            <g id="Grupo_87776" data-name="Grupo 87776" transform="translate(14.307 47.059)">
              <path id="Trazado_139580" data-name="Trazado 139580" d="M391.26,152.629l.106-.428a2.4,2.4,0,0,0,1.99,1.738l2.416.3a1.793,1.793,0,0,0,1.832-1.044l.084.221a1.875,1.875,0,0,1-1.955,2.547l-2.416-.3A2.451,2.451,0,0,1,391.26,152.629Z" transform="translate(-391.186 -152.201)" fill="#fa694f"/>
            </g>
            <g id="Grupo_87777" data-name="Grupo 87777" transform="translate(9.926 14.367)">
              <path id="Trazado_139581" data-name="Trazado 139581" d="M386.936,125.923s8.024-6.72,21.582-5.216l-4.278,5.06Z" transform="translate(-386.936 -120.487)" fill="#ffb288"/>
            </g>
            <g id="Grupo_87778" data-name="Grupo 87778" transform="translate(4.47 14.846)">
              <path id="Trazado_139582" data-name="Trazado 139582" d="M381.643,129.408s20.391,13,44.041,8.312l-2.38-13.849-34.755-2.919Z" transform="translate(-381.643 -120.952)" fill="#000543"/>
            </g>
            <g id="Grupo_87779" data-name="Grupo 87779" transform="translate(8.552 25.64)">
              <path id="Trazado_139583" data-name="Trazado 139583" d="M420.762,138l2.906,15.368c1.144,4.867,1,10.488-1.593,14.723a47.028,47.028,0,0,1-6.407,7.57c-3.445,3.12-13.2,3.929-17.289,4.5-3.815.534-8.433-2.816-9.779-6.485l-3-12.863s13.177-.871,20.889-4.311c6.3-2.808,6.659-4.312,7.4-11.256l1.474-13.82Z" transform="translate(-385.603 -131.423)" fill="#000543"/>
            </g>
            <g id="Grupo_87780" data-name="Grupo 87780" transform="translate(10.907 0.21)">
              <path id="Trazado_139584" data-name="Trazado 139584" d="M429.52,124.307a19.7,19.7,0,0,0,.926,3.016c.572,1.144,1.579,1.982,2.206,3.094,2.816,5-3.221,12.185.313,16.639-2.087.108-3.783-1.895-4.758-3.9s-1.649-4.282-3.254-5.761c-2.411-2.224-6.012-1.869-8.911-3.251-2.512-1.2-4.443-3.684-7.084-4.479-2.954-.889-6.145.545-9.092-.375-1.971-.614-3.749-2.258-5.778-2.095a26.056,26.056,0,0,1-2.8.528c-6.9-.213-1.456-11.283.428-13.711,2.75-3.547,7.454-7.417,12.053-7.252,5.473.2,8.37,5.579,12.909,7.953C421.4,117.186,427.592,118.127,429.52,124.307Z" transform="translate(-387.888 -106.754)" fill="#000543"/>
            </g>
          </g>
        </g>
      </g>
      <g id="Grupo_87800" data-name="Grupo 87800" transform="translate(113.783 85.839)">
        <g id="Grupo_87795" data-name="Grupo 87795" transform="translate(88.429 102.661)">
          <g id="Grupo_87785" data-name="Grupo 87785" transform="translate(10.246)">
            <g id="Grupo_87784" data-name="Grupo 87784">
              <path id="Trazado_139585" data-name="Trazado 139585" d="M370.024,290.035a1.9,1.9,0,0,1-.667,2.655l-8.757,6.218a2.119,2.119,0,0,1-2.861-.151,1.9,1.9,0,0,1,.667-2.655l8.757-6.219A2.12,2.12,0,0,1,370.024,290.035Z" transform="translate(-357.428 -289.408)" fill="#ff9985"/>
            </g>
          </g>
          <g id="Grupo_87786" data-name="Grupo 87786" transform="translate(0 5.381)">
            <path id="Trazado_139586" data-name="Trazado 139586" d="M365.432,312.077a10.583,10.583,0,0,0,4.4-2.1,5.244,5.244,0,0,0,1.34-2.576,20.68,20.68,0,0,0,.663-6.935c-.16-2.116-.986-4.519-3.936-5.412a13.188,13.188,0,0,0-8.859.869c-5.123,2.263-6.936,3.11-9.61,6.687-3.347,4.479-2.746,8.377,4.781,9.173C358.087,312.191,361.748,313.113,365.432,312.077Z" transform="translate(-347.489 -294.628)" fill="#ff9985"/>
          </g>
          <g id="Grupo_87788" data-name="Grupo 87788" transform="translate(18.028 5.572)">
            <g id="Grupo_87787" data-name="Grupo 87787">
              <path id="Trazado_139587" data-name="Trazado 139587" d="M366.377,298.215l14.615,1.749a2.132,2.132,0,0,0,2.258-1.478,1.5,1.5,0,0,0-1.343-1.909l-14.614-1.749a2.133,2.133,0,0,0-2.258,1.478A1.5,1.5,0,0,0,366.377,298.215Z" transform="translate(-364.977 -294.814)" fill="#ff9985"/>
            </g>
          </g>
          <g id="Grupo_87790" data-name="Grupo 87790" transform="translate(18.245 10.334)">
            <g id="Grupo_87789" data-name="Grupo 87789">
              <path id="Trazado_139588" data-name="Trazado 139588" d="M366.588,302.834l14.614,1.749a2.134,2.134,0,0,0,2.259-1.479,1.5,1.5,0,0,0-1.344-1.908L367.5,299.446a2.132,2.132,0,0,0-2.258,1.478A1.5,1.5,0,0,0,366.588,302.834Z" transform="translate(-365.188 -299.433)" fill="#ff9985"/>
            </g>
          </g>
          <g id="Grupo_87792" data-name="Grupo 87792" transform="translate(15.073 14.834)">
            <g id="Grupo_87791" data-name="Grupo 87791">
              <path id="Trazado_139589" data-name="Trazado 139589" d="M363.511,307.2l14.614,1.749a2.133,2.133,0,0,0,2.259-1.478,1.5,1.5,0,0,0-1.343-1.909l-14.614-1.749a2.133,2.133,0,0,0-2.259,1.478A1.5,1.5,0,0,0,363.511,307.2Z" transform="translate(-362.111 -303.798)" fill="#ff9985"/>
            </g>
          </g>
          <g id="Grupo_87794" data-name="Grupo 87794" transform="translate(10.113 18.699)">
            <g id="Grupo_87793" data-name="Grupo 87793">
              <path id="Trazado_139590" data-name="Trazado 139590" d="M358.7,310.948l14.614,1.749a2.132,2.132,0,0,0,2.258-1.478,1.5,1.5,0,0,0-1.342-1.909l-14.615-1.748a2.13,2.13,0,0,0-2.258,1.477A1.5,1.5,0,0,0,358.7,310.948Z" transform="translate(-357.3 -307.548)" fill="#ff9985"/>
            </g>
          </g>
        </g>
        <g id="Grupo_87796" data-name="Grupo 87796" transform="translate(6.645 32.013)">
          <path id="Trazado_139591" data-name="Trazado 139591" d="M279.944,307.678A16.471,16.471,0,0,1,271.966,301c-8.024-13.722-.89-79.184-.89-79.184l33.9-.942-7.891,50.085c-3.415,25.452-3.454,33.409-10.653,36.653a7.5,7.5,0,0,1-1.039.377A9.214,9.214,0,0,1,279.944,307.678Z" transform="translate(-268.154 -220.875)" fill="#ff9985"/>
        </g>
        <g id="Grupo_87797" data-name="Grupo 87797" transform="translate(9.636 96.765)">
          <path id="Trazado_139592" data-name="Trazado 139592" d="M363.066,299.222l-3.49.6c-4.7-.562-9.165-1.222-13.439-1.938l-.241,13.148c1.437-.047,2.866-.1,4.276-.144,3.8-.133,7.541-.262,11.222-.346.836-.019,1.677-.048,2.515-.077Z" transform="translate(-268.746 -283.251)" fill="#ff9985"/>
          <path id="Trazado_139593" data-name="Trazado 139593" d="M298.311,288.184l-.25,20.354a3.3,3.3,0,0,0,2.922,3.275c15.53,1.931,29.881,1.834,43.159,1.452,1.806-.053,3.261-.287,3.283-2.033l.15-13.968a3.3,3.3,0,0,0-2.809-3.256c-17.489-2.938-31.354-6.218-42.242-8.946A3.348,3.348,0,0,0,298.311,288.184Z" transform="translate(-270.222 -283.65)" fill="#afafaf"/>
          <path id="Trazado_139594" data-name="Trazado 139594" d="M271.474,289.985c-.934,1.667-.136,8.926.754,10.656,1.538,2.992,4.888,4.53,8.484,5.433a179.677,179.677,0,0,0,18.147,3.563l.338-23.118C284.658,282.7,276.073,281.768,271.474,289.985Z" transform="translate(-271.055 -283.689)" fill="#ff9985"/>
        </g>
        <g id="Grupo_87799" data-name="Grupo 87799">
          <g id="Grupo_87798" data-name="Grupo 87798">
            <path id="Trazado_139595" data-name="Trazado 139595" d="M268.585,268.759c-4.4-1.024-7.422-5.572-6.8-10.567,2.664-21.231.695-14.445,3.314-31.13,5.116-32.574,53.831-53.574,48.674-20.725-2.078,13.234-6.976,41.658-8.541,54.937a9.166,9.166,0,0,1-7.246,8.213A73.72,73.72,0,0,1,268.585,268.759Z" transform="translate(-261.707 -189.82)" fill="#e4ddfa"/>
          </g>
        </g>
      </g>
      <g id="Grupo_87812" data-name="Grupo 87812" transform="translate(330.292 126.837)">
        <g id="Grupo_87802" data-name="Grupo 87802" transform="translate(0 13.001)">
          <g id="Grupo_87801" data-name="Grupo 87801">
            <path id="Trazado_139596" data-name="Trazado 139596" d="M472.943,256.789a1.9,1.9,0,0,0,2.274-1.527l2.886-10.345a2.12,2.12,0,0,0-1.11-2.641,1.9,1.9,0,0,0-2.273,1.527l-2.887,10.346A2.12,2.12,0,0,0,472.943,256.789Z" transform="translate(-471.736 -242.203)" fill="#ff9985"/>
          </g>
        </g>
        <g id="Grupo_87803" data-name="Grupo 87803" transform="translate(3.038)">
          <path id="Trazado_139597" data-name="Trazado 139597" d="M492.087,245.052a10.585,10.585,0,0,1-.488,4.853,5.254,5.254,0,0,1-1.97,2.134,20.714,20.714,0,0,1-6.3,2.971c-2.045.565-4.585.6-6.425-1.871a13.2,13.2,0,0,1-2.181-8.63c.395-5.587.578-7.58,3.039-11.306,3.081-4.666,6.952-5.419,10.25,1.394C489.708,238.1,491.815,241.234,492.087,245.052Z" transform="translate(-474.683 -229.591)" fill="#ff9985"/>
        </g>
        <g id="Grupo_87805" data-name="Grupo 87805" transform="translate(4.816 20.647)">
          <g id="Grupo_87804" data-name="Grupo 87804">
            <path id="Trazado_139598" data-name="Trazado 139598" d="M479.5,250.521l6.593,13.161a2.132,2.132,0,0,1-.627,2.625,1.5,1.5,0,0,1-2.251-.617l-6.593-13.16a2.132,2.132,0,0,1,.627-2.625A1.5,1.5,0,0,1,479.5,250.521Z" transform="translate(-476.408 -249.62)" fill="#ff9985"/>
          </g>
        </g>
        <g id="Grupo_87807" data-name="Grupo 87807" transform="translate(9.369 19.24)">
          <g id="Grupo_87806" data-name="Grupo 87806">
            <path id="Trazado_139599" data-name="Trazado 139599" d="M483.915,249.156l6.593,13.16a2.132,2.132,0,0,1-.627,2.626,1.5,1.5,0,0,1-2.25-.618l-6.594-13.159a2.133,2.133,0,0,1,.627-2.626A1.5,1.5,0,0,1,483.915,249.156Z" transform="translate(-480.825 -248.255)" fill="#ff9985"/>
          </g>
        </g>
        <g id="Grupo_87809" data-name="Grupo 87809" transform="translate(12.53 14.732)">
          <g id="Grupo_87808" data-name="Grupo 87808">
            <path id="Trazado_139600" data-name="Trazado 139600" d="M486.982,244.783l6.593,13.16a2.134,2.134,0,0,1-.627,2.626,1.5,1.5,0,0,1-2.25-.617l-6.594-13.16a2.135,2.135,0,0,1,.627-2.626A1.5,1.5,0,0,1,486.982,244.783Z" transform="translate(-483.891 -243.882)" fill="#ff9985"/>
          </g>
        </g>
        <g id="Grupo_87811" data-name="Grupo 87811" transform="translate(14.488 8.756)">
          <g id="Grupo_87810" data-name="Grupo 87810">
            <path id="Trazado_139601" data-name="Trazado 139601" d="M488.88,238.987l6.593,13.159a2.132,2.132,0,0,1-.627,2.626,1.5,1.5,0,0,1-2.25-.617L486,240.994a2.13,2.13,0,0,1,.626-2.625A1.5,1.5,0,0,1,488.88,238.987Z" transform="translate(-485.791 -238.085)" fill="#ff9985"/>
          </g>
        </g>
      </g>
      <g id="Grupo_87824" data-name="Grupo 87824" transform="translate(92.991 199.719)">
        <g id="Grupo_87814" data-name="Grupo 87814" transform="translate(4.822)">
          <g id="Grupo_87813" data-name="Grupo 87813">
            <path id="Trazado_139602" data-name="Trazado 139602" d="M253.7,300.417a1.869,1.869,0,0,1,.663,2.612l-4.68,9.481a2.085,2.085,0,0,1-2.548,1.206,1.867,1.867,0,0,1-.664-2.611l4.68-9.482A2.087,2.087,0,0,1,253.7,300.417Z" transform="translate(-246.215 -300.292)" fill="#ff9985"/>
          </g>
        </g>
        <g id="Grupo_87815" data-name="Grupo 87815" transform="translate(0 5.622)">
          <path id="Trazado_139603" data-name="Trazado 139603" d="M259.977,321.775a10.409,10.409,0,0,0,2.832-3.879,5.172,5.172,0,0,0-.042-2.858,20.411,20.411,0,0,0-2.668-6.318c-1.128-1.758-2.966-3.454-5.94-2.849a12.993,12.993,0,0,0-7.27,4.893c-3.381,4.356-4.555,5.938-5.2,10.286-.806,5.445,1.537,8.541,8.429,5.712C253.667,325.306,257.27,324.394,259.977,321.775Z" transform="translate(-241.538 -305.746)" fill="#ff9985"/>
        </g>
        <g id="Grupo_87817" data-name="Grupo 87817" transform="translate(11.147 0.152)">
          <g id="Grupo_87816" data-name="Grupo 87816">
            <path id="Trazado_139604" data-name="Trazado 139604" d="M254.453,309.24l13.479-5.316a2.1,2.1,0,0,0,1.265-2.337,1.478,1.478,0,0,0-2.056-1.026l-13.478,5.316a2.1,2.1,0,0,0-1.266,2.336A1.479,1.479,0,0,0,254.453,309.24Z" transform="translate(-252.351 -300.439)" fill="#ff9985"/>
          </g>
        </g>
        <g id="Grupo_87819" data-name="Grupo 87819" transform="translate(13.56 4.175)">
          <g id="Grupo_87818" data-name="Grupo 87818">
            <path id="Trazado_139605" data-name="Trazado 139605" d="M256.794,313.142l13.479-5.315a2.1,2.1,0,0,0,1.266-2.337,1.479,1.479,0,0,0-2.057-1.026L256,309.78a2.1,2.1,0,0,0-1.265,2.337A1.478,1.478,0,0,0,256.794,313.142Z" transform="translate(-254.692 -304.342)" fill="#ff9985"/>
          </g>
        </g>
        <g id="Grupo_87821" data-name="Grupo 87821" transform="translate(12.916 9.556)">
          <g id="Grupo_87820" data-name="Grupo 87820">
            <path id="Trazado_139606" data-name="Trazado 139606" d="M256.169,318.362l13.479-5.315a2.1,2.1,0,0,0,1.266-2.337,1.479,1.479,0,0,0-2.057-1.026L255.379,315a2.1,2.1,0,0,0-1.266,2.336A1.478,1.478,0,0,0,256.169,318.362Z" transform="translate(-254.067 -309.562)" fill="#ff9985"/>
          </g>
        </g>
        <g id="Grupo_87823" data-name="Grupo 87823" transform="translate(10.425 15.223)">
          <g id="Grupo_87822" data-name="Grupo 87822">
            <path id="Trazado_139607" data-name="Trazado 139607" d="M253.753,323.859l13.479-5.315a2.1,2.1,0,0,0,1.266-2.336,1.48,1.48,0,0,0-2.057-1.027L252.962,320.5a2.1,2.1,0,0,0-1.265,2.336A1.478,1.478,0,0,0,253.753,323.859Z" transform="translate(-251.651 -315.059)" fill="#ff9985"/>
          </g>
        </g>
      </g>
      <g id="Grupo_87826" data-name="Grupo 87826" transform="translate(167.916 45.834)">
        <g id="Grupo_87825" data-name="Grupo 87825">
          <path id="Trazado_139608" data-name="Trazado 139608" d="M316.6,197.451l10.243,7.578a5.2,5.2,0,0,0,8.292-4.014,3.932,3.932,0,0,1,.158-1.109l13.86-38.731a3.858,3.858,0,0,0-2.128-5l-13.878-4.967a3.857,3.857,0,0,0-4.814,2.512l-13.86,38.731A3.858,3.858,0,0,0,316.6,197.451Z" transform="translate(-314.22 -151.013)" fill="#ff9985"/>
        </g>
      </g>
      <g id="Grupo_87827" data-name="Grupo 87827" transform="translate(178.228 24.16)">
        <path id="Trazado_139609" data-name="Trazado 139609" d="M357.891,129.993c-11.621-.3-11.468,11.255-24.222,10.711l-2.929.514c-2.8-.421-5.591,1.822-6.334,5.189-.769,3.487.955,6.833,3.851,7.471a20.636,20.636,0,0,0,.525,6.507c1.948,7.922,8.979,14.473,17.2,16.284,10.935,2.41,19.934-4.441,22.417-15.709l3.636-16.494c.042-.194.056-.385.093-.578a20.875,20.875,0,0,0-.508-9.948C369.612,132.407,365.444,130.188,357.891,129.993Z" transform="translate(-324.223 -129.987)" fill="#ff9985"/>
      </g>
      <g id="Grupo_87829" data-name="Grupo 87829" transform="translate(202.78 32.191)">
        <g id="Grupo_87828" data-name="Grupo 87828">
          <path id="Trazado_139610" data-name="Trazado 139610" d="M354.037,138.777l-4.513-.971a1.226,1.226,0,1,0-.515,2.4l4.513.972a1.226,1.226,0,0,0,.515-2.4Z" transform="translate(-348.041 -137.778)" fill="#000543"/>
        </g>
      </g>
      <g id="Grupo_87831" data-name="Grupo 87831" transform="translate(220.62 35.762)">
        <g id="Grupo_87830" data-name="Grupo 87830">
          <path id="Trazado_139611" data-name="Trazado 139611" d="M371.344,142.241l-4.513-.971a1.226,1.226,0,1,0-.516,2.4l4.513.972a1.226,1.226,0,0,0,.516-2.4Z" transform="translate(-365.346 -141.242)" fill="#000543"/>
        </g>
      </g>
      <g id="Grupo_87833" data-name="Grupo 87833" transform="translate(219.44 40.062)">
        <g id="Grupo_87832" data-name="Grupo 87832">
          <path id="Trazado_139612" data-name="Trazado 139612" d="M367.044,147.862c-.253,1.175-1.077,2-1.842,1.831s-1.179-1.251-.926-2.427,1.078-2,1.843-1.832S367.3,146.686,367.044,147.862Z" transform="translate(-364.202 -145.414)" fill="#000543"/>
        </g>
      </g>
      <g id="Grupo_87835" data-name="Grupo 87835" transform="translate(202.449 36.742)">
        <g id="Grupo_87834" data-name="Grupo 87834">
          <path id="Trazado_139613" data-name="Trazado 139613" d="M350.561,144.641c-.254,1.176-1.078,2-1.842,1.832s-1.178-1.251-.926-2.428,1.078-2,1.842-1.832S350.814,143.465,350.561,144.641Z" transform="translate(-347.719 -142.193)" fill="#000543"/>
        </g>
      </g>
      <g id="Grupo_87836" data-name="Grupo 87836" transform="translate(208.429 47.671)">
        <path id="Trazado_139614" data-name="Trazado 139614" d="M360.308,153.232l-.085-.437a2.436,2.436,0,0,1-2.132,1.63l-2.487.149a1.851,1.851,0,0,1-1.815-1.167l-.1.218a1.911,1.911,0,0,0,1.858,2.691l2.487-.149A2.465,2.465,0,0,0,360.308,153.232Z" transform="translate(-353.521 -152.795)" fill="#fa694f"/>
      </g>
      <path id="Trazado_139615" data-name="Trazado 139615" d="M353.035,161.008l-3.214-.49a.929.929,0,1,1,.279-1.836l3.214.489a.929.929,0,0,1-.279,1.837Z" transform="translate(-145.23 -104.942)" fill="#fff"/>
      <path id="Trazado_139616" data-name="Trazado 139616" d="M400.676,161.607l-3.188.635a.929.929,0,0,1-.363-1.822l3.189-.635a.929.929,0,1,1,.362,1.822Z" transform="translate(-143.769 -104.908)" fill="#fff"/>
      <path id="Trazado_139617" data-name="Trazado 139617" d="M324.776,160.321s6.615-28.177,51.457-24.827c0,0-.989-31.269-42.609-23.28C333.624,112.214,297.33,121.922,324.776,160.321Z" transform="translate(-146.295 -106.416)" fill="#afafaf"/>
      <g id="Grupo_87837" data-name="Grupo 87837" transform="translate(154.513 79.505)">
        <path id="Trazado_139618" data-name="Trazado 139618" d="M302.251,297.412c-.029,0-.057,0-.085,0a1.031,1.031,0,0,1-.944-1.111l9.107-111.676a1.031,1.031,0,0,1,2.055.167l-9.107,111.676A1.03,1.03,0,0,1,302.251,297.412Z" transform="translate(-301.219 -183.675)" fill="#afafaf"/>
      </g>
      <g id="Grupo_87838" data-name="Grupo 87838" transform="translate(196.864 72.288)">
        <path id="Trazado_139619" data-name="Trazado 139619" d="M343.333,300.378a1.031,1.031,0,0,1-1.031-1.031V177.706a1.031,1.031,0,1,1,2.062,0V299.347A1.031,1.031,0,0,1,343.333,300.378Z" transform="translate(-342.302 -176.675)" fill="#afafaf"/>
      </g>
      <g id="Grupo_87839" data-name="Grupo 87839" transform="translate(282.026 47.307)">
        <rect id="Rectángulo_32842" data-name="Rectángulo 32842" width="1.031" height="39.334" transform="translate(0 0.382) rotate(-21.737)" fill="#fa694f"/>
      </g>
      <g id="Grupo_87840" data-name="Grupo 87840" transform="translate(268.625 71)">
        <rect id="Rectángulo_32843" data-name="Rectángulo 32843" width="1.03" height="19.705" transform="translate(0 0.344) rotate(-19.482)" fill="#fa694f"/>
      </g>
      <path id="Trazado_139620" data-name="Trazado 139620" d="M437.142,179.7s-7.073,13.906-14.819,16.171l6.894,11.4s16.45-14.539,13.465-23.581Z" transform="translate(-142.969 -104.294)" fill="#24306b"/>
      <path id="Trazado_139621" data-name="Trazado 139621" d="M415.516,182.187s.755,10.007,8.8,13.753l-5.374,11.129s-9.708-9.319-9.559-22.553Z" transform="translate(-143.368 -104.217)" fill="#24306b"/>
    </g>
    <path id="Trazado_139622" data-name="Trazado 139622" d="M501.186,406.671a3.971,3.971,0,0,0-3.967,3.967v11.5l-9.34-5.812a4.471,4.471,0,0,0-6.151,1.432l-1.872,3.009a4.467,4.467,0,0,0,1.432,6.151l10.765,6.7-10.46,7.168a4.467,4.467,0,0,0-1.159,6.209l2,2.923a4.437,4.437,0,0,0,2.864,1.865,4.532,4.532,0,0,0,.83.077,4.436,4.436,0,0,0,2.515-.783l8.573-5.874v10.891a3.971,3.971,0,0,0,3.967,3.967H505.6a3.971,3.971,0,0,0,3.968-3.967V445.2l8.573,5.874a4.431,4.431,0,0,0,2.514.783,4.533,4.533,0,0,0,.83-.077,4.434,4.434,0,0,0,2.864-1.865l2-2.923a4.464,4.464,0,0,0-1.159-6.209l-10.46-7.168,10.765-6.7a4.464,4.464,0,0,0,1.432-6.151l-1.872-3.009a4.471,4.471,0,0,0-6.151-1.432l-9.339,5.812v-11.5a3.971,3.971,0,0,0-3.968-3.967Z" transform="translate(10.116 9.26)" fill="#12263f"/>
  </g>
</svg>
