<svg xmlns="http://www.w3.org/2000/svg" xmlns:xlink="http://www.w3.org/1999/xlink" width="104.852" height="104.852" viewBox="0 0 104.852 104.852">
  <defs>
    <radialGradient id="radial-gradient" cx="0.076" cy="0.019" r="1.465" gradientTransform="translate(0.001)" gradientUnits="objectBoundingBox">
      <stop offset="0" stop-color="#f6f6f7"/>
      <stop offset="0.477" stop-color="#f9f9fa"/>
      <stop offset="0.715" stop-color="#fff"/>
    </radialGradient>
  </defs>
  <g id="Grupo_50460" data-name="Grupo 50460" transform="translate(-217 -997)">
    <g id="Grupo_18531" data-name="Grupo 18531" transform="translate(217 997)">
      <g id="Grupo_18423" data-name="Grupo 18423" transform="translate(0 0)">
        <g id="Grupo_18421" data-name="Grupo 18421">
          <g id="Grupo_18420" data-name="Grupo 18420">
            <g id="Grupo_18419" data-name="Grupo 18419">
              <path id="Trazado_40936" data-name="Trazado 40936" d="M299.475,2198.146a52.426,52.426,0,1,1-52.425-52.424A52.425,52.425,0,0,1,299.475,2198.146Z" transform="translate(-194.623 -2145.721)" fill="#fff"/>
            </g>
          </g>
        </g>
        <path id="Trazado_40937" data-name="Trazado 40937" d="M298.99,2197.617a52.425,52.425,0,1,0-52.425,52.427A52.219,52.219,0,0,0,298.99,2197.617Z" transform="translate(-194.138 -2145.192)" fill="url(#radial-gradient)"/>
        <path id="Trazado_40938" data-name="Trazado 40938" d="M282.3,2193.357a40.016,40.016,0,1,0-40.016,40.016A39.868,39.868,0,0,0,282.3,2193.357Z" transform="translate(-189.698 -2140.758)" fill="none" stroke="#7d6eb2" stroke-miterlimit="10" stroke-width="4"/>
        <g id="Grupo_18422" data-name="Grupo 18422" transform="translate(9.288 29.433)">
          <path id="Trazado_40939" data-name="Trazado 40939" d="M290.808,2164.488a52.432,52.432,0,0,1-90.263,52.208,52.266,52.266,0,0,0,90.263-52.208Z" transform="translate(-200.545 -2164.488)" fill="#eceef0"/>
        </g>
      </g>
    </g>
    <g id="UGOGZP.tif" transform="translate(4132.881 -72.266)">
      <g id="Grupo_87872" data-name="Grupo 87872" transform="translate(-3890.435 1094.198)">
        <path id="Trazado_139662" data-name="Trazado 139662" d="M-3616.127,1207.684a8.583,8.583,0,0,1-.493,1.159,2.438,2.438,0,0,1-4.242.344q-2.853-3.317-5.725-6.617a.985.985,0,0,0-.473-.344c0,.325,0,.649,0,.974q-.007,2.216-.016,4.432a2.134,2.134,0,0,1-.046.606c-.65,2.112-.29,4.257-.118,6.371.286,3.51.743,7.007,1.127,10.509a3.113,3.113,0,0,1-3.255,3.668A2.067,2.067,0,0,1-3631.4,1227c-.238-1.268-.417-2.549-.567-3.831-.337-2.893-.641-5.791-.969-8.784-.41,1.351-.87,2.614-1.173,3.913q-1.261,5.411-2.407,10.848c-.344,1.621-1.241,2.477-2.622,2.33a2.956,2.956,0,0,1-2.822-3.1c.195-1.663.517-3.315.853-4.958a88.8,88.8,0,0,1,4.448-15.041,1.531,1.531,0,0,0,.144-.527c.01-2.1.006-4.2.006-6.406-.207.136-.342.212-.463.307-1.292,1.014-2.576,2.039-3.875,3.046a3.141,3.141,0,0,1-2.716.794,2.605,2.605,0,0,1-2.037-2.1,2.486,2.486,0,0,1,.91-2.711q4.34-3.484,8.653-7a3.383,3.383,0,0,0,.482-.455,4.458,4.458,0,0,1,2.349-1.465,10.467,10.467,0,0,1,1.818,4.424l1.138-4.5a21.961,21.961,0,0,1,2.3,1.6c1.423,1.284,2.843,2.586,4.136,4,2.269,2.477,4.457,5.029,6.643,7.58a11.993,11.993,0,0,1,1.046,1.724Zm-14.273-8.815a.89.89,0,0,0-.888-.873.907.907,0,0,0-.9.923.929.929,0,0,0,.9.881A.9.9,0,0,0-3630.4,1198.869Zm0,3.011a.873.873,0,0,0-.887-.866.888.888,0,0,0-.9.915.921.921,0,0,0,.9.878A.893.893,0,0,0-3630.4,1201.88Z" transform="translate(3672.862 -1180.954)" fill="#12263f"/>
        <path id="Trazado_139663" data-name="Trazado 139663" d="M-3886.47,1362.412c-.589,0-1.086.01-1.583,0a2.289,2.289,0,0,1-2.381-2.312,2.265,2.265,0,0,1,2.406-2.216q12.13-.007,24.26,0a2.233,2.233,0,0,1,2.388,2.223,2.26,2.26,0,0,1-2.374,2.305c-.494.012-.989,0-1.54,0v17.181h-21.177Z" transform="translate(3890.435 -1328.606)" fill="#12263f"/>
        <path id="Trazado_139664" data-name="Trazado 139664" d="M-3575.306,1098.913a4.775,4.775,0,0,1,4.858-4.713,4.787,4.787,0,0,1,4.706,4.871,4.8,4.8,0,0,1-4.892,4.687A4.783,4.783,0,0,1-3575.306,1098.913Z" transform="translate(3610.292 -1094.198)" fill="#12263f"/>
        <path id="Trazado_139665" data-name="Trazado 139665" d="M-3641.576,1519.96c-.293.305-.551.59-.829.853a.386.386,0,0,1-.319.1,4.082,4.082,0,0,0-4.055.36,4.727,4.727,0,0,0-1.339-2.543.419.419,0,0,1-.043-.349,3.817,3.817,0,0,0-.982-3.928l.5-.54a4.434,4.434,0,0,1,1.347,4.014.974.974,0,0,0,.217.847,15.122,15.122,0,0,1,.837,1.339,5.33,5.33,0,0,1,3.286-.123c.24.065.6-.307.962-.512Z" transform="translate(3675.93 -1467.321)" fill="#12263f"/>
      </g>
    </g>
  </g>
</svg>
