<svg xmlns="http://www.w3.org/2000/svg" width="378.293" height="189.167" viewBox="0 0 378.293 189.167">
  <g id="Grupo_87958" data-name="Grupo 87958" transform="translate(-941.188 -4535.813)">
    <g id="Grupo_87956" data-name="Grupo 87956" transform="translate(637 4267.999)">
      <g id="Grupo_87954" data-name="Grupo 87954" transform="translate(304.188 267.814)">
        <g id="Grupo_87910" data-name="Grupo 87910" transform="translate(204.353 64.822)">
          <path id="Trazado_139733" data-name="Trazado 139733" d="M592.094,358.628c-.425,1.231-5.009,14.079-12.48,14.563-2.007.13-3.777-.295-6.783-1.228a46.617,46.617,0,0,1-12.294-5.9,4.057,4.057,0,0,1-4.988-5.818c2.387,1.31,4.433,2.274,5.911,2.93a49.655,49.655,0,0,0,11.354,3.855,36.521,36.521,0,0,0,5.59.641,16.852,16.852,0,0,0,2.293-6.825Z" transform="translate(-555.023 -349.465)" fill="#f27b7b"/>
          <path id="Trazado_139734" data-name="Trazado 139734" d="M597.82,348.177a45,45,0,0,1-5.562,16.44l-6.665-2.6a19.723,19.723,0,0,1,2.9-10.744c1.709-2.658,3.194-3.3,3.722-3.5A7.419,7.419,0,0,1,597.82,348.177Z" transform="translate(-560.688 -347.381)" fill="#12263f"/>
        </g>
        <path id="Trazado_139735" data-name="Trazado 139735" d="M592.7,392.944a14.234,14.234,0,0,1-3.691,1.194,14.65,14.65,0,0,1-6.728-.412,15.911,15.911,0,0,1-1.852-.673q.277-2.9.581-5.69.184-1.7.376-3.352.131-1.139.266-2.256.24-1.977.488-3.884c.615-4.751,1.265-9.182,1.921-13.274.845-5.275,1.986-11.78,7.056-14.838a11.329,11.329,0,0,1,3.947-1.442,4.963,4.963,0,0,1-.1.592,5.091,5.091,0,0,1-.187.634l1.547,7.543q-1.049,10.357-2.1,20.714v0Q593.467,385.375,592.7,392.944Z" transform="translate(-355.379 -282.732)" fill="#ff9d00"/>
        <g id="Grupo_87913" data-name="Grupo 87913" transform="translate(193.903 95.786)">
          <g id="Grupo_87911" data-name="Grupo 87911" transform="translate(0 21.131)">
            <path id="Trazado_139736" data-name="Trazado 139736" d="M552.843,414.373l-1.556,10.02a1.784,1.784,0,0,0,3.523.081,50.892,50.892,0,0,0,1.435-13.148Z" transform="translate(-543.881 -411.326)" fill="#504f66"/>
            <path id="Trazado_139737" data-name="Trazado 139737" d="M553.2,427.057a2.407,2.407,0,0,1-3.568.03c-1.382,3.229-2.655,4.02-3.6,4.1-.736.062-1.443-.3-2.334.1a3.166,3.166,0,0,0-1.5,1.656,6.615,6.615,0,0,0,3.561,1.373,6.683,6.683,0,0,0,4.252-1.185l.3,1.078,2.873-.112a5.148,5.148,0,0,0,.452-2.086,6.149,6.149,0,0,0-.327-1.91A6.592,6.592,0,0,1,553.2,427.057Z" transform="translate(-542.197 -414.241)" fill="#504f66"/>
          </g>
          <g id="Grupo_87912" data-name="Grupo 87912" transform="translate(6.428)">
            <path id="Trazado_139738" data-name="Trazado 139738" d="M557.85,390.649h0a6.016,6.016,0,0,0,4.92,6.679l22.12,3.569a6.773,6.773,0,0,0,7.569-5.87h0a6.773,6.773,0,0,0-5.87-7.569l-22.311-2.052A6.017,6.017,0,0,0,557.85,390.649Z" transform="translate(-551.517 -385.388)" fill="#565f86"/>
            <path id="Trazado_139739" data-name="Trazado 139739" d="M550.087,416.97l5.049,1.585L567.092,393.6a5.6,5.6,0,0,0-2.653-7.652h0a5.6,5.6,0,0,0-7.52,3.008C554.737,397.544,552.27,408.385,550.087,416.97Z" transform="translate(-550.087 -385.398)" fill="#565f86"/>
          </g>
        </g>
        <g id="Grupo_87919" data-name="Grupo 87919" transform="translate(53.253)">
          <g id="Grupo_87914" data-name="Grupo 87914" transform="translate(13.063 84.112)">
            <path id="Trazado_139740" data-name="Trazado 139740" d="M385.9,448.11a7.115,7.115,0,0,0,1.838,4.437,7.017,7.017,0,0,0,4.436,1.838h37.894a6.274,6.274,0,0,0,6.274-6.275V377.361a6.274,6.274,0,0,0-6.274-6.274H392.176a5.849,5.849,0,0,0-4.054,1.107,6.207,6.207,0,0,0-2.22,5.167C385.476,415.816,385.491,443.886,385.9,448.11Z" transform="translate(-385.588 -371.059)" fill="#ff9d00"/>
            <rect id="Rectángulo_32857" data-name="Rectángulo 32857" width="18.559" height="9.442" transform="translate(9.442 32.383) rotate(90)" fill="#c96740"/>
            <rect id="Rectángulo_32858" data-name="Rectángulo 32858" width="18.559" height="9.442" transform="translate(50.757 32.383) rotate(90)" fill="#c96740"/>
          </g>
          <g id="Grupo_87915" data-name="Grupo 87915" transform="translate(63.82 96.783)">
            <path id="Trazado_139741" data-name="Trazado 139741" d="M494.635,389.788v39.547a3.3,3.3,0,0,1-3.52,3.022h-39.7a3.3,3.3,0,0,1-3.52-3.022V389.788a3.168,3.168,0,0,1,1.031-2.139,4.411,4.411,0,0,1,2.49-.886c1.3-.106,6.59-.157,14.646-.151,3.087,0,6.583.017,10.412.037,4.461.024,9.382.062,14.646.113a3.833,3.833,0,0,1,2.9,1.072A2.515,2.515,0,0,1,494.635,389.788Z" transform="translate(-447.89 -386.611)" fill="#12263f"/>
            <path id="Trazado_139742" data-name="Trazado 139742" d="M480.6,386.649v6.614H470.189v-6.652C473.276,386.615,476.772,386.629,480.6,386.649Z" transform="translate(-452.022 -386.611)" fill="#1c467b"/>
            <rect id="Rectángulo_32859" data-name="Rectángulo 32859" width="10.414" height="6.65" transform="translate(18.166 39.096)" fill="#1c467b"/>
          </g>
          <g id="Grupo_87916" data-name="Grupo 87916" transform="translate(66.259 142.529)">
            <path id="Trazado_139743" data-name="Trazado 139743" d="M473.56,467.663H452.494a1.757,1.757,0,0,1-1.61-1.875V444.638a1.757,1.757,0,0,1,1.61-1.875H473.56a1.686,1.686,0,0,1,1.14.548,2.348,2.348,0,0,1,.473,1.326c.056.692.084,3.51.08,7.8,0,1.645-.009,3.506-.02,5.546-.013,2.376-.033,5-.06,7.8a2.042,2.042,0,0,1-.571,1.544A1.341,1.341,0,0,1,473.56,467.663Z" transform="translate(-450.884 -442.763)" fill="#12263f"/>
            <path id="Trazado_139744" data-name="Trazado 139744" d="M479.97,460.187h-3.524v-5.546h3.543C479.987,456.286,479.98,458.147,479.97,460.187Z" transform="translate(-455.621 -444.964)" fill="#1c467b"/>
            <rect id="Rectángulo_32860" data-name="Rectángulo 32860" width="5.548" height="3.543" transform="translate(3.543 9.676) rotate(90)" fill="#1c467b"/>
          </g>
          <g id="Grupo_87917" data-name="Grupo 87917" transform="translate(0 35.993)">
            <rect id="Rectángulo_32861" data-name="Rectángulo 32861" width="48.119" height="76.884" rx="5.277" transform="translate(76.884) rotate(90)" fill="#b0c0d2"/>
            <rect id="Rectángulo_32862" data-name="Rectángulo 32862" width="17.276" height="9.769" transform="translate(76.876 15.212) rotate(90)" fill="#d2e1f1"/>
            <rect id="Rectángulo_32863" data-name="Rectángulo 32863" width="17.276" height="9.769" transform="translate(9.77 15.212) rotate(90)" fill="#d2e1f1"/>
          </g>
          <g id="Grupo_87918" data-name="Grupo 87918" transform="translate(18.735)">
            <rect id="Rectángulo_32864" data-name="Rectángulo 32864" width="35.993" height="36.79" rx="3.157" transform="translate(0 35.993) rotate(-90)" fill="#afafaf"/>
            <rect id="Rectángulo_32865" data-name="Rectángulo 32865" width="12.332" height="6.682" transform="translate(30.108 24.318) rotate(-90)" fill="#e8e8e8"/>
            <rect id="Rectángulo_32866" data-name="Rectángulo 32866" width="12.332" height="6.682" transform="translate(0 24.318) rotate(-90)" fill="#e8e8e8"/>
          </g>
        </g>
        <g id="Grupo_87920" data-name="Grupo 87920" transform="translate(217.972 73.356)">
          <path id="Rectángulo_32867" data-name="Rectángulo 32867" d="M0,0H45.813a0,0,0,0,1,0,0V9.579A17.557,17.557,0,0,1,28.256,27.136H0a0,0,0,0,1,0,0V0A0,0,0,0,1,0,0Z" transform="translate(45.813 63.811) rotate(180)" fill="#9cd1ff"/>
          <path id="Trazado_139745" data-name="Trazado 139745" d="M608.954,421.666h15.5V373.351a15.5,15.5,0,0,0-15.5-15.5h0Z" transform="translate(-578.636 -357.856)" fill="#9cd1ff"/>
        </g>
        <g id="Grupo_87921" data-name="Grupo 87921" transform="translate(169.063 68.519)">
          <path id="Trazado_139746" data-name="Trazado 139746" d="M557.412,375.735q-2.223-4.04-4.445-8.082a117.957,117.957,0,0,1-41.008,5.955q-.126,12.467-.253,24.934a60.4,60.4,0,0,1,45.706-22.808Z" transform="translate(-511.706 -354.834)" fill="#727997"/>
          <path id="Trazado_139747" data-name="Trazado 139747" d="M558,371.726c4.792,9.494,10.844,16.1,13.519,14.744s.959-10.14-3.833-19.633-10.844-16.094-13.518-14.744S553.207,362.233,558,371.726Zm-.9-15.605c1.422-.719,5.468,4.431,9.037,11.5s5.308,13.383,3.885,14.1-5.468-4.431-9.037-11.5S555.672,356.839,557.094,356.121Z" transform="translate(-519.34 -351.918)" fill="#12263f"/>
          <path id="Trazado_139748" data-name="Trazado 139748" d="M563.247,371.491c1.94,3.842,4.078,6.671,4.777,6.319s-.306-3.754-2.245-7.6S561.7,363.542,561,363.9,561.308,367.648,563.247,371.491Z" transform="translate(-520.8 -354.132)" fill="#12263f"/>
        </g>
        <g id="Grupo_87924" data-name="Grupo 87924" transform="translate(165.481 103.785)">
          <g id="Grupo_87922" data-name="Grupo 87922" transform="translate(0.207 10.979)">
            <path id="Trazado_139749" data-name="Trazado 139749" d="M507.564,432.469l2.077,2.509L541.912,416.6l-1.63-2.848Z" transform="translate(-507.564 -409.621)" fill="#727997"/>
            <path id="Trazado_139750" data-name="Trazado 139750" d="M548.658,409.234a4.175,4.175,0,1,1-1.55,5.7A4.176,4.176,0,0,1,548.658,409.234Z" transform="translate(-514.79 -408.682)" fill="#727997"/>
          </g>
          <g id="Grupo_87923" data-name="Grupo 87923">
            <rect id="Rectángulo_32868" data-name="Rectángulo 32868" width="3.282" height="37.694" transform="matrix(-0.751, -0.661, 0.661, -0.751, 2.463, 35.634)" fill="#727997"/>
            <path id="Trazado_139751" data-name="Trazado 139751" d="M537.564,396.622a4.175,4.175,0,1,1,.375,5.892A4.175,4.175,0,0,1,537.564,396.622Z" transform="translate(-512.723 -395.206)" fill="#727997"/>
          </g>
        </g>
        <path id="Trazado_139752" data-name="Trazado 139752" d="M505.265,441.135v1.584c.205-.044.411-.1.623-.147.352-.081.7-.154,1.064-.213l.506-.088c.132-.022.271-.044.411-.059.543-.073,1.108-.139,1.673-.183.191-.007.381-.022.579-.037a1.789,1.789,0,0,1,.2-.007c.4-.022.793-.029,1.189-.029h.022c.191,0,.374,0,.565.007s.418.007.623.022a1.849,1.849,0,0,1,.2.007c.2.015.389.022.58.037.381.029.755.066,1.129.117.352-.051.7-.088,1.064-.117.183-.007.359-.022.543-.037a1.659,1.659,0,0,1,.191-.007c.367-.022.741-.029,1.115-.029h.022c.176,0,.345,0,.528.007s.389.007.587.022a1.6,1.6,0,0,1,.183.007c.183.015.367.022.543.037.529.044,1.057.11,1.57.183.132.015.257.037.389.059.154.029.316.051.477.088.337.059.667.132,1,.213.293.073.579.147.88.227l.58.176c.33.1.653.213.968.323a24.654,24.654,0,0,1,11.252,8.384c.205.279.4.558.609.844.11.169.235.345.345.521.1.147.2.286.286.433.4.653.792,1.328,1.151,2.017.118.227.228.463.338.7s.22.47.323.7a27.328,27.328,0,0,1,2.266,10.944,28.175,28.175,0,0,1-.22,3.448h46c-.007-.1-.007-.2-.007-.293a14.058,14.058,0,0,1,13.562-14.047c.161-.007.33-.007.492-.007a13.982,13.982,0,0,1,8.222,2.655V441.135Z" transform="translate(-341.45 -299.932)" fill="#9cd1ff"/>
        <g id="Grupo_87928" data-name="Grupo 87928" transform="translate(153.993 145.03)">
          <path id="Trazado_139753" data-name="Trazado 139753" d="M493.209,469.114h0a22.019,22.019,0,0,0,1.251,6.226h0a1.182,1.182,0,0,1,1.549.629l.025.061a1.182,1.182,0,0,1-.629,1.549h0a22.1,22.1,0,0,0,3.4,5.069l0,0a1.183,1.183,0,0,1,1.671,0l.047.047a1.183,1.183,0,0,1,0,1.673h0a22.171,22.171,0,0,0,5.286,3.517l0-.006a1.18,1.18,0,0,1,1.538-.649l.066.027a1.18,1.18,0,0,1,.648,1.537l0,.008a22,22,0,0,0,5.99,1.171h0a1.181,1.181,0,0,1,1.18-1.18h.07a1.181,1.181,0,0,1,1.181,1.18h0a22.047,22.047,0,0,0,6.226-1.251l0-.007a1.181,1.181,0,0,1,.631-1.546l.063-.027a1.181,1.181,0,0,1,1.545.629l0,.006a21.865,21.865,0,0,0,5.07-3.409h0a1.183,1.183,0,0,1,0-1.674l.042-.042a1.182,1.182,0,0,1,1.673,0h0a22.205,22.205,0,0,0,3.518-5.291h0a1.183,1.183,0,0,1-.651-1.544l.023-.056a1.183,1.183,0,0,1,1.541-.649l0,0a22.019,22.019,0,0,0,1.172-6h0a1.183,1.183,0,0,1-1.184-1.183v-.059a1.183,1.183,0,0,1,1.184-1.184h0a22.051,22.051,0,0,0-1.251-6.226l0,0a1.184,1.184,0,0,1-1.55-.632l-.024-.058a1.183,1.183,0,0,1,.631-1.549l0,0a21.985,21.985,0,0,0-3.409-5.069h0a1.183,1.183,0,0,1-1.673,0l-.042-.042a1.182,1.182,0,0,1,0-1.673h0a22.124,22.124,0,0,0-5.291-3.518v0a1.183,1.183,0,0,1-1.544.651l-.055-.023a1.184,1.184,0,0,1-.65-1.541l0-.006a22,22,0,0,0-6-1.172h0a1.18,1.18,0,0,1-1.181,1.18h-.07a1.18,1.18,0,0,1-1.18-1.18h0a22.048,22.048,0,0,0-6.226,1.251l0,.006a1.182,1.182,0,0,1-.631,1.548l-.059.024a1.181,1.181,0,0,1-1.547-.631l0-.007a22.13,22.13,0,0,0-5.064,3.414h0a1.182,1.182,0,0,1,0,1.673l-.05.05a1.182,1.182,0,0,1-1.668,0l0,0a22.154,22.154,0,0,0-3.512,5.286h0a1.183,1.183,0,0,1,.648,1.542l-.023.057a1.183,1.183,0,0,1-1.542.648h0a22.034,22.034,0,0,0-1.171,6h0a1.181,1.181,0,0,1,1.18,1.18v.066A1.18,1.18,0,0,1,493.209,469.114Z" transform="translate(-493.209 -445.833)" fill="#727997"/>
          <circle id="Elipse_4199" data-name="Elipse 4199" cx="13.26" cy="13.26" r="13.26" transform="translate(8.591 8.809)" fill="#12263f"/>
          <circle id="Elipse_4200" data-name="Elipse 4200" cx="5.78" cy="5.78" r="5.78" transform="translate(16.071 16.289)" fill="#fff"/>
          <g id="Grupo_87927" data-name="Grupo 87927" transform="translate(10.72 10.721)">
            <g id="Grupo_87925" data-name="Grupo 87925">
              <path id="Trazado_139754" data-name="Trazado 139754" d="M517.865,460.757a1.764,1.764,0,1,0,1.764-1.764A1.764,1.764,0,0,0,517.865,460.757Z" transform="translate(-508.498 -458.993)" fill="#fff"/>
              <path id="Trazado_139755" data-name="Trazado 139755" d="M518.13,484.283a1.764,1.764,0,1,0,1.764-1.763A1.763,1.763,0,0,0,518.13,484.283Z" transform="translate(-508.547 -463.353)" fill="#fff"/>
              <path id="Trazado_139756" data-name="Trazado 139756" d="M508.13,474.284a1.764,1.764,0,1,0-1.763-1.764A1.764,1.764,0,0,0,508.13,474.284Z" transform="translate(-506.367 -461.173)" fill="#fff"/>
              <path id="Trazado_139757" data-name="Trazado 139757" d="M531.657,474.284a1.764,1.764,0,1,0-1.764-1.764A1.763,1.763,0,0,0,531.657,474.284Z" transform="translate(-510.727 -461.173)" fill="#fff"/>
            </g>
            <g id="Grupo_87926" data-name="Grupo 87926" transform="translate(2.807 2.807)">
              <circle id="Elipse_4201" data-name="Elipse 4201" cx="1.764" cy="1.764" r="1.764" transform="translate(13.553)" fill="#fff"/>
              <path id="Trazado_139758" data-name="Trazado 139758" d="M510.329,479.591a1.764,1.764,0,1,0,2.495,0A1.765,1.765,0,0,0,510.329,479.591Z" transform="translate(-509.812 -465.521)" fill="#fff"/>
              <circle id="Elipse_4202" data-name="Elipse 4202" cx="1.764" cy="1.764" r="1.764" fill="#fff"/>
              <path id="Trazado_139759" data-name="Trazado 139759" d="M526.964,482.085a1.764,1.764,0,1,0,0-2.495A1.764,1.764,0,0,0,526.964,482.085Z" transform="translate(-512.895 -465.521)" fill="#fff"/>
            </g>
          </g>
        </g>
        <rect id="Rectángulo_32869" data-name="Rectángulo 32869" width="45.813" height="13.568" transform="translate(263.784 137.167) rotate(180)" fill="#12263f"/>
        <path id="Trazado_139760" data-name="Trazado 139760" d="M583.207,300.168H583.2c-50.688,0-77.935,41.09-77.935,91.781v23.063H609.884V326.852A26.686,26.686,0,0,0,583.207,300.168ZM601.17,409.291H513.515l-.075-19.22c-.291-7.284-.723-37.269,19.564-59.785a71.451,71.451,0,0,1,26.583-18.674c7.069-2.8,13.911-3.818,22.287-3.818,13.21,0,19.3,9.252,19.3,22.463Z" transform="translate(-341.45 -273.81)" fill="#12263f"/>
        <path id="Trazado_139761" data-name="Trazado 139761" d="M341.556,474.214H463.837a27.347,27.347,0,0,1-.91-7.027,27.073,27.073,0,0,1,2.956-12.382c.1-.176.183-.359.271-.528s.183-.345.286-.513.213-.353.315-.529.213-.351.323-.528.213-.337.33-.506.213-.323.331-.484c.066-.1.147-.213.22-.308.11-.154.227-.308.345-.462a24.611,24.611,0,0,1,11.142-8.289c.293-.1.587-.205.895-.3.257-.089.536-.169.807-.243.059-.015.125-.029.191-.051.191-.044.389-.1.587-.147.33-.081.66-.154,1-.213l.477-.088c.117-.022.249-.044.381-.059l.374-.049c.371-.048.979-.12,1.352-.143.129-.007.256-.018.386-.029a1.66,1.66,0,0,1,.191-.007c.367-.022.741-.029,1.115-.029h.022c.176,0,.345,0,.528.007s.389.007.587.022a1.6,1.6,0,0,1,.183.007c.183.015.367.022.543.037.529.044,1.057.11,1.57.183.132.015.257.037.389.059.154.029.316.051.477.088.337.059.667.132,1,.213.293.073.579.147.88.227l.58.176c.33.1.653.213.968.323a24.655,24.655,0,0,1,11.252,8.384c.205.279.4.558.609.844.11.169.235.345.345.521.1.147.2.286.286.433.4.653.792,1.328,1.151,2.017.118.227.228.463.338.7s.22.47.323.7a27.328,27.328,0,0,1,2.266,10.944,28.175,28.175,0,0,1-.22,3.448,26.037,26.037,0,0,1-.69,3.579h47.23a13.758,13.758,0,0,1-.535-3.579c-.007-.1-.007-.2-.007-.293a13.929,13.929,0,0,1,.381-3.25q-21.19-.165-42.381-.323c-.066-2.2-.587-12.778-7.761-20.3a32.1,32.1,0,0,0-8.171-5.992,27.565,27.565,0,0,0-7.254-2.465,25.49,25.49,0,0,0-4.577-.411h-.6a25.769,25.769,0,0,0-11.832,2.876,1.468,1.468,0,0,1-.147.081,29.179,29.179,0,0,0-15.205,26l-110.6.075A7.575,7.575,0,0,0,341.556,474.214Z" transform="translate(-311.113 -299.278)" fill="#12263f"/>
        <path id="Trazado_139762" data-name="Trazado 139762" d="M622.984,440.55v16.291c.161-.007.33-.007.492-.007a13.982,13.982,0,0,1,8.222,2.655V440.55Z" transform="translate(-363.265 -299.824)" fill="#12263f"/>
        <g id="Grupo_87933" data-name="Grupo 87933" transform="translate(248.425 159.274)">
          <path id="Trazado_139763" data-name="Trazado 139763" d="M609.121,475.752h0a11.779,11.779,0,0,0,.668,3.326h0a.631.631,0,0,1,.827.336l.014.033a.631.631,0,0,1-.336.827h0a11.8,11.8,0,0,0,1.818,2.707h0a.631.631,0,0,1,.892,0l.025.025a.632.632,0,0,1,0,.894h0a11.844,11.844,0,0,0,2.824,1.879v0a.63.63,0,0,1,.822-.346l.035.014a.63.63,0,0,1,.346.821l0,0a11.731,11.731,0,0,0,3.2.626h0a.631.631,0,0,1,.631-.631h.037a.63.63,0,0,1,.631.631h0a11.777,11.777,0,0,0,3.326-.668l0,0a.631.631,0,0,1,.336-.826l.034-.014a.631.631,0,0,1,.825.336v0a11.693,11.693,0,0,0,2.708-1.821h0a.633.633,0,0,1,0-.895l.023-.023a.632.632,0,0,1,.894,0h0a11.838,11.838,0,0,0,1.879-2.825h0a.633.633,0,0,1-.348-.825l.012-.029a.633.633,0,0,1,.824-.347l0,0a11.754,11.754,0,0,0,.626-3.2h0a.633.633,0,0,1-.632-.632v-.032a.632.632,0,0,1,.632-.632h0a11.771,11.771,0,0,0-.668-3.326h0a.632.632,0,0,1-.828-.338l-.013-.03a.633.633,0,0,1,.336-.828h0a11.757,11.757,0,0,0-1.821-2.707h0a.632.632,0,0,1-.894,0l-.023-.023a.632.632,0,0,1,0-.894h0a11.8,11.8,0,0,0-2.826-1.879h0a.633.633,0,0,1-.824.348l-.03-.012a.633.633,0,0,1-.347-.824l0,0a11.75,11.75,0,0,0-3.2-.626h0a.631.631,0,0,1-.631.631h-.037a.631.631,0,0,1-.631-.631h0a11.781,11.781,0,0,0-3.326.668l0,0a.632.632,0,0,1-.337.827l-.032.013a.631.631,0,0,1-.826-.337l0,0a11.845,11.845,0,0,0-2.706,1.824h0a.631.631,0,0,1,0,.893l-.027.027a.631.631,0,0,1-.89,0l0,0a11.819,11.819,0,0,0-1.876,2.824h0a.63.63,0,0,1,.346.823l-.012.031a.631.631,0,0,1-.824.346h0a11.753,11.753,0,0,0-.626,3.2h0a.63.63,0,0,1,.631.631v.035A.631.631,0,0,1,609.121,475.752Z" transform="translate(-609.121 -463.317)" fill="#727997"/>
          <circle id="Elipse_4203" data-name="Elipse 4203" cx="7.082" cy="7.082" r="7.082" transform="translate(4.704 4.705)" fill="#12263f"/>
          <g id="Grupo_87932" data-name="Grupo 87932" transform="translate(5.726 5.726)">
            <circle id="Elipse_4204" data-name="Elipse 4204" cx="3.087" cy="3.087" r="3.087" transform="translate(2.758 2.974)" fill="#f9f9f9"/>
            <g id="Grupo_87931" data-name="Grupo 87931">
              <g id="Grupo_87929" data-name="Grupo 87929">
                <path id="Trazado_139764" data-name="Trazado 139764" d="M622.167,471.288a.942.942,0,1,0,.943-.942A.942.942,0,0,0,622.167,471.288Z" transform="translate(-617.264 -470.346)" fill="#f9f9f9"/>
                <path id="Trazado_139765" data-name="Trazado 139765" d="M622.167,483.854a.942.942,0,1,0,.943-.942A.943.943,0,0,0,622.167,483.854Z" transform="translate(-617.264 -472.675)" fill="#f9f9f9"/>
                <circle id="Elipse_4205" data-name="Elipse 4205" cx="0.942" cy="0.942" r="0.942" transform="translate(0 5.119)" fill="#f9f9f9"/>
                <circle id="Elipse_4206" data-name="Elipse 4206" cx="0.942" cy="0.942" r="0.942" transform="translate(10.022 5.119)" fill="#f9f9f9"/>
              </g>
              <g id="Grupo_87930" data-name="Grupo 87930" transform="translate(1.284 1.499)">
                <circle id="Elipse_4207" data-name="Elipse 4207" cx="0.942" cy="0.942" r="0.942" transform="translate(7.239 0)" fill="#f9f9f9"/>
                <path id="Trazado_139766" data-name="Trazado 139766" d="M618,481.347a.942.942,0,1,0,1.332,0A.944.944,0,0,0,618,481.347Z" transform="translate(-617.725 -473.833)" fill="#f9f9f9"/>
                <path id="Trazado_139767" data-name="Trazado 139767" d="M618,473.794a.942.942,0,1,0,0-1.332A.941.941,0,0,0,618,473.794Z" transform="translate(-617.725 -472.186)" fill="#f9f9f9"/>
                <circle id="Elipse_4208" data-name="Elipse 4208" cx="0.942" cy="0.942" r="0.942" transform="translate(7.239 7.239)" fill="#f9f9f9"/>
              </g>
            </g>
          </g>
        </g>
        <path id="Trazado_139768" data-name="Trazado 139768" d="M602.448,473.871c0,.095,0,.2.007.293h3.168c-.007-.1-.007-.2-.007-.293a14.057,14.057,0,0,1,13.562-14.047c.161-.007.33-.007.492-.007a13.982,13.982,0,0,1,8.222,2.655v-3.734a17.222,17.222,0,0,0-25.444,15.133Z" transform="translate(-359.459 -302.807)" fill="#12263f"/>
        <g id="Grupo_87941" data-name="Grupo 87941" transform="translate(193.455 42.027)">
          <g id="Grupo_87934" data-name="Grupo 87934" transform="translate(0 78.752)">
            <path id="Trazado_139769" data-name="Trazado 139769" d="M557.523,417.736l-4.952,8.848a1.784,1.784,0,0,0,3.273,1.3,50.845,50.845,0,0,0,5.93-11.823Z" transform="translate(-543.665 -416.066)" fill="#504f66"/>
            <path id="Trazado_139770" data-name="Trazado 139770" d="M554.013,429.952a6.63,6.63,0,0,0-.966,2.887c-.007.1-.014.187-.021.277H542.9a6.639,6.639,0,0,1-1.253-1.484,3.181,3.181,0,0,1,1.986-1.031c.974-.061,1.512.521,2.223.722.912.255,2.381-.043,4.8-2.586a2.407,2.407,0,0,0,3.355,1.214Z" transform="translate(-541.647 -418.414)" fill="#62617d"/>
          </g>
          <g id="Grupo_87936" data-name="Grupo 87936" transform="translate(8.865 51.208)">
            <g id="Grupo_87935" data-name="Grupo 87935" transform="translate(0 5.201)">
              <path id="Trazado_139771" data-name="Trazado 139771" d="M563.893,398.166h0a6.016,6.016,0,0,0,6.28,5.42l22.359-1.43a6.774,6.774,0,0,0,6.078-7.4h0a6.774,6.774,0,0,0-7.4-6.078L569,391.627A6.016,6.016,0,0,0,563.893,398.166Z" transform="translate(-554.63 -388.642)" fill="#727997"/>
              <path id="Trazado_139772" data-name="Trazado 139772" d="M552.529,419.26l4.92,3.089,14.564-20.959a5.6,5.6,0,0,0-1.62-7.935h0a5.6,5.6,0,0,0-7.85,1.989Z" transform="translate(-552.529 -389.375)" fill="#727997"/>
            </g>
            <path id="Trazado_139773" data-name="Trazado 139773" d="M583.066,393.032l19.1.732q-.175-4.664-.349-9.33l-17.139-2.178Q583.873,387.644,583.066,393.032Z" transform="translate(-558.188 -382.257)" fill="#62617d"/>
          </g>
          <path id="Trazado_139774" data-name="Trazado 139774" d="M604.02,333.336a29.428,29.428,0,0,0,1.324,14.883l-8.048.294c1.743-5.309,1.123-8.425.184-10.308-.374-.75-.922-1.552-.662-2.415C597.368,333.976,601.015,333.475,604.02,333.336Z" transform="translate(-551.858 -321.983)" fill="#ffb89e"/>
          <path id="Trazado_139775" data-name="Trazado 139775" d="M594.239,326.7c1.845-1.241,4.761-.393,6.414,1.1,2.671,2.415,2.724,7.014.834,9.091a3.91,3.91,0,0,1-.681.591,4.238,4.238,0,0,1-.676,2.625c-.85,1.233-2.182,1.515-3.894,1.878-2.38.5-4.379.191-4.76-.446a1.3,1.3,0,0,1-.174-.487c-.051-.5.322-.648.259-1.04-.07-.445-.583-.625-.492-.919.035-.112.139-.174.136-.332a.463.463,0,0,0-.088-.251c-.24-.383,1.035-1.425.87-2-.127-.443-.994-.261-1.191-.72-.244-.569.949-1.165,1.427-2.536.372-1.068-.02-1.437.022-2.732A5.056,5.056,0,0,1,594.239,326.7Z" transform="translate(-550.749 -320.642)" fill="#ffb89e"/>
          <path id="Trazado_139776" data-name="Trazado 139776" d="M599.167,355.065a10.9,10.9,0,0,1-5.94-2.546c.2-.207.314-.31.314-.31a12.588,12.588,0,0,1,3.568-2.238h.006c1.5.116,3,.2,4.5.3,1.032.075,1.966.139,2.776.214,1.926.18,3.169.437,3.455,1.122a.358.358,0,0,1,.018.063C608.06,352.787,603.341,355.424,599.167,355.065Z" transform="translate(-551.205 -325.066)" fill="#ffb89e"/>
          <path id="Trazado_139777" data-name="Trazado 139777" d="M601.794,379.68l-1.907,2.51-15.629-1.977a149.6,149.6,0,0,1,2.007-15.3s1.616-8.776,5.3-12.395l.314-.31a12.588,12.588,0,0,1,3.568-2.238l.009,0,0,0c-1.2,1.507-1.4,3.22-.688,4.046.888,1.027,2.931.377,3.651.148a7.987,7.987,0,0,0,4.309-3.675c.024-.04.045-.077.065-.114a6.047,6.047,0,0,1,3.9,1.135,6.493,6.493,0,0,1,2.02,3.034c1.34,4.619-4.366,8.328-6.439,15.97A22.548,22.548,0,0,0,601.794,379.68Z" transform="translate(-549.543 -325.065)" fill="#12263f"/>
          <path id="Trazado_139778" data-name="Trazado 139778" d="M593.259,326.7c1.32,1.106,3.342-.064,3.743.676.458.842-1.374,2.382-.775,3.369.214.354.581.27.832.567.723.856-.306,2.448-1,5.528l0,.013a.474.474,0,0,1-.852.17,2.7,2.7,0,0,0-1.009-.912,2.955,2.955,0,0,0-2.117-.2,1.586,1.586,0,0,0-.68,1.2,1.958,1.958,0,0,1,.744-.222c.126-.011,1.022-.1,1.347.407.171.264.067.632-.143,1.368-.2.695-.332,1.142-.7,1.278a.61.61,0,0,1-.6-.081.567.567,0,0,1-.16-.455.4.4,0,0,0-.358-.432h-.011a1.79,1.79,0,0,0-.311.667l0,.017a1.589,1.589,0,0,0,.648,1.612c.033.024.067.048.1.071,2.732,1.832,7.295-.929,7.942-1.331h0a2.292,2.292,0,0,0,1-1.007,2.617,2.617,0,0,0,.176-.733,12.455,12.455,0,0,0,.134-1.618q-.221-.96-.443-1.922a3.055,3.055,0,0,1-.448.928c-.69.96-2.076,1.66-2.751,1.21-.121-.081-.372-.309-.4-1.007.261-2.345,1.106-4.042,2.109-4.175a1.541,1.541,0,0,1,1.119.3,1.836,1.836,0,0,1,.547,1.335c.152,1.83-1.45,3.972-1.8,4.428a5.329,5.329,0,0,0,2.046-.06,5.024,5.024,0,0,0,1.173-.419c2.424-1.277,3.471-4.791,2.958-7.656a7.324,7.324,0,0,0-2.543-4.519,7.045,7.045,0,0,0-5.164-1.521,5.9,5.9,0,0,1-1.831.094c-.175-.018-1.437-.149-1.489-.542-.05-.373,1.023-.673.973-.892a1.945,1.945,0,0,0-2.017.211,2.9,2.9,0,0,0-.623,3.353A2.333,2.333,0,0,0,593.259,326.7Z" transform="translate(-550.824 -319.891)" fill="#fff1cc"/>
          <path id="Trazado_139779" data-name="Trazado 139779" d="M600.174,336.319a.313.313,0,0,1-.29-.347c.077-.759.45-1.286.877-1.359a.876.876,0,0,1,.645.195c.62.5.332,1.657.3,1.778-.356,1.35-1.871,2.272-2.244,2-.1-.075-.167-.277-.023-.819a.317.317,0,0,1,.451-.2.566.566,0,0,0,.433.046.773.773,0,0,0,.19-1.172A.548.548,0,0,0,600.174,336.319Z" transform="translate(-552.341 -322.218)" fill="#f27b7b"/>
          <path id="Trazado_139780" data-name="Trazado 139780" d="M607.067,393.091a14.235,14.235,0,0,1-3.69,1.194A15.054,15.054,0,0,1,594.8,393.2q.219-1.8.433-3.537.137-1.107.27-2.191c.051-.414.1-.824.151-1.233.09-.731.18-1.452.267-2.162l.029-.229q.133-1.086.264-2.143.083-.671.165-1.33.141-1.129.276-2.222c1.633-13.143,2.792-22.186,3.1-24.419a6.992,6.992,0,0,1,1.066-2.973,6.578,6.578,0,0,1,1.167-1.331,5.178,5.178,0,0,1,6.47-.349c.053.039.105.077.156.119,2.161,1.712,2.99,4.888,2.091,8.033q-1.117,11.022-2.232,22.044-.108,1.089-.219,2.178-.075.727-.148,1.453-.1,1.034-.208,2.066c-.009.077-.016.155-.023.231q-.109,1.055-.213,2.108-.071.694-.141,1.388-.109,1.059-.215,2.121Q607.18,391.957,607.067,393.091Z" transform="translate(-551.496 -324.721)" fill="#ff9d00"/>
          <g id="Grupo_87938" data-name="Grupo 87938" transform="translate(37.439)">
            <g id="Grupo_87937" data-name="Grupo 87937">
              <path id="Trazado_139781" data-name="Trazado 139781" d="M600.8,329.458l-11.414-.806h0a9.952,9.952,0,0,1,10.628-9.226l1.486.105Z" transform="translate(-587.933 -319.401)" fill="#ff9d00"/>
              <path id="Trazado_139782" data-name="Trazado 139782" d="M607.316,329.843l-10.139-.715.343-4.859a5.082,5.082,0,0,1,5.427-4.711h0a5.082,5.082,0,0,1,4.711,5.427Z" transform="translate(-589.377 -319.428)" fill="#ff9d00"/>
              <path id="Trazado_139783" data-name="Trazado 139783" d="M606.389,331.684,588.18,330.4a.622.622,0,0,1-.576-.663h0a.622.622,0,0,1,.663-.576l18.209,1.286a.622.622,0,0,1,.576.663h0A.622.622,0,0,1,606.389,331.684Z" transform="translate(-587.602 -321.209)" fill="#12263f"/>
            </g>
          </g>
          <g id="Grupo_87939" data-name="Grupo 87939" transform="translate(44.002 53.433)">
            <path id="Trazado_139784" data-name="Trazado 139784" d="M608.418,389.743a15.839,15.839,0,0,1-2.142.407,18.35,18.35,0,0,1-9.745-1.61q.083-.671.165-1.33.141-1.129.276-2.222a27.672,27.672,0,0,0,3.4.855,28.079,28.079,0,0,0,8.413.27q-.108,1.089-.219,2.178Q608.492,389.017,608.418,389.743Z" transform="translate(-595.82 -384.988)" fill="#fff"/>
            <path id="Trazado_139785" data-name="Trazado 139785" d="M607.671,396.885c-.558.1-1.143.184-1.756.241a23.051,23.051,0,0,1-10.257-1.471c.051-.414.1-.824.151-1.233.09-.731.18-1.452.267-2.162a20.017,20.017,0,0,0,3.718,1.135,20.836,20.836,0,0,0,8.232-.007q-.109,1.055-.213,2.108Q607.741,396.191,607.671,396.885Z" transform="translate(-595.658 -386.336)" fill="#fff"/>
          </g>
          <g id="Grupo_87940" data-name="Grupo 87940" transform="translate(20.615 25.899)">
            <path id="Trazado_139786" data-name="Trazado 139786" d="M604.127,360.56c-.465,1.216-5.467,13.907-12.95,14.147-2.011.064-3.766-.419-6.74-1.449a46.613,46.613,0,0,1-12.093-6.3,4.058,4.058,0,0,1-4.794-5.978c2.343,1.387,4.355,2.418,5.812,3.123a49.688,49.688,0,0,0,11.223,4.225,36.585,36.585,0,0,0,5.565.823,22.445,22.445,0,0,0,6.625-12.739Z" transform="translate(-566.951 -352.158)" fill="#ffb89e"/>
            <path id="Trazado_139787" data-name="Trazado 139787" d="M609.687,352.616c2.121,2.6.926,6.45.3,8.453a14.866,14.866,0,0,1-2.3,4.484l-7.128-3.572q1.221-4.013,2.441-8.026a3.859,3.859,0,0,1,6.549-1.5C609.6,352.51,609.643,352.562,609.687,352.616Z" transform="translate(-573.18 -351.191)" fill="#12263f"/>
          </g>
        </g>
        <g id="Grupo_87953" data-name="Grupo 87953" transform="translate(0 65.341)">
          <path id="Trazado_139788" data-name="Trazado 139788" d="M342.245,428.19l26.278-1.561q2.225-10.8,4.451-21.6l12.665,21.737,19.694-18.018-7.418,25.738,22.9,5.654-21.5,6.236,8.6,21.716-20.856-13.976-9.776,19.834q-2.416-9.815-4.833-19.632l-18.424,15.1q1.51-8,3.02-16.008l-16.914-4.833,19.783-8.91Z" transform="translate(-310.849 -358.583)" fill="#d2e1f1"/>
          <g id="Grupo_87952" data-name="Grupo 87952">
            <g id="Grupo_87948" data-name="Grupo 87948" transform="translate(22.432)">
              <g id="Grupo_87946" data-name="Grupo 87946" transform="translate(0 57.945)">
                <g id="Grupo_87942" data-name="Grupo 87942" transform="translate(49.555 40.662)">
                  <path id="Trazado_139789" data-name="Trazado 139789" d="M397.073,471.216q2.29,5.018,4.581,10.036a2.009,2.009,0,0,1-1.1,2,2.066,2.066,0,0,1-2.635-1.194l-2.7-4.261a11.387,11.387,0,0,1-1.5-2.312,12.023,12.023,0,0,1-1.1-6.434Z" transform="translate(-392.55 -469.055)" fill="#bf6e55"/>
                  <path id="Trazado_139790" data-name="Trazado 139790" d="M399.074,484.75a2.621,2.621,0,0,0,3.7-.959,24.707,24.707,0,0,0,7.695,2.234c1.785.2,3.009.13,3.188.692.278.875-2.175,2.7-4.645,3.381a9.609,9.609,0,0,1-4.79.036q.006.606.013,1.213l-3.03.742a5.6,5.6,0,0,1-1.095-2.042,6.642,6.642,0,0,1-.231-2.09A7.151,7.151,0,0,0,399.074,484.75Z" transform="translate(-393.759 -471.786)" fill="#12263f"/>
                </g>
                <g id="Grupo_87943" data-name="Grupo 87943" transform="translate(24.945)">
                  <path id="Trazado_139791" data-name="Trazado 139791" d="M362.842,427.793c.075.174.159.348.251.517a6.253,6.253,0,0,0,.881,1.23l1.726,2.018,7.661,8.951,4.993,5.833a5.25,5.25,0,0,0,8.093-6.667l-10.342-14.43-1.26-1.758-1.308-1.827a6.2,6.2,0,0,0-10.886,5.623C362.706,427.456,362.771,427.626,362.842,427.793Z" transform="translate(-362.342 -419.143)" fill="#ff9d00"/>
                  <path id="Trazado_139792" data-name="Trazado 139792" d="M393.668,475.962l5.743-2.345-8.8-28.235a5.251,5.251,0,0,0-6.931-3.031h0a5.252,5.252,0,0,0-2.785,7Z" transform="translate(-365.695 -423.37)" fill="#ff9d00"/>
                </g>
                <g id="Grupo_87944" data-name="Grupo 87944" transform="translate(0 37.897)">
                  <path id="Trazado_139793" data-name="Trazado 139793" d="M349.307,470.573l-8.109,7.48a2.009,2.009,0,0,1-2.248-.424,2.066,2.066,0,0,1,.314-2.876l3.205-3.9a11.415,11.415,0,0,1,1.73-2.143,12.034,12.034,0,0,1,5.77-3.052Q349.639,468.116,349.307,470.573Z" transform="translate(-332.98 -465.66)" fill="#bf6e55"/>
                  <path id="Trazado_139794" data-name="Trazado 139794" d="M338.032,476.745a2.623,2.623,0,0,0,2.064,3.216,24.692,24.692,0,0,0,.276,8.008c.362,1.76.814,2.9.336,3.245-.745.536-3.244-1.225-4.66-3.36a9.6,9.6,0,0,1-1.527-4.541l-1.149.391-1.649-2.649a5.6,5.6,0,0,1,1.6-1.677,6.687,6.687,0,0,1,1.915-.871A7.148,7.148,0,0,0,338.032,476.745Z" transform="translate(-331.723 -467.714)" fill="#12263f"/>
                </g>
                <g id="Grupo_87945" data-name="Grupo 87945" transform="translate(6.685 0.156)">
                  <path id="Trazado_139795" data-name="Trazado 139795" d="M369.41,452.4a5.251,5.251,0,0,0,4-5.992l-.907-5.862-1.479-9.569-.873-5.647-.127-.825a6.2,6.2,0,0,0-7.511-5.01,6.321,6.321,0,0,0-1.06.346,6.194,6.194,0,0,0-3.519,7.375l.222.913h0l.047.191.264,1.084.675,2.759,4.037,16.539A5.251,5.251,0,0,0,369.41,452.4Z" transform="translate(-343.221 -419.334)" fill="#ff9d00"/>
                  <path id="Trazado_139796" data-name="Trazado 139796" d="M339.928,469.115l4.017,4.726,24.085-17.162a5.253,5.253,0,0,0,.72-7.53h0a5.252,5.252,0,0,0-7.523-.464Z" transform="translate(-339.928 -424.52)" fill="#ff9d00"/>
                </g>
              </g>
              <path id="Trazado_139797" data-name="Trazado 139797" d="M356.891,383.808l6.676-16.126-10.288-12.243a4.75,4.75,0,0,1-2.7-1.405,3.979,3.979,0,0,1-1.131-2.552,4.436,4.436,0,0,1,1.745-3.464,40.029,40.029,0,0,0,4.15,5.179c4.632,4.875,9.761,8.733,12.361,12.238a6.765,6.765,0,0,1,1,1.879,7.576,7.576,0,0,1,.124,4.061c-.495,2.456-2.458,8.33-5.638,15.908Z" transform="translate(-335.007 -348.018)" fill="#b05d45"/>
              <g id="Grupo_87947" data-name="Grupo 87947" transform="translate(20.697 27.259)">
                <path id="Trazado_139798" data-name="Trazado 139798" d="M362.733,400.007a45.294,45.294,0,0,0,2.667-5.461c.432-1.058.846-2.187,1.227-3.386.334-1.049.616-2.068.853-3.046a45.438,45.438,0,0,0,.871-4.638q-2.506-.722-5.014-1.448l-.976-.282-.925-.268a19.848,19.848,0,0,0-4.256,10.355c-.261,3.168.53,4.588.83,5.072a6.39,6.39,0,0,0,.49.678,6.747,6.747,0,0,0,1.869,1.532A8.558,8.558,0,0,0,362.733,400.007Z" transform="translate(-357.128 -381.478)" fill="#fff"/>
              </g>
              <path id="Trazado_139799" data-name="Trazado 139799" d="M342.649,380.746a25.459,25.459,0,0,1,3.872,14.431l7.66-1.878a25.226,25.226,0,0,1-2.832-9.985,24.108,24.108,0,0,1-.03-2.519Z" transform="translate(-333.748 -354.083)" fill="#b05d45"/>
              <path id="Trazado_139800" data-name="Trazado 139800" d="M353.114,399.8a10.965,10.965,0,0,0,5.038-4.108c-.249-.145-.39-.212-.39-.212a12.656,12.656,0,0,0-4.07-1.175l-.006,0c-1.417.527-2.844,1.019-4.263,1.541-.978.358-1.862.679-2.626.977-1.813.708-2.943,1.3-3.03,2.042a.358.358,0,0,0,0,.066C343.882,400.059,349.176,401.3,353.114,399.8Z" transform="translate(-333.955 -356.595)" fill="#b05d45"/>
              <path id="Trazado_139801" data-name="Trazado 139801" d="M352.413,415.47a33.077,33.077,0,0,1,2.619,6.781c.09.352.16.644.205.844h0l.007,0,.264,1.084c1.22-.307,2.479-.657,3.767-1.058q1.094-.341,2.218-.732c2.385-.832,4.284-1.651,5.7-2.284.288-.129.556-.25.8-.363,1.238-.562,2.271-1.064,3.033-1.444l0,0c-3.919-8.182-5.266-11.418-5.572-12.552l-.012-.046q-.21-.77-.464-1.474a18.451,18.451,0,0,0-3.123-5.555,15.78,15.78,0,0,0-4.083-3.567c-.249-.145-.39-.212-.39-.212l-2.7-3.77a4.365,4.365,0,0,0-1.872.652c-.078.051-.152.1-.223.155a4.694,4.694,0,0,0,.252.9,4.772,4.772,0,0,0,.525.984c1.18,1.728,1.77,2.592,1.672,2.969-.346,1.33-5.865,2.061-8.616-.546-.037-.034-.068-.065-.095-.092a6.412,6.412,0,0,0-2.608,1.281,5.3,5.3,0,0,0-.635.628v0c-.073.085-.145.174-.214.267,0,0-.072.1-.178.275a6.516,6.516,0,0,0-.935,3.22c-.011,3.432,3.28,5.438,6.666,8.748A20.389,20.389,0,0,1,352.413,415.47Z" transform="translate(-333.583 -356.005)" fill="#fff"/>
              <path id="Trazado_139802" data-name="Trazado 139802" d="M356.008,418.659q1.072,3.551,2.144,7.1l.675,2.759,5.7-.569,6.183-.618,5.855-.584c-.331-1.081-.888-2.884-1.632-5.111L367.623,405.8l-5.127-6.131-5.638,3.19a14.421,14.421,0,0,1,1.611,4.432A16.153,16.153,0,0,1,356.008,418.659Z" transform="translate(-336.223 -357.59)" fill="#ff9d00"/>
              <path id="Trazado_139803" data-name="Trazado 139803" d="M357.184,391.035l6.709,8.856-1.717.765-6.918-8.866a3.933,3.933,0,0,1,1.925-.755Z" transform="translate(-336.085 -355.99)" fill="#ff9d00"/>
              <path id="Trazado_139804" data-name="Trazado 139804" d="M341.454,401.421l14.409,2.855-.452-1.165-11.695-4.264a4.435,4.435,0,0,0-2.262,2.574Z" transform="translate(-333.526 -357.437)" fill="#ff9d00"/>
            </g>
            <g id="Grupo_87950" data-name="Grupo 87950" transform="translate(25.681 13.932)">
              <path id="Trazado_139805" data-name="Trazado 139805" d="M346.677,383.6a4.168,4.168,0,0,1-.432-.071,3.83,3.83,0,0,1-.453-.129c-2.664-.94-4.809-5.04-3.593-8.452.751-2.112,2.931-4.253,5.158-4.032a3.916,3.916,0,0,1,1.174.319,5.479,5.479,0,0,1,2.412,2.116,2.293,2.293,0,0,1,.278.956s.011.037.036.1c.033.076.072.152.116.23.024.041.047.08.073.119a2.6,2.6,0,0,0,1.7,1.128l.6.117a1.261,1.261,0,0,1,.661.356l.011.011a1.264,1.264,0,0,1,.084,1.672c-.237.3-.408.568-.38.657.162.512,1.63.763,1.623,1.2a.492.492,0,0,0,.042.265c.072.141.192.151.279.23.213.2-.022.607.035,1.018a.673.673,0,0,0,.021.1,1.391,1.391,0,0,0,.586.756.991.991,0,0,1,.162.49c.049,1.386-3.316,2.463-4,2.663-1.69.495-3,.877-4.346.192a3.871,3.871,0,0,1-1.318-1.126A5,5,0,0,1,346.677,383.6Zm3.005-1.462c.07-.13.182-.451-.123-1.083-1.348-1.954-2.906-3.053-3.857-2.694a1.553,1.553,0,0,0-.852.8,1.845,1.845,0,0,0,.152,1.443,3.958,3.958,0,0,0,.829,1.174l0,0a3.069,3.069,0,0,0,.839.607C347.737,382.893,349.3,382.854,349.682,382.133Z" transform="translate(-336.848 -366.19)" fill="#bf6e55"/>
              <path id="Trazado_139806" data-name="Trazado 139806" d="M338.779,378.324c-.1-4.5-.119-4.72.1-5.216a7.093,7.093,0,0,1,3.85-3.809,5.932,5.932,0,0,0,1.667-.789l.031-.02a4.137,4.137,0,0,0,1.024-.964c-.451-.034-1.143-.143-1.28-.531-.2-.58.857-1.705,1.964-1.857a3.448,3.448,0,0,1,3.458,3.365,2.838,2.838,0,0,1-1.117,2.125c-.832.577-1.528.216-2.055.86-.358.437-.638,1.257-.256,1.691l1.056,1.2a.8.8,0,0,1,.059.984l-.007.01a.8.8,0,0,0,.079,1.006l4.333,4.524a1.961,1.961,0,0,0,2.371.358l1.491-.829,0,0,.378.35a1.313,1.313,0,0,1-.212,2.087,16.862,16.862,0,0,1-7.384,2.385,1.316,1.316,0,0,1-1.174-.544q-.428-.6-.859-1.2l-.014,0a4.377,4.377,0,0,1-2.743,1.427,4.765,4.765,0,0,1-4.421-2.793C338.857,381.6,338.827,380.5,338.779,378.324Zm10.321,2.738c.07-.13.182-.451-.123-1.083-1.348-1.954-2.906-3.053-3.857-2.694a1.553,1.553,0,0,0-.852.8,1.845,1.845,0,0,0,.152,1.443,3.958,3.958,0,0,0,.829,1.174l0,0a3.069,3.069,0,0,0,.839.607C347.154,381.823,348.717,381.783,349.1,381.062Z" transform="translate(-336.265 -365.119)" fill="#615a6e"/>
              <g id="Grupo_87949" data-name="Grupo 87949" transform="translate(0 1.83)">
                <path id="Trazado_139807" data-name="Trazado 139807" d="M339.8,381.376l5.579-13.508a6.612,6.612,0,0,0-8.634,3.585l-.532,1.288a6.6,6.6,0,0,0,3.587,8.635Z" transform="translate(-335.71 -367.365)" fill="#ff9d00"/>
                <path id="Trazado_139808" data-name="Trazado 139808" d="M337.854,386.515l7.7-18.641a6.624,6.624,0,0,0-1.9-.473L336.8,383.984A1.938,1.938,0,0,0,337.854,386.515Z" transform="translate(-335.885 -367.372)" fill="#ff9d00"/>
              </g>
              <path id="Trazado_139809" data-name="Trazado 139809" d="M347.33,384.053c1.068.521,2.631.482,3.013-.239.07-.13.182-.451-.123-1.083-1.348-1.954-2.906-3.053-3.857-2.694a1.553,1.553,0,0,0-.852.8,1.845,1.845,0,0,0,.152,1.443,3.957,3.957,0,0,0,.828,1.174l0,0A3.07,3.07,0,0,0,347.33,384.053Z" transform="translate(-337.509 -367.871)" fill="#bf6e55"/>
              <path id="Trazado_139810" data-name="Trazado 139810" d="M348.165,381.916a.314.314,0,0,0,.091-.445c-.429-.637-1.011-.925-1.424-.787a.883.883,0,0,0-.479.48c-.31.74.5,1.626.582,1.718.958,1.026,2.741,1.121,2.94.7.055-.116.016-.325-.37-.736a.319.319,0,0,0-.493.039.568.568,0,0,1-.362.247.777.777,0,0,1-.726-.948A.555.555,0,0,1,348.165,381.916Z" transform="translate(-337.669 -367.997)" fill="#b05d45"/>
            </g>
            <g id="Grupo_87951" data-name="Grupo 87951" transform="translate(0 30.053)">
              <path id="Trazado_139811" data-name="Trazado 139811" d="M336.936,404.217l-9.414-14.39-16.033,1.341A4.747,4.747,0,0,1,308.8,392.6a3.971,3.971,0,0,1-2.743-.508,4.439,4.439,0,0,1-1.873-3.4,39.919,39.919,0,0,0,6.619-.5c6.639-1.066,12.72-3.119,17.082-3.284a6.749,6.749,0,0,1,2.114.238,7.612,7.612,0,0,1,3.422,2.192c1.747,1.8,5.471,6.759,9.9,13.7Z" transform="translate(-304.188 -384.907)" fill="#bf6e55"/>
              <path id="Trazado_139812" data-name="Trazado 139812" d="M345.318,395.276l-6.1,4.916,3.587,6.052,5.174,3.782q.358-.183.661-.377a5.73,5.73,0,0,0,2.195-2.416c.032-.07.055-.127.068-.158a23.889,23.889,0,0,0-.711-3.014A24.682,24.682,0,0,0,345.318,395.276Z" transform="translate(-310.679 -386.828)" fill="#fff"/>
            </g>
          </g>
        </g>
      </g>
      <g id="Grupo_87955" data-name="Grupo 87955" transform="translate(434.324 278.573)">
        <rect id="Rectángulo_32870" data-name="Rectángulo 32870" width="28.651" height="86.024" rx="2.639" transform="translate(0 0)" fill="#ff9d00"/>
        <rect id="Rectángulo_32871" data-name="Rectángulo 32871" width="9.816" height="5.867" transform="translate(9.293 80.157)" fill="#c96740"/>
        <rect id="Rectángulo_32872" data-name="Rectángulo 32872" width="9.816" height="5.867" transform="translate(9.293 0)" fill="#c96740"/>
      </g>
    </g>
    <g id="Grupo_87957" data-name="Grupo 87957" transform="translate(1234.161 4592.97)">
      <g id="Grupo_87361" data-name="Grupo 87361">
        <g id="Grupo_87344" data-name="Grupo 87344" transform="translate(0 42.674)">
          <rect id="Rectángulo_32736" data-name="Rectángulo 32736" width="2.421" height="4.186" transform="translate(5.028 6.274) rotate(-45.667)" fill="#edb485"/>
          <g id="Grupo_87343" data-name="Grupo 87343">
            <path id="Trazado_138918" data-name="Trazado 138918" d="M201.03,62.015a.611.611,0,0,1,.167.849h0a.614.614,0,0,1-.852.17l-3.055-2.044a.619.619,0,0,1-.173-.855h0a.624.624,0,0,1,.855-.173Z" transform="translate(-197.014 -57.143)" fill="#edb485"/>
            <path id="Trazado_138919" data-name="Trazado 138919" d="M201.48,61.625a.615.615,0,0,1,.026.867h0a.615.615,0,0,1-.87.026l-2.677-2.528a.618.618,0,0,1-.023-.87h0a.623.623,0,0,1,.867-.023Z" transform="translate(-195.558 -58.933)" fill="#edb485"/>
            <path id="Trazado_138920" data-name="Trazado 138920" d="M199.991,59.25a.66.66,0,0,0-.718.612l-.24,2.961a2.131,2.131,0,0,0,.911.436c.2.029.574-.4.574-.4l.088-2.894A.662.662,0,0,0,199.991,59.25Z" transform="translate(-193.119 -58.327)" fill="#edb485"/>
            <path id="Trazado_138921" data-name="Trazado 138921" d="M201.112,61.721a.614.614,0,0,1,.088.864h0a.62.62,0,0,1-.864.088l-2.859-2.323a.618.618,0,0,1-.088-.867h0a.619.619,0,0,1,.861-.091Z" transform="translate(-196.557 -58.305)" fill="#edb485"/>
            <path id="Rectángulo_32737" data-name="Rectángulo 32737" d="M.414,0H3.749a.416.416,0,0,1,.416.416V3.754a.416.416,0,0,1-.416.416H.415A.415.415,0,0,1,0,3.754V.414A.414.414,0,0,1,.414,0Z" transform="translate(2.033 4.837) rotate(-50.751)" fill="#edb485"/>
          </g>
        </g>
        <g id="Grupo_87345" data-name="Grupo 87345" transform="translate(5.595 23.848)">
          <path id="Trazado_138922" data-name="Trazado 138922" d="M211.967,84.091a10.893,10.893,0,0,1-3.078.439,13.533,13.533,0,0,1-7.056-2.244c-.275-.176-2.909-2.361-2.909-2.361l3.245-3.694a15.959,15.959,0,0,0,2.238,1.916c3.237,2.012,5.92,2.009,8.7-.012,4.918-3.576,5.741-10.471,5.861-13.272.02-.445.038-.92.05-1.426.1-3.248.228-7.282,1.766-9.777a2.438,2.438,0,0,1,4.148,2.563c-.85,1.385-.967,4.982-1.043,7.367-.012.521-.029,1.016-.05,1.488-.325,7.4-3.2,13.608-7.867,17A13.049,13.049,0,0,1,211.967,84.091Z" transform="translate(-198.924 -52.506)" fill="#81d4fa"/>
        </g>
        <g id="Grupo_87353" data-name="Grupo 87353" transform="translate(31.578 59.853)">
          <rect id="Rectángulo_32738" data-name="Rectángulo 32738" width="2.916" height="2.454" transform="matrix(0.504, -0.864, 0.864, 0.504, 46.154, 46.23)" fill="#cf9b72"/>
          <rect id="Rectángulo_32739" data-name="Rectángulo 32739" width="3.426" height="3.552" transform="matrix(0.504, -0.864, 0.864, 0.504, 47.393, 47.243)" fill="#fff"/>
          <g id="Grupo_87347" data-name="Grupo 87347">
            <g id="Grupo_87346" data-name="Grupo 87346">
              <path id="Trazado_138923" data-name="Trazado 138923" d="M256.215,107.017C239.107,97.5,223.158,83.813,218.5,64.8c-2.75.636-7.944,1.186-10.7,1.819,5.674,21.019,25.852,36.361,45.157,46.455C254.033,111.048,255.128,109.036,256.215,107.017Z" transform="translate(-207.795 -64.798)" fill="#12263f"/>
            </g>
          </g>
          <g id="Grupo_87349" data-name="Grupo 87349">
            <g id="Grupo_87348" data-name="Grupo 87348">
              <path id="Trazado_138924" data-name="Trazado 138924" d="M218.7,74.508c-1.426,1.16-2.827,2.361-4.238,3.541-.436.363-.864.732-1.292,1.1a49.811,49.811,0,0,1-5.378-12.536c2.759-.633,7.952-1.183,10.7-1.819a47.983,47.983,0,0,0,2.616,7.73C220.279,73.146,219.5,73.858,218.7,74.508Z" transform="translate(-207.795 -64.798)" fill="#12263f"/>
              <path id="Trazado_138925" data-name="Trazado 138925" d="M217.569,74.126c-1.122,1.2-2.273,2.375-3.4,3.568-.419.448-.835.9-1.242,1.359q-1.709-2.289-3.187-4.687c.231-.208.463-.41.7-.615,1.394-1.192,2.794-2.387,4.183-3.594.964-.841,1.9-1.778,2.9-2.6a49.237,49.237,0,0,0,2.361,4.637A9.291,9.291,0,0,0,217.569,74.126Z" transform="translate(-204.043 -59.478)" fill="#4fbef0" style="mix-blend-mode: multiply;isolation: isolate"/>
            </g>
          </g>
          <g id="Grupo_87352" data-name="Grupo 87352" transform="translate(47.339 44.831)">
            <g id="Grupo_87351" data-name="Grupo 87351">
              <g id="Grupo_87350" data-name="Grupo 87350">
                <path id="Trazado_138926" data-name="Trazado 138926" d="M229.411,80.6a.632.632,0,0,1,.252.867c-.577,1.043-1.807,3.281-1.807,3.281L225.011,89.9l-.735-.4,4.962-8.992Z" transform="translate(-223.342 -79.333)" fill="#12263f"/>
                <path id="Trazado_138927" data-name="Trazado 138927" d="M224.909,90.268l4.965-8.983-.867-.475V80.8l-1.131-.621a.646.646,0,0,0-.805.152l.07.035a1.2,1.2,0,0,1-1.157,2.1l-.073-.044-1.078,2.293.05.026a.658.658,0,0,1,.313.31.423.423,0,0,1,.038.126,1.113,1.113,0,0,1-.059.571.611.611,0,0,0-.047.117,3.7,3.7,0,0,1-.17.346l-.6,1.09C223.734,88.432,223.778,89.647,224.909,90.268Z" transform="translate(-223.957 -80.104)" fill="#2790bf"/>
              </g>
            </g>
          </g>
        </g>
        <rect id="Rectángulo_32740" data-name="Rectángulo 32740" width="2.448" height="2.913" transform="matrix(0.19, -0.982, 0.982, 0.19, 18.152, 118.673)" fill="#cf9b72"/>
        <rect id="Rectángulo_32741" data-name="Rectángulo 32741" width="3.55" height="3.424" transform="translate(17.387 121.251) rotate(-78.916)" fill="#fff"/>
        <path id="Trazado_138928" data-name="Trazado 138928" d="M217.732,65.162h-6.06v7.671h6.06a3.453,3.453,0,0,0,3.456-3.453V67.233C221.188,65.323,219.642,65.162,217.732,65.162Z" transform="translate(-168.738 -4.243)" fill="#12263f"/>
        <g id="Grupo_87355" data-name="Grupo 87355" transform="translate(16.614 58.391)">
          <g id="Grupo_87354" data-name="Grupo 87354">
            <path id="Trazado_138929" data-name="Trazado 138929" d="M209.473,123.308c3.357-19.282,11.034-38.842,27.457-49.5-1.506-2.393-3.732-7.115-5.243-9.5-17.979,12.273-25.823,36.373-29,57.922Q206.082,122.762,209.473,123.308Z" transform="translate(-202.686 -64.299)" fill="#12263f"/>
          </g>
        </g>
        <path id="Trazado_138930" data-name="Trazado 138930" d="M206.5,55.919,210.578,94.3a1.491,1.491,0,0,0,1.608,1.374l17.823-1.886a1.5,1.5,0,0,0,1.283-1.684l-4.071-38.388a1.491,1.491,0,0,0-1.611-1.371l-2.721-.2-6.869-.492-8.3,2.528a1.792,1.792,0,0,0-1.183,1.2A1.586,1.586,0,0,0,206.5,55.919Z" transform="translate(-178.727 -30.295)" fill="#2790bf"/>
        <path id="Trazado_138931" data-name="Trazado 138931" d="M209.609,60.666a2.617,2.617,0,0,0,2.879,2.326h0a2.615,2.615,0,0,0,2.326-2.876l-.905-8.556a2.615,2.615,0,0,0-2.876-2.323h0a2.617,2.617,0,0,0-2.329,2.879Z" transform="translate(-174.492 -34.992)" fill="#d69b6b"/>
        <path id="Trazado_138932" data-name="Trazado 138932" d="M208.408,53.9c-.466-4.391,1.948-8.884,5.471-9.256s6.825,3.509,7.29,7.9-2.012,8.254-5.539,8.626S208.874,58.29,208.408,53.9Z" transform="translate(-175.145 -43.873)" fill="#2a2626"/>
        <path id="Trazado_138933" data-name="Trazado 138933" d="M207.358,58.774a6.436,6.436,0,0,0,7.071,5.718h0a6.435,6.435,0,0,0,5.715-7.077l-.712-6.71a6.426,6.426,0,0,0-7.071-5.712h0a6.423,6.423,0,0,0-5.715,7.068Z" transform="translate(-178.503 -43.22)" fill="#edb485"/>
        <path id="Trazado_138934" data-name="Trazado 138934" d="M211.277,50.748a.245.245,0,0,1-.22.272l-2.774.313a.252.252,0,0,1-.275-.217h0a.251.251,0,0,1,.217-.275l2.78-.31a.243.243,0,0,1,.272.217Z" transform="translate(-175.809 -32.47)" fill="#2a2626"/>
        <path id="Trazado_138935" data-name="Trazado 138935" d="M207.518,45.284a19.829,19.829,0,0,1,5.264-.9c6.283-.346,8.951,4.35,9.124,5.94l-2.03-1.213c.167,1.585-4.771,1.927-6.362,2.1l-5.3.562Z" transform="translate(-176.751 -44.364)" fill="#2a2626"/>
        <path id="Trazado_138936" data-name="Trazado 138936" d="M211.978,52.281a1.184,1.184,0,0,0,1.054-1.306l-.322-3.026a1.185,1.185,0,0,0-1.309-1.054h0a1.182,1.182,0,0,0-1.046,1.3l.316,3.032a1.191,1.191,0,0,0,1.306,1.052Z" transform="translate(-171.291 -39.495)" fill="#2a2626"/>
        <path id="Trazado_138937" data-name="Trazado 138937" d="M215.194,50.763a1.855,1.855,0,0,0-2.083-1.5l-4.93.521-.369-3.456,9.5-1.008.668,6.3-2.7-.02Z" transform="translate(-176.182 -42.512)" fill="#2a2626"/>
        <path id="Trazado_138938" data-name="Trazado 138938" d="M211.185,52.337c.744.316,1.746-.375,2.232-1.538s.272-2.355-.472-2.668-1.743.375-2.232,1.538S210.438,52.027,211.185,52.337Z" transform="translate(-171.092 -37.24)" fill="#edb485"/>
        <path id="Trazado_138939" data-name="Trazado 138939" d="M205.629,48.962a3.454,3.454,0,0,1,3.07-3.8l7.3-.776a3.454,3.454,0,0,1,3.8,3.073h0a3.447,3.447,0,0,1-3.07,3.8l-7.3.773a3.449,3.449,0,0,1-3.8-3.067Z" transform="translate(-180.433 -44.357)" fill="#2a2626"/>
        <g id="Grupo_87358" data-name="Grupo 87358" transform="translate(10.902 119.266)">
          <g id="Grupo_87357" data-name="Grupo 87357">
            <g id="Grupo_87356" data-name="Grupo 87356">
              <path id="Trazado_138940" data-name="Trazado 138940" d="M210.961,87.654a.636.636,0,0,1-.735.518c-1.175-.2-3.7-.627-3.7-.627l-5.794-1,.144-.826,10.114,1.728Z" transform="translate(-200.736 -83.844)" fill="#2a2626"/>
              <path id="Trazado_138941" data-name="Trazado 138941" d="M200.784,86.983,210.9,88.708l.167-.967v0l.22-1.271a.638.638,0,0,0-.413-.706l-.009.07a1.2,1.2,0,1,1-2.358-.4l.012-.085L206,85.082l-.009.059a.706.706,0,0,1-.19.4.5.5,0,0,1-.1.073,1.064,1.064,0,0,1-.559.132c-.044,0-.091,0-.135-.006a2.386,2.386,0,0,1-.375-.044l-1.221-.208C202.131,85.269,201,85.712,200.784,86.983Z" transform="translate(-200.643 -85.082)" fill="#2a2626"/>
            </g>
          </g>
        </g>
        <g id="Grupo_87360" data-name="Grupo 87360" transform="translate(29.378 11.166)">
          <g id="Grupo_87359" data-name="Grupo 87359">
            <path id="Trazado_138942" data-name="Trazado 138942" d="M208.721,49.143a.726.726,0,1,0,.612-.964A.817.817,0,0,0,208.721,49.143Z" transform="translate(-203.82 -48.176)" fill="#2a2626"/>
            <path id="Trazado_138943" data-name="Trazado 138943" d="M207.05,49.318a.725.725,0,1,0,.606-.961A.811.811,0,0,0,207.05,49.318Z" transform="translate(-207.044 -47.833)" fill="#2a2626"/>
          </g>
          <path id="Trazado_138944" data-name="Trazado 138944" d="M208.039,50.769a.76.76,0,0,0,.829.674h0a.758.758,0,0,0,.671-.832l-.111-1.046a.755.755,0,0,0-.829-.668h0a.753.753,0,0,0-.668.829Z" transform="translate(-205.341 -46.792)" fill="#d69b6b"/>
        </g>
      </g>
      <g id="Grupo_87368" data-name="Grupo 87368" transform="translate(40.411 21.962)">
        <path id="Trazado_138945" data-name="Trazado 138945" d="M213.8,70.843a.639.639,0,0,0,.9.138l2.311-1.7a2.035,2.035,0,0,0-.258-.94c-.1-.155-.647-.164-.647-.164l-2.17,1.769A.642.642,0,0,0,213.8,70.843Z" transform="translate(-205.277 -20.392)" fill="#edb485"/>
        <g id="Grupo_87363" data-name="Grupo 87363" transform="translate(0 49.068)">
          <path id="Trazado_138946" data-name="Trazado 138946" d="M213.239,68.614v5.421h1.209V69.868h7.683v4.166h1.21V68.614Z" transform="translate(-206.125 -68.614)" fill="#12263f"/>
          <g id="Grupo_87362" data-name="Grupo 87362" transform="translate(1.565 2.836)">
            <rect id="Rectángulo_32742" data-name="Rectángulo 32742" width="3.005" height="0.764" fill="#2a2626"/>
            <rect id="Rectángulo_32743" data-name="Rectángulo 32743" width="3.005" height="0.764" transform="translate(18.192)" fill="#2a2626"/>
          </g>
          <rect id="Rectángulo_32744" data-name="Rectángulo 32744" width="24.331" height="16.782" transform="translate(0 3.208)" fill="#ff9d00"/>
          <path id="Trazado_138947" data-name="Trazado 138947" d="M221.4,73.554h-2.305V71.249h-3.148v2.305h-2.308V76.7h2.308v2.307h3.148V76.7H221.4Z" transform="translate(-205.355 -63.53)" fill="#fff"/>
          <path id="Trazado_138948" data-name="Trazado 138948" d="M218.85,82.365a5.9,5.9,0,1,1,5.905-5.9A5.91,5.91,0,0,1,218.85,82.365Zm0-11.368a5.466,5.466,0,1,0,5.469,5.463A5.466,5.466,0,0,0,218.85,71Z" transform="translate(-206.687 -64.863)" fill="#fdfffe"/>
          <path id="Trazado_138949" data-name="Trazado 138949" d="M211.87,86.491V70.769h23.271v-1.06H210.81V86.491Z" transform="translate(-210.81 -66.501)" fill="#12263f"/>
          <path id="Trazado_138950" data-name="Trazado 138950" d="M234.079,70.071V84.729H210.81v1.064h24.331V70.071Z" transform="translate(-210.81 -65.803)" fill="#12263f"/>
        </g>
        <g id="Grupo_87367" data-name="Grupo 87367" transform="translate(4.137)">
          <g id="Grupo_87365" data-name="Grupo 87365" transform="translate(5.333 44.433)">
            <rect id="Rectángulo_32745" data-name="Rectángulo 32745" width="4.038" height="2.336" transform="translate(2.11 3.7) rotate(-66.404)" fill="#edb485"/>
            <g id="Grupo_87364" data-name="Grupo 87364" transform="translate(0 2.76)">
              <path id="Rectángulo_32746" data-name="Rectángulo 32746" d="M.424,0H3.853a.426.426,0,0,1,.426.426V3.851a.426.426,0,0,1-.426.426H.425A.425.425,0,0,1,0,3.851V.424A.424.424,0,0,1,.424,0Z" transform="translate(0 4.055) rotate(-71.351)" fill="#edb485"/>
            </g>
          </g>
          <g id="Grupo_87366" data-name="Grupo 87366">
            <path id="Trazado_138951" data-name="Trazado 138951" d="M219.215,98.071a45.834,45.834,0,0,0,2.25-9.93,61.5,61.5,0,0,0,.208-17.384c-.507-3.234-2.95-12.115-8.052-14.39a2.352,2.352,0,0,1,1.91-4.3c8.468,3.77,10.7,17.381,10.794,17.952,1.169,7.411.3,15.451-.313,19.59a66.571,66.571,0,0,1-1.517,7.463,21.561,21.561,0,0,1-.97,2.888Z" transform="translate(-212.223 -51.862)" fill="#81d4fa"/>
          </g>
        </g>
      </g>
    </g>
  </g>
</svg>
