<svg xmlns="http://www.w3.org/2000/svg" xmlns:xlink="http://www.w3.org/1999/xlink" width="104.852" height="104.852" viewBox="0 0 104.852 104.852">
  <defs>
    <radialGradient id="radial-gradient" cx="0.076" cy="0.019" r="1.465" gradientTransform="translate(0.001)" gradientUnits="objectBoundingBox">
      <stop offset="0" stop-color="#f6f6f7"/>
      <stop offset="0.477" stop-color="#f9f9fa"/>
      <stop offset="0.715" stop-color="#fff"/>
    </radialGradient>
  </defs>
  <g id="Grupo_50460" data-name="Grupo 50460" transform="translate(-217 -997)">
    <g id="Grupo_18531" data-name="Grupo 18531" transform="translate(217 997)">
      <g id="Grupo_18423" data-name="Grupo 18423" transform="translate(0 0)">
        <g id="Grupo_18421" data-name="Grupo 18421">
          <g id="Grupo_18420" data-name="Grupo 18420">
            <g id="Grupo_18419" data-name="Grupo 18419">
              <path id="Trazado_40936" data-name="Trazado 40936" d="M299.475,2198.146a52.426,52.426,0,1,1-52.425-52.424A52.425,52.425,0,0,1,299.475,2198.146Z" transform="translate(-194.623 -2145.721)" fill="#fff"/>
            </g>
          </g>
        </g>
        <path id="Trazado_40937" data-name="Trazado 40937" d="M298.99,2197.617a52.425,52.425,0,1,0-52.425,52.427A52.219,52.219,0,0,0,298.99,2197.617Z" transform="translate(-194.138 -2145.192)" fill="url(#radial-gradient)"/>
        <path id="Trazado_40938" data-name="Trazado 40938" d="M282.3,2193.357a40.016,40.016,0,1,0-40.016,40.016A39.868,39.868,0,0,0,282.3,2193.357Z" transform="translate(-189.698 -2140.758)" fill="none" stroke="#7d6eb2" stroke-miterlimit="10" stroke-width="4"/>
        <g id="Grupo_18422" data-name="Grupo 18422" transform="translate(9.288 29.433)">
          <path id="Trazado_40939" data-name="Trazado 40939" d="M290.808,2164.488a52.432,52.432,0,0,1-90.263,52.208,52.266,52.266,0,0,0,90.263-52.208Z" transform="translate(-200.545 -2164.488)" fill="#eceef0"/>
        </g>
      </g>
    </g>
    <g id="uDOxg2" transform="translate(2916.291 -18.071)">
      <g id="Grupo_87868" data-name="Grupo 87868" transform="translate(-2668.562 1038.51)">
        <path id="Trazado_139640" data-name="Trazado 139640" d="M-2656.852,1147c-1.248,1.283-2.486,2.422-3.544,3.708a5.331,5.331,0,0,0-.71,2.086c-.342,1.39-.632,2.793-.944,4.19-.019.086-.036.173-.059.259a3.256,3.256,0,0,1-5.578,1.584,2.478,2.478,0,0,1-.84-2.3,27.121,27.121,0,0,1,2.089-7.754,21.2,21.2,0,0,1,4.878-6.424c1.287-1.16,2.543-2.355,3.8-3.552a.535.535,0,0,1,.678-.147,7.577,7.577,0,0,0,8.962-2.371.524.524,0,0,1,.746-.184c2.9,1.212,5.82,2.4,8.726,3.6a2.209,2.209,0,0,0,1.888-.063c2.165-1.005,4.34-1.987,6.515-2.969a5.644,5.644,0,0,1,1-.351,2.957,2.957,0,0,1,3.6,1.773,2.827,2.827,0,0,1-1.169,3.776c-1.305.769-2.713,1.366-4.083,2.025-1.482.713-2.973,1.406-4.458,2.114a5.823,5.823,0,0,1-4.885.081l-2.328-.937c.02.225.018.376.048.521q.474,2.339.958,4.677c.139.678.2.732.881.673,2.412-.209,4.824-.412,7.234-.643a8.6,8.6,0,0,1,6.585,2.085q3.337,2.791,6.675,5.58a4.82,4.82,0,0,1,1.552,2.045,2.883,2.883,0,0,1-.573,3.021,2.927,2.927,0,0,1-2.9,1.052,5.479,5.479,0,0,1-2.342-1.185c-1.99-1.5-3.994-2.986-5.985-4.487a1.4,1.4,0,0,0-1.083-.282c-1.493.176-2.989.319-4.484.477-.114.012-.225.047-.489.1.855.484,1.573.924,2.321,1.307a3.984,3.984,0,0,1,2.1,2.419,88.031,88.031,0,0,1,3.159,12.864,3.1,3.1,0,0,1-3.277,3.793,2.248,2.248,0,0,1-2.151-1.112,12.326,12.326,0,0,1-1.081-2.52c-.713-2.425-1.358-4.87-2-7.314a2.344,2.344,0,0,0-1.122-1.519c-3.169-1.9-6.31-3.85-9.48-5.749a16.817,16.817,0,0,1-7.289-8.878c-.549-1.488-.923-3.04-1.376-4.562C-2656.723,1147.4-2656.76,1147.293-2656.852,1147Zm4.929-1.37a.837.837,0,0,0-.846,1.135c.661,1.917,1.33,3.832,2.039,5.732a7.943,7.943,0,0,0,3.816,4.028.832.832,0,0,0,1.161-.268.829.829,0,0,0-.233-1.128,1.975,1.975,0,0,0-.308-.2,6.6,6.6,0,0,1-3.117-3.6c-.181-.5-.4-.982-.566-1.483-.392-1.153-.771-2.31-1.145-3.468A.919.919,0,0,0-2651.923,1145.633Zm8.845,12.318a.858.858,0,0,0-.831-.854.856.856,0,0,0-.854.831.855.855,0,0,0,.831.853A.853.853,0,0,0-2643.078,1157.951Z" transform="translate(2668.562 -1125.668)" fill="#12263f"/>
        <path id="Trazado_139641" data-name="Trazado 139641" d="M-2588.459,1044.409a5.894,5.894,0,0,1,5.961-5.9,5.917,5.917,0,0,1,5.934,5.883,6.018,6.018,0,0,1-6.014,6.006A5.921,5.921,0,0,1-2588.459,1044.409Z" transform="translate(2596.962 -1038.51)" fill="#12263f"/>
        <path id="Trazado_139642" data-name="Trazado 139642" d="M-2581.6,1504.179q-4.8,0-9.6,0a2.1,2.1,0,0,1-.526-.033.791.791,0,0,1-.64-.805.788.788,0,0,1,.62-.82,1.946,1.946,0,0,1,.525-.042q9.652,0,19.3,0c.124,0,.248-.005.371.006a.839.839,0,0,1,.825.861.825.825,0,0,1-.858.827c-.689.019-1.379.007-2.068.007Z" transform="translate(2600.456 -1453.223)" fill="#12263f"/>
        <path id="Trazado_139643" data-name="Trazado 139643" d="M-2658,1470.454h9.174a2.51,2.51,0,0,1,.528.023.8.8,0,0,1,.695.866.8.8,0,0,1-.715.8,2.236,2.236,0,0,1-.423.015H-2667.2c-.071,0-.141,0-.212,0-.627-.016-1-.338-.989-.859s.372-.84,1.01-.841Q-2662.695,1470.449-2658,1470.454Z" transform="translate(2668.416 -1424.598)" fill="#12263f"/>
        <path id="Trazado_139644" data-name="Trazado 139644" d="M-2657.925,1534.454h9.121a2.427,2.427,0,0,1,.528.023.8.8,0,0,1,.689.871.8.8,0,0,1-.72.793,2.27,2.27,0,0,1-.423.014h-18.455a3.657,3.657,0,0,1-.424-.009.815.815,0,0,1-.769-.856.806.806,0,0,1,.749-.822,3.488,3.488,0,0,1,.529-.014Z" transform="translate(2668.398 -1481.804)" fill="#12263f"/>
        <path id="Trazado_139645" data-name="Trazado 139645" d="M-2216.5,1250.16c-.278-.231-.611-.375-.686-.6a1.23,1.23,0,0,1,.089-.927c.552-.883,1.176-1.722,1.773-2.576.719-1.029,1.431-2.062,2.16-3.084a.864.864,0,0,1,1.464-.127.833.833,0,0,1-.016,1.037c-1.337,1.912-2.67,3.828-4.027,5.726A3.28,3.28,0,0,1-2216.5,1250.16Z" transform="translate(2265.146 -1220.838)" fill="#12263f"/>
        <path id="Trazado_139646" data-name="Trazado 139646" d="M-2197.961,1306.7a1.8,1.8,0,0,1-.451.539c-1.048.621-2.117,1.208-3.19,1.786a.843.843,0,0,1-1.187-.331.841.841,0,0,1,.356-1.141c1.073-.615,2.151-1.221,3.247-1.792C-2198.595,1305.454-2197.951,1305.879-2197.961,1306.7Z" transform="translate(2252.323 -1277.302)" fill="#12263f"/>
        <path id="Trazado_139647" data-name="Trazado 139647" d="M-2241.556,1254.245c-.018.076-.039.2-.077.315-.318.99-.633,1.982-.961,2.969a.86.86,0,0,1-1.083.661.86.86,0,0,1-.527-1.193c.321-1.026.645-2.052.991-3.07a.829.829,0,0,1,1-.575A.856.856,0,0,1-2241.556,1254.245Z" transform="translate(2289.31 -1230.525)" fill="#12263f"/>
      </g>
    </g>
  </g>
</svg>
