<svg xmlns="http://www.w3.org/2000/svg" xmlns:xlink="http://www.w3.org/1999/xlink" width="104.852" height="104.852" viewBox="0 0 104.852 104.852">
  <defs>
    <radialGradient id="radial-gradient" cx="0.076" cy="0.019" r="1.465" gradientTransform="translate(0.001)" gradientUnits="objectBoundingBox">
      <stop offset="0" stop-color="#f6f6f7"/>
      <stop offset="0.477" stop-color="#f9f9fa"/>
      <stop offset="0.715" stop-color="#fff"/>
    </radialGradient>
  </defs>
  <g id="Grupo_50460" data-name="Grupo 50460" transform="translate(-217 -997)">
    <g id="Grupo_18531" data-name="Grupo 18531" transform="translate(217 997)">
      <g id="Grupo_18423" data-name="Grupo 18423" transform="translate(0 0)">
        <g id="Grupo_18421" data-name="Grupo 18421">
          <g id="Grupo_18420" data-name="Grupo 18420">
            <g id="Grupo_18419" data-name="Grupo 18419">
              <path id="Trazado_40936" data-name="Trazado 40936" d="M299.475,2198.146a52.426,52.426,0,1,1-52.425-52.424A52.425,52.425,0,0,1,299.475,2198.146Z" transform="translate(-194.623 -2145.721)" fill="#fff"/>
            </g>
          </g>
        </g>
        <path id="Trazado_40937" data-name="Trazado 40937" d="M298.99,2197.617a52.425,52.425,0,1,0-52.425,52.427A52.219,52.219,0,0,0,298.99,2197.617Z" transform="translate(-194.138 -2145.192)" fill="url(#radial-gradient)"/>
        <path id="Trazado_40938" data-name="Trazado 40938" d="M282.3,2193.357a40.016,40.016,0,1,0-40.016,40.016A39.868,39.868,0,0,0,282.3,2193.357Z" transform="translate(-189.698 -2140.758)" fill="none" stroke="#7d6eb2" stroke-miterlimit="10" stroke-width="4"/>
        <g id="Grupo_18422" data-name="Grupo 18422" transform="translate(9.288 29.433)">
          <path id="Trazado_40939" data-name="Trazado 40939" d="M290.808,2164.488a52.432,52.432,0,0,1-90.263,52.208,52.266,52.266,0,0,0,90.263-52.208Z" transform="translate(-200.545 -2164.488)" fill="#eceef0"/>
        </g>
      </g>
    </g>
    <g id="Htfk6W" transform="translate(3406.604 15.897)">
      <g id="Grupo_87870" data-name="Grupo 87870" transform="translate(-3160.733 1006.992)">
        <path id="Trazado_139655" data-name="Trazado 139655" d="M-3136.711,1166.521q-6.793,0-13.585-.007a5.654,5.654,0,0,1-1.473-.169,2.327,2.327,0,0,1-1.743-2.7,2.4,2.4,0,0,1,2.378-2.185c1.024-.073,2.055-.051,3.083-.048,2.488.007,4.976.027,7.463.042a1.265,1.265,0,0,0,1.173-1.068,1.177,1.177,0,0,0-1.171-.928c-5.009.025-10.018.062-15.027.043a4.866,4.866,0,0,1-1.951-.485,2.231,2.231,0,0,1-1.311-2.407,2.2,2.2,0,0,1,1.723-2.019,7.322,7.322,0,0,1,1.909-.26c4.13-.033,8.26-.029,12.389-.051a1.556,1.556,0,0,0,.793-.192.727.727,0,0,0,.364-.9,1.05,1.05,0,0,0-1.021-.729c-2.189,0-4.378-.021-6.568-.026-2.7-.005-5.407,0-8.11-.006a3.9,3.9,0,0,1-2.223-.61,2.372,2.372,0,0,1,.028-4.039,4.169,4.169,0,0,1,2.372-.607q3.134.015,6.269.026,3.707.01,7.414.007a4.984,4.984,0,0,0,1.037-.093,1.013,1.013,0,0,0,.834-1.074,1.042,1.042,0,0,0-1.155-.776q-3.632.032-7.264.02c-1.558-.006-3.123.034-4.672-.1a2.432,2.432,0,0,1-2.164-3.4,2.706,2.706,0,0,1,2.533-1.627c.692-.056,1.392-.022,2.089-.01a.628.628,0,0,1,.4.141,8.543,8.543,0,0,0,4.233,2.166,20.463,20.463,0,0,0,5.045.746,9.335,9.335,0,0,0,6.035-2.348,2.482,2.482,0,0,1,1.855-.7c1.737.075,3.477.058,5.217.058.155,0,.434-.142.439-.231a.681.681,0,0,0-.227-.509c-1.276-.978-2.565-1.937-3.859-2.891a.527.527,0,0,1-.234-.63,11.2,11.2,0,0,0,.1-4.592c-.078-.448.055-.624.48-.712a4.213,4.213,0,0,1,3.3.758c1.792,1.2,3.571,2.413,5.373,3.6,1.745,1.147,3.485,2.3,5.274,3.382a15.079,15.079,0,0,1,7.172,8.8,19.622,19.622,0,0,1-.026,11.427,10.456,10.456,0,0,1-8.641,7.571,19.64,19.64,0,0,1-3.509.314c-4.279.036-8.559.014-12.838.014Z" transform="translate(3160.733 -1118.262)" fill="#12263f"/>
        <path id="Trazado_139656" data-name="Trazado 139656" d="M-3070.784,1024c-.55-.615-1.075-.526-1.485.176-.337.577-.583,1.256-1.268,1.549a1.285,1.285,0,0,1-.439.02c.011-.141.012-.284.036-.423.082-.481.154-.965.269-1.438.031-.127.2-.22.4-.419-.283-.823.316-1.626.595-2.475a5.6,5.6,0,0,0-.254-4.132c-.053-.122-.23-.189-.4-.319-.133.431-.228.788-.352,1.134a5.816,5.816,0,0,1-2.084,2.454A20.943,20.943,0,0,0-3077.6,1022c-.2.214-.418.422-.6.651a3.152,3.152,0,0,0-.333.537c-.076.145-.077.377-.188.446-.527.327-.354.832-.4,1.294-.048.527-.189,1.049-.2,1.575-.016.773.048,1.548.08,2.352-.6.262-1.084-.146-1.521-.512a8.514,8.514,0,0,1-1.332-1.381,8.466,8.466,0,0,1-1.793-6.139l.059.444.091,0c.018-.322.044-.645.046-.967,0-.073-.14-.164-.124-.217.278-.875.568-1.746.863-2.616.142-.42.273-.848.455-1.251.228-.5.5-.986.756-1.477.015-.029.026-.068.051-.085.852-.581.693-1.641,1.145-2.412.118-.2.229-.407.343-.611l.145.025q.062.267.124.535l.055-.055c.086.09.21.165.252.272a6.45,6.45,0,0,1,.173,3.216c-.144,1.179-.185,2.371-.239,3.558-.007.146.176.3.271.453a3.324,3.324,0,0,0,.443-.3c.276-.253.541-.52.8-.794a.543.543,0,0,0,.138-.3c.089-1.135.195-2.27.237-3.407a12.769,12.769,0,0,0-.109-1.882,6.873,6.873,0,0,1,1.27-5.1,1.856,1.856,0,0,1,1.174-.861c.015.286.013.527.042.764a15.789,15.789,0,0,0,1.909,5.964c.221.389.389.915.732,1.1.381.206.967.473,1.393.1a1.965,1.965,0,0,0,.58-1.063c.14-.776.083-1.59.249-2.358a11.237,11.237,0,0,1,.748-1.842c.878,2.152,1.715,4.165,2.513,6.193a5.1,5.1,0,0,1,.164,1.159c.014.1.043.29.069.29.43.012.394.393.463.629a14.34,14.34,0,0,1,.5,5.211,6.292,6.292,0,0,1-.737,2.592,7.582,7.582,0,0,1-1.376,1.989,9.3,9.3,0,0,1-1.021.83,1.839,1.839,0,0,1-.587.153c.083-.621.145-1.113.216-1.6a4.2,4.2,0,0,0-.434-1.992,5.824,5.824,0,0,1-.157-.808l.125-.045-.726-.267v-.7a4.135,4.135,0,0,0-.62.007,3.456,3.456,0,0,0-.546.177C-3071.172,1023.393-3071,1023.459-3070.784,1024Zm1.513,2.562-.086-.032v1.539h.086Z" transform="translate(3091.575 -1006.992)" fill="#12263f"/>
        <path id="Trazado_139657" data-name="Trazado 139657" d="M-2962.578,1171.381c-.218-.536-.388-.6-1.185-.519a3.444,3.444,0,0,1,.546-.177,4.127,4.127,0,0,1,.62-.007v.7Z" transform="translate(2983.369 -1154.378)" fill="#12263f"/>
        <path id="Trazado_139658" data-name="Trazado 139658" d="M-2937.431,1203.262v1.5h-.085v-1.539Z" transform="translate(2959.735 -1183.697)" fill="#12263f"/>
      </g>
    </g>
  </g>
</svg>
