<svg xmlns="http://www.w3.org/2000/svg" xmlns:xlink="http://www.w3.org/1999/xlink" width="1041.042" height="238" viewBox="0 0 1041.042 238">
  <defs>
    <radialGradient id="radial-gradient" cx="0.076" cy="0.019" r="1.465" gradientTransform="translate(0.001)" gradientUnits="objectBoundingBox">
      <stop offset="0" stop-color="#f6f6f7"/>
      <stop offset="0.477" stop-color="#f9f9fa"/>
      <stop offset="0.715" stop-color="#fff"/>
    </radialGradient>
  </defs>
  <g id="Grupo_88457" data-name="Grupo 88457" transform="translate(-270.979 -2878)">
    <g id="Grupo_77971" data-name="Grupo 77971" transform="translate(-4 -1375)">
      <path id="Trazado_139666" data-name="Trazado 139666" d="M28.835,0H214.206c15.925,0,28.835,15.67,28.835,35V238H28.835C12.91,238,0,222.33,0,203V35C0,15.67,12.91,0,28.835,0Z" transform="translate(274.979 4253)" fill="#e6f7fe"/>
      <path id="Trazado_140902" data-name="Trazado 140902" d="M36.452,12.667a4.673,4.673,0,0,1-.721,2.36,4.35,4.35,0,0,1-1.85,1.586,6.3,6.3,0,0,1-2.72.563,5.025,5.025,0,0,1-3.973-1.644,6.786,6.786,0,0,1-1.45-4.641v-.633a7.746,7.746,0,0,1,.655-3.292,4.961,4.961,0,0,1,1.885-2.18,5.26,5.26,0,0,1,2.848-.769A5.516,5.516,0,0,1,34.87,5.245a4.844,4.844,0,0,1,1.608,3.379H33.4a2.292,2.292,0,0,0-.589-1.679,2.422,2.422,0,0,0-1.687-.51,1.843,1.843,0,0,0-1.687.861,5.536,5.536,0,0,0-.562,2.751v.905a6.126,6.126,0,0,0,.514,2.927,1.882,1.882,0,0,0,1.771.879,2.369,2.369,0,0,0,1.626-.5,2.126,2.126,0,0,0,.6-1.591ZM40.67,8.51a3.251,3.251,0,0,1,4.8-.264A4.186,4.186,0,0,1,46.287,11v6H43.316V11.067a1.674,1.674,0,0,0-.308-1.112A1.322,1.322,0,0,0,41.962,9.6a1.424,1.424,0,0,0-1.292.58V17H37.708V3.5H40.67Zm6.891,3.647a5.613,5.613,0,0,1,.554-2.536,3.96,3.96,0,0,1,1.591-1.709,4.791,4.791,0,0,1,2.435-.6,4.373,4.373,0,0,1,3.366,1.323,5.076,5.076,0,0,1,1.23,3.6v.105A4.925,4.925,0,0,1,55.5,15.871a4.384,4.384,0,0,1-3.344,1.305A4.434,4.434,0,0,1,48.9,15.958a4.761,4.761,0,0,1-1.327-3.3Zm2.962.185a3.538,3.538,0,0,0,.413,1.934,1.376,1.376,0,0,0,1.222.615q1.582,0,1.617-2.435v-.3q0-2.558-1.635-2.558-1.485,0-1.608,2.206Zm7.146-.193A5.709,5.709,0,0,1,58.653,8.6a3.233,3.233,0,0,1,2.716-1.283,2.761,2.761,0,0,1,2.338,1.2l.211-1.02h2.566V20.656H63.513V16.209a2.757,2.757,0,0,1-2.162.967,3.2,3.2,0,0,1-2.685-1.305A6.027,6.027,0,0,1,57.668,12.148Zm2.962.185q0,2.558,1.477,2.558a1.43,1.43,0,0,0,1.406-.773V10.355A1.4,1.4,0,0,0,62.125,9.6q-1.38,0-1.485,2.206Zm13.192,3.639a3.054,3.054,0,0,1-2.54,1.2,3,3,0,0,1-2.369-.91,3.826,3.826,0,0,1-.8-2.615V7.49h2.962v6.179a1.065,1.065,0,0,0,1.187,1.222,1.548,1.548,0,0,0,1.45-.729V7.49h2.979V17H73.911Zm9.088,1.2a4.889,4.889,0,0,1-3.542-1.305,4.507,4.507,0,0,1-1.354-3.4v-.246a5.84,5.84,0,0,1,.541-2.575,3.955,3.955,0,0,1,1.578-1.727,4.763,4.763,0,0,1,2.461-.611,4.117,4.117,0,0,1,3.164,1.244,4.887,4.887,0,0,1,1.16,3.467v1.151H81.03a2.135,2.135,0,0,0,.694,1.257,2.066,2.066,0,0,0,1.389.457,2.662,2.662,0,0,0,2.2-.984l1.354,1.6a3.784,3.784,0,0,1-1.569,1.217A5.3,5.3,0,0,1,82.911,17.176ZM82.577,9.6q-1.3,0-1.547,1.723h2.988v-.229a1.467,1.467,0,0,0-.36-1.1A1.434,1.434,0,0,0,82.577,9.6Zm9.642,2.558a5.613,5.613,0,0,1,.554-2.536,3.96,3.96,0,0,1,1.591-1.709,4.791,4.791,0,0,1,2.435-.6,4.373,4.373,0,0,1,3.366,1.323,5.076,5.076,0,0,1,1.23,3.6v.105a4.925,4.925,0,0,1-1.235,3.529,4.384,4.384,0,0,1-3.344,1.305,4.434,4.434,0,0,1-3.261-1.217,4.761,4.761,0,0,1-1.327-3.3Zm2.962.185a3.538,3.538,0,0,0,.413,1.934,1.376,1.376,0,0,0,1.222.615q1.582,0,1.617-2.435v-.3Q98.432,9.6,96.8,9.6q-1.485,0-1.608,2.206ZM36.46,39.891a1.317,1.317,0,0,0,.967-.338,1.241,1.241,0,0,0,.334-.945h2.777a3.288,3.288,0,0,1-1.121,2.566,4.168,4.168,0,0,1-2.887,1,4.22,4.22,0,0,1-3.27-1.3,5.125,5.125,0,0,1-1.2-3.6v-.123A5.792,5.792,0,0,1,32.6,34.6a3.872,3.872,0,0,1,1.534-1.7,4.573,4.573,0,0,1,2.373-.593,4.116,4.116,0,0,1,2.944,1.028,3.647,3.647,0,0,1,1.09,2.786H37.761A1.626,1.626,0,0,0,37.4,35a1.244,1.244,0,0,0-.967-.4q-1.151,0-1.345,1.468a10.357,10.357,0,0,0-.062,1.283,4.068,4.068,0,0,0,.343,1.986A1.187,1.187,0,0,0,36.46,39.891Zm4.957-2.733a5.613,5.613,0,0,1,.554-2.536,3.96,3.96,0,0,1,1.591-1.709,4.791,4.791,0,0,1,2.435-.6,4.373,4.373,0,0,1,3.366,1.323,5.076,5.076,0,0,1,1.23,3.6v.105a4.925,4.925,0,0,1-1.235,3.529,4.384,4.384,0,0,1-3.344,1.305,4.434,4.434,0,0,1-3.261-1.217,4.761,4.761,0,0,1-1.327-3.3Zm2.962.185a3.538,3.538,0,0,0,.413,1.934,1.376,1.376,0,0,0,1.222.615q1.582,0,1.617-2.435v-.3Q47.631,34.6,46,34.6q-1.485,0-1.608,2.206ZM55.023,42H52.052V28.5h2.971Zm4.948,0H57V32.49h2.971ZM56.825,30.029a1.334,1.334,0,0,1,.457-1.043,1.934,1.934,0,0,1,2.373,0,1.42,1.42,0,0,1,0,2.087,1.934,1.934,0,0,1-2.373,0A1.334,1.334,0,0,1,56.825,30.029Zm9.949,9.3a.684.684,0,0,0-.4-.606,6.016,6.016,0,0,0-1.5-.475,6.853,6.853,0,0,1-1.828-.646,3.062,3.062,0,0,1-1.1-.971,2.319,2.319,0,0,1-.378-1.31,2.628,2.628,0,0,1,1.081-2.158,4.453,4.453,0,0,1,2.83-.848,4.934,4.934,0,0,1,3.023.853,2.666,2.666,0,0,1,1.143,2.241H66.677q0-1.143-1.2-1.143a1.194,1.194,0,0,0-.782.259.8.8,0,0,0-.316.646.737.737,0,0,0,.387.642,3.654,3.654,0,0,0,1.235.4,10.671,10.671,0,0,1,1.49.378A2.706,2.706,0,0,1,69.63,39.24a2.491,2.491,0,0,1-1.156,2.118,5.068,5.068,0,0,1-2.993.817,5.172,5.172,0,0,1-2.18-.439,3.645,3.645,0,0,1-1.494-1.2,2.707,2.707,0,0,1-.536-1.591h2.769a1.145,1.145,0,0,0,.439.962,1.808,1.808,0,0,0,1.081.3,1.422,1.422,0,0,0,.91-.246A.787.787,0,0,0,66.774,39.328ZM74.139,42H71.168V32.49h2.971ZM70.993,30.029a1.334,1.334,0,0,1,.457-1.043,1.934,1.934,0,0,1,2.373,0,1.42,1.42,0,0,1,0,2.087,1.934,1.934,0,0,1-2.373,0A1.334,1.334,0,0,1,70.993,30.029Zm4.6,7.128a5.613,5.613,0,0,1,.554-2.536,3.96,3.96,0,0,1,1.591-1.709,4.791,4.791,0,0,1,2.435-.6,4.373,4.373,0,0,1,3.366,1.323,5.076,5.076,0,0,1,1.23,3.6v.105a4.925,4.925,0,0,1-1.235,3.529,4.384,4.384,0,0,1-3.344,1.305,4.434,4.434,0,0,1-3.261-1.217,4.761,4.761,0,0,1-1.327-3.3Zm2.962.185a3.538,3.538,0,0,0,.413,1.934,1.376,1.376,0,0,0,1.222.615q1.582,0,1.617-2.435v-.3q0-2.558-1.635-2.558-1.485,0-1.608,2.206ZM80.573,28.5H83.7l-2.443,2.76-2.417,0Zm8.218,3.99.1,1.116A3.225,3.225,0,0,1,91.6,32.314a2.713,2.713,0,0,1,2.219.888,4.226,4.226,0,0,1,.76,2.672V42H91.612V36a1.6,1.6,0,0,0-.29-1.059,1.342,1.342,0,0,0-1.055-.338,1.413,1.413,0,0,0-1.292.686V42H86.013V32.49Z" transform="translate(333 4406)" fill="#12263f"/>
      <g id="Grupo_77973" data-name="Grupo 77973" transform="translate(333 4270.309)">
        <g id="Grupo_18531" data-name="Grupo 18531" transform="translate(0 0)">
          <g id="Grupo_18423" data-name="Grupo 18423" transform="translate(0 0)">
            <g id="Grupo_18421" data-name="Grupo 18421">
              <g id="Grupo_18420" data-name="Grupo 18420">
                <g id="Grupo_18419" data-name="Grupo 18419">
                  <path id="Trazado_40936" data-name="Trazado 40936" d="M312.314,2204.565a58.846,58.846,0,1,1-58.845-58.844A58.845,58.845,0,0,1,312.314,2204.565Z" transform="translate(-194.623 -2145.721)" fill="#fff"/>
                </g>
              </g>
            </g>
            <path id="Trazado_40937" data-name="Trazado 40937" d="M311.665,2203.857A58.844,58.844,0,1,0,252.82,2262.7,58.613,58.613,0,0,0,311.665,2203.857Z" transform="translate(-193.974 -2145.013)" fill="url(#radial-gradient)"/>
            <path id="Trazado_40938" data-name="Trazado 40938" d="M291.975,2198.12a44.917,44.917,0,1,0-44.917,44.917A44.75,44.75,0,0,0,291.975,2198.12Z" transform="translate(-188.034 -2139.08)" fill="none" stroke="#00223d" stroke-miterlimit="10" stroke-width="4"/>
            <g id="Grupo_18422" data-name="Grupo 18422" transform="translate(10.425 33.038)">
              <path id="Trazado_40939" data-name="Trazado 40939" d="M301.861,2164.488a58.853,58.853,0,0,1-101.316,58.6,58.666,58.666,0,0,0,101.316-58.6Z" transform="translate(-200.545 -2164.488)" fill="#eceef0"/>
            </g>
          </g>
        </g>
        <g id="fOw690" transform="translate(4400.558 -1279.002)">
          <g id="Grupo_87882" data-name="Grupo 87882" transform="translate(-4380.125 1315.28)">
            <path id="Trazado_139667" data-name="Trazado 139667" d="M-4335.368,1544.628h-23.624a8.02,8.02,0,0,0-1.946-7.612,7.394,7.394,0,0,0-5.7-2.44,7.991,7.991,0,0,0-7.424,10.063,5.323,5.323,0,0,1-3-.63,5.544,5.544,0,0,1-3.026-4.987,31.878,31.878,0,0,1,.025-3.628,5.39,5.39,0,0,1,4.493-4.788,8.164,8.164,0,0,1,1.67-.182c4.908-.014,9.816-.009,14.724-.009l16.46,0c3.042,0,6.084-.043,9.125.021a33.974,33.974,0,0,1,3.953.439,1.475,1.475,0,0,0,1.151-.256c.4-.29.8-.572,1.2-.862a.678.678,0,0,1,1,.11,9.97,9.97,0,0,1,.9,1.041,3.586,3.586,0,0,0,2.068,1.36,1.429,1.429,0,0,0,1.888-.635c.3-.47.694-.883,1.036-1.33.153-.2.281-.421.421-.633l.217.132c.114.22.247.433.337.662.372.933.756,1.862,1.084,2.811a1.043,1.043,0,0,0,1.215.821c.1-.011.2,0,.387,0v.607q0,4.525,0,9.049c0,.665-.09.828-.758.868-.914.055-1.833.014-2.8.014a8.046,8.046,0,0,0-2.339-7.994,7.34,7.34,0,0,0-5.5-2.055A8,8,0,0,0-4335.368,1544.628Zm-18.6-10.913c-.493,0-.987-.013-1.479,0a.978.978,0,0,0-1,1.005.963.963,0,0,0,.977,1.022q1.479.034,2.959,0a.969.969,0,0,0,.973-1.028.982.982,0,0,0-1.005-1C-4353.015,1533.7-4353.492,1533.715-4353.969,1533.715Z" transform="translate(4380.125 -1507.671)" fill="#12263f"/>
            <path id="Trazado_139668" data-name="Trazado 139668" d="M-3739.931,1325.057h6.056V1364.8h-6.056Z" transform="translate(3805.398 -1324.057)" fill="#12263f"/>
            <path id="Trazado_139669" data-name="Trazado 139669" d="M-4151.562,1455.2h-22.215v-6.7c1.607-.131,3.194-.349,4.783-.367,1.955-.023,3.914.093,5.868.2a12.188,12.188,0,0,1,6.079,2.184A28.971,28.971,0,0,1-4151.562,1455.2Z" transform="translate(4194.878 -1434.543)" fill="#12263f"/>
            <path id="Trazado_139670" data-name="Trazado 139670" d="M-3941.789,1325.268l-2.011,2.357c-.866-.836-1.713-1.644-2.549-2.463s-1.662-1.647-2.6-2.574l1.032,7.661-4.36-.582c.59,1.032,1.113,1.941,1.629,2.855a3.33,3.33,0,0,1,.338.682,1.286,1.286,0,0,1-.7,1.535,1.243,1.243,0,0,1-1.619-.571c-.937-1.6-1.857-3.214-2.784-4.822l-1.71-2.974,6.242.857-1.611-11.949,8.494,8.609,4.862-5.744v.522q0,4.908,0,9.816a1.233,1.233,0,0,1-.745,1.231,1.1,1.1,0,0,1-1.361-.237,1.9,1.9,0,0,1-.4-1.049c-.052-1.034-.019-2.073-.019-3.109Z" transform="translate(4000.38 -1315.28)" fill="#12263f"/>
            <path id="Trazado_139671" data-name="Trazado 139671" d="M-3926.276,1604.449a5.9,5.9,0,0,1,5.768-5.955,5.889,5.889,0,0,1,6.015,5.806,5.884,5.884,0,0,1-5.815,6A5.887,5.887,0,0,1-3926.276,1604.449Zm3.142-.092a2.764,2.764,0,0,0,2.709,2.812,2.773,2.773,0,0,0,2.8-2.727,2.764,2.764,0,0,0-2.713-2.811A2.762,2.762,0,0,0-3923.134,1604.357Z" transform="translate(3972.688 -1569.531)" fill="#12263f"/>
            <path id="Trazado_139672" data-name="Trazado 139672" d="M-4292.99,1604.441a5.906,5.906,0,0,1-5.887,5.88,5.913,5.913,0,0,1-5.919-5.9,5.919,5.919,0,0,1,5.918-5.906A5.9,5.9,0,0,1-4292.99,1604.441Zm-5.922-2.792a2.8,2.8,0,0,0-2.751,2.79,2.8,2.8,0,0,0,2.795,2.75,2.794,2.794,0,0,0,2.747-2.793A2.791,2.791,0,0,0-4298.912,1601.649Z" transform="translate(4312.5 -1569.548)" fill="#12263f"/>
            <path id="Trazado_139673" data-name="Trazado 139673" d="M-4283.923,1457.991v4.958c0,1.133,0,1.133-1.13,1.133q-4.345,0-8.69,0c-.115,0-.23-.016-.437-.031A24.4,24.4,0,0,1-4283.923,1457.991Z" transform="translate(4302.97 -1443.397)" fill="#12263f"/>
          </g>
        </g>
      </g>
    </g>
    <g id="Grupo_87881" data-name="Grupo 87881" transform="translate(528 -1375)">
      <path id="Trazado_139666-2" data-name="Trazado 139666" d="M28.835,0H214.206c15.925,0,28.835,15.67,28.835,35V238H28.835C12.91,238,0,222.33,0,203V35C0,15.67,12.91,0,28.835,0Z" transform="translate(274.979 4253)" fill="#e6f7fe"/>
      <path id="Trazado_140904" data-name="Trazado 140904" d="M30.752,14.609H26.524L25.786,17h-3.3L27.184,4.2h2.9L34.813,17H31.5Zm-3.489-2.382h2.751l-1.38-4.438Zm12.366,2.663a1.317,1.317,0,0,0,.967-.338,1.241,1.241,0,0,0,.334-.945h2.777a3.288,3.288,0,0,1-1.121,2.566,4.168,4.168,0,0,1-2.887,1,4.22,4.22,0,0,1-3.27-1.3,5.125,5.125,0,0,1-1.2-3.6v-.123A5.792,5.792,0,0,1,35.766,9.6a3.872,3.872,0,0,1,1.534-1.7,4.573,4.573,0,0,1,2.373-.593,4.116,4.116,0,0,1,2.944,1.028,3.647,3.647,0,0,1,1.09,2.786H40.93A1.626,1.626,0,0,0,40.569,10a1.244,1.244,0,0,0-.967-.4q-1.151,0-1.345,1.468a10.357,10.357,0,0,0-.062,1.283,4.068,4.068,0,0,0,.343,1.986A1.187,1.187,0,0,0,39.629,14.891Zm9.352,0a1.317,1.317,0,0,0,.967-.338,1.241,1.241,0,0,0,.334-.945h2.777a3.288,3.288,0,0,1-1.121,2.566,4.168,4.168,0,0,1-2.887,1,4.22,4.22,0,0,1-3.27-1.3,5.125,5.125,0,0,1-1.2-3.6v-.123A5.792,5.792,0,0,1,45.118,9.6a3.872,3.872,0,0,1,1.534-1.7,4.573,4.573,0,0,1,2.373-.593,4.116,4.116,0,0,1,2.944,1.028,3.647,3.647,0,0,1,1.09,2.786H50.281A1.626,1.626,0,0,0,49.921,10a1.244,1.244,0,0,0-.967-.4q-1.151,0-1.345,1.468a10.357,10.357,0,0,0-.062,1.283,4.068,4.068,0,0,0,.343,1.986A1.187,1.187,0,0,0,48.98,14.891ZM57.436,17H54.465V7.49h2.971ZM54.289,5.029a1.334,1.334,0,0,1,.457-1.043,1.934,1.934,0,0,1,2.373,0,1.334,1.334,0,0,1,.457,1.043,1.334,1.334,0,0,1-.457,1.043,1.934,1.934,0,0,1-2.373,0A1.334,1.334,0,0,1,54.289,5.029Zm4.6,7.146a5.809,5.809,0,0,1,.976-3.56,3.211,3.211,0,0,1,2.725-1.3,2.731,2.731,0,0,1,2.145,1V3.5H67.7V17H65.038l-.149-1.02a2.8,2.8,0,0,1-2.32,1.2,3.205,3.205,0,0,1-2.689-1.3A5.993,5.993,0,0,1,58.886,12.175Zm2.962.185q0,2.531,1.477,2.531a1.458,1.458,0,0,0,1.406-.826V10.443A1.419,1.419,0,0,0,63.342,9.6q-1.371,0-1.485,2.215Zm12.138,4.816a4.889,4.889,0,0,1-3.542-1.305,4.507,4.507,0,0,1-1.354-3.4v-.246a5.84,5.84,0,0,1,.541-2.575,3.955,3.955,0,0,1,1.578-1.727,4.763,4.763,0,0,1,2.461-.611,4.117,4.117,0,0,1,3.164,1.244,4.887,4.887,0,0,1,1.16,3.467v1.151H72.1a2.135,2.135,0,0,0,.694,1.257,2.066,2.066,0,0,0,1.389.457,2.662,2.662,0,0,0,2.2-.984l1.354,1.6a3.784,3.784,0,0,1-1.569,1.217A5.3,5.3,0,0,1,73.985,17.176ZM73.651,9.6q-1.3,0-1.547,1.723h2.988v-.229a1.467,1.467,0,0,0-.36-1.1A1.434,1.434,0,0,0,73.651,9.6ZM81.9,7.49,82,8.606a3.225,3.225,0,0,1,2.716-1.292,2.713,2.713,0,0,1,2.219.888,4.226,4.226,0,0,1,.76,2.672V17H84.726V11a1.6,1.6,0,0,0-.29-1.059A1.342,1.342,0,0,0,83.381,9.6a1.413,1.413,0,0,0-1.292.686V17H79.127V7.49ZM92.785,5.126V7.49H94.35V9.547H92.785V13.9a1.111,1.111,0,0,0,.193.747,1.037,1.037,0,0,0,.765.211,4.345,4.345,0,0,0,.738-.053v2.118a5.466,5.466,0,0,1-1.67.255,3.1,3.1,0,0,1-2.259-.721,2.954,2.954,0,0,1-.729-2.188V9.547H88.61V7.49h1.213V5.126Zm7.33,12.05a4.889,4.889,0,0,1-3.542-1.305,4.507,4.507,0,0,1-1.354-3.4v-.246a5.84,5.84,0,0,1,.541-2.575,3.955,3.955,0,0,1,1.578-1.727A4.763,4.763,0,0,1,99.8,7.314a4.117,4.117,0,0,1,3.164,1.244,4.887,4.887,0,0,1,1.16,3.467v1.151H98.234a2.135,2.135,0,0,0,.694,1.257,2.066,2.066,0,0,0,1.389.457,2.662,2.662,0,0,0,2.2-.984l1.354,1.6a3.784,3.784,0,0,1-1.569,1.217A5.3,5.3,0,0,1,100.115,17.176ZM99.781,9.6q-1.3,0-1.547,1.723h2.988v-.229a1.467,1.467,0,0,0-.36-1.1A1.434,1.434,0,0,0,99.781,9.6ZM33.824,32.49l.1,1.116a3.27,3.27,0,0,1,2.716-1.292,2.407,2.407,0,0,1,2.435,1.433,3.165,3.165,0,0,1,2.795-1.433q2.892,0,2.971,3.5V42H41.866V36a1.813,1.813,0,0,0-.246-1.063,1.048,1.048,0,0,0-.9-.334,1.4,1.4,0,0,0-1.31.782l.009.123V42H36.452V36.015a1.906,1.906,0,0,0-.237-1.081,1.045,1.045,0,0,0-.905-.334,1.42,1.42,0,0,0-1.3.782V42H31.046V32.49Zm18.369,8.481a3.054,3.054,0,0,1-2.54,1.2,3,3,0,0,1-2.369-.91,3.826,3.826,0,0,1-.8-2.615V32.49h2.962v6.179a1.065,1.065,0,0,0,1.187,1.222,1.548,1.548,0,0,0,1.45-.729V32.49h2.979V42H52.281ZM51.138,28.5h3.129l-2.443,2.76-2.417,0ZM59.8,42H56.833V28.5H59.8Zm5.273-11.874V32.49h1.564v2.057H65.078V38.9a1.111,1.111,0,0,0,.193.747,1.037,1.037,0,0,0,.765.211,4.345,4.345,0,0,0,.738-.053v2.118a5.466,5.466,0,0,1-1.67.255,3.1,3.1,0,0,1-2.259-.721,2.954,2.954,0,0,1-.729-2.188v-4.72H60.9V32.49h1.213V30.126ZM70.931,42H67.96V32.49h2.971ZM67.785,30.029a1.334,1.334,0,0,1,.457-1.043,1.934,1.934,0,0,1,2.373,0,1.42,1.42,0,0,1,0,2.087,1.934,1.934,0,0,1-2.373,0A1.334,1.334,0,0,1,67.785,30.029Zm13.8,7.286a5.735,5.735,0,0,1-1,3.538,3.2,3.2,0,0,1-2.694,1.323,2.742,2.742,0,0,1-2.153-.958v4.438H72.777V32.49h2.769l.088.879a2.742,2.742,0,0,1,2.241-1.055,3.224,3.224,0,0,1,2.733,1.3,5.805,5.805,0,0,1,.976,3.564Zm-2.962-.185q0-2.531-1.477-2.531a1.394,1.394,0,0,0-1.406.756V39.1a1.439,1.439,0,0,0,1.424.791q1.415,0,1.459-2.443ZM86.013,42H83.042V28.5h2.971Zm6.425.176A4.889,4.889,0,0,1,88.9,40.871a4.507,4.507,0,0,1-1.354-3.4v-.246a5.84,5.84,0,0,1,.541-2.575,3.955,3.955,0,0,1,1.578-1.727,4.763,4.763,0,0,1,2.461-.611,4.117,4.117,0,0,1,3.164,1.244,4.887,4.887,0,0,1,1.16,3.467v1.151H90.557a2.135,2.135,0,0,0,.694,1.257,2.066,2.066,0,0,0,1.389.457,2.662,2.662,0,0,0,2.2-.984l1.354,1.6a3.784,3.784,0,0,1-1.569,1.217A5.3,5.3,0,0,1,92.438,42.176ZM92.1,34.6q-1.3,0-1.547,1.723h2.988v-.229a1.467,1.467,0,0,0-.36-1.1A1.434,1.434,0,0,0,92.1,34.6Z" transform="translate(333 4406)" fill="#12263f"/>
      <g id="Grupo_77973-2" data-name="Grupo 77973" transform="translate(333 4270.309)">
        <g id="Grupo_18531-2" data-name="Grupo 18531" transform="translate(0 0)">
          <g id="Grupo_18423-2" data-name="Grupo 18423" transform="translate(0 0)">
            <g id="Grupo_18421-2" data-name="Grupo 18421">
              <g id="Grupo_18420-2" data-name="Grupo 18420">
                <g id="Grupo_18419-2" data-name="Grupo 18419">
                  <path id="Trazado_40936-2" data-name="Trazado 40936" d="M312.314,2204.565a58.846,58.846,0,1,1-58.845-58.844A58.845,58.845,0,0,1,312.314,2204.565Z" transform="translate(-194.623 -2145.721)" fill="#fff"/>
                </g>
              </g>
            </g>
            <path id="Trazado_40937-2" data-name="Trazado 40937" d="M311.665,2203.857A58.844,58.844,0,1,0,252.82,2262.7,58.613,58.613,0,0,0,311.665,2203.857Z" transform="translate(-193.974 -2145.013)" fill="url(#radial-gradient)"/>
            <path id="Trazado_40938-2" data-name="Trazado 40938" d="M291.975,2198.12a44.917,44.917,0,1,0-44.917,44.917A44.75,44.75,0,0,0,291.975,2198.12Z" transform="translate(-188.034 -2139.08)" fill="none" stroke="#00223d" stroke-miterlimit="10" stroke-width="4"/>
            <g id="Grupo_18422-2" data-name="Grupo 18422" transform="translate(10.425 33.038)">
              <path id="Trazado_40939-2" data-name="Trazado 40939" d="M301.861,2164.488a58.853,58.853,0,0,1-101.316,58.6,58.666,58.666,0,0,0,101.316-58.6Z" transform="translate(-200.545 -2164.488)" fill="#eceef0"/>
            </g>
          </g>
        </g>
        <g id="Grupo_87884" data-name="Grupo 87884" transform="translate(6453.219 -841.234)">
          <g id="PjyoDT" transform="translate(-6425.817 871.373)">
            <g id="Grupo_87883" data-name="Grupo 87883" transform="translate(0 0)">
              <path id="Trazado_139675" data-name="Trazado 139675" d="M-6375.96,1157.76c-.568.7-1.094,1.328-1.6,1.97q-1.872,2.356-3.734,4.721a.718.718,0,0,0,.206,1.2c1.377.866,2.756,1.727,4.093,2.565-.425.454-.837.921-1.277,1.36q-.945.943-1.926,1.847a.733.733,0,0,1-.451.18c-2.225.011-4.449.007-6.675.009a5.437,5.437,0,0,0-5.272,3.573q-.939,2.338-1.873,4.678c-.008.02-.021.038-.052.092-.1-.028-.211-.055-.318-.09l-3.619-1.173c-.671-.218-1.006-.039-1.162.656a3.578,3.578,0,0,0,.85,3.3c.064.073.129.145.192.218,0,.006,0,.02,0,.057h-26.312c0-.1-.015-.208-.016-.312,0-.705.01-1.411,0-2.116-.021-1.093-.076-2.185-.079-3.277a6.4,6.4,0,0,1,6.178-6.316c.521-.012,1.042,0,1.563,0s.843-.274.85-.7c.006-.442-.322-.72-.856-.721h-1.694c.3-.761.584-1.485.871-2.207q.618-1.557,1.24-3.112a3.717,3.717,0,0,1,3.646-2.483c2.137-.007,4.275-.008,6.413-.024a.572.572,0,0,1,.512.253c.744.959,1.5,1.908,2.275,2.888-.108.073-.2.141-.3.2q-3.861,2.383-7.725,4.762a.763.763,0,0,0-.459.817c.069.389.356.53.715.6q4.523.931,9.043,1.874c.052.011.1.026.183.046-.271.825-.538,1.637-.807,2.448-.048.144-.1.287-.144.432a.708.708,0,0,0,.438.948.706.706,0,0,0,.909-.511c.269-.8.529-1.605.794-2.408.119-.36.24-.719.357-1.08.2-.607-.01-.97-.624-1.1l-5.447-1.121c-.922-.19-1.844-.384-2.84-.591l1.463-.906q2.851-1.761,5.7-3.522c.585-.362.652-.748.231-1.281q-2.481-3.14-4.962-6.281c-.066-.083-.128-.17-.234-.311.165.013.275.015.384.031q3.929.573,7.855,1.147c.784.114,1.041-.116,1.063-.9.033-1.2.078-2.4.115-3.6.047-1.549.092-3.1.14-4.728.11.11.183.174.247.246q2.651,2.978,5.3,5.957c.537.6.9.592,1.438-.015q2.666-3.007,5.345-6c.041-.047.087-.092.181-.191.011.175.021.287.024.4q.111,3.97.221,7.94c.021.751.293,1,1.034.9,1.6-.227,3.2-.468,4.795-.7Zm-43.259,21.631v0c.619,0,1.237.012,1.855,0a4.636,4.636,0,0,0,4.5-4.981.657.657,0,0,0-.573-.65,8.022,8.022,0,0,0-1-.044c-.7,0-1.4,0-2.106.016a10.978,10.978,0,0,0-1.711.086,4.585,4.585,0,0,0-3.807,4.635c0,.731.217.943.953.944Zm28.333-14.182c-.161.009-.264.018-.367.019-.91,0-1.821,0-2.732,0a1.045,1.045,0,0,0-.41.066c-.5.224-.55.789-.109,1.231q2.131,2.139,4.272,4.271a1.441,1.441,0,0,0,.194.171.679.679,0,0,0,1.091-.491,1,1,0,0,0-.278-.65c-.971-1.006-1.968-1.987-2.955-2.978a2.775,2.775,0,0,1-.173-.221h1.67c.523,0,1.047-.009,1.569,0a.61.61,0,0,0,.634-.495.808.808,0,0,0-.246-.829c-.211-.216-.451-.4-.665-.617q-1.7-1.7-3.4-3.405a.791.791,0,0,0-.742-.313.687.687,0,0,0-.552.494.749.749,0,0,0,.258.787q1.348,1.344,2.691,2.69C-6391.066,1165.012-6391,1165.089-6390.886,1165.208Z" transform="translate(6424.988 -1149.758)" fill="#12263f"/>
              <path id="Trazado_139676" data-name="Trazado 139676" d="M-6042.95,1672.812v-.367c0-1.158-.018-2.316-.01-3.473.008-1.126-.021-2.257.071-3.377a7.008,7.008,0,0,1,5.9-6.157,8.138,8.138,0,0,1,1.07-.076q11.424-.007,22.85,0h4.654a6.456,6.456,0,0,1,6.572,6.607c-.011,2.148,0,4.3,0,6.445v.4Zm6.627-4.955v-.007c.726,0,1.453.025,2.18,0a4.929,4.929,0,0,0,4.66-4.791c.01-.568-.257-.861-.813-.863-1.4-.005-2.8-.032-4.2.007a4.832,4.832,0,0,0-4.41,2.781,5.465,5.465,0,0,0-.5,1.863c-.076.6.212,1.011.807,1.014C-6037.843,1667.86-6037.084,1667.857-6036.323,1667.857Zm27.81.042,0-.042c.792,0,1.583.006,2.375,0a.693.693,0,0,0,.746-.757c0-.108,0-.217-.011-.325a4.869,4.869,0,0,0-4.555-4.544c-1.536-.088-3.08-.038-4.62-.032a.692.692,0,0,0-.725.781,4.876,4.876,0,0,0,3.967,4.773A26.1,26.1,0,0,0-6008.514,1667.9Z" transform="translate(6067.838 -1626.175)" fill="#12263f"/>
              <path id="Trazado_139677" data-name="Trazado 139677" d="M-5943.007,1515.317c.32-.8.631-1.588.944-2.371.467-1.167.932-2.336,1.4-3.5a4.048,4.048,0,0,1,3.9-2.623q8.087,0,16.177,0a4.052,4.052,0,0,1,3.908,2.657q1.11,2.812,2.214,5.628c.023.059.043.119.077.21Z" transform="translate(5974.391 -1483.571)" fill="#12263f"/>
              <path id="Trazado_139679" data-name="Trazado 139679" d="M-6401.892,1681.389H-6396c0,.845.005,1.676,0,2.506,0,.258-.2.308-.413.309-.584,0-1.17,0-1.754,0h-3.121c-.555,0-.6-.045-.6-.583v-2.233Z" transform="translate(6403.396 -1646.772)" fill="#12263f"/>
              <path id="Trazado_139680" data-name="Trazado 139680" d="M-5988.267,1882.231h5.892c0,.845.006,1.676,0,2.507,0,.258-.2.308-.412.309-.585,0-1.17,0-1.755,0h-3.121c-.555,0-.6-.045-.6-.583v-2.233Z" transform="translate(6016.703 -1834.537)" fill="#12263f"/>
              <path id="Trazado_139681" data-name="Trazado 139681" d="M-5572.117,1882.231h5.892c0,.845.005,1.676,0,2.507,0,.258-.2.308-.413.309-.585,0-1.17,0-1.755,0h-3.121c-.555,0-.6-.045-.6-.583v-2.233Z" transform="translate(5627.651 -1834.537)" fill="#12263f"/>
              <path id="Trazado_139682" data-name="Trazado 139682" d="M-5479.433,1616.791c-.081-.027-.194-.059-.3-.1-.525-.2-1.045-.421-1.574-.615-.214-.078-.377-.185-.387-.422-.01-.259.161-.379.388-.452,1.3-.417,2.6-.845,3.9-1.249a.593.593,0,0,1,.5.079.57.57,0,0,1,.1.49,3.061,3.061,0,0,1-2.324,2.222C-5479.222,1616.764-5479.309,1616.771-5479.433,1616.791Z" transform="translate(5543.118 -1583.707)" fill="#12263f"/>
              <path id="Trazado_139683" data-name="Trazado 139683" d="M-6015.525,1618.836a1.42,1.42,0,0,1-.36.319c-.464.2-.944.374-1.424.541a.546.546,0,0,1-.341-.011,2.613,2.613,0,0,1-1.653-1.668.613.613,0,0,1,.078-.525.609.609,0,0,1,.519-.1c.933.278,1.854.593,2.782.887C-6015.687,1618.352-6015.562,1618.5-6015.525,1618.836Z" transform="translate(6045.744 -1586.923)" fill="#12263f"/>
              <path id="Trazado_139684" data-name="Trazado 139684" d="M-6407.68,1436.477a4.43,4.43,0,0,1-.931-.555,5.079,5.079,0,0,1-.763-1.067.466.466,0,0,1,.063-.434.5.5,0,0,1,.43-.1q1.336.4,2.654.858a.555.555,0,0,1,.29.371.43.43,0,0,1-.212.351c-.446.193-.91.344-1.368.507a.6.6,0,0,1-.128.017Z" transform="translate(6410.419 -1415.775)" fill="#12263f"/>
              <path id="Trazado_139685" data-name="Trazado 139685" d="M-6358.735,1542.372a6.1,6.1,0,0,1,.512-1.262,4.455,4.455,0,0,1,1.081-1.082,3.211,3.211,0,0,1,2.05-.44c.669.026,1.342-.018,2.013-.03.227,0,.454,0,.719,0a3.089,3.089,0,0,1-.963,1.949,2.8,2.8,0,0,1-1.852.855C-6356.333,1542.4-6357.493,1542.372-6358.735,1542.372Z" transform="translate(6363.049 -1514.175)" fill="#12263f"/>
              <path id="Trazado_139686" data-name="Trazado 139686" d="M-5965.232,1727.386a3.14,3.14,0,0,1,.789-1.615,3.434,3.434,0,0,1,2.638-1.2c1.073-.011,2.146,0,3.218,0,.085,0,.17.009.29.016a3.5,3.5,0,0,1-1.62,2.31,3.3,3.3,0,0,1-1.724.513c-1.149.015-2.3.006-3.445.006A.84.84,0,0,1-5965.232,1727.386Z" transform="translate(5995.168 -1687.138)" fill="#12263f"/>
              <path id="Trazado_139687" data-name="Trazado 139687" d="M-5588.181,1727.4c-.15,0-.288,0-.424,0-1.191-.015-2.388.029-3.573-.062a3.408,3.408,0,0,1-2.887-2.557,2.279,2.279,0,0,1-.024-.229h.815c.911,0,1.822-.01,2.732,0a3.527,3.527,0,0,1,3.352,2.682A1.118,1.118,0,0,1-5588.181,1727.4Z" transform="translate(5649.126 -1687.126)" fill="#12263f"/>
            </g>
          </g>
          <path id="Trazado_139688" data-name="Trazado 139688" d="M-6178.046,1806.819c-1.09-.607-1.979-.463-2.464.385s-.163,1.689.923,2.329c.766.451,1.536.9,2.292,1.339-.825,1.657-1.211,1.782-2.615.974-1.129-.65-2.278-1.27-3.386-1.956-1.193-.738-2.945-1.016-2.48-3.219l-.341.073c-.761,1.243-1.522,2.486-2.318,3.784l-1-.692c.568-.99,1.093-1.914,1.627-2.833a2.438,2.438,0,0,0,.434-2.069,2.247,2.247,0,0,1,1.614-2.671,2.7,2.7,0,0,0,1.205-.95c.713-1.078,1.317-2.228,2-3.414l1.027.663-2.194,4.061.3.3c.7-.718,1.422-1.183,2.26-.287-.084.311-.171.631-.266.984.439-.217.892-.629,1.148-.531a8.56,8.56,0,0,1,2.143,1.235c.221.171.066.76.247,1.061a3.412,3.412,0,0,0,1.04,1.157,7.032,7.032,0,0,0,1.568.51c.049.016.073.11.128.2l-.537.916C-6176.544,1807.675-6177.292,1807.24-6178.046,1806.819Zm-5.856-2.311a1.7,1.7,0,0,0-1.173-1.12,1.008,1.008,0,0,0-1.158,1.258c.1.5.613.915.94,1.368l.546-.012C-6184.439,1805.5-6183.862,1804.977-6183.9,1804.507Z" transform="translate(-221.048 -884.322)" fill="#12263f"/>
          <path id="Trazado_139689" data-name="Trazado 139689" d="M-6323.736,1678.852c-2.6.353-3.06-.073-2.979-2.794a3.112,3.112,0,0,0,.025-1.171,1.543,1.543,0,0,0-.869-.872c-.24-.054-.874.448-.867.689a18.223,18.223,0,0,0,.4,4.423c.423,1.5,1.932,2.08,3.592,1.719.725-.158,1.42-.451,2.258-.724,1.217,1.961,3.232,3.413,4.12,6.021a7.788,7.788,0,0,0,.369-2.053,2.8,2.8,0,0,1,1.9-3.264c1.257-.5,1.368-.9.531-1.957a24.692,24.692,0,0,0-1.79-2.21,2.178,2.178,0,0,1-.386-2.812,40.708,40.708,0,0,1,2.289-3.574c.372-.539.875-1.043.229-1.641-.724-.672-1.216-.076-1.663.447a11.324,11.324,0,0,0-2.977,5.569,5.424,5.424,0,0,0,.051,1.113,2.768,2.768,0,0,1-1.042,3.242A2.537,2.537,0,0,1-6323.736,1678.852Z" transform="translate(-91.104 -763.193)" fill="#12263f"/>
          <path id="Trazado_139690" data-name="Trazado 139690" d="M-6267.64,1762.284a2.537,2.537,0,0,0,3.185.15,2.767,2.767,0,0,0,1.042-3.242c-1.056-1.607-2.542-2.057-3.881-1.167-1.317.876-1.492,2.377-.466,3.935A1.553,1.553,0,0,1-6267.64,1762.284Z" transform="translate(-147.2 -846.625)" fill="#12263f"/>
          <path id="Trazado_139691" data-name="Trazado 139691" d="M-6158.895,1952.184c-1.551,2.3-1.525,2.625.775,4.345a19.067,19.067,0,0,0,2.748,1.623,1.262,1.262,0,0,0,1.819-.591,1.363,1.363,0,0,0-.594-1.931c-1.11-.68-2.224-1.355-3.292-2.1A13.751,13.751,0,0,1-6158.895,1952.184Z" transform="translate(-248.594 -1028.562)" fill="#12263f"/>
          <path id="Trazado_139692" data-name="Trazado 139692" d="M-6053.772,1939.446c.4.182.811.336,1.189.552,1.882,1.073,3.754,2.161,5.629,3.247.6.346,1.222.524,1.657-.172s.026-1.174-.592-1.529c-1.913-1.1-3.812-2.219-5.738-3.293-.9-.505-1.752-.094-1.716.767Z" transform="translate(-347.874 -1015.33)" fill="#12263f"/>
          <path id="Trazado_139693" data-name="Trazado 139693" d="M-6294.326,1676.189c-.248-.427-.463-.8-.7-1.211l1.132.142v-1.37l.987.8.687-1.138c.146.431.259.762.406,1.2l.949-.338c.018.239.033.471.057.8l1.084-.133c-.138.275-.259.514-.38.752l.194.136,1.227-1.5-1.609.263c-.029-.358-.06-.716-.1-1.192l-1.131.711c-.178-.558-.34-1.069-.579-1.819l-.9,1.642-1.343-1.1c.031.687.053,1.161.079,1.749l-1.6-.226,1.027,1.688-1.143.655,1.37.649.123-.143-.454-.523Z" transform="translate(-121.431 -766.899)" fill="#12263f"/>
          <path id="Trazado_139694" data-name="Trazado 139694" d="M-6001.214,1997.573c.1.6.062,1.051.208,1.121a10.576,10.576,0,0,0,1.615.511q.083-.211.167-.423Z" transform="translate(-397.01 -1070.996)" fill="#12263f"/>
        </g>
      </g>
    </g>
    <g id="Grupo_87879" data-name="Grupo 87879" transform="translate(262 -1375)">
      <path id="Trazado_139666-3" data-name="Trazado 139666" d="M28.835,0H214.206c15.925,0,28.835,15.67,28.835,35V238H28.835C12.91,238,0,222.33,0,203V35C0,15.67,12.91,0,28.835,0Z" transform="translate(274.979 4253)" fill="#e6f7fe"/>
      <path id="Trazado_140903" data-name="Trazado 140903" d="M30.752,14.609H26.524L25.786,17h-3.3L27.184,4.2h2.9L34.813,17H31.5Zm-3.489-2.382h2.751l-1.38-4.438Zm12.366,2.663a1.317,1.317,0,0,0,.967-.338,1.241,1.241,0,0,0,.334-.945h2.777a3.288,3.288,0,0,1-1.121,2.566,4.168,4.168,0,0,1-2.887,1,4.22,4.22,0,0,1-3.27-1.3,5.125,5.125,0,0,1-1.2-3.6v-.123A5.792,5.792,0,0,1,35.766,9.6a3.872,3.872,0,0,1,1.534-1.7,4.573,4.573,0,0,1,2.373-.593,4.116,4.116,0,0,1,2.944,1.028,3.647,3.647,0,0,1,1.09,2.786H40.93A1.626,1.626,0,0,0,40.569,10a1.244,1.244,0,0,0-.967-.4q-1.151,0-1.345,1.468a10.357,10.357,0,0,0-.062,1.283,4.068,4.068,0,0,0,.343,1.986A1.187,1.187,0,0,0,39.629,14.891Zm9.352,0a1.317,1.317,0,0,0,.967-.338,1.241,1.241,0,0,0,.334-.945h2.777a3.288,3.288,0,0,1-1.121,2.566,4.168,4.168,0,0,1-2.887,1,4.22,4.22,0,0,1-3.27-1.3,5.125,5.125,0,0,1-1.2-3.6v-.123A5.792,5.792,0,0,1,45.118,9.6a3.872,3.872,0,0,1,1.534-1.7,4.573,4.573,0,0,1,2.373-.593,4.116,4.116,0,0,1,2.944,1.028,3.647,3.647,0,0,1,1.09,2.786H50.281A1.626,1.626,0,0,0,49.921,10a1.244,1.244,0,0,0-.967-.4q-1.151,0-1.345,1.468a10.357,10.357,0,0,0-.062,1.283,4.068,4.068,0,0,0,.343,1.986A1.187,1.187,0,0,0,48.98,14.891ZM57.436,17H54.465V7.49h2.971ZM54.289,5.029a1.334,1.334,0,0,1,.457-1.043,1.934,1.934,0,0,1,2.373,0,1.334,1.334,0,0,1,.457,1.043,1.334,1.334,0,0,1-.457,1.043,1.934,1.934,0,0,1-2.373,0A1.334,1.334,0,0,1,54.289,5.029Zm4.6,7.146a5.809,5.809,0,0,1,.976-3.56,3.211,3.211,0,0,1,2.725-1.3,2.731,2.731,0,0,1,2.145,1V3.5H67.7V17H65.038l-.149-1.02a2.8,2.8,0,0,1-2.32,1.2,3.205,3.205,0,0,1-2.689-1.3A5.993,5.993,0,0,1,58.886,12.175Zm2.962.185q0,2.531,1.477,2.531a1.458,1.458,0,0,0,1.406-.826V10.443A1.419,1.419,0,0,0,63.342,9.6q-1.371,0-1.485,2.215Zm12.138,4.816a4.889,4.889,0,0,1-3.542-1.305,4.507,4.507,0,0,1-1.354-3.4v-.246a5.84,5.84,0,0,1,.541-2.575,3.955,3.955,0,0,1,1.578-1.727,4.763,4.763,0,0,1,2.461-.611,4.117,4.117,0,0,1,3.164,1.244,4.887,4.887,0,0,1,1.16,3.467v1.151H72.1a2.135,2.135,0,0,0,.694,1.257,2.066,2.066,0,0,0,1.389.457,2.662,2.662,0,0,0,2.2-.984l1.354,1.6a3.784,3.784,0,0,1-1.569,1.217A5.3,5.3,0,0,1,73.985,17.176ZM73.651,9.6q-1.3,0-1.547,1.723h2.988v-.229a1.467,1.467,0,0,0-.36-1.1A1.434,1.434,0,0,0,73.651,9.6ZM81.9,7.49,82,8.606a3.225,3.225,0,0,1,2.716-1.292,2.713,2.713,0,0,1,2.219.888,4.226,4.226,0,0,1,.76,2.672V17H84.726V11a1.6,1.6,0,0,0-.29-1.059A1.342,1.342,0,0,0,83.381,9.6a1.413,1.413,0,0,0-1.292.686V17H79.127V7.49ZM92.785,5.126V7.49H94.35V9.547H92.785V13.9a1.111,1.111,0,0,0,.193.747,1.037,1.037,0,0,0,.765.211,4.345,4.345,0,0,0,.738-.053v2.118a5.466,5.466,0,0,1-1.67.255,3.1,3.1,0,0,1-2.259-.721,2.954,2.954,0,0,1-.729-2.188V9.547H88.61V7.49h1.213V5.126Zm7.33,12.05a4.889,4.889,0,0,1-3.542-1.305,4.507,4.507,0,0,1-1.354-3.4v-.246a5.84,5.84,0,0,1,.541-2.575,3.955,3.955,0,0,1,1.578-1.727A4.763,4.763,0,0,1,99.8,7.314a4.117,4.117,0,0,1,3.164,1.244,4.887,4.887,0,0,1,1.16,3.467v1.151H98.234a2.135,2.135,0,0,0,.694,1.257,2.066,2.066,0,0,0,1.389.457,2.662,2.662,0,0,0,2.2-.984l1.354,1.6a3.784,3.784,0,0,1-1.569,1.217A5.3,5.3,0,0,1,100.115,17.176ZM99.781,9.6q-1.3,0-1.547,1.723h2.988v-.229a1.467,1.467,0,0,0-.36-1.1A1.434,1.434,0,0,0,99.781,9.6ZM42.033,39.328a.684.684,0,0,0-.4-.606,6.016,6.016,0,0,0-1.5-.475,6.853,6.853,0,0,1-1.828-.646,3.062,3.062,0,0,1-1.1-.971,2.319,2.319,0,0,1-.378-1.31,2.628,2.628,0,0,1,1.081-2.158,4.453,4.453,0,0,1,2.83-.848,4.934,4.934,0,0,1,3.023.853,2.666,2.666,0,0,1,1.143,2.241H41.936q0-1.143-1.2-1.143a1.194,1.194,0,0,0-.782.259.8.8,0,0,0-.316.646.737.737,0,0,0,.387.642,3.654,3.654,0,0,0,1.235.4,10.671,10.671,0,0,1,1.49.378,2.706,2.706,0,0,1,2.145,2.646,2.491,2.491,0,0,1-1.156,2.118,5.068,5.068,0,0,1-2.993.817,5.172,5.172,0,0,1-2.18-.439,3.645,3.645,0,0,1-1.494-1.2,2.707,2.707,0,0,1-.536-1.591H39.3a1.145,1.145,0,0,0,.439.962,1.808,1.808,0,0,0,1.081.3,1.422,1.422,0,0,0,.91-.246A.787.787,0,0,0,42.033,39.328ZM49.4,42H46.427V32.49H49.4ZM46.251,30.029a1.334,1.334,0,0,1,.457-1.043,1.934,1.934,0,0,1,2.373,0,1.42,1.42,0,0,1,0,2.087,1.934,1.934,0,0,1-2.373,0A1.334,1.334,0,0,1,46.251,30.029Zm7.77,2.461.1,1.116a3.27,3.27,0,0,1,2.716-1.292,2.407,2.407,0,0,1,2.435,1.433,3.165,3.165,0,0,1,2.795-1.433q2.892,0,2.971,3.5V42H62.063V36a1.813,1.813,0,0,0-.246-1.063,1.048,1.048,0,0,0-.9-.334,1.4,1.4,0,0,0-1.31.782l.009.123V42H56.649V36.015a1.906,1.906,0,0,0-.237-1.081,1.045,1.045,0,0,0-.905-.334,1.42,1.42,0,0,0-1.3.782V42H51.244V32.49Zm21.533,4.825a5.735,5.735,0,0,1-1,3.538,3.2,3.2,0,0,1-2.694,1.323,2.742,2.742,0,0,1-2.153-.958v4.438H66.748V32.49h2.769l.088.879a2.742,2.742,0,0,1,2.241-1.055,3.224,3.224,0,0,1,2.733,1.3,5.805,5.805,0,0,1,.976,3.564Zm-2.962-.185q0-2.531-1.477-2.531a1.394,1.394,0,0,0-1.406.756V39.1a1.439,1.439,0,0,0,1.424.791q1.415,0,1.459-2.443ZM79.984,42H77.013V28.5h2.971Zm6.425.176a4.889,4.889,0,0,1-3.542-1.305,4.507,4.507,0,0,1-1.354-3.4v-.246a5.84,5.84,0,0,1,.541-2.575,3.955,3.955,0,0,1,1.578-1.727,4.763,4.763,0,0,1,2.461-.611,4.117,4.117,0,0,1,3.164,1.244,4.887,4.887,0,0,1,1.16,3.467v1.151H84.528a2.135,2.135,0,0,0,.694,1.257,2.066,2.066,0,0,0,1.389.457,2.662,2.662,0,0,0,2.2-.984l1.354,1.6a3.784,3.784,0,0,1-1.569,1.217A5.3,5.3,0,0,1,86.409,42.176ZM86.075,34.6q-1.3,0-1.547,1.723h2.988v-.229a1.467,1.467,0,0,0-.36-1.1A1.434,1.434,0,0,0,86.075,34.6Z" transform="translate(333 4406)" fill="#12263f"/>
      <g id="Grupo_77973-3" data-name="Grupo 77973" transform="translate(333 4270.309)">
        <g id="Grupo_18531-3" data-name="Grupo 18531" transform="translate(0 0)">
          <g id="Grupo_18423-3" data-name="Grupo 18423" transform="translate(0 0)">
            <g id="Grupo_18421-3" data-name="Grupo 18421">
              <g id="Grupo_18420-3" data-name="Grupo 18420">
                <g id="Grupo_18419-3" data-name="Grupo 18419">
                  <path id="Trazado_40936-3" data-name="Trazado 40936" d="M312.314,2204.565a58.846,58.846,0,1,1-58.845-58.844A58.845,58.845,0,0,1,312.314,2204.565Z" transform="translate(-194.623 -2145.721)" fill="#fff"/>
                </g>
              </g>
            </g>
            <path id="Trazado_40937-3" data-name="Trazado 40937" d="M311.665,2203.857A58.844,58.844,0,1,0,252.82,2262.7,58.613,58.613,0,0,0,311.665,2203.857Z" transform="translate(-193.974 -2145.013)" fill="url(#radial-gradient)"/>
            <path id="Trazado_40938-3" data-name="Trazado 40938" d="M291.975,2198.12a44.917,44.917,0,1,0-44.917,44.917A44.75,44.75,0,0,0,291.975,2198.12Z" transform="translate(-188.034 -2139.08)" fill="none" stroke="#00223d" stroke-miterlimit="10" stroke-width="4"/>
            <g id="Grupo_18422-3" data-name="Grupo 18422" transform="translate(10.425 33.038)">
              <path id="Trazado_40939-3" data-name="Trazado 40939" d="M301.861,2164.488a58.853,58.853,0,0,1-101.316,58.6,58.666,58.666,0,0,0,101.316-58.6Z" transform="translate(-200.545 -2164.488)" fill="#eceef0"/>
            </g>
          </g>
        </g>
        <g id="rM0KKf" transform="translate(-111.461 -410.312)">
          <g id="Grupo_77967" data-name="Grupo 77967" transform="translate(139.931 447.383)">
            <path id="Trazado_138561" data-name="Trazado 138561" d="M139.931,529.816c1.99-4.352,3.941-8.722,5.991-13.045a3.863,3.863,0,0,1,3.712-2.145c4.744-.029,9.488-.038,14.232,0a4.309,4.309,0,0,1,4.067,2.617c1.653,3.437,3.356,6.851,4.913,10.331a9.214,9.214,0,0,1,.729,3.424c.095,3.325.014,6.655.048,9.982.008.835-.3,1.155-1.115,1.134-1.156-.03-2.315-.037-3.471,0-.848.026-1.135-.381-1.111-1.163.022-.721,0-1.443,0-2.234H145.647c0,.772-.024,1.569.007,2.364.029.751-.307,1.044-1.037,1.03-1.186-.022-2.374.035-3.557-.026a3.7,3.7,0,0,1-1.129-.466Zm28.959-2.454a6.047,6.047,0,0,0-.223-.694c-1.038-2.224-2.115-4.431-3.118-6.671a3.129,3.129,0,0,0-3.2-2.019c-3.844.036-7.689.008-11.533.012a2.607,2.607,0,0,0-2.558,1.592c-.649,1.386-1.32,2.761-1.982,4.141-.568,1.184-1.137,2.367-1.749,3.639Zm2,5.443a2.643,2.643,0,0,0-5.285-.066,2.712,2.712,0,0,0,2.559,2.754A2.74,2.74,0,0,0,170.888,532.8Zm-22.909-.009a2.712,2.712,0,0,0-2.675-2.63,2.647,2.647,0,0,0-2.614,2.586,2.646,2.646,0,1,0,5.289.045Z" transform="translate(-139.931 -502.935)" fill="#12263f"/>
            <path id="Trazado_138562" data-name="Trazado 138562" d="M350.5,505.044q-1.133,4.169-2.264,8.338c-.234.864-.477,1.727-.685,2.6a.8.8,0,0,1-1.1.671c-1.261-.312-2.515-.655-3.768-1a.778.778,0,0,1-.573-1.077c.2-.752.406-1.5.639-2.36-1.115-.314-2.208-.634-3.308-.929-5.214-1.395-10.428-2.794-15.651-4.158-.608-.159-.856-.38-.83-1.035.033-.858-.064-1.721-.1-2.585,1.942-.783,2.743-2.179,2.112-3.689-.661-1.582-2.1-1.959-4.22-1.073-.541-1.109-1.1-2.211-1.6-3.342a.893.893,0,0,1,.177-.754c2.584-3.039,5.161-6.086,7.8-9.073a3.987,3.987,0,0,1,4.191-1.209c4.479,1.131,8.957,2.263,13.427,3.428a4.3,4.3,0,0,1,3.381,3.644c.7,3.835,1.442,7.664,2.172,11.494a3.5,3.5,0,0,0,.2.551Zm-3.622-3.244c-.532-2.86-1.049-5.545-1.526-8.238a2.958,2.958,0,0,0-2.38-2.539q-5.48-1.464-10.937-3.01a3.033,3.033,0,0,0-3.463,1.076c-1.669,2-3.4,3.943-5.092,5.915a2.745,2.745,0,0,0-.252.455Zm.378,5.062a2.653,2.653,0,0,0-2.61-2.68,2.566,2.566,0,0,0-2.605,2.663,2.608,2.608,0,1,0,5.216.017Z" transform="translate(-288.013 -477.815)" fill="#12263f"/>
            <path id="Trazado_138563" data-name="Trazado 138563" d="M312.249,459.15c-.262-2-.527-4-.785-6-.2-1.519-.4-3.037-.56-4.56-.107-1.04.079-1.2,1.137-1.205.231,0,.463,0,.694,0,.843.02,1.108.3,1,1.119-.4,3.211-.822,6.42-1.234,9.63-.044.343-.082.686-.124,1.029Z" transform="translate(-281.206 -447.383)" fill="#12263f"/>
            <path id="Trazado_138564" data-name="Trazado 138564" d="M332,475.384q1.037-2.493,2.074-4.986c.288-.692.565-1.39.878-2.071.5-1.1,1.107-.189,1.625-.024.552.176.541.614.218,1.038q-2.329,3.059-4.666,6.112Z" transform="translate(-298.66 -464.25)" fill="#12263f"/>
            <path id="Trazado_138565" data-name="Trazado 138565" d="M282.782,479.545q-2.353-3.088-4.707-6.176c-.5-.657-.068-.994.43-1.293.457-.273,1.007-.57,1.311.127,1.054,2.416,2.057,4.854,3.08,7.283Z" transform="translate(-253.913 -467.54)" fill="#12263f"/>
          </g>
        </g>
      </g>
    </g>
    <g id="Grupo_87880" data-name="Grupo 87880" transform="translate(794 -1375)">
      <path id="Trazado_139666-4" data-name="Trazado 139666" d="M28.835,0H214.206c15.925,0,28.835,15.67,28.835,35V238H28.835C12.91,238,0,222.33,0,203V35C0,15.67,12.91,0,28.835,0Z" transform="translate(274.979 4253)" fill="#e6f7fe"/>
      <path id="Trazado_140905" data-name="Trazado 140905" d="M34.316,14.609H30.088L29.35,17h-3.3L30.748,4.2h2.9L38.376,17H35.063Zm-3.489-2.382h2.751L32.2,7.789Zm11.646-7.1V7.49h1.564V9.547H42.472V13.9a1.111,1.111,0,0,0,.193.747,1.037,1.037,0,0,0,.765.211,4.345,4.345,0,0,0,.738-.053v2.118a5.466,5.466,0,0,1-1.67.255,3.1,3.1,0,0,1-2.259-.721,2.954,2.954,0,0,1-.729-2.188V9.547H38.3V7.49H39.51V5.126Zm8.481,5.045-.976-.07a1.752,1.752,0,0,0-1.793.879V17H45.223V7.49H48l.1,1.222a2.294,2.294,0,0,1,2.083-1.4,2.888,2.888,0,0,1,.826.105Zm.378,1.986a5.613,5.613,0,0,1,.554-2.536,3.96,3.96,0,0,1,1.591-1.709,4.791,4.791,0,0,1,2.435-.6,4.373,4.373,0,0,1,3.366,1.323,5.076,5.076,0,0,1,1.23,3.6v.105a4.925,4.925,0,0,1-1.235,3.529,4.384,4.384,0,0,1-3.344,1.305,4.434,4.434,0,0,1-3.261-1.217,4.761,4.761,0,0,1-1.327-3.3Zm2.962.185a3.538,3.538,0,0,0,.413,1.934,1.376,1.376,0,0,0,1.222.615q1.582,0,1.617-2.435v-.3q0-2.558-1.635-2.558-1.485,0-1.608,2.206Zm16.348-.026a5.735,5.735,0,0,1-1,3.538,3.2,3.2,0,0,1-2.694,1.323,2.742,2.742,0,0,1-2.153-.958v4.438H61.834V7.49H64.6l.088.879a2.742,2.742,0,0,1,2.241-1.055,3.224,3.224,0,0,1,2.733,1.3,5.805,5.805,0,0,1,.976,3.564Zm-2.962-.185Q67.679,9.6,66.2,9.6a1.394,1.394,0,0,0-1.406.756V14.1a1.439,1.439,0,0,0,1.424.791q1.415,0,1.459-2.443Zm8.868,5.045a4.889,4.889,0,0,1-3.542-1.305,4.507,4.507,0,0,1-1.354-3.4v-.246a5.84,5.84,0,0,1,.541-2.575A3.955,3.955,0,0,1,73.77,7.925a4.763,4.763,0,0,1,2.461-.611A4.117,4.117,0,0,1,79.4,8.558a4.887,4.887,0,0,1,1.16,3.467v1.151H74.667a2.135,2.135,0,0,0,.694,1.257,2.066,2.066,0,0,0,1.389.457,2.662,2.662,0,0,0,2.2-.984l1.354,1.6a3.784,3.784,0,0,1-1.569,1.217A5.3,5.3,0,0,1,76.547,17.176ZM76.213,9.6q-1.3,0-1.547,1.723h2.988v-.229a1.467,1.467,0,0,0-.36-1.1A1.434,1.434,0,0,0,76.213,9.6ZM84.871,17H81.9V3.5h2.971Zm4.948,0H86.848V3.5h2.971Zm1.45-4.843a5.613,5.613,0,0,1,.554-2.536,3.96,3.96,0,0,1,1.591-1.709,4.791,4.791,0,0,1,2.435-.6,4.373,4.373,0,0,1,3.366,1.323,5.076,5.076,0,0,1,1.23,3.6v.105a4.925,4.925,0,0,1-1.235,3.529,4.384,4.384,0,0,1-3.344,1.305A4.434,4.434,0,0,1,92.6,15.958a4.761,4.761,0,0,1-1.327-3.3Zm2.962.185a3.538,3.538,0,0,0,.413,1.934,1.376,1.376,0,0,0,1.222.615q1.582,0,1.617-2.435v-.3q0-2.558-1.635-2.558-1.485,0-1.608,2.206Z" transform="translate(333 4406)" fill="#12263f"/>
      <g id="Grupo_77973-4" data-name="Grupo 77973" transform="translate(333 4270.309)">
        <g id="Grupo_18531-4" data-name="Grupo 18531" transform="translate(0 0)">
          <g id="Grupo_18423-4" data-name="Grupo 18423" transform="translate(0 0)">
            <g id="Grupo_18421-4" data-name="Grupo 18421">
              <g id="Grupo_18420-4" data-name="Grupo 18420">
                <g id="Grupo_18419-4" data-name="Grupo 18419">
                  <path id="Trazado_40936-4" data-name="Trazado 40936" d="M312.314,2204.565a58.846,58.846,0,1,1-58.845-58.844A58.845,58.845,0,0,1,312.314,2204.565Z" transform="translate(-194.623 -2145.721)" fill="#fff"/>
                </g>
              </g>
            </g>
            <path id="Trazado_40937-4" data-name="Trazado 40937" d="M311.665,2203.857A58.844,58.844,0,1,0,252.82,2262.7,58.613,58.613,0,0,0,311.665,2203.857Z" transform="translate(-193.974 -2145.013)" fill="url(#radial-gradient)"/>
            <path id="Trazado_40938-4" data-name="Trazado 40938" d="M291.975,2198.12a44.917,44.917,0,1,0-44.917,44.917A44.75,44.75,0,0,0,291.975,2198.12Z" transform="translate(-188.034 -2139.08)" fill="none" stroke="#00223d" stroke-miterlimit="10" stroke-width="4"/>
            <g id="Grupo_18422-4" data-name="Grupo 18422" transform="translate(10.425 33.038)">
              <path id="Trazado_40939-4" data-name="Trazado 40939" d="M301.861,2164.488a58.853,58.853,0,0,1-101.316,58.6,58.666,58.666,0,0,0,101.316-58.6Z" transform="translate(-200.545 -2164.488)" fill="#eceef0"/>
            </g>
          </g>
        </g>
        <g id="_1o7J4U.tif" data-name="1o7J4U.tif" transform="translate(-3693.943 -731.213)">
          <g id="Grupo_77978" data-name="Grupo 77978" transform="translate(3720.292 769.682)">
            <path id="Trazado_138585" data-name="Trazado 138585" d="M3720.292,837.325a3.766,3.766,0,0,1,2.37-2.673c.142-.051.259-.376.261-.576.019-1.884-.1-3.777.045-5.651a33.759,33.759,0,0,1,.816-4.56c.629-2.9,1.3-5.788,1.963-8.681a1.654,1.654,0,0,1,1.9-1.536q12.888,0,25.775-.01a1.95,1.95,0,0,1,1.861,1.134c2.283,4.1,4.6,8.193,6.872,12.3a.984.984,0,0,0,1.039.6c.948-.04,1.9-.012,2.99-.012-.207-.293-.337-.484-.474-.671q-3.277-4.443-6.555-8.886c-1.161-1.575-.973-2.828.59-3.987.98-.727,1.958-1.456,2.946-2.171a2.445,2.445,0,0,1,3.711.568c.985,1.312,1.952,2.638,2.924,3.959.1.136.18.286.27.429l-.132.2-4.576-2.542-.077.063a3.641,3.641,0,0,0,.283.352c1.158,1.133,2.334,2.247,3.471,3.4a1.008,1.008,0,0,0,1.067.287c1.644-.369,3.292-.718,4.939-1.069a1.791,1.791,0,0,1,2.333,1.27,1.771,1.771,0,0,1-1.615,2.1c-1.993.431-3.992.838-5.977,1.3a2.337,2.337,0,0,1-2.408-.691c-1.447-1.466-2.946-2.88-4.5-4.266.087.163.163.332.262.487q1.482,2.327,2.972,4.65a3.3,3.3,0,0,0,3.554,1.521c2.214-.457,4.422-.944,6.632-1.425a3.56,3.56,0,0,0,2.315-1.6,2.681,2.681,0,0,1,.291.164q4.53,3.387,9.058,6.777a2.089,2.089,0,0,1,.963,2.177,1.986,1.986,0,0,1-1.5,1.614,2.249,2.249,0,0,1-2.04-.53c-2.534-1.908-5.089-3.788-7.6-5.72a1.126,1.126,0,0,0-1.468-.158,11.243,11.243,0,0,1-1.179.547c1.212.265,2.231.506,3.258.708a2.262,2.262,0,0,1,1.852,1.689c1.127,3.659,2.275,7.313,3.4,10.973a2.079,2.079,0,1,1-3.966,1.2q-1.483-4.72-2.93-9.45a.834.834,0,0,0-.74-.7c-1.369-.249-2.726-.568-4.2-.884.259.384.462.665.645.959a6.661,6.661,0,0,1,.781,3.847.678.678,0,0,0,.4.733,3.333,3.333,0,0,1,1.708,4.044,3.428,3.428,0,0,1-3.776,2.346,8.251,8.251,0,0,0-3.469-6.614,8.02,8.02,0,0,0-5-1.537,8.279,8.279,0,0,0-8.028,8.139h-12.649a8.183,8.183,0,0,0-3.17-6.39,7.982,7.982,0,0,0-5.191-1.753,8.314,8.314,0,0,0-8.145,8.163c-1.628.093-3.275.23-4.408-1.3a9.373,9.373,0,0,1-.739-1.469ZM3743,817.147v6.974h13.418a1.024,1.024,0,0,0-.055-.227c-1.189-2.127-2.369-4.258-3.59-6.366a1,1,0,0,0-.741-.364c-1.909-.03-3.817-.017-5.727-.017Zm-3.575,0h-9.159c-1.356,0-1.363,0-1.662,1.342-.416,1.869-.819,3.741-1.233,5.634h12.054Z" transform="translate(-3720.292 -805.774)" fill="#12263f"/>
            <path id="Trazado_138586" data-name="Trazado 138586" d="M4005.165,1007.5a5.2,5.2,0,1,1,5.176-5.219A5.233,5.233,0,0,1,4005.165,1007.5Z" transform="translate(-3962.592 -966.744)" fill="#12263f"/>
            <path id="Trazado_138587" data-name="Trazado 138587" d="M3781.922,1002.3a5.206,5.206,0,1,1,5.192,5.2A5.214,5.214,0,0,1,3781.922,1002.3Z" transform="translate(-3773.695 -966.742)" fill="#12263f"/>
            <path id="Trazado_138588" data-name="Trazado 138588" d="M3982.362,776.8a3.559,3.559,0,1,1,3.67-3.51A3.582,3.582,0,0,1,3982.362,776.8Z" transform="translate(-3944.347 -769.682)" fill="#12263f"/>
          </g>
        </g>
      </g>
    </g>
  </g>
</svg>
