<svg xmlns="http://www.w3.org/2000/svg" xmlns:xlink="http://www.w3.org/1999/xlink" width="104.852" height="104.852" viewBox="0 0 104.852 104.852">
  <defs>
    <radialGradient id="radial-gradient" cx="0.076" cy="0.019" r="1.465" gradientTransform="translate(0.001)" gradientUnits="objectBoundingBox">
      <stop offset="0" stop-color="#f6f6f7"/>
      <stop offset="0.477" stop-color="#f9f9fa"/>
      <stop offset="0.715" stop-color="#fff"/>
    </radialGradient>
  </defs>
  <g id="Grupo_50460" data-name="Grupo 50460" transform="translate(-217 -997)">
    <g id="Grupo_18531" data-name="Grupo 18531" transform="translate(217 997)">
      <g id="Grupo_18423" data-name="Grupo 18423" transform="translate(0 0)">
        <g id="Grupo_18421" data-name="Grupo 18421">
          <g id="Grupo_18420" data-name="Grupo 18420">
            <g id="Grupo_18419" data-name="Grupo 18419">
              <path id="Trazado_40936" data-name="Trazado 40936" d="M299.475,2198.146a52.426,52.426,0,1,1-52.425-52.424A52.425,52.425,0,0,1,299.475,2198.146Z" transform="translate(-194.623 -2145.721)" fill="#fff"/>
            </g>
          </g>
        </g>
        <path id="Trazado_40937" data-name="Trazado 40937" d="M298.99,2197.617a52.425,52.425,0,1,0-52.425,52.427A52.219,52.219,0,0,0,298.99,2197.617Z" transform="translate(-194.138 -2145.192)" fill="url(#radial-gradient)"/>
        <path id="Trazado_40938" data-name="Trazado 40938" d="M282.3,2193.357a40.016,40.016,0,1,0-40.016,40.016A39.868,39.868,0,0,0,282.3,2193.357Z" transform="translate(-189.698 -2140.758)" fill="none" stroke="#7d6eb2" stroke-miterlimit="10" stroke-width="4"/>
        <g id="Grupo_18422" data-name="Grupo 18422" transform="translate(9.288 29.433)">
          <path id="Trazado_40939" data-name="Trazado 40939" d="M290.808,2164.488a52.432,52.432,0,0,1-90.263,52.208,52.266,52.266,0,0,0,90.263-52.208Z" transform="translate(-200.545 -2164.488)" fill="#eceef0"/>
        </g>
      </g>
    </g>
    <g id="xecg82" transform="translate(3670.92 31.011)">
      <g id="Grupo_87871" data-name="Grupo 87871" transform="translate(-3428.253 989.049)">
        <path id="Trazado_139659" data-name="Trazado 139659" d="M-3406.213,1170.859q-2.48-1.312-4.96-2.623c-.643-.339-1.318-.628-1.93-1.015a1.756,1.756,0,0,0-1.753-.123c-3.13,1.22-6.281,2.39-9.429,3.564a2.786,2.786,0,0,1-3.784-1.544,2.79,2.79,0,0,1,1.85-3.647c3.682-1.394,7.373-2.762,11.043-4.187a3.538,3.538,0,0,1,3.164.222c2.938,1.579,5.9,3.116,8.86,4.652a1,1,0,0,0,.743.1,21.458,21.458,0,0,1,7.639-1.48c1.349-.07,2.707.053,4.061.041a.919.919,0,0,0,.654-.393c.389-.642.683-1.34,1.059-1.991a12.139,12.139,0,0,1,4.963-5.09c1.694-.862,3.256-1.982,4.9-2.948a2.393,2.393,0,0,1,3.085.469,2.426,2.426,0,0,1,.2,2.995,3.52,3.52,0,0,1-1,.886c-1.53.96-3.039,1.966-4.633,2.807a8.386,8.386,0,0,0-4.218,5.674,31.248,31.248,0,0,0-.616,4.612,20.83,20.83,0,0,1-4.033,10.242,5.308,5.308,0,0,1-1.524,1.2c-1.8,1.135-3.63,2.238-5.451,3.348a2.5,2.5,0,0,1-3.618-.675,2.467,2.467,0,0,1,1-3.486c1.639-1.023,3.311-1.995,4.921-3.061a4.921,4.921,0,0,0,1.435-1.456c.6-.972,1.056-2.036,1.634-3.183-.615-.069-1.1-.142-1.58-.173a20.118,20.118,0,0,0-9.067,1.379,14.524,14.524,0,0,1-3.458.641q-2.57.365-5.153.64a1.073,1.073,0,0,0-.948.7c-1.326,2.729-2.678,5.447-4.021,8.168a2.791,2.791,0,0,1-3.873,1.475,2.817,2.817,0,0,1-1.123-3.884c1.6-3.266,3.234-6.518,4.809-9.8a3.245,3.245,0,0,1,2.8-1.951c2.439-.274,4.871-.62,7.305-.936Z" transform="translate(3428.253 -1129.18)" fill="#12263f"/>
        <path id="Trazado_139660" data-name="Trazado 139660" d="M-3247.055,997.789l-14.94,24.683-.151-.045,3.324-14.869-7.185,1.774c.478-1.486.91-2.837,1.348-4.185,1.419-4.365,2.848-8.726,4.25-13.1a1.254,1.254,0,0,1,1.01-.93c2.23-.588,4.445-1.234,6.666-1.855.259-.072.524-.124.93-.218l-7.7,13.277Z" transform="translate(3290.45 -989.049)" fill="#12263f"/>
        <path id="Trazado_139661" data-name="Trazado 139661" d="M-3132.519,1235.275a5.279,5.279,0,0,1-5.241,5.3,5.3,5.3,0,0,1-5.315-5.231,5.292,5.292,0,0,1,5.214-5.331A5.266,5.266,0,0,1-3132.519,1235.275Z" transform="translate(3186.037 -1193.71)" fill="#12263f"/>
      </g>
    </g>
  </g>
</svg>
