<svg xmlns="http://www.w3.org/2000/svg" xmlns:xlink="http://www.w3.org/1999/xlink" width="104.852" height="104.852" viewBox="0 0 104.852 104.852">
  <defs>
    <radialGradient id="radial-gradient" cx="0.076" cy="0.019" r="1.465" gradientTransform="translate(0.001)" gradientUnits="objectBoundingBox">
      <stop offset="0" stop-color="#f6f6f7"/>
      <stop offset="0.477" stop-color="#f9f9fa"/>
      <stop offset="0.715" stop-color="#fff"/>
    </radialGradient>
  </defs>
  <g id="Grupo_50460" data-name="Grupo 50460" transform="translate(-217 -997)">
    <g id="Grupo_18531" data-name="Grupo 18531" transform="translate(217 997)">
      <g id="Grupo_18423" data-name="Grupo 18423" transform="translate(0 0)">
        <g id="Grupo_18421" data-name="Grupo 18421">
          <g id="Grupo_18420" data-name="Grupo 18420">
            <g id="Grupo_18419" data-name="Grupo 18419">
              <path id="Trazado_40936" data-name="Trazado 40936" d="M299.475,2198.146a52.426,52.426,0,1,1-52.425-52.424A52.425,52.425,0,0,1,299.475,2198.146Z" transform="translate(-194.623 -2145.721)" fill="#fff"/>
            </g>
          </g>
        </g>
        <path id="Trazado_40937" data-name="Trazado 40937" d="M298.99,2197.617a52.425,52.425,0,1,0-52.425,52.427A52.219,52.219,0,0,0,298.99,2197.617Z" transform="translate(-194.138 -2145.192)" fill="url(#radial-gradient)"/>
        <path id="Trazado_40938" data-name="Trazado 40938" d="M282.3,2193.357a40.016,40.016,0,1,0-40.016,40.016A39.868,39.868,0,0,0,282.3,2193.357Z" transform="translate(-189.698 -2140.758)" fill="none" stroke="#7d6eb2" stroke-miterlimit="10" stroke-width="4"/>
        <g id="Grupo_18422" data-name="Grupo 18422" transform="translate(9.288 29.433)">
          <path id="Trazado_40939" data-name="Trazado 40939" d="M290.808,2164.488a52.432,52.432,0,0,1-90.263,52.208,52.266,52.266,0,0,0,90.263-52.208Z" transform="translate(-200.545 -2164.488)" fill="#eceef0"/>
        </g>
      </g>
    </g>
    <g id="VCUzbV.tif" transform="translate(879.34 611.061)">
      <g id="Grupo_87964" data-name="Grupo 87964" transform="translate(-633.143 416.226)">
        <path id="Trazado_139827" data-name="Trazado 139827" d="M-581.773,505.256c-1.647-.938-1.721-2.353-.333-3.672,1.874-1.781,3.654-3.66,5.471-5.5q4.138-4.191,8.278-8.38a.843.843,0,0,0,.262-.928c-.386-1.473-.716-2.961-1.09-4.438a2.085,2.085,0,0,0-.393-.846,18.217,18.217,0,0,1-4.026-9.413c-.416-2.584-.613-5.2-.906-7.807-.014-.127-.016-.255-.029-.464l-2.446.238-.381-1.977c.836-.091,1.62-.188,2.407-.255.26-.022.39-.079.431-.372.154-1.08.45-1.4,1.275-1.447.908-.054,1.27.245,1.568,1.3a.863.863,0,0,0,.05.131h16.345c.582-1.4.875-1.664,1.791-1.528.853.126,1.167.562,1.33,1.875l2.636.327-.356,1.963-2.448-.244c-.135,1.234-.255,2.432-.4,3.627a35.552,35.552,0,0,1-3.724,12.883,4.691,4.691,0,0,0-.334,1.442c-.184,1.1-.345,2.2-.521,3.33q2.814,1.037,5.6,2.064c.7.258,1.4.513,2.084.79a1.6,1.6,0,0,1,1.212,2.072c-.254,1.71-.523,3.418-.8,5.125q-.585,3.662-1.189,7.321a9.227,9.227,0,0,1-.225.976,2.382,2.382,0,0,1-1.552,1.812H-553.3a2.023,2.023,0,0,1-1.194-1.629,5.156,5.156,0,0,1-.074-1.276c.21-2.388.448-4.774.674-7.16.091-.958.176-1.916.263-2.868a3.023,3.023,0,0,0-.315-.1c-2.665-.5-5.331-.982-7.992-1.5a.987.987,0,0,0-.9.254q-7.021,5.728-14.058,11.437c-1.22.986-2.5,1.894-3.759,2.838Zm10.474-41.7a3.912,3.912,0,0,0,.025.448c.481,2.594.911,5.2,1.468,7.777a12.634,12.634,0,0,0,2.2,5.079,5.206,5.206,0,0,0,8.432.046,12.489,12.489,0,0,0,1.6-3.038,33.292,33.292,0,0,0,1.587-7.115c.154-1.039.284-2.082.433-3.182A135.791,135.791,0,0,0-571.3,463.555Z" transform="translate(588.684 -454.979)" fill="#12263f"/>
        <path id="Trazado_139828" data-name="Trazado 139828" d="M-267.936,420.116c-.3,1.492-.6,2.982-.886,4.475-.521,2.737-1.022,5.478-1.547,8.214a2.91,2.91,0,0,1-3.533,2.482q-1.266-.2-2.523-.452a2.868,2.868,0,0,1-2.263-3.329q1.176-6.413,2.387-12.82a2.913,2.913,0,0,1,3.448-2.331c.805.138,1.609.289,2.414.427a3.153,3.153,0,0,1,2.5,2.327Z" transform="translate(318.393 -416.299)" fill="#12263f"/>
        <path id="Trazado_139829" data-name="Trazado 139829" d="M-627.52,435.259a2.95,2.95,0,0,1-3.177-2.368q-1.211-6.411-2.4-12.827a2.811,2.811,0,0,1,2.144-3.249c.961-.215,1.93-.4,2.9-.553a2.815,2.815,0,0,1,3.248,2.3q1.246,6.433,2.442,12.875a2.836,2.836,0,0,1-1.784,3.135,4.33,4.33,0,0,1-.751.206C-625.861,434.96-626.829,435.133-627.52,435.259Z" transform="translate(633.143 -416.226)" fill="#12263f"/>
        <path id="Trazado_139830" data-name="Trazado 139830" d="M-439.7,540.83a4,4,0,0,1,4.032,4.036,4.039,4.039,0,0,1-4.052,4.033,4.038,4.038,0,0,1-4-4.024A4,4,0,0,1-439.7,540.83Z" transform="translate(464.923 -526.887)" fill="#12263f"/>
      </g>
      <path id="Trazado_139831" data-name="Trazado 139831" d="M-536.994,240.688l-3.569.377-.03-.275,3.568-.385Z" transform="translate(-50.504 210.52)" fill="#12263f"/>
      <path id="Trazado_139832" data-name="Trazado 139832" d="M-566.379,194.1q.119-1.569.238-3.138l.274.02q-.114,1.572-.228,3.144Z" transform="translate(-27.686 254.271)" fill="#12263f"/>
      <path id="Trazado_139833" data-name="Trazado 139833" d="M-559.858,202.281l-.923,2.078-.259-.118.914-2.081Z" transform="translate(-32.411 244.363)" fill="#12263f"/>
      <path id="Trazado_139834" data-name="Trazado 139834" d="M-559.858,202.281l-.923,2.078-.259-.118.914-2.081Z" transform="translate(-30.287 654.191) rotate(40)" fill="#12263f"/>
      <path id="Trazado_139835" data-name="Trazado 139835" d="M-559.858,202.281l-.923,2.078-.259-.118.914-2.081Z" transform="translate(3.367 407.494) rotate(16)" fill="#12263f"/>
    </g>
  </g>
</svg>
