<svg xmlns="http://www.w3.org/2000/svg" xmlns:xlink="http://www.w3.org/1999/xlink" width="183.348" height="183.348" viewBox="0 0 183.348 183.348">
  <defs>
    <radialGradient id="radial-gradient" cx="0.076" cy="0.019" r="1.465" gradientTransform="translate(0.001)" gradientUnits="objectBoundingBox">
      <stop offset="0" stop-color="#f6f6f7"/>
      <stop offset="0.477" stop-color="#f9f9fa"/>
      <stop offset="0.715" stop-color="#fff"/>
    </radialGradient>
  </defs>
  <g id="Grupo_49869" data-name="Grupo 49869" transform="translate(0 0.001)">
    <g id="Grupo_18531" data-name="Grupo 18531" transform="translate(0 0)">
      <g id="Grupo_18423" data-name="Grupo 18423" transform="translate(0 0)">
        <g id="Grupo_18421" data-name="Grupo 18421">
          <g id="Grupo_18420" data-name="Grupo 18420">
            <g id="Grupo_18419" data-name="Grupo 18419">
              <path id="Trazado_40936" data-name="Trazado 40936" d="M377.97,2237.392a91.673,91.673,0,1,1-91.672-91.671A91.672,91.672,0,0,1,377.97,2237.392Z" transform="translate(-194.623 -2145.721)" fill="#fff"/>
            </g>
          </g>
        </g>
        <path id="Trazado_40937" data-name="Trazado 40937" d="M376.482,2235.77a91.671,91.671,0,1,0-91.672,91.676A91.311,91.311,0,0,0,376.482,2235.77Z" transform="translate(-193.135 -2144.099)" fill="url(#radial-gradient)"/>
        <path id="Trazado_40938" data-name="Trazado 40938" d="M341.45,2222.48a69.974,69.974,0,1,0-69.974,69.974A69.714,69.714,0,0,0,341.45,2222.48Z" transform="translate(-179.525 -2130.503)" fill="none" stroke="#00223d" stroke-miterlimit="10" stroke-width="4"/>
        <g id="Grupo_18422" data-name="Grupo 18422" transform="translate(16.241 51.468)">
          <path id="Trazado_40939" data-name="Trazado 40939" d="M358.381,2164.488a91.684,91.684,0,0,1-157.836,91.294,91.393,91.393,0,0,0,157.836-91.294Z" transform="translate(-200.545 -2164.488)" fill="#eceef0"/>
        </g>
      </g>
    </g>
    <g id="Grupo_77977" data-name="Grupo 77977" transform="translate(-2758.174 -716.032)">
      <path id="Trazado_138579" data-name="Trazado 138579" d="M3022.316,805.081c-1.056,1.024-1.937,1.949-2.9,2.784a10.016,10.016,0,0,1-2.2,1.542c-3.9,1.849-7.83,3.624-11.743,5.442a3.81,3.81,0,0,1-2.7.381,3.181,3.181,0,0,1-.552-5.928c1.229-.636,2.5-1.18,3.762-1.758,2.71-1.247,5.425-2.483,8.127-3.746a3.662,3.662,0,0,0,1.027-.729q4.5-4.544,8.971-9.114a4.864,4.864,0,0,1,4.368-1.5c.7,4.636,3.17,7.8,7.938,8.528,4.468.68,7.709-1.378,9.843-5.355l2.763.856c0-.392.012-.694,0-.995q-.215-4.671-.437-9.342a3.224,3.224,0,0,1,2.585-3.515,3.145,3.145,0,0,1,3.806,3.07c.222,4.6.424,9.209.635,13.813.017.373.044.745.063,1.117a3.208,3.208,0,0,1-4.339,3.35c-3.248-1.031-6.487-2.091-9.73-3.137-.149-.048-.3-.087-.538-.155-.025.272-.063.493-.062.713q.085,8.393.19,16.786a2.42,2.42,0,0,0,.284,1.053c2.212,4.192,4.405,8.4,6.691,12.549a13.275,13.275,0,0,1,1.14,4.94c.86,6.576,1.671,13.158,2.511,19.737a4.481,4.481,0,1,1-8.882,1.16q-1.355-10.582-2.709-21.164a3.176,3.176,0,0,0-.339-1.049q-2.382-4.525-4.795-9.034c-.476-.893-1-1.174-1.7-.93s-.94.8-.809,1.776q.877,6.533,1.755,13.066a4.691,4.691,0,0,1-.908,3.537q-6.3,8.613-12.58,17.234a4.484,4.484,0,0,1-6.343,1.166,4.567,4.567,0,0,1-.917-6.413q5.471-7.582,11.026-15.1a2.372,2.372,0,0,0,.5-1.9c-.875-6.17-1.854-12.332-2.486-18.529-.39-3.829-.236-7.714-.313-11.574C3022.3,807.54,3022.316,806.377,3022.316,805.081Z" transform="translate(-162.723 -13.805)" fill="#12263f"/>
      <path id="Trazado_138580" data-name="Trazado 138580" d="M2864.489,865.28a4.566,4.566,0,0,0-1.538,4.513,4.383,4.383,0,0,0,4.1,3.435c1.484.053,2.972.01,4.581.01-.275,1.817-.505,3.388-.751,4.956-.667,4.262-1.347,8.522-1.991,12.787a.9.9,0,0,0,.371.665c2.691,1.959,5.352,3.965,8.117,5.816a5.564,5.564,0,0,1,2.708,5.367c-.421,8.435-.722,16.876-1.079,25.314a4.484,4.484,0,0,1-7.521,3.193,4.362,4.362,0,0,1-1.441-3.583q.485-11.539.994-23.078a1.051,1.051,0,0,0-.5-1.051q-5.911-4.166-11.8-8.366c-.5-.355-.978-.739-1.475-1.1A5.421,5.421,0,0,1,2855,888.5c.922-5.921,1.816-11.846,2.744-17.766a6.421,6.421,0,0,1,5.773-5.447C2863.774,865.257,2864.031,865.28,2864.489,865.28Z" transform="translate(-40.467 -83.284)" fill="#12263f"/>
      <path id="Trazado_138581" data-name="Trazado 138581" d="M2813.975,1039.831c2.115,2.357,4.849,3.795,7.266,5.64a.958.958,0,0,1,.44,1.124q-3.046,14.454-6.067,28.914a4.475,4.475,0,1,1-8.773-1.761q3.471-16.69,6.988-33.37C2813.865,1040.206,2813.919,1040.039,2813.975,1039.831Z" transform="translate(0 -229.931)" fill="#12263f"/>
      <path id="Trazado_138582" data-name="Trazado 138582" d="M2923.522,834.954c-2.66-.1-5.321-.185-7.981-.294a3.2,3.2,0,1,1,.193-6.39c4.71.138,9.419.332,14.129.455a3.191,3.191,0,0,0,1.627-.443q5.624-3.352,11.2-6.787a3.416,3.416,0,0,1,2.814-.52,3.2,3.2,0,0,1,.778,5.842c-2.948,1.812-5.909,3.6-8.865,5.4-1.319.8-2.6,1.673-3.972,2.376a5.29,5.29,0,0,1-2.338.584c-2.528,0-5.055-.143-7.583-.23Z" transform="translate(-88.727 -45.973)" fill="#12263f"/>
      <path id="Trazado_138583" data-name="Trazado 138583" d="M2929.6,781.119c-1.25,0-2.5.053-3.748-.026a2.748,2.748,0,0,1-1.5-.555,8.209,8.209,0,1,1,10.175.46,2.128,2.128,0,0,1-1.093.346c-1.275.042-2.553.016-3.83.016Z" transform="translate(-96.415)" fill="#12263f"/>
      <path id="Trazado_138584" data-name="Trazado 138584" d="M3200.093,799.124a7.948,7.948,0,1,1-7.825-8.024A7.949,7.949,0,0,1,3200.093,799.124Z" transform="translate(-317.1 -20.973)" fill="#12263f"/>
    </g>
  </g>
</svg>
