<svg xmlns="http://www.w3.org/2000/svg" xmlns:xlink="http://www.w3.org/1999/xlink" width="104.852" height="104.852" viewBox="0 0 104.852 104.852">
  <defs>
    <radialGradient id="radial-gradient" cx="0.076" cy="0.019" r="1.465" gradientTransform="translate(0.001)" gradientUnits="objectBoundingBox">
      <stop offset="0" stop-color="#f6f6f7"/>
      <stop offset="0.477" stop-color="#f9f9fa"/>
      <stop offset="0.715" stop-color="#fff"/>
    </radialGradient>
  </defs>
  <g id="Grupo_50460" data-name="Grupo 50460" transform="translate(-217 -997)">
    <g id="Grupo_18531" data-name="Grupo 18531" transform="translate(217 997)">
      <g id="Grupo_18423" data-name="Grupo 18423" transform="translate(0 0)">
        <g id="Grupo_18421" data-name="Grupo 18421">
          <g id="Grupo_18420" data-name="Grupo 18420">
            <g id="Grupo_18419" data-name="Grupo 18419">
              <path id="Trazado_40936" data-name="Trazado 40936" d="M299.475,2198.146a52.426,52.426,0,1,1-52.425-52.424A52.425,52.425,0,0,1,299.475,2198.146Z" transform="translate(-194.623 -2145.721)" fill="#fff"/>
            </g>
          </g>
        </g>
        <path id="Trazado_40937" data-name="Trazado 40937" d="M298.99,2197.617a52.425,52.425,0,1,0-52.425,52.427A52.219,52.219,0,0,0,298.99,2197.617Z" transform="translate(-194.138 -2145.192)" fill="url(#radial-gradient)"/>
        <path id="Trazado_40938" data-name="Trazado 40938" d="M282.3,2193.357a40.016,40.016,0,1,0-40.016,40.016A39.868,39.868,0,0,0,282.3,2193.357Z" transform="translate(-189.698 -2140.758)" fill="none" stroke="#7d6eb2" stroke-miterlimit="10" stroke-width="4"/>
        <g id="Grupo_18422" data-name="Grupo 18422" transform="translate(9.288 29.433)">
          <path id="Trazado_40939" data-name="Trazado 40939" d="M290.808,2164.488a52.432,52.432,0,0,1-90.263,52.208,52.266,52.266,0,0,0,90.263-52.208Z" transform="translate(-200.545 -2164.488)" fill="#eceef0"/>
        </g>
      </g>
    </g>
    <g id="Grupo_77968" data-name="Grupo 77968" transform="translate(-364.997 411.722)">
      <path id="Trazado_138566" data-name="Trazado 138566" d="M646.814,677.3c2.685-.371,4.582,1.134,4.435,3.581a6.394,6.394,0,0,1-.9,2.044c-.1.222-.237.432-.356.647a2.189,2.189,0,0,0,.751.077,11.14,11.14,0,0,1,9.769,1.673,32.177,32.177,0,0,1,3.167,2.939l-.247.459a7.291,7.291,0,0,1-1.868-.571,11.507,11.507,0,0,0-9.93-1.367c.186.4.36.719.486,1.055.216.576.517.743,1.19.625a9.272,9.272,0,0,1,10.357,5.637,9.334,9.334,0,0,1-15.587,9.762,9.321,9.321,0,0,1-.333-12.083,2.06,2.06,0,0,1,.258-.2c.56,1.155,1.13,2.279,1.64,3.43a1.328,1.328,0,0,1-.093.8,5.709,5.709,0,0,0,2.71,6.861,5.647,5.647,0,0,0,7.213-1.417,5.547,5.547,0,0,0,.544-6.5,5.455,5.455,0,0,0-5.733-2.737c.19.4.364.786.552,1.165.633,1.279,1.276,2.554,1.9,3.836a1.581,1.581,0,0,1-.649,1.953,1.247,1.247,0,0,1-1.771-.158,13,13,0,0,1-1.3-2.026c-1.44-2.786-2.842-5.591-4.309-8.491a9.152,9.152,0,0,0-4.306,5.211,23.92,23.92,0,0,0-.588,3.48c-.1.707-.054,1.433-.165,2.136a2.694,2.694,0,0,1-2.71,2.485c-4.106.057-8.214.024-12.321.03-.846,0-1.041-.545-1.047-1.235-.01-1.264,0-2.528,0-3.906-1.143.311-2.119.58-3.1.843q-4,1.072-8,2.14a1.953,1.953,0,1,1-1.077-3.754c1.4-.413,2.819-.767,4.229-1.149.267-.072.53-.16.9-.274a5.372,5.372,0,0,0-3.238-2.27,5.691,5.691,0,0,0-6.157,2.3,5.473,5.473,0,0,0,.025,6.647,5.662,5.662,0,0,0,8.442,1.008,15.69,15.69,0,0,0,1.306-1.535c.1-.114.2-.271.325-.3,1.212-.321,2.429-.62,3.9-.99a26.77,26.77,0,0,1-1,2.745,9.331,9.331,0,1,1-10.119-13.439,9.127,9.127,0,0,1,9.376,3.654c1.044,1.344,1.011,1.37,2.752.612a11.153,11.153,0,0,0-7.076-6.044,11.4,11.4,0,0,0-9.36,1.3c0-1.194-.031-2.236.01-3.276.029-.721.517-1.019,1.2-1.024,1.493-.011,2.987-.016,4.48-.023.368,0,.736,0,1.084,0,.348-1.711.767-2.142,1.967-1.976a1.018,1.018,0,0,1,.7.534,4.5,4.5,0,0,0,3.3,3.007c1.864.486,3.727.978,5.6,1.407.57.13.839.329.637.965l1.7.379.659-2.428c-1.544-.376-3.013-.725-4.477-1.094-1.175-.3-2.342-.623-3.516-.922a3.014,3.014,0,0,1-2.346-2.595,25.068,25.068,0,0,1,1.061-12.595,11.892,11.892,0,0,1,1.24-2.683,1.832,1.832,0,0,1,2.259-.849,4.487,4.487,0,0,0,.826.138,8.423,8.423,0,0,1,5.439,2.943,32.061,32.061,0,0,0,2.912,3.137,3.873,3.873,0,0,0,1.958.568c1.412.19,2.841.255,4.252.453a4.872,4.872,0,0,1,1.2.595c.479.224,1.01.657,1.451.584,1.216-.2,1.691.541,2.143,1.378C645.922,675.485,646.348,676.379,646.814,677.3Zm-17.661-4.929c-.375,1.65-.679,3.141-1.068,4.609a.731.731,0,0,0,.46,1.01c1.989,1.025,3.915,2.184,5.948,3.109a2.91,2.91,0,0,1,1.733,4.027c-1.064,3.246-2.173,6.477-3.29,9.706-.229.661-.571,1.283-.906,2.02l1.5.923a12.37,12.37,0,0,0,.812-1.55q1.78-5.053,3.5-10.126c.681-2,.659-3.917-.828-5.582a2.811,2.811,0,0,1,3.552-.54c.2.131.448.379.628.344a5.865,5.865,0,0,1,3.884.857c-.614-1.261-1.18-2.291-1.622-3.372a1.751,1.751,0,0,0-2.086-1.2c-.907.1-1.829.09-2.328-.932a.5.5,0,0,0-.4-.182c-1.3.057-2.6.189-3.9.183a3.386,3.386,0,0,1-1.779-.435C631.69,674.4,630.5,673.405,629.153,672.376Z" transform="translate(0 -45.316)" fill="#12263f"/>
      <path id="Trazado_138567" data-name="Trazado 138567" d="M702.662,617.289c-.123.333-.16.448-.207.56-.952,2.271-.956,2.185-3.274,1.49-2.222-.666-4.507-1.14-6.786-1.587a1.217,1.217,0,0,1-1.1-.906,5.889,5.889,0,0,1,1.162-6.021,5.562,5.562,0,0,1,5.79-1.639,6.558,6.558,0,0,1,4.276,2.762,2.828,2.828,0,0,1,.48,1.1,6.063,6.063,0,0,1-.1,1.345c-.371-.054-.744-.1-1.113-.167a4.157,4.157,0,0,1-.437-.159c-.523-.16-1.035-.675-1.561.051-.473.653-1.022,1.395-.472,2.1a3.9,3.9,0,0,0,1.811.848A9.116,9.116,0,0,0,702.662,617.289Z" transform="translate(-68.651)" fill="#12263f"/>
    </g>
  </g>
</svg>
