<svg xmlns="http://www.w3.org/2000/svg" xmlns:xlink="http://www.w3.org/1999/xlink" width="461.331" height="153.741" viewBox="0 0 461.331 153.741">
  <defs>
    <radialGradient id="radial-gradient" cx="0.076" cy="0.019" r="1.465" gradientTransform="translate(0.001)" gradientUnits="objectBoundingBox">
      <stop offset="0" stop-color="#f6f6f7"/>
      <stop offset="0.477" stop-color="#f9f9fa"/>
      <stop offset="0.715" stop-color="#fff"/>
    </radialGradient>
  </defs>
  <g id="Grupo_88468" data-name="Grupo 88468" transform="translate(-808.271 -8955.309)">
    <path id="Minimize_your_develo" data-name="Minimize your develo" d="M10,10.992V15H7.66V3.625H12.1a5.134,5.134,0,0,1,2.254.469,3.454,3.454,0,0,1,1.5,1.332,3.714,3.714,0,0,1,.523,1.965,3.266,3.266,0,0,1-1.145,2.637,4.767,4.767,0,0,1-3.168.965Zm0-1.9H12.1a2.059,2.059,0,0,0,1.418-.437A1.591,1.591,0,0,0,14,7.406a1.876,1.876,0,0,0-.492-1.352,1.839,1.839,0,0,0-1.359-.531H10Zm7.375,1.6a5.013,5.013,0,0,1,.484-2.242A3.546,3.546,0,0,1,19.257,6.93a4.069,4.069,0,0,1,2.113-.539,3.849,3.849,0,0,1,2.793,1.047,4.2,4.2,0,0,1,1.207,2.844l.016.578A4.418,4.418,0,0,1,24.3,13.98a3.775,3.775,0,0,1-2.914,1.176,3.793,3.793,0,0,1-2.918-1.172,4.5,4.5,0,0,1-1.09-3.187Zm2.258.16A3.16,3.16,0,0,0,20.09,12.7a1.628,1.628,0,0,0,2.578.008,3.457,3.457,0,0,0,.461-2.015,3.128,3.128,0,0,0-.461-1.831,1.5,1.5,0,0,0-1.3-.649,1.474,1.474,0,0,0-1.281.646A3.516,3.516,0,0,0,19.636,10.856ZM29.16,15H26.894V3H29.16ZM33.4,15H31.136V6.547H33.4ZM31,4.359a1.112,1.112,0,0,1,.34-.836,1.465,1.465,0,0,1,1.848,0,1.105,1.105,0,0,1,.344.836,1.108,1.108,0,0,1-.348.844,1.448,1.448,0,0,1-1.836,0A1.108,1.108,0,0,1,31,4.359Zm7.773,8.977a1.481,1.481,0,0,0,1.016-.344,1.2,1.2,0,0,0,.406-.914h2.117a2.9,2.9,0,0,1-.469,1.574,3.093,3.093,0,0,1-1.262,1.109,3.949,3.949,0,0,1-1.77.395A3.67,3.67,0,0,1,35.957,14,4.56,4.56,0,0,1,34.91,10.82v-.148a4.508,4.508,0,0,1,1.039-3.117A3.627,3.627,0,0,1,38.8,6.391a3.555,3.555,0,0,1,2.543.9,3.2,3.2,0,0,1,.973,2.4H40.2a1.551,1.551,0,0,0-.406-1.072,1.51,1.51,0,0,0-2.223.163,3.333,3.333,0,0,0-.4,1.866v.235a3.375,3.375,0,0,0,.4,1.878A1.377,1.377,0,0,0,38.777,13.336ZM45.988,15H43.722V6.547h2.266ZM43.59,4.359a1.112,1.112,0,0,1,.34-.836,1.465,1.465,0,0,1,1.848,0,1.105,1.105,0,0,1,.344.836,1.108,1.108,0,0,1-.348.844,1.448,1.448,0,0,1-1.836,0A1.108,1.108,0,0,1,43.59,4.359ZM52.746,15a2.507,2.507,0,0,1-.227-.758,2.732,2.732,0,0,1-2.133.914,3,3,0,0,1-2.059-.719,2.312,2.312,0,0,1-.816-1.812,2.389,2.389,0,0,1,1-2.062,4.915,4.915,0,0,1,2.879-.727h1.039V9.352a1.393,1.393,0,0,0-.3-.937,1.183,1.183,0,0,0-.949-.352,1.345,1.345,0,0,0-.895.273.929.929,0,0,0-.324.75H47.7a2.268,2.268,0,0,1,.453-1.359,3,3,0,0,1,1.281-.98,4.669,4.669,0,0,1,1.859-.355,3.689,3.689,0,0,1,2.48.785,2.747,2.747,0,0,1,.918,2.207v3.664a4.041,4.041,0,0,0,.336,1.82V15Zm-1.867-1.57a1.945,1.945,0,0,0,.922-.223,1.462,1.462,0,0,0,.625-.6V11.156h-.844q-1.7,0-1.8,1.172l-.008.133a.9.9,0,0,0,.3.7A1.153,1.153,0,0,0,50.879,13.43Z" transform="translate(829.457 9066.722)" fill="#12263f"/>
    <path id="Minimize_your_develo-2" data-name="Minimize your develo" d="M2.32,15V3.625H6.3a5.232,5.232,0,0,1,3.141.793,2.712,2.712,0,0,1,1.07,2.324,2.57,2.57,0,0,1-.43,1.473,2.482,2.482,0,0,1-1.2.934,2.4,2.4,0,0,1,1.379.883,2.61,2.61,0,0,1,.5,1.625,3,3,0,0,1-1.047,2.484A4.713,4.713,0,0,1,6.742,15Zm2.344-4.953v3.07H6.672a1.938,1.938,0,0,0,1.293-.395,1.353,1.353,0,0,0,.465-1.09,1.428,1.428,0,0,0-1.617-1.586Zm0-1.656H6.4q1.773-.031,1.773-1.414a1.307,1.307,0,0,0-.449-1.113A2.363,2.363,0,0,0,6.3,5.523H4.664Zm7.367,2.3a5.013,5.013,0,0,1,.484-2.242A3.546,3.546,0,0,1,13.91,6.93a4.069,4.069,0,0,1,2.113-.539,3.849,3.849,0,0,1,2.793,1.047,4.2,4.2,0,0,1,1.207,2.844l.016.578a4.418,4.418,0,0,1-1.086,3.121,3.775,3.775,0,0,1-2.914,1.176,3.793,3.793,0,0,1-2.918-1.172,4.5,4.5,0,0,1-1.09-3.187Zm2.258.16a3.16,3.16,0,0,0,.453,1.843,1.628,1.628,0,0,0,2.578.008,3.457,3.457,0,0,0,.461-2.015A3.128,3.128,0,0,0,17.32,8.86a1.5,1.5,0,0,0-1.3-.649,1.474,1.474,0,0,0-1.281.646A3.516,3.516,0,0,0,14.289,10.856Zm9.258-4.309.07.945a2.971,2.971,0,0,1,2.43-1.1A2.255,2.255,0,0,1,28.289,7.68a2.9,2.9,0,0,1,2.539-1.289,2.521,2.521,0,0,1,2.047.8,3.681,3.681,0,0,1,.672,2.41V15H31.281V9.6A1.616,1.616,0,0,0,31,8.544a1.245,1.245,0,0,0-.992-.333,1.409,1.409,0,0,0-1.406.971L28.609,15H26.351V9.6a1.6,1.6,0,0,0-.289-1.065,1.257,1.257,0,0,0-.984-.329,1.463,1.463,0,0,0-1.391.8V15H21.429V6.547Zm19.352,4.3a5.119,5.119,0,0,1-.867,3.168,2.872,2.872,0,0,1-2.422,1.137,2.639,2.639,0,0,1-2.2-1.055l-.1.9H35.281V3h2.258V7.3a2.571,2.571,0,0,1,2.055-.914,2.9,2.9,0,0,1,2.426,1.137,5.126,5.126,0,0,1,.879,3.2Zm-2.258-.172A3.381,3.381,0,0,0,40.234,8.8a1.372,1.372,0,0,0-1.211-.592,1.489,1.489,0,0,0-1.484.885v3.346a1.509,1.509,0,0,0,1.5.893,1.4,1.4,0,0,0,1.438-1.081A5.6,5.6,0,0,0,40.64,10.679Zm7.539,4.477a4.15,4.15,0,0,1-3.027-1.141,4.054,4.054,0,0,1-1.168-3.039v-.219a5.106,5.106,0,0,1,.492-2.277,3.612,3.612,0,0,1,1.395-1.547,3.914,3.914,0,0,1,2.059-.543,3.508,3.508,0,0,1,2.73,1.094,4.444,4.444,0,0,1,1,3.1v.922H46.273a2.1,2.1,0,0,0,.66,1.328,2,2,0,0,0,1.395.5,2.437,2.437,0,0,0,2.039-.945l1.109,1.242A3.389,3.389,0,0,1,50.1,14.754,4.511,4.511,0,0,1,48.179,15.156Zm-.258-6.945a1.411,1.411,0,0,0-1.09.455,2.357,2.357,0,0,0-.535,1.3h3.141V9.788a1.681,1.681,0,0,0-.406-1.165A1.456,1.456,0,0,0,47.922,8.211Zm9.766.453a6.134,6.134,0,0,0-.812-.062,1.654,1.654,0,0,0-1.68.867V15H52.937V6.547H55.07l.063,1.008a2.092,2.092,0,0,1,1.883-1.164,2.366,2.366,0,0,1,.7.1ZM58.14,10.7a5.013,5.013,0,0,1,.484-2.242A3.546,3.546,0,0,1,60.019,6.93a4.069,4.069,0,0,1,2.113-.539,3.849,3.849,0,0,1,2.793,1.047,4.2,4.2,0,0,1,1.207,2.844l.016.578a4.418,4.418,0,0,1-1.086,3.121,4.209,4.209,0,0,1-5.832,0A4.5,4.5,0,0,1,58.14,10.8Zm2.258.16a3.16,3.16,0,0,0,.453,1.843,1.628,1.628,0,0,0,2.578.008,3.457,3.457,0,0,0,.461-2.015,3.128,3.128,0,0,0-.461-1.831,1.5,1.5,0,0,0-1.3-.649,1.474,1.474,0,0,0-1.281.646A3.516,3.516,0,0,0,60.4,10.856Zm11.719,1.808a.727.727,0,0,0-.41-.652,4.659,4.659,0,0,0-1.316-.426q-3.016-.633-3.016-2.562a2.323,2.323,0,0,1,.934-1.879,3.766,3.766,0,0,1,2.441-.754,4.053,4.053,0,0,1,2.574.758,2.388,2.388,0,0,1,.965,1.969H72.031a1.092,1.092,0,0,0-.312-.8A1.322,1.322,0,0,0,70.742,8a1.351,1.351,0,0,0-.883.258.814.814,0,0,0-.312.656.7.7,0,0,0,.355.605,3.657,3.657,0,0,0,1.2.4,9.8,9.8,0,0,1,1.422.379,2.336,2.336,0,0,1,1.789,2.273,2.2,2.2,0,0,1-.992,1.871,4.28,4.28,0,0,1-2.562.715,4.47,4.47,0,0,1-1.887-.379,3.166,3.166,0,0,1-1.293-1.039,2.414,2.414,0,0,1-.469-1.426H69.25a1.179,1.179,0,0,0,.445.922,1.766,1.766,0,0,0,1.109.32,1.635,1.635,0,0,0,.98-.246A.766.766,0,0,0,72.117,12.664Z" transform="translate(941.384 9066.722)" fill="#12263f"/>
    <path id="Minimize_your_develo-3" data-name="Minimize your develo" d="M7,3.625l2.922,8.25,2.906-8.25H15.9V15H13.55V11.891l.234-5.367L10.715,15H9.105L6.043,6.531l.234,5.359V15H3.933V3.625ZM17.449,10.7a5.013,5.013,0,0,1,.484-2.242A3.546,3.546,0,0,1,19.328,6.93a4.069,4.069,0,0,1,2.113-.539,3.849,3.849,0,0,1,2.793,1.047,4.2,4.2,0,0,1,1.207,2.844l.016.578a4.418,4.418,0,0,1-1.086,3.121,3.775,3.775,0,0,1-2.914,1.176,3.793,3.793,0,0,1-2.918-1.172,4.5,4.5,0,0,1-1.09-3.187Zm2.258.16A3.16,3.16,0,0,0,20.16,12.7a1.628,1.628,0,0,0,2.578.008,3.457,3.457,0,0,0,.461-2.015,3.128,3.128,0,0,0-.461-1.831,1.5,1.5,0,0,0-1.3-.649,1.474,1.474,0,0,0-1.281.646A3.516,3.516,0,0,0,19.707,10.856Zm10.188,1.387,1.57-5.7h2.359L30.972,15H28.816L25.965,6.547h2.359ZM37.2,15H34.933V6.547H37.2ZM34.8,4.359a1.112,1.112,0,0,1,.34-.836,1.465,1.465,0,0,1,1.848,0,1.105,1.105,0,0,1,.344.836,1.108,1.108,0,0,1-.348.844,1.448,1.448,0,0,1-1.836,0A1.108,1.108,0,0,1,34.8,4.359ZM41.441,15H39.175V3h2.266Zm4.242,0H43.418V6.547h2.266Zm-2.4-10.641a1.112,1.112,0,0,1,.34-.836,1.465,1.465,0,0,1,1.848,0,1.105,1.105,0,0,1,.344.836,1.108,1.108,0,0,1-.348.844,1.448,1.448,0,0,1-1.836,0A1.108,1.108,0,0,1,43.285,4.359Zm3.906,6.352a5.094,5.094,0,0,1,.887-3.148A2.877,2.877,0,0,1,50.5,6.391a2.589,2.589,0,0,1,2.039.922V3h2.266V15H52.769l-.109-.9a2.657,2.657,0,0,1-2.172,1.055,2.869,2.869,0,0,1-2.395-1.176A5.258,5.258,0,0,1,47.191,10.711Zm2.258.161a3.355,3.355,0,0,0,.414,1.829,1.348,1.348,0,0,0,1.2.636,1.51,1.51,0,0,0,1.477-.887V9.1a1.489,1.489,0,0,0-1.461-.887Q49.449,8.211,49.449,10.872ZM61.457,15a2.507,2.507,0,0,1-.227-.758,2.732,2.732,0,0,1-2.133.914,3,3,0,0,1-2.059-.719,2.312,2.312,0,0,1-.816-1.812,2.389,2.389,0,0,1,1-2.062A4.915,4.915,0,0,1,60.1,9.836h1.039V9.352a1.393,1.393,0,0,0-.3-.937,1.183,1.183,0,0,0-.949-.352,1.345,1.345,0,0,0-.895.273.929.929,0,0,0-.324.75H56.41a2.268,2.268,0,0,1,.453-1.359,3,3,0,0,1,1.281-.98A4.669,4.669,0,0,1,60,6.391a3.689,3.689,0,0,1,2.48.785A2.747,2.747,0,0,1,63.4,9.383v3.664a4.041,4.041,0,0,0,.336,1.82V15ZM59.59,13.43a1.945,1.945,0,0,0,.922-.223,1.462,1.462,0,0,0,.625-.6V11.156h-.844q-1.7,0-1.8,1.172l-.008.133a.9.9,0,0,0,.3.7A1.153,1.153,0,0,0,59.59,13.43Zm5.2-2.719a5.094,5.094,0,0,1,.887-3.148A2.877,2.877,0,0,1,68.1,6.391a2.589,2.589,0,0,1,2.039.922V3H72.4V15H70.363l-.109-.9a2.657,2.657,0,0,1-2.172,1.055,2.869,2.869,0,0,1-2.395-1.176A5.258,5.258,0,0,1,64.785,10.711Zm2.258.161a3.355,3.355,0,0,0,.414,1.829,1.348,1.348,0,0,0,1.2.636,1.51,1.51,0,0,0,1.477-.887V9.1a1.489,1.489,0,0,0-1.461-.887Q67.043,8.211,67.043,10.872Z" transform="translate(1065.311 9066.722)" fill="#12263f"/>
    <path id="Minimize_your_develo-4" data-name="Minimize your develo" d="M24.789,13.563A4.068,4.068,0,0,1,23,14.738a7.492,7.492,0,0,1-2.562.418,5.076,5.076,0,0,1-2.59-.645,4.3,4.3,0,0,1-1.719-1.871,6.585,6.585,0,0,1-.621-2.883V8.984a6.994,6.994,0,0,1,.574-2.949,4.248,4.248,0,0,1,1.656-1.906,4.771,4.771,0,0,1,2.535-.66,4.751,4.751,0,0,1,3.164.965,4.123,4.123,0,0,1,1.352,2.809H22.507a2.268,2.268,0,0,0-.691-1.43,2.208,2.208,0,0,0-1.473-.453,2.078,2.078,0,0,0-1.82.9A4.724,4.724,0,0,0,17.89,8.93v.727a4.5,4.5,0,0,0,.68,2.7,2.327,2.327,0,0,0,1.992.914,2.6,2.6,0,0,0,1.883-.562V10.75H20.312V9.023h4.477Zm5.641,1.594A4.15,4.15,0,0,1,27.4,14.016a4.054,4.054,0,0,1-1.168-3.039v-.219a5.106,5.106,0,0,1,.492-2.277,3.612,3.612,0,0,1,1.395-1.547,3.914,3.914,0,0,1,2.059-.543,3.508,3.508,0,0,1,2.73,1.094,4.444,4.444,0,0,1,1,3.1v.922H28.523a2.1,2.1,0,0,0,.66,1.328,2,2,0,0,0,1.395.5,2.437,2.437,0,0,0,2.039-.945l1.109,1.242a3.389,3.389,0,0,1-1.375,1.121A4.511,4.511,0,0,1,30.429,15.156Zm-.258-6.945a1.411,1.411,0,0,0-1.09.455,2.357,2.357,0,0,0-.535,1.3h3.141V9.788a1.681,1.681,0,0,0-.406-1.165A1.456,1.456,0,0,0,30.172,8.211Zm9.594,4.453a.727.727,0,0,0-.41-.652,4.659,4.659,0,0,0-1.316-.426q-3.016-.633-3.016-2.562a2.323,2.323,0,0,1,.934-1.879A3.766,3.766,0,0,1,38.4,6.391a4.053,4.053,0,0,1,2.574.758,2.388,2.388,0,0,1,.965,1.969H39.679a1.092,1.092,0,0,0-.312-.8A1.322,1.322,0,0,0,38.39,8a1.351,1.351,0,0,0-.883.258.814.814,0,0,0-.312.656.7.7,0,0,0,.355.605,3.657,3.657,0,0,0,1.2.4,9.8,9.8,0,0,1,1.422.379,2.336,2.336,0,0,1,1.789,2.273,2.2,2.2,0,0,1-.992,1.871,4.28,4.28,0,0,1-2.562.715,4.47,4.47,0,0,1-1.887-.379,3.166,3.166,0,0,1-1.293-1.039,2.414,2.414,0,0,1-.469-1.426H36.9a1.179,1.179,0,0,0,.445.922,1.766,1.766,0,0,0,1.109.32,1.635,1.635,0,0,0,.98-.246A.766.766,0,0,0,39.765,12.664Zm6.352-8.2V6.547h1.445V8.2H46.117v4.219a1.007,1.007,0,0,0,.18.672.9.9,0,0,0,.688.2,3.6,3.6,0,0,0,.664-.055v1.711a4.648,4.648,0,0,1-1.367.2,2.156,2.156,0,0,1-2.422-2.4V8.2H42.625V6.547h1.234V4.469ZM51.2,15H48.937V6.547H51.2ZM48.8,4.359a1.112,1.112,0,0,1,.34-.836,1.465,1.465,0,0,1,1.848,0,1.105,1.105,0,0,1,.344.836,1.108,1.108,0,0,1-.348.844,1.448,1.448,0,0,1-1.836,0A1.108,1.108,0,0,1,48.8,4.359ZM52.711,10.7a5.013,5.013,0,0,1,.484-2.242A3.546,3.546,0,0,1,54.59,6.93,4.069,4.069,0,0,1,56.7,6.391,3.849,3.849,0,0,1,59.5,7.438,4.2,4.2,0,0,1,60.7,10.281l.016.578a4.418,4.418,0,0,1-1.086,3.121,4.209,4.209,0,0,1-5.832,0,4.5,4.5,0,0,1-1.09-3.187Zm2.258.16a3.16,3.16,0,0,0,.453,1.843A1.628,1.628,0,0,0,58,12.706a3.457,3.457,0,0,0,.461-2.015A3.128,3.128,0,0,0,58,8.86a1.5,1.5,0,0,0-1.3-.649,1.474,1.474,0,0,0-1.281.646A3.516,3.516,0,0,0,54.968,10.856ZM57.148,3h2.461L57.445,5.422H55.609Zm7.039,3.547.07.977a2.951,2.951,0,0,1,2.43-1.133,2.453,2.453,0,0,1,2,.789,3.682,3.682,0,0,1,.672,2.359V15H67.1V9.581a1.47,1.47,0,0,0-.312-1.045,1.4,1.4,0,0,0-1.039-.325,1.553,1.553,0,0,0-1.43.814V15H62.062V6.547ZM74.7,10.711a5.094,5.094,0,0,1,.887-3.148,2.877,2.877,0,0,1,2.426-1.172,2.589,2.589,0,0,1,2.039.922V3H82.32V15H80.281l-.109-.9A2.657,2.657,0,0,1,78,15.156a2.869,2.869,0,0,1-2.395-1.176A5.258,5.258,0,0,1,74.7,10.711Zm2.258.161a3.355,3.355,0,0,0,.414,1.829,1.348,1.348,0,0,0,1.2.636,1.51,1.51,0,0,0,1.477-.887V9.1a1.489,1.489,0,0,0-1.461-.887Q76.961,8.211,76.961,10.872Zm11,4.285a4.15,4.15,0,0,1-3.027-1.141,4.054,4.054,0,0,1-1.168-3.039v-.219a5.106,5.106,0,0,1,.492-2.277,3.612,3.612,0,0,1,1.395-1.547,3.914,3.914,0,0,1,2.059-.543,3.508,3.508,0,0,1,2.73,1.094,4.444,4.444,0,0,1,1,3.1v.922H86.054a2.1,2.1,0,0,0,.66,1.328,2,2,0,0,0,1.395.5,2.437,2.437,0,0,0,2.039-.945l1.109,1.242a3.389,3.389,0,0,1-1.375,1.121A4.511,4.511,0,0,1,87.961,15.156ZM87.7,8.211a1.411,1.411,0,0,0-1.09.455,2.357,2.357,0,0,0-.535,1.3h3.141V9.788a1.681,1.681,0,0,0-.406-1.165A1.456,1.456,0,0,0,87.7,8.211ZM29.672,34.836H27.8V39H25.461V27.625h4.227a4.778,4.778,0,0,1,3.109.9,3.1,3.1,0,0,1,1.094,2.539,3.5,3.5,0,0,1-.5,1.941,3.437,3.437,0,0,1-1.527,1.238l2.461,4.648V39H31.8Zm-1.867-1.9h1.891a1.936,1.936,0,0,0,1.367-.449,1.606,1.606,0,0,0,.484-1.238,1.719,1.719,0,0,0-.457-1.266,1.9,1.9,0,0,0-1.4-.461H27.8ZM37.906,39H35.64V30.547h2.266Zm-2.4-10.641a1.112,1.112,0,0,1,.34-.836,1.465,1.465,0,0,1,1.848,0,1.193,1.193,0,0,1,0,1.68,1.448,1.448,0,0,1-1.836,0A1.108,1.108,0,0,1,35.507,28.359Zm8.148,10.8a4.15,4.15,0,0,1-3.027-1.141,4.054,4.054,0,0,1-1.168-3.039v-.219a5.106,5.106,0,0,1,.492-2.277,3.612,3.612,0,0,1,1.395-1.547,3.914,3.914,0,0,1,2.059-.543,3.508,3.508,0,0,1,2.73,1.094,4.444,4.444,0,0,1,1,3.1v.922H41.75a2.1,2.1,0,0,0,.66,1.328,2,2,0,0,0,1.395.5,2.437,2.437,0,0,0,2.039-.945l1.109,1.242a3.389,3.389,0,0,1-1.375,1.121A4.511,4.511,0,0,1,43.656,39.156ZM43.4,32.211a1.411,1.411,0,0,0-1.09.455,2.357,2.357,0,0,0-.535,1.3h3.141v-.181a1.681,1.681,0,0,0-.406-1.165A1.456,1.456,0,0,0,43.4,32.211Zm9.594,4.453a.727.727,0,0,0-.41-.652,4.659,4.659,0,0,0-1.316-.426q-3.016-.633-3.016-2.562a2.323,2.323,0,0,1,.934-1.879,3.766,3.766,0,0,1,2.441-.754,4.053,4.053,0,0,1,2.574.758,2.388,2.388,0,0,1,.965,1.969H52.906a1.092,1.092,0,0,0-.312-.8A1.322,1.322,0,0,0,51.617,32a1.351,1.351,0,0,0-.883.258.814.814,0,0,0-.312.656.7.7,0,0,0,.355.605,3.657,3.657,0,0,0,1.2.4A9.8,9.8,0,0,1,53.4,34.3a2.336,2.336,0,0,1,1.789,2.273,2.205,2.205,0,0,1-.992,1.871,4.28,4.28,0,0,1-2.562.715,4.47,4.47,0,0,1-1.887-.379,3.166,3.166,0,0,1-1.293-1.039,2.414,2.414,0,0,1-.469-1.426h2.141a1.179,1.179,0,0,0,.445.922,1.766,1.766,0,0,0,1.109.32,1.635,1.635,0,0,0,.98-.246A.766.766,0,0,0,52.992,36.664Zm3.32-1.953a4.954,4.954,0,0,1,.926-3.133,3,3,0,0,1,2.5-1.187,2.631,2.631,0,0,1,2.164.953l.094-.8h2.047v8.172a3.613,3.613,0,0,1-.5,1.93,3.236,3.236,0,0,1-1.418,1.25,4.985,4.985,0,0,1-2.141.43,4.635,4.635,0,0,1-1.812-.371A3.217,3.217,0,0,1,56.828,41l1-1.375a2.645,2.645,0,0,0,2.047.945,1.936,1.936,0,0,0,1.4-.48,1.8,1.8,0,0,0,.5-1.363v-.453a2.612,2.612,0,0,1-2.055.883,2.992,2.992,0,0,1-2.465-1.191,4.953,4.953,0,0,1-.941-3.16Zm2.258.161a3.1,3.1,0,0,0,.461,1.809,1.465,1.465,0,0,0,1.266.655,1.567,1.567,0,0,0,1.477-.777V32.988a1.563,1.563,0,0,0-1.461-.777,1.474,1.474,0,0,0-1.277.667A3.5,3.5,0,0,0,58.57,34.872Zm6.852-.176a5.013,5.013,0,0,1,.484-2.242A3.546,3.546,0,0,1,67.3,30.93a4.069,4.069,0,0,1,2.113-.539,3.849,3.849,0,0,1,2.793,1.047,4.2,4.2,0,0,1,1.207,2.844l.016.578a4.418,4.418,0,0,1-1.086,3.121,4.209,4.209,0,0,1-5.832,0,4.5,4.5,0,0,1-1.09-3.187Zm2.258.16a3.16,3.16,0,0,0,.453,1.843,1.628,1.628,0,0,0,2.578.008,3.457,3.457,0,0,0,.461-2.015,3.128,3.128,0,0,0-.461-1.831,1.5,1.5,0,0,0-1.3-.649,1.474,1.474,0,0,0-1.281.646A3.516,3.516,0,0,0,67.679,34.856ZM79.4,36.664a.727.727,0,0,0-.41-.652,4.659,4.659,0,0,0-1.316-.426q-3.016-.633-3.016-2.562a2.323,2.323,0,0,1,.934-1.879,3.766,3.766,0,0,1,2.441-.754,4.053,4.053,0,0,1,2.574.758,2.388,2.388,0,0,1,.965,1.969H79.312a1.092,1.092,0,0,0-.312-.8A1.322,1.322,0,0,0,78.023,32a1.351,1.351,0,0,0-.883.258.814.814,0,0,0-.312.656.7.7,0,0,0,.355.605,3.657,3.657,0,0,0,1.2.4A9.8,9.8,0,0,1,79.8,34.3a2.336,2.336,0,0,1,1.789,2.273,2.2,2.2,0,0,1-.992,1.871,4.28,4.28,0,0,1-2.562.715,4.47,4.47,0,0,1-1.887-.379,3.166,3.166,0,0,1-1.293-1.039,2.414,2.414,0,0,1-.469-1.426h2.141a1.179,1.179,0,0,0,.445.922,1.766,1.766,0,0,0,1.109.32,1.635,1.635,0,0,0,.98-.246A.766.766,0,0,0,79.4,36.664Z" transform="translate(1164.978 9066.722)" fill="#12263f"/>
    <g id="Grupo_87594" data-name="Grupo 87594" transform="translate(808.271 8955.309)">
      <g id="Grupo_18531" data-name="Grupo 18531" transform="translate(0 0)">
        <g id="Grupo_18423" data-name="Grupo 18423" transform="translate(0 0)">
          <g id="Grupo_18421" data-name="Grupo 18421">
            <g id="Grupo_18420" data-name="Grupo 18420">
              <g id="Grupo_18419" data-name="Grupo 18419">
                <path id="Trazado_40936" data-name="Trazado 40936" d="M299.247,2198.031a52.312,52.312,0,1,1-52.311-52.31A52.311,52.311,0,0,1,299.247,2198.031Z" transform="translate(-194.623 -2145.721)" fill="#fff"/>
              </g>
            </g>
          </g>
          <path id="Trazado_40937" data-name="Trazado 40937" d="M298.764,2197.505a52.311,52.311,0,1,0-52.311,52.313A52.1,52.1,0,0,0,298.764,2197.505Z" transform="translate(-194.14 -2145.195)" fill="url(#radial-gradient)"/>
          <path id="Trazado_40938" data-name="Trazado 40938" d="M282.128,2193.272A39.93,39.93,0,1,0,242.2,2233.2,39.781,39.781,0,0,0,282.128,2193.272Z" transform="translate(-189.728 -2140.787)" fill="none" stroke="#00223d" stroke-miterlimit="10" stroke-width="4"/>
          <g id="Grupo_18422" data-name="Grupo 18422" transform="translate(9.268 29.369)">
            <path id="Trazado_40939" data-name="Trazado 40939" d="M290.612,2164.488a52.318,52.318,0,0,1-90.067,52.1,52.152,52.152,0,0,0,90.067-52.1Z" transform="translate(-200.545 -2164.488)" fill="#eceef0"/>
          </g>
        </g>
      </g>
      <g id="OhjwJj.tif" transform="translate(-78.106 -508.931)">
        <g id="Grupo_87598" data-name="Grupo 87598" transform="translate(109.283 536)">
          <path id="Trazado_139373" data-name="Trazado 139373" d="M109.283,873.9c.1-.927.165-1.858.3-2.779a13.739,13.739,0,0,1,3.285-7.6,8.711,8.711,0,0,1,3.319-2.227c2.032-.78,4.076-1.527,6.108-2.307a.927.927,0,0,1,.959.11c1.265.88,2.545,1.738,3.815,2.609.587.4.6.649.09,1.164-.635.636-1.272,1.27-1.945,1.942.747.746,1.466,1.461,2.182,2.179.5.5.51.658.086,1.209-.57.741-1.127,1.494-1.723,2.213a.61.61,0,0,0-.062.779c.915,1.833,1.809,3.678,2.723,5.512a.669.669,0,0,1-.053.845H109.677a3.258,3.258,0,0,1-.277-.682c-.071-.424-.081-.859-.116-1.29Z" transform="translate(-109.283 -827.061)" fill="#12263f"/>
          <path id="Trazado_139374" data-name="Trazado 139374" d="M343.2,878.691c-.372-.22-.324-.5-.154-.835.894-1.771,1.761-3.556,2.673-5.318a.8.8,0,0,0-.113-1.029c-.571-.676-1.094-1.394-1.634-2.1-.441-.573-.435-.655.062-1.155l2.214-2.222c-.674-.672-1.324-1.316-1.969-1.965-.453-.457-.43-.752.091-1.109,1.285-.88,2.563-1.771,3.868-2.619a1.1,1.1,0,0,1,.848-.137c2.169.787,4.335,1.584,6.477,2.442a9.5,9.5,0,0,1,5.325,5.748,22.16,22.16,0,0,1,1.178,9.744,1.691,1.691,0,0,1-.269.55Z" transform="translate(-319.877 -828.205)" fill="#12263f"/>
          <path id="Trazado_139375" data-name="Trazado 139375" d="M193.946,536a17.717,17.717,0,0,1,2.243,1.468,11.031,11.031,0,0,0,6.47,2.668c.407.04.815.065,1.223.1,1.067.09,1.477.516,1.713,1.556a19.936,19.936,0,0,0,.84,2.806,5.923,5.923,0,0,0,.9,1.221c.369.5.355.678-.085,1.087-.6.558-1.214,1.1-1.806,1.671a.585.585,0,0,1-.739.123,27.363,27.363,0,0,0-22.266-.062.76.76,0,0,1-.936-.145c-.635-.594-1.271-1.187-1.919-1.766a.559.559,0,0,1-.06-.923,7.487,7.487,0,0,0,1.873-4.039c.2-1.07.847-1.477,2.076-1.546a12.326,12.326,0,0,0,4.9-1.09,23.389,23.389,0,0,0,2.3-1.485q1.243-.818,2.483-1.641Z" transform="translate(-172.398 -536)" fill="#12263f"/>
          <path id="Trazado_139376" data-name="Trazado 139376" d="M225.2,733.447a10.986,10.986,0,0,1-10.611-9.214,19.055,19.055,0,0,1-.121-2.6.676.676,0,0,1,.277-.509.577.577,0,0,1,.514.13,10.612,10.612,0,0,0,6.276,2.656,28.717,28.717,0,0,0,7.942-.058,11.622,11.622,0,0,0,5.442-2.1,6.5,6.5,0,0,1,.6-.5.868.868,0,0,1,.58-.115c.1.024.194.287.2.446a11.141,11.141,0,0,1-8.068,11.32A29.622,29.622,0,0,1,225.2,733.447Z" transform="translate(-204.092 -702.845)" fill="#12263f"/>
          <path id="Trazado_139377" data-name="Trazado 139377" d="M235.369,687.68a17.754,17.754,0,0,1-6.077-.723,6.521,6.521,0,0,1-3.445-2.317c-.322-.45-.265-.671.232-.919a18.843,18.843,0,0,1,6.655-1.76,23.922,23.922,0,0,1,8.864.674,28.051,28.051,0,0,1,3.161,1.189c.525.218.539.406.2.856a6.634,6.634,0,0,1-3.3,2.2A17.577,17.577,0,0,1,235.369,687.68Z" transform="translate(-214.173 -667.445)" fill="#12263f"/>
          <path id="Trazado_139378" data-name="Trazado 139378" d="M296.317,892.9c.8,1.016,1.553,1.989,2.332,2.938a.829.829,0,0,1,.123,1.013c-.822,1.75-1.6,3.523-2.417,5.274-.109.232-.391.533-.589.53s-.471-.308-.581-.542c-.841-1.8-1.643-3.61-2.476-5.409a.843.843,0,0,1,.124-.992c.763-.942,1.507-1.9,2.3-2.9-.713-.712-1.418-1.414-2.12-2.117-.527-.527-.526-.628,0-1.156.753-.755,1.513-1.5,2.257-2.267a.547.547,0,0,1,.915,0c.767.787,1.553,1.556,2.324,2.338a.682.682,0,0,1,.005,1.106C297.8,891.437,297.073,892.151,296.317,892.9Z" transform="translate(-274.526 -852.413)" fill="#12263f"/>
          <path id="Trazado_139379" data-name="Trazado 139379" d="M224.319,651.17a30.135,30.135,0,0,1,10.94,2.181.691.691,0,0,1,.332.51,2.415,2.415,0,0,1-.153.865c-.106.326-.3.456-.679.291a25.675,25.675,0,0,0-12.267-1.821,21.547,21.547,0,0,0-7.969,1.927c-.343.164-.53-.062-.63-.337a5.542,5.542,0,0,1-.16-.769.572.572,0,0,1,.425-.716,29.246,29.246,0,0,1,7.835-1.953C222.872,651.257,223.756,651.212,224.319,651.17Z" transform="translate(-203.416 -639.814)" fill="#12263f"/>
        </g>
      </g>
    </g>
    <g id="Grupo_87597" data-name="Grupo 87597" transform="translate(1046.075 8955.309)">
      <g id="Grupo_18531-2" data-name="Grupo 18531" transform="translate(0 0)">
        <g id="Grupo_18423-2" data-name="Grupo 18423" transform="translate(0 0)">
          <g id="Grupo_18421-2" data-name="Grupo 18421">
            <g id="Grupo_18420-2" data-name="Grupo 18420">
              <g id="Grupo_18419-2" data-name="Grupo 18419">
                <path id="Trazado_40936-2" data-name="Trazado 40936" d="M299.247,2198.031a52.312,52.312,0,1,1-52.311-52.31A52.311,52.311,0,0,1,299.247,2198.031Z" transform="translate(-194.623 -2145.721)" fill="#fff"/>
              </g>
            </g>
          </g>
          <path id="Trazado_40937-2" data-name="Trazado 40937" d="M298.764,2197.505a52.311,52.311,0,1,0-52.311,52.313A52.1,52.1,0,0,0,298.764,2197.505Z" transform="translate(-194.14 -2145.195)" fill="url(#radial-gradient)"/>
          <path id="Trazado_40938-2" data-name="Trazado 40938" d="M282.128,2193.272A39.93,39.93,0,1,0,242.2,2233.2,39.781,39.781,0,0,0,282.128,2193.272Z" transform="translate(-189.728 -2140.787)" fill="none" stroke="#00223d" stroke-miterlimit="10" stroke-width="4"/>
          <g id="Grupo_18422-2" data-name="Grupo 18422" transform="translate(9.268 29.369)">
            <path id="Trazado_40939-2" data-name="Trazado 40939" d="M290.612,2164.488a52.318,52.318,0,0,1-90.067,52.1,52.152,52.152,0,0,0,90.067-52.1Z" transform="translate(-200.545 -2164.488)" fill="#eceef0"/>
          </g>
        </g>
      </g>
      <g id="Grupo_87600" data-name="Grupo 87600" transform="translate(287.799 -1073.209)">
        <path id="Trazado_139386" data-name="Trazado 139386" d="M-224.687,1187.7h-41.386v-.685c0-2.258.009-4.516-.008-6.774,0-.438.047-.721.572-.778a1.756,1.756,0,0,0,1.517-1.369c1.406-3.895,2.887-7.763,4.306-11.653a1.491,1.491,0,0,1,1.419-1.142c3.076-.377,6.136-.878,9.205-1.314a28.5,28.5,0,0,1,8.074.076q4.543.65,9.079,1.346a.8.8,0,0,1,.536.415c1.591,4.186,3.179,8.374,4.712,12.581a1.5,1.5,0,0,0,1.329,1.015c.522.1.7.335.69.892-.038,2.257-.015,4.516-.017,6.774C-224.66,1187.285-224.677,1187.482-224.687,1187.7Zm-35.832-9.814.1.222a71.958,71.958,0,0,1,30.206.014c-.074-.307-.089-.425-.13-.533-1.116-2.973-2.226-5.948-3.37-8.91a.9.9,0,0,0-.618-.42q-2.741-.446-5.493-.826a28.182,28.182,0,0,0-7.282-.425c-3.077.373-6.144.823-9.219,1.216a.926.926,0,0,0-.856.692c-.766,2.1-1.561,4.182-2.343,6.272C-259.857,1176.089-260.187,1176.99-260.519,1177.889Zm30.325,8.036a2.6,2.6,0,0,0,2.606-2.6,2.7,2.7,0,0,0-2.647-2.6,2.725,2.725,0,0,0-2.614,2.642A2.612,2.612,0,0,0-230.195,1185.925Zm-30.344,0a2.556,2.556,0,0,0,2.616-2.634,2.653,2.653,0,0,0-2.6-2.569,2.6,2.6,0,0,0-2.6,2.609A2.5,2.5,0,0,0-260.538,1185.925Z" transform="translate(0 -54.573)" fill="#12263f"/>
        <path id="Trazado_139387" data-name="Trazado 139387" d="M-224.23,1369.536v3.171h-1.561c0,1.494,0,2.923,0,4.352,0,1.444-.566,2.006-2.016,2.009-.887,0-1.774.009-2.661,0a1.59,1.59,0,0,1-1.709-1.695c-.019-1.33-.007-2.661-.008-3.992,0-.2,0-.392,0-.638h-25.488c0,1.023,0,2.005,0,2.987,0,.6.012,1.21-.005,1.814a1.473,1.473,0,0,1-1.479,1.513q-1.662.044-3.326,0a1.533,1.533,0,0,1-1.53-1.612c-.02-1.35-.006-2.7-.007-4.052,0-.2,0-.395,0-.65h-1.534v-3.206Z" transform="translate(-0.463 -235.467)" fill="#12263f"/>
        <path id="Trazado_139388" data-name="Trazado 139388" d="M146.466,1299.573h-.8c0,.265,0,.5,0,.736q0,6.047,0,12.094c0,.483-.023.966-.042,1.449a2,2,0,0,1-1.994,2,2.058,2.058,0,0,1-2.131-1.891,3.413,3.413,0,0,1-.01-.362q0-7.621,0-15.241c0-.136.023-.272.037-.433h5.876v1.842h1.065v-1.781c.463-.014.463-.014.463.686,0,.358,0,.717,0,1.106h1.084c0-.49-.009-.968,0-1.445.01-.408.021-.407.517-.378a.554.554,0,0,1,.053.163c0,2.8-.014,5.6-.013,8.406q0,3.536.026,7.072a2.012,2.012,0,0,1-1.243,2.085,2.061,2.061,0,0,1-2.9-1.95c-.01-4.435,0-8.871,0-13.306C146.466,1300.165,146.466,1299.9,146.466,1299.573Z" transform="translate(-358.253 -172.522)" fill="#12263f"/>
        <path id="Trazado_139389" data-name="Trazado 139389" d="M143.28,1111.967a3.832,3.832,0,0,1-3.79-4.232,1.187,1.187,0,0,0-.326-.811c-1.045-1.126-.991-1.091-.475-2.545a2.276,2.276,0,0,1,1.553-1.477c.9-.33,1.764-.778,2.653-1.153a.891.891,0,0,1,.607-.07c1.242.519,2.473,1.065,3.7,1.625a.875.875,0,0,1,.387.413,17.39,17.39,0,0,1,.694,1.734.778.778,0,0,1-.122.613c-.252.334-.606.593-.855.929a1.2,1.2,0,0,0-.241.733A3.828,3.828,0,0,1,143.28,1111.967Zm3.652-5.44c.087-.43-.233-.586-.538-.737a7.327,7.327,0,0,0-4.016-.507,10.706,10.706,0,0,0-2.264.543c-.234.075-.391.39-.584.595A9.99,9.99,0,0,1,146.932,1106.527Zm-2.832-3c-.429-.756-1-.9-1.422-.414a5.049,5.049,0,0,1-.638.534c1.023.885,1.412.886,2.636-.12Z" transform="translate(-355.47)" fill="#12263f"/>
        <path id="Trazado_139390" data-name="Trazado 139390" d="M184.534,1191.13l-.71-1.257-.121.047-.048.813a8.376,8.376,0,0,1-1.313-.154c-.153-.041-.311-.336-.336-.532-.178-1.4-.322-2.795-.477-4.2a3.66,3.66,0,0,1,3.782,1.444,17.193,17.193,0,0,1,2.706,5.091,1.351,1.351,0,0,1-1.531,1.74c-1.523-.149-3.042-.345-4.562-.522-.5-.058-1-.122-1.5-.178a1.345,1.345,0,0,1-1.294-1.435,1.32,1.32,0,0,1,1.507-1.228c.984.073,1.963.2,2.945.3C183.839,1191.085,184.1,1191.1,184.534,1191.13Z" transform="translate(-391.327 -73.93)" fill="#12263f"/>
        <path id="Trazado_139391" data-name="Trazado 139391" d="M154.319,1197.071l-5.859.767-1.014-8.1,5.893-.734.59,4.352c-.335-.034-.6-.054-.873-.089a1.783,1.783,0,0,0-2.1,1.432,1.725,1.725,0,0,0,1.7,1.933c.564.062,1.126.144,1.689.216Z" transform="translate(-363.484 -76.78)" fill="#12263f"/>
        <path id="Trazado_139392" data-name="Trazado 139392" d="M142.532,1239.561c.136,1,.272,1.991.417,3.051.87-.114,1.7-.229,2.529-.329,1.14-.137,2.284-.245,3.42-.407a2.6,2.6,0,0,0,.738-.374l-.059-.193,1.034.148v2.279c0,.625.011,1.251-.01,1.875,0,.125-.131.245-.2.368-.122-.07-.242-.144-.366-.211-.2-.106-.394-.283-.594-.288-.166,0-.338.194-.505.306-.088.059-.17.126-.254.19l-.283-.5h-.9l-.128.511h-5.83c-.014-.239-.035-.431-.035-.624q0-2.329,0-4.658C141.5,1239.8,141.573,1239.72,142.532,1239.561Z" transform="translate(-358.255 -121.221)" fill="#12263f"/>
        <path id="Trazado_139393" data-name="Trazado 139393" d="M109.268,1186.079l-3.148.362a14.306,14.306,0,0,0,.206,1.537c.1.431-.06.621-.422.772-.427.178-.839.392-1.257.59l.106.231,1.685-.671c.108.856.224,1.666.3,2.48a.513.513,0,0,1-.252.4c-1.26.577-2.522,1.153-3.805,1.678a1.347,1.347,0,0,1-1.716-1.748,12.274,12.274,0,0,1,3.594-5.126,4.846,4.846,0,0,1,4.7-.669Z" transform="translate(-322.53 -73.786)" fill="#12263f"/>
        <path id="Trazado_139399" data-name="Trazado 139399" d="M-70.471,1208.707a3.8,3.8,0,0,1,3.763-3.7,3.767,3.767,0,0,1,3.685,3.71,3.746,3.746,0,0,1-3.778,3.732A3.78,3.78,0,0,1-70.471,1208.707Z" transform="translate(-171.938 -90.844)" fill="#12263f"/>
      </g>
    </g>
    <g id="Grupo_87595" data-name="Grupo 87595" transform="translate(927.173 8955.309)">
      <g id="Grupo_18531-3" data-name="Grupo 18531" transform="translate(0 0)">
        <g id="Grupo_18423-3" data-name="Grupo 18423" transform="translate(0 0)">
          <g id="Grupo_18421-3" data-name="Grupo 18421">
            <g id="Grupo_18420-3" data-name="Grupo 18420">
              <g id="Grupo_18419-3" data-name="Grupo 18419">
                <path id="Trazado_40936-3" data-name="Trazado 40936" d="M299.247,2198.031a52.312,52.312,0,1,1-52.311-52.31A52.311,52.311,0,0,1,299.247,2198.031Z" transform="translate(-194.623 -2145.721)" fill="#fff"/>
              </g>
            </g>
          </g>
          <path id="Trazado_40937-3" data-name="Trazado 40937" d="M298.764,2197.505a52.311,52.311,0,1,0-52.311,52.313A52.1,52.1,0,0,0,298.764,2197.505Z" transform="translate(-194.14 -2145.195)" fill="url(#radial-gradient)"/>
          <path id="Trazado_40938-3" data-name="Trazado 40938" d="M282.128,2193.272A39.93,39.93,0,1,0,242.2,2233.2,39.781,39.781,0,0,0,282.128,2193.272Z" transform="translate(-189.728 -2140.787)" fill="none" stroke="#00223d" stroke-miterlimit="10" stroke-width="4"/>
          <g id="Grupo_18422-3" data-name="Grupo 18422" transform="translate(9.268 29.369)">
            <path id="Trazado_40939-3" data-name="Trazado 40939" d="M290.612,2164.488a52.318,52.318,0,0,1-90.067,52.1,52.152,52.152,0,0,0,90.067-52.1Z" transform="translate(-200.545 -2164.488)" fill="#eceef0"/>
          </g>
        </g>
      </g>
      <g id="JuGuCu.tif" transform="translate(296.094 -581.4)">
        <g id="Grupo_87599" data-name="Grupo 87599" transform="translate(-265.76 605.573)">
          <path id="Trazado_139380" data-name="Trazado 139380" d="M-249.316,868.135h-16.442v-.717q0-4.947,0-9.894a5.853,5.853,0,0,1,2.712-5.142,35.2,35.2,0,0,1,10.032-4.8.738.738,0,0,1,.646.124,5.834,5.834,0,0,0,2.611,2,.677.677,0,0,1,.49.721q-.022,8.616-.012,17.233C-249.281,867.811-249.3,867.959-249.316,868.135Zm-14.333-3.481h6.1v-1.993h-6.1Z" transform="translate(265.76 -815.858)" fill="#12263f"/>
          <path id="Trazado_139381" data-name="Trazado 139381" d="M-39.725,867.884H-56.207v-.678q0-8.449-.014-16.9a.8.8,0,0,1,.562-.87,5.5,5.5,0,0,0,2.54-1.984.593.593,0,0,1,.526-.164,30.407,30.407,0,0,1,10.413,5,6.047,6.047,0,0,1,2.461,5.089c-.028,3.231-.007,6.462-.007,9.694ZM-53.43,853.861l.2.039a6.945,6.945,0,0,1-.017,1.5,2.892,2.892,0,0,0,1.457,3.493,2.2,2.2,0,0,0,1.128.421,3.182,3.182,0,0,0,2.523-3.517c-.148-.673-.325-1.307.094-1.819l-.812-.974a1.5,1.5,0,0,1-1.714.118.336.336,0,0,0-.29-.014,1.5,1.5,0,0,1-1.7-.072Zm11.587,10.558V862.46h-6.089v1.959Z" transform="translate(83.673 -815.611)" fill="#12263f"/>
          <path id="Trazado_139382" data-name="Trazado 139382" d="M-219.856,626.308a9.039,9.039,0,0,1-3.553-2.4,2.4,2.4,0,0,1-.024-3.239,10.406,10.406,0,0,1,4.246-2.84.971.971,0,0,0,.719-.9,10.832,10.832,0,0,1,4.956-8.156c.214-.143.443-.264.722-.428.362,1.9.713,3.741,1.063,5.58.016.086.024.173.043.258.1.467.368.769.873.653.475-.109.573-.483.489-.923q-.4-2.121-.808-4.242-.177-.932-.349-1.865a1.744,1.744,0,0,1,1.63-2.181c1.545-.062,3.1-.063,4.64,0a1.719,1.719,0,0,1,1.6,2.139q-.556,2.991-1.132,5.979c-.094.49-.114.942.486,1.1.469.123.772-.188.9-.868.35-1.859.7-3.718,1.066-5.646a11.019,11.019,0,0,1,5.47,7.246,1.481,1.481,0,0,1,.092.447c-.112,1.25.594,1.77,1.661,2.215a11.067,11.067,0,0,1,2.745,1.741c1.707,1.421,1.708,3.129,0,4.54a28.479,28.479,0,0,1-2.764,1.815l-.174-.144c.051-.211.1-.424.153-.633a10.378,10.378,0,0,0,.41-4.2.911.911,0,0,0-.6-.815,24.428,24.428,0,0,0-7.3-1.9,37.8,37.8,0,0,0-13.442.636c-1.263.3-2.475.819-3.716,1.217a1.029,1.029,0,0,0-.741,1.074,11.442,11.442,0,0,0,.436,4.013C-220.007,625.755-219.958,625.941-219.856,626.308Z" transform="translate(229.515 -605.573)" fill="#12263f"/>
          <path id="Trazado_139383" data-name="Trazado 139383" d="M-170.873,731.376a11.02,11.02,0,0,1-10.986-10.26.807.807,0,0,1,.618-.993,28.3,28.3,0,0,1,8.2-1.493,32.969,32.969,0,0,1,11.824,1.273c1.57.51,1.44.182,1.213,1.908A10.936,10.936,0,0,1-170.873,731.376Z" transform="translate(192.856 -703.767)" fill="#12263f"/>
          <path id="Trazado_139384" data-name="Trazado 139384" d="M-129.248,887.03v-17.7a16.384,16.384,0,0,0,8.175-.013V887.03Z" transform="translate(147.133 -834.767)" fill="#12263f"/>
          <path id="Trazado_139385" data-name="Trazado 139385" d="M-155.95,811.49c2.942,3.337,11.993,3.531,15.117,0a32.768,32.768,0,0,1-.046,3.7,2.328,2.328,0,0,1-.972,1.3,9.272,9.272,0,0,1-4.181,1.546,13.783,13.783,0,0,1-7.677-.852,8.562,8.562,0,0,1-.98-.517,2.245,2.245,0,0,1-1.277-2.3C-155.887,813.465-155.95,812.547-155.95,811.49Z" transform="translate(170.361 -784.512)" fill="#12263f"/>
        </g>
      </g>
    </g>
    <g id="Grupo_87596" data-name="Grupo 87596" transform="translate(1164.978 8955.309)">
      <g id="Grupo_18531-4" data-name="Grupo 18531" transform="translate(0 0)">
        <g id="Grupo_18423-4" data-name="Grupo 18423" transform="translate(0 0)">
          <g id="Grupo_18421-4" data-name="Grupo 18421">
            <g id="Grupo_18420-4" data-name="Grupo 18420">
              <g id="Grupo_18419-4" data-name="Grupo 18419">
                <path id="Trazado_40936-4" data-name="Trazado 40936" d="M299.247,2198.031a52.312,52.312,0,1,1-52.311-52.31A52.311,52.311,0,0,1,299.247,2198.031Z" transform="translate(-194.623 -2145.721)" fill="#fff"/>
              </g>
            </g>
          </g>
          <path id="Trazado_40937-4" data-name="Trazado 40937" d="M298.764,2197.505a52.311,52.311,0,1,0-52.311,52.313A52.1,52.1,0,0,0,298.764,2197.505Z" transform="translate(-194.14 -2145.195)" fill="url(#radial-gradient)"/>
          <path id="Trazado_40938-4" data-name="Trazado 40938" d="M282.128,2193.272A39.93,39.93,0,1,0,242.2,2233.2,39.781,39.781,0,0,0,282.128,2193.272Z" transform="translate(-189.728 -2140.787)" fill="none" stroke="#00223d" stroke-miterlimit="10" stroke-width="4"/>
          <g id="Grupo_18422-4" data-name="Grupo 18422" transform="translate(9.268 29.369)">
            <path id="Trazado_40939-4" data-name="Trazado 40939" d="M290.612,2164.488a52.318,52.318,0,0,1-90.067,52.1,52.152,52.152,0,0,0,90.067-52.1Z" transform="translate(-200.545 -2164.488)" fill="#eceef0"/>
          </g>
        </g>
      </g>
      <g id="yiuctu" transform="translate(-228.717 -947.026)">
        <g id="Grupo_87601" data-name="Grupo 87601" transform="translate(258.924 971)">
          <path id="Trazado_139400" data-name="Trazado 139400" d="M418.98,971a1.588,1.588,0,0,1,.989,1.683c-.02,2.7-.009,5.4-.01,8.107a1.107,1.107,0,1,0,2.2-.013q0-3.5,0-7.006v-.362c.551.232,1.071.407,1.549.661a9.016,9.016,0,0,1,4.03,4.563,11.846,11.846,0,0,1,.99,4.141.462.462,0,0,0,.33.469,2.86,2.86,0,0,1,1.641,2.009,9.748,9.748,0,0,1,.26,2.974c0,.076-.155.2-.254.216-1.159.232-2.314.494-3.482.661a70.533,70.533,0,0,1-13.429.52,55.783,55.783,0,0,1-7.381-.815c-.561-.1-1.116-.24-1.67-.377-.081-.02-.2-.129-.2-.2A9.02,9.02,0,0,1,404.9,985a2.791,2.791,0,0,1,1.643-1.783c.215-.083.221-.233.232-.408a11.918,11.918,0,0,1,1.323-4.862,8.492,8.492,0,0,1,4.851-4.369c.115-.039.233-.068.383-.112.007.117.018.212.018.308q0,3.5,0,7.006a1.107,1.107,0,1,0,2.2.013c0-2.7.011-5.405-.009-8.107a1.59,1.59,0,0,1,.989-1.682Z" transform="translate(-395.631 -971)" fill="#12263f"/>
          <path id="Trazado_139401" data-name="Trazado 139401" d="M303.107,1332.4H258.924c.085-.839.123-1.663.259-2.471a9.421,9.421,0,0,1,4.323-6.465,26.611,26.611,0,0,1,4.723-2.359q2.105-.866,4.182-1.8a4.891,4.891,0,0,0,1.808-1.382,1.633,1.633,0,0,0,.4-1.058c0-1.06.038-2.12.048-3.18a.581.581,0,0,0-.122-.354,11.385,11.385,0,0,1-2.248-4.635,1.041,1.041,0,0,0-.288-.423,4.767,4.767,0,0,1-1.719-5.1,5.192,5.192,0,0,1,.393-.988c.07-.171.194-.2.369-.178,1.683.177,3.362.416,5.05.5,2.279.112,4.566.169,6.847.124,2.077-.041,4.151-.243,6.225-.39a15.854,15.854,0,0,0,1.7-.218c.327-.059.544.012.635.329a6.616,6.616,0,0,1,.387,1.556,5.684,5.684,0,0,1-.894,3.376,8.514,8.514,0,0,1-.968,1,.939.939,0,0,0-.237.392,10.956,10.956,0,0,1-1.842,4.164,2.23,2.23,0,0,0-.483,1.588c.044.814.06,1.63.059,2.445a1.625,1.625,0,0,0,.411,1.055,4.843,4.843,0,0,0,1.809,1.381c1.524.684,3.065,1.33,4.605,1.977a21.616,21.616,0,0,1,4.911,2.649,9.493,9.493,0,0,1,3.807,7.322q.031.534.059,1.068C303.136,1332.346,303.122,1332.365,303.107,1332.4Z" transform="translate(-258.924 -1281.752)" fill="#12263f"/>
        </g>
      </g>
    </g>
  </g>
</svg>
