<svg xmlns="http://www.w3.org/2000/svg" width="443.247" height="447.209" viewBox="0 0 443.247 447.209">
  <g id="Grupo_87226" data-name="Grupo 87226" transform="translate(-284.363 -279.785)">
    <g id="Grupo_87153" data-name="Grupo 87153" transform="translate(284.363 520.625)">
      <path id="Trazado_138602" data-name="Trazado 138602" d="M217.45,350.79l-5.051.041-.01-7.007,5.061-.036Z" transform="translate(-164.126 -150.09)" fill="#cf9b72"/>
      <rect id="Rectángulo_32676" data-name="Rectángulo 32676" width="5.954" height="6.174" transform="translate(47.82 196.767) rotate(-0.198)" fill="#f7f7f7"/>
      <g id="Grupo_87135" data-name="Grupo 87135" transform="translate(46.648 197.909)">
        <path id="Trazado_138603" data-name="Trazado 138603" d="M215.238,344.588a2.188,2.188,0,0,0-2.19,2.19v2.016a2.192,2.192,0,0,0,2.19,2.19h0a2.192,2.192,0,0,0,2.19-2.19v-2.016a2.188,2.188,0,0,0-2.19-2.19Z" transform="translate(-207.963 -344.588)" fill="#afafaf"/>
        <path id="Trazado_138604" data-name="Trazado 138604" d="M212.084,346.266a1.113,1.113,0,0,0,1.111,1.106h16.735v-1.453H212.084Z" transform="translate(-212.074 -338.913)" fill="#12263f"/>
        <path id="Trazado_138605" data-name="Trazado 138605" d="M229.938,350.021c0-2.242-1.816-3.337-4.064-3.337h-2.153c-1.221,0-2.211-.6-2.211-1.348v-.379h-4.343v.137a2.082,2.082,0,1,1-4.164,0v-.121a1.121,1.121,0,0,0-.921,1.084v3.964Z" transform="translate(-212.082 -343.015)" fill="#afafaf"/>
      </g>
      <path id="Trazado_138606" data-name="Trazado 138606" d="M214.43,350.8l-5.064.041v-7l5.064-.046Z" transform="translate(-177.014 -150.065)" fill="#cf9b72"/>
      <rect id="Rectángulo_32677" data-name="Rectángulo 32677" width="5.953" height="6.174" transform="translate(31.912 196.767) rotate(-0.198)" fill="#f7f7f7"/>
      <g id="Grupo_87136" data-name="Grupo 87136" transform="translate(30.74 197.909)">
        <path id="Trazado_138607" data-name="Trazado 138607" d="M212.224,344.588a2.2,2.2,0,0,0-2.2,2.19v2.016a2.2,2.2,0,0,0,2.2,2.19h0a2.192,2.192,0,0,0,2.19-2.19v-2.016a2.188,2.188,0,0,0-2.19-2.19Z" transform="translate(-204.949 -344.588)" fill="#afafaf"/>
        <path id="Trazado_138608" data-name="Trazado 138608" d="M209.06,346.266a1.12,1.12,0,0,0,1.111,1.106h16.74v-1.453H209.06Z" transform="translate(-209.06 -338.913)" fill="#12263f"/>
        <path id="Trazado_138609" data-name="Trazado 138609" d="M226.911,350.021c0-2.242-1.811-3.337-4.048-3.337H220.7c-1.221,0-2.211-.6-2.211-1.348v-.379h-4.353v.137a2.077,2.077,0,1,1-4.153,0v-.121a1.116,1.116,0,0,0-.921,1.084v3.964Z" transform="translate(-209.06 -343.015)" fill="#afafaf"/>
      </g>
      <g id="Grupo_87139" data-name="Grupo 87139" transform="translate(27.281 101.597)">
        <rect id="Rectángulo_32678" data-name="Rectángulo 32678" width="17.18" height="9.618" transform="translate(6.853)" fill="#1c1d23"/>
        <rect id="Rectángulo_32679" data-name="Rectángulo 32679" width="17.18" height="9.618" transform="translate(6.853)" fill="#1c1d23" opacity="0.5" style="mix-blend-mode: multiply;isolation: isolate"/>
        <g id="Grupo_87137" data-name="Grupo 87137" transform="translate(0 2.416)">
          <path id="Trazado_138610" data-name="Trazado 138610" d="M223.131,326.751V418.03H211.184L208.7,336.616l-.3-9.865Z" transform="translate(-208.403 -326.751)" fill="#12263f"/>
        </g>
        <g id="Grupo_87138" data-name="Grupo 87138" transform="translate(17.41 2.416)">
          <path id="Trazado_138611" data-name="Trazado 138611" d="M226.438,326.751l-.121,3.66-.308,10.415-2.363,77.2H211.71V326.751Z" transform="translate(-211.71 -326.751)" fill="#12263f"/>
        </g>
        <path id="Trazado_138612" data-name="Trazado 138612" d="M223.132,327.678v11.055l-14.271-2.09a.529.529,0,0,1-.163-.026l-.295-9.865h9.744C219.805,327.062,221.469,327.367,223.132,327.678Z" transform="translate(-208.402 -324.335)" fill="#1c1d23" opacity="0.5" style="mix-blend-mode: multiply;isolation: isolate"/>
        <path id="Trazado_138613" data-name="Trazado 138613" d="M226.318,329.258l-.311,10.418a2.289,2.289,0,0,1-1.332.195l-12.965-1.9V327.021c2.285.421,4.564.816,6.864,1.163C221.143,328.579,223.738,328.921,226.318,329.258Z" transform="translate(-194.301 -323.183)" fill="#1c1d23" opacity="0.5" style="mix-blend-mode: multiply;isolation: isolate"/>
      </g>
      <g id="Grupo_87152" data-name="Grupo 87152">
        <path id="Trazado_138614" data-name="Trazado 138614" d="M250.546,322.117l-9.007,61.574a2.412,2.412,0,0,1-2.679,2.121l-28.6-4.19a2.4,2.4,0,0,1-1.948-2.8l9-61.574a2.412,2.412,0,0,1,2.68-2.116l4.4-.142,11.1-.348,13.218,4.6a2.865,2.865,0,0,1,1.832,2.006A2.62,2.62,0,0,1,250.546,322.117Z" transform="translate(-181.641 -274.351)" fill="#afafaf"/>
        <path id="Trazado_138615" data-name="Trazado 138615" d="M208.9,326.065l-.59,4.074a2.4,2.4,0,0,0,1.948,2.8l28.6,4.19A2.412,2.412,0,0,0,241.539,335l.6-4.08Z" transform="translate(-181.641 -225.663)" fill="#f6f6f6"/>
        <path id="Trazado_138616" data-name="Trazado 138616" d="M220.857,331.019a4.208,4.208,0,0,1-4.78,3.564h0a4.207,4.207,0,0,1-3.564-4.785l2.011-13.724a4.215,4.215,0,0,1,4.785-3.558h0a4.215,4.215,0,0,1,3.559,4.785Z" transform="translate(-163.791 -283.637)" fill="#d69b6b"/>
        <path id="Trazado_138617" data-name="Trazado 138617" d="M231.542,323.653c1.027-7.049-2.569-14.434-8.222-15.266s-11.218,5.222-12.255,12.271c-1.021,7.043,2.721,13.429,8.37,14.255S230.516,330.7,231.542,323.653Z" transform="translate(-170.486 -301.365)" fill="#2a2626"/>
        <path id="Trazado_138618" data-name="Trazado 138618" d="M232.805,331.3a10.377,10.377,0,0,1-11.765,8.76h0A10.362,10.362,0,0,1,212.3,328.3l1.579-10.76a10.359,10.359,0,0,1,11.75-8.754h0a10.364,10.364,0,0,1,8.754,11.749Z" transform="translate(-164.995 -299.828)" fill="#edb485"/>
        <g id="Grupo_87142" data-name="Grupo 87142" transform="translate(56.216 23.363)">
          <g id="Grupo_87140" data-name="Grupo 87140" transform="translate(7.762 1.17)">
            <path id="Trazado_138619" data-name="Trazado 138619" d="M215.4,312.9a1.159,1.159,0,1,0,1.332-1.237A1.307,1.307,0,0,0,215.4,312.9Z" transform="translate(-215.374 -311.652)" fill="#2a2626"/>
          </g>
          <g id="Grupo_87141" data-name="Grupo 87141">
            <path id="Trazado_138620" data-name="Trazado 138620" d="M213.918,312.682a1.311,1.311,0,0,0,.9,1.574,1.464,1.464,0,0,0,.421-2.816A1.313,1.313,0,0,0,213.918,312.682Z" transform="translate(-213.9 -311.43)" fill="#2a2626"/>
          </g>
        </g>
        <path id="Trazado_138621" data-name="Trazado 138621" d="M234.725,309.989a31.61,31.61,0,0,0-8.433-1.79c-10.086-.958-14.692,6.438-15.061,8.991l3.343-1.832c-.374,2.553,7.565,3.422,10.118,3.79l8.5,1.248Z" transform="translate(-169.062 -302.209)" fill="#2a2626"/>
        <path id="Trazado_138622" data-name="Trazado 138622" d="M213.836,318.985a1.9,1.9,0,0,1-1.611-2.158l.711-4.859a1.9,1.9,0,0,1,2.169-1.611h0a1.907,1.907,0,0,1,1.611,2.164l-.721,4.859a1.887,1.887,0,0,1-2.158,1.605Z" transform="translate(-164.914 -292.734)" fill="#2a2626"/>
        <path id="Trazado_138623" data-name="Trazado 138623" d="M216.765,317.825a3,3,0,0,1,3.448-2.29l7.917,1.158.811-5.543-15.25-2.227-1.474,10.1,4.343.137S216.592,318.951,216.765,317.825Z" transform="translate(-164.858 -298.759)" fill="#2a2626"/>
        <path id="Trazado_138624" data-name="Trazado 138624" d="M215.781,318.361c-1.221.453-2.78-.716-3.506-2.622-.695-1.911-.284-3.817.942-4.275,1.211-.453,2.785.716,3.5,2.616S217.013,317.9,215.781,318.361Z" transform="translate(-166.048 -288.335)" fill="#edb485"/>
        <path id="Trazado_138625" data-name="Trazado 138625" d="M235.807,316.22a5.574,5.574,0,0,0-4.69-6.322L219.4,308.187a5.561,5.561,0,0,0-6.312,4.711h0a5.559,5.559,0,0,0,4.7,6.312l11.707,1.716a5.571,5.571,0,0,0,6.312-4.706Z" transform="translate(-161.411 -302.149)" fill="#2a2626"/>
        <g id="Grupo_87146" data-name="Grupo 87146">
          <g id="Grupo_87144" data-name="Grupo 87144" transform="translate(7.14)">
            <rect id="Rectángulo_32680" data-name="Rectángulo 32680" width="6.172" height="3.571" transform="translate(0 11.274) rotate(-45.873)" fill="#edb485"/>
            <g id="Grupo_87143" data-name="Grupo 87143" transform="translate(2.555)">
              <path id="Trazado_138626" data-name="Trazado 138626" d="M206.464,311.034a.917.917,0,0,0-.221,1.263h0a.914.914,0,0,0,1.269.221l4.438-3.143a.911.911,0,0,0,.216-1.258h0a.91.91,0,0,0-1.269-.211Z" transform="translate(-200.716 -303.812)" fill="#edb485"/>
              <path id="Trazado_138627" data-name="Trazado 138627" d="M205.824,311.082a.9.9,0,0,0-.01,1.274h0a.905.905,0,0,0,1.279.011l3.864-3.832a.915.915,0,0,0,0-1.279h0a.917.917,0,0,0-1.285,0Z" transform="translate(-202.966 -306.992)" fill="#edb485"/>
              <path id="Trazado_138628" data-name="Trazado 138628" d="M206.041,307.283a.984.984,0,0,1,1.084.874l.468,4.364a3.079,3.079,0,0,1-1.332.674c-.29.053-.858-.563-.858-.563l-.242-4.264A1,1,0,0,1,206.041,307.283Z" transform="translate(-204.657 -305.778)" fill="#edb485"/>
              <path id="Trazado_138629" data-name="Trazado 138629" d="M206.248,311.009a.885.885,0,0,0-.089,1.269h0a.891.891,0,0,0,1.269.1l4.132-3.537a.911.911,0,0,0,.089-1.274h0a.9.9,0,0,0-1.274-.1Z" transform="translate(-201.348 -305.904)" fill="#edb485"/>
              <path id="Rectángulo_32681" data-name="Rectángulo 32681" d="M.341,0H5.806a.341.341,0,0,1,.341.341V5.8a.34.34,0,0,1-.34.34H.339A.339.339,0,0,1,0,5.8V.341A.341.341,0,0,1,.341,0Z" transform="translate(0 6.444) rotate(-40.514)" fill="#edb485"/>
            </g>
          </g>
          <g id="Grupo_87145" data-name="Grupo 87145" transform="translate(0 7.58)">
            <path id="Trazado_138630" data-name="Trazado 138630" d="M203.466,326.872a15.873,15.873,0,0,1-.142-4.6,19.818,19.818,0,0,1,4.443-9.96c.3-.379,3.932-3.88,3.932-3.88l4.875,5.359a24.186,24.186,0,0,0-3.164,2.969C209.93,321.171,209.5,325.1,212,329.5c4.432,7.8,14.418,10.128,18.5,10.765.637.1,1.337.21,2.079.305,4.732.684,10.633,1.532,14.039,4.19a3.6,3.6,0,1,1-4.443,5.654c-1.879-1.469-7.133-2.232-10.628-2.727-.753-.105-1.469-.211-2.158-.321-10.818-1.69-19.425-6.907-23.636-14.318A18.639,18.639,0,0,1,203.466,326.872Z" transform="translate(-203.22 -308.432)" fill="#afafaf"/>
          </g>
        </g>
        <g id="Grupo_87150" data-name="Grupo 87150" transform="translate(63.918 0.09)">
          <g id="Grupo_87148" data-name="Grupo 87148" transform="translate(13.671)">
            <rect id="Rectángulo_32682" data-name="Rectángulo 32682" width="3.569" height="6.175" transform="translate(8.143 8.445) rotate(-56.86)" fill="#edb485"/>
            <g id="Grupo_87147" data-name="Grupo 87147">
              <path id="Trazado_138631" data-name="Trazado 138631" d="M224.221,310.023a.9.9,0,0,1,.5,1.179h0a.9.9,0,0,1-1.184.49l-5.017-2.074a.9.9,0,0,1-.49-1.184h0a.9.9,0,0,1,1.179-.484Z" transform="translate(-217.96 -303.303)" fill="#edb485"/>
              <path id="Trazado_138632" data-name="Trazado 138632" d="M224.405,310.024a.894.894,0,0,1,.284,1.247h0a.905.905,0,0,1-1.247.29l-4.6-2.879a.905.905,0,0,1-.284-1.248h0a.9.9,0,0,1,1.242-.284Z" transform="translate(-216.007 -307.009)" fill="#edb485"/>
              <path id="Trazado_138633" data-name="Trazado 138633" d="M220.431,307.048a.989.989,0,0,0-.869,1.1l.505,4.353a3.3,3.3,0,0,0,1.453.369c.279-.016.711-.737.711-.737l-.711-4.222A.985.985,0,0,0,220.431,307.048Z" transform="translate(-211.163 -306.876)" fill="#edb485"/>
              <path id="Trazado_138634" data-name="Trazado 138634" d="M224.182,309.994a.915.915,0,0,1,.379,1.226h0a.9.9,0,0,1-1.216.379l-4.806-2.538a.9.9,0,0,1-.379-1.226h0a.928.928,0,0,1,1.232-.384Z" transform="translate(-217.557 -305.537)" fill="#edb485"/>
              <path id="Trazado_138635" data-name="Trazado 138635" d="M224.806,308.879a1.79,1.79,0,0,1,.747,2.421l-1.195,2.264a1.793,1.793,0,0,1-2.421.748l-2.263-1.19a1.8,1.8,0,0,1-.737-2.432l1.19-2.258a1.79,1.79,0,0,1,2.416-.753Z" transform="translate(-214.691 -305.027)" fill="#edb485"/>
            </g>
          </g>
          <g id="Grupo_87149" data-name="Grupo 87149" transform="translate(0 5.515)">
            <path id="Trazado_138636" data-name="Trazado 138636" d="M254.3,324.213a15.959,15.959,0,0,0-.89-4.5,19.883,19.883,0,0,0-6.533-8.754c-.384-.295-4.706-2.906-4.706-2.906l-3.559,6.312a23.336,23.336,0,0,1,3.737,2.19c4.375,3.537,5.664,7.27,4.19,12.123-2.59,8.581-11.8,13.06-15.645,14.592-.6.242-1.258.495-1.953.763-4.48,1.711-10.044,3.843-12.765,7.185a3.594,3.594,0,1,0,5.575,4.538c1.511-1.853,6.475-3.764,9.76-5.017.716-.274,1.4-.532,2.032-.79,10.181-4.048,17.424-11.039,19.888-19.2A19.33,19.33,0,0,0,254.3,324.213Z" transform="translate(-215.363 -308.057)" fill="#afafaf"/>
          </g>
        </g>
        <g id="Grupo_87151" data-name="Grupo 87151" transform="translate(60.23 27.543)">
          <path id="Trazado_138637" data-name="Trazado 138637" d="M217.073,315.291a1.224,1.224,0,0,1-1.384,1.026h0a1.212,1.212,0,0,1-1.011-1.379l.242-1.669a1.207,1.207,0,0,1,1.384-1.032h0a1.206,1.206,0,0,1,1.006,1.379Z" transform="translate(-214.662 -312.224)" fill="#d69b6b"/>
        </g>
        <path id="Trazado_138638" data-name="Trazado 138638" d="M221.42,316.726a2.287,2.287,0,0,1-2.527,2l-3.127-.374a2.287,2.287,0,0,1-2-2.537l.074-.574a2.272,2.272,0,0,1,2.532-2l3.127.374a2.263,2.263,0,0,1,1.985,2.537Z" transform="translate(-158.321 -280.42)" fill="#170805"/>
      </g>
    </g>
    <g id="Grupo_87164" data-name="Grupo 87164" transform="translate(381.093 279.785)">
      <g id="Grupo_87163" data-name="Grupo 87163" transform="translate(0 129.408)">
        <g id="Grupo_87162" data-name="Grupo 87162">
          <g id="Grupo_87154" data-name="Grupo 87154" transform="translate(30.647)">
            <path id="Trazado_138639" data-name="Trazado 138639" d="M256.842,320.853c6.148-15.849,19.68-25.465,30.183-21.472s14.043,20.062,7.882,35.9-19.693,25.472-30.2,21.479C254.189,352.783,250.662,336.708,256.842,320.853Z" transform="translate(-93.129 -298.477)" fill="#12263f"/>
            <path id="Trazado_138640" data-name="Trazado 138640" d="M269.785,331.417c-1.3-16.929-11.448-29.976-22.682-29.141s-19.285,15.24-18,32.17,11.441,29.969,22.669,29.134S271.066,348.34,269.785,331.417Z" transform="translate(-228.97 -277.901)" fill="#12263f"/>
          </g>
          <g id="Grupo_87157" data-name="Grupo 87157" transform="translate(45.867 117.829)">
            <g id="Grupo_87156" data-name="Grupo 87156">
              <path id="Trazado_138641" data-name="Trazado 138641" d="M231.322,345.658c10.587,34.37,20.023,62.067,30.416,96.483a598.673,598.673,0,0,0,162.86-24.4c-.408-35.916.278-65.141.058-101.058Z" transform="translate(-231.322 -316.685)" fill="#afafaf"/>
              <g id="Grupo_87155" data-name="Grupo 87155" transform="translate(6.711 5.941)">
                <path id="Trazado_138642" data-name="Trazado 138642" d="M232.359,344.809,413.844,317.6c.039,14.011-.039,27.18-.11,39.942-.084,16.327-.2,33.16-.013,51.37-15.609,4.543-31.432,8.406-47.319,11.577q-13.328,2.669-26.643,4.666c-9.83,1.469-20.43,2.789-31.218,3.87-16.444,1.637-33.341,2.718-48.639,2.938-5.3-17.479-10.477-33.567-15.48-49.157C240.52,370.662,236.507,358.153,232.359,344.809Z" transform="translate(-232.359 -317.603)" fill="#b0c0d2"/>
              </g>
              <path id="Trazado_138643" data-name="Trazado 138643" d="M333.43,382.611l-34.609-11.927,29.672-31.173-33.9-3.178s1.948-9.468,2.938-16.036l-65.174,9.765c4.148,13.344,8.161,25.853,12.063,38,5,15.59,10.18,31.678,15.48,49.157,15.3-.22,32.2-1.3,48.639-2.938,3.119-.317,6.251-.647,9.332-1a32.208,32.208,0,0,1-3.6-17.24Z" transform="translate(-225.648 -296.917)" fill="#12263f"/>
            </g>
          </g>
          <g id="Grupo_87159" data-name="Grupo 87159" transform="translate(5.867 30.633)">
            <g id="Grupo_87158" data-name="Grupo 87158">
              <path id="Trazado_138644" data-name="Trazado 138644" d="M225.141,340.325s2.394,36.292,5.682,52.095A18.841,18.841,0,0,0,236.2,401.3q11.988,10.318,24.268,20.294a14.411,14.411,0,0,0,9.733,2.815c30.493-4.556,65.335-9.759,95.835-14.308q44.468-6.65,88.924-13.273a14.36,14.36,0,0,0,8.465-5.54q8.707-13.124,17.091-26.462A18.62,18.62,0,0,0,483,354.769c-.317-3.171-.485-4.763-.893-7.915l-.013-.019c-2.239-14.858-9.286-43.624-9.286-43.624Z" transform="translate(-225.141 -303.211)" fill="#afafaf"/>
              <path id="Trazado_138645" data-name="Trazado 138645" d="M227.346,348.022c7.339,6.316,15.1,12.8,23.724,19.822a10.275,10.275,0,0,0,6.446,1.915c18.139-2.712,37.819-5.643,57.2-8.549l38.641-5.766,88.911-13.273a10.357,10.357,0,0,0,5.611-3.708c6.161-9.306,11.668-17.816,16.813-26.009Z" transform="translate(-213.077 -252.633)" fill="#e8e8e8"/>
            </g>
          </g>
          <path id="Trazado_138646" data-name="Trazado 138646" d="M230.257,307.948l250.686-4.316,6.914,24.9-263.622,4.544Z" transform="translate(-224.234 -270.276)" fill="#b0c0d2"/>
          <g id="Grupo_87160" data-name="Grupo 87160" transform="translate(15.93 62.197)">
            <path id="Trazado_138647" data-name="Trazado 138647" d="M257.07,321.889c.382-6.057,2.783-9.688,9.008-10.626l20.281-3.035a12.343,12.343,0,0,1,14.082,10.244l.071.427a12.232,12.232,0,0,1-10.374,13.9S256.682,328.192,257.07,321.889Z" transform="translate(-60.526 -308.088)" fill="#ff9d00"/>
            <path id="Trazado_138648" data-name="Trazado 138648" d="M269.285,319.959c-2.187-5.669-5.565-8.439-11.8-7.5L237.206,315.5a12.232,12.232,0,0,0-10.367,13.907l.052.427a12.356,12.356,0,0,0,14.095,10.238S271.55,325.868,269.285,319.959Z" transform="translate(-226.696 -285.159)" fill="#fafbfd"/>
            <path id="Trazado_138649" data-name="Trazado 138649" d="M260.406,320.215c-2.187-.544-3.766.673-5.74.712-2.213-.544.123-3.339-.311-4.51-1.34-5.106-6.983-2.453-10.833-3.786l-6.316.945a12.232,12.232,0,0,0-10.367,13.907l.052.427a12.356,12.356,0,0,0,14.095,10.238s8.982-4.174,16.851-8.944A10.445,10.445,0,0,1,260.406,320.215Z" transform="translate(-226.696 -283.234)" fill="#12263f"/>
            <path id="Trazado_138650" data-name="Trazado 138650" d="M255.059,319.959c-2.187-5.669-5.565-8.439-11.8-7.5l-13.959,2.1c3.851,1.333,9.494-1.32,10.833,3.786.434,1.171-1.9,3.967.311,4.51,1.974-.039,3.553-1.255,5.74-.712a10.445,10.445,0,0,0-2.569,8.989C250.25,327.1,256.094,322.671,255.059,319.959Z" transform="translate(-212.47 -285.159)" fill="#b0c0d2"/>
          </g>
          <path id="Trazado_138651" data-name="Trazado 138651" d="M239.084,320.074,313.7,308.888l2.433,15.755-74.623,11.18Z" transform="translate(-142.986 -241.518)" fill="#12263f"/>
          <g id="Grupo_87161" data-name="Grupo 87161" transform="translate(163.369 126.656)">
            <path id="Trazado_138652" data-name="Trazado 138652" d="M251.731,341.171l-2.252-14.69,56.282-8.432,2.246,14.69a17.579,17.579,0,0,1-6.691,16.6l.731,4.744a17.714,17.714,0,0,1-15.027,20.146l-2.77.414a17.889,17.889,0,0,1-20.4-14.826l-.718-4.75A17.721,17.721,0,0,1,251.731,341.171Z" transform="translate(-249.479 -318.049)" fill="#d2e1f1"/>
          </g>
        </g>
        <path id="Trazado_138653" data-name="Trazado 138653" d="M295.656,339.792l-9.985,9.145,7.843,11-13.48-2.01-3.8,12.912-6.819-11.647-12.608,5.106,4.986-12.525-11.906-6.541,13.025-3.962-2.244-13.272,11.255,7.584,9.119-10,1.005,13.411Z" transform="translate(-83.869 -150.193)" fill="#12263f"/>
        <path id="Trazado_138654" data-name="Trazado 138654" d="M269.561,337.81c-.116-.3-11.8-8.523-11.8-8.523a7.367,7.367,0,0,0-.531,6.536c1.385,3.844,5.378,14.839,5.378,14.839Z" transform="translate(-46.454 -129.905)" fill="#d0edfe"/>
        <path id="Trazado_138655" data-name="Trazado 138655" d="M246.363,350.37c-.052-.123-.777-6.258-.777-6.258l-6.245,1.618-3.074,3.935,5.52,5.7,4.724,2.1Z" transform="translate(-158.393 -48.791)" fill="#afafaf"/>
        <path id="Trazado_138656" data-name="Trazado 138656" d="M265.251,344c.628-.013,4.381,2.964,4.381,2.964l-1.094,4.2-2.893,1.624-2.537-4.336.44-2.99Z" transform="translate(-11.535 -49.431)" fill="#afafaf"/>
        <path id="Trazado_138657" data-name="Trazado 138657" d="M255.789,343.26l-4.506,3.71,3.432,5.669,4.74.733-2.585-5.011Z" transform="translate(-76.239 -53.454)" fill="#afafaf"/>
        <path id="Trazado_138658" data-name="Trazado 138658" d="M259.215,354.06c-.052-.13-3.656-2.479-3.656-2.479l-1.915-8.251-2.686,6.808-5.889,2.576,7.856,5.2Z" transform="translate(-110.245 -53.07)" fill="#afafaf"/>
        <path id="Trazado_138659" data-name="Trazado 138659" d="M262.211,352.942c-.039-.142-3.288-2.621-3.288-2.621l-3.508-4.905-5.274-.906-.252,6.439,3.475,4.465Z" transform="translate(-83.867 -46.613)" fill="#afafaf"/>
        <path id="Trazado_138660" data-name="Trazado 138660" d="M262.684,344.288c.725-.045,4.375,2.485,4.906,2.783s-1.87,2.388-1.916,3.287c-.052.88-2.809,4.142-3.035,2.873s-2.673-4.278-2.673-4.278l3.689-1.935Z" transform="translate(-28.732 -47.834)" fill="#afafaf"/>
        <path id="Trazado_138661" data-name="Trazado 138661" d="M253.638,343.983l-5.441,4.038,3.653,5.587,5.454.474-2.724-4.955Z" transform="translate(-93.129 -49.495)" fill="#afafaf"/>
      </g>
      <path id="Trazado_138662" data-name="Trazado 138662" d="M314.509,306.226a12.149,12.149,0,0,0-1.191-8.063c-1.171-2.207-3.087-4.634-5.52-5.52a14.833,14.833,0,0,0-5.637-.757,15.554,15.554,0,0,0-1.107-1.851,15.361,15.361,0,0,0-5.721-4.879,30.1,30.1,0,0,0-3.469-3.967c-3.4-3.294-8.206-3.093-12.5-1.954a17.758,17.758,0,0,0-7.591,4.038,9.251,9.251,0,0,0-5-2.9c-4.355-.932-8.885,2.427-11.454,5.6a21.057,21.057,0,0,0-4.556,9v.007a14.328,14.328,0,0,0-4.8,2.75,32.8,32.8,0,0,0-8.322,12.257,12.905,12.905,0,0,0-1.171,6.038,12.391,12.391,0,0,0,3.268,7.054,17.5,17.5,0,0,0,3.922,3.3,17.273,17.273,0,0,0-1.178,3.158c-1.385,5.429-.33,11.293,4.025,15.066a11.75,11.75,0,0,0,7.526,2.686c-.091.2-.168.388-.272.576a31.947,31.947,0,0,0-2.6,14.185c.3,5.248,4.8,9.681,9.688,10.95a16.458,16.458,0,0,0,8.122-.116l.084.078a7.518,7.518,0,0,0-.764.589,10.3,10.3,0,0,0-2.8,2.977,11.917,11.917,0,0,0-1.767,4.944,12.985,12.985,0,0,0-2.362,6.025c-.705,4.627-.3,9.681,3.048,13.215a12.145,12.145,0,0,0,11.545,3.514,11.081,11.081,0,0,0,.718,5.132,10.625,10.625,0,0,0,3.533,4.964,4.893,4.893,0,0,0-1.514,1.67,12.565,12.565,0,0,0-1.217,6.834c.136,2.511,1.055,4.394,3.359,5.546,2.517,1.275,5.326-.155,7.054-2.038a11.21,11.21,0,0,0,3.029-7.183,5.122,5.122,0,0,0-.6-2.653c.026-.058.065-.117.078-.162a5.48,5.48,0,0,0-.285-4.109,6.508,6.508,0,0,0,4.161-2.142,8.942,8.942,0,0,0,2.33-5.339,7.194,7.194,0,0,0-1.657-5.507c.1-.188.2-.369.278-.544a23.5,23.5,0,0,0,1.21-2.906,11.912,11.912,0,0,0,4.614-4.155,13.332,13.332,0,0,0,1.7-9.17,11.418,11.418,0,0,0-3.52-6.976l.039-.007a12.433,12.433,0,0,0,5.539-3.009,17.685,17.685,0,0,0,5.358-10.8,13.921,13.921,0,0,0-1.941-9.5c.039-.045.084-.084.123-.13a12.553,12.553,0,0,0,2.938-11.907A10.438,10.438,0,0,0,309.6,336.9a14.841,14.841,0,0,0,6.983-8.083c1.9-5.818-1.683-11.849-6.827-14.878A13.025,13.025,0,0,0,314.509,306.226Z" transform="translate(-181.661 -278.481)" fill="#12263f"/>
    </g>
    <g id="Grupo_87225" data-name="Grupo 87225" transform="translate(442.047 538.06)">
      <g id="Grupo_87165" data-name="Grupo 87165" transform="translate(114.062 84.113)">
        <path id="Trazado_138663" data-name="Trazado 138663" d="M292.817,361.9a4.217,4.217,0,0,0-5.933-.376c-.293.255-.663.593-1.083.994-2.7,2.53-9.9,9.24-15.224,8.284-2.224-.414-4.244-2.364-5.933-5.818a8.474,8.474,0,0,1-.013-7.112c3.161-8.157,14.154-16.008,18.6-18.627-.911-1.2-1.772-2.453-2.657-3.651a29.145,29.145,0,0,1-2.288-3.18c-6.2,3.709-15.931,11.56-20.245,19.691-3.919,7.4-2.67,13.127-.943,16.626,2.957,5.958,6.991,9.438,11.993,10.343a14.891,14.891,0,0,0,1.574.2c8.9.593,17.212-7.169,20.883-10.6.351-.331.669-.612.911-.822A4.22,4.22,0,0,0,292.817,361.9Z" transform="translate(-255.445 -332.414)" fill="#727997"/>
      </g>
      <g id="Grupo_87166" data-name="Grupo 87166" transform="translate(193.271 97.916)">
        <path id="Trazado_138664" data-name="Trazado 138664" d="M270.461,388.715c-3.524-11.069-3.193-24.369-.529-33.207,2.562-8.405,7.341-17.486,10.279-20.927l14.115,11.783a.352.352,0,0,0,.083-.1c-2.638,3.5-14.083,24.866-8.055,36.03,1.65,3.072,11.088,5.825,22.737,5.672,8.992-.115,25.86-2.16,26.657-2.16,0,0,.1,11.827.268,11.815C335.722,397.643,277.318,410.229,270.461,388.715Z" transform="translate(-267.875 -334.58)" fill="#12263f"/>
      </g>
      <g id="Grupo_87173" data-name="Grupo 87173" transform="translate(264.814 148.557)">
        <g id="Grupo_87169" data-name="Grupo 87169" transform="translate(0)">
          <rect id="Rectángulo_32683" data-name="Rectángulo 32683" width="4.255" height="5.058" transform="matrix(1, -0.027, 0.027, 1, 0, 1.782)" fill="#cf9b72"/>
          <rect id="Rectángulo_32684" data-name="Rectángulo 32684" width="6.163" height="5.946" transform="translate(2.723 1.261) rotate(-1.62)" fill="#e6dad1"/>
          <g id="Grupo_87168" data-name="Grupo 87168" transform="translate(3.739)">
            <g id="Grupo_87167" data-name="Grupo 87167">
              <path id="Trazado_138665" data-name="Trazado 138665" d="M279.691,345.753a2.212,2.212,0,0,1,2.1-2.307l1.994-.1a2.176,2.176,0,0,1,2.3,2.071h0a2.19,2.19,0,0,1-2.084,2.3l-1.995.108a2.223,2.223,0,0,1-2.32-2.077Z" transform="translate(-279.689 -338.123)" fill="#eb3131"/>
              <path id="Trazado_138666" data-name="Trazado 138666" d="M281.1,342.528a1.107,1.107,0,0,1,1.147,1.058c.1,2.065.331,6.506.331,6.506l.523,10.19-1.459.07-.911-17.8Z" transform="translate(-274.1 -342.527)" fill="#12263f"/>
              <path id="Trazado_138667" data-name="Trazado 138667" d="M285.842,360.336l-.911-17.8-1.7.089h0l-2.256.1a1.084,1.084,0,0,0-1.02.962l.115-.013a2.08,2.08,0,0,1,.217,4.155l-.153.013.51,4.359h.115a1.238,1.238,0,0,1,.733.172.682.682,0,0,1,.172.159,1.852,1.852,0,0,1,.44.886l.032.223c.038.2.051.414.077.657l.108,2.16C282.439,358.692,283.6,360.438,285.842,360.336Z" transform="translate(-278.263 -342.504)" fill="#ff9d00"/>
            </g>
            <path id="Trazado_138668" data-name="Trazado 138668" d="M283.87,349.207l-.2-4.072a3.872,3.872,0,0,0-2.135-.529,3.648,3.648,0,0,0-1.211.274l.025.446C280.468,347.563,281.627,349.309,283.87,349.207Z" transform="translate(-276.292 -331.375)" fill="#e6dad1"/>
          </g>
        </g>
        <g id="Grupo_87170" data-name="Grupo 87170" transform="translate(6.965 9.254)">
          <path id="Trazado_138669" data-name="Trazado 138669" d="M281.871,344.215a.112.112,0,0,0,.108-.108v-.013a.117.117,0,0,0-.1-.115,3.2,3.2,0,0,0-1.689.612.681.681,0,0,1,.172.159A2.667,2.667,0,0,1,281.871,344.215Z" transform="translate(-280.195 -343.979)" fill="#e6dad1"/>
        </g>
        <g id="Grupo_87171" data-name="Grupo 87171" transform="translate(7.577 10.631)">
          <path id="Trazado_138670" data-name="Trazado 138670" d="M281.425,344.418a.1.1,0,0,0,.108-.1V344.3a.116.116,0,0,0-.1-.108,3.292,3.292,0,0,0-1.147.28l.032.223A2.926,2.926,0,0,1,281.425,344.418Z" transform="translate(-280.291 -344.195)" fill="#e6dad1"/>
        </g>
        <g id="Grupo_87172" data-name="Grupo 87172" transform="translate(7.685 11.827)">
          <path id="Trazado_138671" data-name="Trazado 138671" d="M281.391,344.6a.123.123,0,0,0,.115-.115h0a.1.1,0,0,0-.115-.1,3.084,3.084,0,0,0-1.083.242l.019.242A3.272,3.272,0,0,1,281.391,344.6Z" transform="translate(-280.308 -344.383)" fill="#e6dad1"/>
        </g>
      </g>
      <g id="Grupo_87180" data-name="Grupo 87180" transform="translate(272.827 149.137)">
        <g id="Grupo_87176" data-name="Grupo 87176">
          <path id="Trazado_138672" data-name="Trazado 138672" d="M284.741,347.938l-.119-5.06-4.263.125.143,5.047Z" transform="translate(-280.359 -341.22)" fill="#cf9b72"/>
          <rect id="Rectángulo_32685" data-name="Rectángulo 32685" width="6.16" height="5.955" transform="translate(2.729 1.25) rotate(-1.558)" fill="#e6dad1"/>
          <g id="Grupo_87175" data-name="Grupo 87175" transform="translate(3.747)">
            <g id="Grupo_87174" data-name="Grupo 87174">
              <path id="Trazado_138673" data-name="Trazado 138673" d="M280.952,345.832a2.186,2.186,0,0,1,2.084-2.3l2-.089a2.17,2.17,0,0,1,2.3,2.058h0a2.2,2.2,0,0,1-2.084,2.307l-1.995.108a2.2,2.2,0,0,1-2.307-2.084Z" transform="translate(-280.947 -338.21)" fill="#ff9d00"/>
              <path id="Trazado_138674" data-name="Trazado 138674" d="M282.339,342.619a1.094,1.094,0,0,1,1.153,1.045c.1,2.071.325,6.506.325,6.506l.529,10.2-1.459.076-.9-17.8Z" transform="translate(-275.356 -342.618)" fill="#12263f"/>
              <path id="Trazado_138675" data-name="Trazado 138675" d="M287.1,360.421l-.911-17.8-1.708.077h0l-2.243.121a1.069,1.069,0,0,0-1.026.95h.115a2.077,2.077,0,1,1,.21,4.148l-.134.006.5,4.372.1-.013a1.277,1.277,0,0,1,.739.178,1.206,1.206,0,0,1,.179.147,2.1,2.1,0,0,1,.44.9,1.249,1.249,0,0,0,.026.217,4.907,4.907,0,0,1,.07.669l.108,2.148C283.7,358.77,284.863,360.522,287.1,360.421Z" transform="translate(-279.531 -342.595)" fill="#ff9d00"/>
            </g>
            <path id="Trazado_138676" data-name="Trazado 138676" d="M285.133,349.3l-.2-4.066a3.872,3.872,0,0,0-2.128-.542,4.874,4.874,0,0,0-1.224.268l.025.459C281.73,347.651,282.9,349.4,285.133,349.3Z" transform="translate(-277.564 -331.476)" fill="#e6dad1"/>
          </g>
        </g>
        <g id="Grupo_87177" data-name="Grupo 87177" transform="translate(6.963 9.261)">
          <path id="Trazado_138677" data-name="Trazado 138677" d="M283.122,344.288a.124.124,0,0,0,.121-.1v-.019c-.013-.057-.044-.1-.108-.1a3.088,3.088,0,0,0-1.682.605,1.209,1.209,0,0,1,.179.147A2.743,2.743,0,0,1,283.122,344.288Z" transform="translate(-281.452 -344.071)" fill="#e6dad1"/>
        </g>
        <g id="Grupo_87178" data-name="Grupo 87178" transform="translate(7.581 10.631)">
          <path id="Trazado_138678" data-name="Trazado 138678" d="M282.677,344.5a.1.1,0,0,0,.108-.1v-.019c0-.057-.038-.1-.108-.1a3.131,3.131,0,0,0-1.128.28,1.254,1.254,0,0,0,.025.217A3.125,3.125,0,0,1,282.677,344.5Z" transform="translate(-281.549 -344.286)" fill="#e6dad1"/>
        </g>
        <g id="Grupo_87179" data-name="Grupo 87179" transform="translate(7.689 11.815)">
          <path id="Trazado_138679" data-name="Trazado 138679" d="M282.643,344.7a.113.113,0,0,0,.109-.115v-.006a.111.111,0,0,0-.1-.108,3.042,3.042,0,0,0-1.09.249l.013.236A3.123,3.123,0,0,1,282.643,344.7Z" transform="translate(-281.566 -344.472)" fill="#e6dad1"/>
        </g>
      </g>
      <g id="Grupo_87181" data-name="Grupo 87181" transform="translate(206.227 97.916)">
        <path id="Trazado_138680" data-name="Trazado 138680" d="M272.512,388.715c-3.53-11.069-3.224-24.369-.561-33.207,2.562-8.405,7.36-17.486,10.3-20.927l14.109,11.783.07-.1c-2.626,3.5-14.077,24.866-8.049,36.03,1.65,3.072,11.082,5.825,22.744,5.672,8.973-.115,25.86-2.16,26.65-2.16,0,0,.1,11.827.268,11.815C337.767,397.643,279.363,410.229,272.512,388.715Z" transform="translate(-269.908 -334.58)" fill="#12263f"/>
      </g>
      <g id="Grupo_87185" data-name="Grupo 87185" transform="translate(128.547 37.586)">
        <g id="Grupo_87183" data-name="Grupo 87183" transform="translate(0 63.923)">
          <rect id="Rectángulo_32686" data-name="Rectángulo 32686" width="7.015" height="4.047" transform="matrix(0.926, -0.377, 0.377, 0.926, 9.691, 3.262)" fill="#edb485"/>
          <g id="Grupo_87182" data-name="Grupo 87182">
            <path id="Trazado_138681" data-name="Trazado 138681" d="M263.8,336.477a1.05,1.05,0,0,1,1.434.312h0a1.049,1.049,0,0,1-.312,1.427l-5.207,3.32a1.011,1.011,0,0,1-1.408-.306h0a1.038,1.038,0,0,1,.3-1.427Z" transform="translate(-255.434 -328.842)" fill="#edb485"/>
            <path id="Trazado_138682" data-name="Trazado 138682" d="M264.024,335.726a1.006,1.006,0,0,1,1.345.548h0a1.031,1.031,0,0,1-.535,1.344l-5.7,2.422a1.018,1.018,0,0,1-1.332-.542h0a1.019,1.019,0,0,1,.548-1.351Z" transform="translate(-257.718 -332.482)" fill="#edb485"/>
            <path id="Trazado_138683" data-name="Trazado 138683" d="M258.5,335.724a1.113,1.113,0,0,0,.446,1.53l4.4,2.351a3.635,3.635,0,0,0,1.3-1.1c.153-.28-.23-1.153-.23-1.153l-4.4-2.071A1.118,1.118,0,0,0,258.5,335.724Z" transform="translate(-254.279 -335.144)" fill="#edb485"/>
            <path id="Trazado_138684" data-name="Trazado 138684" d="M263.82,336.156a1.031,1.031,0,0,1,1.4.44h0a1.027,1.027,0,0,1-.433,1.389l-5.493,2.829a1.02,1.02,0,0,1-1.389-.433h0a1.044,1.044,0,0,1,.446-1.389Z" transform="translate(-257.335 -330.325)" fill="#edb485"/>
            <path id="Rectángulo_32687" data-name="Rectángulo 32687" d="M.322,0H6.666a.319.319,0,0,1,.319.319v6.35a.32.32,0,0,1-.32.32H.321A.321.321,0,0,1,0,6.668V.322A.322.322,0,0,1,.322,0Z" transform="translate(3.798 4.468) rotate(-27.56)" fill="#edb485"/>
          </g>
        </g>
        <g id="Grupo_87184" data-name="Grupo 87184" transform="translate(11.468)">
          <path id="Trazado_138685" data-name="Trazado 138685" d="M259.518,389.348c1.994-.8,7.641-4.04,14.835-9.622,8.851-6.876,16.422-14.453,21.329-21.361,3.269-4.626,11.012-18.64,7.411-27.644a4.084,4.084,0,1,1,7.583-3.033c5.958,14.944-7.749,34.571-8.335,35.406-7.526,10.623-18.353,19.576-24.127,23.967a113.8,113.8,0,0,1-10.954,7.443,37.437,37.437,0,0,1-4.684,2.421Z" transform="translate(-259.518 -325.113)" fill="#afafaf"/>
        </g>
      </g>
      <path id="Trazado_138686" data-name="Trazado 138686" d="M299.39,348.689a7.479,7.479,0,0,0-1.166.338l-29.728.127c1.587-2.976,3.4-10.33,5.346-13.1.446-2.849,6.634-.688,9.616-.688H299.39c3.314,0,5.99.274,5.99,3.581v3.741C305.38,346,302.627,348.039,299.39,348.689Z" transform="translate(-71.269 -236.67)" fill="#091727"/>
      <g id="Grupo_87188" data-name="Grupo 87188" transform="translate(180.709 29.641)">
        <g id="Grupo_87187" data-name="Grupo 87187">
          <g id="Grupo_87186" data-name="Grupo 87186">
            <path id="Trazado_138687" data-name="Trazado 138687" d="M282.8,400.285h36.668c3.129-20.583-8.074-47.38-20.685-64.6-6.13-7.481-23.923-18.793-31.1-6.086-4.454,7.851.242,19.207,5.194,25.752C280.644,366.243,285.43,387.451,282.8,400.285Z" transform="translate(-265.904 -323.866)" fill="#ff9d00"/>
          </g>
        </g>
      </g>
      <g id="Grupo_87190" data-name="Grupo 87190" transform="translate(167.047 17.915)">
        <g id="Grupo_87189" data-name="Grupo 87189">
          <path id="Trazado_138688" data-name="Trazado 138688" d="M285.057,334.937a39.308,39.308,0,0,0-14.771-12.911c-1.357,1.829-2.689,3.658-3.983,5.519-.841,1.192-1.708,2.39-2.543,3.6a27.832,27.832,0,0,1,12.006,9.737c1.644,2.53,4.735,4.384,7.819,3.537C287.459,342.953,286.886,337.753,285.057,334.937Z" transform="translate(-263.76 -322.026)" fill="#d69b6b"/>
        </g>
      </g>
      <g id="Grupo_87204" data-name="Grupo 87204" transform="translate(146.391)">
        <g id="Grupo_87201" data-name="Grupo 87201">
          <g id="Grupo_87199" data-name="Grupo 87199" transform="translate(6.821)">
            <g id="Grupo_87191" data-name="Grupo 87191" transform="translate(8.614 0.134)">
              <path id="Trazado_138689" data-name="Trazado 138689" d="M266.4,340.5c-4.652-6.621-4.76-15.97.554-19.7s14.051-.421,18.71,6.2c4.646,6.64,4.085,15.045-1.23,18.761S271.055,347.124,266.4,340.5Z" transform="translate(-262.941 -319.236)" fill="#2a2626"/>
            </g>
            <g id="Grupo_87192" data-name="Grupo 87192" transform="translate(0.674 5.495)">
              <path id="Trazado_138690" data-name="Trazado 138690" d="M270.93,348.76a11.786,11.786,0,0,0,16.415,2.88h0a11.779,11.779,0,0,0,2.88-16.4l-7.086-10.126a11.8,11.8,0,0,0-16.428-2.906h0a11.8,11.8,0,0,0-2.88,16.422Z" transform="translate(-261.695 -320.077)" fill="#edb485"/>
            </g>
            <g id="Grupo_87193" data-name="Grupo 87193" transform="translate(0.674 5.495)">
              <path id="Trazado_138691" data-name="Trazado 138691" d="M270.93,348.76a11.786,11.786,0,0,0,16.415,2.88h0a11.779,11.779,0,0,0,2.88-16.4l-7.086-10.126a11.8,11.8,0,0,0-16.428-2.906h0a11.8,11.8,0,0,0-2.88,16.422Z" transform="translate(-261.695 -320.077)" fill="#edb485"/>
            </g>
            <g id="Grupo_87194" data-name="Grupo 87194" transform="translate(0.674 5.495)">
              <path id="Trazado_138692" data-name="Trazado 138692" d="M267.3,324.067l-1.714-2.453c.121,1.7-.159,3.6.733,5.028C267.374,328.318,267.183,324.654,267.3,324.067Z" transform="translate(-240.805 -311.819)" fill="#bd8f6a"/>
              <path id="Trazado_138693" data-name="Trazado 138693" d="M266.711,322.206a11.8,11.8,0,0,0-2.88,16.422l7.1,10.132a12.011,12.011,0,0,0,2.338,2.473c4.735-2.931,9.157-6.481,12.063-11.509,1.574-3.282-.408-6.78.351-10.279.038-.172.089-.35.121-.535l-2.664-3.8A11.8,11.8,0,0,0,266.711,322.206Z" transform="translate(-261.695 -320.077)" fill="#edb485"/>
            </g>
            <g id="Grupo_87195" data-name="Grupo 87195">
              <path id="Trazado_138694" data-name="Trazado 138694" d="M261.589,328.221a36.583,36.583,0,0,1,7.634-6.118c9.756-6.13,18.213-.962,19.908,1.434l-4.346-.14c1.695,2.383-5.933,7.328-8.329,9.017l-8.01,5.6Z" transform="translate(-261.589 -319.215)" fill="#2a2626"/>
            </g>
            <g id="Grupo_87196" data-name="Grupo 87196" transform="translate(19.805 10.71)">
              <path id="Trazado_138695" data-name="Trazado 138695" d="M271.319,329.419a2.185,2.185,0,0,0,.548-3.033l-3.224-4.563a2.165,2.165,0,0,0-3.021-.535h0a2.167,2.167,0,0,0-.523,3.034l3.2,4.556a2.16,2.16,0,0,0,3.021.542Z" transform="translate(-264.697 -320.895)" fill="#2a2626"/>
            </g>
            <g id="Grupo_87197" data-name="Grupo 87197" transform="translate(3.951 2.837)">
              <path id="Trazado_138696" data-name="Trazado 138696" d="M277.981,330.277a3.389,3.389,0,0,0-4.665-.574l-7.45,5.225-3.658-5.225L276.56,319.66l6.653,9.508-4.353,2.37Z" transform="translate(-262.209 -319.66)" fill="#2a2626"/>
            </g>
            <g id="Grupo_87198" data-name="Grupo 87198" transform="translate(24.563 14.673)">
              <path id="Trazado_138697" data-name="Trazado 138697" d="M268.8,329.035c1.319-.293,2.033-2.192,1.587-4.269-.453-2.058-1.893-3.5-3.225-3.212s-2.039,2.192-1.587,4.257S267.473,329.328,268.8,329.035Z" transform="translate(-265.444 -321.517)" fill="#edb485"/>
            </g>
          </g>
          <g id="Grupo_87200" data-name="Grupo 87200" transform="translate(0 2.172)">
            <path id="Trazado_138698" data-name="Trazado 138698" d="M261.668,337.242a6.325,6.325,0,0,1,1.542-8.813l11.024-7.724a6.348,6.348,0,0,1,8.832,1.549h0a6.366,6.366,0,0,1-1.555,8.826l-11.024,7.711a6.314,6.314,0,0,1-8.82-1.549Z" transform="translate(-260.519 -319.556)" fill="#2a2626"/>
          </g>
          <path id="Trazado_138699" data-name="Trazado 138699" d="M268.682,324.451a.372.372,0,0,1-.127.51l-3.651,2.16a.369.369,0,0,1-.5-.14h0a.373.373,0,0,1,.127-.51l3.626-2.154a.391.391,0,0,1,.522.134Z" transform="translate(-239.913 -292.051)" fill="#2a2626"/>
        </g>
        <g id="Grupo_87203" data-name="Grupo 87203" transform="translate(15.145 21.29)">
          <g id="Grupo_87202" data-name="Grupo 87202">
            <path id="Trazado_138700" data-name="Trazado 138700" d="M265.354,324.148a1.324,1.324,0,1,1-2.046,1.561,1.463,1.463,0,0,1,.025-2.071A1.491,1.491,0,0,1,265.354,324.148Z" transform="translate(-262.895 -317.926)" fill="#2a2626"/>
            <path id="Trazado_138701" data-name="Trazado 138701" d="M266.476,323.285a1.327,1.327,0,1,1-2.02-.51A1.481,1.481,0,0,1,266.476,323.285Z" transform="translate(-256.862 -322.556)" fill="#2a2626"/>
          </g>
          <path id="Trazado_138702" data-name="Trazado 138702" d="M267.417,325.462a1.379,1.379,0,0,1-.255,1.931h0a1.377,1.377,0,0,1-1.943-.249l-1.166-1.529a1.359,1.359,0,0,1,.255-1.925h0a1.368,1.368,0,0,1,1.931.249Z" transform="translate(-258.223 -318.023)" fill="#d69b6b"/>
        </g>
      </g>
      <g id="Grupo_87206" data-name="Grupo 87206" transform="translate(0 153.701)">
        <g id="Grupo_87205" data-name="Grupo 87205" transform="translate(13.021)">
          <path id="Trazado_138703" data-name="Trazado 138703" d="M239.59,345.78l1.8,4.25,6.043-1.942-2.272-4.754Z" transform="translate(-239.59 -343.334)" fill="#cf9b72"/>
        </g>
        <path id="Trazado_138704" data-name="Trazado 138704" d="M237.562,345.448c-.293,1.765,3.53,3.97,7.819,4.671s7.985-.153,8.271-1.905-2.951-3.766-7.226-4.467S237.849,343.683,237.562,345.448Z" transform="translate(-237.547 -342.632)" fill="#cf9b72"/>
      </g>
      <g id="Grupo_87208" data-name="Grupo 87208" transform="translate(14.182 139.111)">
        <g id="Grupo_87207" data-name="Grupo 87207">
          <path id="Trazado_138705" data-name="Trazado 138705" d="M239.772,353.538s70.8-21.291,103.286-8.284c-2.058,4.658-5.423,11.987-7.481,16.652-28.275-12.089-89.674,2.963-89.674,2.963Z" transform="translate(-239.772 -341.045)" fill="#12263f"/>
        </g>
      </g>
      <path id="Trazado_138706" data-name="Trazado 138706" d="M253.211,355.983c0,8.2,5.436,14.848,12.159,14.848h8.845c6.71,0,12.146-6.647,12.146-14.848h0c0-8.2-5.436-14.848-12.146-14.848H265.37c-6.723,0-12.159,6.647-12.159,14.848Z" transform="translate(-153.388 -201.447)" fill="#1c1d23"/>
      <g id="Grupo_87209" data-name="Grupo 87209" transform="translate(23.333 161.026)">
        <path id="Trazado_138707" data-name="Trazado 138707" d="M241.208,348.64l3.1,3.4,5.072-3.827-3.727-3.734Z" transform="translate(-241.208 -344.483)" fill="#cf9b72"/>
      </g>
      <g id="Grupo_87210" data-name="Grupo 87210" transform="translate(23.333 122.792)">
        <path id="Trazado_138708" data-name="Trazado 138708" d="M241.208,375.383l38.153-33.226a14.345,14.345,0,0,1,19.086-.076L336.7,371.266c2.836,2.524,3.46,9.126.943,11.968s-10.923,2.434-13.758-.083l-34.692-30.869-.026-.013a1.946,1.946,0,0,0-.471,0l-37.643,32.812C250.62,384.649,241.208,375.383,241.208,375.383Z" transform="translate(-241.208 -338.484)" fill="#12263f"/>
      </g>
      <path id="Trazado_138709" data-name="Trazado 138709" d="M255.6,366.22c5.512-2.861,14.6-4.314,21.01-15.065,6.475-10.8,16.18-17.136,25.65-13.879,13.2,4.537,7.978,24.847,2.982,34.335-15.779,29.919-49.483,24.554-49.483,24.554Z" transform="translate(-140.564 -226.78)" fill="#dee4f0"/>
      <g id="Grupo_87214" data-name="Grupo 87214" transform="translate(138.109 71.513)">
        <g id="Grupo_87212" data-name="Grupo 87212" transform="translate(6.067)">
          <path id="Trazado_138710" data-name="Trazado 138710" d="M261.633,351.841a4.721,4.721,0,0,0,4.722,4.709h0a4.723,4.723,0,0,0,4.709-4.709V339.172a4.719,4.719,0,0,0-4.709-4.709h0a4.717,4.717,0,0,0-4.722,4.709Z" transform="translate(-252.316 -308.806)" fill="#edb485"/>
          <path id="Trazado_138711" data-name="Trazado 138711" d="M261.578,346.288c0-7.959,5.174-15.549,11.553-15.549s11.566,7.59,11.566,15.549S279.523,360.7,273.131,360.7,261.578,354.253,261.578,346.288Z" transform="translate(-252.612 -328.813)" fill="#2a2626"/>
          <path id="Trazado_138712" data-name="Trazado 138712" d="M260.171,354.619a11.6,11.6,0,0,0,11.592,11.592h0a11.594,11.594,0,0,0,11.6-11.592V342.46a11.593,11.593,0,0,0-11.6-11.585h0a11.6,11.6,0,0,0-11.592,11.585Z" transform="translate(-260.171 -328.083)" fill="#edb485"/>
          <path id="Trazado_138713" data-name="Trazado 138713" d="M261.15,331.12a36.024,36.024,0,0,1,9.591-.618c11.331.574,15.218,9.514,15.218,12.388l-3.416-2.562c0,2.874-8.909,2.542-11.789,2.542h-9.6Z" transform="translate(-254.911 -330.437)" fill="#2a2626"/>
          <path id="Trazado_138714" data-name="Trazado 138714" d="M265.383,342.408a2.153,2.153,0,0,0,2.148-2.148v-5.474a2.151,2.151,0,0,0-2.148-2.141h0a2.132,2.132,0,0,0-2.135,2.141v5.474a2.134,2.134,0,0,0,2.135,2.148Z" transform="translate(-243.64 -318.573)" fill="#2a2626"/>
          <path id="Trazado_138715" data-name="Trazado 138715" d="M273.692,340.739a3.346,3.346,0,0,0-3.448-3.078H261.3v-6.277h17.225V342.81l-4.837-.554Z" transform="translate(-254.084 -325.348)" fill="#2a2626"/>
          <path id="Trazado_138716" data-name="Trazado 138716" d="M263.875,339.653c.975.917,2.919.44,4.34-1.071,1.447-1.51,1.823-3.467.848-4.391s-2.906-.446-4.34,1.064S262.913,338.736,263.875,339.653Z" transform="translate(-243.132 -312.792)" fill="#edb485"/>
          <g id="Grupo_87211" data-name="Grupo 87211" transform="translate(7.188 30.908)">
            <path id="Trazado_138717" data-name="Trazado 138717" d="M266.053,338.187a.348.348,0,0,1-.351-.344,1.848,1.848,0,0,0-1.854-1.854,1.871,1.871,0,0,0-1.867,1.854.334.334,0,0,1-.338.344.343.343,0,0,1-.344-.344,2.555,2.555,0,1,1,5.111,0A.35.35,0,0,1,266.053,338.187Z" transform="translate(-261.299 -335.287)" fill="#170805"/>
          </g>
        </g>
        <path id="Trazado_138718" data-name="Trazado 138718" d="M259.219,336.651a6.208,6.208,0,0,1,6.226-6.213h13.21a6.223,6.223,0,0,1,6.239,6.213h0a6.235,6.235,0,0,1-6.239,6.232h-13.21a6.22,6.22,0,0,1-6.226-6.232Z" transform="translate(-259.219 -330.431)" fill="#2a2626"/>
        <g id="Grupo_87213" data-name="Grupo 87213" transform="translate(8.418 21.282)">
          <path id="Trazado_138719" data-name="Trazado 138719" d="M260.683,337.354l3.989-.772-.6-.61-2.626-2.2-.5.6L263,336.11l-2.458.473Z" transform="translate(-260.54 -333.776)" fill="#170805"/>
          <path id="Trazado_138720" data-name="Trazado 138720" d="M266.112,337.354l.162-.772-2.471-.473,2.047-1.73-.5-.6-2.7,2.284-.522.522Z" transform="translate(-252.004 -333.776)" fill="#170805"/>
        </g>
        <path id="Trazado_138721" data-name="Trazado 138721" d="M264.467,337.463a1.363,1.363,0,0,1-1.179,1.549h0a1.378,1.378,0,0,1-1.555-1.192l-.249-1.905a1.366,1.366,0,0,1,1.179-1.542h0a1.371,1.371,0,0,1,1.549,1.185Z" transform="translate(-247.114 -309.366)" fill="#d69b6b"/>
      </g>
      <path id="Trazado_138722" data-name="Trazado 138722" d="M261.822,356.114c0,8.3-1.51,15.039-3.352,15.039-1.88,0-3.377-6.736-3.377-15.039s1.5-15.039,3.377-15.039C260.312,341.075,261.822,347.811,261.822,356.114Z" transform="translate(-143.277 -201.77)" fill="#b0c0d2"/>
      <path id="Trazado_138723" data-name="Trazado 138723" d="M239.314,349.929c.306,1.759,4.665,2.581,8.941,1.829,4.251-.752,7.475-2.791,7.169-4.537-.319-1.772-4.021-2.581-8.3-1.835S239,348.177,239.314,349.929Z" transform="translate(-228.146 -180.099)" fill="#cf9b72"/>
      <g id="Grupo_87217" data-name="Grupo 87217" transform="translate(138.217 76.745)">
        <path id="Trazado_138724" data-name="Trazado 138724" d="M266.941,335.327l-2.084,1.262L261.3,338.73c-.369-.5-.733-1.02-1.1-1.51-.3-.421-.644-.848-.969-1.274l3.843-2.332.338-.2,1.733-1.052c.057-.032.134-.07.2-.1a1.678,1.678,0,0,1,.8-.14,1.759,1.759,0,0,1,1.077.465,1.6,1.6,0,0,1,.293.363,1.766,1.766,0,0,1,.191.459A1.729,1.729,0,0,1,266.941,335.327Z" transform="translate(-259.236 -326.673)" fill="#e39c6d"/>
        <g id="Grupo_87216" data-name="Grupo 87216" transform="translate(2.981)">
          <g id="Grupo_87215" data-name="Grupo 87215" transform="translate(0)">
            <path id="Trazado_138725" data-name="Trazado 138725" d="M261.112,334.673a.975.975,0,0,0-.446,1.319h0a.953.953,0,0,0,1.294.446l5.3-2.562a.982.982,0,0,0,.465-1.306h0a1,1,0,0,0-1.319-.465Z" transform="translate(-255.095 -327.216)" fill="#e39c6d"/>
            <path id="Trazado_138726" data-name="Trazado 138726" d="M260.592,334.84a.994.994,0,0,0-.229,1.37h0a.972.972,0,0,0,1.357.229l4.811-3.409a.982.982,0,0,0,.229-1.364h0a.992.992,0,0,0-1.37-.229Z" transform="translate(-257.118 -331.258)" fill="#e39c6d"/>
            <path id="Trazado_138727" data-name="Trazado 138727" d="M261.444,331.351a1.066,1.066,0,0,1,1.007,1.115l-.268,4.754a3.561,3.561,0,0,1-1.549.5c-.318,0-.816-.765-.816-.765l.5-4.607A1.055,1.055,0,0,1,261.444,331.351Z" transform="translate(-259.085 -330.777)" fill="#e39c6d"/>
            <path id="Trazado_138728" data-name="Trazado 138728" d="M260.95,334.739a.965.965,0,0,0-.306,1.345h0a.978.978,0,0,0,1.345.344l5.021-3.052a.968.968,0,0,0,.325-1.351h0a.96.96,0,0,0-1.332-.338Z" transform="translate(-255.481 -329.704)" fill="#e39c6d"/>
            <path id="Rectángulo_32688" data-name="Rectángulo 32688" d="M.3,0H6.358a.307.307,0,0,1,.307.307V6.358a.305.305,0,0,1-.305.305H.305A.305.305,0,0,1,0,6.358V.3A.3.3,0,0,1,.3,0Z" transform="translate(0 5.62) rotate(-31.34)" fill="#e39c6d"/>
          </g>
        </g>
      </g>
      <g id="Grupo_87219" data-name="Grupo 87219" transform="translate(116.734 125.097)">
        <rect id="Rectángulo_32689" data-name="Rectángulo 32689" width="3.989" height="6.903" transform="translate(6.691 10.983) rotate(-29.796)" fill="#e39c6d"/>
        <g id="Grupo_87218" data-name="Grupo 87218">
          <path id="Trazado_138729" data-name="Trazado 138729" d="M261.583,344.354a1.013,1.013,0,0,1-.127,1.427h0a1.009,1.009,0,0,1-1.421-.121l-3.919-4.627a1,1,0,0,1,.108-1.427h0a1.017,1.017,0,0,1,1.427.115Z" transform="translate(-255.865 -336.046)" fill="#e39c6d"/>
          <path id="Trazado_138730" data-name="Trazado 138730" d="M261.589,344.553a1.008,1.008,0,0,1-.344,1.389h0a1,1,0,0,1-1.377-.363l-3.116-5.207a1,1,0,0,1,.35-1.383h0a1.024,1.024,0,0,1,1.4.357Z" transform="translate(-251.875 -338.845)" fill="#e39c6d"/>
          <path id="Trazado_138731" data-name="Trazado 138731" d="M260.39,339.428a1.1,1.1,0,0,0-1.421.643l-1.708,4.6a3.356,3.356,0,0,0,1.249,1.083c.306.147,1.09-.357,1.09-.357l1.427-4.556A1.08,1.08,0,0,0,260.39,339.428Z" transform="translate(-248.363 -336.104)" fill="#e39c6d"/>
          <path id="Trazado_138732" data-name="Trazado 138732" d="M261.493,344.388a1.018,1.018,0,0,1-.242,1.4h0a1.039,1.039,0,0,1-1.434-.255l-3.473-4.964a1.016,1.016,0,0,1,.255-1.415h0a1,1,0,0,1,1.4.261Z" transform="translate(-254.265 -338.145)" fill="#e39c6d"/>
          <path id="Rectángulo_32690" data-name="Rectángulo 32690" d="M.316,0H6.558a.315.315,0,0,1,.315.315V6.557a.315.315,0,0,1-.315.315H.315A.315.315,0,0,1,0,6.557V.316A.316.316,0,0,1,.316,0Z" transform="matrix(0.819, -0.574, 0.574, 0.819, 2.585, 7.37)" fill="#e39c6d"/>
        </g>
      </g>
      <g id="Grupo_87220" data-name="Grupo 87220" transform="translate(123.656 115.594)">
        <path id="Trazado_138733" data-name="Trazado 138733" d="M290.649,384.784a17.877,17.877,0,0,0,10.432-3.244c4.626-3.25,6.36-10.923,5.289-23.445-.592-6.952-2.332-16.683-3.689-18.812a4.094,4.094,0,0,0-5.487-1.4,4.013,4.013,0,0,0-1.491,5.48.605.605,0,0,0,.1.14A89.758,89.758,0,0,1,298.43,359.6c.8,10.464-.879,14.587-1.982,15.364-2.855,2.007-6.321,2.326-10.585.968-10.426-3.307-20.481-15.02-21.335-17.422l-7.577,2.708c1.02,2.8,4.658,7.373,9.24,11.63,3.976,3.664,10.177,8.507,17.25,10.744A23.846,23.846,0,0,0,290.649,384.784Z" transform="translate(-256.951 -337.354)" fill="#727997"/>
      </g>
      <g id="Grupo_87224" data-name="Grupo 87224" transform="translate(162.654 33.665)">
        <g id="Grupo_87222" data-name="Grupo 87222" transform="translate(0 76.828)">
          <rect id="Rectángulo_32691" data-name="Rectángulo 32691" width="7.206" height="4.176" transform="matrix(0.767, -0.642, 0.642, 0.767, 8.492, 4.625)" fill="#edb485"/>
          <g id="Grupo_87221" data-name="Grupo 87221" transform="translate(0 2.785)">
            <path id="Trazado_138734" data-name="Trazado 138734" d="M268.035,338.346a1.061,1.061,0,0,1,1.485-.153h0a1.057,1.057,0,0,1,.147,1.491l-4.047,4.907a1.068,1.068,0,0,1-1.5.134h0a1.047,1.047,0,0,1-.127-1.491Z" transform="translate(-259.463 -331.792)" fill="#edb485"/>
            <path id="Trazado_138735" data-name="Trazado 138735" d="M268.24,337.657a1.062,1.062,0,0,1,1.485.108h0a1.036,1.036,0,0,1-.1,1.491l-4.811,4.168a1.057,1.057,0,0,1-1.485-.108h0a1.052,1.052,0,0,1,.115-1.491Z" transform="translate(-263.071 -334.767)" fill="#edb485"/>
            <path id="Trazado_138736" data-name="Trazado 138736" d="M263.449,337.93a1.149,1.149,0,0,0,.918,1.351l5.053.93a3.934,3.934,0,0,0,.911-1.491c.07-.331-.586-1.045-.586-1.045l-4.964-.669A1.158,1.158,0,0,0,263.449,337.93Z" transform="translate(-261.153 -336.99)" fill="#edb485"/>
            <path id="Trazado_138737" data-name="Trazado 138737" d="M268.089,338.09a1.071,1.071,0,0,1,1.5.006h0a1.042,1.042,0,0,1,0,1.485l-4.5,4.505a1.057,1.057,0,0,1-1.5,0h0a1.05,1.05,0,0,1,0-1.491Z" transform="translate(-261.918 -332.722)" fill="#edb485"/>
            <path id="Trazado_138738" data-name="Trazado 138738" d="M266.422,337.715a2.1,2.1,0,0,1,2.97-.013l2.116,2.129a2.084,2.084,0,0,1,0,2.95l-2.116,2.116a2.086,2.086,0,0,1-2.957,0l-2.135-2.116a2.1,2.1,0,0,1,0-2.95Z" transform="translate(-259.729 -336.444)" fill="#edb485"/>
          </g>
        </g>
        <g id="Grupo_87223" data-name="Grupo 87223" transform="translate(9.293)">
          <path id="Trazado_138739" data-name="Trazado 138739" d="M264.529,402.52c1.727-1.408,6.245-6.36,11.547-14.09,6.525-9.508,11.566-19.315,14.2-27.618,1.771-5.576,4.958-21.724-1.383-29.429a4.212,4.212,0,0,1,6.5-5.359c10.509,12.79,3.218,36.336,2.906,37.324-4.047,12.777-11.859,24.955-16.148,31.066a115.474,115.474,0,0,1-8.4,10.719,37.5,37.5,0,0,1-3.836,3.843Z" transform="translate(-264.529 -324.498)" fill="#afafaf"/>
        </g>
      </g>
    </g>
  </g>
</svg>
