<svg xmlns="http://www.w3.org/2000/svg" xmlns:xlink="http://www.w3.org/1999/xlink" width="104.852" height="104.852" viewBox="0 0 104.852 104.852">
  <defs>
    <radialGradient id="radial-gradient" cx="0.076" cy="0.019" r="1.465" gradientTransform="translate(0.001)" gradientUnits="objectBoundingBox">
      <stop offset="0" stop-color="#f6f6f7"/>
      <stop offset="0.477" stop-color="#f9f9fa"/>
      <stop offset="0.715" stop-color="#fff"/>
    </radialGradient>
  </defs>
  <g id="Grupo_50460" data-name="Grupo 50460" transform="translate(-217 -997)">
    <g id="Grupo_18531" data-name="Grupo 18531" transform="translate(217 997)">
      <g id="Grupo_18423" data-name="Grupo 18423" transform="translate(0 0)">
        <g id="Grupo_18421" data-name="Grupo 18421">
          <g id="Grupo_18420" data-name="Grupo 18420">
            <g id="Grupo_18419" data-name="Grupo 18419">
              <path id="Trazado_40936" data-name="Trazado 40936" d="M299.475,2198.146a52.426,52.426,0,1,1-52.425-52.424A52.425,52.425,0,0,1,299.475,2198.146Z" transform="translate(-194.623 -2145.721)" fill="#fff"/>
            </g>
          </g>
        </g>
        <path id="Trazado_40937" data-name="Trazado 40937" d="M298.99,2197.617a52.425,52.425,0,1,0-52.425,52.427A52.219,52.219,0,0,0,298.99,2197.617Z" transform="translate(-194.138 -2145.192)" fill="url(#radial-gradient)"/>
        <path id="Trazado_40938" data-name="Trazado 40938" d="M282.3,2193.357a40.016,40.016,0,1,0-40.016,40.016A39.868,39.868,0,0,0,282.3,2193.357Z" transform="translate(-189.698 -2140.758)" fill="none" stroke="#7d6eb2" stroke-miterlimit="10" stroke-width="4"/>
        <g id="Grupo_18422" data-name="Grupo 18422" transform="translate(9.288 29.433)">
          <path id="Trazado_40939" data-name="Trazado 40939" d="M290.808,2164.488a52.432,52.432,0,0,1-90.263,52.208,52.266,52.266,0,0,0,90.263-52.208Z" transform="translate(-200.545 -2164.488)" fill="#eceef0"/>
        </g>
      </g>
    </g>
    <g id="Grupo_77970" data-name="Grupo 77970" transform="translate(-1054.553 259.633)">
      <path id="Trazado_138570" data-name="Trazado 138570" d="M1311.123,860.477H1327.3c.027.082.068.14.058.188-.228,1.054.378,1.7,1.044,2.4,1.933,2.015,3.821,4.073,5.7,6.136a1.392,1.392,0,0,1,.326.854c.025,2.618,0,5.237.025,7.856a.757.757,0,0,1-.485.787c-1.242.628-2.469,1.285-3.776,1.97-.013-.269-.03-.467-.03-.666q0-3.271,0-6.542a2.157,2.157,0,0,0-2.334-2.377c-1.51-.013-3.02.036-4.53.034-3.057-.005-6.114-.029-9.171-.041-1.126,0-2.253.026-3.378,0a2.266,2.266,0,0,0-2.433,2.411q.1,5.048,0,10.1a2.27,2.27,0,0,0,2.37,2.36c3.577-.021,7.155-.007,10.732-.007h.689a15.753,15.753,0,0,0-.91,6.047c-.239.014-.406.032-.572.032q-6,0-11.995,0a3.89,3.89,0,0,1-2.9-1.151,3.073,3.073,0,0,1-.935-2.214q0-9.354.013-18.709a1.267,1.267,0,0,1,.315-.747q2.707-3.121,5.455-6.206a1.751,1.751,0,0,0,.556-1.476A8.495,8.495,0,0,1,1311.123,860.477Z" transform="translate(0 -80.997)" fill="#12263f"/>
      <path id="Trazado_138571" data-name="Trazado 138571" d="M1463.971,1030.319a7.2,7.2,0,0,1-7.12-6.308,7.663,7.663,0,0,1,4.389-7.72c3.946-1.842,7.927-3.616,11.948-5.287a7.7,7.7,0,0,1,9.615,3.1,7.315,7.315,0,0,1-2.3,9.563,24.73,24.73,0,0,1-4.021,2.045c-2.852,1.3-5.728,2.54-8.59,3.813A9.3,9.3,0,0,1,1463.971,1030.319Zm8.708-4.493-4.9-10.855c-2.07.934-4.133,1.759-6.094,2.779a5.851,5.851,0,0,0-3.273,5,5.647,5.647,0,0,0,5.238,6,5.955,5.955,0,0,0,2.486-.2C1468.328,1027.734,1470.464,1026.761,1472.679,1025.826Z" transform="translate(-134.55 -213.708)" fill="#12263f"/>
      <path id="Trazado_138572" data-name="Trazado 138572" d="M1346.6,778.769q-4.219,0-8.437,0a2.181,2.181,0,0,1-2.484-2.5c0-1.7,0-3.406,0-5.108a2.073,2.073,0,0,1,1.939-2.158,4.519,4.519,0,0,1,.515-.024c5.625,0,11.25-.011,16.874.014a3.5,3.5,0,0,1,1.525.377,1.829,1.829,0,0,1,.968,1.764c-.01,1.779,0,3.559,0,5.338a2.129,2.129,0,0,1-2.291,2.294C1352.337,778.777,1349.467,778.769,1346.6,778.769Z" transform="translate(-27.339)" fill="#12263f"/>
      <path id="Trazado_138573" data-name="Trazado 138573" d="M1390.492,979.562h-3.5V975.9h-3.571v-3.658h3.5c0-1.11.024-2.136-.011-3.161-.016-.471.11-.64.6-.622.95.035,1.9.01,2.921.01v3.686h3.538v3.653h-3.473Z" transform="translate(-69.601 -176.584)" fill="#12263f"/>
    </g>
  </g>
</svg>
