<svg xmlns="http://www.w3.org/2000/svg" width="328.446" height="242.649" viewBox="0 0 328.446 242.649">
  <g id="Grupo_87408" data-name="Grupo 87408" transform="translate(-990.797 -7222.016)">
    <g id="Grupo_87407" data-name="Grupo 87407" transform="translate(990.797 7222.016)">
      <g id="Grupo_87406" data-name="Grupo 87406" transform="translate(0 63.405)">
        <g id="Grupo_87398" data-name="Grupo 87398" transform="translate(0.753 8.357)">
          <path id="Trazado_138986" data-name="Trazado 138986" d="M40.118,161.254c-7.791-6.7-10.545-16.288-6.153-21.394s14.277-3.8,22.071,2.908,10.556,16.284,6.157,21.394S47.916,167.968,40.118,161.254Z" transform="translate(-11.586 -136.743)" fill="#12263f"/>
          <path id="Trazado_138987" data-name="Trazado 138987" d="M47.824,164.8c-9.915-2.736-19.4.315-21.2,6.813s4.8,13.977,14.709,16.706,19.409-.315,21.2-6.809S57.739,167.531,47.824,164.8Z" transform="translate(-26.335 -64.711)" fill="#12263f"/>
        </g>
        <g id="Grupo_87401" data-name="Grupo 87401" transform="translate(70.289 27.121)">
          <g id="Grupo_87400" data-name="Grupo 87400">
            <path id="Trazado_138988" data-name="Trazado 138988" d="M45.32,256.666c21.731,1.066,39.433,1.41,61.163,2.593a353.881,353.881,0,0,0,18.954-96.7c-20.573-7.109-37.092-13.471-57.622-20.691Z" transform="translate(-45.32 -141.866)" fill="#afafaf"/>
            <g id="Grupo_87399" data-name="Grupo 87399" transform="translate(3.725 4.113)">
              <path id="Trazado_138989" data-name="Trazado 138989" d="M46.337,250.757,67.46,142.989c8,2.839,15.49,5.571,22.76,8.223,9.292,3.392,18.87,6.89,29.291,10.512-.56,9.713-1.546,19.42-2.948,29.012q-1.159,8.043-2.714,15.962c-1.146,5.831-2.535,12.072-4.1,18.372-2.388,9.593-5.179,19.324-8.139,27.987-11.039-.582-21.262-.956-31.162-1.329C62.735,251.442,54.787,251.145,46.337,250.757Z" transform="translate(-46.337 -142.989)" fill="#b0c0d2"/>
            </g>
            <path id="Trazado_138990" data-name="Trazado 138990" d="M96.71,164.177,82.924,181.234,71.13,158.159l-8.651,18.434s-5.007-3.036-8.56-4.934l-7.582,38.7c8.45.388,16.4.685,24.112.971,9.9.374,20.123.747,31.162,1.33,2.959-8.662,5.75-18.394,8.139-27.987q.681-2.747,1.315-5.468a19.685,19.685,0,0,1-10.56-1.491Z" transform="translate(-42.612 -98.483)" fill="#12263f"/>
          </g>
        </g>
        <g id="Grupo_87403" data-name="Grupo 87403" transform="translate(17.118 1.229)">
          <g id="Grupo_87402" data-name="Grupo 87402">
            <path id="Trazado_138991" data-name="Trazado 138991" d="M30.8,281.866s21.181,6.058,30.862,7.443a11.456,11.456,0,0,0,6.153-1.216q8.3-4.642,16.467-9.516a8.5,8.5,0,0,0,3.571-4.908c3.56-18.108,7.622-38.792,11.182-56.9q5.186-26.393,10.38-52.783a8.537,8.537,0,0,0-1.447-5.9q-5.73-7.587-11.644-15.039a11.462,11.462,0,0,0-5.238-3.454c-1.872-.473-2.809-.692-4.692-1.11l-.011,0c-8.926-1.769-26.76-3.681-26.76-3.681Z" transform="translate(-30.803 -134.797)" fill="#afafaf"/>
            <path id="Trazado_138992" data-name="Trazado 138992" d="M40.665,278.459c5.084-2.846,10.347-5.89,16.094-9.3a6.151,6.151,0,0,0,2.392-3.242c2.117-10.772,4.414-22.452,6.67-33.957l4.509-22.943,10.38-52.787a6.133,6.133,0,0,0-.993-3.912c-4.051-5.377-7.8-10.215-11.431-14.786Z" transform="translate(-4.543 -127.522)" fill="#e8e8e8"/>
          </g>
        </g>
        <path id="Trazado_138993" data-name="Trazado 138993" d="M26.129,276.508,74.267,134.461l15.6,1.193L39.239,285.047Z" transform="translate(-26.129 -134.461)" fill="#b0c0d2"/>
        <g id="Grupo_87404" data-name="Grupo 87404" transform="translate(35.273 8.357)">
          <path id="Trazado_138994" data-name="Trazado 138994" d="M46.681,162.008c-3.377-1.443-4.963-3.546-4.238-7.249L44.8,142.72a7.4,7.4,0,0,1,8.684-5.838l.256.051a7.4,7.4,0,0,1,5.838,8.684S50.2,163.521,46.681,162.008Z" transform="translate(-18.423 -136.743)" fill="#ff9d00"/>
          <path id="Trazado_138995" data-name="Trazado 138995" d="M44.921,168.485c-3.677.066-5.934,1.414-6.662,5.117L35.9,185.638a7.4,7.4,0,0,0,5.838,8.688l.256.048a7.4,7.4,0,0,0,8.684-5.838S48.745,168.416,44.921,168.485Z" transform="translate(-35.76 -52.224)" fill="#fafbfd"/>
          <path id="Trazado_138996" data-name="Trazado 138996" d="M44.368,169.971c-.751,1.128-.374,2.256-.751,3.384-.751,1.128-1.879-.751-2.637-.751-3.183-.293-2.806,3.432-4.348,5.329l-.733,3.747a7.4,7.4,0,0,0,5.838,8.688l.256.048a7.4,7.4,0,0,0,8.684-5.838s-.571-5.915-1.7-11.318A6.374,6.374,0,0,1,44.368,169.971Z" transform="translate(-35.76 -48.267)" fill="#12263f"/>
          <path id="Trazado_138997" data-name="Trazado 138997" d="M44.287,168.485c-3.677.066-5.934,1.414-6.662,5.117L36,181.891c1.542-1.9,1.165-5.622,4.348-5.329.758,0,1.886,1.879,2.637.751.377-1.128,0-2.256.751-3.384a6.374,6.374,0,0,0,4.608,3.289C47.389,172.65,46.034,168.456,44.287,168.485Z" transform="translate(-35.125 -52.224)" fill="#fff"/>
        </g>
        <rect id="Rectángulo_32751" data-name="Rectángulo 32751" width="45.147" height="9.653" transform="translate(41.499 99.678) rotate(-78.914)" fill="#12263f"/>
        <g id="Grupo_87405" data-name="Grupo 87405" transform="translate(87.317 39.944)">
          <path id="Trazado_138998" data-name="Trazado 138998" d="M58.8,180.511l-8.834-1.729,6.549-33.415,8.834,1.729a10.717,10.717,0,0,1,8.12,7.164l2.853.557A10.72,10.72,0,0,1,84.783,167.4l-.322,1.645A10.722,10.722,0,0,1,71.883,177.5l-2.857-.56A10.7,10.7,0,0,1,58.8,180.511Z" transform="translate(-49.969 -145.367)" fill="#d2e1f1"/>
        </g>
      </g>
      <path id="Trazado_138999" data-name="Trazado 138999" d="M71.149,150.088l3.2,7.5,7.856-2.173-3.866,7.179,6.6,4.788-8.019,1.45.368,8.144-6.134-5.367-6.138,5.367.37-8.144-8.019-1.45,6.594-4.788-3.865-7.179,7.855,2.173Z" transform="translate(57.033 -29.447)" fill="#322838"/>
      <path id="Trazado_139000" data-name="Trazado 139000" d="M38.631,178.621c-.264,0-9.941,6.728-9.941,6.728a6.192,6.192,0,0,0,4.97,2.242h13.1Z" transform="translate(-19.312 46.528)" fill="#d0edfe"/>
      <path id="Trazado_139001" data-name="Trazado 139001" d="M46.26,182.165c-.117,0-5.109-1.157-5.109-1.157l-.472,5.282,2.238,3.476L48.9,187.1l2.941-3.051Z" transform="translate(12.609 52.884)" fill="#afafaf"/>
      <path id="Trazado_139002" data-name="Trazado 139002" d="M34.872,179.5c.165-.483,3.531-2.553,3.531-2.553l2.978,2.025.472,2.688-4.08.736-2.223-1.168Z" transform="translate(-2.851 42.081)" fill="#afafaf"/>
      <path id="Trazado_139003" data-name="Trazado 139003" d="M32.543,181.586l1.653,4.529,5.388-1.066,1.882-3.463-4.629.6Z" transform="translate(-9.054 54.423)" fill="#afafaf"/>
      <path id="Trazado_139004" data-name="Trazado 139004" d="M50.615,177.519c-.114,0-2.956,2.128-2.956,2.128l-6.988-.831,4.586,3.981.385,5.278,6.249-4.619Z" transform="translate(12.59 43.594)" fill="#d0edfe"/>
      <path id="Trazado_139005" data-name="Trazado 139005" d="M46.6,177.841c-.117,0-2.959,1.806-2.959,1.806l-4.805,1.344-2.176,3.824,4.967,2,4.465-1.436Z" transform="translate(1.897 44.451)" fill="#d0edfe"/>
      <path id="Trazado_139006" data-name="Trazado 139006" d="M36.016,183.9c.161-.575,3.154-2.688,3.531-3.007s1.363,2.11,2.04,2.4,2.472,3.337,1.41,3.15-4.088.864-4.088.864l-.491-3.392Z" transform="translate(0.195 52.506)" fill="#afafaf"/>
      <path id="Trazado_139007" data-name="Trazado 139007" d="M44.765,176.856l1.651,5.331,5.39-1.255,1.885-4.076-4.632.71Z" transform="translate(23.492 41.827)" fill="#afafaf"/>
      <path id="Trazado_139008" data-name="Trazado 139008" d="M91.246,132.247a6.62,6.62,0,0,0-.648-4.384,6.256,6.256,0,0,0-3-3.007,7.9,7.9,0,0,0-3.066-.41,8.918,8.918,0,0,0-.6-1.007,8.43,8.43,0,0,0-3.113-2.655,15.6,15.6,0,0,0-1.894-2.157c-1.846-1.791-4.461-1.689-6.8-1.062a9.754,9.754,0,0,0-4.132,2.19,4.958,4.958,0,0,0-2.725-1.571c-2.373-.516-4.831,1.319-6.234,3.044a11.438,11.438,0,0,0-2.472,4.9v0a7.879,7.879,0,0,0-2.615,1.5,17.882,17.882,0,0,0-4.534,6.673,7.042,7.042,0,0,0-.634,3.289,6.766,6.766,0,0,0,1.78,3.835,9.309,9.309,0,0,0,2.132,1.795,8.908,8.908,0,0,0-.637,1.722,7.986,7.986,0,0,0,2.187,8.2,6.444,6.444,0,0,0,4.1,1.461c-.048.11-.1.212-.139.315a17.192,17.192,0,0,0-1.425,7.721,7,7,0,0,0,5.274,5.959,8.928,8.928,0,0,0,4.414-.066l.055.044a4.049,4.049,0,0,0-.418.319,5.65,5.65,0,0,0-1.524,1.626,6.522,6.522,0,0,0-.967,2.692,6.981,6.981,0,0,0-1.282,3.278c-.377,2.516-.158,5.267,1.667,7.194a6.6,6.6,0,0,0,6.274,1.912,6.011,6.011,0,0,0,.4,2.791,5.757,5.757,0,0,0,1.923,2.7,2.731,2.731,0,0,0-.831.912,6.853,6.853,0,0,0-.656,3.721,3.236,3.236,0,0,0,1.824,3.014c1.377.7,2.9-.081,3.846-1.11a6.083,6.083,0,0,0,1.641-3.908,2.78,2.78,0,0,0-.319-1.447l.037-.084a2.99,2.99,0,0,0-.154-2.242,3.487,3.487,0,0,0,2.26-1.161,4.905,4.905,0,0,0,1.278-2.9,3.935,3.935,0,0,0-.912-3c.055-.1.11-.2.158-.3A12.4,12.4,0,0,0,81.412,181a6.49,6.49,0,0,0,2.509-2.26,7.265,7.265,0,0,0,.927-4.992,6.243,6.243,0,0,0-1.916-3.8l.022,0a6.8,6.8,0,0,0,3.011-1.637,9.648,9.648,0,0,0,2.923-5.882,7.573,7.573,0,0,0-1.059-5.164c.022-.026.048-.048.066-.073a6.845,6.845,0,0,0,1.6-6.487,5.825,5.825,0,0,0-.916-1.754,8.052,8.052,0,0,0,3.8-4.4c1.029-3.168-.919-6.45-3.71-8.1A7.12,7.12,0,0,0,91.246,132.247Z" transform="translate(34.119 -117.15)" fill="#12263f"/>
    </g>
    <g id="Grupo_87397" data-name="Grupo 87397" transform="translate(1086 7278.757)">
      <g id="Grupo_87369" data-name="Grupo 87369" transform="translate(110.168 0)">
        <g id="Grupo_87361" data-name="Grupo 87361">
          <g id="Grupo_87344" data-name="Grupo 87344" transform="translate(0 61.557)">
            <rect id="Rectángulo_32736" data-name="Rectángulo 32736" width="3.493" height="6.038" transform="translate(7.254 9.051) rotate(-45.667)" fill="#edb485"/>
            <g id="Grupo_87343" data-name="Grupo 87343">
              <path id="Trazado_138918" data-name="Trazado 138918" d="M202.807,62.968a.881.881,0,0,1,.241,1.225h0a.885.885,0,0,1-1.23.245l-4.407-2.949a.893.893,0,0,1-.249-1.234h0a.9.9,0,0,1,1.234-.249Z" transform="translate(-197.014 -55.941)" fill="#edb485"/>
              <path id="Trazado_138919" data-name="Trazado 138919" d="M203.123,62.816a.887.887,0,0,1,.038,1.251h0a.888.888,0,0,1-1.255.038l-3.862-3.646a.891.891,0,0,1-.034-1.255h0a.9.9,0,0,1,1.251-.034Z" transform="translate(-194.579 -58.933)" fill="#edb485"/>
              <path id="Trazado_138920" data-name="Trazado 138920" d="M200.415,59.251a.952.952,0,0,0-1.035.883l-.346,4.272a3.075,3.075,0,0,0,1.314.63c.287.042.828-.575.828-.575l.127-4.174A.955.955,0,0,0,200.415,59.251Z" transform="translate(-190.502 -57.92)" fill="#edb485"/>
              <path id="Trazado_138921" data-name="Trazado 138921" d="M202.82,62.811a.886.886,0,0,1,.127,1.246h0a.894.894,0,0,1-1.246.127l-4.124-3.351a.891.891,0,0,1-.127-1.251h0a.892.892,0,0,1,1.242-.131Z" transform="translate(-196.25 -57.884)" fill="#edb485"/>
              <path id="Rectángulo_32737" data-name="Rectángulo 32737" d="M.414,0H5.592a.416.416,0,0,1,.416.416V5.6a.416.416,0,0,1-.416.416H.415A.415.415,0,0,1,0,5.6V.414A.414.414,0,0,1,.414,0Z" transform="translate(2.933 6.977) rotate(-50.751)" fill="#edb485"/>
            </g>
          </g>
          <g id="Grupo_87345" data-name="Grupo 87345" transform="translate(8.07 34.401)">
            <path id="Trazado_138922" data-name="Trazado 138922" d="M217.739,98.067a15.713,15.713,0,0,1-4.441.634,19.522,19.522,0,0,1-10.178-3.237c-.4-.254-4.2-3.405-4.2-3.405l4.682-5.328a23.023,23.023,0,0,0,3.228,2.763c4.669,2.9,8.539,2.9,12.545-.017,7.094-5.159,8.281-15.105,8.455-19.144.03-.642.055-1.327.072-2.058.144-4.686.33-10.5,2.548-14.1a3.517,3.517,0,0,1,5.983,3.7c-1.225,2-1.394,7.187-1.5,10.626-.017.752-.042,1.466-.072,2.146-.469,10.681-4.61,19.63-11.349,24.523A18.824,18.824,0,0,1,217.739,98.067Z" transform="translate(-198.924 -52.506)" fill="#81d4fa"/>
          </g>
          <g id="Grupo_87353" data-name="Grupo 87353" transform="translate(45.552 86.338)">
            <rect id="Rectángulo_32738" data-name="Rectángulo 32738" width="4.207" height="3.54" transform="matrix(0.504, -0.864, 0.864, 0.504, 66.578, 66.687)" fill="#cf9b72"/>
            <rect id="Rectángulo_32739" data-name="Rectángulo 32739" width="4.941" height="5.123" transform="matrix(0.504, -0.864, 0.864, 0.504, 68.365, 68.149)" fill="#fff"/>
            <g id="Grupo_87347" data-name="Grupo 87347">
              <g id="Grupo_87346" data-name="Grupo 87346">
                <path id="Trazado_138923" data-name="Trazado 138923" d="M277.642,125.7c-24.679-13.728-47.686-33.472-54.408-60.9-3.968.917-11.459,1.711-15.439,2.624,8.184,30.32,37.292,52.452,65.14,67.012C274.494,131.514,276.074,128.611,277.642,125.7Z" transform="translate(-207.795 -64.798)" fill="#12263f"/>
              </g>
            </g>
            <g id="Grupo_87349" data-name="Grupo 87349">
              <g id="Grupo_87348" data-name="Grupo 87348">
                <path id="Trazado_138924" data-name="Trazado 138924" d="M223.53,78.8c-2.058,1.673-4.077,3.406-6.114,5.108-.63.524-1.246,1.056-1.863,1.593a71.853,71.853,0,0,1-7.757-18.084c3.98-.913,11.471-1.707,15.439-2.624a69.214,69.214,0,0,0,3.773,11.15C225.8,76.84,224.683,77.867,223.53,78.8Z" transform="translate(-207.795 -64.798)" fill="#12263f"/>
                <path id="Trazado_138925" data-name="Trazado 138925" d="M221.034,77.033c-1.618,1.732-3.279,3.427-4.905,5.146-.6.646-1.2,1.3-1.791,1.96q-2.466-3.3-4.6-6.76c.334-.3.668-.592,1.01-.887,2.011-1.72,4.031-3.444,6.034-5.184,1.39-1.213,2.734-2.565,4.179-3.752a71.025,71.025,0,0,0,3.405,6.688A13.4,13.4,0,0,0,221.034,77.033Z" transform="translate(-201.522 -55.903)" fill="#4fbef0" style="mix-blend-mode: multiply;isolation: isolate"/>
              </g>
            </g>
            <g id="Grupo_87352" data-name="Grupo 87352" transform="translate(68.288 64.67)">
              <g id="Grupo_87351" data-name="Grupo 87351">
                <g id="Grupo_87350" data-name="Grupo 87350">
                  <path id="Trazado_138926" data-name="Trazado 138926" d="M231.683,80.647a.911.911,0,0,1,.363,1.251c-.832,1.5-2.607,4.732-2.607,4.732l-4.1,7.424-1.06-.579L231.433,80.5Z" transform="translate(-222.928 -78.816)" fill="#12263f"/>
                  <path id="Trazado_138927" data-name="Trazado 138927" d="M225.33,94.766l7.162-12.959-1.251-.684v-.008l-1.631-.9a.932.932,0,0,0-1.162.22l.1.051a1.729,1.729,0,0,1-1.669,3.029l-.106-.063-1.555,3.308.072.038a.95.95,0,0,1,.452.448.608.608,0,0,1,.055.182,1.6,1.6,0,0,1-.085.824.883.883,0,0,0-.068.169,5.338,5.338,0,0,1-.245.5l-.862,1.572C223.636,92.117,223.7,93.871,225.33,94.766Z" transform="translate(-223.957 -80.104)" fill="#2790bf"/>
                </g>
              </g>
            </g>
          </g>
          <rect id="Rectángulo_32740" data-name="Rectángulo 32740" width="3.531" height="4.202" transform="matrix(0.19, -0.982, 0.982, 0.19, 26.184, 171.187)" fill="#cf9b72"/>
          <rect id="Rectángulo_32741" data-name="Rectángulo 32741" width="5.121" height="4.939" transform="translate(25.081 174.905) rotate(-78.916)" fill="#fff"/>
          <path id="Trazado_138928" data-name="Trazado 138928" d="M220.414,65.162h-8.742V76.228h8.742a4.98,4.98,0,0,0,4.986-4.981v-3.1C225.4,65.394,223.169,65.162,220.414,65.162Z" transform="translate(-149.739 22.714)" fill="#12263f"/>
          <g id="Grupo_87355" data-name="Grupo 87355" transform="translate(23.965 84.23)">
            <g id="Grupo_87354" data-name="Grupo 87354">
              <path id="Trazado_138929" data-name="Trazado 138929" d="M212.476,149.42c4.842-27.814,15.916-56.03,39.607-71.41-2.172-3.452-5.383-10.263-7.563-13.711-25.934,17.7-37.249,52.468-41.834,83.553Q207.585,148.632,212.476,149.42Z" transform="translate(-202.686 -64.299)" fill="#12263f"/>
            </g>
          </g>
          <path id="Trazado_138930" data-name="Trazado 138930" d="M206.508,57.8l5.877,55.367a2.15,2.15,0,0,0,2.32,1.982l25.71-2.721A2.165,2.165,0,0,0,242.266,110l-5.873-55.375a2.151,2.151,0,0,0-2.324-1.977l-3.925-.283-9.908-.71L208.257,55.3a2.585,2.585,0,0,0-1.707,1.732A2.289,2.289,0,0,0,206.508,57.8Z" transform="translate(-166.44 -20.842)" fill="#2790bf"/>
          <path id="Trazado_138931" data-name="Trazado 138931" d="M210.016,65.73a3.775,3.775,0,0,0,4.153,3.355h0a3.773,3.773,0,0,0,3.355-4.149l-1.306-12.342a3.772,3.772,0,0,0-4.149-3.351h0A3.775,3.775,0,0,0,208.71,53.4Z" transform="translate(-159.36 -28.695)" fill="#d69b6b"/>
          <path id="Trazado_138932" data-name="Trazado 138932" d="M208.433,58.007c-.672-6.334,2.81-12.815,7.893-13.352s9.845,5.062,10.516,11.4-2.9,11.907-7.99,12.443S209.105,64.34,208.433,58.007Z" transform="translate(-160.452 -43.543)" fill="#2a2626"/>
          <path id="Trazado_138933" data-name="Trazado 138933" d="M207.689,64.889a9.284,9.284,0,0,0,10.2,8.248h0a9.283,9.283,0,0,0,8.243-10.208l-1.027-9.68a9.269,9.269,0,0,0-10.2-8.239h0a9.266,9.266,0,0,0-8.243,10.2Z" transform="translate(-166.066 -42.452)" fill="#edb485"/>
          <path id="Trazado_138934" data-name="Trazado 138934" d="M212.724,50.845a.353.353,0,0,1-.317.393l-4,.452a.364.364,0,0,1-.4-.313h0a.362.362,0,0,1,.313-.4l4.01-.448a.351.351,0,0,1,.393.313Z" transform="translate(-161.561 -24.479)" fill="#2a2626"/>
          <path id="Trazado_138935" data-name="Trazado 138935" d="M207.518,45.691a28.6,28.6,0,0,1,7.593-1.3c9.063-.5,12.912,6.274,13.161,8.569l-2.928-1.749c.241,2.286-6.883,2.78-9.177,3.029l-7.652.811Z" transform="translate(-163.136 -44.364)" fill="#2a2626"/>
          <path id="Trazado_138936" data-name="Trazado 138936" d="M212.7,54.667a1.708,1.708,0,0,0,1.521-1.884l-.465-4.365a1.71,1.71,0,0,0-1.889-1.521h0a1.7,1.7,0,0,0-1.508,1.88l.456,4.373a1.718,1.718,0,0,0,1.884,1.517Z" transform="translate(-154.007 -36.223)" fill="#2a2626"/>
          <path id="Trazado_138937" data-name="Trazado 138937" d="M218.46,53.17a2.676,2.676,0,0,0-3-2.159l-7.111.752-.532-4.986,13.711-1.453.963,9.084-3.9-.03Z" transform="translate(-162.185 -41.267)" fill="#2a2626"/>
          <path id="Trazado_138938" data-name="Trazado 138938" d="M211.509,54.232c1.073.456,2.518-.541,3.22-2.218s.393-3.4-.68-3.849-2.514.541-3.22,2.218S210.432,53.784,211.509,54.232Z" transform="translate(-153.675 -32.454)" fill="#edb485"/>
          <path id="Trazado_138939" data-name="Trazado 138939" d="M205.638,50.995a4.982,4.982,0,0,1,4.428-5.48l10.529-1.12a4.983,4.983,0,0,1,5.48,4.432h0a4.973,4.973,0,0,1-4.428,5.476l-10.525,1.115a4.975,4.975,0,0,1-5.484-4.424Z" transform="translate(-169.292 -44.352)" fill="#2a2626"/>
          <g id="Grupo_87358" data-name="Grupo 87358" transform="translate(15.726 172.042)">
            <g id="Grupo_87357" data-name="Grupo 87357">
              <g id="Grupo_87356" data-name="Grupo 87356">
                <path id="Trazado_138940" data-name="Trazado 138940" d="M215.486,88.508a.917.917,0,0,1-1.061.748c-1.694-.292-5.332-.9-5.332-.9l-8.357-1.437.207-1.191,14.59,2.493Z" transform="translate(-200.736 -83.011)" fill="#2a2626"/>
                <path id="Trazado_138941" data-name="Trazado 138941" d="M200.784,87.824l14.59,2.489.241-1.394v0l.317-1.834a.92.92,0,0,0-.6-1.018l-.013.1a1.725,1.725,0,1,1-3.4-.579l.017-.123-3.634-.38-.013.084a1.019,1.019,0,0,1-.275.579.725.725,0,0,1-.148.106,1.534,1.534,0,0,1-.807.19c-.063,0-.131,0-.194-.008a3.443,3.443,0,0,1-.541-.063l-1.762-.3C202.728,85.352,201.1,85.99,200.784,87.824Z" transform="translate(-200.581 -85.082)" fill="#2a2626"/>
              </g>
            </g>
          </g>
          <g id="Grupo_87360" data-name="Grupo 87360" transform="translate(42.378 16.107)">
            <g id="Grupo_87359" data-name="Grupo 87359">
              <path id="Trazado_138942" data-name="Trazado 138942" d="M208.724,49.571a1.048,1.048,0,1,0,.883-1.39A1.178,1.178,0,0,0,208.724,49.571Z" transform="translate(-201.654 -48.176)" fill="#2a2626"/>
              <path id="Trazado_138943" data-name="Trazado 138943" d="M207.053,49.744a1.046,1.046,0,1,0,.875-1.386A1.17,1.17,0,0,0,207.053,49.744Z" transform="translate(-207.044 -47.602)" fill="#2a2626"/>
            </g>
            <path id="Trazado_138944" data-name="Trazado 138944" d="M208.089,51.6a1.1,1.1,0,0,0,1.2.972h0a1.094,1.094,0,0,0,.968-1.2l-.161-1.508a1.089,1.089,0,0,0-1.2-.963h0a1.086,1.086,0,0,0-.963,1.2Z" transform="translate(-204.197 -45.861)" fill="#d69b6b"/>
          </g>
        </g>
        <g id="Grupo_87368" data-name="Grupo 87368" transform="translate(58.293 31.68)">
          <path id="Trazado_138945" data-name="Trazado 138945" d="M213.86,72.024a.921.921,0,0,0,1.3.2l3.334-2.455a2.937,2.937,0,0,0-.372-1.356c-.148-.224-.934-.237-.934-.237l-3.131,2.552A.926.926,0,0,0,213.86,72.024Z" transform="translate(-201.558 0.752)" fill="#edb485"/>
          <g id="Grupo_87363" data-name="Grupo 87363" transform="translate(0 70.781)">
            <path id="Trazado_138946" data-name="Trazado 138946" d="M213.239,68.614v7.819h1.743v-6.01h11.083v6.01h1.745V68.614Z" transform="translate(-202.977 -68.614)" fill="#12263f"/>
            <g id="Grupo_87362" data-name="Grupo 87362" transform="translate(2.257 4.091)">
              <rect id="Rectángulo_32742" data-name="Rectángulo 32742" width="4.335" height="1.102" fill="#2a2626"/>
              <rect id="Rectángulo_32743" data-name="Rectángulo 32743" width="4.334" height="1.102" transform="translate(26.243)" fill="#2a2626"/>
            </g>
            <rect id="Rectángulo_32744" data-name="Rectángulo 32744" width="35.097" height="24.208" transform="translate(0 4.627)" fill="#ff9d00"/>
            <path id="Trazado_138947" data-name="Trazado 138947" d="M224.835,74.575h-3.326V71.249h-4.541v3.326h-3.33v4.539h3.33v3.327h4.541V79.114h3.326Z" transform="translate(-201.689 -60.115)" fill="#fff"/>
            <path id="Trazado_138948" data-name="Trazado 138948" d="M221.462,87.59a8.516,8.516,0,1,1,8.518-8.518A8.525,8.525,0,0,1,221.462,87.59Zm0-16.4a7.884,7.884,0,1,0,7.888,7.88A7.885,7.885,0,0,0,221.462,71.192Z" transform="translate(-203.917 -62.343)" fill="#fdfffe"/>
            <path id="Trazado_138949" data-name="Trazado 138949" d="M212.34,93.917V71.238h33.568V69.709h-35.1V93.917Z" transform="translate(-210.81 -65.082)" fill="#12263f"/>
            <path id="Trazado_138950" data-name="Trazado 138950" d="M244.375,70.071V91.215H210.81V92.75h35.1V70.071Z" transform="translate(-210.81 -63.915)" fill="#12263f"/>
          </g>
          <g id="Grupo_87367" data-name="Grupo 87367" transform="translate(5.968)">
            <g id="Grupo_87365" data-name="Grupo 87365" transform="translate(7.692 64.095)">
              <rect id="Rectángulo_32745" data-name="Rectángulo 32745" width="5.824" height="3.369" transform="translate(3.044 5.337) rotate(-66.404)" fill="#edb485"/>
              <g id="Grupo_87364" data-name="Grupo 87364" transform="translate(0 3.981)">
                <path id="Rectángulo_32746" data-name="Rectángulo 32746" d="M.424,0H5.747a.426.426,0,0,1,.426.426V5.743a.426.426,0,0,1-.426.426H.425A.425.425,0,0,1,0,5.744V.424A.424.424,0,0,1,.424,0Z" transform="translate(0 5.849) rotate(-71.351)" fill="#edb485"/>
              </g>
            </g>
            <g id="Grupo_87366" data-name="Grupo 87366">
              <path id="Trazado_138951" data-name="Trazado 138951" d="M222.309,118.52c.731-1.631,2.21-6.841,3.245-14.323,1.3-9.228,1.394-18.135.3-25.077-.731-4.665-4.255-17.475-11.615-20.758a3.393,3.393,0,0,1,2.755-6.2c12.215,5.438,15.435,25.072,15.57,25.9,1.686,10.69.439,22.288-.452,28.258a96.029,96.029,0,0,1-2.189,10.766,31.092,31.092,0,0,1-1.4,4.166Z" transform="translate(-212.223 -51.862)" fill="#81d4fa"/>
            </g>
          </g>
        </g>
      </g>
      <g id="Grupo_87396" data-name="Grupo 87396" transform="translate(0 130.852)">
        <g id="Grupo_87370" data-name="Grupo 87370" transform="translate(150.212)">
          <path id="Trazado_138952" data-name="Trazado 138952" d="M216.541,101.322a2.953,2.953,0,0,0,.849-4.086c-.148-.215-.346-.5-.583-.837-1.475-2.134-5.4-7.783-4.208-11.374.507-1.508,2.062-2.7,4.622-3.541a5.931,5.931,0,0,1,4.931.706c5.336,3.013,9.667,11.416,11.036,14.746.934-.507,1.889-.984,2.806-1.466a18.907,18.907,0,0,1,2.425-1.272c-1.952-4.665-6.41-12.194-11.607-16-4.741-3.456-8.831-3.169-11.433-2.311-4.42,1.445-7.234,3.891-8.366,7.267a9.849,9.849,0,0,0-.292,1.073c-1.3,6.105,3.249,12.642,5.252,15.532.2.283.368.52.486.71A2.947,2.947,0,0,0,216.541,101.322Z" transform="translate(-206.491 -75.333)" fill="#afafaf"/>
        </g>
        <g id="Grupo_87371" data-name="Grupo 87371" transform="translate(0 43.049)">
          <rect id="Rectángulo_32747" data-name="Rectángulo 32747" width="178.481" height="7.92" transform="translate(28.045)" fill="#bfd1e3"/>
          <rect id="Rectángulo_32748" data-name="Rectángulo 32748" width="178.483" height="7.92" transform="translate(16.396)" fill="#12263f"/>
          <path id="Trazado_138953" data-name="Trazado 138953" d="M187.338,85.819l-.169,0h-13.5a2.723,2.723,0,1,0,0,5.446h13.5c.055,0,.114-.008.169-.008Z" transform="translate(-170.94 -84.576)" fill="#727997"/>
          <path id="Trazado_138954" data-name="Trazado 138954" d="M218.824,85.9c.059,0,.114-.008.169-.008h13.5a2.725,2.725,0,1,1,0,5.45h-13.5c-.055,0-.11-.008-.169-.013Z" transform="translate(-16.505 -84.328)" fill="#12263f"/>
          <path id="Trazado_138955" data-name="Trazado 138955" d="M217.063,85.9c.055,0,.11-.008.169-.008H230.74a2.725,2.725,0,0,1,0,5.45H217.232c-.059,0-.114-.008-.169-.013Z" transform="translate(-22.185 -84.328)" fill="#727997"/>
        </g>
        <g id="Grupo_87375" data-name="Grupo 87375" transform="translate(23.07 33.179)">
          <g id="Grupo_87373" data-name="Grupo 87373" transform="translate(10.345)">
            <g id="Grupo_87372" data-name="Grupo 87372">
              <path id="Trazado_138956" data-name="Trazado 138956" d="M178.848,85.129,180.28,88.5l4.8-1.537-1.811-3.775Z" transform="translate(-178.848 -83.186)" fill="#cf9b72"/>
            </g>
          </g>
          <g id="Grupo_87374" data-name="Grupo 87374" transform="translate(0 0.656)">
            <path id="Trazado_138957" data-name="Trazado 138957" d="M176.413,84.921c-.232,1.394,2.81,3.148,6.2,3.706s6.346-.118,6.574-1.508-2.337-2.991-5.734-3.553S176.645,83.518,176.413,84.921Z" transform="translate(-176.4 -83.341)" fill="#cf9b72"/>
          </g>
        </g>
        <g id="Grupo_87378" data-name="Grupo 87378" transform="translate(34.342 20.635)">
          <g id="Grupo_87377" data-name="Grupo 87377">
            <g id="Grupo_87376" data-name="Grupo 87376">
              <path id="Trazado_138958" data-name="Trazado 138958" d="M256.287,81.253c-28.283-5.02-77.219,9.836-77.219,9.836l4.855,9s48.885-11.89,72.365-3.929Z" transform="translate(-179.068 -80.217)" fill="#12263f"/>
            </g>
          </g>
        </g>
        <g id="Grupo_87384" data-name="Grupo 87384" transform="translate(32.61 6.698)">
          <g id="Grupo_87380" data-name="Grupo 87380" transform="translate(9.012 28.283)">
            <g id="Grupo_87379" data-name="Grupo 87379">
              <path id="Trazado_138959" data-name="Trazado 138959" d="M180.791,86.69l2.294,2.519,3.749-2.835-2.762-2.762Z" transform="translate(-180.791 -83.612)" fill="#cf9b72"/>
            </g>
          </g>
          <g id="Grupo_87382" data-name="Grupo 87382" transform="translate(9.013)">
            <g id="Grupo_87381" data-name="Grupo 87381">
              <path id="Trazado_138960" data-name="Trazado 138960" d="M180.791,104.22l28.22-24.582a10.61,10.61,0,0,1,14.125-.055l28.292,21.587c2.1,1.868,4.234,8.176,2.362,10.288-1.872,2.1-9.211,3.139-11.345.423L216.287,87.133l-.013-.013a.819.819,0,0,0-.351,0l-27.848,24.265Z" transform="translate(-180.791 -76.918)" fill="#12263f"/>
            </g>
          </g>
          <g id="Grupo_87383" data-name="Grupo 87383" transform="translate(0 31.23)">
            <path id="Trazado_138961" data-name="Trazado 138961" d="M178.671,87.881c.228,1.3,3.439,1.9,6.6,1.348s5.535-2.062,5.307-3.359-2.974-1.91-6.139-1.352S178.443,86.576,178.671,87.881Z" transform="translate(-178.658 -84.31)" fill="#cf9b72"/>
          </g>
        </g>
        <path id="Trazado_138962" data-name="Trazado 138962" d="M244.037,80.012s-44.263,0-44.39.008c-2.091,0-3.782,5.281-3.782,11.788s1.69,11.8,3.782,11.8h44.39a11.8,11.8,0,0,0,0-23.594Z" transform="translate(-90.549 -60.243)" fill="#ff9d00"/>
        <g id="Grupo_87387" data-name="Grupo 87387" transform="translate(158.533 22.714)">
          <path id="Trazado_138963" data-name="Trazado 138963" d="M211.461,82.109a3,3,0,0,0-3,3h0a3,3,0,0,0,3,3h9.857a3,3,0,0,0,3-3h0a3,3,0,0,0-3-3Z" transform="translate(-208.461 -76.194)" fill="#d69b6b"/>
          <path id="Trazado_138964" data-name="Trazado 138964" d="M220.23,82.055c5.066,0,9.891,3.3,9.891,7.36s-4.825,7.356-9.891,7.356-9.164-3.291-9.164-7.356S215.164,82.055,220.23,82.055Z" transform="translate(-200.059 -76.368)" fill="#603129"/>
          <path id="Trazado_138965" data-name="Trazado 138965" d="M217.5,80.709a7.366,7.366,0,0,0-7.369,7.365h0a7.368,7.368,0,0,0,7.369,7.373h7.732a7.371,7.371,0,0,0,7.369-7.373h0a7.369,7.369,0,0,0-7.369-7.365Z" transform="translate(-203.088 -80.709)" fill="#edb485"/>
          <path id="Trazado_138966" data-name="Trazado 138966" d="M216.345,90.813V81.644h5.125a22.352,22.352,0,0,1,.4,6.114c-.363,7.2-6.038,9.671-7.876,9.671l1.631-2.168c-1.166,0-1.5-2.3-1.6-4.449Z" transform="translate(-190.622 -77.693)" fill="#603129"/>
          <path id="Trazado_138967" data-name="Trazado 138967" d="M212.279,85.019a1.356,1.356,0,0,0,1.356,1.36h3.49a1.36,1.36,0,0,0,1.361-1.36h0a1.362,1.362,0,0,0-1.361-1.361h-3.49a1.359,1.359,0,0,0-1.356,1.361Z" transform="translate(-196.147 -71.198)" fill="#603129"/>
          <g id="Grupo_87385" data-name="Grupo 87385" transform="translate(16.225 1.758)">
            <path id="Trazado_138968" data-name="Trazado 138968" d="M213.328,81.125a.833.833,0,1,0,1.022.807A.936.936,0,0,0,213.328,81.125Z" transform="translate(-212.301 -81.125)" fill="#170805"/>
          </g>
          <g id="Grupo_87386" data-name="Grupo 87386" transform="translate(16.225 7.293)">
            <path id="Trazado_138969" data-name="Trazado 138969" d="M213.328,82.435a.833.833,0,1,0,1.022.811A.939.939,0,0,0,213.328,82.435Z" transform="translate(-212.301 -82.435)" fill="#170805"/>
          </g>
          <path id="Trazado_138970" data-name="Trazado 138970" d="M211.779,84.522c-.325.782.406,1.825,1.627,2.328s2.48.275,2.8-.507-.41-1.829-1.635-2.332S212.1,83.736,211.779,84.522Z" transform="translate(-198.009 -70.921)" fill="#edb485"/>
          <path id="Trazado_138971" data-name="Trazado 138971" d="M212.444,81.78a.86.86,0,0,0-.862.862h0a.863.863,0,0,0,.862.862h1.2a.866.866,0,0,0,.866-.862h0a.864.864,0,0,0-.866-.862Z" transform="translate(-198.395 -77.255)" fill="#d69b6b"/>
        </g>
        <path id="Trazado_138972" data-name="Trazado 138972" d="M220.421,91.737v4.369h-7.132V91.737h2.277a2.226,2.226,0,0,0,2.273-2.18V81.922l2.582-.769Z" transform="translate(-34.357 -56.563)" fill="#603129"/>
        <path id="Trazado_138973" data-name="Trazado 138973" d="M221.073,80.605c1.546.034,2.966,1.065,2.966,3.841v4.2l-5.569-2.565v-.486H217.7V83.313a2.223,2.223,0,0,0-2.18-2.273h-2.184v-.435h7.741Z" transform="translate(-34.215 -58.33)" fill="#603129"/>
        <g id="Grupo_87388" data-name="Grupo 87388" transform="translate(168.209 26.073)">
          <path id="Trazado_138974" data-name="Trazado 138974" d="M210.751,81.779a.278.278,0,0,0,.275.279,1.475,1.475,0,1,1,0,2.949.279.279,0,0,0,0,.558,2.03,2.03,0,0,0,0-4.06A.274.274,0,0,0,210.751,81.779Z" transform="translate(-210.751 -81.504)" fill="#170805"/>
        </g>
        <g id="Grupo_87392" data-name="Grupo 87392" transform="translate(117.286 11.555)">
          <g id="Grupo_87390" data-name="Grupo 87390" transform="translate(12.144)">
            <rect id="Rectángulo_32749" data-name="Rectángulo 32749" width="5.347" height="3.089" transform="translate(0 7.038) rotate(-25.248)" fill="#edb485"/>
            <g id="Grupo_87389" data-name="Grupo 87389" transform="translate(3.866)">
              <path id="Trazado_138975" data-name="Trazado 138975" d="M204.17,82.234a.775.775,0,0,1-1.09-.177h0a.783.783,0,0,1,.169-1.094l3.815-2.746a.792.792,0,0,1,1.1.173h0a.781.781,0,0,1-.173,1.094Z" transform="translate(-201.068 -78.068)" fill="#edb485"/>
              <path id="Trazado_138976" data-name="Trazado 138976" d="M204.5,82.549a.783.783,0,0,1-1.044-.359h0a.777.777,0,0,1,.346-1.048l4.225-2.079a.773.773,0,0,1,1.044.355h0a.787.787,0,0,1-.355,1.052Z" transform="translate(-199.638 -75.125)" fill="#edb485"/>
              <path id="Trazado_138977" data-name="Trazado 138977" d="M207.709,82.374a.849.849,0,0,0-.414-1.132l-3.439-1.61a2.781,2.781,0,0,0-.93.9c-.114.224.22.87.22.87l3.427,1.39A.852.852,0,0,0,207.709,82.374Z" transform="translate(-201.151 -73.023)" fill="#edb485"/>
              <path id="Trazado_138978" data-name="Trazado 138978" d="M204.481,82.293a.782.782,0,0,1-1.077-.279h0a.784.784,0,0,1,.283-1.069l4.06-2.383a.778.778,0,0,1,1.073.275h0a.778.778,0,0,1-.292,1.073Z" transform="translate(-199.874 -76.834)" fill="#edb485"/>
              <path id="Trazado_138979" data-name="Trazado 138979" d="M205.949,84.557A1.546,1.546,0,0,1,203.828,84l-1.128-1.91a1.561,1.561,0,0,1,.558-2.129l1.91-1.115a1.546,1.546,0,0,1,2.125.554l1.115,1.91a1.548,1.548,0,0,1-.545,2.121Z" transform="translate(-202.488 -76.25)" fill="#edb485"/>
            </g>
          </g>
          <g id="Grupo_87391" data-name="Grupo 87391" transform="translate(0 4.581)">
            <path id="Trazado_138980" data-name="Trazado 138980" d="M215.6,84.505s-6.672,3.929-8.045,5.746c-2.56,3.389-3.2,5.894-2.155,8.379.752,1.8,2.1,2.772,4.973,3.591,1.741.494,7.381.469,17.982-1.086,8.129-1.2,13.4-2.953,14.416-2.429a3.118,3.118,0,0,1,1.318,4.2c-.718,1.373-2.121,1.758-3.359,2.1-.93.249-2.172.545-3.693.866-3.19.676-2.624.634-6.486,1.225-7.643,1.166-17.649,2.315-21.886,1.107-3.169-.9-7.06-2.527-9.008-7.162a12.285,12.285,0,0,1-.152-9.139,20.5,20.5,0,0,1,3.089-5.4c1.694-2.248,5.159-4.584,6.566-5.493,1.149-.735,3.232-1.855,3.232-1.855Z" transform="translate(-198.699 -79.152)" fill="#afafaf"/>
          </g>
        </g>
        <g id="Grupo_87395" data-name="Grupo 87395" transform="translate(178.548 19.587)">
          <path id="Trazado_138981" data-name="Trazado 138981" d="M214.994,85.373l-.655-1.568L213.2,81.122c.389-.194.782-.4,1.162-.6.321-.169.651-.368.98-.549l1.23,2.894.11.258.554,1.3.055.156a1.243,1.243,0,0,1,.008.57,1.158,1.158,0,0,1-.431.7,1.026,1.026,0,0,1-.279.169,1.371,1.371,0,0,1-.325.084A1.228,1.228,0,0,1,214.994,85.373Z" transform="translate(-213.198 -79.969)" fill="#e39c6d"/>
          <g id="Grupo_87394" data-name="Grupo 87394" transform="translate(0.092 2.439)">
            <g id="Grupo_87393" data-name="Grupo 87393" transform="translate(0 0)">
              <path id="Trazado_138982" data-name="Trazado 138982" d="M214.813,81.853a.683.683,0,0,0-.862-.448h0a.693.693,0,0,0-.448.866l1.251,3.917a.688.688,0,0,0,.862.448h0a.683.683,0,0,0,.448-.862Z" transform="translate(-212.408 -77.874)" fill="#e39c6d"/>
              <path id="Trazado_138983" data-name="Trazado 138983" d="M215.477,81.443a.692.692,0,0,0-.93-.292h0a.689.689,0,0,0-.3.921l1.88,3.667a.689.689,0,0,0,.921.3h0a.7.7,0,0,0,.3-.93Z" transform="translate(-210.131 -78.841)" fill="#e39c6d"/>
              <path id="Trazado_138984" data-name="Trazado 138984" d="M218.32,82.342a.746.746,0,0,1-.879.583l-3.262-.663a2.314,2.314,0,0,1-.186-1.124c.034-.215.6-.486.6-.486l3.139.807A.744.744,0,0,1,218.32,82.342Z" transform="translate(-210.773 -80.205)" fill="#e39c6d"/>
              <path id="Trazado_138985" data-name="Trazado 138985" d="M215.208,81.773a.687.687,0,0,0-.9-.359h0a.688.688,0,0,0-.368.9l1.606,3.794a.7.7,0,0,0,.9.368h0a.694.694,0,0,0,.363-.908Z" transform="translate(-211.066 -77.925)" fill="#e39c6d"/>
              <path id="Rectángulo_32750" data-name="Rectángulo 32750" d="M.322,0h4.02a.322.322,0,0,1,.322.322v4.02a.322.322,0,0,1-.322.322H.323A.323.323,0,0,1,0,4.341V.322A.322.322,0,0,1,.322,0Z" transform="translate(0 1.818) rotate(-22.94)" fill="#e39c6d"/>
            </g>
          </g>
        </g>
      </g>
    </g>
  </g>
</svg>
