<svg xmlns="http://www.w3.org/2000/svg" xmlns:xlink="http://www.w3.org/1999/xlink" width="936" height="238" viewBox="0 0 936 238">
  <defs>
    <radialGradient id="radial-gradient" cx="0.076" cy="0.019" r="1.465" gradientTransform="translate(0.001)" gradientUnits="objectBoundingBox">
      <stop offset="0" stop-color="#f6f6f7"/>
      <stop offset="0.477" stop-color="#f9f9fa"/>
      <stop offset="0.715" stop-color="#fff"/>
    </radialGradient>
  </defs>
  <g id="Grupo_77971" data-name="Grupo 77971" transform="translate(-249 -4253)">
    <path id="Rectángulo_31967" data-name="Rectángulo 31967" d="M35,0H260a35,35,0,0,1,35,35V238a0,0,0,0,1,0,0H35A35,35,0,0,1,0,203V35A35,35,0,0,1,35,0Z" transform="translate(249 4253)" fill="#e6f7fe"/>
    <path id="Rectángulo_32673" data-name="Rectángulo 32673" d="M35,0H260a35,35,0,0,1,35,35V238a0,0,0,0,1,0,0H35A35,35,0,0,1,0,203V35A35,35,0,0,1,35,0Z" transform="translate(564 4253)" fill="#e6f7fe"/>
    <path id="Rectángulo_32674" data-name="Rectángulo 32674" d="M35,0H260a35,35,0,0,1,35,35V238a0,0,0,0,1,0,0H35A35,35,0,0,1,0,203V35A35,35,0,0,1,35,0Z" transform="translate(890 4253)" fill="#e6f7fe"/>
    <path id="Trazado_139488" data-name="Trazado 139488" d="M4.6,17V4.2H8.718a6.064,6.064,0,0,1,3.05.769,5.406,5.406,0,0,1,2.114,2.171,6.554,6.554,0,0,1,.769,3.142v.589a6.592,6.592,0,0,1-.743,3.151,5.429,5.429,0,0,1-2.092,2.18,5.93,5.93,0,0,1-3.01.8ZM7.681,6.585v8.042H8.753a2.4,2.4,0,0,0,2.039-.945,4.63,4.63,0,0,0,.712-2.808V10.32a4.592,4.592,0,0,0-.712-2.795,2.442,2.442,0,0,0-2.074-.94Zm8.042,5.572a5.613,5.613,0,0,1,.554-2.536,3.96,3.96,0,0,1,1.591-1.709,4.791,4.791,0,0,1,2.435-.6,4.373,4.373,0,0,1,3.366,1.323,5.076,5.076,0,0,1,1.23,3.6v.105a4.925,4.925,0,0,1-1.235,3.529,4.384,4.384,0,0,1-3.344,1.305,4.434,4.434,0,0,1-3.261-1.217,4.761,4.761,0,0,1-1.327-3.3Zm2.962.185a3.538,3.538,0,0,0,.413,1.934,1.376,1.376,0,0,0,1.222.615q1.582,0,1.617-2.435v-.3Q21.937,9.6,20.3,9.6q-1.485,0-1.608,2.206ZM29.328,17H26.357V3.5h2.971Zm1.45-4.843a5.613,5.613,0,0,1,.554-2.536,3.96,3.96,0,0,1,1.591-1.709,4.791,4.791,0,0,1,2.435-.6,4.373,4.373,0,0,1,3.366,1.323,5.076,5.076,0,0,1,1.23,3.6v.105a4.925,4.925,0,0,1-1.235,3.529,4.384,4.384,0,0,1-3.344,1.305,4.434,4.434,0,0,1-3.261-1.217,4.761,4.761,0,0,1-1.327-3.3Zm2.962.185a3.538,3.538,0,0,0,.413,1.934,1.376,1.376,0,0,0,1.222.615q1.582,0,1.617-2.435v-.3q0-2.558-1.635-2.558-1.485,0-1.608,2.206Zm16.6,4.834A4.889,4.889,0,0,1,46.8,15.871a4.507,4.507,0,0,1-1.354-3.4v-.246a5.84,5.84,0,0,1,.541-2.575,3.955,3.955,0,0,1,1.578-1.727,4.763,4.763,0,0,1,2.461-.611A4.117,4.117,0,0,1,53.19,8.558a4.887,4.887,0,0,1,1.16,3.467v1.151H48.462a2.135,2.135,0,0,0,.694,1.257,2.066,2.066,0,0,0,1.389.457,2.662,2.662,0,0,0,2.2-.984l1.354,1.6a3.784,3.784,0,0,1-1.569,1.217A5.3,5.3,0,0,1,50.343,17.176ZM50.009,9.6q-1.3,0-1.547,1.723H51.45v-.229a1.467,1.467,0,0,0-.36-1.1A1.434,1.434,0,0,0,50.009,9.6ZM58.262,7.49l.1,1.116a3.225,3.225,0,0,1,2.716-1.292,2.713,2.713,0,0,1,2.219.888,4.226,4.226,0,0,1,.76,2.672V17H61.083V11a1.6,1.6,0,0,0-.29-1.059A1.342,1.342,0,0,0,59.738,9.6a1.413,1.413,0,0,0-1.292.686V17H55.484V7.49ZM79,12.315a5.735,5.735,0,0,1-1,3.538,3.2,3.2,0,0,1-2.694,1.323,2.742,2.742,0,0,1-2.153-.958v4.438H70.2V7.49h2.769l.088.879a2.742,2.742,0,0,1,2.241-1.055,3.224,3.224,0,0,1,2.733,1.3A5.805,5.805,0,0,1,79,12.175Zm-2.962-.185q0-2.531-1.477-2.531a1.394,1.394,0,0,0-1.406.756V14.1a1.439,1.439,0,0,0,1.424.791q1.415,0,1.459-2.443Zm10.02-1.96-.976-.07a1.752,1.752,0,0,0-1.793.879V17H80.331V7.49h2.777l.1,1.222a2.294,2.294,0,0,1,2.083-1.4,2.888,2.888,0,0,1,.826.105ZM90.254,17H87.283V7.49h2.971ZM87.107,5.029a1.334,1.334,0,0,1,.457-1.043,1.934,1.934,0,0,1,2.373,0,1.334,1.334,0,0,1,.457,1.043,1.334,1.334,0,0,1-.457,1.043,1.934,1.934,0,0,1-2.373,0A1.334,1.334,0,0,1,87.107,5.029Zm7.77,2.461.1,1.116a3.27,3.27,0,0,1,2.716-1.292,2.407,2.407,0,0,1,2.435,1.433,3.165,3.165,0,0,1,2.795-1.433q2.892,0,2.971,3.5V17h-2.971V11a1.813,1.813,0,0,0-.246-1.063,1.048,1.048,0,0,0-.9-.334,1.4,1.4,0,0,0-1.31.782l.009.123V17H97.5V11.015a1.906,1.906,0,0,0-.237-1.081,1.045,1.045,0,0,0-.905-.334,1.42,1.42,0,0,0-1.3.782V17H92.1V7.49Zm17.306,9.686a4.889,4.889,0,0,1-3.542-1.305,4.507,4.507,0,0,1-1.354-3.4v-.246a5.84,5.84,0,0,1,.541-2.575,3.955,3.955,0,0,1,1.578-1.727,4.763,4.763,0,0,1,2.461-.611,4.117,4.117,0,0,1,3.164,1.244,4.887,4.887,0,0,1,1.16,3.467v1.151H110.3A2.135,2.135,0,0,0,111,14.434a2.066,2.066,0,0,0,1.389.457,2.662,2.662,0,0,0,2.2-.984l1.354,1.6a3.784,3.784,0,0,1-1.569,1.217A5.3,5.3,0,0,1,112.183,17.176ZM111.849,9.6q-1.3,0-1.547,1.723h2.988v-.229a1.467,1.467,0,0,0-.36-1.1A1.434,1.434,0,0,0,111.849,9.6Zm11.285.571-.976-.07a1.752,1.752,0,0,0-1.793.879V17H117.4V7.49h2.777l.1,1.222a2.294,2.294,0,0,1,2.083-1.4,2.888,2.888,0,0,1,.826.105Zm-82.5,27a6.421,6.421,0,0,1,.475-2.549,3.821,3.821,0,0,1,1.362-1.709,3.591,3.591,0,0,1,2.065-.6,2.855,2.855,0,0,1,2.32,1l.105-.826h2.689V41.64a4.009,4.009,0,0,1-.584,2.184,3.75,3.75,0,0,1-1.692,1.424,6.219,6.219,0,0,1-2.566.5,5.365,5.365,0,0,1-2.026-.4,3.657,3.657,0,0,1-1.5-1.028l1.239-1.74a2.716,2.716,0,0,0,2.18.976,1.764,1.764,0,0,0,1.969-2.021v-.3a2.781,2.781,0,0,1-2.153.94,3.437,3.437,0,0,1-2.812-1.332,5.517,5.517,0,0,1-1.072-3.564Zm2.971.185a3.383,3.383,0,0,0,.439,1.85,1.387,1.387,0,0,0,1.23.681,1.573,1.573,0,0,0,1.4-.642v-4a1.534,1.534,0,0,0-1.38-.65,1.4,1.4,0,0,0-1.239.708A3.858,3.858,0,0,0,43.606,37.359Zm13.482-2.188-.976-.07a1.752,1.752,0,0,0-1.793.879V42H51.358V32.49h2.777l.1,1.222a2.294,2.294,0,0,1,2.083-1.4,2.888,2.888,0,0,1,.826.105ZM63.25,42a3.344,3.344,0,0,1-.281-.853,2.754,2.754,0,0,1-2.285,1.028,3.374,3.374,0,0,1-2.285-.813,2.588,2.588,0,0,1-.94-2.043A2.66,2.66,0,0,1,58.6,36.981a5.821,5.821,0,0,1,3.322-.791h.914v-.5q0-1.316-1.134-1.316a.927.927,0,0,0-1.055,1.042H57.686a2.655,2.655,0,0,1,1.173-2.239,4.931,4.931,0,0,1,2.993-.86,4.323,4.323,0,0,1,2.874.888,3.086,3.086,0,0,1,1.081,2.435v4.21a4.311,4.311,0,0,0,.4,2V42ZM61.4,40.066a1.652,1.652,0,0,0,.918-.237,1.487,1.487,0,0,0,.523-.536V37.772h-.861q-1.547,0-1.547,1.389a.848.848,0,0,0,.272.655A.986.986,0,0,0,61.4,40.066Zm5.678-2.892a5.809,5.809,0,0,1,.976-3.56,3.211,3.211,0,0,1,2.725-1.3,2.731,2.731,0,0,1,2.145,1V28.5h2.971V42H73.225l-.149-1.02a2.8,2.8,0,0,1-2.32,1.2,3.205,3.205,0,0,1-2.689-1.3A5.993,5.993,0,0,1,67.073,37.175Zm2.962.185q0,2.531,1.477,2.531a1.458,1.458,0,0,0,1.406-.826V35.443a1.419,1.419,0,0,0-1.389-.844q-1.371,0-1.485,2.215Zm7.163-.2a5.613,5.613,0,0,1,.554-2.536,3.96,3.96,0,0,1,1.591-1.709,4.791,4.791,0,0,1,2.435-.6,4.373,4.373,0,0,1,3.366,1.323,5.076,5.076,0,0,1,1.23,3.6v.105a4.925,4.925,0,0,1-1.235,3.529,4.384,4.384,0,0,1-3.344,1.305,4.434,4.434,0,0,1-3.261-1.217,4.761,4.761,0,0,1-1.327-3.3Zm2.962.185a3.538,3.538,0,0,0,.413,1.934,1.376,1.376,0,0,0,1.222.615q1.582,0,1.617-2.435v-.3q0-2.558-1.635-2.558-1.485,0-1.608,2.206Z" transform="translate(333 4406)" fill="#12263f"/>
    <path id="Trazado_139489" data-name="Trazado 139489" d="M6.655,17V4.2h4.122a6.064,6.064,0,0,1,3.05.769A5.406,5.406,0,0,1,15.94,7.143a6.554,6.554,0,0,1,.769,3.142v.589a6.592,6.592,0,0,1-.743,3.151,5.429,5.429,0,0,1-2.092,2.18,5.93,5.93,0,0,1-3.01.8ZM9.74,6.585v8.042h1.072a2.4,2.4,0,0,0,2.039-.945,4.63,4.63,0,0,0,.712-2.808V10.32a4.592,4.592,0,0,0-.712-2.795,2.442,2.442,0,0,0-2.074-.94Zm8.042,5.572a5.613,5.613,0,0,1,.554-2.536,3.96,3.96,0,0,1,1.591-1.709,4.791,4.791,0,0,1,2.435-.6,4.373,4.373,0,0,1,3.366,1.323,5.076,5.076,0,0,1,1.23,3.6v.105a4.925,4.925,0,0,1-1.235,3.529,4.384,4.384,0,0,1-3.344,1.305,4.434,4.434,0,0,1-3.261-1.217,4.761,4.761,0,0,1-1.327-3.3Zm2.962.185a3.538,3.538,0,0,0,.413,1.934,1.376,1.376,0,0,0,1.222.615q1.582,0,1.617-2.435v-.3Q24,9.6,22.361,9.6q-1.485,0-1.608,2.206ZM31.387,17H28.417V3.5h2.971Zm1.45-4.843a5.613,5.613,0,0,1,.554-2.536,3.96,3.96,0,0,1,1.591-1.709,4.791,4.791,0,0,1,2.435-.6,4.373,4.373,0,0,1,3.366,1.323,5.076,5.076,0,0,1,1.23,3.6v.105a4.925,4.925,0,0,1-1.235,3.529,4.384,4.384,0,0,1-3.344,1.305,4.434,4.434,0,0,1-3.261-1.217,4.761,4.761,0,0,1-1.327-3.3Zm2.962.185a3.538,3.538,0,0,0,.413,1.934,1.376,1.376,0,0,0,1.222.615q1.582,0,1.617-2.435v-.3q0-2.558-1.635-2.558-1.485,0-1.608,2.206Zm16.6,4.834a4.889,4.889,0,0,1-3.542-1.305,4.507,4.507,0,0,1-1.354-3.4v-.246a5.84,5.84,0,0,1,.541-2.575,3.955,3.955,0,0,1,1.578-1.727,4.763,4.763,0,0,1,2.461-.611A4.117,4.117,0,0,1,55.25,8.558a4.887,4.887,0,0,1,1.16,3.467v1.151H50.521a2.135,2.135,0,0,0,.694,1.257,2.066,2.066,0,0,0,1.389.457,2.662,2.662,0,0,0,2.2-.984l1.354,1.6a3.784,3.784,0,0,1-1.569,1.217A5.3,5.3,0,0,1,52.4,17.176ZM52.068,9.6q-1.3,0-1.547,1.723h2.988v-.229a1.467,1.467,0,0,0-.36-1.1A1.434,1.434,0,0,0,52.068,9.6ZM60.321,7.49l.1,1.116a3.225,3.225,0,0,1,2.716-1.292,2.713,2.713,0,0,1,2.219.888,4.226,4.226,0,0,1,.76,2.672V17H63.142V11a1.6,1.6,0,0,0-.29-1.059A1.342,1.342,0,0,0,61.8,9.6a1.413,1.413,0,0,0-1.292.686V17H57.543V7.49Zm16.893,6.838a.684.684,0,0,0-.4-.606,6.016,6.016,0,0,0-1.5-.475,6.853,6.853,0,0,1-1.828-.646,3.062,3.062,0,0,1-1.1-.971,2.319,2.319,0,0,1-.378-1.31,2.628,2.628,0,0,1,1.081-2.158,4.453,4.453,0,0,1,2.83-.848,4.934,4.934,0,0,1,3.023.853,2.666,2.666,0,0,1,1.143,2.241H77.117q0-1.143-1.2-1.143a1.194,1.194,0,0,0-.782.259.8.8,0,0,0-.316.646.737.737,0,0,0,.387.642,3.654,3.654,0,0,0,1.235.4,10.671,10.671,0,0,1,1.49.378A2.706,2.706,0,0,1,80.07,14.24a2.491,2.491,0,0,1-1.156,2.118,5.068,5.068,0,0,1-2.993.817,5.172,5.172,0,0,1-2.18-.439,3.645,3.645,0,0,1-1.494-1.2,2.707,2.707,0,0,1-.536-1.591H74.48a1.145,1.145,0,0,0,.439.962,1.808,1.808,0,0,0,1.081.3,1.422,1.422,0,0,0,.91-.246A.787.787,0,0,0,77.213,14.328Zm8.842,2.848a4.889,4.889,0,0,1-3.542-1.305,4.507,4.507,0,0,1-1.354-3.4v-.246A5.84,5.84,0,0,1,81.7,9.652a3.955,3.955,0,0,1,1.578-1.727,4.763,4.763,0,0,1,2.461-.611A4.117,4.117,0,0,1,88.9,8.558a4.887,4.887,0,0,1,1.16,3.467v1.151H84.174a2.135,2.135,0,0,0,.694,1.257,2.066,2.066,0,0,0,1.389.457,2.662,2.662,0,0,0,2.2-.984l1.354,1.6a3.784,3.784,0,0,1-1.569,1.217A5.3,5.3,0,0,1,86.055,17.176ZM85.721,9.6q-1.3,0-1.547,1.723h2.988v-.229a1.467,1.467,0,0,0-.36-1.1A1.434,1.434,0,0,0,85.721,9.6Zm5.186,2.575a6.421,6.421,0,0,1,.475-2.549,3.821,3.821,0,0,1,1.362-1.709,3.591,3.591,0,0,1,2.065-.6,2.855,2.855,0,0,1,2.32,1l.105-.826h2.689V16.64a4.009,4.009,0,0,1-.584,2.184,3.75,3.75,0,0,1-1.692,1.424,6.219,6.219,0,0,1-2.566.5,5.365,5.365,0,0,1-2.026-.4,3.657,3.657,0,0,1-1.5-1.028L92.8,17.58a2.716,2.716,0,0,0,2.18.976,1.764,1.764,0,0,0,1.969-2.021v-.3a2.781,2.781,0,0,1-2.153.94,3.437,3.437,0,0,1-2.812-1.332,5.517,5.517,0,0,1-1.072-3.564Zm2.971.185a3.383,3.383,0,0,0,.439,1.85,1.387,1.387,0,0,0,1.23.681,1.573,1.573,0,0,0,1.4-.642v-4a1.534,1.534,0,0,0-1.38-.65,1.4,1.4,0,0,0-1.239.708A3.858,3.858,0,0,0,93.877,12.359Zm13.395,3.612a3.054,3.054,0,0,1-2.54,1.2,3,3,0,0,1-2.369-.91,3.826,3.826,0,0,1-.8-2.615V7.49h2.962v6.179a1.065,1.065,0,0,0,1.187,1.222,1.548,1.548,0,0,0,1.45-.729V7.49h2.979V17H107.36Zm7.207-8.481.1,1.116a3.225,3.225,0,0,1,2.716-1.292,2.713,2.713,0,0,1,2.219.888,4.226,4.226,0,0,1,.76,2.672V17H117.3V11a1.6,1.6,0,0,0-.29-1.059,1.342,1.342,0,0,0-1.055-.338,1.413,1.413,0,0,0-1.292.686V17H111.7V7.49Zm7.058,4.685a5.809,5.809,0,0,1,.976-3.56,3.211,3.211,0,0,1,2.725-1.3,2.731,2.731,0,0,1,2.145,1V3.5h2.971V17h-2.663l-.149-1.02a2.8,2.8,0,0,1-2.32,1.2,3.205,3.205,0,0,1-2.689-1.3A5.993,5.993,0,0,1,121.537,12.175Zm2.962.185q0,2.531,1.477,2.531a1.458,1.458,0,0,0,1.406-.826V10.443a1.419,1.419,0,0,0-1.389-.844q-1.371,0-1.485,2.215Zm7.163-.2a5.613,5.613,0,0,1,.554-2.536,3.96,3.96,0,0,1,1.591-1.709,4.791,4.791,0,0,1,2.435-.6,4.373,4.373,0,0,1,3.366,1.323,5.076,5.076,0,0,1,1.23,3.6v.105a4.925,4.925,0,0,1-1.235,3.529,4.384,4.384,0,0,1-3.344,1.305A4.434,4.434,0,0,1,133,15.958a4.761,4.761,0,0,1-1.327-3.3Zm2.962.185a3.538,3.538,0,0,0,.413,1.934,1.376,1.376,0,0,0,1.222.615q1.582,0,1.617-2.435v-.3q0-2.558-1.635-2.558-1.485,0-1.608,2.206ZM50.635,37.175a6.421,6.421,0,0,1,.475-2.549,3.821,3.821,0,0,1,1.362-1.709,3.591,3.591,0,0,1,2.065-.6,2.855,2.855,0,0,1,2.32,1l.105-.826h2.689V41.64a4.009,4.009,0,0,1-.584,2.184,3.75,3.75,0,0,1-1.692,1.424,6.219,6.219,0,0,1-2.566.5,5.365,5.365,0,0,1-2.026-.4,3.657,3.657,0,0,1-1.5-1.028l1.239-1.74a2.716,2.716,0,0,0,2.18.976,1.764,1.764,0,0,0,1.969-2.021v-.3a2.781,2.781,0,0,1-2.153.94,3.437,3.437,0,0,1-2.812-1.332,5.517,5.517,0,0,1-1.072-3.564Zm2.971.185a3.383,3.383,0,0,0,.439,1.85,1.387,1.387,0,0,0,1.23.681,1.573,1.573,0,0,0,1.4-.642v-4a1.534,1.534,0,0,0-1.38-.65,1.4,1.4,0,0,0-1.239.708A3.858,3.858,0,0,0,53.606,37.359Zm13.482-2.188-.976-.07a1.752,1.752,0,0,0-1.793.879V42H61.358V32.49h2.777l.1,1.222a2.294,2.294,0,0,1,2.083-1.4,2.888,2.888,0,0,1,.826.105ZM73.25,42a3.344,3.344,0,0,1-.281-.853,2.754,2.754,0,0,1-2.285,1.028,3.374,3.374,0,0,1-2.285-.813,2.588,2.588,0,0,1-.94-2.043A2.66,2.66,0,0,1,68.6,36.981a5.821,5.821,0,0,1,3.322-.791h.914v-.5q0-1.316-1.134-1.316a.927.927,0,0,0-1.055,1.042H67.686a2.655,2.655,0,0,1,1.173-2.239,4.931,4.931,0,0,1,2.993-.86,4.323,4.323,0,0,1,2.874.888,3.086,3.086,0,0,1,1.081,2.435v4.21a4.311,4.311,0,0,0,.4,2V42ZM71.4,40.066a1.652,1.652,0,0,0,.918-.237,1.487,1.487,0,0,0,.523-.536V37.772h-.861q-1.547,0-1.547,1.389a.848.848,0,0,0,.272.655A.986.986,0,0,0,71.4,40.066Zm5.678-2.892a5.809,5.809,0,0,1,.976-3.56,3.211,3.211,0,0,1,2.725-1.3,2.731,2.731,0,0,1,2.145,1V28.5h2.971V42H83.225l-.149-1.02a2.8,2.8,0,0,1-2.32,1.2,3.205,3.205,0,0,1-2.689-1.3A5.993,5.993,0,0,1,77.073,37.175Zm2.962.185q0,2.531,1.477,2.531a1.458,1.458,0,0,0,1.406-.826V35.443a1.419,1.419,0,0,0-1.389-.844q-1.371,0-1.485,2.215Zm7.163-.2a5.613,5.613,0,0,1,.554-2.536,3.96,3.96,0,0,1,1.591-1.709,4.791,4.791,0,0,1,2.435-.6,4.373,4.373,0,0,1,3.366,1.323,5.076,5.076,0,0,1,1.23,3.6v.105a4.925,4.925,0,0,1-1.235,3.529,4.384,4.384,0,0,1-3.344,1.305,4.434,4.434,0,0,1-3.261-1.217,4.761,4.761,0,0,1-1.327-3.3Zm2.962.185a3.538,3.538,0,0,0,.413,1.934,1.376,1.376,0,0,0,1.222.615q1.582,0,1.617-2.435v-.3q0-2.558-1.635-2.558-1.485,0-1.608,2.206Z" transform="translate(638 4406)" fill="#12263f"/>
    <path id="Trazado_139490" data-name="Trazado 139490" d="M56.067,17V4.2h4.122a6.064,6.064,0,0,1,3.05.769,5.406,5.406,0,0,1,2.114,2.171,6.554,6.554,0,0,1,.769,3.142v.589a6.592,6.592,0,0,1-.743,3.151,5.429,5.429,0,0,1-2.092,2.18,5.93,5.93,0,0,1-3.01.8ZM59.152,6.585v8.042h1.072a2.4,2.4,0,0,0,2.039-.945,4.63,4.63,0,0,0,.712-2.808V10.32a4.592,4.592,0,0,0-.712-2.795,2.442,2.442,0,0,0-2.074-.94Zm8.042,5.572a5.613,5.613,0,0,1,.554-2.536,3.96,3.96,0,0,1,1.591-1.709,4.791,4.791,0,0,1,2.435-.6,4.373,4.373,0,0,1,3.366,1.323,5.076,5.076,0,0,1,1.23,3.6v.105a4.925,4.925,0,0,1-1.235,3.529,4.384,4.384,0,0,1-3.344,1.305,4.434,4.434,0,0,1-3.261-1.217,4.761,4.761,0,0,1-1.327-3.3Zm2.962.185a3.538,3.538,0,0,0,.413,1.934,1.376,1.376,0,0,0,1.222.615q1.582,0,1.617-2.435v-.3q0-2.558-1.635-2.558-1.485,0-1.608,2.206ZM80.8,17H77.829V3.5H80.8Zm1.45-4.843A5.613,5.613,0,0,1,82.8,9.622a3.96,3.96,0,0,1,1.591-1.709,4.791,4.791,0,0,1,2.435-.6,4.373,4.373,0,0,1,3.366,1.323,5.076,5.076,0,0,1,1.23,3.6v.105a4.925,4.925,0,0,1-1.235,3.529,4.384,4.384,0,0,1-3.344,1.305,4.434,4.434,0,0,1-3.261-1.217,4.761,4.761,0,0,1-1.327-3.3Zm2.962.185a3.538,3.538,0,0,0,.413,1.934,1.376,1.376,0,0,0,1.222.615q1.582,0,1.617-2.435v-.3q0-2.558-1.635-2.558-1.485,0-1.608,2.206ZM44.1,42.176a4.889,4.889,0,0,1-3.542-1.305,4.507,4.507,0,0,1-1.354-3.4v-.246a5.84,5.84,0,0,1,.541-2.575,3.955,3.955,0,0,1,1.578-1.727,4.763,4.763,0,0,1,2.461-.611,4.117,4.117,0,0,1,3.164,1.244,4.887,4.887,0,0,1,1.16,3.467v1.151H42.224a2.135,2.135,0,0,0,.694,1.257,2.066,2.066,0,0,0,1.389.457,2.662,2.662,0,0,0,2.2-.984l1.354,1.6a3.784,3.784,0,0,1-1.569,1.217A5.3,5.3,0,0,1,44.1,42.176ZM43.771,34.6q-1.3,0-1.547,1.723h2.988v-.229a1.467,1.467,0,0,0-.36-1.1A1.434,1.434,0,0,0,43.771,34.6Zm9.211,3.876,1.5-5.985H57.6L54.5,42H51.479l-3.1-9.51h3.129Zm9.993,3.7a4.889,4.889,0,0,1-3.542-1.305,4.507,4.507,0,0,1-1.354-3.4v-.246a5.84,5.84,0,0,1,.541-2.575A3.955,3.955,0,0,1,60.2,32.925a4.763,4.763,0,0,1,2.461-.611,4.117,4.117,0,0,1,3.164,1.244,4.887,4.887,0,0,1,1.16,3.467v1.151H61.094a2.135,2.135,0,0,0,.694,1.257,2.066,2.066,0,0,0,1.389.457,2.662,2.662,0,0,0,2.2-.984l1.354,1.6a3.784,3.784,0,0,1-1.569,1.217A5.3,5.3,0,0,1,62.975,42.176ZM62.641,34.6q-1.3,0-1.547,1.723h2.988v-.229a1.467,1.467,0,0,0-.36-1.1A1.434,1.434,0,0,0,62.641,34.6Zm8.253-2.109.1,1.116a3.225,3.225,0,0,1,2.716-1.292,2.713,2.713,0,0,1,2.219.888,4.226,4.226,0,0,1,.76,2.672V42H73.715V36a1.6,1.6,0,0,0-.29-1.059,1.342,1.342,0,0,0-1.055-.338,1.413,1.413,0,0,0-1.292.686V42H68.117V32.49Zm10.881-2.364V32.49h1.564v2.057H81.775V38.9a1.111,1.111,0,0,0,.193.747,1.037,1.037,0,0,0,.765.211,4.345,4.345,0,0,0,.738-.053v2.118a5.466,5.466,0,0,1-1.67.255,3.1,3.1,0,0,1-2.259-.721,2.954,2.954,0,0,1-.729-2.188v-4.72H77.6V32.49h1.213V30.126Zm8.394,10.846a3.054,3.054,0,0,1-2.54,1.2,3,3,0,0,1-2.369-.91,3.826,3.826,0,0,1-.8-2.615V32.49h2.962v6.179A1.065,1.065,0,0,0,88.6,39.891a1.548,1.548,0,0,0,1.45-.729V32.49h2.979V42H90.256ZM100.012,42a3.344,3.344,0,0,1-.281-.853,2.754,2.754,0,0,1-2.285,1.028,3.374,3.374,0,0,1-2.285-.813,2.588,2.588,0,0,1-.94-2.043,2.66,2.66,0,0,1,1.143-2.338,5.821,5.821,0,0,1,3.322-.791H99.6v-.5q0-1.316-1.134-1.316a.927.927,0,0,0-1.055,1.042H94.449a2.655,2.655,0,0,1,1.173-2.239,4.931,4.931,0,0,1,2.993-.86,4.323,4.323,0,0,1,2.874.888,3.086,3.086,0,0,1,1.081,2.435v4.21a4.311,4.311,0,0,0,.4,2V42Zm-1.854-1.934a1.652,1.652,0,0,0,.918-.237,1.487,1.487,0,0,0,.523-.536V37.772h-.861q-1.547,0-1.547,1.389a.848.848,0,0,0,.272.655A.986.986,0,0,0,98.158,40.066ZM107.333,42h-2.971V28.5h2.971Z" transform="translate(964 4406)" fill="#12263f"/>
    <g id="Grupo_77973" data-name="Grupo 77973" transform="translate(333 4270.309)">
      <g id="Grupo_18531" data-name="Grupo 18531" transform="translate(0 0)">
        <g id="Grupo_18423" data-name="Grupo 18423" transform="translate(0 0)">
          <g id="Grupo_18421" data-name="Grupo 18421">
            <g id="Grupo_18420" data-name="Grupo 18420">
              <g id="Grupo_18419" data-name="Grupo 18419">
                <path id="Trazado_40936" data-name="Trazado 40936" d="M312.314,2204.565a58.846,58.846,0,1,1-58.845-58.844A58.845,58.845,0,0,1,312.314,2204.565Z" transform="translate(-194.623 -2145.721)" fill="#fff"/>
              </g>
            </g>
          </g>
          <path id="Trazado_40937" data-name="Trazado 40937" d="M311.665,2203.857A58.844,58.844,0,1,0,252.82,2262.7,58.613,58.613,0,0,0,311.665,2203.857Z" transform="translate(-193.974 -2145.013)" fill="url(#radial-gradient)"/>
          <path id="Trazado_40938" data-name="Trazado 40938" d="M291.975,2198.12a44.917,44.917,0,1,0-44.917,44.917A44.75,44.75,0,0,0,291.975,2198.12Z" transform="translate(-188.034 -2139.08)" fill="none" stroke="#00223d" stroke-miterlimit="10" stroke-width="4"/>
          <g id="Grupo_18422" data-name="Grupo 18422" transform="translate(10.425 33.038)">
            <path id="Trazado_40939" data-name="Trazado 40939" d="M301.861,2164.488a58.853,58.853,0,0,1-101.316,58.6,58.666,58.666,0,0,0,101.316-58.6Z" transform="translate(-200.545 -2164.488)" fill="#eceef0"/>
          </g>
        </g>
      </g>
      <g id="_1o7J4U.tif" data-name="1o7J4U.tif" transform="translate(-3693.943 -731.213)">
        <g id="Grupo_77978" data-name="Grupo 77978" transform="translate(3720.292 769.682)">
          <path id="Trazado_138585" data-name="Trazado 138585" d="M3720.292,837.325a3.766,3.766,0,0,1,2.37-2.673c.142-.051.259-.376.261-.576.019-1.884-.1-3.777.045-5.651a33.759,33.759,0,0,1,.816-4.56c.629-2.9,1.3-5.788,1.963-8.681a1.654,1.654,0,0,1,1.9-1.536q12.888,0,25.775-.01a1.95,1.95,0,0,1,1.861,1.134c2.283,4.1,4.6,8.193,6.872,12.3a.984.984,0,0,0,1.039.6c.948-.04,1.9-.012,2.99-.012-.207-.293-.337-.484-.474-.671q-3.277-4.443-6.555-8.886c-1.161-1.575-.973-2.828.59-3.987.98-.727,1.958-1.456,2.946-2.171a2.445,2.445,0,0,1,3.711.568c.985,1.312,1.952,2.638,2.924,3.959.1.136.18.286.27.429l-.132.2-4.576-2.542-.077.063a3.641,3.641,0,0,0,.283.352c1.158,1.133,2.334,2.247,3.471,3.4a1.008,1.008,0,0,0,1.067.287c1.644-.369,3.292-.718,4.939-1.069a1.791,1.791,0,0,1,2.333,1.27,1.771,1.771,0,0,1-1.615,2.1c-1.993.431-3.992.838-5.977,1.3a2.337,2.337,0,0,1-2.408-.691c-1.447-1.466-2.946-2.88-4.5-4.266.087.163.163.332.262.487q1.482,2.327,2.972,4.65a3.3,3.3,0,0,0,3.554,1.521c2.214-.457,4.422-.944,6.632-1.425a3.56,3.56,0,0,0,2.315-1.6,2.681,2.681,0,0,1,.291.164q4.53,3.387,9.058,6.777a2.089,2.089,0,0,1,.963,2.177,1.986,1.986,0,0,1-1.5,1.614,2.249,2.249,0,0,1-2.04-.53c-2.534-1.908-5.089-3.788-7.6-5.72a1.126,1.126,0,0,0-1.468-.158,11.243,11.243,0,0,1-1.179.547c1.212.265,2.231.506,3.258.708a2.262,2.262,0,0,1,1.852,1.689c1.127,3.659,2.275,7.313,3.4,10.973a2.079,2.079,0,1,1-3.966,1.2q-1.483-4.72-2.93-9.45a.834.834,0,0,0-.74-.7c-1.369-.249-2.726-.568-4.2-.884.259.384.462.665.645.959a6.661,6.661,0,0,1,.781,3.847.678.678,0,0,0,.4.733,3.333,3.333,0,0,1,1.708,4.044,3.428,3.428,0,0,1-3.776,2.346,8.251,8.251,0,0,0-3.469-6.614,8.02,8.02,0,0,0-5-1.537,8.279,8.279,0,0,0-8.028,8.139h-12.649a8.183,8.183,0,0,0-3.17-6.39,7.982,7.982,0,0,0-5.191-1.753,8.314,8.314,0,0,0-8.145,8.163c-1.628.093-3.275.23-4.408-1.3a9.373,9.373,0,0,1-.739-1.469ZM3743,817.147v6.974h13.418a1.024,1.024,0,0,0-.055-.227c-1.189-2.127-2.369-4.258-3.59-6.366a1,1,0,0,0-.741-.364c-1.909-.03-3.817-.017-5.727-.017Zm-3.575,0h-9.159c-1.356,0-1.363,0-1.662,1.342-.416,1.869-.819,3.741-1.233,5.634h12.054Z" transform="translate(-3720.292 -805.774)" fill="#12263f"/>
          <path id="Trazado_138586" data-name="Trazado 138586" d="M4005.165,1007.5a5.2,5.2,0,1,1,5.176-5.219A5.233,5.233,0,0,1,4005.165,1007.5Z" transform="translate(-3962.592 -966.744)" fill="#12263f"/>
          <path id="Trazado_138587" data-name="Trazado 138587" d="M3781.922,1002.3a5.206,5.206,0,1,1,5.192,5.2A5.214,5.214,0,0,1,3781.922,1002.3Z" transform="translate(-3773.695 -966.742)" fill="#12263f"/>
          <path id="Trazado_138588" data-name="Trazado 138588" d="M3982.362,776.8a3.559,3.559,0,1,1,3.67-3.51A3.582,3.582,0,0,1,3982.362,776.8Z" transform="translate(-3944.347 -769.682)" fill="#12263f"/>
        </g>
      </g>
    </g>
    <g id="Grupo_77974" data-name="Grupo 77974" transform="translate(652.654 4270.309)">
      <g id="Grupo_18531-2" data-name="Grupo 18531" transform="translate(0 0)">
        <g id="Grupo_18423-2" data-name="Grupo 18423" transform="translate(0 0)">
          <g id="Grupo_18421-2" data-name="Grupo 18421">
            <g id="Grupo_18420-2" data-name="Grupo 18420">
              <g id="Grupo_18419-2" data-name="Grupo 18419">
                <path id="Trazado_40936-2" data-name="Trazado 40936" d="M312.314,2204.565a58.846,58.846,0,1,1-58.845-58.844A58.845,58.845,0,0,1,312.314,2204.565Z" transform="translate(-194.623 -2145.721)" fill="#fff"/>
              </g>
            </g>
          </g>
          <path id="Trazado_40937-2" data-name="Trazado 40937" d="M311.665,2203.857A58.844,58.844,0,1,0,252.82,2262.7,58.613,58.613,0,0,0,311.665,2203.857Z" transform="translate(-193.974 -2145.013)" fill="url(#radial-gradient)"/>
          <path id="Trazado_40938-2" data-name="Trazado 40938" d="M291.975,2198.12a44.917,44.917,0,1,0-44.917,44.917A44.75,44.75,0,0,0,291.975,2198.12Z" transform="translate(-188.034 -2139.08)" fill="none" stroke="#00223d" stroke-miterlimit="10" stroke-width="4"/>
          <g id="Grupo_18422-2" data-name="Grupo 18422" transform="translate(10.425 33.038)">
            <path id="Trazado_40939-2" data-name="Trazado 40939" d="M301.861,2164.488a58.853,58.853,0,0,1-101.316,58.6,58.666,58.666,0,0,0,101.316-58.6Z" transform="translate(-200.545 -2164.488)" fill="#eceef0"/>
          </g>
        </g>
      </g>
      <g id="D94Iow.tif" transform="translate(-4363.728 -673.331)">
        <g id="Grupo_77979" data-name="Grupo 77979" transform="translate(4391.028 704.634)">
          <path id="Trazado_138589" data-name="Trazado 138589" d="M4391.028,782.916a14.543,14.543,0,0,1,2.592-4.027,11.3,11.3,0,0,1,9.447-3.382c.732.06,1.475,0,2.205.071a4.14,4.14,0,0,1,2.435,1.379,6.366,6.366,0,0,1,1.512,3.033,8.352,8.352,0,0,0,3.857,5.3,14.938,14.938,0,0,0,2.8,1.037,2.938,2.938,0,0,1,2.051,1.243v-2.135h.8v1.587c1.1.074,2.115.144,3.134.21,1.806.116,3.613.216,5.417.347a2.833,2.833,0,0,1,2.412,1.252,2.207,2.207,0,0,1-.45.341c-1,.416-1.032,1.214-.839,2.1.111.51.235,1.018.363,1.525.105.416.029.748-.422.879a.694.694,0,0,1-.912-.514c-.083-.224-.135-.459-.206-.688-.031-.1-.059-.286-.111-.295-1.224-.2-1.04-1.412-1.537-2.129-.013-.018-.026-.034-.083-.108l-6.738.257v1.577h-.812v-2.305a2.669,2.669,0,0,0-.6.385,2.421,2.421,0,0,1-2.569.864,11.824,11.824,0,0,1-7.567-4.731c-.073-.1-.168-.184-.309-.335-.546,2.363-1.075,4.647-1.6,6.932-.187.806-.333,1.623-.565,2.415-.129.438.021.611.375.808a14.137,14.137,0,0,1,4.536,3.784,11.208,11.208,0,0,1,1.714,10.175,23.933,23.933,0,0,1-2.437,5.615c-.785,1.385-1.839,1.791-3.078,1.183a2.714,2.714,0,0,1-1.4-3.514c.292-.655.715-1.253.984-1.916a26.246,26.246,0,0,0,1.282-3.546,5.723,5.723,0,0,0-1.59-5.407,12.076,12.076,0,0,0-4.62-2.931c-.72,2.715-1.428,5.385-2.136,8.054q-1.037,3.913-2.077,7.825a2.379,2.379,0,0,1-3.067,1.86,2.433,2.433,0,0,1-1.822-3.211c1.619-6.078,3.289-12.143,4.838-18.239,1.252-4.926,2.359-9.889,3.527-14.836a2.048,2.048,0,0,0,0-.414,6.987,6.987,0,0,0-4.269,3.735c-.122.231-.224.472-.341.706a1.9,1.9,0,0,1-3.253.587,7.028,7.028,0,0,1-.874-1.35Z" transform="translate(-4391.028 -766.171)" fill="#12263f"/>
          <path id="Trazado_138590" data-name="Trazado 138590" d="M4615.454,883.2c-.761,1.956-1.468,3.842-2.23,5.706a20.519,20.519,0,0,1-1.3,2.693,2.715,2.715,0,0,1-2.507,1.272q-12.466,0-24.932-.006a2.722,2.722,0,0,1-2.892-2.46,2.808,2.808,0,0,1,1.888-3.2,5.262,5.262,0,0,1,1.356-.153q2.585-.025,5.17,0a.861.861,0,0,0,.814-.477c1.91-2.782,3.8-5.582,5.81-8.288,1.117-1.5,2.981-1.486,4.414-.173q2.726,2.5,5.458,4.985c.158.144.331.272.619.508.752-2.457,1.448-4.831,2.216-7.18.247-.754.03-1.1-.627-1.455-2.895-1.56-5.75-3.191-8.646-4.749-1.432-.77-1.875-1.581-1.343-2.78a2.466,2.466,0,0,1,3.376-1.313c1.628.781,3.224,1.633,4.809,2.5,1.2.659,2.362,1.4,3.558,2.074a.711.711,0,0,0,.648,0c1.633-1.773,5.486-.873,6.545,2.041a31.074,31.074,0,0,1,1.045,4.877,27.33,27.33,0,0,0,3.859,9.573c.176.276.361.545.535.822a1.975,1.975,0,0,1-.442,2.972,2.333,2.333,0,0,1-3.321-.433c-.865-1.278-1.643-2.62-2.377-3.978-.485-.9-.824-1.871-1.231-2.809C4615.649,883.605,4615.564,883.437,4615.454,883.2Zm-18.123,3.808h4.8l-2.912-2.594Z" transform="translate(-4556.581 -844.741)" fill="#12263f"/>
          <path id="Trazado_138591" data-name="Trazado 138591" d="M4472.935,713.184a4.275,4.275,0,1,1,4.277-4.282A4.259,4.259,0,0,1,4472.935,713.184Z" transform="translate(-4458.492 -704.634)" fill="#12263f"/>
          <path id="Trazado_138592" data-name="Trazado 138592" d="M4787.308,831.8a4.055,4.055,0,0,1,.028-8.11,4.055,4.055,0,1,1-.028,8.11Z" transform="translate(-4731.841 -808.084)" fill="#12263f"/>
          <path id="Trazado_138593" data-name="Trazado 138593" d="M4766.442,1081.162a4.311,4.311,0,0,1,.8-.42c1.275-.358,2.551-.726,3.845-1.009a3.013,3.013,0,0,1,2.432.492,1.378,1.378,0,0,1,.034,2.394,2.367,2.367,0,0,1-3.2-.105,4.928,4.928,0,0,0-3.194-1.115,5.663,5.663,0,0,1-.576-.087C4766.55,1081.307,4766.525,1081.253,4766.442,1081.162Z" transform="translate(-4717.22 -1030.487)" fill="#12263f"/>
          <path id="Trazado_138594" data-name="Trazado 138594" d="M4843.393,1064.6a12.771,12.771,0,0,1,1.8.774c.478.295.429.75,0,1.141a3.155,3.155,0,0,1-3.637-.007c-.42-.388-.462-.848.018-1.14A12.972,12.972,0,0,1,4843.393,1064.6Z" transform="translate(-4782.206 -1017.402)" fill="#12263f"/>
          <path id="Trazado_138595" data-name="Trazado 138595" d="M4847.789,1104.334a3.994,3.994,0,0,1-.949.272c-.167.008-.347-.235-.521-.365.167-.133.335-.378.5-.375a4.272,4.272,0,0,1,.971.235Z" transform="translate(-4786.623 -1051.52)" fill="#12263f"/>
          <path id="Trazado_138596" data-name="Trazado 138596" d="M4869.592,1090.778a4.283,4.283,0,0,1-.971.252c-.163.006-.334-.239-.5-.371.17-.134.348-.386.51-.376a4.066,4.066,0,0,1,.959.284C4869.589,1090.637,4869.591,1090.708,4869.592,1090.778Z" transform="translate(-4805.565 -1039.718)" fill="#12263f"/>
          <path id="Trazado_138597" data-name="Trazado 138597" d="M4655.137,904.364q.045.441.089.881l-.509.032v-.89Z" transform="translate(-4620.144 -878.176)" fill="#12263f"/>
          <path id="Trazado_138598" data-name="Trazado 138598" d="M4706.631,1027.019h-4.8" transform="translate(-4661.077 -984.749)" fill="#12263f"/>
        </g>
      </g>
    </g>
    <g id="Grupo_77975" data-name="Grupo 77975" transform="translate(978.654 4270.309)">
      <g id="Grupo_18531-3" data-name="Grupo 18531" transform="translate(0 0)">
        <g id="Grupo_18423-3" data-name="Grupo 18423" transform="translate(0 0)">
          <g id="Grupo_18421-3" data-name="Grupo 18421">
            <g id="Grupo_18420-3" data-name="Grupo 18420">
              <g id="Grupo_18419-3" data-name="Grupo 18419">
                <path id="Trazado_40936-3" data-name="Trazado 40936" d="M312.314,2204.565a58.846,58.846,0,1,1-58.845-58.844A58.845,58.845,0,0,1,312.314,2204.565Z" transform="translate(-194.623 -2145.721)" fill="#fff"/>
              </g>
            </g>
          </g>
          <path id="Trazado_40937-3" data-name="Trazado 40937" d="M311.665,2203.857A58.844,58.844,0,1,0,252.82,2262.7,58.613,58.613,0,0,0,311.665,2203.857Z" transform="translate(-193.974 -2145.013)" fill="url(#radial-gradient)"/>
          <path id="Trazado_40938-3" data-name="Trazado 40938" d="M291.975,2198.12a44.917,44.917,0,1,0-44.917,44.917A44.75,44.75,0,0,0,291.975,2198.12Z" transform="translate(-188.034 -2139.08)" fill="none" stroke="#00223d" stroke-miterlimit="10" stroke-width="4"/>
          <g id="Grupo_18422-3" data-name="Grupo 18422" transform="translate(10.425 33.038)">
            <path id="Trazado_40939-3" data-name="Trazado 40939" d="M301.861,2164.488a58.853,58.853,0,0,1-101.316,58.6,58.666,58.666,0,0,0,101.316-58.6Z" transform="translate(-200.545 -2164.488)" fill="#eceef0"/>
          </g>
        </g>
      </g>
      <g id="Grupo_77980" data-name="Grupo 77980" transform="translate(-3773.35 -95.056)">
        <path id="Trazado_138599" data-name="Trazado 138599" d="M3835.243,253.506c-1.649-1.272-1.833-1.9-1.092-3.87,1.148-3.048,2.342-6.08,3.427-9.15a2.277,2.277,0,0,0-.228-1.694c-4.017-6.766-10.342-11.223-16.249-16.091a1.8,1.8,0,0,0-1.37-.214c-2.187.507-4.363,1.074-6.53,1.664a2.945,2.945,0,0,1-2.93-.669c-2.115-1.841-4.283-3.619-6.4-5.463a10.486,10.486,0,0,1-1.189-1.484v-1.1c1.214-2.085,2.471-2.313,4.324-.759,1.655,1.388,3.268,2.83,4.961,4.169a2.191,2.191,0,0,0,1.57.422c4.247-.82,8.392-1.871,12.108-4.3a91.087,91.087,0,0,1,8.3-4.615,2.966,2.966,0,0,1,2.214-.054c3.222,1.333,6.4,2.781,9.569,4.23a2.312,2.312,0,0,1,1.306,3.166,2.352,2.352,0,0,1-3.188,1.009c-2.191-.944-4.392-1.876-6.521-2.947a3.16,3.16,0,0,0-3.575.114,16.167,16.167,0,0,1-1.959,1,66.559,66.559,0,0,0,5.482,4.4c4,2.589,8.166,4.934,12.192,7.491a3.5,3.5,0,0,1,1.428,2.156c.57,3.719.965,7.464,1.4,11.2a2.345,2.345,0,0,1-1.941,2.842c-1.389.182-2.431-.716-2.641-2.356-.373-2.917-.729-5.836-1.041-8.76a1.577,1.577,0,0,0-1.156-1.473c-2.3-.9-4.574-1.866-7.249-2.968,1.043,1.839,1.929,3.355,2.772,4.895,2.709,4.95,2.654,3.206.617,8.582-1.056,2.789-2.064,5.6-3.233,8.34a10.974,10.974,0,0,1-1.8,2.284Z" transform="translate(0 -62.534)" fill="#12263f"/>
        <path id="Trazado_138600" data-name="Trazado 138600" d="M3910.21,138.5l-.41-7.486-4.3,6.6-3.458-4.536-.958,7.566-5.438-3.779V143.8l-.246.006c-.322-3.231-.644-6.462-1-10.036l5.519,4.551c.206-3.461.4-6.706.615-10.353l4.589,6.855,6.669-11.074c.174,4.084.329,7.725.5,11.66l8.151-4.584-4.209,10.183,9.729-2.506-5.281,8.306,5.434.54-8.257,6.925-.212-.173,3.438-4.877-3.13-.623,3.518-6.843-7.246.857c.581-2.316,1.127-4.494,1.747-6.965Z" transform="translate(-66.411 0)" fill="#12263f"/>
        <path id="Trazado_138601" data-name="Trazado 138601" d="M3848.555,200.6a5.1,5.1,0,0,1,5.106-5.192,5.172,5.172,0,0,1,5.146,5.186,5.106,5.106,0,0,1-5.07,5.1A5.035,5.035,0,0,1,3848.555,200.6Z" transform="translate(-33.213 -51.888)" fill="#12263f"/>
      </g>
    </g>
  </g>
</svg>
