<svg xmlns="http://www.w3.org/2000/svg" xmlns:xlink="http://www.w3.org/1999/xlink" width="183.348" height="183.348" viewBox="0 0 183.348 183.348">
  <defs>
    <radialGradient id="radial-gradient" cx="0.076" cy="0.019" r="1.465" gradientTransform="translate(0.001)" gradientUnits="objectBoundingBox">
      <stop offset="0" stop-color="#f6f6f7"/>
      <stop offset="0.477" stop-color="#f9f9fa"/>
      <stop offset="0.715" stop-color="#fff"/>
    </radialGradient>
  </defs>
  <g id="Grupo_49868" data-name="Grupo 49868" transform="translate(0 0.001)">
    <g id="Grupo_18531" data-name="Grupo 18531" transform="translate(0 0)">
      <g id="Grupo_18423" data-name="Grupo 18423" transform="translate(0 0)">
        <g id="Grupo_18421" data-name="Grupo 18421">
          <g id="Grupo_18420" data-name="Grupo 18420">
            <g id="Grupo_18419" data-name="Grupo 18419">
              <path id="Trazado_40936" data-name="Trazado 40936" d="M377.97,2237.392a91.673,91.673,0,1,1-91.672-91.671A91.672,91.672,0,0,1,377.97,2237.392Z" transform="translate(-194.623 -2145.721)" fill="#fff"/>
            </g>
          </g>
        </g>
        <path id="Trazado_40937" data-name="Trazado 40937" d="M376.482,2235.77a91.671,91.671,0,1,0-91.672,91.676A91.311,91.311,0,0,0,376.482,2235.77Z" transform="translate(-193.135 -2144.099)" fill="url(#radial-gradient)"/>
        <path id="Trazado_40938" data-name="Trazado 40938" d="M341.45,2222.48a69.974,69.974,0,1,0-69.974,69.974A69.714,69.714,0,0,0,341.45,2222.48Z" transform="translate(-179.525 -2130.503)" fill="none" stroke="#00223d" stroke-miterlimit="10" stroke-width="4"/>
        <g id="Grupo_18422" data-name="Grupo 18422" transform="translate(16.241 51.468)">
          <path id="Trazado_40939" data-name="Trazado 40939" d="M358.381,2164.488a91.684,91.684,0,0,1-157.836,91.294,91.393,91.393,0,0,0,157.836-91.294Z" transform="translate(-200.545 -2164.488)" fill="#eceef0"/>
        </g>
      </g>
    </g>
    <g id="DeT2EW.tif" transform="translate(419.69 -1262.389)">
      <g id="Grupo_87660" data-name="Grupo 87660" transform="translate(-384.629 1334.025)">
        <path id="Trazado_139481" data-name="Trazado 139481" d="M-336.08,1367.531c-2.011.752-3.845,1.373-5.628,2.115-9.481,3.948-7.548,2.01-10.5,11.1-.069.213-.141.424-.207.639-1.41,4.6.126,6.706,4.941,6.711q15.3.016,30.594,0c3.149,0,6.3.025,9.448-.022,2.088-.032,4.051-.961,4.013-3.087a21.886,21.886,0,0,0-3.864-12.089,1.226,1.226,0,0,0-.518-.422c-4.06-1.667-8.125-3.32-12.34-5.039l-4.469,12.962c-.292-4.182-2.039-8.379.568-11.853h-8.176c2.649,3.575.918,7.74.557,11.9Zm57.986-8.064c-1.578-3.477-1.577-3.476-.631-6.454.226-.711.462-1.419.652-2.139a13.027,13.027,0,0,0-6.079-14.42,12.206,12.206,0,0,0-15.1,1.88,12.747,12.747,0,0,0-3.389,13.374c.48,1.688,1.111,3.54.845,5.184-.414,2.563-.514,3,2.106,3.824,1.828.574,3.719.946,5.583,1.408-1.412,5.145-.285,8.273,3.8,10.6,3.607-2.7,5.343-6.034,3.523-10.4Zm-38.76-11.4c-.648-9.162-3.977-13.657-10.789-13.858-7.295-.216-10.636,3.93-11.345,14.078-2.412,1.027-3.018,5.395-.662,6.892,1.435.912,1.864,2.11,2.576,3.346a19.393,19.393,0,0,0,2.4,3.49c4.215,4.587,8.914,4.62,13.086.02a41.284,41.284,0,0,0,2.92-4.469c.5-.726,1.382-1.24,1.731-2.011a19.516,19.516,0,0,0,1.733-5.091C-315.1,1349.759-316.266,1348.87-316.855,1348.066Zm-43.081,26.213-.709-.118.484-10.04h-5.816v10.644l-3.983-11.575c-1.726.647-3.207,1.149-4.647,1.75-8.878,3.706-6.773,1.659-9.552,10.241-1.315,4.06.118,6.007,4.363,6.023q8.666.032,17.333-.005c2.158-.012,4.824.586,6.324-.443,1.385-.951,1.657-3.673,2.172-5.678a8.634,8.634,0,0,1,5.755-6.347c.826-.3,1.614-.708,2.945-1.3l-10.834-4.287c-.73,2.129-1.354,3.954-1.982,5.778Q-359.006,1371.6-359.936,1374.278Zm6.255-30.3c.109-7.128-6.246-11.74-12.809-9.3-3.891,1.449-6,4.917-5.932,9.586a3.431,3.431,0,0,1-.565,2.343c-1.571,1.394-1.58,4.734.111,6.086a5.907,5.907,0,0,1,1.622,1.908c1.727,3.537,4.145,6.77,8.24,6.732,4.073-.038,6.5-3.255,8.184-6.82a5.153,5.153,0,0,1,1.474-1.772c1.391-1.083,2.343-5.055,1.1-5.568C-354.062,1346.439-353.7,1345.25-353.681,1343.982Z" transform="translate(384.629 -1334.025)" fill="#12263f"/>
        <path id="Trazado_139482" data-name="Trazado 139482" d="M-177.8,1415.036c-1.094,2.787-3.336,3.527-6.1,3.512-6.967-.037-13.936-.074-20.9.034a2.226,2.226,0,0,1-2.611-2.01c-.3-1.3-.788-2.563-1.141-3.856a9.338,9.338,0,0,0-5.27-6.5c2.46-2.706,5.868-2.836,8.927-3.935-1.573,2.034-2.868,4.051-2.117,6.724.181,0,.363.058.454-.009,3.035-2.219,2.988-2.189,5.184.889,1.289,1.806,2.751,3.489,4.442,5.613,1.616-1.978,3.041-3.57,4.295-5.286,2.492-3.411,1.607-3.89,5.646-1.11.834-2.276.706-2.716-2.09-6.958,4.981,1.424,10.079,2.292,11.277,8.412Z" transform="translate(291.028 -1371.351)" fill="#12263f"/>
        <path id="Trazado_139483" data-name="Trazado 139483" d="M-297.634,1408.037l4.421,12.914c.361-4.159,2.092-8.324-.557-11.9h8.176c-2.606,3.474-.86,7.671-.568,11.853l4.469-12.963c4.215,1.718,8.28,3.372,12.34,5.039a1.226,1.226,0,0,1,.518.422,21.886,21.886,0,0,1,3.864,12.089c.038,2.125-1.926,3.055-4.013,3.087-3.149.047-6.3.022-9.448.022q-15.3,0-30.594,0c-4.815-.005-6.351-2.109-4.941-6.711.066-.214.138-.426.207-.639,2.951-9.086,1.018-7.149,10.5-11.1C-301.479,1409.41-299.645,1408.789-297.634,1408.037Z" transform="translate(346.183 -1374.531)" fill="#12263f"/>
        <path id="Trazado_139484" data-name="Trazado 139484" d="M-179.456,1360.247l-8.685,2.847c1.82,4.37.084,7.707-3.523,10.4-4.089-2.323-5.216-5.451-3.8-10.6-1.864-.462-3.755-.833-5.583-1.408-2.62-.823-2.52-1.261-2.106-3.823.266-1.645-.365-3.5-.845-5.184a12.747,12.747,0,0,1,3.389-13.374,12.206,12.206,0,0,1,15.1-1.88,13.027,13.027,0,0,1,6.079,14.42c-.19.721-.427,1.429-.652,2.139C-181.033,1356.771-181.035,1356.77-179.456,1360.247Z" transform="translate(285.991 -1334.804)" fill="#12263f"/>
        <path id="Trazado_139485" data-name="Trazado 139485" d="M-264.131,1348.277c.589.805,1.755,1.693,1.653,2.4a19.515,19.515,0,0,1-1.733,5.091c-.349.771-1.23,1.285-1.731,2.011a41.269,41.269,0,0,1-2.92,4.469c-4.172,4.6-8.87,4.567-13.086-.02a19.392,19.392,0,0,1-2.4-3.49c-.711-1.237-1.141-2.434-2.576-3.346-2.356-1.5-1.75-5.865.662-6.892.709-10.148,4.051-14.294,11.345-14.078C-268.108,1334.62-264.779,1339.115-264.131,1348.277Z" transform="translate(331.905 -1334.236)" fill="#12263f"/>
        <path id="Trazado_139486" data-name="Trazado 139486" d="M-359.936,1409.577q.928-2.679,1.855-5.359c.628-1.824,1.252-3.649,1.982-5.778l10.834,4.287c-1.331.593-2.119,1-2.945,1.3a8.634,8.634,0,0,0-5.755,6.347c-.515,2.005-.787,4.728-2.172,5.678-1.5,1.03-4.166.432-6.324.443q-8.666.048-17.333.006c-4.246-.016-5.678-1.963-4.363-6.023,2.779-8.582.674-6.535,9.552-10.241,1.44-.6,2.92-1.1,4.647-1.75l3.983,11.575V1399.42h5.816l-.484,10.04Z" transform="translate(384.629 -1369.323)" fill="#12263f"/>
        <path id="Trazado_139487" data-name="Trazado 139487" d="M-340.982,1343.981c-.016,1.269-.382,2.458,1.422,3.2,1.246.513.293,4.485-1.1,5.568a5.154,5.154,0,0,0-1.474,1.772c-1.684,3.565-4.112,6.782-8.184,6.82-4.095.038-6.514-3.2-8.24-6.732a5.907,5.907,0,0,0-1.622-1.908c-1.691-1.352-1.682-4.692-.111-6.086a3.431,3.431,0,0,0,.565-2.343c-.067-4.669,2.041-8.137,5.932-9.586C-347.23,1332.241-340.874,1336.853-340.982,1343.981Z" transform="translate(371.932 -1334.025)" fill="#12263f"/>
      </g>
    </g>
  </g>
</svg>
