<svg xmlns="http://www.w3.org/2000/svg" width="355.68" height="384.114" viewBox="0 0 355.68 384.114">
  <g id="Grupo_87861" data-name="Grupo 87861" transform="translate(-984 -6213.645)">
    <g id="Grupo_87431" data-name="Grupo 87431" transform="translate(1118.729 6457.813)">
      <g id="Grupo_87428" data-name="Grupo 87428" transform="translate(0 14.736)">
        <g id="Grupo_87427" data-name="Grupo 87427">
          <g id="Grupo_87426" data-name="Grupo 87426">
            <g id="Grupo_87425" data-name="Grupo 87425">
              <g id="Grupo_87423" data-name="Grupo 87423" transform="translate(0.881)">
                <g id="Grupo_87416" data-name="Grupo 87416" transform="translate(113.492 70.624)">
                  <path id="Trazado_139009" data-name="Trazado 139009" d="M421.274,263.606a13.351,13.351,0,0,0-11.364-12.493l-.01-.282-2.779.121a13.273,13.273,0,1,0,1.172,26.512l2.782-.121-.02-.285A13.336,13.336,0,0,0,421.274,263.606Z" transform="translate(-394.13 -250.821)" fill="#0a1c33"/>
                  <g id="Grupo_87415" data-name="Grupo 87415" transform="translate(4.688)">
                    <path id="Trazado_139010" data-name="Trazado 139010" d="M395.578,264.608c-.327-7.315,4.631-13.482,11.066-13.77s11.908,5.42,12.232,12.742-4.628,13.482-11.057,13.77S395.9,271.927,395.578,264.608Z" transform="translate(-395.562 -250.828)" fill="#12263f"/>
                  </g>
                </g>
                <g id="Grupo_87418" data-name="Grupo 87418" transform="translate(8.513 73.39)">
                  <path id="Trazado_139011" data-name="Trazado 139011" d="M389.2,264.451a13.343,13.343,0,0,0-11.364-12.5l-.007-.278-2.782.124a13.273,13.273,0,1,0,1.178,26.512l2.769-.134-.016-.275A13.335,13.335,0,0,0,389.2,264.451Z" transform="translate(-362.057 -251.666)" fill="#473a50"/>
                  <g id="Grupo_87417" data-name="Grupo 87417" transform="translate(4.694)">
                    <path id="Trazado_139012" data-name="Trazado 139012" d="M363.507,265.453c-.331-7.319,4.632-13.482,11.066-13.77s11.908,5.42,12.235,12.736-4.631,13.492-11.07,13.767S363.831,272.772,363.507,265.453Z" transform="translate(-363.491 -251.673)" fill="#322838"/>
                  </g>
                </g>
                <path id="Trazado_139013" data-name="Trazado 139013" d="M500.472,281.625l-86.933,3.842-51.367.39-2.717-27.569,19.364-3.324,5.92-4.561,5.472,1.454,6.629-3.832,97.893-4.066Z" transform="translate(-359.456 -195.82)" fill="#b0c0d2"/>
                <path id="Trazado_139014" data-name="Trazado 139014" d="M435.807,230.245l-42.947,1.9L370.878,279.2l91.792-3.807Z" transform="translate(-333.493 -226.991)" fill="#afafaf"/>
                <path id="Trazado_139015" data-name="Trazado 139015" d="M542.758,278.131l-165.987,7.342-1.141-25.792,6.907-1.17,9.7-5.888,13.936-1.716,11.862-5.44,91.414-1.512,27.639.521Z" transform="translate(-322.689 -195.827)" fill="#afafaf"/>
                <path id="Trazado_139016" data-name="Trazado 139016" d="M405.784,278.125l-4.363.179-1.921-33.55,4.344-.186Z" transform="translate(-268.431 -194.431)" fill="#b0c0d2"/>
                <path id="Trazado_139017" data-name="Trazado 139017" d="M477.322,229.251,403.814,232.5l-6.962,46.387-11.9,15.989,101.515-17.417Z" transform="translate(-301.5 -229.251)" fill="#b0c0d2"/>
                <path id="Trazado_139018" data-name="Trazado 139018" d="M402.118,275.362l43.062-1.9-6.067-43.327-38.92,1.72Z" transform="translate(-266.855 -227.24)" fill="#d2e1f1"/>
                <path id="Trazado_139019" data-name="Trazado 139019" d="M419.357,230.721l-24.4,1.077-5.1,43.82,31.43-1.394Z" transform="translate(-290.365 -225.91)" fill="#d2e1f1"/>
                <path id="Trazado_139020" data-name="Trazado 139020" d="M442.018,250.874l-2.905-20.739-38.92,1.72.844,19.019Z" transform="translate(-266.855 -227.24)" fill="#f3f9ff"/>
                <path id="Trazado_139021" data-name="Trazado 139021" d="M418.081,249.544l-.831-18.824-24.4,1.077-2.068,17.747Z" transform="translate(-288.259 -225.91)" fill="#f3f9ff"/>
                <path id="Trazado_139022" data-name="Trazado 139022" d="M435.387,231.175l-6.54,43.343-57.97,2.563,20.54-43.963Z" transform="translate(-333.495 -224.878)" fill="#d2e1f1"/>
                <path id="Trazado_139023" data-name="Trazado 139023" d="M411.449,247.488l-10.874-4.366-7.211,7.106L383.73,246.7l-7.112,12.188,39.178-1.729,2.778-18.354Z" transform="translate(-320.444 -207.523)" fill="#12263f"/>
                <g id="Grupo_87420" data-name="Grupo 87420" transform="translate(69.387 71.801)">
                  <path id="Trazado_139024" data-name="Trazado 139024" d="M407.566,257.26a14.806,14.806,0,0,0-18.235-4.236l-.19-.239-2.448,1.859a14.7,14.7,0,1,0,17.77,23.416l2.458-1.859-.19-.242A14.8,14.8,0,0,0,407.566,257.26Z" transform="translate(-380.655 -250.417)" fill="#0a1c33"/>
                  <g id="Grupo_87419" data-name="Grupo 87419" transform="translate(3.778)">
                    <path id="Trazado_139025" data-name="Trazado 139025" d="M385.107,273.074c-4.9-6.471-4.265-15.207,1.411-19.518s14.271-2.566,19.181,3.9,4.278,15.2-1.4,19.518S390.017,279.545,385.107,273.074Z" transform="translate(-381.81 -251.187)" fill="#12263f"/>
                    <path id="Trazado_139026" data-name="Trazado 139026" d="M385.414,266.826c-3.159-4.167-2.756-9.8.91-12.585s9.2-1.656,12.363,2.51,2.756,9.806-.907,12.592S388.572,271,385.414,266.826Z" transform="translate(-378.454 -247.715)" fill="#b0c0d2"/>
                    <path id="Trazado_139027" data-name="Trazado 139027" d="M385.716,260.576a3.77,3.77,0,1,1,5.548,1.126A4.016,4.016,0,0,1,385.716,260.576Z" transform="translate(-375.1 -244.241)" fill="#12263f"/>
                  </g>
                </g>
                <g id="Grupo_87422" data-name="Grupo 87422" transform="translate(172.418 66.784)">
                  <path id="Trazado_139028" data-name="Trazado 139028" d="M437.965,274.894a14.8,14.8,0,0,0,1.211-18.693l.219-.223-2.249-2.121a14.714,14.714,0,1,0-20.234,21.357l2.236,2.124.216-.223A14.81,14.81,0,0,0,437.965,274.894Z" transform="translate(-412.133 -249.655)" fill="#0a1c33"/>
                  <g id="Grupo_87421" data-name="Grupo 87421" transform="translate(3.333 3.1)">
                    <path id="Trazado_139029" data-name="Trazado 139029" d="M417.57,255.606c5.587-5.9,14.32-6.7,19.511-1.781s4.851,13.675-.733,19.567-14.33,6.707-19.514,1.794S411.979,261.508,417.57,255.606Z" transform="translate(-413.151 -250.602)" fill="#12263f"/>
                    <path id="Trazado_139030" data-name="Trazado 139030" d="M417.5,255.339c3.6-3.8,9.233-4.321,12.579-1.152s3.129,8.821-.475,12.615c-3.6,3.81-9.234,4.324-12.575,1.162S413.895,259.145,417.5,255.339Z" transform="translate(-409.744 -247.173)" fill="#b0c0d2"/>
                    <path id="Trazado_139031" data-name="Trazado 139031" d="M417.426,255.069a3.772,3.772,0,1,1-.213,5.666A4.026,4.026,0,0,1,417.426,255.069Z" transform="translate(-406.336 -243.741)" fill="#12263f"/>
                  </g>
                </g>
              </g>
              <g id="Grupo_87424" data-name="Grupo 87424" transform="translate(3.095 71.733)">
                <path id="Trazado_139032" data-name="Trazado 139032" d="M373.747,256.3a6.925,6.925,0,1,0-4.89,8.481A6.933,6.933,0,0,0,373.747,256.3Z" transform="translate(-360.132 -251.164)" fill="#12263f"/>
                <path id="Trazado_139033" data-name="Trazado 139033" d="M364.1,260.038c1.237-.818.7-1.9.854-3.152,3.313,1.777,5.741-.229,7.947-2.507a6.926,6.926,0,0,0-12.533,5.515,7.5,7.5,0,0,0,.386,1.077,1.239,1.239,0,0,1,.331-.367C361.712,260.2,363.031,260.575,364.1,260.038Z" transform="translate(-360.132 -251.167)" fill="#f3f9ff"/>
              </g>
              <path id="Trazado_139034" data-name="Trazado 139034" d="M384.714,256.24a6.921,6.921,0,1,0-6.608,7.224A6.918,6.918,0,0,0,384.714,256.24Z" transform="translate(-332.612 -182.939)" fill="#ff9d00"/>
              <path id="Trazado_139035" data-name="Trazado 139035" d="M359.536,250.18l54.249,1.33-.083-1.851-54.246-1.323Z" transform="translate(-358.575 -185.869)" fill="#12263f"/>
              <path id="Trazado_139036" data-name="Trazado 139036" d="M421.861,257a3.455,3.455,0,0,1-2.831,3.987l-55.807,9.531a3.466,3.466,0,0,1-3.987-2.828h0a3.456,3.456,0,0,1,2.825-3.993l55.8-9.522a3.458,3.458,0,0,1,4,2.825Z" transform="translate(-359.187 -172.702)" fill="#12263f"/>
              <path id="Rectángulo_32754" data-name="Rectángulo 32754" d="M.295,0H8.287a.3.3,0,0,1,.3.3V14.557a.3.3,0,0,1-.3.3H.295A.295.295,0,0,1,0,14.558V.295A.295.295,0,0,1,.295,0Z" transform="translate(94.368 55.331) rotate(-48.611)" fill="#727997"/>
              <path id="Trazado_139037" data-name="Trazado 139037" d="M359.456,249.322l18.625-1.419,7.9.71,9.148-.71,17.27,2.711Z" transform="translate(-358.575 -186.854)" fill="#727997"/>
            </g>
            <path id="Trazado_139038" data-name="Trazado 139038" d="M384.92,233.173l2.193,5.146,5.4-1.49-2.653,4.919,4.523,3.286-5.5,1,.252,5.588-4.21-3.686-4.21,3.686.253-5.588-5.5-1,4.526-3.286-2.65-4.919,5.386,1.49Z" transform="translate(-322.198 -220.336)" fill="#12263f"/>
            <path id="Trazado_139039" data-name="Trazado 139039" d="M405.227,246.4a1.559,1.559,0,0,1-1.008,1.951l-6.075,1.951a1.561,1.561,0,0,1-1.954-1.011h0a1.552,1.552,0,0,1,1-1.954l6.078-1.941a1.552,1.552,0,0,1,1.954,1Z" transform="translate(-275.244 -192.715)" fill="#12263f"/>
            <path id="Trazado_139040" data-name="Trazado 139040" d="M419.777,246.439a1.55,1.55,0,0,1-1.614,1.489l-6.369-.252a1.552,1.552,0,0,1-1.493-1.62h0a1.546,1.546,0,0,1,1.61-1.486l6.379.249a1.551,1.551,0,0,1,1.486,1.62Z" transform="translate(-243.001 -194.432)" fill="#12263f"/>
          </g>
          <path id="Trazado_139041" data-name="Trazado 139041" d="M365.7,261.006c-.131,0-4.975,3.362-4.975,3.362a3.1,3.1,0,0,0,2.488,1.126h6.549Z" transform="translate(-355.681 -157.068)" fill="#d0edfe"/>
          <path id="Trazado_139042" data-name="Trazado 139042" d="M378.423,262c-.056,0-2.556-.583-2.556-.583l-.236,2.645,1.123,1.735,2.992-1.339,1.473-1.525Z" transform="translate(-321.807 -156.136)" fill="#ff9d00"/>
          <path id="Trazado_139043" data-name="Trazado 139043" d="M364.189,261.353a10.533,10.533,0,0,1,1.768-1.283l1.492,1.024.232,1.342-2.039.36-1.11-.576Z" transform="translate(-347.816 -159.195)" fill="#eba117"/>
          <path id="Trazado_139044" data-name="Trazado 139044" d="M362.887,262.665l.828,2.263,2.688-.534.94-1.729-2.314.3Z" transform="translate(-350.777 -153.297)" fill="#ff9d00"/>
          <path id="Trazado_139045" data-name="Trazado 139045" d="M377.108,259.781c-.059,0-1.476,1.061-1.476,1.061l-3.5-.413,2.295,1.99.19,2.641,3.126-2.317Z" transform="translate(-329.752 -159.852)" fill="#d0edfe"/>
          <path id="Trazado_139046" data-name="Trazado 139046" d="M370.156,260.569c-.059,0-1.48.907-1.48.907l-2.4.671-1.087,1.911,2.478,1,2.236-.717Z" transform="translate(-345.548 -158.061)" fill="#d0edfe"/>
          <path id="Trazado_139047" data-name="Trazado 139047" d="M364.828,263.778a10.478,10.478,0,0,1,1.771-1.5c.187-.164.677,1.047,1.018,1.2s1.237,1.669.7,1.568a7.053,7.053,0,0,0-2.046.442l-.242-1.7Z" transform="translate(-346.364 -154.21)" fill="#eba117"/>
          <path id="Trazado_139048" data-name="Trazado 139048" d="M374.427,259.409l.828,2.663,2.692-.626.943-2.036-2.314.355Z" transform="translate(-324.544 -160.697)" fill="#ff9d00"/>
        </g>
      </g>
      <g id="Grupo_87430" data-name="Grupo 87430" transform="translate(95.246)">
        <path id="Trazado_139049" data-name="Trazado 139049" d="M394.451,235.118a1.428,1.428,0,0,1-1.434,1.427h0a1.428,1.428,0,0,1-1.424-1.427v-8.942a1.434,1.434,0,0,1,1.424-1.427h0a1.434,1.434,0,0,1,1.434,1.427Z" transform="translate(-380.767 -224.749)" fill="#12263f"/>
        <g id="Grupo_87429" data-name="Grupo 87429" transform="translate(0 1.541)">
          <path id="Trazado_139050" data-name="Trazado 139050" d="M396.066,235.112a1.422,1.422,0,0,1-1.862.776h0a1.438,1.438,0,0,1-.786-1.866l5.194-7.914a1.435,1.435,0,0,1,1.866-.782h0a1.444,1.444,0,0,1,.786,1.872Z" transform="translate(-376.854 -225.22)" fill="#12263f"/>
          <path id="Trazado_139051" data-name="Trazado 139051" d="M393.582,235.112a1.426,1.426,0,0,0,1.862.776h0a1.438,1.438,0,0,0,.792-1.866l-5.194-7.914a1.439,1.439,0,0,0-1.869-.782h0a1.448,1.448,0,0,0-.782,1.872Z" transform="translate(-388.286 -225.22)" fill="#12263f"/>
        </g>
      </g>
    </g>
    <g id="Grupo_87511" data-name="Grupo 87511" transform="translate(1078.626 6353.737)">
      <path id="Trazado_139159" data-name="Trazado 139159" d="M481.366,258.583a65.347,65.347,0,1,0-65.6,65.093A65.349,65.349,0,0,0,481.366,258.583Z" transform="translate(-338.438 -192.92)" fill="#b0c0d2"/>
      <path id="Trazado_139160" data-name="Trazado 139160" d="M477.625,258.562a65.345,65.345,0,1,0-65.6,65.086A65.336,65.336,0,0,0,477.625,258.562Z" transform="translate(-346.935 -192.952)" fill="#e8e8e8"/>
      <path id="Trazado_139161" data-name="Trazado 139161" d="M373.538,394.031l17.232.07-5.316-149.912,12.962-16.081-.118-.128-13.1,12.249L383.1,208.848l-.994-.008-4.865,65.249L359.784,252l-.214.149L376.7,281.536Z" transform="translate(-318.215 -156.836)" fill="#12263f"/>
    </g>
    <g id="Grupo_14253" data-name="Grupo 14253" transform="translate(474 5081.552)">
      <g id="Grupo_14252" data-name="Grupo 14252" transform="translate(510 1132.093)">
        <g id="Grupo_14251" data-name="Grupo 14251" transform="translate(0 0)">
          <path id="Trazado_23834" data-name="Trazado 23834" d="M210.992,263.874l1.22,14.645L205.5,343.814l11.594,57.972S205.5,414.6,207.941,417.651s16.476-14.646,16.476-14.646l-1.831-57.361,19.527-53.7,26.85,52.48,25.63,56.751s3.661,12.815,9.764,13.425-4.882-15.866-4.882-15.866l-14.645-59.8-23.8-85.432S230.519,266.315,210.992,263.874Z" transform="translate(-171.866 -33.891)" fill="#12263f"/>
          <path id="Trazado_23835" data-name="Trazado 23835" d="M260.039,253.5S229.527,266.315,210,263.874l.288,3.453c5.034,2.291,18.007,7.5,27.172,5.091,8.5-2.236,18.95-10.036,23.934-14.049Z" transform="translate(-170.874 -33.891)" fill="#1d1d1d"/>
          <path id="Trazado_23836" data-name="Trazado 23836" d="M226.938,266.463l1.349,4.432,7.9-1.349-.964-4.24Z" transform="translate(-167.14 -31.289)" fill="#bfbfc0"/>
          <path id="Trazado_23837" data-name="Trazado 23837" d="M244.427,266.155l-1.542-6.359,1.349-.964,2.505,6.745" transform="translate(-163.624 -32.716)" fill="#393762"/>
          <path id="Trazado_23838" data-name="Trazado 23838" d="M214.6,268.211l-.771-5.588,2.12.385.771,6.167" transform="translate(-170.029 -31.88)" fill="#393762"/>
          <path id="Trazado_23839" data-name="Trazado 23839" d="M241.5,191.078l30.807,15.674a4.109,4.109,0,0,0,5.665-2.106L292.759,168.5l8.543,2.441-14.035,48.818a8.366,8.366,0,0,1-10.761,6.062l-31.345-7.282Z" transform="translate(-163.93 -52.63)" fill="#f6ba99"/>
          <path id="Trazado_23840" data-name="Trazado 23840" d="M273.122,202.984a4.054,4.054,0,0,1-.815-.311L241.5,187l3.661,27.46,24.682,5.735Z" transform="translate(-163.93 -48.552)" fill="#00bcd4"/>
          <path id="Trazado_23841" data-name="Trazado 23841" d="M216.189,190.051,193,203.476l20.748,75.058s14.645,7.323,26.85,4.882,23.189-15.256,23.189-15.256L252.192,187l-28.681,1.22Z" transform="translate(-174.622 -48.552)" fill="#00bcd4"/>
          <path id="Trazado_23842" data-name="Trazado 23842" d="M204.972,173.956s-5.31-5.719-6.127-1.634,4.9,7.352,6.943,7.761S204.972,173.956,204.972,173.956Z" transform="translate(-173.351 -52.112)" fill="#f6ba99"/>
          <path id="Trazado_23843" data-name="Trazado 23843" d="M223.765,173.024s1.085-7.728,4.091-4.845.186,8.835-1.257,10.339S223.765,173.024,223.765,173.024Z" transform="translate(-167.839 -52.843)" fill="#f6ba99"/>
          <path id="Trazado_23844" data-name="Trazado 23844" d="M208.466,183.538,211,197.532l4.15,3.149a8.576,8.576,0,0,0,12.58-2.5l2.059-3.512-3.323-14.038Z" transform="translate(-171.212 -49.955)" fill="#f2957e"/>
          <path id="Trazado_23845" data-name="Trazado 23845" d="M214.044,153.662s-5.84-1.217-10.5,6.115c-3.736,5.87.649,22.855,2.545,29.387a6.015,6.015,0,0,0,3.188,3.749l8.043,3.847a6.036,6.036,0,0,0,7.735-2.268l4.577-7.394a6.032,6.032,0,0,0,.8-4.306l-3.805-19.98a11.265,11.265,0,0,0-9.686-9.131A12.826,12.826,0,0,0,214.044,153.662Z" transform="translate(-172.62 -55.918)" fill="#f6ba99"/>
          <path id="Trazado_23846" data-name="Trazado 23846" d="M216.758,180.454c.24.992-.009,1.9-.554,2.034s-1.183-.565-1.422-1.557.009-1.9.554-2.036S216.519,179.462,216.758,180.454Z" transform="translate(-169.84 -50.342)" fill="#393762"/>
          <path id="Trazado_23847" data-name="Trazado 23847" d="M205.256,178.634a2.041,2.041,0,0,0,1.634-2.451c-.409-2.043-2.043-5.31-1.225-9.4s5.718-6.536,5.718-6.536.816,1.634,6.127,3.676a26.585,26.585,0,0,0,8.579,2.043s0,5.309,1.225,6.943,3.267,4.494,3.676,1.634-1.634-11.846-1.634-11.846,2.86,0,1.225-5.31-11.846-7.761-19.2-7.761-15.931,11.437-13.479,15.931a36.559,36.559,0,0,1,3.267,7.761S204.031,179.45,205.256,178.634Z" transform="translate(-173.635 -56.79)" fill="#00223d"/>
          <g id="Grupo_14250" data-name="Grupo 14250" transform="translate(47.2)">
            <path id="Trazado_23849" data-name="Trazado 23849" d="M238.477,199.206l1.9-7.407c9.776-38.132,58.481-27.4,65.442-54.558,3.024-11.8-4.61-21.939-18.873-25.6-15.638-4.009-27.692,1.964-30.787,14.034l-.773,3.017c-.774,3.018-2.773,3.968-5.79,3.194l-29.072-8.623c-2.742-.7-4.311-2.567-3.818-4.486l.774-3.018c8.509-33.193,40.679-49.211,79.359-39.3,37.859,9.705,56.788,37.362,48.561,69.456-11.674,45.539-60.848,33.225-67.247,58.189l-1.267,4.938c-.774,3.018-2.842,4.24-5.859,3.466l-29.079-7.455C238.93,204.29,237.7,202.223,238.477,199.206Zm-13.79,43.532c3.094-12.069,16.325-19.2,29.218-15.9,12.346,3.165,20.787,15.855,17.693,27.924S255,273.9,242.38,270.662C229.486,267.357,221.593,254.81,224.687,242.738Z" transform="translate(-216.615 -73.56)" fill="#ff9d00"/>
          </g>
          <path id="Trazado_23850" data-name="Trazado 23850" d="M292.043,175.571,302.417,165.2l2.441-17.7s-1.22,0-4.882,2.441-7.323,11.594-7.323,11.594-5.492,4.882-7.323,6.713a7.737,7.737,0,0,0-1.831,4.882Z" transform="translate(-154.67 -57.26)" fill="#f6ba99"/>
          <path id="Trazado_23851" data-name="Trazado 23851" d="M222,227.772l17.086-4.272,10.374,1.831-1.22,3.051H239.7l7.933,5.492,9.153,2.441-3.051,3.051-15.256,1.22-13.425-6.712Z" transform="translate(-168.229 -40.505)" fill="#f6ba99"/>
          <path id="Trazado_23852" data-name="Trazado 23852" d="M196.32,200.5l-18.033,44.31a4.558,4.558,0,0,0,5.263,6.155l51.8-11.869-3.637-6.254-30.511.61,2.441-7.323Z" transform="translate(-177.941 -45.576)" fill="#f6ba99"/>
          <path id="Trazado_23853" data-name="Trazado 23853" d="M199.974,233.452l2.441-7.323-7.323-25.63-11.585,28.464C194.193,227.7,199.974,233.452,199.974,233.452Z" transform="translate(-176.714 -45.576)" fill="#00bcd4"/>
          <ellipse id="Elipse_922" data-name="Elipse 922" cx="0.887" cy="1.613" rx="0.887" ry="1.613" transform="translate(37.631 119.324) rotate(-9.785)" fill="#393762"/>
          <path id="Trazado_23854" data-name="Trazado 23854" d="M218.29,171.325c.151.878-.117,1.657-.6,1.74s-1-.561-1.148-1.439.117-1.657.6-1.74S218.138,170.448,218.29,171.325Z" transform="translate(-169.441 -52.326)" fill="#393762"/>
          <path id="Trazado_23855" data-name="Trazado 23855" d="M207.4,168.521s.483-1.775,3.387-1.775" transform="translate(-171.446 -53.017)" fill="none" stroke="#393762" stroke-linecap="round" stroke-miterlimit="10" stroke-width="1"/>
          <path id="Trazado_23856" data-name="Trazado 23856" d="M215.259,168.719s1.322-2.741,3.582-1.88" transform="translate(-169.715 -53.033)" fill="none" stroke="#393762" stroke-linecap="round" stroke-miterlimit="10" stroke-width="1"/>
          <path id="Trazado_23857" data-name="Trazado 23857" d="M214.2,169.337l1.774,7.9-2.1.484" transform="translate(-170.019 -52.446)" fill="none" stroke="#393762" stroke-linecap="round" stroke-miterlimit="10" stroke-width="0.5"/>
          <path id="Trazado_23858" data-name="Trazado 23858" d="M224.037,376.22c-6.1,1.22-7.323-1.22-7.323-1.22s-11.594,12.815-9.153,15.866S224.037,376.22,224.037,376.22Z" transform="translate(-171.486 -7.106)" fill="#00bcd4"/>
          <path id="Trazado_23859" data-name="Trazado 23859" d="M278.684,375.663c.878,2.707,4.312,12.18,9.539,12.7,6.1.61-4.882-15.866-4.882-15.866S282.245,374.665,278.684,375.663Z" transform="translate(-155.732 -7.657)" fill="#00bcd4"/>
        </g>
      </g>
    </g>
  </g>
</svg>
