<svg xmlns="http://www.w3.org/2000/svg" width="342.197" height="232.798" viewBox="0 0 342.197 232.798">
  <g id="Grupo_87859" data-name="Grupo 87859" transform="translate(-229.585 -6981.671)">
    <path id="Trazado_139637" data-name="Trazado 139637" d="M391.8,133.922c-.508-1.086-1.045-2.166-1.64-3.235-.786-1.413-1.652-2.808-2.588-4.189-1.007-1.489-2.105-2.957-3.28-4.407a82.567,82.567,0,0,0-11.836-11.773c-1.026-.843-2.089-1.673-3.175-2.5a135.805,135.805,0,0,0-21.132-12.97q-2.038-1.023-4.146-2.012c-23.971-11.236-54.708-19.1-88.984-22.04q-3.591-.307-7.23-.544c-7.471-.482-15.08-.755-22.825-.755-3.287,0-6.546.056-9.786.144s-6.429.227-9.608.4c-9.8.536-19.335,1.474-28.559,2.774q-6.515.919-12.81,2.072c-30.139,5.54-56.2,15.072-75.411,27.272-1.223.776-2.4,1.568-3.569,2.366a92.687,92.687,0,0,0-18.892,16.711,64.375,64.375,0,0,0-4.633,6.2c-5.081,7.831-7.83,16.161-7.83,24.8A41.426,41.426,0,0,0,55.43,163.3q.484,1.752,1.122,3.482a58.3,58.3,0,0,0,12.6,19.633c.859.914,1.743,1.822,2.668,2.718a116.273,116.273,0,0,0,25.886,18.4c1.317.708,2.678,1.4,4.045,2.083,20.107,10.1,45.448,17.728,73.936,21.866,2.176.316,4.357.626,6.569.9q4.282.532,8.654.954c6.635.649,13.422,1.09,20.312,1.356,4.54.174,9.114.29,13.747.29a345.751,345.751,0,0,0,44.643-2.864c1.75-.227,3.494-.463,5.221-.716q10.87-1.6,21.077-3.872,2.871-.632,5.686-1.313a219.539,219.539,0,0,0,47.029-16.824c1.364-.69,2.715-1.384,4.03-2.1a124.893,124.893,0,0,0,20.059-13.343q2.809-2.323,5.311-4.737c11.521-11.13,18.042-23.681,18.042-36.975A42.969,42.969,0,0,0,391.8,133.922Z" transform="translate(175.721 6967.683)" fill="#d2e1f1"/>
    <path id="Trazado_139638" data-name="Trazado 139638" d="M391.8,127.422c-.508-1.086-1.045-2.166-1.64-3.235-.786-1.413-1.652-2.808-2.588-4.189-1.007-1.489-2.105-2.957-3.28-4.407a82.567,82.567,0,0,0-11.836-11.773c-1.026-.843-2.089-1.673-3.175-2.5a135.8,135.8,0,0,0-21.132-12.97q-2.038-1.023-4.146-2.012c-23.971-11.236-54.708-19.1-88.984-22.04q-3.591-.307-7.23-.544c-7.471-.482-15.08-.755-22.825-.755-3.287,0-6.546.056-9.786.144s-6.429.227-9.608.4c-9.8.536-19.335,1.474-28.559,2.774q-6.515.919-12.81,2.072C134.06,73.929,108,83.462,88.788,95.662c-1.223.776-2.4,1.568-3.569,2.366a92.688,92.688,0,0,0-18.892,16.711,64.375,64.375,0,0,0-4.633,6.2c-5.081,7.831-7.83,16.161-7.83,24.8A41.425,41.425,0,0,0,55.43,156.8q.484,1.752,1.122,3.482a58.3,58.3,0,0,0,12.6,19.633c.859.914,1.743,1.822,2.668,2.718a116.273,116.273,0,0,0,25.886,18.4c1.317.708,2.678,1.4,4.045,2.083,20.107,10.1,45.448,17.728,73.936,21.866,2.176.316,4.357.626,6.569.9q4.282.532,8.654.954c6.635.649,13.422,1.09,20.312,1.356,4.54.174,9.114.29,13.747.29a345.752,345.752,0,0,0,44.643-2.864c1.75-.227,3.494-.463,5.221-.716q10.87-1.6,21.077-3.872,2.871-.632,5.686-1.313a219.539,219.539,0,0,0,47.029-16.824c1.364-.69,2.715-1.384,4.03-2.1a124.893,124.893,0,0,0,20.059-13.343q2.809-2.323,5.311-4.737c11.521-11.13,18.042-23.681,18.042-36.975A42.969,42.969,0,0,0,391.8,127.422Z" transform="translate(175.721 6965.544)" fill="#cdedfc"/>
    <path id="Trazado_139639" data-name="Trazado 139639" d="M240.513,71.1l14.118-6.833q-3.591-.307-7.23-.544L235.437,69.5l-20.648-6.389q-4.843.134-9.608.4l26.006,8.073-20.661,9.991-34.06-15.215.157-.076q-6.515.919-12.81,2.072L123.985,87.225a3.206,3.206,0,0,0-1.122.343,1.683,1.683,0,0,0-.649.485l-25.62,12.132L88.4,95.627c-1.223.776-2.4,1.568-3.569,2.366l7.512,4.191L65.94,114.7a64.375,64.375,0,0,0-4.633,6.2l63.919-30.282,34.355,15.587L55.042,156.763q.484,1.752,1.122,3.482l12.745-6.163,26.919,13.359L68.76,179.878c.859.914,1.742,1.822,2.668,2.718l60.351-27.715,31.345,15.472L97.314,201c1.317.708,2.678,1.4,4.045,2.083l109.935-51.2,22.9,10.448-79.4,32.515a1.507,1.507,0,0,0-1.062,1.057c0,.4.3.771.885,1.057l39.846,18.926h.118l-19.294,9.061c2.176.316,4.357.626,6.569.9l1.39-.655,7.264,1.61c6.635.649,13.422,1.09,20.312,1.356l-23.03-5.107,32.527-15.272,48.893,17.8c1.75-.227,3.494-.463,5.221-.716l14.126-7.068,6.951,3.2q2.871-.632,5.686-1.313l-8.564-3.938,38.488-19.3,17.1,6.412c1.364-.69,2.715-1.384,4.03-2.1l-19.6-7.37a5.544,5.544,0,0,0-3.956.142L270.8,222.595l-46.222-16.843,141.971-66.685,5.774,48.351q2.809-2.323,5.311-4.737l-5.477-46.041c0-.085-.06-.114-.06-.171l19.318-9.082c-.508-1.086-1.045-2.166-1.64-3.235l-43.178,20.31-36.187-13.246,46.4-20.668,30.379,9.414c-1.007-1.489-2.105-2.957-3.28-4.407l-22.553-7,10.717-4.769c-1.026-.843-2.089-1.673-3.175-2.5l-12.736,5.666L327.113,97.93l20.648-9.615q-2.038-1.023-4.146-2.012L322.037,96.36Zm77.155,27.291-42.621,19.84-20.07-7.337,21.073-9.535c.65-.284.945-.685.945-1.085s-.413-.8-1.062-1.055l-18.6-7.451,17.414-6.68Zm-81.4-25.236L269.5,83.457l-18.714,7.165c-.649.286-1.062.685-1.062,1.112-.058.428.354.828,1.062,1.114l18.773,7.536-21.133,9.592c-.65.284-1,.685-.945,1.112s.473.8,1.182,1.057l22.077,8.108L235.379,136.7l-67.355-30.574ZM129.475,88.623l42.8-20.268,34.062,15.216-42.621,20.611Zm-29.338,76.848-27.1-13.416,61.511-29.717,28.336,14.329Zm67.237,2.912-31.286-15.472,33-15.157a1.421,1.421,0,0,0,.945-1,1.229,1.229,0,0,0-.827-1.027l-30.52-15.415,25.207-12.162,67.237,30.545Zm129.4-.513L258.4,151.627l20.13-10.048,36.894,17.527Zm45.513-21.382-22.61,10.62-39.138-18.556a5.506,5.506,0,0,0-4.191.028l-24.322,12.134c-.59.284-.885.657-.885,1.055a1.519,1.519,0,0,0,1,1l40.378,17.1-93.742,44.047c-.058-.028-.118-.056-.118-.085l-37.544-17.813,79.4-32.515c.65-.258,1.063-.657,1.063-1.057s-.3-.8-.945-1.085l-25.087-11.448L275.46,122Zm9.385-37.54-46.044,20.5L279.771,120l42.975-20.01Z" transform="translate(176.107 6965.579)" fill="#fff" opacity="0.7"/>
    <g id="Grupo_87857" data-name="Grupo 87857" transform="translate(306.545 7069.335)">
      <path id="Trazado_139166" data-name="Trazado 139166" d="M148.2,162.455a3.076,3.076,0,0,1-1.4-.331l-33.878-17.578a1.959,1.959,0,0,1-1.156-1.719,1.981,1.981,0,0,1,1.2-1.7L144.218,126.6,114.8,111.478a1.93,1.93,0,0,1-1.085-1.729,2.006,2.006,0,0,1,1.236-1.665l29.492-14.1a2.966,2.966,0,0,1,3.513.688,1.809,1.809,0,0,1-.869,2.785l-26.133,12.5,29.363,15.095a1.931,1.931,0,0,1,1.085,1.715,1.991,1.991,0,0,1-1.2,1.664L119.077,142.89l29.2,15.151,107.336-49.779a3.15,3.15,0,0,1,2.382-.085l69.647,25.987,12.947-6.546a2.983,2.983,0,0,1,3.536.619,1.8,1.8,0,0,1-.782,2.8l-14.137,7.147a3.148,3.148,0,0,1-2.467.125L257.036,112.3,149.5,162.177A3.072,3.072,0,0,1,148.2,162.455Z" transform="translate(-111.767 -93.69)" fill="#12263f"/>
    </g>
    <g id="Grupo_87858" data-name="Grupo 87858" transform="translate(307.608 6981.671)">
      <g id="Grupo_87583" data-name="Grupo 87583">
        <path id="Trazado_139356" data-name="Trazado 139356" d="M144.967,27.734a32.524,32.524,0,0,0-32.4,32.669c0,17.974,32.4,56.9,32.4,56.9s32.4-38.922,32.4-56.9A32.524,32.524,0,0,0,144.967,27.734Zm0,50.885a18.217,18.217,0,1,1,18.1-18.216A18.173,18.173,0,0,1,144.967,78.619Z" transform="translate(-112.567 -27.734)" fill="#00bcd4"/>
      </g>
      <ellipse id="Elipse_4189" data-name="Elipse 4189" cx="20.656" cy="20.788" rx="20.656" ry="20.788" transform="translate(11.71 12.039)" fill="#fff"/>
      <g id="Grupo_87585" data-name="Grupo 87585" transform="translate(14.086 14.431)">
        <ellipse id="Elipse_4190" data-name="Elipse 4190" cx="18.28" cy="18.396" rx="18.28" ry="18.396" fill="#12263f"/>
        <g id="Grupo_87584" data-name="Grupo 87584" transform="translate(7.286 7.332)">
          <rect id="Rectángulo_32794" data-name="Rectángulo 32794" width="5.608" height="22.128" transform="translate(8.19)" fill="#fff"/>
          <rect id="Rectángulo_32795" data-name="Rectángulo 32795" width="5.644" height="21.988" transform="translate(21.988 8.242) rotate(90)" fill="#fff"/>
        </g>
      </g>
    </g>
    <g id="Grupo_87860" data-name="Grupo 87860" transform="translate(390.684 7043.048)">
      <g id="Grupo_87235" data-name="Grupo 87235" transform="translate(10.992 108.341)">
        <path id="Trazado_138752" data-name="Trazado 138752" d="M370.4,437.991c-6.6,9.206-16.841,13.158-22.87,8.833s-5.57-15.3,1.039-24.511c6.6-9.193,16.845-13.144,22.875-8.819S377.006,428.785,370.4,437.991Z" transform="translate(-343.295 -411.74)" fill="#12263f"/>
        <path id="Trazado_138753" data-name="Trazado 138753" d="M367.982,431.57c-2.033,11.125,2.229,21.257,9.535,22.583s14.862-6.622,16.9-17.757c2.037-11.157-2.238-21.271-9.53-22.592C377.585,412.459,370.014,420.408,367.982,431.57Z" transform="translate(-257.274 -404.927)" fill="#12263f"/>
      </g>
      <g id="Grupo_87238" data-name="Grupo 87238" transform="translate(25.624)">
        <g id="Grupo_87237" data-name="Grupo 87237">
          <path id="Trazado_138754" data-name="Trazado 138754" d="M474.64,466.98c-.948-23.955-2.283-43.416-3.095-67.362A389.538,389.538,0,0,0,363.6,388.224c-5.8,23.262-11.171,42-17.091,65.234Z" transform="translate(-346.506 -387.969)" fill="#afafaf"/>
          <g id="Grupo_87236" data-name="Grupo 87236" transform="translate(4.275 3.403)">
            <path id="Trazado_138755" data-name="Trazado 138755" d="M467.739,460.523l-120.3-12.7c2.343-9.056,4.612-17.547,6.809-25.773,2.821-10.519,5.729-21.38,8.7-33.157,10.7-.328,21.448-.2,32.118.419,5.952.328,11.887.8,17.77,1.422,6.513.688,13.5,1.6,20.555,2.707,10.761,1.682,21.7,3.81,31.489,6.2.447,12.169,1.021,23.431,1.582,34.319C466.891,442.461,467.343,451.2,467.739,460.523Z" transform="translate(-347.444 -388.716)" fill="#b0c0d2"/>
          </g>
          <path id="Trazado_138756" data-name="Trazado 138756" d="M364.858,406.756l20.058,13.477L360.742,435.41l21.066,7.7s-2.844,5.793-4.585,9.872l43.207,4.567c-.4-9.32-.848-18.062-1.276-26.562-.561-10.888-1.135-22.15-1.582-34.319-9.785-2.393-20.728-4.521-31.489-6.2-2.051-.319-4.1-.624-6.126-.916a21.831,21.831,0,0,1-.615,11.741Z" transform="translate(-295.859 -382.341)" fill="#12263f"/>
        </g>
      </g>
      <g id="Grupo_87240" data-name="Grupo 87240" transform="translate(1.765 61.902)">
        <g id="Grupo_87239" data-name="Grupo 87239">
          <path id="Trazado_138757" data-name="Trazado 138757" d="M505.425,476.37s4.594-23.823,5.173-34.574a12.652,12.652,0,0,0-1.937-6.641c-3.924-5.779-7.953-11.476-12.037-17.146a9.417,9.417,0,0,0-5.734-3.436c-20.213-2.142-43.3-4.594-63.516-6.745q-29.465-3.111-58.921-6.249a9.346,9.346,0,0,0-6.326,2.16q-7.773,7.035-15.368,14.234a12.572,12.572,0,0,0-3.286,6.08c-.337,2.1-.492,3.163-.761,5.264v.009c-1.076,9.968-1.44,29.711-1.44,29.711Z" transform="translate(-341.271 -401.551)" fill="#afafaf"/>
          <path id="Trazado_138758" data-name="Trazado 138758" d="M500.24,434.225c-3.614-5.3-7.47-10.793-11.772-16.754a6.773,6.773,0,0,0-3.792-2.306c-12.023-1.276-25.058-2.662-37.9-4.015l-25.609-2.735-58.917-6.249a6.8,6.8,0,0,0-4.207,1.468c-5.506,4.968-10.446,9.544-15.1,13.987Z" transform="translate(-335.347 -399.409)" fill="#e8e8e8"/>
        </g>
      </g>
      <path id="Trazado_138759" data-name="Trazado 138759" d="M501.613,466.122,341.088,427.114l-.2-17.234L509.7,450.909Z" transform="translate(-340.884 -310.014)" fill="#b0c0d2"/>
      <g id="Grupo_87241" data-name="Grupo 87241" transform="translate(7.317 84.349)">
        <path id="Trazado_138760" data-name="Trazado 138760" d="M370.769,419.073c-1.258,3.847-3.409,5.8-7.538,5.36l-13.441-1.427a8.147,8.147,0,0,1-7.256-8.951l.036-.3a8.153,8.153,0,0,1,8.965-7.238S372.082,415.067,370.769,419.073Z" transform="translate(-342.489 -406.476)" fill="#ff9d00"/>
        <path id="Trazado_138761" data-name="Trazado 138761" d="M371.012,418.354c.433,4.029,2.124,6.372,6.253,6.809l13.445,1.413a8.137,8.137,0,0,0,8.956-7.237l.036-.283a8.172,8.172,0,0,0-7.256-8.974S370.557,414.166,371.012,418.354Z" transform="translate(-241.037 -393.647)" fill="#fafbfd"/>
        <path id="Trazado_138762" data-name="Trazado 138762" d="M372.327,418.432c1.317.711,2.516.187,3.8.5,1.308.716-.647,2.138-.574,2.958-.013,3.523,4.038,2.739,6.276,4.261l4.184.428a8.137,8.137,0,0,0,8.956-7.237l.036-.283a8.172,8.172,0,0,0-7.256-8.974s-6.431,1.212-12.251,2.972A7.016,7.016,0,0,1,372.327,418.432Z" transform="translate(-236.336 -393.647)" fill="#12263f"/>
        <path id="Trazado_138763" data-name="Trazado 138763" d="M371.012,416.035c.433,4.029,2.124,6.372,6.253,6.809l9.261.984c-2.238-1.522-6.29-.738-6.276-4.261-.073-.82,1.882-2.242.574-2.958-1.281-.31-2.479.214-3.8-.5a7.015,7.015,0,0,0,3.168-5.378C375.278,412.22,370.807,414.12,371.012,416.035Z" transform="translate(-241.037 -391.328)" fill="#fafbfd"/>
      </g>
      <rect id="Rectángulo_32693" data-name="Rectángulo 32693" width="10.625" height="49.721" transform="matrix(0.105, -0.994, 0.994, 0.105, 60.761, 109.472)" fill="#12263f"/>
      <g id="Grupo_87242" data-name="Grupo 87242" transform="translate(39.58 29.833)">
        <path id="Trazado_138764" data-name="Trazado 138764" d="M387.907,421.8l-1.039,9.872-37.3-3.942,1.039-9.863a11.826,11.826,0,0,1,7.069-9.608l.337-3.186A11.815,11.815,0,0,1,371,394.579l1.832.187a11.83,11.83,0,0,1,10.505,13L383,410.951A11.752,11.752,0,0,1,387.907,421.8Z" transform="translate(-349.568 -394.515)" fill="#d2e1f1"/>
      </g>
    </g>
    <g id="Grupo_87153" data-name="Grupo 87153" transform="translate(257.138 7043.048)">
      <path id="Trazado_138602" data-name="Trazado 138602" d="M216.593,349.6l-4.2.034-.008-5.821,4.2-.03Z" transform="translate(-172.299 -182.892)" fill="#cf9b72"/>
      <rect id="Rectángulo_32676" data-name="Rectángulo 32676" width="4.946" height="5.128" transform="translate(39.722 163.446) rotate(-0.198)" fill="#f7f7f7"/>
      <g id="Grupo_87135" data-name="Grupo 87135" transform="translate(38.749 164.394)">
        <path id="Trazado_138603" data-name="Trazado 138603" d="M214.867,344.588a1.818,1.818,0,0,0-1.819,1.819v1.675a1.821,1.821,0,0,0,1.819,1.819h0a1.82,1.82,0,0,0,1.819-1.819v-1.675a1.818,1.818,0,0,0-1.819-1.819Z" transform="translate(-208.824 -344.588)" fill="#afafaf"/>
        <path id="Trazado_138604" data-name="Trazado 138604" d="M212.084,346.208a.925.925,0,0,0,.923.918h13.9v-1.207H212.084Z" transform="translate(-212.075 -340.099)" fill="#12263f"/>
        <path id="Trazado_138605" data-name="Trazado 138605" d="M226.914,349.164c0-1.863-1.509-2.772-3.376-2.772H221.75c-1.014,0-1.836-.494-1.836-1.12v-.315h-3.607v.114a1.729,1.729,0,1,1-3.459,0v-.1a.931.931,0,0,0-.765.9v3.293Z" transform="translate(-212.082 -343.344)" fill="#afafaf"/>
      </g>
      <path id="Trazado_138606" data-name="Trazado 138606" d="M213.572,349.614l-4.206.034v-5.816l4.206-.038Z" transform="translate(-182.493 -182.872)" fill="#cf9b72"/>
      <rect id="Rectángulo_32677" data-name="Rectángulo 32677" width="4.945" height="5.128" transform="translate(26.508 163.446) rotate(-0.198)" fill="#f7f7f7"/>
      <g id="Grupo_87136" data-name="Grupo 87136" transform="translate(25.535 164.394)">
        <path id="Trazado_138607" data-name="Trazado 138607" d="M211.852,344.588a1.825,1.825,0,0,0-1.828,1.819v1.675a1.828,1.828,0,0,0,1.828,1.819h0a1.82,1.82,0,0,0,1.819-1.819v-1.675a1.818,1.818,0,0,0-1.819-1.819Z" transform="translate(-205.809 -344.588)" fill="#afafaf"/>
        <path id="Trazado_138608" data-name="Trazado 138608" d="M209.06,346.208a.93.93,0,0,0,.923.918h13.905v-1.207H209.06Z" transform="translate(-209.06 -340.099)" fill="#12263f"/>
        <path id="Trazado_138609" data-name="Trazado 138609" d="M223.888,349.164c0-1.863-1.5-2.772-3.363-2.772h-1.8c-1.014,0-1.836-.494-1.836-1.12v-.315h-3.616v.114a1.725,1.725,0,1,1-3.45,0v-.1a.927.927,0,0,0-.765.9v3.293Z" transform="translate(-209.06 -343.344)" fill="#afafaf"/>
      </g>
      <g id="Grupo_87139" data-name="Grupo 87139" transform="translate(22.661 84.392)">
        <rect id="Rectángulo_32678" data-name="Rectángulo 32678" width="14.271" height="7.989" transform="translate(5.692)" fill="#1c1d23"/>
        <rect id="Rectángulo_32679" data-name="Rectángulo 32679" width="14.271" height="7.989" transform="translate(5.692)" fill="#1c1d23" opacity="0.5" style="mix-blend-mode: multiply;isolation: isolate"/>
        <g id="Grupo_87137" data-name="Grupo 87137" transform="translate(0 2.007)">
          <path id="Trazado_138610" data-name="Trazado 138610" d="M220.637,326.751v75.821h-9.924l-2.063-67.627-.248-8.194Z" transform="translate(-208.403 -326.751)" fill="#12263f"/>
        </g>
        <g id="Grupo_87138" data-name="Grupo 87138" transform="translate(14.461 2.007)">
          <path id="Trazado_138611" data-name="Trazado 138611" d="M223.944,326.751l-.1,3.04-.256,8.651-1.962,64.129H211.71V326.751Z" transform="translate(-211.71 -326.751)" fill="#12263f"/>
        </g>
        <path id="Trazado_138612" data-name="Trazado 138612" d="M220.638,327.521V336.7l-11.854-1.736a.44.44,0,0,1-.136-.022l-.245-8.194H216.5C217.874,327.009,219.256,327.263,220.638,327.521Z" transform="translate(-208.402 -324.744)" fill="#1c1d23" opacity="0.5" style="mix-blend-mode: multiply;isolation: isolate"/>
        <path id="Trazado_138613" data-name="Trazado 138613" d="M223.844,328.88l-.258,8.653a1.9,1.9,0,0,1-1.106.162l-10.77-1.574v-9.1c1.9.35,3.791.678,5.7.966C219.546,328.315,221.7,328.6,223.844,328.88Z" transform="translate(-197.249 -323.833)" fill="#1c1d23" opacity="0.5" style="mix-blend-mode: multiply;isolation: isolate"/>
      </g>
      <g id="Grupo_87152" data-name="Grupo 87152">
        <path id="Trazado_138614" data-name="Trazado 138614" d="M243.389,320.852,235.907,372a2,2,0,0,1-2.226,1.762l-23.757-3.481a2,2,0,0,1-1.618-2.322l7.473-51.147a2,2,0,0,1,2.226-1.758l3.655-.118,9.218-.289,10.98,3.822a2.38,2.38,0,0,1,1.522,1.666A2.176,2.176,0,0,1,243.389,320.852Z" transform="translate(-186.152 -281.175)" fill="#afafaf"/>
        <path id="Trazado_138615" data-name="Trazado 138615" d="M208.8,326.065l-.49,3.384a2,2,0,0,0,1.618,2.322l23.757,3.481a2,2,0,0,0,2.226-1.762l.5-3.389Z" transform="translate(-186.152 -242.666)" fill="#f6f6f6"/>
        <path id="Trazado_138616" data-name="Trazado 138616" d="M219.436,327.878a3.5,3.5,0,0,1-3.97,2.96h0a3.5,3.5,0,0,1-2.96-3.975l1.67-11.4a3.5,3.5,0,0,1,3.975-2.956h0a3.5,3.5,0,0,1,2.956,3.975Z" transform="translate(-172.034 -288.52)" fill="#d69b6b"/>
        <path id="Trazado_138617" data-name="Trazado 138617" d="M228.046,321.055c.853-5.855-2.134-11.99-6.83-12.681s-9.318,4.338-10.18,10.193,2.261,11.155,6.953,11.841S227.194,326.91,228.046,321.055Z" transform="translate(-177.329 -302.542)" fill="#2a2626"/>
        <path id="Trazado_138618" data-name="Trazado 138618" d="M229.313,327.465a8.62,8.62,0,0,1-9.773,7.276h0a8.607,8.607,0,0,1-7.263-9.769l1.312-8.938a8.6,8.6,0,0,1,9.76-7.272h0a8.609,8.609,0,0,1,7.272,9.76Z" transform="translate(-172.986 -301.326)" fill="#edb485"/>
        <g id="Grupo_87142" data-name="Grupo 87142" transform="translate(46.696 19.406)">
          <g id="Grupo_87140" data-name="Grupo 87140" transform="translate(6.448 0.971)">
            <path id="Trazado_138619" data-name="Trazado 138619" d="M215.391,312.687a.963.963,0,1,0,1.106-1.028A1.085,1.085,0,0,0,215.391,312.687Z" transform="translate(-215.374 -311.652)" fill="#2a2626"/>
          </g>
          <g id="Grupo_87141" data-name="Grupo 87141">
            <path id="Trazado_138620" data-name="Trazado 138620" d="M213.915,312.47a1.089,1.089,0,0,0,.748,1.307,1.216,1.216,0,0,0,.35-2.339A1.091,1.091,0,0,0,213.915,312.47Z" transform="translate(-213.9 -311.43)" fill="#2a2626"/>
          </g>
        </g>
        <path id="Trazado_138621" data-name="Trazado 138621" d="M230.746,309.671a26.257,26.257,0,0,0-7.005-1.487c-8.378-.8-12.2,5.348-12.51,7.469l2.777-1.522c-.311,2.121,6.284,2.842,8.4,3.148l7.062,1.036Z" transform="translate(-176.203 -303.209)" fill="#2a2626"/>
        <path id="Trazado_138622" data-name="Trazado 138622" d="M213.56,317.521a1.574,1.574,0,0,1-1.338-1.793l.59-4.036a1.578,1.578,0,0,1,1.8-1.338h0a1.584,1.584,0,0,1,1.338,1.8l-.6,4.036a1.567,1.567,0,0,1-1.793,1.334Z" transform="translate(-172.922 -295.715)" fill="#2a2626"/>
        <path id="Trazado_138623" data-name="Trazado 138623" d="M216,316.317a2.5,2.5,0,0,1,2.864-1.9l6.577.962.673-4.6-12.668-1.85-1.224,8.391,3.607.114S215.851,317.253,216,316.317Z" transform="translate(-172.878 -300.48)" fill="#2a2626"/>
        <path id="Trazado_138624" data-name="Trazado 138624" d="M215.13,317.177c-1.014.376-2.309-.595-2.912-2.178-.577-1.587-.236-3.17.783-3.551s2.313.595,2.9,2.173S216.153,316.8,215.13,317.177Z" transform="translate(-173.819 -292.235)" fill="#edb485"/>
        <path id="Trazado_138625" data-name="Trazado 138625" d="M231.949,314.849a4.63,4.63,0,0,0-3.9-5.252l-9.734-1.421a4.619,4.619,0,0,0-5.243,3.914h0a4.618,4.618,0,0,0,3.9,5.243l9.725,1.425a4.627,4.627,0,0,0,5.243-3.909Z" transform="translate(-170.152 -303.162)" fill="#2a2626"/>
        <g id="Grupo_87146" data-name="Grupo 87146">
          <g id="Grupo_87144" data-name="Grupo 87144" transform="translate(5.931)">
            <rect id="Rectángulo_32680" data-name="Rectángulo 32680" width="5.127" height="2.966" transform="translate(0 9.365) rotate(-45.873)" fill="#edb485"/>
            <g id="Grupo_87143" data-name="Grupo 87143" transform="translate(2.122)">
              <path id="Trazado_138626" data-name="Trazado 138626" d="M206.4,310.476a.762.762,0,0,0-.184,1.049h0a.759.759,0,0,0,1.054.184l3.686-2.61a.757.757,0,0,0,.179-1.045h0a.756.756,0,0,0-1.054-.175Z" transform="translate(-201.624 -304.477)" fill="#edb485"/>
              <path id="Trazado_138627" data-name="Trazado 138627" d="M205.778,310.389a.747.747,0,0,0-.009,1.058h0a.752.752,0,0,0,1.063.009l3.21-3.183a.76.76,0,0,0,0-1.063h0a.762.762,0,0,0-1.067,0Z" transform="translate(-203.404 -306.992)" fill="#edb485"/>
              <path id="Trazado_138628" data-name="Trazado 138628" d="M205.891,307.282a.817.817,0,0,1,.9.726l.389,3.625a2.558,2.558,0,0,1-1.106.56c-.24.044-.713-.468-.713-.468l-.2-3.542A.828.828,0,0,1,205.891,307.282Z" transform="translate(-204.742 -306.032)" fill="#edb485"/>
              <path id="Trazado_138629" data-name="Trazado 138629" d="M206.195,310.372a.736.736,0,0,0-.074,1.054h0a.74.74,0,0,0,1.054.083l3.433-2.938a.756.756,0,0,0,.074-1.058h0a.745.745,0,0,0-1.058-.083Z" transform="translate(-202.125 -306.131)" fill="#edb485"/>
              <path id="Rectángulo_32681" data-name="Rectángulo 32681" d="M.341,0H4.765a.341.341,0,0,1,.341.341V4.763a.34.34,0,0,1-.34.34H.339A.339.339,0,0,1,0,4.764V.341A.341.341,0,0,1,.341,0Z" transform="translate(0 5.353) rotate(-40.514)" fill="#edb485"/>
            </g>
          </g>
          <g id="Grupo_87145" data-name="Grupo 87145" transform="translate(0 6.296)">
            <path id="Trazado_138630" data-name="Trazado 138630" d="M203.424,323.749a13.186,13.186,0,0,1-.118-3.822,16.462,16.462,0,0,1,3.69-8.273c.249-.315,3.266-3.223,3.266-3.223l4.049,4.451a20.09,20.09,0,0,0-2.628,2.466c-2.89,3.664-3.249,6.931-1.172,10.586,3.682,6.476,11.977,8.413,15.37,8.942.529.083,1.111.175,1.727.254,3.931.568,8.833,1.273,11.662,3.481a2.986,2.986,0,1,1-3.69,4.7c-1.561-1.22-5.925-1.854-8.828-2.265-.625-.088-1.22-.175-1.793-.267-8.986-1.4-16.135-5.737-19.633-11.894A15.483,15.483,0,0,1,203.424,323.749Z" transform="translate(-203.22 -308.432)" fill="#afafaf"/>
          </g>
        </g>
        <g id="Grupo_87150" data-name="Grupo 87150" transform="translate(53.094 0.075)">
          <g id="Grupo_87148" data-name="Grupo 87148" transform="translate(11.356)">
            <rect id="Rectángulo_32682" data-name="Rectángulo 32682" width="2.965" height="5.129" transform="translate(6.764 7.015) rotate(-56.86)" fill="#edb485"/>
            <g id="Grupo_87147" data-name="Grupo 87147">
              <path id="Trazado_138631" data-name="Trazado 138631" d="M223.161,309.66a.748.748,0,0,1,.415.979h0a.744.744,0,0,1-.984.407l-4.167-1.723a.749.749,0,0,1-.407-.984h0a.75.75,0,0,1,.979-.4Z" transform="translate(-217.96 -304.077)" fill="#edb485"/>
              <path id="Trazado_138632" data-name="Trazado 138632" d="M223.391,309.514a.742.742,0,0,1,.236,1.036h0a.752.752,0,0,1-1.036.24L218.77,308.4a.752.752,0,0,1-.236-1.036h0a.746.746,0,0,1,1.032-.236Z" transform="translate(-216.415 -307.009)" fill="#edb485"/>
              <path id="Trazado_138633" data-name="Trazado 138633" d="M220.282,307.047a.821.821,0,0,0-.722.914l.42,3.616a2.744,2.744,0,0,0,1.207.306c.232-.013.59-.612.59-.612l-.59-3.507A.818.818,0,0,0,220.282,307.047Z" transform="translate(-212.584 -306.904)" fill="#edb485"/>
              <path id="Trazado_138634" data-name="Trazado 138634" d="M223.144,309.547a.76.76,0,0,1,.315,1.019h0a.745.745,0,0,1-1.01.315l-3.992-2.108a.749.749,0,0,1-.315-1.019h0a.771.771,0,0,1,1.023-.319Z" transform="translate(-217.641 -305.845)" fill="#edb485"/>
              <path id="Trazado_138635" data-name="Trazado 138635" d="M223.776,308.641a1.487,1.487,0,0,1,.621,2.011l-.993,1.88a1.49,1.49,0,0,1-2.011.621l-1.88-.988a1.5,1.5,0,0,1-.612-2.02l.988-1.876a1.487,1.487,0,0,1,2.007-.625Z" transform="translate(-215.374 -305.441)" fill="#edb485"/>
            </g>
          </g>
          <g id="Grupo_87149" data-name="Grupo 87149" transform="translate(0 4.581)">
            <path id="Trazado_138636" data-name="Trazado 138636" d="M247.7,321.477a13.256,13.256,0,0,0-.739-3.734,16.516,16.516,0,0,0-5.426-7.272c-.319-.245-3.909-2.414-3.909-2.414l-2.956,5.243a19.384,19.384,0,0,1,3.1,1.819c3.634,2.938,4.705,6.039,3.481,10.07-2.151,7.128-9.8,10.849-13,12.121-.5.2-1.045.411-1.622.634-3.721,1.421-8.343,3.192-10.6,5.969a2.985,2.985,0,1,0,4.631,3.769c1.255-1.539,5.378-3.126,8.107-4.167.595-.227,1.159-.441,1.688-.656,8.457-3.363,14.474-9.169,16.52-15.947A16.056,16.056,0,0,0,247.7,321.477Z" transform="translate(-215.363 -308.057)" fill="#afafaf"/>
          </g>
        </g>
        <g id="Grupo_87151" data-name="Grupo 87151" transform="translate(50.03 22.879)">
          <path id="Trazado_138637" data-name="Trazado 138637" d="M216.665,314.772a1.016,1.016,0,0,1-1.15.853h0a1.007,1.007,0,0,1-.84-1.146l.2-1.386a1,1,0,0,1,1.15-.857h0a1,1,0,0,1,.835,1.146Z" transform="translate(-214.662 -312.224)" fill="#d69b6b"/>
        </g>
        <path id="Trazado_138638" data-name="Trazado 138638" d="M220.121,316.133a1.9,1.9,0,0,1-2.1,1.657l-2.6-.311a1.9,1.9,0,0,1-1.662-2.108l.061-.477a1.888,1.888,0,0,1,2.1-1.657l2.6.311a1.88,1.88,0,0,1,1.648,2.108Z" transform="translate(-167.708 -285.975)" fill="#170805"/>
      </g>
    </g>
  </g>
</svg>
