<svg xmlns="http://www.w3.org/2000/svg" xmlns:xlink="http://www.w3.org/1999/xlink" width="165.261" height="165.262" viewBox="0 0 165.261 165.262">
  <defs>
    <radialGradient id="radial-gradient" cx="0.076" cy="0.019" r="1.465" gradientTransform="translate(0.001)" gradientUnits="objectBoundingBox">
      <stop offset="0" stop-color="#f6f6f7"/>
      <stop offset="0.477" stop-color="#f9f9fa"/>
      <stop offset="0.715" stop-color="#fff"/>
    </radialGradient>
  </defs>
  <g id="Grupo_49869" data-name="Grupo 49869" transform="translate(0 0.001)">
    <g id="Grupo_18531" data-name="Grupo 18531" transform="translate(0 0)">
      <g id="Grupo_18423" data-name="Grupo 18423" transform="translate(0 0)">
        <g id="Grupo_18421" data-name="Grupo 18421">
          <g id="Grupo_18420" data-name="Grupo 18420">
            <g id="Grupo_18419" data-name="Grupo 18419">
              <path id="Trazado_40936" data-name="Trazado 40936" d="M359.883,2228.349a82.63,82.63,0,1,1-82.629-82.628A82.629,82.629,0,0,1,359.883,2228.349Z" transform="translate(-194.623 -2145.721)" fill="#fff"/>
            </g>
          </g>
        </g>
        <path id="Trazado_40937" data-name="Trazado 40937" d="M358.626,2226.979A82.628,82.628,0,1,0,276,2309.611,82.3,82.3,0,0,0,358.626,2226.979Z" transform="translate(-193.366 -2144.351)" fill="url(#radial-gradient)"/>
        <path id="Trazado_40938" data-name="Trazado 40938" d="M327.821,2215.769a63.071,63.071,0,1,0-63.071,63.071A62.837,62.837,0,0,0,327.821,2215.769Z" transform="translate(-181.869 -2132.866)" fill="none" stroke="#00223d" stroke-miterlimit="10" stroke-width="4"/>
        <g id="Grupo_18422" data-name="Grupo 18422" transform="translate(14.639 46.391)">
          <path id="Trazado_40939" data-name="Trazado 40939" d="M342.812,2164.488a82.64,82.64,0,0,1-142.267,82.288,82.378,82.378,0,0,0,142.267-82.288Z" transform="translate(-200.545 -2164.488)" fill="#eceef0"/>
        </g>
      </g>
    </g>
    <g id="cpKTLc.tif" transform="translate(6361.647 -3118.516)">
      <g id="Grupo_87887" data-name="Grupo 87887" transform="translate(-6320.749 3164.399)">
        <path id="Trazado_139698" data-name="Trazado 139698" d="M-6074.585,3197.344c-1.729.544-3.467,1.06-5.184,1.638-2.683.9-3.452,2.255-2.862,5.044.309,1.458.705,2.9,1.054,4.348.062.255.083.52.148.955-.718-.107-1.327-.162-1.919-.293-1.377-.3-2.733-.711-4.12-.956a3.4,3.4,0,0,0-4.192,2.464c-.468,1.328-.793,2.706-1.193,4.058-.153.515-.339,1.021-.549,1.65a9.593,9.593,0,0,1-2.675-2.313c-.061-.062.012-.312.086-.437a8.705,8.705,0,0,0,1.221-5.173,42.6,42.6,0,0,0,4.589-2.426c6.282-4.343,9.176-10.416,8.18-17.966-1.023-7.757-5.531-13.024-12.962-15.438a18.593,18.593,0,0,0-23.848,14.341,1.2,1.2,0,0,1-1.091,1.142,20.3,20.3,0,0,0-2.344.715c-.587-.934-1.122-1.909-1.777-2.8s-1.437-1.694-2.243-2.628c.537-.2,1.049-.427,1.58-.59,1.3-.4,2.619-.715,3.9-1.157a3.444,3.444,0,0,0,2.532-4.368c-.3-1.488-.709-2.953-1.056-4.431-.093-.392-.137-.795-.229-1.347a12.022,12.022,0,0,1,1.421.14c1.536.341,3.052.78,4.6,1.063a3.386,3.386,0,0,0,4.194-2.453c.452-1.276.762-2.6,1.157-3.9.188-.619.427-1.223.642-1.834h.164c1.345,1.249,2.662,2.527,4.04,3.738,2.021,1.776,3.678,1.771,5.69-.02,1.354-1.2,2.647-2.477,3.969-3.719h.163c.276.789.571,1.571.823,2.367.352,1.111.616,2.252,1.013,3.346a3.423,3.423,0,0,0,4.265,2.465c1.357-.246,2.688-.64,4.034-.953.565-.131,1.141-.222,1.9-.368-.137.812-.219,1.446-.353,2.068-.312,1.456-.731,2.9-.957,4.365a3.111,3.111,0,0,0,1.957,3.566,24.455,24.455,0,0,0,2.686.925c1.182.386,2.367.76,3.551,1.139v.163c-.461.526-.906,1.066-1.386,1.575-.612.651-1.276,1.257-1.876,1.92-2.357,2.606-2.373,4.089-.022,6.68,1.052,1.159,2.188,2.243,3.284,3.361Z" transform="translate(6158.047 -3164.399)" fill="#12263f"/>
        <path id="Trazado_139702" data-name="Trazado 139702" d="M-6284.766,3303.309c0-3.637.006-7.167,0-10.7a13.558,13.558,0,0,0-.124-1.785,5.786,5.786,0,0,0-5.664-4.791c-2.775.02-5.424,2.149-5.592,4.835-.207,3.3-.121,6.624-.157,9.937-.008.807,0,1.615,0,2.5h-.715c-5.9,0-11.794.009-17.692,0a5.735,5.735,0,0,1-5.832-4.284,5.774,5.774,0,0,1,4.412-7.107,5.752,5.752,0,0,1,6.789,4.779c.035.267.088.531.138.831h2.77a7.669,7.669,0,0,0-1.465-4.818,8.222,8.222,0,0,0-5.753-3.619.922.922,0,0,1-.861-.784c-2.694-9.556,5.587-19.225,15.43-18a14.374,14.374,0,0,1,12.854,13.759c.008.134.023.267.04.46h2.949c-.208-1.327-.386-2.626-.627-3.914-.085-.456-.012-.659.436-.859,6.716-3,15.013,1.723,15.8,9.022a1.716,1.716,0,0,1-.029.3,8.656,8.656,0,0,0-5.843,4.143,7.394,7.394,0,0,0-1.12,4.3h2.634a18.929,18.929,0,0,1,.914-2.693,5.612,5.612,0,0,1,6.415-2.828,5.766,5.766,0,0,1,4.348,5.7,5.754,5.754,0,0,1-4.787,5.5,7.479,7.479,0,0,1-1.216.1q-8.886.01-17.773,0Z" transform="translate(6320.75 -3252.91)" fill="#12263f"/>
        <path id="Trazado_139703" data-name="Trazado 139703" d="M-6042.73,3257.031a8.236,8.236,0,0,0-5.023-4.4,2.072,2.072,0,0,1-1.68-1.913,14.167,14.167,0,0,0-13.13-11.5c-.185-.016-.367-.058-.549-.088.609-5.181,5.62-12.155,14.234-12.884a15.848,15.848,0,0,1,16.768,12.848A15.757,15.757,0,0,1-6042.73,3257.031Z" transform="translate(6105.213 -3216.09)" fill="#12263f"/>
        <path id="Trazado_139704" data-name="Trazado 139704" d="M-6168.221,3402.177v-2.922h2.722a1.142,1.142,0,0,0,.088-.241c0-.813.268-1.82-.114-2.373-.278-.4-1.424-.2-2.183-.274l-.506-.045v-2.8h2.778v-2.87h-2.782a31.959,31.959,0,0,1,.024-3.4,2.777,2.777,0,0,1,2.961-2.351,2.835,2.835,0,0,1,2.692,2.574c.031.351.021.706.021,1.059q0,16.1-.011,32.195a1.544,1.544,0,0,0,.629,1.37,5.707,5.707,0,0,1-1.576,9.922,5.708,5.708,0,0,1-6.854-2.46,5.569,5.569,0,0,1,1.134-7.169,2.369,2.369,0,0,0,.959-2.206c-.074-1.183-.019-2.375-.019-3.634h2.8v-2.866h-2.734V3410.8h2.726v-2.894h-2.748v-2.9h2.759v-2.833Zm1.451,25.8h2.738v-2.754h-2.738Z" transform="translate(6195.6 -3348.857)" fill="#12263f"/>
      </g>
    </g>
  </g>
</svg>
