<svg xmlns="http://www.w3.org/2000/svg" xmlns:xlink="http://www.w3.org/1999/xlink" width="104.852" height="104.852" viewBox="0 0 104.852 104.852">
  <defs>
    <radialGradient id="radial-gradient" cx="0.076" cy="0.019" r="1.465" gradientTransform="translate(0.001)" gradientUnits="objectBoundingBox">
      <stop offset="0" stop-color="#f6f6f7"/>
      <stop offset="0.477" stop-color="#f9f9fa"/>
      <stop offset="0.715" stop-color="#fff"/>
    </radialGradient>
  </defs>
  <g id="Grupo_50460" data-name="Grupo 50460" transform="translate(-217 -997)">
    <g id="Grupo_18531" data-name="Grupo 18531" transform="translate(217 997)">
      <g id="Grupo_18423" data-name="Grupo 18423" transform="translate(0 0)">
        <g id="Grupo_18421" data-name="Grupo 18421">
          <g id="Grupo_18420" data-name="Grupo 18420">
            <g id="Grupo_18419" data-name="Grupo 18419">
              <path id="Trazado_40936" data-name="Trazado 40936" d="M299.475,2198.146a52.426,52.426,0,1,1-52.425-52.424A52.425,52.425,0,0,1,299.475,2198.146Z" transform="translate(-194.623 -2145.721)" fill="#fff"/>
            </g>
          </g>
        </g>
        <path id="Trazado_40937" data-name="Trazado 40937" d="M298.99,2197.617a52.425,52.425,0,1,0-52.425,52.427A52.219,52.219,0,0,0,298.99,2197.617Z" transform="translate(-194.138 -2145.192)" fill="url(#radial-gradient)"/>
        <path id="Trazado_40938" data-name="Trazado 40938" d="M282.3,2193.357a40.016,40.016,0,1,0-40.016,40.016A39.868,39.868,0,0,0,282.3,2193.357Z" transform="translate(-189.698 -2140.758)" fill="none" stroke="#7d6eb2" stroke-miterlimit="10" stroke-width="4"/>
        <g id="Grupo_18422" data-name="Grupo 18422" transform="translate(9.288 29.433)">
          <path id="Trazado_40939" data-name="Trazado 40939" d="M290.808,2164.488a52.432,52.432,0,0,1-90.263,52.208,52.266,52.266,0,0,0,90.263-52.208Z" transform="translate(-200.545 -2164.488)" fill="#eceef0"/>
        </g>
      </g>
    </g>
    <g id="N7geSD" transform="translate(2850.981 -5.599)">
      <g id="Grupo_87869" data-name="Grupo 87869" transform="translate(-2596.187 1022.118)">
        <path id="Trazado_139648" data-name="Trazado 139648" d="M-2580.515,1172.125c1.319-.574,2.495-1.064,3.644-1.609a.87.87,0,0,0,.4-.642c.015-.434-.468-.567-.938-.259a6.663,6.663,0,0,1-3.7,1.153,6.42,6.42,0,0,1-3.641-1.1c-.349-.231-.712-.453-1,.016-.27.433.065.721.4.873,1.158.524,2.337,1.005,3.621,1.551-.043.65-.1,1.494-.153,2.338q-.48,7.923-.956,15.846c-.094,1.562-.137,3.128-.288,4.684a4.036,4.036,0,0,1-.559,1.671,2.794,2.794,0,0,1-3.149,1.276,2.8,2.8,0,0,1-1.871-2.911q.208-6.555.418-13.109.238-7.175.492-14.35c.005-.16.02-.32.039-.607.76.372,1.464.728,2.179,1.064a3.286,3.286,0,0,0,3.748-.4,3.226,3.226,0,0,0-.745-5.364c-1.464-.723-2.933-1.435-4.419-2.109a.788.788,0,0,1-.534-.891c.087-1.954.153-3.909.184-5.864a1.081,1.081,0,0,0-.355-.846c-.436-.223-.618.214-.789.545q-1.323,2.577-2.646,5.155c-.362.709-.319.859.422,1.222,2.371,1.16,4.752,2.3,7.123,3.463a4.779,4.779,0,0,1,.99.607,2.111,2.111,0,0,1,.483,2.847,2.206,2.206,0,0,1-2.625.81c-.747-.289-1.468-.651-2.188-1.006-2.324-1.145-4.629-2.33-6.968-3.445a3.573,3.573,0,0,1-1.793-5.16c1.373-2.681,2.755-5.357,4.123-8.041a3.52,3.52,0,0,1,3.313-2.08c1.841-.014,3.682-.015,5.522.012a.788.788,0,0,1,.615.35c1.042,2.972,2.049,5.956,3.06,8.939.012.035-.011.081-.029.188a7.118,7.118,0,0,0-3.936-.009,16.754,16.754,0,0,0-2.317,1.035c-.357.178-.707.467-.378.927.3.416.633.183.958-.027a6.32,6.32,0,0,1,5.8-.716.933.933,0,0,1,.537.451,4.459,4.459,0,0,0,3.76,3.052c.066,1.615.143,3.239.2,4.863q.218,6.587.421,13.174c.16,5.037.331,10.073.463,15.11a3.832,3.832,0,0,1-.328,1.6,2.857,2.857,0,0,1-3.123,1.636,2.646,2.646,0,0,1-2.062-2.542c-.165-2.341-.271-4.685-.414-7.028q-.472-7.75-.956-15.5C-2580.492,1172.621-2580.507,1172.279-2580.515,1172.125Z" transform="translate(2596.186 -1130.135)" fill="#12263f"/>
        <path id="Trazado_139649" data-name="Trazado 139649" d="M-2523.682,1033.846c-1.723-1.942-4.814-1.6-5.942,1.408-.586-.39-1.137-.775-1.708-1.128a3.336,3.336,0,0,0-.95-.454,2.066,2.066,0,0,1-1.621-1.343,2.081,2.081,0,0,1,.459-2.114,2.2,2.2,0,0,0,.43-1.08,16.263,16.263,0,0,0,.019-1.79,5.2,5.2,0,0,1,5.062-5.225c3.272-.088,5.643,1.919,5.829,4.945.027.435.025.873.012,1.309a2.911,2.911,0,0,0,.645,2.2,1.943,1.943,0,0,1-1.242,3.054C-2523,1033.7-2523.3,1033.763-2523.682,1033.846Z" transform="translate(2542.607 -1022.118)" fill="#12263f"/>
        <path id="Trazado_139650" data-name="Trazado 139650" d="M-2487.377,1111.884a4.991,4.991,0,0,1,5.181,5.836c-.377,1.657-.85,3.295-1.333,4.925a3.116,3.116,0,0,1-2.931,2.229,3.1,3.1,0,0,1-3.117-2.063q-2.383-6.875-4.7-13.772a2.215,2.215,0,0,1,1.458-2.865,2.249,2.249,0,0,1,2.863,1.577c1.327,3.871,2.635,7.748,3.961,11.619.145.423.178,1.125.871.876s.27-.816.128-1.24c-.719-2.159-1.458-4.311-2.187-6.467C-2487.257,1112.327-2487.312,1112.107-2487.377,1111.884Z" transform="translate(2508.458 -1094.47)" fill="#12263f"/>
        <path id="Trazado_139651" data-name="Trazado 139651" d="M-2426.4,1042.932a1.781,1.781,0,0,1-.262-.624c0-.213.108-.55.264-.619q2.041-.9,4.125-1.706c.17-.065.453.168.684.263-.106.243-.15.626-.33.707-1.335.6-2.7,1.145-4.052,1.7a1.355,1.355,0,0,1-.2.05Z" transform="translate(2450.068 -1037.506)" fill="#12263f"/>
        <path id="Trazado_139652" data-name="Trazado 139652" d="M-2578.888,1041.772c-.371.169-.679.44-.86.372-1.412-.53-2.807-1.109-4.186-1.723a.715.715,0,0,1-.22-.671.718.718,0,0,1,.653-.277c1.367.523,2.716,1.093,4.059,1.676C-2579.266,1041.224-2579.159,1041.458-2578.888,1041.772Z" transform="translate(2585.833 -1037.063)" fill="#12263f"/>
        <path id="Trazado_139653" data-name="Trazado 139653" d="M-2417.613,1091.177c-.4.155-.721.413-.924.339-1.179-.431-2.339-.921-3.481-1.444-.172-.079-.218-.432-.322-.658.244-.106.543-.361.723-.294,1.178.434,2.335.928,3.487,1.43C-2417.972,1090.619-2417.882,1090.842-2417.613,1091.177Z" transform="translate(2446.344 -1079.859)" fill="#12263f"/>
        <path id="Trazado_139654" data-name="Trazado 139654" d="M-2583.72,1092.209c-.176-.146-.446-.26-.474-.418-.036-.2.063-.57.209-.636q1.727-.779,3.5-1.443c.144-.054.482.153.581.324a.612.612,0,0,1-.156.583C-2581.244,1091.167-2582.453,1091.667-2583.72,1092.209Z" transform="translate(2585.856 -1080.371)" fill="#12263f"/>
      </g>
    </g>
  </g>
</svg>
