<svg xmlns="http://www.w3.org/2000/svg" xmlns:xlink="http://www.w3.org/1999/xlink" width="165.261" height="165.262" viewBox="0 0 165.261 165.262">
  <defs>
    <radialGradient id="radial-gradient" cx="0.076" cy="0.019" r="1.465" gradientTransform="translate(0.001)" gradientUnits="objectBoundingBox">
      <stop offset="0" stop-color="#f6f6f7"/>
      <stop offset="0.477" stop-color="#f9f9fa"/>
      <stop offset="0.715" stop-color="#fff"/>
    </radialGradient>
  </defs>
  <g id="Grupo_49868" data-name="Grupo 49868" transform="translate(0 0.001)">
    <g id="Grupo_18531" data-name="Grupo 18531" transform="translate(0 0)">
      <g id="Grupo_18423" data-name="Grupo 18423" transform="translate(0 0)">
        <g id="Grupo_18421" data-name="Grupo 18421">
          <g id="Grupo_18420" data-name="Grupo 18420">
            <g id="Grupo_18419" data-name="Grupo 18419">
              <path id="Trazado_40936" data-name="Trazado 40936" d="M359.883,2228.349a82.63,82.63,0,1,1-82.629-82.628A82.629,82.629,0,0,1,359.883,2228.349Z" transform="translate(-194.623 -2145.721)" fill="#fff"/>
            </g>
          </g>
        </g>
        <path id="Trazado_40937" data-name="Trazado 40937" d="M358.626,2226.979A82.628,82.628,0,1,0,276,2309.611,82.3,82.3,0,0,0,358.626,2226.979Z" transform="translate(-193.366 -2144.351)" fill="url(#radial-gradient)"/>
        <path id="Trazado_40938" data-name="Trazado 40938" d="M327.821,2215.769a63.071,63.071,0,1,0-63.071,63.071A62.837,62.837,0,0,0,327.821,2215.769Z" transform="translate(-181.869 -2132.866)" fill="none" stroke="#00223d" stroke-miterlimit="10" stroke-width="4"/>
        <g id="Grupo_18422" data-name="Grupo 18422" transform="translate(14.639 46.391)">
          <path id="Trazado_40939" data-name="Trazado 40939" d="M342.812,2164.488a82.64,82.64,0,0,1-142.267,82.288,82.378,82.378,0,0,0,142.267-82.288Z" transform="translate(-200.545 -2164.488)" fill="#eceef0"/>
        </g>
      </g>
    </g>
    <g id="Grupo_87886" data-name="Grupo 87886" transform="translate(5744.606 -2698.065)">
      <path id="Trazado_139695" data-name="Trazado 139695" d="M-5681.182,2745.081a14.628,14.628,0,0,1,14.132,11.08,15.666,15.666,0,0,1,.258,6.038,9.019,9.019,0,0,0,3.056,8.262c2.9,2.657,5.771,5.351,8.652,8.031q2.958,2.75,5.911,5.5,4.137,3.839,8.282,7.669c3.233,2.991,6.446,6.006,9.714,8.959a9.2,9.2,0,0,1,3.237,5.888,8.912,8.912,0,0,1-6.138,9.7,8.7,8.7,0,0,1-8.53-1.585,23.876,23.876,0,0,1-2.965-3.392q-5.774-7.128-11.514-14.283c-2.406-2.991-4.791-6-7.208-8.982-2.25-2.776-4.534-5.525-6.792-8.294-.546-.67-1-1.416-1.577-2.058a8.617,8.617,0,0,0-6.645-3.076,22.932,22.932,0,0,1-5.226-.307,14.658,14.658,0,0,1-8.674-5.594,14.094,14.094,0,0,1-2.8-7.094,22.928,22.928,0,0,1,.086-3.982.98.98,0,0,1,.652-.657,1.271,1.271,0,0,1,1.011.268c2.146,2.271,4.249,4.584,6.371,6.878a3.566,3.566,0,0,0,3.851,1.228,5.441,5.441,0,0,0,1.851-1.228c1.847-1.661,3.621-3.4,5.478-5.055a3.606,3.606,0,0,0,.248-5.132c-2.2-2.275-4.3-4.637-6.462-6.946a1.17,1.17,0,0,1-.331-1.275c.174-.5.6-.57,1.058-.566C-5681.862,2745.084-5681.522,2745.081-5681.182,2745.081Zm48.459,62.359a4.437,4.437,0,0,0-4.274-4.372,4.423,4.423,0,0,0-4.479,4.35,4.447,4.447,0,0,0,4.316,4.41A4.43,4.43,0,0,0-5632.723,2807.44Z" transform="translate(0 -0.174)" fill="#12263f"/>
      <path id="Trazado_139696" data-name="Trazado 139696" d="M-5671.6,3098.623a7.286,7.286,0,0,1-4.7-1.752c-.953-.8-1.886-1.616-2.844-2.406a6.82,6.82,0,0,1-.692-9.6c4.825-5.677,9.565-11.426,14.331-17.153.961-1.156,1.862-2.361,2.823-3.518.537-.646,1.07-1.293,2.1-1.175a1.556,1.556,0,0,1,1.176.607c3.187,3.978,6.4,7.938,9.582,11.916a.576.576,0,0,1,0,.549c-2.39,2.882-4.8,5.746-7.2,8.618-2.969,3.55-5.953,7.089-8.89,10.665a7.669,7.669,0,0,1-4.4,3.046C-5670.818,3098.524-5671.322,3098.581-5671.6,3098.623Zm-5.123-10.724a1.356,1.356,0,0,0,.79,1.16.988.988,0,0,0,1.186-.238,4.988,4.988,0,0,0,.462-.49q2.313-2.773,4.622-5.55,5.5-6.582,11.014-13.153c.6-.718.281-1.418-.282-1.973-.383-.378-.962-.189-1.469.42q-1.622,1.953-3.25,3.9-6.349,7.6-12.7,15.2A3.687,3.687,0,0,0-5676.724,3087.9Zm6.6,5.585a2.482,2.482,0,0,0,.681-.434c.924-1.041,1.816-2.111,2.71-3.179q5.107-6.106,10.207-12.218c1.037-1.242,2.089-2.473,3.085-3.748a1.384,1.384,0,0,0,.268-1.057,1.082,1.082,0,0,0-1.93-.454c-1.033,1.145-2,2.347-2.992,3.53q-6.555,7.838-13.084,15.7a1.611,1.611,0,0,0-.139,1.19C-5671.224,3093.272-5670.793,3093.466-5670.125,3093.484Z" transform="translate(-12.936 -282.137)" fill="#12263f"/>
      <path id="Trazado_139697" data-name="Trazado 139697" d="M-5361.195,2774.973l-3.348-3.039c.417-.512.8-.992,1.192-1.462q4.994-5.98,9.99-11.959c.9-1.083,1.864-2.129,2.67-3.281a10.73,10.73,0,0,0,1.54-2.921,13.5,13.5,0,0,1,3.019-5.286c.483-.526.913-1.1,1.386-1.637a1.084,1.084,0,0,1,1.679-.186q2.244,1.847,4.44,3.752a1.119,1.119,0,0,1,.07,1.638c-.852,1-1.653,2.058-2.568,3a8.3,8.3,0,0,1-2.257,1.826,16.474,16.474,0,0,0-5.6,4.808c-2.956,3.588-5.953,7.141-8.933,10.708q-1.537,1.841-3.071,3.686A3.033,3.033,0,0,0-5361.195,2774.973Z" transform="translate(-294.026 0)" fill="#12263f"/>
    </g>
  </g>
</svg>
