<svg xmlns="http://www.w3.org/2000/svg" xmlns:xlink="http://www.w3.org/1999/xlink" width="183.348" height="183.348" viewBox="0 0 183.348 183.348">
  <defs>
    <radialGradient id="radial-gradient" cx="0.076" cy="0.019" r="1.465" gradientTransform="translate(0.001)" gradientUnits="objectBoundingBox">
      <stop offset="0" stop-color="#f6f6f7"/>
      <stop offset="0.477" stop-color="#f9f9fa"/>
      <stop offset="0.715" stop-color="#fff"/>
    </radialGradient>
  </defs>
  <g id="Grupo_49868" data-name="Grupo 49868" transform="translate(0 0.001)">
    <g id="Grupo_18531" data-name="Grupo 18531" transform="translate(0 0)">
      <g id="Grupo_18423" data-name="Grupo 18423" transform="translate(0 0)">
        <g id="Grupo_18421" data-name="Grupo 18421">
          <g id="Grupo_18420" data-name="Grupo 18420">
            <g id="Grupo_18419" data-name="Grupo 18419">
              <path id="Trazado_40936" data-name="Trazado 40936" d="M377.97,2237.392a91.673,91.673,0,1,1-91.672-91.671A91.672,91.672,0,0,1,377.97,2237.392Z" transform="translate(-194.623 -2145.721)" fill="#fff"/>
            </g>
          </g>
        </g>
        <path id="Trazado_40937" data-name="Trazado 40937" d="M376.482,2235.77a91.671,91.671,0,1,0-91.672,91.676A91.311,91.311,0,0,0,376.482,2235.77Z" transform="translate(-193.135 -2144.099)" fill="url(#radial-gradient)"/>
        <path id="Trazado_40938" data-name="Trazado 40938" d="M341.45,2222.48a69.974,69.974,0,1,0-69.974,69.974A69.714,69.714,0,0,0,341.45,2222.48Z" transform="translate(-179.525 -2130.503)" fill="none" stroke="#00223d" stroke-miterlimit="10" stroke-width="4"/>
        <g id="Grupo_18422" data-name="Grupo 18422" transform="translate(16.241 51.468)">
          <path id="Trazado_40939" data-name="Trazado 40939" d="M358.381,2164.488a91.684,91.684,0,0,1-157.836,91.294,91.393,91.393,0,0,0,157.836-91.294Z" transform="translate(-200.545 -2164.488)" fill="#eceef0"/>
        </g>
      </g>
    </g>
    <g id="Grupo_77976" data-name="Grupo 77976" transform="translate(-1752.806 -762.013)">
      <path id="Trazado_138574" data-name="Trazado 138574" d="M1976.408,1081.769l5.628-9.24c-.95-.2-1.869-.391-2.791-.573a62.351,62.351,0,0,1-17.087-6.108c-1.882-.994-2.662-2.182-2.446-3.694a5.038,5.038,0,0,1,3.554-3.891,4.688,4.688,0,0,1,3.275.411,73.273,73.273,0,0,0,20.363,6.052,4.276,4.276,0,0,0,1.917-.291,11.774,11.774,0,0,1,4.833-.821c.764.065,1.024.313.8,1.1a11.5,11.5,0,0,0-.318,1.964c-.067.63.259.876.847.655a23.676,23.676,0,0,0,2.313-.971c.494-.249.868-.22,1.051.288a16.189,16.189,0,0,1,1.144,3.594,55.431,55.431,0,0,0,2.825,13.193c.9,2.465,2,4.864,3.1,7.246a4.724,4.724,0,0,1-3.219,6.835,2.991,2.991,0,0,1-3.4-1.507,68.626,68.626,0,0,1-3.17-6.548c-.954-2.35-1.653-4.8-2.467-7.211a3.717,3.717,0,0,0-.243-.438c-.746,1.216-1.486,2.312-2.115,3.467-1.743,3.2-3.47,6.413-5.143,9.651a6.255,6.255,0,0,1-5.953,3.732c-7.847.016-15.694.076-23.541.122q-3.865.023-7.73.065a3.869,3.869,0,0,1-3.9-2.23,4.5,4.5,0,0,1,.576-4.9,3.86,3.86,0,0,1,2.835-1.311,2.828,2.828,0,0,1,.694-.01c1.006.129,1.551-.125,1.9-1.259a12.663,12.663,0,0,1,1.88-3.2c2.209-3.216,4.334-6.5,6.744-9.562a23.171,23.171,0,0,1,4.582-4.06c2.167-1.6,4.284-1.226,6.13.383a24.714,24.714,0,0,1,3.7,4.325C1974.632,1078.49,1975.445,1080.128,1976.408,1081.769Zm-5.01,8.474-5.06-9.106-6.6,8.911.2.195Z" transform="translate(-116.817 -207.579)" fill="#12263f"/>
      <path id="Trazado_138575" data-name="Trazado 138575" d="M1819.371,927.154c-.742,2.107-1.557,4.114-2.158,6.184a57.866,57.866,0,0,0-2.141,17.325c.119,6.369.046,12.741.032,19.112a4.613,4.613,0,0,1-9.226-.008c-.031-5.212-.012-10.425-.014-15.638q0-4.213,0-8.427c0-2.214-.385-2.559-2.623-2.186-.071-.56-.135-1.117-.214-1.672-1.4-9.756,1.477-18.355,7.1-26.2,1.163-1.623,2.423-3.176,3.574-4.808,2.111-2.994,5.842-3.411,8.887-2.173a7.247,7.247,0,0,1,4.726,7.459,9.944,9.944,0,0,1-1.031,3.35,1.213,1.213,0,0,0,.139,1.518,58.206,58.206,0,0,0,9.721,9.641,5.028,5.028,0,0,1,1.294,6.678c-1.355,2.395-3.75,2.925-5.935,1.268a69.969,69.969,0,0,1-11.128-10.563c-.187-.221-.379-.437-.575-.649A2.69,2.69,0,0,0,1819.371,927.154Z" transform="translate(0 -83.549)" fill="#12263f"/>
      <path id="Trazado_138576" data-name="Trazado 138576" d="M1912.125,815.584a8.659,8.659,0,0,1-17.318-.056,8.659,8.659,0,1,1,17.318.056Z" transform="translate(-76.119)" fill="#12263f"/>
      <path id="Trazado_138577" data-name="Trazado 138577" d="M2222.5,1005.6a7.908,7.908,0,1,1,.129-15.816,7.908,7.908,0,1,1-.129,15.816Z" transform="translate(-340.348 -151.11)" fill="#12263f"/>
      <path id="Trazado_138578" data-name="Trazado 138578" d="M2007.2,1290.094a19.668,19.668,0,0,1,3.195.982c1.827.908,2.038,2.808.583,4.236a7.389,7.389,0,0,1-3.781,1.812c-.431.093-.811.037-.789-.481.021-.49-.585-1.141.346-1.453a17.144,17.144,0,0,0,2.4-.962c.312-.16.725-.67.658-.891a1.563,1.563,0,0,0-.911-.769c-1.594-.606-3.2-.168-4.8.05q-8.077,1.109-16.15,2.252c-4.609.653-9.213,1.342-13.823,1.992-5.239.739-10.481,1.448-15.721,2.178-1.4.2-2.81.377-4.2.643-.855.164-1.01-.234-1.134-.946-.13-.747.128-.958.818-1.052q10.568-1.452,21.131-2.95c4.609-.651,9.214-1.336,13.823-1.988q8.673-1.226,17.35-2.422c.314-.044.634-.049.952-.071Z" transform="translate(-124.231 -399.231)" fill="#12263f"/>
    </g>
    <text id="NO" transform="translate(100.87 69.038)" fill="#12263f" font-size="13" font-family="Roboto-Black, Roboto" font-weight="800"><tspan x="-9.052" y="0">NO</tspan></text>
  </g>
</svg>
