<svg id="Grupo_87612" data-name="Grupo 87612" xmlns="http://www.w3.org/2000/svg" width="108.027" height="235.688" viewBox="0 0 108.027 235.688">
  <g id="Grupo_87605" data-name="Grupo 87605">
    <rect id="Rectángulo_32801" data-name="Rectángulo 32801" width="108.027" height="235.688" rx="10" fill="#ff9d00"/>
  </g>
  <g id="Grupo_87608" data-name="Grupo 87608" transform="translate(24.63 89.755)">
    <g id="Grupo_87606" data-name="Grupo 87606">
      <path id="Trazado_139403" data-name="Trazado 139403" d="M117.484-45.929H73.705a6.4,6.4,0,0,1-5.6-3.232,6.4,6.4,0,0,1,0-6.462L90-93.538a6.4,6.4,0,0,1,5.6-3.231h0a6.4,6.4,0,0,1,5.6,3.231l21.89,37.915a6.4,6.4,0,0,1,0,6.462A6.4,6.4,0,0,1,117.484-45.929ZM92.9-91.862,71.01-53.948a3.078,3.078,0,0,0,0,3.112,3.08,3.08,0,0,0,2.695,1.556h43.779a3.081,3.081,0,0,0,2.695-1.556,3.08,3.08,0,0,0,0-3.112L98.289-91.862A3.08,3.08,0,0,0,95.6-93.418a3.082,3.082,0,0,0-2.7,1.556Z" transform="translate(-67.232 96.769)" fill="#fff"/>
    </g>
    <g id="Grupo_87607" data-name="Grupo 87607" transform="translate(24.328 13.724)">
      <path id="Trazado_139404" data-name="Trazado 139404" d="M95.606-83.045h0a4.046,4.046,0,0,1,4.017,4.526L97.846-63.654a2.268,2.268,0,0,1-2.252,2h0a2.268,2.268,0,0,1-2.252-2L91.588-78.525A4.046,4.046,0,0,1,95.606-83.045Z" transform="translate(-91.56 83.045)" fill="#fff"/>
      <path id="Trazado_139405" data-name="Trazado 139405" d="M93.314-54.434a3.114,3.114,0,0,1-.936-2.292,3.119,3.119,0,0,1,.936-2.293,3.117,3.117,0,0,1,2.292-.935,3.121,3.121,0,0,1,2.293.935,3.118,3.118,0,0,1,.935,2.293,3.113,3.113,0,0,1-.935,2.292,3.118,3.118,0,0,1-2.293.936A3.114,3.114,0,0,1,93.314-54.434Z" transform="translate(-91.56 83.045)" fill="#fff"/>
    </g>
  </g>
</svg>
