<svg xmlns="http://www.w3.org/2000/svg" xmlns:xlink="http://www.w3.org/1999/xlink" width="104.852" height="104.852" viewBox="0 0 104.852 104.852">
  <defs>
    <radialGradient id="radial-gradient" cx="0.076" cy="0.019" r="1.465" gradientTransform="translate(0.001)" gradientUnits="objectBoundingBox">
      <stop offset="0" stop-color="#f6f6f7"/>
      <stop offset="0.477" stop-color="#f9f9fa"/>
      <stop offset="0.715" stop-color="#fff"/>
    </radialGradient>
  </defs>
  <g id="Grupo_50460" data-name="Grupo 50460" transform="translate(-217 -997)">
    <g id="Grupo_18531" data-name="Grupo 18531" transform="translate(217 997)">
      <g id="Grupo_18423" data-name="Grupo 18423" transform="translate(0 0)">
        <g id="Grupo_18421" data-name="Grupo 18421">
          <g id="Grupo_18420" data-name="Grupo 18420">
            <g id="Grupo_18419" data-name="Grupo 18419">
              <path id="Trazado_40936" data-name="Trazado 40936" d="M299.475,2198.146a52.426,52.426,0,1,1-52.425-52.424A52.425,52.425,0,0,1,299.475,2198.146Z" transform="translate(-194.623 -2145.721)" fill="#fff"/>
            </g>
          </g>
        </g>
        <path id="Trazado_40937" data-name="Trazado 40937" d="M298.99,2197.617a52.425,52.425,0,1,0-52.425,52.427A52.219,52.219,0,0,0,298.99,2197.617Z" transform="translate(-194.138 -2145.192)" fill="url(#radial-gradient)"/>
        <path id="Trazado_40938" data-name="Trazado 40938" d="M282.3,2193.357a40.016,40.016,0,1,0-40.016,40.016A39.868,39.868,0,0,0,282.3,2193.357Z" transform="translate(-189.698 -2140.758)" fill="none" stroke="#7d6eb2" stroke-miterlimit="10" stroke-width="4"/>
        <g id="Grupo_18422" data-name="Grupo 18422" transform="translate(9.288 29.433)">
          <path id="Trazado_40939" data-name="Trazado 40939" d="M290.808,2164.488a52.432,52.432,0,0,1-90.263,52.208,52.266,52.266,0,0,0,90.263-52.208Z" transform="translate(-200.545 -2164.488)" fill="#eceef0"/>
        </g>
      </g>
    </g>
    <g id="_1xcJ7d" data-name="1xcJ7d" transform="translate(1025 990.266)">
      <g id="Grupo_87963" data-name="Grupo 87963" transform="translate(-786.001 38.877)">
        <path id="Trazado_139813" data-name="Trazado 139813" d="M-747.421,160.922a3.8,3.8,0,0,1-.311-2.823,3.116,3.116,0,0,1,2.87-2.111,3.119,3.119,0,0,1,3.04,2.033c.652,1.615,1.269,3.245,1.985,4.831.676,1.5,1.458,2.951,2.2,4.422.093.185.21.357.342.579,1.445-1.19,2.848-2.344,4.251-3.5.636-.524,1.265-1.058,1.907-1.574a2.425,2.425,0,0,1,3.465.184c2.33,2.387,4.63,4.8,6.967,7.183a2.469,2.469,0,0,0,1.1.629c1.613.413,3.246.75,4.865,1.142a2.412,2.412,0,0,1,1.884,2.541,2.359,2.359,0,0,1-2.2,2.26,8.393,8.393,0,0,1-2.087-.331c-2.373-.53-4.727-1.155-7.116-1.6a15.628,15.628,0,0,0-3.262-.032c-2.872.086-5.744.184-8.615.312a15.889,15.889,0,0,0-2.546.3,3.907,3.907,0,0,1-4.457-2.136c-.673-1.459-1.27-2.954-1.878-4.442a1.139,1.139,0,0,1-.008-.652c.717-2.977,1.461-5.948,2.166-8.928a1.983,1.983,0,0,0-1.465-2.482,1.994,1.994,0,0,0-2.455,1.585C-747,159.185-747.209,160.054-747.421,160.922Zm19.463,9.007.076-.216-1.891-1.7-2.312,1.919Z" transform="translate(752.275 -142.357)" fill="#12263f"/>
        <path id="Trazado_139814" data-name="Trazado 139814" d="M-445.836,132.948c-.292-1.435-.591-2.817-.845-4.208a.864.864,0,0,0-.679-.811c-1.33-.249-2.666-.463-4.108-.709l1.549,7.7-.5.024c-.606.031-.759.192-.773.814,0,.173,0,.345,0,.518,0,.8-.094.9-.906.99a2.445,2.445,0,0,1-2.748-2.05c-.473-2.267-.928-4.538-1.39-6.808-.248-1.219-.5-2.438-.743-3.658a2.408,2.408,0,0,1,2.721-2.931c1.08.137,2.153.332,3.371.522-.292-.472-.512-.854-.758-1.22-.587-.875-1.165-1.757-1.79-2.6a.677.677,0,0,1-.015-.9c.6-.936,1.164-1.892,1.732-2.846a2.035,2.035,0,0,0-.592-2.913,2.041,2.041,0,0,0-2.859.827,8.381,8.381,0,0,1-.973,1.359,6.031,6.031,0,0,1,.071-.89,3.093,3.093,0,0,1,5.024-1.716,30.227,30.227,0,0,1,2.833,2.932,72.853,72.853,0,0,1,6.2,7.916,3.953,3.953,0,0,1,.183,4.628.748.748,0,0,0-.118.478c.315,1.631.65,3.258.987,4.921,1.653-.172,3.267-.342,4.882-.508.628-.064,1.257-.161,1.887-.17a2.4,2.4,0,0,1,2.421,2.283,2.4,2.4,0,0,1-2.066,2.558c-1.382.18-2.77.305-4.231.462,0-.429.006-.806,0-1.184-.012-.593-.206-.793-.792-.8s-1.182,0-1.853,0c0-.272,0-.493,0-.715,0-1.03-.25-1.278-1.3-1.28s-2.109,0-3.164,0Z" transform="translate(494.894 -102.278)" fill="#12263f"/>
        <path id="Trazado_139815" data-name="Trazado 139815" d="M-401.695,308.045c0-.473.006-.855,0-1.236a.642.642,0,0,1,.681-.748q2.991-.023,5.981,0a.658.658,0,0,1,.7.738c0,.4,0,.794,0,1.249.735,0,1.4.011,2.067,0,.421-.01.584.175.583.586q-.01,3.451,0,6.9c0,.454-.2.6-.634.6q-5.694-.013-11.388,0c-.468,0-.65-.171-.648-.642.013-2.262.016-4.524,0-6.786,0-.512.2-.678.685-.659C-403.036,308.064-402.406,308.045-401.695,308.045Zm4.259,4.125h1.336v-1.1h-1.352v-1.336h-1.142V311.1h-1.318v1.112h1.371v1.336h1.1Zm2.454-4.146v-1.309h-6.048v1.309Z" transform="translate(448.271 -275.15)" fill="#12263f"/>
        <path id="Trazado_139816" data-name="Trazado 139816" d="M-775.753,70.61a5.082,5.082,0,0,1-5.236,5.1A5.142,5.142,0,0,1-786,70.538a5.129,5.129,0,0,1,5.171-5.065A5.069,5.069,0,0,1-775.753,70.61Z" transform="translate(786.001 -62.26)" fill="#12263f"/>
        <path id="Trazado_139817" data-name="Trazado 139817" d="M-513.04,47.8a5.058,5.058,0,0,1-5.115-5.205,5.114,5.114,0,0,1,5.129-5.038,5.153,5.153,0,0,1,5.1,5.082A5.1,5.1,0,0,1-513.04,47.8Z" transform="translate(548.979 -37.553)" fill="#12263f"/>
        <path id="Trazado_139818" data-name="Trazado 139818" d="M-772.613,183.732a1.712,1.712,0,0,1-1.612-2.369c.723-2.3,1.545-4.572,2.184-6.895.776-2.821,1.411-5.681,2.1-8.527a1.779,1.779,0,0,1,2.159-1.529,1.771,1.771,0,0,1,1.206,2.31,135.636,135.636,0,0,1-4.34,15.641A1.72,1.72,0,0,1-772.613,183.732Z" transform="translate(775.673 -149.764)" fill="#12263f"/>
        <path id="Trazado_139819" data-name="Trazado 139819" d="M-529.69,122.519a6.658,6.658,0,0,1-.4.992c-1.307,2.184-2.609,4.372-3.974,6.519a2.32,2.32,0,0,1-1.193.893c-2.561.776-5.142,1.485-7.72,2.2a1.753,1.753,0,0,1-2.28-1.175,1.746,1.746,0,0,1,1.369-2.158c2.242-.64,4.488-1.266,6.724-1.927a1.308,1.308,0,0,0,.684-.514c1.182-1.9,2.329-3.825,3.5-5.734a1.686,1.686,0,0,1,1.975-.79A1.832,1.832,0,0,1-529.69,122.519Z" transform="translate(573.019 -111.18)" fill="#12263f"/>
        <path id="Trazado_139820" data-name="Trazado 139820" d="M-538.033,352.13a4.429,4.429,0,0,1,.983-3.447c.087.045.217.153.253.127.776-.554,1.541-1.123,2.309-1.688l-.109-.164a11.614,11.614,0,0,0-1.227.681c-.441.315-.831.7-1.243,1.059a4.735,4.735,0,0,1,4.64-2.038,3.883,3.883,0,0,1,2.668,1.349l-1.882-1.107-.151.234,2.438,1.728.1-.12-.206-.5a4.9,4.9,0,0,1,.05,6.7,4.776,4.776,0,0,1-5.135,1.39,4.778,4.778,0,0,1-3.486-4.2c.074.166.151.33.221.5q.4.94.787,1.881l.231-.1-1.031-3.058Zm4.918-3.073c0-.281,0-.434,0-.587,0-.571-1.121-1.28-1.6-.969-.591.387-1.135.848-1.686,1.293a.607.607,0,0,0-.16.349c-.176.984-.028,1.237.9,1.574a.647.647,0,0,1,.109.035,1.048,1.048,0,0,0,1.383-.2C-533.67,350.094-532.831,349.886-533.115,349.056Zm.108-.213a1.443,1.443,0,0,0,.63,1.442,1.859,1.859,0,0,0,2.454.194.7.7,0,0,0,.313-.354,1.259,1.259,0,0,0-.563-1.638,7.1,7.1,0,0,1-.887-.626c-.544-.52-1.071-.294-1.631-.056C-533.234,348.036-532.931,348.5-533.007,348.843Zm-2.423,5.588a.554.554,0,0,0,.245-.134c.53-.693,1.315-1.324.616-2.348a2.3,2.3,0,0,1-.16-.489,3.079,3.079,0,0,0-1.887-.84.68.68,0,0,0-.134.107,1.332,1.332,0,0,0-.519,1.774q.145.435.294.87A1.509,1.509,0,0,0-535.43,354.431Zm4.8.177c.451-.275,1.03-.442,1.273-.824a6.364,6.364,0,0,0,.566-1.794c.113-.427-.582-1.474-.947-1.388a4.908,4.908,0,0,0-1.438.556c-.211.13-.234.538-.385.8a1.677,1.677,0,0,0,.458,2.268C-530.99,354.33-530.861,354.421-530.631,354.608Zm-2.54,1.22a2.941,2.941,0,0,1,.5,0c.815.154,1.17-.39,1.494-.976.293-.531-.3-.7-.448-1.058a1.237,1.237,0,0,0-.275-.364.842.842,0,0,0-.345-.262,2.294,2.294,0,0,0-2.764,1.163.538.538,0,0,0-.084.357,1.46,1.46,0,0,0,1.564,1.171C-533.395,355.854-533.262,355.836-533.171,355.828Zm4.9-4.272-.2-.061-.873,2.916A3.912,3.912,0,0,0-528.268,351.555Zm-6.3,4.454q0,.089.006.178a4.016,4.016,0,0,0,3.046-.178Z" transform="translate(566.589 -311.039)" fill="#12263f"/>
        <path id="Trazado_139821" data-name="Trazado 139821" d="M-536.994,240.688l-3.569.377-.03-.275,3.568-.385Z" transform="translate(568.836 -217.06)" fill="#12263f"/>
        <path id="Trazado_139822" data-name="Trazado 139822" d="M-566.379,194.1q.119-1.569.238-3.138l.274.02q-.114,1.572-.228,3.144Z" transform="translate(591.654 -173.309)" fill="#12263f"/>
        <path id="Trazado_139823" data-name="Trazado 139823" d="M-559.858,202.281l-.923,2.078-.259-.118.914-2.081Z" transform="translate(586.929 -183.217)" fill="#12263f"/>
        <path id="Trazado_139824" data-name="Trazado 139824" d="M-546.527,230.175l2.193-1.116C-544.423,229.52-545.826,230.27-546.527,230.175Z" transform="translate(574.086 -207.02)" fill="#12263f"/>
        <path id="Trazado_139825" data-name="Trazado 139825" d="M-358.648,313.755c.186.351.312.831.465.839,1.134.064,2.272.035,3.416.035v-.874Z" transform="translate(407.829 -281.969)" fill="#12263f"/>
        <path id="Trazado_139826" data-name="Trazado 139826" d="M-358.648,313.755h3.881v.874c-1.144,0-2.283.029-3.416-.035C-358.336,314.586-358.462,314.106-358.648,313.755Z" transform="translate(407.829 -281.969)" fill="#12263f"/>
      </g>
    </g>
  </g>
</svg>
