<svg xmlns="http://www.w3.org/2000/svg" xmlns:xlink="http://www.w3.org/1999/xlink" width="104.852" height="104.852" viewBox="0 0 104.852 104.852">
  <defs>
    <radialGradient id="radial-gradient" cx="0.076" cy="0.019" r="1.465" gradientTransform="translate(0.001)" gradientUnits="objectBoundingBox">
      <stop offset="0" stop-color="#f6f6f7"/>
      <stop offset="0.477" stop-color="#f9f9fa"/>
      <stop offset="0.715" stop-color="#fff"/>
    </radialGradient>
  </defs>
  <g id="Grupo_50460" data-name="Grupo 50460" transform="translate(-217 -997)">
    <g id="Grupo_18531" data-name="Grupo 18531" transform="translate(217 997)">
      <g id="Grupo_18423" data-name="Grupo 18423" transform="translate(0 0)">
        <g id="Grupo_18421" data-name="Grupo 18421">
          <g id="Grupo_18420" data-name="Grupo 18420">
            <g id="Grupo_18419" data-name="Grupo 18419">
              <path id="Trazado_40936" data-name="Trazado 40936" d="M299.475,2198.146a52.426,52.426,0,1,1-52.425-52.424A52.425,52.425,0,0,1,299.475,2198.146Z" transform="translate(-194.623 -2145.721)" fill="#fff"/>
            </g>
          </g>
        </g>
        <path id="Trazado_40937" data-name="Trazado 40937" d="M298.99,2197.617a52.425,52.425,0,1,0-52.425,52.427A52.219,52.219,0,0,0,298.99,2197.617Z" transform="translate(-194.138 -2145.192)" fill="url(#radial-gradient)"/>
        <path id="Trazado_40938" data-name="Trazado 40938" d="M282.3,2193.357a40.016,40.016,0,1,0-40.016,40.016A39.868,39.868,0,0,0,282.3,2193.357Z" transform="translate(-189.698 -2140.758)" fill="none" stroke="#7d6eb2" stroke-miterlimit="10" stroke-width="4"/>
        <g id="Grupo_18422" data-name="Grupo 18422" transform="translate(9.288 29.433)">
          <path id="Trazado_40939" data-name="Trazado 40939" d="M290.808,2164.488a52.432,52.432,0,0,1-90.263,52.208,52.266,52.266,0,0,0,90.263-52.208Z" transform="translate(-200.545 -2164.488)" fill="#eceef0"/>
        </g>
      </g>
    </g>
    <g id="rM0KKf" transform="translate(99.539 579.485)">
      <g id="Grupo_77967" data-name="Grupo 77967" transform="translate(139.931 447.383)">
        <path id="Trazado_138561" data-name="Trazado 138561" d="M139.931,529.816c1.99-4.352,3.941-8.722,5.991-13.045a3.863,3.863,0,0,1,3.712-2.145c4.744-.029,9.488-.038,14.232,0a4.309,4.309,0,0,1,4.067,2.617c1.653,3.437,3.356,6.851,4.913,10.331a9.214,9.214,0,0,1,.729,3.424c.095,3.325.014,6.655.048,9.982.008.835-.3,1.155-1.115,1.134-1.156-.03-2.315-.037-3.471,0-.848.026-1.135-.381-1.111-1.163.022-.721,0-1.443,0-2.234H145.647c0,.772-.024,1.569.007,2.364.029.751-.307,1.044-1.037,1.03-1.186-.022-2.374.035-3.557-.026a3.7,3.7,0,0,1-1.129-.466Zm28.959-2.454a6.047,6.047,0,0,0-.223-.694c-1.038-2.224-2.115-4.431-3.118-6.671a3.129,3.129,0,0,0-3.2-2.019c-3.844.036-7.689.008-11.533.012a2.607,2.607,0,0,0-2.558,1.592c-.649,1.386-1.32,2.761-1.982,4.141-.568,1.184-1.137,2.367-1.749,3.639Zm2,5.443a2.643,2.643,0,0,0-5.285-.066,2.712,2.712,0,0,0,2.559,2.754A2.74,2.74,0,0,0,170.888,532.8Zm-22.909-.009a2.712,2.712,0,0,0-2.675-2.63,2.647,2.647,0,0,0-2.614,2.586,2.646,2.646,0,1,0,5.289.045Z" transform="translate(-139.931 -502.935)" fill="#12263f"/>
        <path id="Trazado_138562" data-name="Trazado 138562" d="M350.5,505.044q-1.133,4.169-2.264,8.338c-.234.864-.477,1.727-.685,2.6a.8.8,0,0,1-1.1.671c-1.261-.312-2.515-.655-3.768-1a.778.778,0,0,1-.573-1.077c.2-.752.406-1.5.639-2.36-1.115-.314-2.208-.634-3.308-.929-5.214-1.395-10.428-2.794-15.651-4.158-.608-.159-.856-.38-.83-1.035.033-.858-.064-1.721-.1-2.585,1.942-.783,2.743-2.179,2.112-3.689-.661-1.582-2.1-1.959-4.22-1.073-.541-1.109-1.1-2.211-1.6-3.342a.893.893,0,0,1,.177-.754c2.584-3.039,5.161-6.086,7.8-9.073a3.987,3.987,0,0,1,4.191-1.209c4.479,1.131,8.957,2.263,13.427,3.428a4.3,4.3,0,0,1,3.381,3.644c.7,3.835,1.442,7.664,2.172,11.494a3.5,3.5,0,0,0,.2.551Zm-3.622-3.244c-.532-2.86-1.049-5.545-1.526-8.238a2.958,2.958,0,0,0-2.38-2.539q-5.48-1.464-10.937-3.01a3.033,3.033,0,0,0-3.463,1.076c-1.669,2-3.4,3.943-5.092,5.915a2.745,2.745,0,0,0-.252.455Zm.378,5.062a2.653,2.653,0,0,0-2.61-2.68,2.566,2.566,0,0,0-2.605,2.663,2.608,2.608,0,1,0,5.216.017Z" transform="translate(-288.013 -477.815)" fill="#12263f"/>
        <path id="Trazado_138563" data-name="Trazado 138563" d="M312.249,459.15c-.262-2-.527-4-.785-6-.2-1.519-.4-3.037-.56-4.56-.107-1.04.079-1.2,1.137-1.205.231,0,.463,0,.694,0,.843.02,1.108.3,1,1.119-.4,3.211-.822,6.42-1.234,9.63-.044.343-.082.686-.124,1.029Z" transform="translate(-281.206 -447.383)" fill="#12263f"/>
        <path id="Trazado_138564" data-name="Trazado 138564" d="M332,475.384q1.037-2.493,2.074-4.986c.288-.692.565-1.39.878-2.071.5-1.1,1.107-.189,1.625-.024.552.176.541.614.218,1.038q-2.329,3.059-4.666,6.112Z" transform="translate(-298.66 -464.25)" fill="#12263f"/>
        <path id="Trazado_138565" data-name="Trazado 138565" d="M282.782,479.545q-2.353-3.088-4.707-6.176c-.5-.657-.068-.994.43-1.293.457-.273,1.007-.57,1.311.127,1.054,2.416,2.057,4.854,3.08,7.283Z" transform="translate(-253.913 -467.54)" fill="#12263f"/>
      </g>
    </g>
  </g>
</svg>
