<svg xmlns="http://www.w3.org/2000/svg" xmlns:xlink="http://www.w3.org/1999/xlink" width="104.852" height="104.852" viewBox="0 0 104.852 104.852">
  <defs>
    <radialGradient id="radial-gradient" cx="0.076" cy="0.019" r="1.465" gradientTransform="translate(0.001)" gradientUnits="objectBoundingBox">
      <stop offset="0" stop-color="#f6f6f7"/>
      <stop offset="0.477" stop-color="#f9f9fa"/>
      <stop offset="0.715" stop-color="#fff"/>
    </radialGradient>
  </defs>
  <g id="Grupo_50460" data-name="Grupo 50460" transform="translate(-217 -997)">
    <g id="Grupo_18531" data-name="Grupo 18531" transform="translate(217 997)">
      <g id="Grupo_18423" data-name="Grupo 18423" transform="translate(0 0)">
        <g id="Grupo_18421" data-name="Grupo 18421">
          <g id="Grupo_18420" data-name="Grupo 18420">
            <g id="Grupo_18419" data-name="Grupo 18419">
              <path id="Trazado_40936" data-name="Trazado 40936" d="M299.475,2198.146a52.426,52.426,0,1,1-52.425-52.424A52.425,52.425,0,0,1,299.475,2198.146Z" transform="translate(-194.623 -2145.721)" fill="#fff"/>
            </g>
          </g>
        </g>
        <path id="Trazado_40937" data-name="Trazado 40937" d="M298.99,2197.617a52.425,52.425,0,1,0-52.425,52.427A52.219,52.219,0,0,0,298.99,2197.617Z" transform="translate(-194.138 -2145.192)" fill="url(#radial-gradient)"/>
        <path id="Trazado_40938" data-name="Trazado 40938" d="M282.3,2193.357a40.016,40.016,0,1,0-40.016,40.016A39.868,39.868,0,0,0,282.3,2193.357Z" transform="translate(-189.698 -2140.758)" fill="none" stroke="#7d6eb2" stroke-miterlimit="10" stroke-width="4"/>
        <g id="Grupo_18422" data-name="Grupo 18422" transform="translate(9.288 29.433)">
          <path id="Trazado_40939" data-name="Trazado 40939" d="M290.808,2164.488a52.432,52.432,0,0,1-90.263,52.208,52.266,52.266,0,0,0,90.263-52.208Z" transform="translate(-200.545 -2164.488)" fill="#eceef0"/>
        </g>
      </g>
    </g>
    <g id="Grupo_77969" data-name="Grupo 77969" transform="translate(-896.783 322.006)">
      <path id="Trazado_138568" data-name="Trazado 138568" d="M1156.793,857.3v-8.36c-.647,0-1.238,0-1.828,0a5.3,5.3,0,0,1-5.328-5.178c-.034-1.505-.011-3.012,0-4.518a2.862,2.862,0,0,1,1.281-2.365,1.177,1.177,0,0,0,.423-.77c.134-2.044.121-4.1.346-6.135.474-4.291,3.053-7,7.331-7.48,2.851-.318,5.745-.266,8.621-.344,1.5-.041,3-.007,4.553-.007a58.3,58.3,0,0,1-4.372,14.264l2.551.265a56.909,56.909,0,0,0,4.449-14.276,7.542,7.542,0,0,1,5.922,3.644,12.654,12.654,0,0,1,1.464,5.9c.192,3.889.416,7.776.535,11.667a71.416,71.416,0,0,1-.073,7.308c-.162,2.248-1.555,3.457-3.8,3.689-.564.058-1.132.08-1.781.124-.032.632-.1,1.247-.081,1.858.026.682-.343.727-.88.725q-8.765-.019-17.53-.008Zm4.022-18.812v-.033q-3.854,0-7.708,0c-1.359,0-1.548.194-1.553,1.584q-.005,1.635,0,3.27a3.387,3.387,0,0,0,3.424,3.646c5.372.061,10.745.032,16.117.019.887,0,1.281-.429,1.289-1.3.012-1.323.022-2.648-.009-3.971a2.95,2.95,0,0,0-2.317-3.018,5.253,5.253,0,0,0-1.3-.192C1166.11,838.479,1163.463,838.487,1160.815,838.487Zm13.511,8.195a4.147,4.147,0,0,0,2.111-3.977c-.164-1.542-1.363-3.222-2.593-3.424C1174.712,841.686,1174.154,844.183,1174.326,846.682Zm-16.054-14.553v4.3h1.89v-4.3Z" transform="translate(0 -102.809)" fill="#12263f"/>
      <path id="Trazado_138569" data-name="Trazado 138569" d="M1223.763,709.163a8.765,8.765,0,1,1-8.7-8.82A8.785,8.785,0,0,1,1223.763,709.163Z" transform="translate(-47.792)" fill="#12263f"/>
    </g>
  </g>
</svg>
